<?xml version="1.0" encoding="utf-8"?>
<!-- Generator: Adobe Illustrator 16.0.0, SVG Export Plug-In . SVG Version: 6.00 Build 0)  -->
<!DOCTYPE svg PUBLIC "-//W3C//DTD SVG 1.1//EN" "http://www.w3.org/Graphics/SVG/1.1/DTD/svg11.dtd">
<svg version="1.1" xmlns="http://www.w3.org/2000/svg" xmlns:xlink="http://www.w3.org/1999/xlink" x="0px" y="0px" width="160px"
	 height="160px" viewBox="0 0 160 160" enable-background="new 0 0 160 160" xml:space="preserve">
<g id="Layer_1">
	<g>
		<g>
			<g>
				<g>
					<g>
						<path fill="#74AB6D" d="M151.324,137.296V10.085H8.261V153.14h127.222"/>
					</g>
				</g>
				<polygon opacity="0.23" fill="#38363A" points="136.747,138.805 119.14,153.14 135.482,153.14 				"/>
				<g>
					<linearGradient id="SVGID_1_" gradientUnits="userSpaceOnUse" x1="135.4824" y1="145.2178" x2="151.3242" y2="145.2178">
						<stop  offset="0" style="stop-color:#D9D5CB"/>
						<stop  offset="1" style="stop-color:#EAE7DB"/>
					</linearGradient>
					<polygon fill="url(#SVGID_1_)" points="135.482,137.296 135.482,153.14 151.324,137.296 					"/>
				</g>
				<g>
					<path fill="#EAE7DB" d="M92.454,44.952l1.042-1.554l1.016-1.533l2.298-3.441c0.284-0.425,0.164-0.993-0.253-1.267
						c-0.425-0.285-0.994-0.17-1.282,0.247l-2.456,3.698l-1.033,1.543l-1.047,1.571c-3.322-1.287-7.033-2.014-10.941-2.014
						c-3.916,0-7.619,0.727-10.94,2.014l-1.048-1.571l-1.032-1.543l-2.466-3.698c-0.278-0.417-0.851-0.532-1.273-0.247
						c-0.421,0.273-0.537,0.842-0.253,1.267l2.288,3.441l1.026,1.533l1.031,1.554c-7.8,3.637-13.091,10.528-13.091,18.415h51.508
						C105.547,55.48,100.265,48.589,92.454,44.952z M68.759,56.005c-1.521,0-2.763-1.232-2.763-2.76
						c0-1.525,1.241-2.759,2.763-2.759c1.526,0,2.759,1.233,2.759,2.759C71.518,54.772,70.285,56.005,68.759,56.005z M90.836,56.005
						c-1.527,0-2.76-1.232-2.76-2.76c0-1.525,1.232-2.759,2.76-2.759c1.521,0,2.754,1.233,2.754,2.759
						C93.59,54.772,92.357,56.005,90.836,56.005z"/>
					<path fill="#EAE7DB" d="M54.447,67.038h-0.408v4.587v3.742v32.137c0,3.218,2.611,5.835,5.828,5.835h4.205
						c-0.14,0.487-0.223,0.992-0.223,1.527v0.31v1.834v9.501c0,3.051,2.479,5.516,5.521,5.516c3.048,0,5.518-2.465,5.518-5.516
						v-9.501v-1.834v-0.31c0-0.535-0.076-1.04-0.214-1.527H84.92c-0.143,0.487-0.222,0.992-0.222,1.527v0.31v1.834v9.501
						c0,3.051,2.47,5.516,5.518,5.516c3.051,0,5.521-2.465,5.521-5.516v-9.501v-1.834v-0.31c0-0.535-0.075-1.04-0.215-1.527h4.197
						c3.213,0,5.827-2.617,5.827-5.835V75.367v-3.742v-4.587h-0.399H54.447z"/>
					<path fill="#EAE7DB" d="M44.845,67.038c-3.043,0-5.514,2.466-5.514,5.518v23.612c0,3.043,2.471,5.516,5.514,5.516
						c3.048,0,5.518-2.473,5.518-5.516V72.556C50.362,69.504,47.893,67.038,44.845,67.038z"/>
					<path fill="#EAE7DB" d="M114.739,67.038c-3.046,0-5.515,2.466-5.515,5.518v23.612c0,3.043,2.469,5.516,5.515,5.516
						c3.053,0,5.523-2.473,5.523-5.516V72.556C120.263,69.504,117.792,67.038,114.739,67.038z"/>
				</g>
			</g>
		</g>
	</g>
</g>
<g id="Layer_2" display="none">
</g>
</svg>
