<?xml version="1.0" encoding="utf-8"?>
<!-- Generator: Adobe Illustrator 16.0.0, SVG Export Plug-In . SVG Version: 6.00 Build 0)  -->
<!DOCTYPE svg PUBLIC "-//W3C//DTD SVG 1.1//EN" "http://www.w3.org/Graphics/SVG/1.1/DTD/svg11.dtd">
<svg version="1.1" xmlns="http://www.w3.org/2000/svg" xmlns:xlink="http://www.w3.org/1999/xlink" x="0px" y="0px"
	 width="139.73px" height="48.485px" viewBox="0 0 139.73 48.485" enable-background="new 0 0 139.73 48.485" xml:space="preserve">
<g id="Layer_1">
	<g>
		<path fill="#4B403E" d="M14.105,19.528c0.223,0,0.37,0,0.481-0.111l0.444-1.851c-3.404,0-6.809-0.48-8.844-1.109
			c-3.146-0.962-3.886-2.924-1.332-4.699c0.185-0.111,0.296-0.223,0.333-0.223c2.183,2.368,6.475,3.663,10.397,3.996
			C19.73,1.434,28.537,1.063,29.942,5.245c0.963,2.96-1.554,8.77-8.066,11.285c-0.999,0.37-2.146,0.63-3.367,0.814l-0.333,1.185
			l-0.11,0.406c-0.111,0.593,0,0.593,0.406,0.593h0.186c1.369,0,1.554,0.073,1.369,0.296c-0.186,0.222-0.814,0.37-1.443,0.37h-0.296
			c-0.481,0-0.592,0.037-0.814,0.925h-0.037c-1.258,4.588-3.367,12.433-4.181,15.504c-2.887,10.842-8.696,9.843-10.028,7.696
			c-0.888-1.442-0.518-3.478,0.593-4.81c0.962-1.147,2.405-1.48,3.145-0.556c0.889,1.185-0.147,2.664-1.258,2.442
			c-1.85-0.407-2.701,1.184-1.85,2.517c0.962,1.479,3.922,0.702,6.142-7.475c0.999-3.627,2.85-10.176,4.293-15.911
			c0.037-0.296-0.074-0.333-0.407-0.333h-0.186c-1.368,0-1.517-0.074-1.332-0.296c0.186-0.223,0.777-0.37,1.443-0.37H14.105z
			 M19.064,15.568c1.184-0.073,2.22-0.259,3.034-0.555c5.402-1.851,6.809-7.104,6.031-9.658C27.39,2.988,22.875,4.135,19.064,15.568
			z"/>
		<path fill="#4B403E" d="M22.689,19.602c0.703-1.442,1.776-2.553,3.219-2.923c3.441-0.814,4.848,4.736,3.108,11.396l-0.296,1.036
			c0.629-0.37,1.295-0.888,2.035-1.591c1.036-0.999,1.369-1.147,1.11-0.518c-0.074,0.185-0.444,0.739-1.11,1.368
			c-0.777,0.74-1.554,1.259-2.331,1.592c-1.813,4.847-4.921,7.289-7.03,7.363c-2.035,0.037-5.144-1.998-3.071-9.88
			C19.248,23.857,20.766,21.119,22.689,19.602z M22.023,25.93l-0.444,1.702c-1.628,6.845-1.11,8.807,0.223,8.732
			c1.035-0.037,2.257-2.627,3.367-6.364c-0.999-0.444-1.925-1.369-2.665-2.775C22.282,26.854,22.135,26.41,22.023,25.93z
			 M25.354,29.371l0.222-0.74c1.036-3.812,1.739-7.697,1.406-9.695h-0.074c-1.813-0.147-3.182,1.629-4.329,5.032
			c0,1.11,0.186,2.146,0.629,2.924C23.837,28.112,24.576,28.927,25.354,29.371z M26.76,18.232c-0.222-0.555-0.592-0.776-1.11-0.666
			c-0.629,0.148-1.146,0.593-1.591,1.222C24.909,18.381,25.798,18.196,26.76,18.232z"/>
		<path fill="#4B403E" d="M33.382,17.16c-1.591,0.073-3.182-0.148-4.81-0.666c-3.146-0.963-3.886-2.924-1.333-4.7
			c0.186-0.147,0.333-0.222,0.333-0.222c1.851,1.998,4.256,2.813,6.587,2.923c3.959-12.803,8.77-12.617,10.435-10.841
			c1.813,1.924,0.037,6.512-2.923,9.657c-1.406,1.48-2.997,2.517-4.699,3.146l-0.593,2.072c-2.737,9.953-3.182,12.247-3.626,14.098
			c-0.74,3.293,0.481,3.367,1.295,2.109c0.962-1.48,1.443-2.628,2.628-5.439c0.555-1.332,0.851-1.555,0.851-0.889
			c0,0.223-0.185,0.852-0.555,1.665c-1.036,2.517-1.443,3.404-2.554,5.255c-2.257,3.626-6.364,2.59-4.44-5.106
			c0.814-3.33,2.405-9.324,3.367-12.914C33.345,17.271,33.345,17.233,33.382,17.16z M37.675,14.126
			c1.405-0.407,2.627-1.036,3.367-1.776c2.22-2.221,3.848-6.624,2.183-8.104C42.188,3.357,40.709,4.246,37.675,14.126z"/>
		<path fill="#4B403E" d="M39.598,17.16c-1.591,0.073-3.182-0.148-4.81-0.666c-3.146-0.963-3.886-2.924-1.333-4.7
			c0.186-0.147,0.333-0.222,0.333-0.222c1.851,1.998,4.256,2.813,6.587,2.923C44.334,1.692,49.145,1.878,50.81,3.654
			c1.813,1.924,0.037,6.512-2.923,9.657c-1.406,1.48-2.997,2.517-4.699,3.146l-0.593,2.072c-2.737,9.953-3.182,12.247-3.626,14.098
			c-0.74,3.293,0.481,3.367,1.295,2.109c0.962-1.48,1.443-2.628,2.628-5.439c0.555-1.332,0.851-1.555,0.851-0.889
			c0,0.223-0.185,0.852-0.555,1.665c-1.036,2.517-1.443,3.404-2.554,5.255c-2.257,3.626-6.364,2.59-4.44-5.106
			c0.814-3.33,2.405-9.324,3.367-12.914C39.561,17.271,39.561,17.233,39.598,17.16z M43.891,14.126
			c1.405-0.407,2.627-1.036,3.367-1.776c2.22-2.221,3.848-6.624,2.183-8.104C48.404,3.357,46.925,4.246,43.891,14.126z"/>
		<path fill="#4B403E" d="M47.294,19.602c0.703-1.442,1.776-2.553,3.219-2.923c3.441-0.814,4.848,4.736,3.108,11.396l-0.296,1.036
			c0.629-0.37,1.295-0.888,2.035-1.591c1.036-0.999,1.369-1.147,1.11-0.518c-0.074,0.185-0.444,0.739-1.11,1.368
			c-0.777,0.74-1.554,1.259-2.331,1.592c-1.813,4.847-4.921,7.289-7.03,7.363c-2.035,0.037-5.144-1.998-3.071-9.88
			C43.853,23.857,45.37,21.119,47.294,19.602z M46.628,25.93l-0.444,1.702c-1.628,6.845-1.11,8.807,0.223,8.732
			c1.035-0.037,2.257-2.627,3.367-6.364c-0.999-0.444-1.925-1.369-2.665-2.775C46.887,26.854,46.739,26.41,46.628,25.93z
			 M49.958,29.371l0.222-0.74c1.036-3.812,1.739-7.697,1.406-9.695h-0.074c-1.813-0.147-3.182,1.629-4.329,5.032
			c0,1.11,0.186,2.146,0.629,2.924C48.441,28.112,49.181,28.927,49.958,29.371z M51.364,18.232c-0.222-0.555-0.592-0.776-1.11-0.666
			c-0.629,0.148-1.146,0.593-1.591,1.222C49.514,18.381,50.402,18.196,51.364,18.232z"/>
		<path fill="#4B403E" d="M65.794,35.846c-2.775,2.035-4.773,1.998-4.478-2.146c-0.776,0.776-1.591,1.517-2.441,2.146
			c-3.441,2.517-5.735,1.925-3.812-5.809c0.407-1.702,1.258-5.144,1.961-7.882c1.222-4.773,2.554-4.515,3.996-3.7
			c0.26,0.147,0.444,0.296,0.444,0.296c-0.259,0.888-1.924,6.883-3.589,13.728c-0.814,3.294-0.37,3.553,0.851,2.701
			c1.369-0.999,2.331-3.182,3.849-7.622c0.296-1.295,0.666-2.738,1.073-4.329c1.221-4.811,2.553-4.552,3.959-3.7
			c0.296,0.147,0.48,0.259,0.48,0.259c-0.259,0.925-1.628,5.847-3.293,12.691c-0.813,3.294-0.333,3.553,0.889,2.701
			c1.517-1.109,2.96-3.7,4.81-9.25c1.739-5.255,1.702-7.216,0.74-6.994c-0.333,0.074-1.295-0.48,0.259-0.888
			c2.961-0.703,4.033,1.332,2.924,5.439C72.861,29.223,69.531,33.071,65.794,35.846z"/>
		<path fill="#4B403E" d="M82.555,22.303c1.221-4.772,2.553-4.551,3.959-3.7c0.296,0.148,0.444,0.296,0.444,0.296
			c-0.223,0.889-1.888,6.883-3.59,13.691c-0.777,3.293,0.519,3.404,1.295,2.146c1.998-3.22,3.812-9.029,4.848-12.434
			c1.221-4.772,2.553-4.551,3.996-3.7c0.259,0.148,0.444,0.296,0.444,0.296c-0.259,0.889-2.517,9.214-4.219,16.06
			c-0.813,3.293,0.481,3.367,1.259,2.109c0.962-1.48,1.442-2.627,2.627-5.439c0.592-1.332,0.851-1.591,0.851-0.889
			c0,0.186-0.147,0.852-0.518,1.666c-1.036,2.479-1.443,3.367-2.59,5.217c-2.221,3.626-6.328,2.627-4.44-5.106l0.592-2.331
			c-0.703,1.776-1.518,3.589-2.442,5.106c-2.22,3.626-6.401,2.59-4.515-5.106L82.555,22.303z"/>
		<path fill="#4B403E" d="M102.571,28.557c0.297,1.11,0.444,2.257,0.481,3.479c0,5.846-5.106,8.474-7.845,6.882
			c-2.294-1.295-1.554-4.736,0.333-6.809c0.852-0.962,2.258-1.998,3.923-2.849c-0.481-2.184-1.443-4.256-2.295-5.698
			c-0.739,1.961-1.517,3.959-2.108,5.439c-0.186,0.443-0.777,1.887-0.963,1.479c-0.147-0.443,0.074-0.962,0.26-1.443
			c0.666-1.85,1.554-4.181,2.294-6.327c-0.074-0.11-0.148-0.185-0.186-0.296c-1.442-2.035-1.184-3.626-0.48-4.625
			c1.11-1.628,3.516-0.889,3.516-0.889c-0.037,0.186-0.333,1.073-0.814,2.405l-0.592,1.739c0,0,0,0.037,0.037,0.037
			c1.85,2.072,3.44,4.329,4.292,6.956c0.999-0.333,2.072-0.555,3.146-0.666c1.442-0.147,1.813-0.036,1.221,0.297
			c-0.185,0.11-0.852,0.259-1.739,0.333C104.2,28.112,103.386,28.298,102.571,28.557z M99.611,29.963
			c-1.479,0.851-2.738,1.887-3.479,2.738c-1.628,1.813-1.85,4.403-0.443,5.291c1.443,0.888,3.774-0.962,4.107-4.958
			C99.87,32.035,99.797,30.962,99.611,29.963z"/>
		<path fill="#4B403E" d="M114.744,19.602c0.703-1.442,1.776-2.553,3.219-2.923c3.441-0.814,4.848,4.736,3.108,11.396l-0.296,1.036
			c0.629-0.37,1.295-0.888,2.035-1.591c1.036-0.999,1.369-1.147,1.11-0.518c-0.074,0.185-0.444,0.739-1.11,1.368
			c-0.777,0.74-1.554,1.259-2.331,1.592c-1.813,4.847-4.921,7.289-7.03,7.363c-2.035,0.037-5.144-1.998-3.071-9.88
			C111.303,23.857,112.82,21.119,114.744,19.602z M114.078,25.93l-0.444,1.702c-1.628,6.845-1.11,8.807,0.223,8.732
			c1.035-0.037,2.257-2.627,3.367-6.364c-0.999-0.444-1.925-1.369-2.665-2.775C114.337,26.854,114.189,26.41,114.078,25.93z
			 M117.408,29.371l0.222-0.74c1.036-3.812,1.739-7.697,1.406-9.695h-0.074c-1.813-0.147-3.182,1.629-4.329,5.032
			c0,1.11,0.186,2.146,0.629,2.924C115.892,28.112,116.631,28.927,117.408,29.371z M118.814,18.232
			c-0.222-0.555-0.592-0.776-1.11-0.666c-0.629,0.148-1.146,0.593-1.591,1.222C116.964,18.381,117.853,18.196,118.814,18.232z"/>
		<path fill="#4B403E" d="M123.624,19.231c0,0,0.443-1.295,1.887-1.442c2.146-0.333,3.293,0.925,2.109,5.328
			c0.703-1.295,1.554-2.442,2.405-3.219c2.923-2.591,5.957-1.259,3.552,7.585c-0.776,2.738-1.295,4.885-1.739,6.846
			c-0.776,3.293,0.26,2.96,1.073,1.702c0.962-1.48,1.998-3.923,3.183-6.734c0.592-1.332,0.851-1.592,0.851-0.889
			c0,0.223-0.185,0.852-0.518,1.665c-1.036,2.517-1.998,4.663-3.146,6.513c-2.22,3.626-6.143,3.441-4.255-4.292
			c0.147-0.555,1.109-4.44,1.295-5.032c1.739-6.513,1.332-8.03-0.074-6.734c-1.332,1.258-2.701,3.552-3.626,6.438
			c-0.037,0.073-0.037,0.185-0.074,0.259l-2.664,10.619c0,0-0.111,0-0.333-0.036c-1.888-0.186-2.701-0.852-1.443-6.032l1.665-6.993
			C125.178,18.788,123.624,19.231,123.624,19.231z"/>
	</g>
</g>
<g id="Layer_2" display="none">
</g>
</svg>
