<?xml version="1.0" encoding="utf-8"?>
<!-- Generator: Adobe Illustrator 16.0.0, SVG Export Plug-In . SVG Version: 6.00 Build 0)  -->
<!DOCTYPE svg PUBLIC "-//W3C//DTD SVG 1.1//EN" "http://www.w3.org/Graphics/SVG/1.1/DTD/svg11.dtd">
<svg version="1.1" xmlns="http://www.w3.org/2000/svg" xmlns:xlink="http://www.w3.org/1999/xlink" x="0px" y="0px" width="160px"
	 height="160px" viewBox="0 0 160 160" enable-background="new 0 0 160 160" xml:space="preserve">
<g id="Layer_1">
	<g>
		<g>
			<g>
				<g>
					<g>
						<path fill="#DC6663" d="M151.594,135.727V8.516H8.532v143.063h127.219"/>
					</g>
				</g>
				<polygon opacity="0.23" fill="#38363A" points="137.01,137.245 119.405,151.578 135.751,151.578 				"/>
				<g>
					<linearGradient id="SVGID_1_" gradientUnits="userSpaceOnUse" x1="135.751" y1="143.6523" x2="151.5938" y2="143.6523">
						<stop  offset="0" style="stop-color:#D9D5CB"/>
						<stop  offset="1" style="stop-color:#EAE7DB"/>
					</linearGradient>
					<polygon fill="url(#SVGID_1_)" points="135.751,135.727 135.751,151.578 151.594,135.727 					"/>
				</g>
				<g>
					<path fill="#EAE7DB" d="M71.589,77.389l8.078-14.066c0.604-1.055,0.24-2.404-0.815-3.017l-5.742-3.29
						c-1.054-0.611-2.409-0.238-3.014,0.807L61.29,73.16l0,0l-9.705,16.904l0,0l-8.098,14.112c-0.612,1.046-0.24,2.403,0.813,3.008
						l5.741,3.3c1.057,0.601,2.412,0.238,3.016-0.809l11.256-19.611l0,0L71.589,77.389z"/>
					<path fill="#EAE7DB" d="M125.754,73.16h-19.387c2.277,4.283,4.395,8.31,5.884,11.158c1.032,1.96,1.844,3.512,2.137,4.034
						c0.299,0.56,0.515,1.126,0.663,1.712h10.703c1.103,0,1.997-0.896,1.997-1.994V75.163
						C127.751,74.056,126.856,73.16,125.754,73.16z"/>
					<path fill="#EAE7DB" d="M78.611,73.16l-9.699,16.904h26.33c-1.911-3.77-4.443-9.17-7.844-16.904H78.611z"/>
					<path fill="#EAE7DB" d="M56.687,73.16H34.368c-1.106,0-1.995,0.896-1.995,2.003V88.07c0,1.098,0.889,1.994,1.995,1.994h12.619
						L56.687,73.16z"/>
					<path fill="#EAE7DB" d="M48.165,113.011l-5.741-3.288c-1.052-0.613-2.027-0.118-2.166,1.09l-0.992,8.646
						c-0.139,1.209,0.567,1.634,1.569,0.948l7.424-5.056C49.262,114.679,49.216,113.615,48.165,113.011z"/>
					<path fill="#EAE7DB" d="M110.89,90.286c-0.032-0.061-0.077-0.142-0.12-0.222l0,0c-0.532-0.984-1.868-3.557-3.628-6.891
						c-0.021-0.044-0.04-0.081-0.059-0.133c-0.141-0.249-0.275-0.516-0.417-0.773c-0.096-0.194-0.195-0.382-0.299-0.576
						c-0.092-0.168-0.18-0.337-0.263-0.506c-0.154-0.291-0.315-0.585-0.476-0.895c-0.054-0.09-0.096-0.187-0.146-0.276
						c-0.183-0.345-0.364-0.682-0.546-1.028c-0.054-0.104-0.102-0.204-0.158-0.3c-4.045-7.656-9.127-17.075-12.269-22.024
						c-5.487-8.686-12.816-23.152-14.864-22.123c-2.865,1.428,6.005,19.798,8.945,26.7c2.936,6.891,14.391,33.341,16.693,34.493
						c2.296,1.144,3.187,0.506,4.722-0.132C109.54,94.962,112.291,92.843,110.89,90.286z"/>
					<path fill="#EAE7DB" d="M117.44,103.902l-2.737-5.243c-0.62-1.188-2.075-1.676-3.238-1.081l-3.299,1.693
						c-1.163,0.604-1.529,2.014-0.815,3.149l3.468,5.465c0.708,1.125,2.219,1.498,3.339,0.823l2.355-1.418
						C117.638,106.615,118.055,105.092,117.44,103.902z"/>
					<path fill="#EAE7DB" d="M116.593,111.514c-0.861,0.815-2.909,2.614-0.43,6.093c2.469,3.486,7.995,3.646,8.723,5.961
						C124.886,123.567,126.62,105.854,116.593,111.514z"/>
				</g>
			</g>
		</g>
	</g>
</g>
<g id="Layer_2" display="none">
</g>
</svg>
