<?xml version="1.0" encoding="utf-8"?>
<!-- Generator: Adobe Illustrator 16.0.0, SVG Export Plug-In . SVG Version: 6.00 Build 0)  -->
<!DOCTYPE svg PUBLIC "-//W3C//DTD SVG 1.1//EN" "http://www.w3.org/Graphics/SVG/1.1/DTD/svg11.dtd">
<svg version="1.1" xmlns="http://www.w3.org/2000/svg" xmlns:xlink="http://www.w3.org/1999/xlink" x="0px" y="0px" width="50px"
	 height="50px" viewBox="0 0 50 50" enable-background="new 0 0 50 50" xml:space="preserve">
<g id="Layer_1">
	<g>
		<g>
			<g>
				<path fill="#91D3E1" d="M45.993,41.343V4.009H4.007V45.99h37.336"/>
				<polygon opacity="0.23" fill="#38363A" points="41.712,41.787 36.546,45.99 41.343,45.99 				"/>
				<g>
					<linearGradient id="SVGID_1_" gradientUnits="userSpaceOnUse" x1="41.3428" y1="43.666" x2="45.9932" y2="43.666">
						<stop  offset="0" style="stop-color:#D9D5CB"/>
						<stop  offset="1" style="stop-color:#EAE7DB"/>
					</linearGradient>
					<polygon fill="url(#SVGID_1_)" points="41.343,41.343 41.343,45.99 45.993,41.343 					"/>
				</g>
			</g>
		</g>
		<path fill="#EAE7DB" d="M39.526,16.905c-1.014,0.446-2.104,0.752-3.248,0.884c1.168-0.697,2.063-1.804,2.486-3.123
			c-1.092,0.646-2.303,1.116-3.592,1.369c-1.029-1.099-2.5-1.785-4.125-1.785c-3.123,0-5.654,2.532-5.654,5.656
			c0,0.442,0.051,0.874,0.146,1.285c-4.699-0.231-8.867-2.485-11.654-5.906c-0.486,0.836-0.766,1.807-0.766,2.843
			c0,1.963,0.998,3.694,2.516,4.706c-0.928-0.028-1.799-0.283-2.563-0.705c0,0.021,0,0.047,0,0.071c0,2.738,1.949,5.023,4.535,5.543
			c-0.475,0.128-0.975,0.198-1.488,0.198c-0.365,0-0.719-0.034-1.064-0.102c0.721,2.247,2.809,3.882,5.283,3.925
			c-1.936,1.519-4.375,2.422-7.023,2.422c-0.457,0-0.906-0.026-1.35-0.078c2.504,1.604,5.477,2.54,8.668,2.54
			c10.4,0,16.088-8.616,16.088-16.086c0-0.245-0.006-0.49-0.016-0.732C37.81,19.032,38.769,18.037,39.526,16.905z"/>
	</g>
</g>
<g id="Layer_2" display="none">
</g>
</svg>
