<?xml version="1.0" encoding="utf-8"?>
<!-- Generator: Adobe Illustrator 16.0.0, SVG Export Plug-In . SVG Version: 6.00 Build 0)  -->
<!DOCTYPE svg PUBLIC "-//W3C//DTD SVG 1.1//EN" "http://www.w3.org/Graphics/SVG/1.1/DTD/svg11.dtd">
<svg version="1.1" xmlns="http://www.w3.org/2000/svg" xmlns:xlink="http://www.w3.org/1999/xlink" x="0px" y="0px"
	 width="539.412px" height="141.177px" viewBox="0 0 539.412 141.177" enable-background="new 0 0 539.412 141.177"
	 xml:space="preserve">
<g id="Layer_1">
	<g>
		<g>
			<path fill="#DC6663" d="M32.157,62.797c0-0.125,0-0.25,0.125-0.5c-4.5,0-9.125-0.75-13.75-2.25c-10.625-3.375-13.125-15-4.5-21
				c0.625-0.375,1.125-0.75,1.125-0.625c5.75,6.25,13.375,10,20.75,11.625c13.5-40.125,31.25-39.375,36.75-33.5
				c6.125,6.625,0.125,22.125-9.875,32.75c-4,4.125-8.375,7.375-13,9.5c-0.75,2.5-1.625,5.25-2.375,8.125l-3.375,12.375
				c1.625-3.125,3.625-5.75,5.875-7.75c10.625-9.5,22-3.25,14,23c-4.875,15.625-16.875,25.625-28.125,32.625
				c-11.375,7-21.625,5.875-15.125-20.875C22.407,99.297,24.782,90.672,32.157,62.797z M37.657,104.047l-2.5,10.375
				c-2.5,10.125-2.125,12.25,0,10.625c3.25-2.25,8.25-13.25,12.25-28.625c5.75-21.25,5.5-25,3.25-22.75
				c-5.125,4.875-9.125,14.875-12.125,27.25L37.657,104.047z M52.282,50.172c3.5-0.75,6.375-2.25,8.375-4.25
				c7.5-7.5,13-22.25,7.375-27.25C64.657,15.672,61.782,18.297,52.282,50.172z"/>
			<path fill="#DC6663" d="M98.906,66.047c7.875-1,11.375,2.75,11.625,7c0.625,10.375-12.875,26.125-29.625,36.375
				c-0.75,14.375,3.875,19.5,10.875,16.125c4.875-2.25,10.875-8.125,17.25-22.375c2-4.5,2.875-5.375,2.875-3.125
				c0,0.75-0.5,3-1.75,5.75c-5.625,12.375-11.125,19.625-19.125,23.25c-15,6.75-31.875-2.5-24.125-32
				c3.875-14.75,14.5-23.25,22.375-27c1.25-0.5,2.125-0.25,2.375,0.5s0,2.125,0,2.125c-3.5,3.625-5.125,11.625-8.75,25.125
				c-0.875,3.125-1.375,6-1.75,8.75c15.75-10.25,18.5-28.125,16-33.75c-0.625-1.5-1.375-2.375-2.5-2.375
				c-0.375,0-0.25,0-0.625,0.125C91.781,71.422,94.156,66.672,98.906,66.047z"/>
			<path fill="#DC6663" d="M136.779,62.797c0-0.125,0-0.25,0.125-0.5c-4.5,0-9.125-0.75-13.75-2.25c-10.625-3.375-13.125-15-4.5-21
				c0.625-0.375,1.125-0.75,1.125-0.625c5.75,6.25,13.375,10,20.75,11.625c13.5-40.125,31.25-39.375,36.75-33.5
				c6.125,6.625,0.125,22.125-9.875,32.75c-4,4.125-8.375,7.375-13,9.5c-0.75,2.5-1.625,5.25-2.375,8.125l-3.375,12.375
				c1.625-3.125,3.625-5.75,5.875-7.75c10.625-9.5,22-3.25,14,23c-4.875,15.625-16.875,25.625-28.125,32.625
				c-11.375,7-21.625,5.875-15.125-20.875C127.029,99.297,129.404,90.672,136.779,62.797z M142.279,104.047l-2.5,10.375
				c-2.5,10.125-2.125,12.25,0,10.625c3.25-2.25,8.25-13.25,12.25-28.625c5.75-21.25,5.5-25,3.25-22.75
				c-5.125,4.875-9.125,14.875-12.125,27.25L142.279,104.047z M156.904,50.172c3.5-0.75,6.375-2.25,8.375-4.25
				c7.5-7.5,13-22.25,7.375-27.25C169.279,15.672,166.404,18.297,156.904,50.172z"/>
			<path fill="#DC6663" d="M222.153,70.797c0,0.125-0.5,1.75-3,3.875c-1.875,1.625-4.25,2.25-6.25,0.375
				c-2.875-2.75-5.125-5.125-9.75-4c-6.5,1.5-11.25,10-15.875,26.625c-6,22.5-6,32.5-1.875,27.25
				c2.25-2.875,4.875-9.625,7.25-19.625l0.5-2.125c0.875-3.25,1.25-5.375,3.125-12.625c4-15.5,10.5-18.125,18.625-13.5
				c1,0.625,1.625,1,1.625,1c-0.875,3-4,13.5-9.625,36.5c-2.875,11.5-0.5,10.75,1.75,7.25c3.25-5.125,4.875-9,8.875-18.375
				c2-4.625,2.875-5.375,2.875-3.125c0,0.75-0.625,2.875-1.75,5.625c-3.5,8.5-4.875,11.5-8.75,17.75c-6.125,10-18.25,9.5-19-5.125
				c-1.375,3.5-2.75,6.375-4.375,8.375c-8.375,10.5-23.125,0.125-15.25-29.875c5.75-22,25.875-30.625,38.625-29.875
				C216.278,67.422,221.403,69.922,222.153,70.797z"/>
			<path fill="#DC6663" d="M234.527,93.797c-0.25-0.75-0.5-1.25-0.375-1.25c14.875-3.5,19.625-15.375,16.25-20.125
				c-4-5.75-12.25,0.25-19,25.25c-6.25,22.875-0.75,31.5,6,28.75c5.75-2.375,11.375-8.5,17.875-23.125c2-4.5,2.875-5.375,2.875-3
				c0,0.625-0.5,2.875-1.75,5.625c-5.875,12.75-10.875,20.25-20,23.875c-13.25,5.25-28.875-3.125-21-32.75
				c8-30.5,31.625-33.75,37.125-25.625c4.125,5.875,4.5,18.125-0.5,25.625C246.527,105.547,237.777,102.422,234.527,93.797z"/>
			<path fill="#DC6663" d="M264.652,62.797c0-0.125,0-0.375,0.125-0.5c-4.5-0.125-9.125-0.875-13.625-2.375
				c-10.625-3.25-13.125-14.875-4.5-20.875c0.625-0.375,1-0.75,1.125-0.625c5.75,6.25,13.375,10,20.75,11.625
				c13.625-40.125,31.251-39.375,36.751-33.5c6.125,6.625,0.125,22.125-9.876,32.75c-4,4.125-8.25,7.25-13,9.375l-2.375,8.25
				c-0.625,2.25-1.625,5.375-2.625,9.25c3-5.25,6.625-8.125,11.25-9.875c16.001-5.875,22.876,8.875,18.251,21.625
				c-4.375,12.375-13.126,18.375-18.001,20.25c1.75,13.5,7.125,21,12.001,13.5c3.25-5,4.875-8.875,8.875-18.375
				c1.875-4.5,2.875-5.375,2.875-3.125c0,0.75-0.625,3-1.75,5.75c-3.5,8.375-5,11.375-8.75,17.625
				c-9.751,15.75-27.251,7.625-29.751-20.625l0.25-0.125c7.125-1.625,13.625-9.25,17.25-15.125
				c6.751-11.25,4.75-21.125-1.125-19.125c-8,2.75-11.75,8.625-17.375,32.375c-0.5,2-1,3.375-1.375,4.125
				c-3.25,12.875-5.875,24.125-6.25,25.5c0,0-0.375,0-1.125-0.125c-6.25-0.625-14-2.75-9.875-20.375
				C256.277,95.422,260.652,78.047,264.652,62.797z M285.027,50.172c3.375-0.875,6.25-2.25,8.25-4.25
				c7.501-7.5,13.001-22.25,7.376-27.25C297.278,15.672,294.652,18.422,285.027,50.172z"/>
			<path fill="#DC6663" d="M359.026,100.172c1,3.875,1.625,8.125,1.75,12.375c0,19.75-19.75,28.625-29,23.25
				c-7.75-4.375-5.25-16,1.125-23c2.5-2.75,6.375-5.75,11-8.375c-1.25-6.375-3.625-12.375-6.125-17.25
				c-2.375,5.625-4.75,10.875-6.5,15.125c-0.625,1.5-2.625,6.375-3.25,5c-0.5-1.5,0.25-3.25,0.875-4.875
				c2.125-5.75,4.625-12.375,6.875-18.75l-2.25-3.625c-4.875-6.875-3.375-12.375-1-15.75c3.75-5.5,15-2.875,15-2.875
				c-0.125,0.625-1.125,3.625-2.75,8.125c-0.375,1.25-0.875,2.5-1.375,3.75c0.25,0.5,0.5,0.875,0.75,1
				c6.125,6.875,11.5,14.875,14.375,24c2.625-0.75,5.5-1.25,8.25-1.5c4.875-0.5,6.125-0.125,4.125,1
				c-0.625,0.375-2.875,0.875-5.875,1.125C363.026,99.172,361.026,99.547,359.026,100.172z M344.401,106.922
				c-4,2.625-7.375,5.5-9.5,7.875c-5.5,6.125-6.25,14.875-1.5,17.875c4.875,3,10.25-3.25,11.375-16.75
				C345.026,112.922,344.776,109.922,344.401,106.922z"/>
			<path fill="#DC6663" d="M382.024,69.672c2.375-4.375,5.75-7.875,10.375-9c11.625-2.75,18.875,16,13,38.5
				c-0.375,1.125-0.625,2.25-1,3.25c2.25-1.125,4.5-2.875,6.875-5.125c3.5-3.375,4.625-3.875,3.75-1.75
				c-0.25,0.625-1.5,2.5-3.75,4.625c-2.5,2.375-5.25,4.125-8,5.25c-6.5,16.375-19,24.75-26.125,25
				c-6.875,0.125-19.875-6.75-12.875-33.375C367.649,84.172,374.149,74.547,382.024,69.672z M380.649,95.922l-0.375,1.75
				c-5.5,23.125-6.25,29.75-1.75,29.5c3.625-0.125,5.75-9.625,9.375-23c-2.75-1.75-5.125-4.375-7-7.875
				C380.774,96.172,380.649,96.047,380.649,95.922z M388.524,101.797l0.25-0.75c3.625-12.875,7-26,6.5-32.75
				c-6.75-0.25-9.75,8-13.5,23c0.375,1.375,0.875,2.75,1.5,3.875C384.774,98.047,386.524,100.297,388.524,101.797z M394.899,65.922
				c-0.5-1.75-1.625-2.625-3.375-2.25c-2,0.5-3.75,1.875-5.25,3.875C389.024,66.422,392.024,65.797,394.899,65.922z"/>
			<path fill="#DC6663" d="M425.024,69.672c2.375-4.375,5.75-7.875,10.375-9c11.625-2.75,18.875,16,13,38.5
				c-0.375,1.125-0.625,2.25-1,3.25c2.25-1.125,4.5-2.875,6.875-5.125c3.5-3.375,4.625-3.875,3.75-1.75
				c-0.25,0.625-1.5,2.5-3.75,4.625c-2.5,2.375-5.25,4.125-8,5.25c-6.5,16.375-19,24.75-26.125,25
				c-6.875,0.125-19.875-6.75-12.875-33.375C410.649,84.172,417.149,74.547,425.024,69.672z M423.649,95.922l-0.375,1.75
				c-5.5,23.125-6.25,29.75-1.75,29.5c3.625-0.125,5.75-9.625,9.375-23c-2.75-1.75-5.125-4.375-7-7.875
				C423.774,96.172,423.649,96.047,423.649,95.922z M431.524,101.797l0.25-0.75c3.625-12.875,7-26,6.5-32.75
				c-6.75-0.25-9.75,8-13.5,23c0.375,1.375,0.875,2.75,1.5,3.875C427.774,98.047,429.524,100.297,431.524,101.797z M437.899,65.922
				c-0.5-1.75-1.625-2.625-3.375-2.25c-2,0.5-3.75,1.875-5.25,3.875C432.024,66.422,435.024,65.797,437.899,65.922z"/>
			<path fill="#DC6663" d="M453.897,69.297c0,0,4-4.375,8.875-4.875c6.375-1,12,2.25,10.625,13c1.375-2.25,2.875-4.25,4.625-5.875
				c9.875-8.75,22.625-4.25,14.5,25.625c-2.625,9.25-4.375,16.5-5.875,23.125c-2.25,9.5-1.75,10.375,1.125,5.75
				c3.25-5,6.75-13.25,10.75-22.75c2-4.5,2.875-5.375,2.875-3c0,0.75-0.625,2.875-1.75,5.625c-3.5,8.5-6.75,15.75-10.625,22
				c-7.5,12.25-23.25,11.625-16.875-14.5c0.5-1.875,3.75-15,4.375-17c5.875-22,7-27.125,2.25-22.75c-3.75,3.5-6.375,9.5-8.625,17
				l-0.25,1.5l-10.125,40c0,0-0.375,0-1.125-0.125c-6.375-0.625-14.125-2.875-9.875-20.375l5.625-23.625
				C459.147,67.797,453.897,69.297,453.897,69.297z"/>
			<path fill="#DC6663" d="M502.897,130.922c-6.25-1-10.125-6.625-8-10.125c2-3.375,6.375-5.625,12.875-4.5
				c6.125,1,10,6.875,7.875,10.25C513.647,129.922,509.772,132.047,502.897,130.922z M515.397,105.297c-2.625,7-8.75,8.125-11.375,6
				c-0.625-0.375-1-0.625-1-0.625l11.25-57.75c1.375-6.375,1.5-8.75,1.5-8.75s0.375,0,1-0.125c9.5-1.375,16.625,4.875,12.5,19.25
				C525.772,75.547,520.522,91.297,515.397,105.297z"/>
		</g>
	</g>
</g>
<g id="Layer_2" display="none">
</g>
</svg>
