<?xml version="1.0" encoding="utf-8"?>
<!-- Generator: Adobe Illustrator 16.0.0, SVG Export Plug-In . SVG Version: 6.00 Build 0)  -->
<!DOCTYPE svg PUBLIC "-//W3C//DTD SVG 1.1//EN" "http://www.w3.org/Graphics/SVG/1.1/DTD/svg11.dtd">
<svg version="1.1" xmlns="http://www.w3.org/2000/svg" xmlns:xlink="http://www.w3.org/1999/xlink" x="0px" y="0px"
	 width="350.877px" height="228.947px" viewBox="0 0 350.877 228.947" enable-background="new 0 0 350.877 228.947"
	 xml:space="preserve">
<g id="Layer_1">
	<g>
		<g>
			<path fill="#4B403E" d="M50.386,48.052c3.994-14.961,4.25-18.531,1.105-15.471c-3.4,3.146-7.311,12.581-9.436,20.742v0.255
				c-0.766,3.315-4.166,16.491-5.697,22.526c-2.549,10.201-8.5,15.727-14.109,11.561c-0.256-0.17-0.426-0.34-0.426-0.34
				s1.359-3.654,4.42-15.727c1.701-6.715,3.74-14.535,5.441-21.506c3.91-15.642,5.695-21.847,0.594-21.422
				c-6.885,0.596-11.305,9.436-3.91,11.391c3.4,1.021,3.74,5.355,1.021,7.82c-2.467,2.211-6.631,1.445-7.736-1.955
				c-2.465-7.905,2.891-18.191,11.477-18.956c6.799-0.51,12.07,3.146,10.795,16.151c2.041-4.93,4.59-9.775,7.057-11.986
				c5.695-5.1,13.006-3.57,11.73,9.861c1.785-4.166,3.994-7.99,6.119-9.861c6.631-5.95,16.066-2.805,10.371,17.342
				c-1.529,5.44-4.76,17.002-7.48,27.372c-2.209,8.331-5.186,22.442,14.281,18.276c11.561-2.38,20.063-4.165,29.242-1.359
				c7.48,2.295,5.695,10.711-0.34,14.875c-0.424,0.256-0.68,0.511-0.766,0.426c-6.629-7.226-16.746-13.092-29.072-10.541
				c-11.475,2.381-29.752-0.51-22.951-27.287c3.061-12.156,3.91-13.602,6.121-22.188c3.91-15.045,4.25-18.531,1.105-15.471
				c-2.807,2.635-5.951,9.605-8.162,16.576c-4.93,19.042-9.436,37.573-9.436,37.573h-0.764c-4.336-0.51-9.861-2.04-7.057-14.026
				C45.371,66.243,48.091,56.638,50.386,48.052z"/>
			<path fill="#4B403E" d="M100.619,42.867c5.355-0.681,7.736,1.87,7.906,4.761c0.426,7.055-8.756,17.766-20.146,24.736
				c-0.51,9.775,2.635,13.262,7.396,10.966c3.314-1.53,7.395-5.525,11.73-15.216c1.359-3.061,1.955-3.655,1.955-2.125
				c0,0.51-0.34,2.039-1.189,3.91c-3.826,8.416-7.566,13.346-13.006,15.811c-10.201,4.591-21.678-1.699-16.408-21.762
				c2.637-10.03,9.861-15.811,15.217-18.361c0.85-0.34,1.445-0.17,1.615,0.34c0.17,0.511,0,1.445,0,1.445
				c-2.381,2.465-3.484,7.906-5.951,17.087c-0.594,2.125-0.934,4.08-1.189,5.95c10.711-6.971,12.582-19.127,10.881-22.951
				c-0.424-1.021-0.936-1.615-1.699-1.615c-0.256,0-0.17,0-0.426,0.084C95.775,46.522,97.39,43.292,100.619,42.867z"/>
			<path fill="#4B403E" d="M140.484,46.097c0,0.086-0.34,1.191-2.039,2.636c-1.275,1.104-2.891,1.53-4.25,0.255
				c-1.955-1.87-3.486-3.484-6.631-2.721c-4.42,1.021-7.65,6.801-10.797,18.107c-4.08,15.301-4.08,22.102-1.273,18.531
				c1.529-1.955,3.314-6.545,4.93-13.346l0.34-1.445c0.596-2.211,0.85-3.655,2.125-8.586c2.721-10.541,7.141-12.326,12.666-9.181
				c0.68,0.425,1.105,0.681,1.105,0.681c-0.596,2.039-2.721,9.18-6.545,24.821c-1.955,7.821-0.34,7.311,1.189,4.931
				c2.211-3.485,3.314-6.121,6.035-12.496c1.359-3.146,1.955-3.655,1.955-2.125c0,0.51-0.424,1.955-1.189,3.825
				c-2.381,5.78-3.316,7.82-5.951,12.071c-4.164,6.8-12.41,6.46-12.92-3.486c-0.936,2.381-1.871,4.336-2.977,5.695
				c-5.695,7.141-15.727,0.086-10.371-20.316c3.912-14.961,17.598-20.826,26.268-20.316
				C136.49,43.802,139.974,45.503,140.484,46.097z"/>
			<path fill="#4B403E" d="M138.273,45.077c0,0,2.719-2.975,6.035-3.314c4.334-0.681,8.16,1.529,7.225,8.84
				c0.936-1.529,1.955-2.891,3.146-3.995c6.715-5.95,15.385-2.89,9.859,17.427c-1.785,6.29-2.975,11.221-3.994,15.726
				c-1.531,6.461-1.191,7.056,0.764,3.911c2.211-3.4,4.592-9.012,7.313-15.472c1.359-3.061,1.955-3.655,1.955-2.04
				c0,0.51-0.426,1.955-1.191,3.825c-2.379,5.78-4.59,10.71-7.225,14.961c-5.102,8.331-15.813,7.905-11.477-9.86
				c0.34-1.275,2.551-10.201,2.975-11.561c3.996-14.962,4.762-18.447,1.531-15.473c-2.551,2.381-4.336,6.461-5.865,11.562
				l-0.17,1.021l-6.887,27.201c0,0-0.254,0-0.764-0.084c-4.336-0.426-9.607-1.955-6.717-13.856l3.826-16.066
				C141.843,44.058,138.273,45.077,138.273,45.077z"/>
			<path fill="#4B403E" d="M193.353,83.245c-5.949,4.42-11.391,4.676-11.73-3.314c-1.359,1.189-2.805,2.295-4.166,3.314
				c-7.904,5.781-14.875,4.42-10.455-13.346c0.936-3.91,2.891-11.816,4.506-18.106c2.805-10.966,9.266-10.371,12.58-8.501
				c0.596,0.34,1.02,0.68,1.02,0.68c-0.594,2.041-4.42,15.812-8.244,31.538c-1.871,7.565-2.551,8.161,0.254,6.206
				c3.146-2.211,3.91-7.227,7.057-17.257c0.764-2.976,1.529-6.461,2.549-10.201c2.807-11.051,9.266-10.456,12.496-8.501
				c0.682,0.34,1.105,0.596,1.105,0.596c-0.596,2.125-3.74,13.431-7.564,29.157c-1.871,7.565-2.467,8.161,0.34,6.206
				c3.484-2.551,5.1-8.502,9.35-21.252c3.996-12.071,3.91-16.576,1.701-16.066c-0.766,0.17-2.977-1.105,0.594-2.041
				c6.801-1.615,12.666,3.061,10.117,12.496C211.291,68.028,201.939,76.87,193.353,83.245z"/>
			<path fill="#4B403E" d="M238.742,75.765c-1.869,7.565-0.764,7.736,1.105,4.93c2.211-3.484,3.316-6.119,6.035-12.495
				c1.275-3.146,1.955-3.655,1.955-2.126c0,0.511-0.424,1.955-1.189,3.826c-2.381,5.78-3.4,7.82-5.949,12.07
				c-5.186,8.331-16.152,6.971-11.816-10.795c0.254-1.275,1.615-6.376,1.955-7.65c3.994-14.962,5.1-18.532,1.869-15.473
				c-3.484,3.316-5.865,10.117-7.82,18.532c-0.34,1.274-0.596,2.21-0.85,2.72l-4.336,17.427c0,0-0.254,0-0.764-0.085
				c-4.252-0.425-9.607-1.955-6.717-13.855c2.381-9.946,5.355-21.762,8.076-32.133c0-0.086,0-0.256,0.084-0.34
				c-3.059-0.086-6.205-0.596-9.266-1.615c-7.225-2.211-9.01-10.116-3.059-14.197c0.424-0.254,0.68-0.51,0.764-0.51
				c3.91,4.336,9.096,6.887,14.111,7.991c9.266-27.287,21.252-26.777,24.992-22.782c4.166,4.506,0.086,15.047-6.801,22.271
				c-2.635,2.806-5.609,4.932-8.756,6.376l-1.615,5.61c-0.51,1.785-1.275,4.506-2.125,7.82c1.02-1.869,2.211-3.484,3.656-4.76
				c6.631-5.865,15.045-2.805,9.436,17.426C240.017,70.324,239.763,71.345,238.742,75.765z M234.152,32.071
				c2.295-0.596,4.25-1.53,5.611-2.891c5.1-5.1,8.84-15.216,5.016-18.616C242.482,8.609,240.699,10.479,234.152,32.071z"/>
			<path fill="#4B403E" d="M247.24,57.147c2.551-10.03,9.436-9.859,12.156-8.074c0.68,0.51,1.189,0.935,1.189,0.935
				c-0.17,0.765-4.334,15.812-6.799,25.757c-1.701,6.715-0.512,7.565,1.189,4.93c2.209-3.484,3.314-6.035,6.035-12.495
				c1.275-3.146,1.955-3.655,1.955-2.126c0,0.511-0.426,1.955-1.189,3.911c-2.381,5.695-3.316,7.735-5.951,11.985
				c-5.1,8.331-16.32,6.035-11.9-11.73C244.435,68.028,246.304,60.974,247.24,57.147z M256.082,45.247
				c-4.25-0.68-6.887-4.506-5.441-6.885c1.361-2.296,4.336-3.826,8.756-3.061c4.166,0.68,6.801,4.676,5.355,6.971
				C263.392,44.567,260.755,46.013,256.082,45.247z"/>
			<path fill="#4B403E" d="M266.111,40.317c-3.061,0-6.205-0.511-9.352-1.531c-7.225-2.209-8.926-10.115-3.061-14.195
				c0.426-0.34,0.766-0.51,0.766-0.51c3.996,4.335,9.096,6.885,14.111,7.99c9.266-27.202,21.252-26.777,24.992-22.781
				c4.166,4.42,0.084,14.961-6.715,22.186c-2.721,2.891-5.697,5.016-8.926,6.461l-1.531,5.525
				c-6.291,22.867-7.311,28.137-8.33,32.388c-1.701,7.565-0.596,7.735,1.275,4.845c2.209-3.399,3.314-6.035,6.035-12.495
				c1.275-3.061,1.955-3.57,1.955-2.04c0,0.51-0.426,1.955-1.275,3.825c-2.381,5.78-3.314,7.82-5.865,12.071
				c-5.186,8.33-16.322,5.949-11.9-11.731c1.869-7.65,5.525-21.422,7.734-29.667C266.025,40.571,266.025,40.487,266.111,40.317z
				 M279.626,32.156c2.381-0.511,4.42-1.53,5.781-2.89c5.1-5.102,8.84-15.217,5.014-18.617
				C288.126,8.609,286.087,10.479,279.626,32.156z"/>
			<path fill="#4B403E" d="M295.605,42.867c5.355-0.681,7.736,1.87,7.906,4.761c0.426,7.055-8.756,17.766-20.146,24.736
				c-0.51,9.775,2.635,13.262,7.396,10.966c3.314-1.53,7.395-5.525,11.73-15.216c1.359-3.061,1.955-3.655,1.955-2.125
				c0,0.51-0.34,2.039-1.189,3.91c-3.826,8.416-7.566,13.346-13.006,15.811c-10.201,4.591-21.678-1.699-16.408-21.762
				c2.637-10.03,9.861-15.811,15.217-18.361c0.85-0.34,1.445-0.17,1.615,0.34c0.17,0.511,0,1.445,0,1.445
				c-2.381,2.465-3.484,7.906-5.951,17.087c-0.594,2.125-0.934,4.08-1.189,5.95c10.711-6.971,12.582-19.127,10.881-22.951
				c-0.424-1.021-0.936-1.615-1.699-1.615c-0.256,0-0.17,0-0.426,0.084C290.761,46.522,292.376,43.292,295.605,42.867z"/>
			<path fill="#4B403E" d="M315.24,83.671c-0.17,0.424-0.34,0.935-0.596,1.359c-2.209,3.825-10.201,6.205-12.836,6.121
				c-0.936,0-1.275-0.681-0.34-0.936c1.531-0.34,3.061-1.615,4.25-3.23c-3.91-0.85-6.205-4.506-4.846-6.801
				c1.361-2.295,4.336-3.824,8.756-3.061c3.23,0.596,5.525,3.061,5.695,5.271v0.17v0.255v0.34c0,0.085-0.084,0.17-0.084,0.255
				V83.671z"/>
			<path fill="#4B403E" d="M35.427,157.704c3.57-11.986,5.355-22.102,5.355-22.102s0.256-0.086,0.68-0.086
				c6.121-0.68,10.881,2.805,8.502,12.581c-2.041,8.331-4.506,15.132-7.141,20.741c7.48-1.275,13.6-7.65,16.406-17.511
				c3.229-11.306-2.467-20.062-20.318-18.191c-21.506,2.295-35.447,24.228-22.781,34.427c1.105,0.852,0,1.955,0,1.955
				c-0.594,0-1.615-0.68-2.295-1.189c-11.561-9.52,0.086-34.683,26.268-37.318c21.592-2.125,33.748,6.801,30.008,20.232
				c-3.91,14.025-18.277,18.787-28.139,19.467c-9.436,18.785-21.252,22.527-28.137,17.512c-7.141-5.186-3.23-18.277,12.24-19.637
				c1.445-0.086,2.041,0.254,1.871,0.934c-0.17,0.512-1.615,1.021-1.615,1.021c-14.535,1.275-16.236,12.496-10.967,16.406
				C22.082,191.876,28.457,181.081,35.427,157.704z"/>
			<path fill="#4B403E" d="M72.57,142.317c-3.061,0-6.205-0.51-9.35-1.53c-7.227-2.21-8.926-10.116-3.061-14.196
				c0.424-0.34,0.766-0.51,0.766-0.51c3.994,4.336,9.096,6.886,14.109,7.99c9.268-27.201,21.252-26.777,24.992-22.781
				c4.166,4.42,0.086,14.961-6.715,22.187c-2.721,2.89-5.695,5.016-8.926,6.46l-1.529,5.525
				c-6.291,22.867-7.311,28.139-8.332,32.389c-1.699,7.564-0.594,7.734,1.275,4.846c2.211-3.4,3.316-6.037,6.035-12.496
				c1.275-3.061,1.955-3.57,1.955-2.041c0,0.51-0.424,1.955-1.273,3.826c-2.381,5.779-3.316,7.82-5.867,12.07
				c-5.186,8.33-16.32,5.951-11.9-11.73c1.871-7.65,5.525-21.422,7.736-29.668C72.486,142.572,72.486,142.487,72.57,142.317z
				 M86.087,134.157c2.379-0.511,4.42-1.531,5.779-2.891c5.102-5.101,8.842-15.217,5.016-18.617
				C94.587,110.61,92.546,112.479,86.087,134.157z"/>
			<path fill="#4B403E" d="M114.732,148.098c0,0.085-0.34,1.19-2.039,2.636c-1.275,1.104-2.891,1.529-4.25,0.254
				c-1.955-1.869-3.486-3.484-6.631-2.72c-4.42,1.021-7.65,6.801-10.797,18.106c-4.08,15.301-4.08,22.102-1.273,18.531
				c1.529-1.955,3.314-6.545,4.93-13.346l0.34-1.445c0.596-2.209,0.85-3.654,2.125-8.586c2.721-10.541,7.141-12.326,12.666-9.18
				c0.68,0.424,1.105,0.68,1.105,0.68c-0.596,2.04-2.721,9.18-6.545,24.822c-1.955,7.82-0.34,7.311,1.189,4.93
				c2.211-3.484,3.314-6.121,6.035-12.496c1.359-3.145,1.955-3.654,1.955-2.125c0,0.51-0.424,1.955-1.189,3.826
				c-2.381,5.779-3.316,7.82-5.951,12.07c-4.164,6.801-12.41,6.461-12.92-3.484c-0.936,2.379-1.871,4.334-2.977,5.695
				c-5.695,7.141-15.727,0.084-10.371-20.318c3.912-14.961,17.598-20.826,26.268-20.315
				C110.738,145.803,114.222,147.503,114.732,148.098z"/>
			<path fill="#4B403E" d="M123.74,179.466c-0.68,1.529-1.445,3.061-2.295,4.504c-5.1,8.416-16.406,6.037-11.986-11.73
				c0.936-3.91,2.891-11.816,4.506-18.105c2.805-10.967,9.266-10.371,12.496-8.501c0.68,0.34,1.105,0.68,1.105,0.68
				c-0.596,2.04-4.42,15.812-8.332,31.538c-1.785,7.564-0.51,7.734,1.361,4.846c4.676-7.48,7.225-21.422,9.52-29.158
				c0.342-1.275,0.682-2.125,0.936-2.635c3.061-7.311,8.332-6.971,11.561-5.186c0.512,0.34,0.936,0.595,0.936,0.595l-2.295,8.331
				c-1.529,5.439-7.395,28.393-9.436,35.957c3.061,0.17,6.035,0.852,9.096,1.785c7.225,2.211,8.926,10.117,3.061,14.197
				c-0.426,0.254-0.766,0.51-0.766,0.424c-3.824-4.08-8.756-6.631-13.771-7.99c-8.756,26.777-21.592,26.947-26.182,22.018
				c-4.166-4.506-0.084-15.047,6.715-22.271c2.977-3.146,6.461-5.355,10.287-6.631l0.764-2.551
				C122.041,186.011,122.976,182.61,123.74,179.466z M118.47,198.081c-3.061,0.426-5.525,1.445-7.057,2.977
				c-5.1,5.1-8.84,15.215-5.016,18.531C109.458,222.394,111.753,220.013,118.47,198.081z"/>
			<path fill="#4B403E" d="M159.865,144.612c0.34-1.529,0.766-2.975,1.02-4.25c-9.775-1.87-22.441-1.53-29.496,3.485l-0.596-0.595
				c-4.93-5.186-2.381-12.666,5.186-13.432c6.035-0.51,16.746,3.061,25.842,6.545c1.189-5.609,1.445-7.734,1.445-7.734
				s0.17-0.086,0.596-0.086c5.439-0.765,10.199,2.381,8.5,10.711c0.68,0.256,1.275,0.426,2.209,0.51
				c6.801,0.511,8.502-1.869,8.586-1.189c0.256,1.529-0.934,4.165-10.199,3.74c-0.426,0-0.852,0-1.361-0.085
				c-1.529,6.035-7.734,28.731-9.35,35.618c-1.871,7.141-0.596,7.65,1.189,4.846c2.209-3.4,3.314-6.037,6.035-12.496
				c1.275-3.061,1.955-3.57,1.955-2.041c0,0.51-0.426,1.955-1.189,3.826c-2.381,5.779-3.4,7.82-5.951,12.07
				c-5.186,8.33-16.32,5.951-11.9-11.73C154.339,164.419,158.08,151.753,159.865,144.612z"/>
			<path fill="#4B403E" d="M193.269,177.765c-1.869,7.566-0.764,7.736,1.105,4.932c2.211-3.486,3.316-6.121,6.035-12.496
				c1.275-3.146,1.955-3.656,1.955-2.125c0,0.51-0.424,1.955-1.189,3.824c-2.381,5.781-3.4,7.82-5.949,12.07
				c-5.186,8.332-16.152,6.971-11.816-10.795c0.254-1.275,1.615-6.375,1.955-7.65c3.994-14.961,5.1-18.531,1.869-15.472
				c-3.484,3.315-5.865,10.116-7.82,18.532c-0.34,1.275-0.596,2.209-0.85,2.719l-4.336,17.428c0,0-0.254,0-0.764-0.086
				c-4.252-0.424-9.607-1.955-6.717-13.855c2.381-9.945,5.355-21.762,8.076-32.133c0-0.085,0-0.255,0.084-0.34
				c-3.059-0.085-6.205-0.596-9.266-1.615c-7.225-2.21-9.01-10.115-3.059-14.196c0.424-0.255,0.68-0.51,0.764-0.51
				c3.91,4.335,9.096,6.886,14.111,7.991c9.266-27.287,21.252-26.777,24.992-22.782c4.166,4.505,0.086,15.046-6.801,22.271
				c-2.635,2.806-5.609,4.931-8.756,6.376l-1.615,5.609c-0.51,1.785-1.275,4.506-2.125,7.821c1.02-1.87,2.211-3.485,3.656-4.761
				c6.631-5.865,15.045-2.805,9.436,17.426C194.544,172.325,194.291,173.345,193.269,177.765z M188.679,134.071
				c2.295-0.595,4.25-1.529,5.611-2.89c5.1-5.101,8.84-15.216,5.016-18.616C197.009,110.61,195.226,112.479,188.679,134.071z"/>
			<path fill="#4B403E" d="M201.767,159.149c2.549-10.031,9.436-9.861,12.156-8.076c0.68,0.51,1.189,0.936,1.189,0.936
				c-0.17,0.764-4.336,15.811-6.801,25.756c-1.699,6.717-0.51,7.566,1.189,4.932c2.211-3.486,3.316-6.037,6.037-12.496
				c1.273-3.146,1.955-3.656,1.955-2.125c0,0.51-0.426,1.955-1.191,3.91c-2.379,5.695-3.314,7.734-5.949,11.984
				c-5.102,8.332-16.322,6.037-11.902-11.73C198.96,170.03,200.832,162.974,201.767,159.149z M210.607,147.247
				c-4.25-0.68-6.885-4.505-5.439-6.885c1.359-2.295,4.334-3.825,8.756-3.061c4.164,0.68,6.799,4.676,5.355,6.971
				C217.917,146.567,215.283,148.013,210.607,147.247z"/>
			<path fill="#4B403E" d="M236.279,168.075c0.68,2.635,1.104,5.525,1.189,8.414c0,13.432-13.432,19.467-19.723,15.813
				c-5.27-2.977-3.568-10.881,0.766-15.643c1.701-1.869,4.336-3.91,7.48-5.695c-0.85-4.334-2.465-8.414-4.164-11.73
				c-1.615,3.826-3.23,7.396-4.422,10.285c-0.424,1.021-1.785,4.336-2.209,3.4c-0.34-1.02,0.17-2.209,0.594-3.314
				c1.445-3.91,3.146-8.416,4.676-12.751l-1.529-2.466c-3.316-4.675-2.295-8.415-0.68-10.711c2.549-3.74,10.199-1.955,10.199-1.955
				c-0.084,0.426-0.764,2.466-1.869,5.525c-0.256,0.851-0.596,1.701-0.936,2.551c0.17,0.34,0.34,0.596,0.51,0.68
				c4.166,4.676,7.82,10.117,9.777,16.322c1.783-0.51,3.74-0.852,5.609-1.021c3.314-0.34,4.166-0.084,2.805,0.682
				c-0.424,0.254-1.955,0.594-3.994,0.764C238.998,167.394,237.638,167.649,236.279,168.075z M226.332,172.665
				c-2.719,1.785-5.016,3.74-6.459,5.355c-3.74,4.164-4.252,10.115-1.021,12.156c3.316,2.039,6.971-2.211,7.736-11.391
				C226.757,176.745,226.587,174.704,226.332,172.665z"/>
			<path fill="#4B403E" d="M264.666,147.333c1.615-2.976,3.91-5.355,7.055-6.121c7.906-1.869,12.836,10.881,8.842,26.182
				c-0.256,0.766-0.426,1.531-0.682,2.211c1.531-0.766,3.061-1.955,4.676-3.484c2.381-2.297,3.146-2.637,2.551-1.191
				c-0.17,0.426-1.02,1.701-2.551,3.146c-1.699,1.615-3.57,2.805-5.439,3.57c-4.42,11.135-12.922,16.83-17.768,17
				c-4.674,0.086-13.516-4.59-8.756-22.697C254.89,157.193,259.31,150.647,264.666,147.333z M263.73,165.185l-0.256,1.189
				c-3.74,15.727-4.25,20.232-1.189,20.063c2.465-0.086,3.91-6.547,6.375-15.643c-1.869-1.189-3.484-2.975-4.76-5.355
				C263.816,165.354,263.73,165.269,263.73,165.185z M269.085,169.179l0.17-0.51c2.465-8.756,4.76-17.682,4.42-22.271
				c-4.59-0.17-6.631,5.44-9.18,15.641c0.254,0.936,0.594,1.871,1.02,2.637C266.535,166.63,267.726,168.159,269.085,169.179z
				 M273.421,144.782c-0.34-1.189-1.105-1.785-2.295-1.529c-1.361,0.34-2.551,1.274-3.57,2.635
				C269.425,145.122,271.466,144.698,273.421,144.782z"/>
			<path fill="#4B403E" d="M285.916,154.134c2.805-10.967,9.266-10.457,12.496-8.501c0.68,0.34,1.02,0.68,1.02,0.68
				c-0.51,2.04-4.336,15.812-8.246,31.452c-1.785,7.566-0.51,7.82,1.275,4.932c4.59-7.396,7.141-20.742,9.436-28.563
				c2.805-10.967,9.266-10.457,12.58-8.501c0.596,0.34,1.021,0.68,1.021,0.68c-0.596,2.04-5.781,21.167-9.691,36.894
				c-1.869,7.564-0.596,7.734,1.189,4.846c2.211-3.4,3.316-6.037,6.037-12.496c1.359-3.061,1.955-3.656,1.955-2.041
				c0,0.426-0.34,1.955-1.191,3.826c-2.379,5.695-3.314,7.734-5.949,11.984c-4.846,7.906-15.133,6.207-12.496-9.096
				c-0.596,1.275-1.275,2.551-1.955,3.74c-5.102,8.332-16.406,5.951-12.072-11.73L285.916,154.134z"/>
			<path fill="#4B403E" d="M320,144.612c0.34-1.529,0.766-2.975,1.02-4.25c-9.775-1.87-22.441-1.53-29.496,3.485l-0.596-0.595
				c-4.93-5.186-2.381-12.666,5.186-13.432c6.035-0.51,16.746,3.061,25.842,6.545c1.189-5.609,1.445-7.734,1.445-7.734
				s0.17-0.086,0.596-0.086c5.439-0.765,10.199,2.381,8.5,10.711c0.68,0.256,1.275,0.426,2.209,0.51
				c6.801,0.511,8.502-1.869,8.586-1.189c0.256,1.529-0.934,4.165-10.199,3.74c-0.426,0-0.852,0-1.361-0.085
				c-1.529,6.035-7.734,28.731-9.35,35.618c-1.871,7.141-0.596,7.65,1.189,4.846c2.209-3.4,3.314-6.037,6.035-12.496
				c1.275-3.061,1.955-3.57,1.955-2.041c0,0.51-0.426,1.955-1.189,3.826c-2.381,5.779-3.4,7.82-5.951,12.07
				c-5.186,8.33-16.32,5.951-11.9-11.73C314.474,164.419,318.214,151.753,320,144.612z"/>
		</g>
	</g>
</g>
<g id="Layer_2" display="none">
</g>
</svg>
