<?xml version="1.0" encoding="utf-8"?>
<!-- Generator: Adobe Illustrator 16.0.0, SVG Export Plug-In . SVG Version: 6.00 Build 0)  -->
<!DOCTYPE svg PUBLIC "-//W3C//DTD SVG 1.1//EN" "http://www.w3.org/Graphics/SVG/1.1/DTD/svg11.dtd">
<svg version="1.1" xmlns="http://www.w3.org/2000/svg" xmlns:xlink="http://www.w3.org/1999/xlink" x="0px" y="0px" width="580px"
	 height="670px" viewBox="0 0 580 670" enable-background="new 0 0 580 670" xml:space="preserve">
<g id="Layer_1">
	<g>
		<g>
			<polygon fill="#4B403E" points="381.861,324.74 399.937,314.556 395.606,306.071 376.504,314.194 			"/>
			<path fill="#CDC184" d="M388.212,334.506l16.715-12.287c-1.721-2.596-3.855-4.883-5.092-7.869l-18.102,10.139
				C383.315,328.097,385.969,331.213,388.212,334.506z"/>
			<path fill="#4B403E" d="M395.956,343.727l14.915-14.435c-2.281-2.051-4.271-4.404-5.944-7.073l-16.715,12.287
				C390.391,337.872,392.979,340.942,395.956,343.727z"/>
			<path fill="#CDC184" d="M404.76,351.677l12.722-16.386c-2.613-1.598-4.604-3.982-6.764-6.148l-14.959,14.38
				C398.609,346.403,401.312,349.431,404.76,351.677z"/>
			<path fill="#4B403E" d="M414.899,358.447l10.146-18.103c-2.856-1.145-5.035-3.386-7.564-5.054l-12.722,16.386
				C408.105,353.986,411.145,356.8,414.899,358.447z"/>
			<path fill="#CDC184" d="M425.676,363.526l7.418-19.377c-2.979-0.813-5.464-2.668-8.236-3.903l-10.203,18.066
				C418.325,360.051,421.782,362.368,425.676,363.526z"/>
			<path fill="#4B403E" d="M437.292,367.055l4.578-20.238c-3.056-0.497-5.835-1.838-8.776-2.667l-7.418,19.377
				C429.542,364.711,433.327,366.358,437.292,367.055z"/>
			<path fill="#CDC184" d="M448.919,368.921l1.886-20.665c-3.092-0.263-6.096-1.031-9.15-1.479l-4.645,20.228
				C440.97,367.654,444.936,368.576,448.919,368.921z"/>
			<path fill="#4B403E" d="M460.88,369.281l-0.704-20.736c-3.135,0.009-6.244-0.229-9.371-0.289l-1.886,20.665
				C452.906,369.06,456.906,369.318,460.88,369.281z"/>
			<polygon fill="#CDC184" points="472.432,368.24 469.383,347.718 459.947,348.562 460.598,369.307 			"/>
			<polygon fill="#4B403E" points="483.974,365.832 478.732,345.754 469.383,347.718 472.432,368.24 			"/>
			<path fill="#CDC184" d="M494.871,362.343l-7.202-19.452c-3.062,0.933-6.049,2.194-9.152,2.905l5.179,20.097
				C487.515,364.989,491.146,363.526,494.871,362.343z"/>
			<path fill="#4B403E" d="M505.602,357.72l-9.079-18.657c-2.97,1.232-5.753,2.968-8.854,3.828l7.202,19.452
				C498.646,361.236,502.024,359.246,505.602,357.72z"/>
			<path fill="#CDC184" d="M515.576,352.241l-10.787-17.722c-2.765,1.658-5.474,3.433-8.477,4.639l9.043,18.677
				C508.962,356.337,512.245,354.243,515.576,352.241z"/>
			<path fill="#4B403E" d="M525.227,345.727l-12.412-16.625c-2.506,2.055-5.175,3.86-8.025,5.418l10.787,17.722
				C518.981,350.348,522.196,348.179,525.227,345.727z"/>
			<path fill="#CDC184" d="M534.025,338.534l-13.892-15.415c-2.229,2.354-4.958,4.134-7.503,6.118l12.377,16.657
				C528.077,343.521,531.309,341.33,534.025,338.534z"/>
			<path fill="#4B403E" d="M542.334,330.36l-15.3-14.017c-2.04,2.498-4.624,4.489-6.9,6.775l13.892,15.415
				C536.788,335.801,539.84,333.348,542.334,330.36z"/>
			<polygon fill="#CDC184" points="549.707,321.651 533.142,309.15 526.888,316.523 542.157,330.57 			"/>
		</g>
		<g>
			<rect x="277.9" y="478.496" fill="#A5C568" width="50.635" height="165.957"/>
			<path fill="#6DA468" d="M303.221,619.972c-20.584,0-37.285,16.543-37.587,37.056h75.17
				C340.493,636.515,323.802,619.972,303.221,619.972z"/>
			<path fill="#6DA468" d="M338.725,550.277c0,10.138-8.217,18.358-18.354,18.358h-34.31c-10.137,0-18.355-8.221-18.355-18.358l0,0
				c0-10.137,8.219-18.361,18.355-18.361h34.31C330.508,531.916,338.725,540.141,338.725,550.277L338.725,550.277z"/>
		</g>
		<g>
			<rect x="141.873" y="478.496" fill="#A5C568" width="50.628" height="165.957"/>
			<path fill="#6DA468" d="M167.182,619.972c-20.576,0-37.276,16.543-37.578,37.056h75.166
				C204.465,636.515,187.773,619.972,167.182,619.972z"/>
			<path fill="#6DA468" d="M202.692,550.277c0,10.138-8.216,18.358-18.353,18.358h-34.31c-10.138,0-18.354-8.221-18.354-18.358l0,0
				c0-10.137,8.216-18.361,18.354-18.361h34.31C194.477,531.916,202.692,540.141,202.692,550.277L202.692,550.277z"/>
		</g>
		<g>
			<g>
				<rect x="99.684" y="292.393" fill="#6DA468" width="270.021" height="177.782"/>
			</g>
		</g>
		<path fill="#4B403E" d="M331.906,401.94c0,10.175-8.251,18.434-18.434,18.434H161.608c-10.185,0-18.438-8.259-18.438-18.434
			v-69.352c0-10.181,8.253-18.435,18.438-18.435h151.864c10.183,0,18.434,8.254,18.434,18.435V401.94z"/>
		<rect x="223.333" y="71.946" fill="#4B403E" width="11.806" height="61.848"/>
		<g>
			<polygon fill="#6DA468" points="345.862,279.755 337.955,279.755 127.664,279.755 119.758,279.755 119.758,271.85 
				119.758,119.093 119.758,111.19 127.664,111.19 337.955,111.19 345.862,111.19 345.862,119.093 345.862,271.85 345.862,279.755 
							"/>
		</g>
		<g>
			<g>
				<path fill="#4B403E" d="M276.686,256.042c-31.906,10.375-52.281,10.375-84.196,0c0-8.509,0-12.762,0-21.271
					c31.915,10.373,52.285,10.373,84.196,0C276.686,243.28,276.686,247.533,276.686,256.042z"/>
				<path fill="#F2E8E1" d="M203.555,247.917c-2.925-0.945-4.375-1.475-7.234-2.649c0-2.761,0-4.144,0-6.904
					c2.859,1.172,4.31,1.698,7.234,2.644C203.555,243.769,203.555,245.151,203.555,247.917z"/>
				<path fill="#F2E8E1" d="M203.555,256.626c-2.925-0.943-4.375-1.484-7.234-2.656c0-2.765,0-4.144,0-6.907
					c2.859,1.177,4.31,1.713,7.234,2.66C203.555,252.485,203.555,253.864,203.555,256.626z"/>
				<path fill="#F2E8E1" d="M213.305,250.536c-2.996-0.649-4.482-1.018-7.433-1.902c0-2.763,0-4.135,0-6.904
					c2.95,0.871,4.437,1.255,7.433,1.894C213.305,246.386,213.305,247.764,213.305,250.536z"/>
				<path fill="#F2E8E1" d="M213.305,259.236c-2.996-0.643-4.482-1.019-7.433-1.893c0-2.763,0-4.146,0-6.908
					c2.95,0.872,4.437,1.249,7.433,1.893C213.305,255.093,213.305,256.477,213.305,259.236z"/>
				<path fill="#F2E8E1" d="M223.238,252.152c-3.037-0.343-4.549-0.573-7.557-1.14c0-2.764,0-4.145,0-6.905
					c3.008,0.564,4.52,0.799,7.557,1.138C223.238,248.011,223.238,249.393,223.238,252.152z"/>
				<path fill="#F2E8E1" d="M223.238,260.86c-3.037-0.344-4.549-0.574-7.557-1.139c0-2.773,0-4.15,0-6.914
					c3.008,0.57,4.52,0.805,7.557,1.143C223.238,256.718,223.238,258.101,223.238,260.86z"/>
				<path fill="#F2E8E1" d="M233.274,252.782c-3.06-0.039-4.583-0.119-7.631-0.39c0-2.765,0-4.144,0-6.909
					c3.048,0.271,4.571,0.345,7.631,0.388C233.274,248.634,233.274,250.015,233.274,252.782z"/>
				<path fill="#F2E8E1" d="M233.274,261.486c-3.06-0.045-4.583-0.115-7.631-0.386c0-2.762,0-4.152,0-6.91
					c3.048,0.264,4.571,0.346,7.631,0.391C233.274,257.344,233.274,258.728,233.274,261.486z"/>
				<path fill="#F2E8E1" d="M243.313,252.417c-3.042,0.262-4.57,0.33-7.624,0.365c0-2.768,0-4.148,0-6.911
					c3.054-0.026,4.582-0.103,7.624-0.364C243.313,248.266,243.313,249.649,243.313,252.417z"/>
				<path fill="#F2E8E1" d="M243.313,261.122c-3.042,0.262-4.57,0.332-7.624,0.364c0-2.759,0-4.143,0-6.905
					c3.054-0.029,4.582-0.104,7.624-0.369C243.313,256.973,243.313,258.358,243.313,261.122z"/>
				<path fill="#F2E8E1" d="M253.279,251.054c-3.01,0.561-4.521,0.789-7.563,1.124c0-2.763,0-4.15,0-6.907
					c3.041-0.334,4.553-0.557,7.563-1.126C253.279,246.905,253.279,248.29,253.279,251.054z"/>
				<path fill="#F2E8E1" d="M253.279,259.757c-3.01,0.568-4.521,0.793-7.563,1.123c0-2.756,0-4.143,0-6.902
					c3.041-0.334,4.553-0.566,7.563-1.127C253.279,255.609,253.279,256.993,253.279,259.757z"/>
				<path fill="#F2E8E1" d="M263.082,248.705c-2.945,0.858-4.434,1.239-7.431,1.872c0-2.76,0-4.143,0-6.912
					c2.997-0.635,4.485-1.006,7.431-1.877C263.082,244.554,263.082,245.94,263.082,248.705z"/>
				<path fill="#F2E8E1" d="M263.082,257.411c-2.945,0.868-4.434,1.239-7.431,1.873c0-2.76,0-4.143,0-6.904
					c2.997-0.641,4.485-1.014,7.431-1.885C263.082,253.27,263.082,254.646,263.082,257.411z"/>
				<path fill="#F2E8E1" d="M272.65,245.35c-2.859,1.171-4.309,1.698-7.24,2.638c0-2.764,0-4.142,0-6.907
					c2.932-0.938,4.381-1.465,7.24-2.635C272.65,241.208,272.65,242.591,272.65,245.35z"/>
				<path fill="#F2E8E1" d="M272.65,254.062c-2.859,1.167-4.309,1.693-7.24,2.633c0-2.766,0-4.143,0-6.907
					c2.932-0.946,4.381-1.468,7.24-2.638C272.65,249.911,272.65,251.301,272.65,254.062z"/>
			</g>
		</g>
		<path fill="#A5C568" d="M397.537,345.148c0,6.469-5.247,11.719-11.724,11.719l0,0c-6.471,0-11.718-5.25-11.718-11.719v-47.821
			c0-6.475,5.247-11.717,11.718-11.717l0,0c6.477,0,11.724,5.242,11.724,11.717V345.148z"/>
		<rect x="130.432" y="122.458" fill="none" stroke="#FFFFFF" stroke-width="0.6421" width="204.756" height="148.137"/>
		<g>
			<path fill="#6DA468" d="M228.965,367.813c0,21.068-17.074,38.142-38.141,38.142c-21.07,0-38.149-17.073-38.149-38.142
				c0-21.072,17.079-38.141,38.149-38.141C211.891,329.672,228.965,346.74,228.965,367.813z"/>
			<path fill="#FFFFFF" d="M218.944,367.813c0,15.532-12.59,28.12-28.12,28.12c-15.534,0-28.119-12.588-28.119-28.12
				c0-15.535,12.585-28.118,28.119-28.118C206.354,339.694,218.944,352.277,218.944,367.813z"/>
			<g>
				<path fill="#A5C568" d="M211.584,367.813c0,11.462-9.297,20.762-20.764,20.762c-11.463,0-20.756-9.3-20.756-20.762
					c0-11.465,9.293-20.765,20.756-20.765C202.287,347.048,211.584,356.348,211.584,367.813z"/>
			</g>
			<g>
				<path fill="#AD6964" d="M191.382,373.624c-0.757,1.525-2.351,2.286-3.552,1.691l0,0c-1.213-0.604-1.57-2.326-0.814-3.862
					l7.608-15.319c0.761-1.53,2.358-2.286,3.56-1.689l0,0c1.203,0.604,1.563,2.331,0.806,3.861L191.382,373.624z"/>
				<path fill="#AD6964" d="M196.24,366.593c0.654,2.677-0.994,5.375-3.671,6.031c-2.678,0.637-5.37-0.996-6.015-3.68
					c-0.65-2.678,0.986-5.375,3.672-6.022C192.904,362.275,195.596,363.922,196.24,366.593z"/>
			</g>
		</g>
		<g>
			<g>
				<g>
					<g>
						<path fill="#6DA468" d="M288.129,357.186l1.498,0.374c0.488,0.128,0.983-0.246,1.1-0.827c0.11-0.614,0.254-1.228,0.334-1.849
							c0.058-0.593-0.304-1.107-0.813-1.144c0,0-0.678-0.066-1.514-0.147c-0.846-0.089-1.442-0.908-1.425-1.852
							c0.015-0.948,0.657-1.753,1.505-1.804l1.539-0.086c0.515-0.022,0.867-0.522,0.811-1.109c-0.078-0.627-0.115-1.256-0.23-1.874
							c-0.121-0.579-0.613-0.961-1.108-0.857c0,0-0.669,0.138-1.497,0.318c-0.824,0.161-1.648-0.443-1.908-1.355
							c-0.264-0.907,0.108-1.861,0.904-2.155l1.449-0.537c0.471-0.176,0.672-0.758,0.438-1.299c-0.254-0.58-0.453-1.176-0.775-1.72
							c-0.275-0.527-0.864-0.746-1.303-0.502c0,0-0.601,0.331-1.342,0.747c-0.738,0.409-1.709,0.063-2.219-0.729
							c-0.525-0.788-0.45-1.813,0.23-2.33l1.219-0.932c0.398-0.308,0.427-0.932,0.049-1.384c-0.391-0.491-0.793-0.97-1.251-1.403
							c-0.413-0.425-1.038-0.469-1.386-0.104c0,0-0.475,0.493-1.064,1.1c-0.584,0.613-1.612,0.575-2.341-0.033
							c-0.729-0.604-0.961-1.604-0.468-2.293l0.889-1.247c0.293-0.412,0.138-1.014-0.362-1.347
							c-0.504-0.365-1.051-0.681-1.608-0.973c-0.522-0.279-1.132-0.139-1.355,0.318c0,0-0.305,0.607-0.688,1.365
							c-0.383,0.76-1.373,1.022-2.246,0.659c-0.877-0.363-1.391-1.247-1.123-2.051l0.473-1.457c0.168-0.482-0.168-1.009-0.732-1.171
							c-0.594-0.204-1.203-0.358-1.824-0.453c-0.582-0.121-1.115,0.194-1.199,0.691c0,0-0.115,0.676-0.259,1.513
							c-0.144,0.83-1.015,1.377-1.952,1.284c-0.938-0.092-1.695-0.78-1.68-1.634l0.031-1.53c0.016-0.51-0.459-0.91-1.046-0.91
							c-0.63,0-1.26,0.019-1.886,0.103c-0.59,0.061-1.012,0.525-0.944,1.021c0,0,0.093,0.683,0.204,1.522
							c0.112,0.842-0.567,1.61-1.489,1.804c-0.92,0.195-1.849-0.25-2.079-1.053l-0.431-1.482c-0.132-0.485-0.706-0.732-1.271-0.554
							c-0.608,0.163-1.182,0.41-1.765,0.652c-0.549,0.235-0.814,0.789-0.604,1.25c0,0,0.294,0.619,0.645,1.399
							c0.359,0.769-0.059,1.709-0.89,2.168c-0.824,0.453-1.836,0.306-2.296-0.404l-0.846-1.283c-0.271-0.42-0.892-0.498-1.378-0.169
							c-0.538,0.335-1.001,0.768-1.491,1.155c-0.461,0.37-0.557,0.98-0.214,1.361c0,0,0.453,0.51,1.028,1.148
							c0.565,0.635,0.445,1.656-0.216,2.331c-0.655,0.678-1.665,0.838-2.314,0.304l-1.179-0.979
							c-0.387-0.328-1.006-0.22-1.382,0.239c-0.39,0.494-0.726,1.032-1.075,1.544c-0.335,0.496-0.255,1.101,0.191,1.361
							c0,0,0.588,0.361,1.322,0.803c0.726,0.442,0.916,1.445,0.485,2.29c-0.418,0.845-1.339,1.29-2.118,0.972l-1.41-0.584
							c-0.471-0.195-1.037,0.089-1.259,0.639c-0.216,0.592-0.374,1.194-0.558,1.793c-0.176,0.566,0.086,1.125,0.574,1.243
							c0,0,0.667,0.166,1.496,0.367c0.83,0.211,1.306,1.121,1.147,2.046c-0.159,0.932-0.903,1.633-1.743,1.555l-1.522-0.146
							c-0.501-0.048-0.956,0.393-1.003,0.977c-0.066,0.626-0.018,1.256-0.025,1.89c0.008,0.586,0.422,1.045,0.924,1.016
							c0,0,0.693-0.041,1.539-0.086c0.852-0.051,1.578,0.675,1.7,1.62c0.122,0.936-0.386,1.819-1.212,1.995l-1.502,0.314
							c-0.488,0.096-0.789,0.653-0.67,1.231c0.154,0.604,0.361,1.203,0.545,1.804c0.174,0.569,0.704,0.88,1.186,0.706
							c0,0,0.645-0.248,1.447-0.546c0.796-0.293,1.703,0.182,2.098,1.046c0.398,0.853,0.177,1.856-0.566,2.263l-1.341,0.74
							c-0.442,0.247-0.577,0.861-0.284,1.377l1.045,1.563c0.319,0.51,0.954,0.618,1.353,0.311c0,0,0.542-0.424,1.222-0.933
							c0.676-0.519,1.684-0.327,2.309,0.38c0.633,0.708,0.709,1.729,0.127,2.337l-1.07,1.108c-0.346,0.349-0.324,1.01,0.139,1.383
							l1.451,1.203c0.451,0.394,1.105,0.293,1.392-0.11c0,0,0.399-0.564,0.894-1.254c0.489-0.685,1.501-0.802,2.313-0.311
							c0.813,0.489,1.19,1.441,0.81,2.2l-0.689,1.366c-0.227,0.442-0.003,1.07,0.545,1.279l1.744,0.728
							c0.551,0.226,1.147-0.065,1.295-0.527c0,0,0.211-0.653,0.475-1.457c0.271-0.808,0.846-1.337,1.298-1.204
							c0.271,0.077,0.552,0.155,0.829,0.223c0.279,0.068,0.55,0.128,0.828,0.191c0.461,0.088,0.732,0.829,0.586,1.666l-0.258,1.51
							c-0.084,0.481,0.307,1.023,0.896,1.071l1.88,0.175c0.588,0.071,1.075-0.378,1.082-0.872c0,0,0.014-0.689,0.033-1.535
							c0.011-0.851,0.793-1.516,1.74-1.564c0.939-0.057,1.791,0.523,1.904,1.359l0.199,1.522c0.063,0.485,0.598,0.883,1.175,0.754
							l1.842-0.391c0.587-0.109,0.918-0.685,0.781-1.162c0,0-0.194-0.652-0.43-1.473c-0.234-0.812,0.312-1.682,1.196-2.008
							c0.891-0.331,1.872-0.03,2.221,0.738l0.65,1.406c0.202,0.452,0.816,0.647,1.336,0.353l1.655-0.893
							c0.497-0.313,0.669-0.927,0.391-1.35c0,0-0.374-0.572-0.836-1.281c-0.464-0.71-0.191-1.693,0.557-2.276
							c0.749-0.568,1.778-0.568,2.343,0.061l1.026,1.154c0.337,0.387,0.958,0.358,1.374-0.06c0.443-0.441,0.912-0.871,1.324-1.34
							c0.378-0.456,0.37-1.085-0.021-1.404c0,0-0.526-0.438-1.174-0.974c-0.65-0.539-0.681-1.567-0.133-2.335
							c0.543-0.769,1.526-1.076,2.254-0.638l1.321,0.793c0.427,0.263,1.015,0.056,1.292-0.462c0.287-0.563,0.621-1.092,0.86-1.683
							c0.231-0.54,0.04-1.142-0.43-1.33c0,0-0.63-0.261-1.413-0.59c-0.778-0.317-1.113-1.288-0.816-2.182
							C286.452,357.564,287.303,356.986,288.129,357.186z M281.628,354.541l-11.782-2.928c0.168-2.284-1.121-4.425-3.218-5.341
							l2.925-11.781C278.108,337.088,283.33,345.762,281.628,354.541z M267.768,334.046l-2.924,11.78
							c-2.277-0.167-4.424,1.131-5.344,3.219l-11.783-2.924C250.313,337.568,258.989,332.351,267.768,334.046z M247.272,347.908
							l11.78,2.928c-0.166,2.275,1.131,4.426,3.223,5.341l-2.919,11.783C250.796,365.354,245.574,356.686,247.272,347.908z
							 M261.131,368.398l2.928-11.778c2.275,0.167,4.427-1.129,5.348-3.22l11.779,2.929
							C278.586,364.882,269.914,370.106,261.131,368.398z"/>
					</g>
				</g>
			</g>
		</g>
		<g>
			<g>
				<path fill="#FFFFFF" d="M317.258,391.32l1.156,0.286c0.374,0.101,0.759-0.19,0.843-0.635c0.087-0.476,0.195-0.946,0.26-1.424
					c0.05-0.459-0.236-0.857-0.617-0.892c0,0-0.536-0.049-1.182-0.109c-0.646-0.063-1.114-0.699-1.1-1.433
					c0.019-0.725,0.511-1.347,1.168-1.386l1.187-0.06c0.394-0.024,0.67-0.412,0.628-0.866c-0.065-0.479-0.089-0.97-0.184-1.44
					c-0.088-0.451-0.472-0.749-0.854-0.661c0,0-0.515,0.107-1.155,0.239c-0.636,0.131-1.274-0.339-1.473-1.045
					c-0.199-0.691,0.087-1.434,0.701-1.659l1.114-0.42c0.364-0.131,0.522-0.581,0.339-1.002c-0.194-0.443-0.354-0.909-0.598-1.323
					c-0.21-0.403-0.664-0.573-1.009-0.382c0,0-0.461,0.254-1.031,0.564c-0.569,0.318-1.314,0.056-1.716-0.557
					c-0.399-0.606-0.343-1.396,0.175-1.794l0.944-0.723c0.313-0.239,0.33-0.713,0.044-1.069c-0.306-0.377-0.614-0.749-0.97-1.084
					c-0.321-0.324-0.799-0.366-1.066-0.083c0,0-0.37,0.387-0.822,0.856c-0.455,0.471-1.254,0.438-1.812-0.024
					c-0.556-0.465-0.737-1.242-0.354-1.78l0.682-0.96c0.224-0.31,0.104-0.78-0.273-1.03c-0.396-0.287-0.817-0.524-1.247-0.752
					c-0.408-0.217-0.872-0.113-1.043,0.236c0,0-0.241,0.479-0.534,1.062c-0.294,0.584-1.061,0.788-1.733,0.507
					c-0.673-0.277-1.07-0.963-0.863-1.577l0.364-1.134c0.122-0.364-0.13-0.769-0.571-0.903c-0.454-0.15-0.925-0.271-1.403-0.347
					c-0.45-0.092-0.858,0.152-0.924,0.537c0,0-0.092,0.519-0.198,1.161c-0.111,0.647-0.785,1.063-1.505,0.998
					c-0.735-0.072-1.308-0.605-1.304-1.261l0.028-1.184c0.007-0.391-0.354-0.706-0.809-0.697c-0.489-0.009-0.972,0.012-1.454,0.075
					c-0.454,0.048-0.782,0.406-0.729,0.784c0,0,0.072,0.526,0.154,1.176c0.088,0.646-0.429,1.242-1.146,1.398
					c-0.709,0.154-1.427-0.188-1.604-0.817l-0.331-1.147c-0.104-0.368-0.546-0.558-0.984-0.426c-0.47,0.131-0.911,0.318-1.36,0.506
					c-0.424,0.18-0.628,0.612-0.465,0.963c0,0,0.225,0.479,0.497,1.082c0.272,0.591-0.046,1.313-0.683,1.672
					c-0.639,0.346-1.418,0.24-1.777-0.312l-0.647-0.992c-0.21-0.321-0.69-0.382-1.072-0.128c-0.41,0.256-0.77,0.594-1.144,0.886
					c-0.358,0.294-0.431,0.765-0.167,1.052c0,0,0.351,0.396,0.792,0.888c0.434,0.489,0.347,1.279-0.163,1.804
					c-0.505,0.526-1.289,0.646-1.792,0.231l-0.903-0.756c-0.302-0.253-0.78-0.174-1.069,0.187c-0.303,0.378-0.561,0.793-0.83,1.191
					c-0.252,0.385-0.191,0.852,0.149,1.051c0,0,0.454,0.278,1.021,0.619c0.564,0.335,0.701,1.109,0.375,1.762
					c-0.328,0.659-1.038,0.996-1.634,0.759l-1.092-0.456c-0.359-0.15-0.797,0.071-0.972,0.494c-0.168,0.454-0.287,0.916-0.431,1.384
					c-0.134,0.436,0.067,0.864,0.446,0.959c0,0,0.519,0.127,1.155,0.285c0.638,0.151,1.013,0.862,0.884,1.578
					c-0.121,0.718-0.696,1.26-1.346,1.195l-1.179-0.111c-0.382-0.04-0.729,0.304-0.769,0.762c-0.053,0.473-0.012,0.967-0.021,1.445
					c0.01,0.462,0.328,0.813,0.713,0.788c0,0,0.529-0.026,1.191-0.064c0.653-0.038,1.215,0.526,1.307,1.244
					c0.096,0.729-0.294,1.414-0.932,1.545l-1.156,0.238c-0.381,0.079-0.61,0.51-0.518,0.949c0.113,0.479,0.281,0.936,0.415,1.402
					c0.137,0.43,0.545,0.675,0.917,0.534c0,0,0.5-0.188,1.116-0.415c0.615-0.224,1.313,0.144,1.619,0.805
					c0.307,0.655,0.133,1.433-0.438,1.745l-1.03,0.571c-0.344,0.192-0.447,0.67-0.222,1.064l0.807,1.212
					c0.241,0.384,0.735,0.469,1.041,0.235c0,0,0.425-0.319,0.946-0.726c0.518-0.398,1.299-0.242,1.773,0.294
					c0.496,0.551,0.551,1.339,0.1,1.808l-0.822,0.854c-0.271,0.271-0.248,0.779,0.106,1.074l1.12,0.925
					c0.348,0.303,0.86,0.223,1.072-0.086c0,0,0.307-0.433,0.688-0.971c0.381-0.529,1.162-0.615,1.792-0.242
					c0.622,0.379,0.916,1.115,0.622,1.696l-0.534,1.06c-0.176,0.337,0,0.816,0.422,0.98l1.347,0.565
					c0.423,0.176,0.881-0.047,0.995-0.406c0,0,0.167-0.505,0.372-1.122c0.205-0.623,0.645-1.032,1.002-0.931
					c0.202,0.061,0.424,0.126,0.634,0.173c0.214,0.057,0.426,0.096,0.639,0.147c0.361,0.069,0.569,0.642,0.459,1.284l-0.202,1.166
					c-0.067,0.373,0.231,0.78,0.692,0.823l1.447,0.136c0.46,0.061,0.833-0.289,0.836-0.674c0,0,0.012-0.529,0.028-1.188
					c0.007-0.651,0.615-1.157,1.343-1.202c0.728-0.038,1.382,0.406,1.464,1.046l0.156,1.174c0.05,0.377,0.46,0.684,0.909,0.581
					l1.427-0.29c0.446-0.094,0.698-0.533,0.598-0.9c0,0-0.151-0.51-0.331-1.131c-0.183-0.629,0.241-1.304,0.92-1.559
					c0.688-0.25,1.441-0.019,1.719,0.573l0.495,1.081c0.161,0.349,0.636,0.502,1.034,0.278l1.271-0.693
					c0.389-0.242,0.524-0.715,0.308-1.034c0,0-0.29-0.444-0.646-0.993c-0.357-0.544-0.15-1.31,0.434-1.756
					c0.574-0.439,1.367-0.439,1.807,0.042l0.788,0.894c0.266,0.3,0.741,0.283,1.062-0.044c0.342-0.343,0.704-0.667,1.027-1.037
					c0.284-0.348,0.277-0.834-0.019-1.082c0,0-0.404-0.333-0.907-0.757c-0.507-0.411-0.528-1.204-0.104-1.797
					c0.416-0.593,1.175-0.831,1.741-0.488l1.014,0.612c0.337,0.2,0.784,0.039,1.005-0.362c0.219-0.426,0.479-0.841,0.66-1.294
					c0.177-0.423,0.033-0.88-0.328-1.028c0,0-0.495-0.197-1.092-0.454c-0.604-0.242-0.865-0.995-0.633-1.684
					C315.962,391.615,316.618,391.161,317.258,391.32z"/>
			</g>
			<path fill="#6DA468" d="M307.148,386.17c0.311,4.509-3.1,8.421-7.613,8.731c-4.515,0.313-8.423-3.092-8.729-7.608
				c-0.313-4.517,3.092-8.423,7.603-8.733C302.927,378.248,306.837,381.654,307.148,386.17z"/>
		</g>
		<g>
			<path fill="#AD6964" d="M182.125,437.834c0,5.5-4.461,9.964-9.965,9.964c-5.498,0-9.962-4.464-9.962-9.964
				c0-5.504,4.464-9.966,9.962-9.966C177.664,427.868,182.125,432.33,182.125,437.834z"/>
			<path fill="#FFFFFF" d="M216.586,437.834c0,5.5-4.457,9.964-9.967,9.964c-5.495,0-9.959-4.464-9.959-9.964
				c0-5.504,4.464-9.966,9.959-9.966C212.129,427.868,216.586,432.33,216.586,437.834z"/>
			<path fill="#F2E8E1" d="M251.052,437.834c0,5.5-4.462,9.964-9.969,9.964c-5.497,0-9.959-4.464-9.959-9.964
				c0-5.504,4.462-9.966,9.959-9.966C246.59,427.868,251.052,432.33,251.052,437.834z"/>
			<path fill="#AD6964" d="M285.513,437.834c0,5.5-4.46,9.964-9.962,9.964c-5.506,0-9.967-4.464-9.967-9.964
				c0-5.504,4.461-9.966,9.967-9.966C281.053,427.868,285.513,432.33,285.513,437.834z"/>
			<path fill="#A5C568" d="M319.975,437.834c0,5.5-4.462,9.964-9.966,9.964c-5.502,0-9.964-4.464-9.964-9.964
				c0-5.504,4.462-9.966,9.964-9.966C315.513,427.868,319.975,432.33,319.975,437.834z"/>
		</g>
		<g>
			<g>
				<g>
					<path fill="#6DA468" d="M280.936,32.751h1.318c-0.004-2.522,0.779-4.777,1.967-6.347c1.199-1.569,2.721-2.43,4.346-2.43
						c1.615,0,3.139,0.86,4.342,2.43c1.186,1.569,1.967,3.824,1.963,6.347c0.011,1.125-0.444,3.619-1.152,6.522
						c-1.063,4.386-2.666,9.842-4.005,14.183c-0.661,2.176-1.268,4.07-1.703,5.426c-0.432,1.357-0.698,2.166-0.698,2.166
						l1.254,0.416l1.247-0.416c0,0-0.474-1.438-1.183-3.691c-1.076-3.375-2.677-8.567-4.011-13.428
						c-0.667-2.426-1.263-4.762-1.692-6.746c-0.432-1.96-0.678-3.597-0.674-4.432H280.936h-1.314
						c0.008,1.651,0.512,4.141,1.227,7.14c2.168,8.954,6.462,21.963,6.465,21.981l1.254,3.797l1.247-3.797
						c0-0.008,1.911-5.807,3.824-12.307c0.955-3.258,1.92-6.688,2.64-9.675c0.723-2.999,1.224-5.488,1.23-7.14
						c-0.002-3.057-0.932-5.846-2.499-7.928c-1.563-2.079-3.853-3.477-6.442-3.477c-2.596,0-4.883,1.397-6.443,3.477
						c-1.572,2.082-2.498,4.871-2.502,7.928H280.936z"/>
				</g>
				<g>
					<path fill="#6DA468" d="M288.207,58.021c-0.947,4.162-2.395,7.779-4.319,10.254c-1.944,2.484-4.211,3.823-7.198,3.84
						c-2.896-0.009-5.205-1.531-7.121-4.084c-1.904-2.537-3.251-6.055-3.973-9.551l-2.575,0.534c0.78,3.78,2.214,7.606,4.428,10.594
						c2.2,2.968,5.326,5.146,9.241,5.144c3.873,0.016,7.025-1.921,9.281-4.861c2.27-2.945,3.795-6.881,4.803-11.279L288.207,58.021z
						"/>
				</g>
				<g>
					<path fill="#6DA468" d="M264.912,58.021c-0.951,4.162-2.399,7.779-4.323,10.254c-1.94,2.484-4.204,3.823-7.199,3.84v2.637
						c3.871,0.016,7.03-1.921,9.28-4.861c2.273-2.945,3.797-6.881,4.811-11.279L264.912,58.021z"/>
				</g>
				<g>
					<path fill="#6DA468" d="M300.139,72.114c-2.9-0.009-5.21-1.531-7.131-4.084c-1.896-2.537-3.25-6.055-3.967-9.551l-2.578,0.534
						c0.78,3.78,2.217,7.606,4.438,10.594c2.191,2.968,5.318,5.146,9.237,5.144V72.114z"/>
				</g>
				<g>
					<path fill="#6DA468" d="M257.588,32.751h1.313c0-2.522,0.782-4.777,1.968-6.347c1.199-1.569,2.725-2.43,4.342-2.43
						c1.621,0,3.146,0.86,4.345,2.43c1.191,1.569,1.972,3.824,1.968,6.347c0.012,1.125-0.445,3.619-1.154,6.522
						c-1.061,4.386-2.664,9.842-4.003,14.183c-0.665,2.176-1.269,4.07-1.705,5.426c-0.432,1.357-0.7,2.166-0.7,2.166l1.25,0.416
						l1.256-0.416c0,0-0.474-1.438-1.189-3.691c-1.07-3.375-2.676-8.567-4.01-13.428c-0.666-2.426-1.266-4.762-1.692-6.746
						c-0.426-1.96-0.678-3.597-0.674-4.432H257.588h-1.319c0.011,1.651,0.511,4.141,1.23,7.14
						c2.168,8.954,6.462,21.963,6.462,21.981l1.25,3.797l1.256-3.797c0-0.008,1.91-5.807,3.826-12.307
						c0.957-3.258,1.912-6.688,2.637-9.675c0.718-2.999,1.219-5.488,1.226-7.14c0-3.057-0.928-5.846-2.497-7.928
						c-1.563-2.079-3.851-3.477-6.447-3.477c-2.593,0-4.883,1.397-6.443,3.477c-1.57,2.082-2.494,4.871-2.499,7.928H257.588z"/>
				</g>
				<g>
					<path fill="#6DA468" d="M234.195,32.751h1.316c-0.007-2.522,0.779-4.777,1.961-6.347c1.203-1.569,2.729-2.43,4.342-2.43
						c1.621,0,3.146,0.86,4.35,2.43c1.188,1.569,1.967,3.824,1.967,6.347c0.008,1.125-0.445,3.619-1.154,6.522
						c-1.059,4.386-2.67,9.842-4.008,14.183c-0.668,2.176-1.267,4.07-1.704,5.426c-0.431,1.357-0.697,2.166-0.697,2.166l1.247,0.416
						l1.25-0.416c0,0-0.47-1.438-1.184-3.691c-1.07-3.375-2.671-8.567-4.007-13.428c-0.666-2.426-1.261-4.762-1.69-6.746
						c-0.428-1.96-0.679-3.597-0.672-4.432H234.195h-1.319c0.009,1.651,0.501,4.141,1.227,7.14
						c2.167,8.954,6.462,21.963,6.465,21.981l1.247,3.797l1.25-3.797c0.005-0.008,1.922-5.807,3.832-12.307
						c0.955-3.258,1.912-6.688,2.637-9.675c0.718-2.999,1.219-5.488,1.227-7.14c0-3.057-0.924-5.846-2.497-7.928
						c-1.565-2.079-3.852-3.477-6.448-3.477c-2.588,0-4.875,1.397-6.438,3.477c-1.568,2.082-2.501,4.871-2.501,7.928H234.195z"/>
				</g>
				<g>
					<path fill="#6DA468" d="M241.463,58.021c-0.947,4.162-2.396,7.779-4.321,10.254c-1.943,2.484-4.209,3.823-7.196,3.84
						c-2.893-0.009-5.211-1.531-7.127-4.084c-1.898-2.537-3.245-6.055-3.967-9.551l-2.576,0.534c0.78,3.78,2.214,7.606,4.434,10.594
						c2.194,2.968,5.32,5.146,9.236,5.144c3.871,0.016,7.025-1.921,9.281-4.861c2.27-2.945,3.793-6.881,4.807-11.279L241.463,58.021
						z"/>
				</g>
				<g>
					<path fill="#6DA468" d="M218.172,58.021c-0.956,4.162-2.406,7.779-4.326,10.254c-1.944,2.484-4.205,3.823-7.201,3.84v2.637
						c3.871,0.016,7.031-1.921,9.28-4.861c2.274-2.945,3.797-6.881,4.812-11.279L218.172,58.021z"/>
				</g>
				<g>
					<path fill="#6DA468" d="M253.39,72.114c-2.896-0.009-5.202-1.531-7.121-4.084c-1.906-2.537-3.249-6.055-3.973-9.551
						l-2.577,0.534c0.781,3.78,2.215,7.606,4.436,10.594c2.193,2.968,5.323,5.146,9.235,5.144V72.114z"/>
				</g>
				<g>
					<path fill="#6DA468" d="M210.842,32.751h1.315c0-2.522,0.781-4.777,1.968-6.347c1.199-1.569,2.725-2.43,4.341-2.43
						c1.622,0,3.147,0.86,4.351,2.43c1.186,1.569,1.967,3.824,1.967,6.347c0.008,1.125-0.446,3.619-1.154,6.522
						c-1.064,4.386-2.669,9.842-4.008,14.183c-0.67,2.176-1.266,4.07-1.704,5.426c-0.432,1.357-0.696,2.166-0.696,2.166l1.245,0.416
						l1.251-0.416c0,0-0.47-1.438-1.186-3.691c-1.069-3.375-2.67-8.567-4.008-13.428c-0.666-2.426-1.268-4.762-1.693-6.746
						c-0.426-1.96-0.678-3.597-0.673-4.432H210.842h-1.317c0.012,1.651,0.506,4.141,1.23,7.14
						c2.167,8.954,6.461,21.963,6.466,21.981l1.245,3.797l1.251-3.797c0.005-0.008,1.916-5.807,3.831-12.307
						c0.956-3.258,1.913-6.688,2.638-9.675c0.717-2.999,1.219-5.488,1.228-7.14c0-3.057-0.925-5.846-2.499-7.928
						c-1.564-2.079-3.852-3.477-6.448-3.477c-2.593,0-4.883,1.397-6.444,3.477c-1.569,2.082-2.492,4.871-2.497,7.928H210.842z"/>
				</g>
				<g>
					<path fill="#6DA468" d="M187.447,32.751h1.318c0-2.522,0.775-4.777,1.967-6.347c1.198-1.569,2.725-2.43,4.342-2.43
						c1.621,0,3.143,0.86,4.345,2.43c1.188,1.569,1.969,3.824,1.969,6.347c0.008,1.125-0.446,3.619-1.156,6.522
						c-1.06,4.386-2.664,9.842-4.003,14.183c-0.668,2.176-1.27,4.07-1.708,5.426c-0.431,1.357-0.698,2.166-0.698,2.166l1.252,0.416
						l1.246-0.416c0,0-0.47-1.438-1.184-3.691c-1.07-3.375-2.671-8.567-4.006-13.428c-0.665-2.426-1.264-4.762-1.693-6.746
						c-0.43-1.96-0.677-3.597-0.672-4.432H187.447h-1.315c0.009,1.651,0.507,4.141,1.227,7.14c2.167,8.954,6.46,21.963,6.464,21.981
						l1.252,3.797l1.246-3.797c0.008-0.008,1.916-5.807,3.832-12.307c0.956-3.258,1.912-6.688,2.637-9.675
						c0.721-2.999,1.219-5.488,1.23-7.14c-0.004-3.057-0.928-5.846-2.506-7.928c-1.561-2.079-3.847-3.477-6.439-3.477
						c-2.594,0-4.881,1.397-6.441,3.477c-1.576,2.082-2.501,4.871-2.501,7.928H187.447z"/>
				</g>
				<g>
					<path fill="#6DA468" d="M194.719,58.021c-0.951,4.162-2.396,7.779-4.321,10.254c-1.939,2.484-4.206,3.823-7.196,3.84
						c-2.892-0.009-5.211-1.531-7.126-4.084c-1.9-2.537-3.251-6.055-3.963-9.551l-2.581,0.534c0.78,3.78,2.218,7.606,4.428,10.594
						c2.199,2.968,5.326,5.146,9.242,5.144c3.871,0.016,7.025-1.921,9.279-4.861c2.271-2.945,3.793-6.881,4.808-11.279
						L194.719,58.021z"/>
				</g>
				<g>
					<path fill="#6DA468" d="M171.426,58.021c-0.955,4.162-2.404,7.779-4.326,10.254c-1.942,2.484-4.204,3.823-7.201,3.84v2.637
						c3.873,0.016,7.031-1.921,9.281-4.861c2.275-2.945,3.796-6.881,4.812-11.279L171.426,58.021z"/>
				</g>
				<g>
					<path fill="#6DA468" d="M206.645,72.114c-2.893-0.009-5.209-1.531-7.125-4.084c-1.9-2.537-3.246-6.055-3.968-9.551
						l-2.577,0.534c0.781,3.78,2.215,7.606,4.434,10.594c2.194,2.968,5.326,5.146,9.236,5.144V72.114z"/>
				</g>
				<g>
					<path fill="#6DA468" d="M164.098,32.751h1.314c0-2.522,0.781-4.777,1.968-6.347c1.202-1.569,2.729-2.43,4.341-2.43
						c1.622,0,3.152,0.86,4.35,2.43c1.188,1.569,1.968,3.824,1.968,6.347c0.008,1.125-0.445,3.619-1.154,6.522
						c-1.061,4.386-2.669,9.842-4.007,14.183c-0.67,2.176-1.268,4.07-1.705,5.426c-0.431,1.357-0.697,2.166-0.697,2.166l1.246,0.416
						l1.252-0.416c0,0-0.47-1.438-1.188-3.691c-1.068-3.375-2.668-8.567-4.008-13.428c-0.664-2.426-1.266-4.762-1.688-6.746
						c-0.431-1.96-0.682-3.597-0.678-4.432H164.098h-1.314c0.008,1.651,0.502,4.141,1.227,7.14
						c2.168,8.954,6.461,21.963,6.465,21.981l1.246,3.797l1.252-3.797c0.003-0.008,1.911-5.807,3.831-12.307
						c0.956-3.258,1.912-6.688,2.638-9.675c0.716-2.999,1.219-5.488,1.226-7.14c0-3.057-0.923-5.846-2.501-7.928
						c-1.562-2.079-3.848-3.477-6.445-3.477c-2.588,0-4.879,1.397-6.439,3.477c-1.573,2.082-2.498,4.871-2.498,7.928H164.098z"/>
				</g>
			</g>
		</g>
		<path fill="#6DA468" d="M296.974,73.364c0,4.651,3.77,8.424,8.423,8.424c4.647,0,8.419-3.772,8.419-8.424
			c0-4.648-3.771-8.42-8.419-8.42C300.743,64.944,296.974,68.716,296.974,73.364z"/>
		<path fill="#6DA468" d="M150.349,73.364c0,4.651,3.769,8.424,8.42,8.424c4.648,0,8.421-3.772,8.421-8.424
			c0-4.648-3.772-8.42-8.421-8.42C154.117,64.944,150.349,68.716,150.349,73.364z"/>
		<path fill="#A5C568" d="M540.65,338.438c11.102,0,20.092-8.985,20.092-20.077c0-11.093-8.99-20.079-20.092-20.079
			c-11.086,0-20.077,8.986-20.077,20.079C520.573,329.452,529.564,338.438,540.65,338.438z"/>
		<g>
			<polygon fill="#4B403E" points="65.775,315.718 75.963,333.793 84.438,329.463 76.322,310.36 			"/>
			<path fill="#CDC184" d="M56.01,322.069l12.287,16.715c2.596-1.721,4.883-3.855,7.867-5.092l-10.14-18.102
				C62.416,317.172,59.305,319.825,56.01,322.069z"/>
			<path fill="#4B403E" d="M46.784,329.813l14.433,14.915c2.057-2.28,4.41-4.271,7.08-5.943L56.01,322.069
				C52.641,324.247,49.574,326.836,46.784,329.813z"/>
			<path fill="#CDC184" d="M38.836,338.616l16.386,12.722c1.601-2.611,3.987-4.604,6.153-6.763l-14.385-14.96
				C44.114,332.466,41.078,335.168,38.836,338.616z"/>
			<path fill="#4B403E" d="M32.066,348.757l18.101,10.146c1.142-2.856,3.385-5.034,5.055-7.564l-16.386-12.722
				C36.525,341.963,33.717,345.002,32.066,348.757z"/>
			<path fill="#CDC184" d="M26.989,359.533l19.378,7.418c0.808-2.978,2.668-5.465,3.896-8.237l-18.066-10.203
				C30.462,352.185,28.146,355.639,26.989,359.533z"/>
			<path fill="#4B403E" d="M23.455,371.148l20.24,4.578c0.497-3.056,1.843-5.834,2.672-8.775l-19.378-7.418
				C25.806,363.398,24.158,367.185,23.455,371.148z"/>
			<path fill="#CDC184" d="M21.596,382.776l20.66,1.885c0.267-3.092,1.033-6.095,1.477-9.15l-20.226-4.644
				C22.855,374.827,21.938,378.793,21.596,382.776z"/>
			<path fill="#4B403E" d="M21.231,394.736l20.737-0.704c-0.011-3.133,0.229-6.244,0.287-9.371l-20.66-1.885
				C21.453,386.764,21.195,390.764,21.231,394.736z"/>
			<polygon fill="#CDC184" points="22.273,406.288 42.799,403.239 41.947,393.804 21.207,394.454 			"/>
			<polygon fill="#4B403E" points="24.681,417.83 44.759,412.591 42.799,403.239 22.273,406.288 			"/>
			<path fill="#CDC184" d="M28.17,428.728l19.456-7.2c-0.938-3.063-2.196-6.05-2.912-9.154l-20.093,5.179
				C25.525,421.372,26.989,425.003,28.17,428.728z"/>
			<path fill="#4B403E" d="M32.794,439.459l18.657-9.08c-1.229-2.97-2.967-5.752-3.825-8.852l-19.456,7.2
				C29.277,432.502,31.267,435.882,32.794,439.459z"/>
			<path fill="#CDC184" d="M38.268,449.433l17.728-10.786c-1.66-2.765-3.434-5.475-4.64-8.475l-18.679,9.04
				C34.178,442.82,36.271,446.103,38.268,449.433z"/>
			<path fill="#4B403E" d="M44.785,459.083l16.628-12.411c-2.058-2.505-3.858-5.174-5.418-8.025l-17.728,10.786
				C40.169,452.838,42.336,456.051,44.785,459.083z"/>
			<path fill="#CDC184" d="M51.98,467.882l15.412-13.89c-2.35-2.229-4.135-4.959-6.119-7.505l-16.652,12.378
				C46.996,461.935,49.186,465.166,51.98,467.882z"/>
			<path fill="#4B403E" d="M60.152,476.19l14.016-15.299c-2.491-2.042-4.489-4.624-6.775-6.899l-15.412,13.89
				C54.712,470.646,57.165,473.696,60.152,476.19z"/>
			<polygon fill="#CDC184" points="68.863,483.563 81.361,467 73.994,460.744 59.945,476.015 			"/>
		</g>
		<path fill="#A5C568" d="M71.205,345.148c0,6.469,5.247,11.719,11.721,11.719l0,0c6.471,0,11.721-5.25,11.721-11.719v-47.821
			c0-6.475-5.25-11.717-11.721-11.717l0,0c-6.474,0-11.721,5.242-11.721,11.717V345.148z"/>
		<path fill="#A5C568" d="M52.072,474.508c0,11.102,8.99,20.091,20.08,20.091s20.08-8.989,20.08-20.091
			c0-11.087-8.99-20.077-20.08-20.077S52.072,463.421,52.072,474.508z"/>
		<g>
			<path fill="#A5C568" d="M192.645,158.091c-17.154-4.223-64.876-14.283-76.26,5.744c-7.895,13.896,5.15,52.854,20.03,58.653
				c22.629,8.81,52.56,5.297,67.783-14.706C220.78,185.995,221.836,165.284,192.645,158.091z"/>
			<path fill="#A5C568" d="M267.202,159.149c-28.208,6.947-27.188,26.958-11.172,48.02c14.717,19.326,43.636,22.723,65.511,14.211
				c14.39-5.605,26.989-43.256,19.358-56.682C329.896,145.337,283.779,155.067,267.202,159.149z"/>
			<g>
				<path fill="#F2E8E1" d="M195.962,187.03c0,12.045-9.771,21.82-21.819,21.82c-12.052,0-21.818-9.775-21.818-21.82
					c0-12.056,9.767-21.818,21.818-21.818C186.191,165.212,195.962,174.975,195.962,187.03z"/>
				<path fill="#DC6663" d="M189.852,187.03c0,8.672-7.038,15.705-15.709,15.705c-8.675,0-15.709-7.033-15.709-15.705
					c0-8.682,7.034-15.716,15.709-15.716C182.813,171.314,189.852,178.349,189.852,187.03z"/>
				<path fill="#4B403E" d="M180.469,187.03c0,3.489-2.832,6.326-6.326,6.326c-3.496,0-6.324-2.837-6.324-6.326
					c0-3.5,2.828-6.328,6.324-6.328C177.637,180.702,180.469,183.53,180.469,187.03z"/>
			</g>
			<g>
				<path fill="#F2E8E1" d="M309.242,187.03c0,12.045-9.772,21.82-21.821,21.82c-12.045,0-21.819-9.775-21.819-21.82
					c0-12.056,9.774-21.818,21.819-21.818C299.47,165.212,309.242,174.975,309.242,187.03z"/>
				<path fill="#DC6663" d="M303.132,187.03c0,8.672-7.036,15.705-15.711,15.705c-8.677,0-15.709-7.033-15.709-15.705
					c0-8.682,7.032-15.716,15.709-15.716C296.096,171.314,303.132,178.349,303.132,187.03z"/>
				<path fill="#4B403E" d="M293.75,187.03c0,3.489-2.838,6.326-6.329,6.326c-3.496,0-6.326-2.837-6.326-6.326
					c0-3.5,2.83-6.328,6.326-6.328C290.912,180.702,293.75,183.53,293.75,187.03z"/>
			</g>
			<path fill="#FFFFFF" d="M292.383,183.988c0,2.097,1.705,3.8,3.805,3.8c2.096,0,3.797-1.703,3.797-3.8
				c0-2.104-1.701-3.792-3.797-3.792C294.088,180.196,292.383,181.885,292.383,183.988z"/>
			<path fill="#FFFFFF" d="M173.23,183.988c0,2.097,1.701,3.8,3.797,3.8c2.103,0,3.799-1.703,3.799-3.8
				c0-2.104-1.696-3.792-3.799-3.792C174.932,180.196,173.23,181.885,173.23,183.988z"/>
			<g>
				<path fill="#4B403E" d="M253.039,155.485c-8.443,2.912-18.895,3.395-23.063,3.458c-4.166-0.063-14.681-0.546-23.117-3.458
					c-16.083-5.543-41.945-9.041-61.681-8.551c-19.733,0.493-40.434,4.026-46.685,6.328l3.777,16.777c0,0,5.518-0.438,6.885,3.378
					c1.686,4.692,10.84,32.62,15.791,42.935c4.063,8.445,15.062,15.68,40.628,15.783c36.382,0.15,48.987-24.725,54.771-40.787
					c0.613-1.696,1.521-4.906,2.351-8.025c1.193-4.461,3.799-8.862,4.979-9.484c0.699-0.374,1.504-0.669,2.301-0.669
					c0.793,0,1.605,0.295,2.303,0.669c1.18,0.622,3.732,5.023,4.928,9.484c0.83,3.119,1.741,6.329,2.348,8.025
					c5.783,16.063,18.384,40.938,54.772,40.787c25.569-0.104,36.564-7.338,40.622-15.783c4.955-10.314,14.108-38.242,15.797-42.935
					c1.37-3.816,6.882-3.378,6.882-3.378l3.784-16.777c-6.246-2.302-26.957-5.835-46.695-6.328
					C294.982,146.444,269.131,149.942,253.039,155.485z M202.211,206.685c-13.944,18.319-41.363,21.539-62.082,13.469
					c-13.634-5.313-25.584-40.992-18.352-53.723c10.428-18.342,54.139-9.129,69.851-5.256
					C218.362,167.761,217.399,186.733,202.211,206.685z M338.12,166.431c7.233,12.73-4.708,48.41-18.347,53.723
					c-20.727,8.07-48.143,4.851-62.086-13.469c-15.188-19.951-16.152-38.924,10.587-45.51
					C283.986,157.302,327.691,148.089,338.12,166.431z"/>
			</g>
		</g>
	</g>
</g>
<g id="Layer_2" display="none">
</g>
</svg>
