<?xml version="1.0" encoding="utf-8"?>
<!-- Generator: Adobe Illustrator 16.0.0, SVG Export Plug-In . SVG Version: 6.00 Build 0)  -->
<!DOCTYPE svg PUBLIC "-//W3C//DTD SVG 1.1//EN" "http://www.w3.org/Graphics/SVG/1.1/DTD/svg11.dtd">
<svg version="1.1" xmlns="http://www.w3.org/2000/svg" xmlns:xlink="http://www.w3.org/1999/xlink" x="0px" y="0px"
	 width="257.692px" height="373.847px" viewBox="0 0 257.692 373.847" enable-background="new 0 0 257.692 373.847"
	 xml:space="preserve">
<g id="Layer_1">
	<g>
		<g>
			<polygon fill="#4B403E" points="223.601,170.037 217.988,179.999 213.313,177.612 217.789,167.085 			"/>
			<path fill="#CDC184" d="M228.983,173.537l-6.771,9.212c-1.432-0.949-2.691-2.125-4.338-2.807l5.588-9.976
				C225.45,170.839,227.169,172.301,228.983,173.537z"/>
			<path fill="#4B403E" d="M234.064,177.805l-7.955,8.221c-1.13-1.258-2.427-2.354-3.897-3.276l6.771-9.212
				C230.839,174.737,232.53,176.165,234.064,177.805z"/>
			<path fill="#CDC184" d="M238.445,182.657l-9.03,7.011c-0.88-1.44-2.193-2.537-3.388-3.728l7.925-8.244
				C235.54,179.268,237.208,180.757,238.445,182.657z"/>
			<path fill="#4B403E" d="M242.178,188.244l-9.978,5.593c-0.63-1.575-1.865-2.775-2.785-4.169l9.03-7.011
				C239.72,184.501,241.27,186.176,242.178,188.244z"/>
			<path fill="#CDC184" d="M244.977,194.184l-10.68,4.089c-0.446-1.643-1.47-3.012-2.15-4.539l9.957-5.623
				C243.061,190.133,244.338,192.038,244.977,194.184z"/>
			<path fill="#4B403E" d="M246.921,200.586l-11.153,2.523c-0.273-1.685-1.013-3.217-1.471-4.837l10.68-4.089
				C245.629,196.314,246.537,198.4,246.921,200.586z"/>
			<path fill="#CDC184" d="M247.95,206.993l-11.389,1.039c-0.146-1.703-0.569-3.358-0.816-5.042l11.148-2.561
				C247.252,202.612,247.76,204.798,247.95,206.993z"/>
			<path fill="#4B403E" d="M248.147,213.585l-11.427-0.388c0.004-1.728-0.127-3.441-0.159-5.165l11.389-1.039
				C248.026,209.19,248.169,211.396,248.147,213.585z"/>
			<polygon fill="#CDC184" points="247.574,219.951 236.265,218.271 236.729,213.071 248.162,213.43 			"/>
			<polygon fill="#4B403E" points="246.247,226.312 235.182,223.424 236.265,218.271 247.574,219.951 			"/>
			<path fill="#CDC184" d="M244.324,232.318l-10.721-3.97c0.514-1.687,1.21-3.333,1.603-5.044l11.075,2.854
				C245.783,228.264,244.977,230.266,244.324,232.318z"/>
			<path fill="#4B403E" d="M241.776,238.231l-10.282-5.004c0.679-1.636,1.636-3.17,2.109-4.879l10.721,3.97
				C243.714,234.397,242.617,236.261,241.776,238.231z"/>
			<path fill="#CDC184" d="M238.757,243.729l-9.767-5.944c0.914-1.523,1.892-3.017,2.557-4.672l10.293,4.984
				C241.014,240.084,239.86,241.894,238.757,243.729z"/>
			<path fill="#4B403E" d="M235.167,249.047l-9.162-6.84c1.133-1.381,2.127-2.853,2.985-4.423l9.767,5.944
				C237.713,245.605,236.518,247.377,235.167,249.047z"/>
			<path fill="#CDC184" d="M231.203,253.896l-8.495-7.655c1.297-1.229,2.277-2.732,3.371-4.135l9.181,6.82
				C233.952,250.619,232.744,252.399,231.203,253.896z"/>
			<path fill="#4B403E" d="M226.698,258.476l-7.725-8.432c1.377-1.125,2.475-2.549,3.734-3.803l8.495,7.655
				C229.696,255.42,228.345,257.102,226.698,258.476z"/>
			<polygon fill="#CDC184" points="221.899,262.539 215.01,253.41 219.073,249.963 226.813,258.378 			"/>
		</g>
		<g>
			<rect x="152.69" y="264.527" fill="#A5C568" width="27.905" height="91.461"/>
			<path fill="#6DA468" d="M166.645,342.496c-11.344,0-20.548,9.117-20.715,20.422h41.427
				C187.187,351.613,177.987,342.496,166.645,342.496z"/>
			<path fill="#6DA468" d="M186.211,304.087c0,5.587-4.528,10.117-10.115,10.117h-18.907c-5.587,0-10.117-4.53-10.117-10.117l0,0
				c0-5.587,4.53-10.119,10.117-10.119h18.907C181.683,293.968,186.211,298.5,186.211,304.087L186.211,304.087z"/>
		</g>
		<g>
			<rect x="77.724" y="264.527" fill="#A5C568" width="27.901" height="91.461"/>
			<path fill="#6DA468" d="M91.671,342.496c-11.339,0-20.543,9.117-20.709,20.422h41.425
				C112.22,351.613,103.021,342.496,91.671,342.496z"/>
			<path fill="#6DA468" d="M111.242,304.087c0,5.587-4.528,10.117-10.114,10.117H82.22c-5.588,0-10.115-4.53-10.115-10.117l0,0
				c0-5.587,4.527-10.119,10.115-10.119h18.908C106.714,293.968,111.242,298.5,111.242,304.087L111.242,304.087z"/>
		</g>
		<g>
			<g>
				<rect x="54.473" y="161.963" fill="#6DA468" width="148.812" height="97.979"/>
			</g>
		</g>
		<path fill="#4B403E" d="M182.453,222.336c0,5.607-4.547,10.159-10.159,10.159H88.601c-5.613,0-10.161-4.552-10.161-10.159v-38.22
			c0-5.611,4.548-10.16,10.161-10.16h83.693c5.612,0,10.159,4.549,10.159,10.16V222.336z"/>
		<rect x="122.617" y="40.474" fill="#4B403E" width="6.507" height="34.084"/>
		<g>
			<polygon fill="#6DA468" points="190.146,154.999 185.787,154.999 69.893,154.999 65.536,154.999 65.536,150.642 65.536,66.456 
				65.536,62.101 69.893,62.101 185.787,62.101 190.146,62.101 190.146,66.456 190.146,150.642 190.146,154.999 			"/>
		</g>
		<g>
			<g>
				<path fill="#4B403E" d="M152.021,141.93c-17.584,5.718-28.813,5.718-46.401,0c0-4.688,0-7.032,0-11.722
					c17.589,5.716,28.814,5.716,46.401,0C152.021,134.897,152.021,137.241,152.021,141.93z"/>
				<path fill="#F2E8E1" d="M111.717,137.452c-1.611-0.521-2.41-0.813-3.986-1.46c0-1.521,0-2.283,0-3.806
					c1.576,0.646,2.375,0.937,3.986,1.458C111.717,135.166,111.717,135.928,111.717,137.452z"/>
				<path fill="#F2E8E1" d="M111.717,142.252c-1.611-0.521-2.41-0.818-3.986-1.464c0-1.523,0-2.283,0-3.807
					c1.576,0.648,2.375,0.943,3.986,1.466C111.717,139.97,111.717,140.729,111.717,142.252z"/>
				<path fill="#F2E8E1" d="M117.091,138.896c-1.651-0.357-2.471-0.561-4.097-1.049c0-1.521,0-2.278,0-3.805
					c1.626,0.48,2.445,0.691,4.097,1.044C117.091,136.608,117.091,137.368,117.091,138.896z"/>
				<path fill="#F2E8E1" d="M117.091,143.69c-1.651-0.354-2.471-0.562-4.097-1.043c0-1.522,0-2.285,0-3.807
					c1.626,0.48,2.445,0.688,4.097,1.043C117.091,141.407,117.091,142.169,117.091,143.69z"/>
				<path fill="#F2E8E1" d="M122.564,139.786c-1.672-0.188-2.506-0.315-4.163-0.628c0-1.522,0-2.284,0-3.806
					c1.657,0.312,2.491,0.44,4.163,0.627C122.564,137.505,122.564,138.266,122.564,139.786z"/>
				<path fill="#F2E8E1" d="M122.564,144.586c-1.672-0.189-2.506-0.316-4.163-0.628c0-1.528,0-2.287,0-3.811
					c1.657,0.314,2.491,0.443,4.163,0.63C122.564,142.303,122.564,143.064,122.564,144.586z"/>
				<path fill="#F2E8E1" d="M128.096,140.134c-1.685-0.021-2.525-0.066-4.205-0.215c0-1.523,0-2.283,0-3.809
					c1.68,0.15,2.521,0.191,4.205,0.215C128.096,137.847,128.096,138.608,128.096,140.134z"/>
				<path fill="#F2E8E1" d="M128.096,144.931c-1.685-0.025-2.525-0.063-4.205-0.213c0-1.521,0-2.288,0-3.809
					c1.68,0.146,2.521,0.191,4.205,0.216C128.096,142.647,128.096,143.409,128.096,144.931z"/>
				<path fill="#F2E8E1" d="M133.628,139.933c-1.676,0.145-2.519,0.182-4.201,0.201c0-1.525,0-2.287,0-3.809
					c1.683-0.015,2.525-0.057,4.201-0.201C133.628,137.645,133.628,138.407,133.628,139.933z"/>
				<path fill="#F2E8E1" d="M133.628,144.73c-1.676,0.144-2.519,0.183-4.201,0.2c0-1.521,0-2.283,0-3.806
					c1.683-0.017,2.525-0.058,4.201-0.203C133.628,142.442,133.628,143.206,133.628,144.73z"/>
				<path fill="#F2E8E1" d="M139.121,139.181c-1.658,0.31-2.491,0.436-4.167,0.62c0-1.522,0-2.288,0-3.807
					c1.676-0.185,2.509-0.308,4.167-0.621C139.121,136.895,139.121,137.657,139.121,139.181z"/>
				<path fill="#F2E8E1" d="M139.121,143.978c-1.658,0.313-2.491,0.438-4.167,0.619c0-1.52,0-2.283,0-3.805
					c1.676-0.184,2.509-0.313,4.167-0.62C139.121,141.691,139.121,142.454,139.121,143.978z"/>
				<path fill="#F2E8E1" d="M144.524,137.887c-1.624,0.474-2.444,0.683-4.096,1.031c0-1.521,0-2.282,0-3.81
					c1.651-0.349,2.472-0.553,4.096-1.033C144.524,135.599,144.524,136.363,144.524,137.887z"/>
				<path fill="#F2E8E1" d="M144.524,142.685c-1.624,0.479-2.444,0.683-4.096,1.033c0-1.521,0-2.284,0-3.806
					c1.651-0.353,2.472-0.56,4.096-1.039C144.524,140.401,144.524,141.161,144.524,142.685z"/>
				<path fill="#F2E8E1" d="M149.797,136.038c-1.576,0.645-2.374,0.936-3.99,1.453c0-1.523,0-2.282,0-3.807
					c1.616-0.518,2.414-0.808,3.99-1.452C149.797,133.755,149.797,134.517,149.797,136.038z"/>
				<path fill="#F2E8E1" d="M149.797,140.839c-1.576,0.643-2.374,0.934-3.99,1.451c0-1.524,0-2.283,0-3.807
					c1.616-0.521,2.414-0.809,3.99-1.454C149.797,138.551,149.797,139.317,149.797,140.839z"/>
			</g>
		</g>
		<path fill="#A5C568" d="M218.623,191.037c0,3.565-2.891,6.459-6.461,6.459l0,0c-3.565,0-6.457-2.894-6.457-6.459v-26.354
			c0-3.568,2.892-6.458,6.457-6.458l0,0c3.57,0,6.461,2.89,6.461,6.458V191.037z"/>
		<rect x="71.418" y="68.311" fill="none" stroke="#FFFFFF" stroke-width="0.6421" width="112.844" height="81.64"/>
		<g>
			<circle fill="#6DA468" cx="104.699" cy="203.527" r="21.022"/>
			<circle fill="#FFFFFF" cx="104.702" cy="203.527" r="15.498"/>
			<g>
				<circle fill="#A5C568" cx="104.701" cy="203.527" r="11.441"/>
			</g>
			<g>
				<path fill="#AD6964" d="M105.009,206.731c-0.416,0.84-1.295,1.259-1.958,0.932l0,0c-0.667-0.333-0.865-1.281-0.448-2.128
					l4.193-8.443c0.419-0.843,1.3-1.26,1.962-0.932l0,0c0.663,0.334,0.86,1.285,0.443,2.129L105.009,206.731z"/>
				<path fill="#AD6964" d="M107.686,202.856c0.361,1.475-0.548,2.962-2.022,3.323c-1.475,0.351-2.96-0.549-3.314-2.027
					c-0.357-1.476,0.544-2.962,2.023-3.319C105.847,200.477,107.331,201.384,107.686,202.856z"/>
			</g>
		</g>
		<g>
			<g>
				<g>
					<g>
						<path fill="#6DA468" d="M158.327,197.671l0.825,0.207c0.27,0.07,0.542-0.136,0.606-0.456c0.061-0.338,0.141-0.677,0.184-1.019
							c0.032-0.327-0.167-0.61-0.447-0.631c0,0-0.374-0.036-0.833-0.081c-0.467-0.049-0.796-0.5-0.786-1.021
							c0.008-0.522,0.361-0.966,0.829-0.993l0.849-0.048c0.283-0.013,0.478-0.289,0.446-0.612c-0.044-0.345-0.063-0.691-0.127-1.032
							c-0.066-0.319-0.338-0.529-0.61-0.472c0,0-0.369,0.075-0.825,0.175c-0.454,0.088-0.909-0.244-1.052-0.747
							c-0.146-0.5,0.06-1.025,0.498-1.188l0.799-0.295c0.259-0.098,0.37-0.418,0.242-0.717c-0.142-0.319-0.251-0.647-0.429-0.947
							c-0.151-0.291-0.476-0.41-0.719-0.276c0,0-0.33,0.183-0.738,0.411c-0.407,0.226-0.943,0.035-1.223-0.401
							c-0.29-0.435-0.248-0.999,0.127-1.284l0.672-0.514c0.22-0.169,0.235-0.513,0.026-0.762c-0.216-0.271-0.437-0.535-0.689-0.773
							c-0.229-0.234-0.573-0.259-0.765-0.058c0,0-0.261,0.271-0.586,0.606c-0.321,0.338-0.889,0.316-1.289-0.02
							c-0.401-0.333-0.53-0.884-0.259-1.264l0.49-0.687c0.161-0.228,0.075-0.56-0.2-0.743c-0.277-0.201-0.578-0.375-0.887-0.535
							c-0.288-0.154-0.623-0.076-0.746,0.176c0,0-0.169,0.334-0.379,0.752c-0.211,0.418-0.757,0.563-1.237,0.363
							c-0.483-0.2-0.768-0.688-0.62-1.131l0.262-0.803c0.093-0.266-0.093-0.556-0.404-0.645c-0.328-0.113-0.663-0.197-1.005-0.25
							c-0.32-0.066-0.615,0.107-0.661,0.381c0,0-0.063,0.373-0.143,0.834c-0.079,0.457-0.56,0.759-1.076,0.707
							c-0.518-0.051-0.935-0.43-0.926-0.9l0.018-0.843c0.009-0.281-0.253-0.501-0.577-0.501c-0.347,0-0.694,0.01-1.038,0.056
							c-0.326,0.034-0.558,0.29-0.521,0.563c0,0,0.051,0.376,0.111,0.838c0.062,0.465-0.313,0.889-0.82,0.995
							c-0.507,0.107-1.02-0.138-1.146-0.58l-0.237-0.817c-0.073-0.268-0.389-0.404-0.701-0.305c-0.335,0.09-0.65,0.226-0.973,0.359
							c-0.303,0.129-0.447,0.435-0.332,0.688c0,0,0.161,0.341,0.355,0.771c0.197,0.423-0.033,0.941-0.491,1.194
							c-0.454,0.25-1.012,0.169-1.265-0.223l-0.467-0.707c-0.149-0.231-0.49-0.274-0.759-0.094
							c-0.297,0.186-0.552,0.424-0.822,0.637c-0.253,0.204-0.307,0.541-0.118,0.751c0,0,0.25,0.28,0.567,0.633
							c0.312,0.35,0.245,0.913-0.119,1.284c-0.36,0.374-0.918,0.463-1.275,0.168l-0.649-0.539c-0.213-0.182-0.555-0.121-0.762,0.131
							c-0.216,0.273-0.4,0.569-0.594,0.852c-0.184,0.273-0.14,0.606,0.106,0.75c0,0,0.324,0.199,0.729,0.442
							c0.4,0.244,0.506,0.797,0.268,1.263c-0.229,0.465-0.737,0.711-1.168,0.535l-0.776-0.322c-0.259-0.107-0.571,0.049-0.694,0.353
							c-0.118,0.325-0.205,0.658-0.307,0.988c-0.097,0.312,0.048,0.62,0.315,0.685c0,0,0.368,0.092,0.826,0.203
							c0.456,0.116,0.719,0.617,0.632,1.127c-0.089,0.514-0.498,0.9-0.96,0.856l-0.84-0.08c-0.276-0.026-0.527,0.216-0.552,0.538
							c-0.037,0.345-0.01,0.691-0.015,1.041c0.005,0.323,0.232,0.576,0.509,0.561c0,0,0.382-0.023,0.848-0.048
							c0.471-0.028,0.87,0.372,0.938,0.893c0.068,0.516-0.212,1.003-0.667,1.1l-0.828,0.173c-0.27,0.053-0.436,0.361-0.369,0.679
							c0.085,0.333,0.199,0.663,0.299,0.994c0.098,0.314,0.389,0.485,0.654,0.39c0,0,0.356-0.137,0.797-0.301
							c0.439-0.161,0.939,0.1,1.157,0.576c0.22,0.47,0.098,1.022-0.313,1.247l-0.739,0.408c-0.244,0.137-0.318,0.475-0.156,0.759
							l0.576,0.861c0.175,0.281,0.525,0.341,0.745,0.172c0,0,0.299-0.233,0.673-0.515c0.373-0.286,0.929-0.18,1.272,0.209
							c0.35,0.391,0.39,0.953,0.07,1.288l-0.591,0.61c-0.189,0.193-0.179,0.558,0.077,0.763l0.8,0.663
							c0.249,0.217,0.609,0.162,0.767-0.061c0,0,0.22-0.311,0.493-0.691c0.27-0.377,0.827-0.441,1.274-0.171
							c0.448,0.27,0.655,0.794,0.446,1.213l-0.38,0.752c-0.126,0.245-0.001,0.591,0.301,0.705l0.961,0.401
							c0.304,0.125,0.632-0.036,0.713-0.29c0,0,0.116-0.36,0.262-0.804c0.149-0.445,0.467-0.736,0.715-0.663
							c0.15,0.042,0.305,0.086,0.457,0.123c0.154,0.037,0.304,0.069,0.456,0.105c0.255,0.048,0.404,0.457,0.323,0.917l-0.142,0.832
							c-0.046,0.266,0.169,0.564,0.494,0.591l1.035,0.097c0.324,0.039,0.593-0.208,0.598-0.48c0,0,0.006-0.38,0.017-0.846
							c0.007-0.47,0.438-0.836,0.96-0.862c0.518-0.031,0.987,0.288,1.049,0.748l0.11,0.84c0.035,0.267,0.329,0.486,0.647,0.415
							l1.015-0.215c0.323-0.061,0.506-0.378,0.431-0.641c0,0-0.107-0.359-0.236-0.812c-0.13-0.447,0.171-0.927,0.66-1.106
							c0.49-0.183,1.031-0.017,1.224,0.406l0.357,0.775c0.111,0.249,0.449,0.357,0.735,0.194l0.913-0.492
							c0.273-0.173,0.37-0.511,0.216-0.743c0,0-0.207-0.315-0.461-0.706c-0.256-0.392-0.105-0.934,0.307-1.255
							c0.413-0.313,0.979-0.313,1.29,0.033l0.566,0.637c0.187,0.213,0.528,0.197,0.757-0.033c0.246-0.243,0.504-0.48,0.73-0.738
							c0.208-0.252,0.204-0.598-0.012-0.774c0,0-0.29-0.24-0.646-0.536c-0.358-0.298-0.376-0.863-0.073-1.287
							c0.299-0.423,0.841-0.593,1.242-0.352l0.728,0.438c0.236,0.145,0.56,0.03,0.713-0.255c0.157-0.31,0.341-0.602,0.474-0.928
							c0.127-0.297,0.021-0.629-0.237-0.733c0,0-0.347-0.143-0.777-0.324c-0.43-0.175-0.614-0.71-0.451-1.202
							C157.403,197.88,157.872,197.562,158.327,197.671z M154.744,196.214l-6.493-1.613c0.093-1.26-0.617-2.438-1.772-2.943
							l1.61-6.492C152.806,186.595,155.682,191.375,154.744,196.214z M147.105,184.919l-1.611,6.492
							c-1.255-0.092-2.438,0.624-2.944,1.773l-6.493-1.611C137.486,186.86,142.269,183.985,147.105,184.919z M135.811,192.559
							l6.493,1.613c-0.092,1.255,0.622,2.439,1.775,2.943l-1.608,6.494C137.753,202.173,134.876,197.396,135.811,192.559z
							 M143.448,203.852l1.614-6.492c1.253,0.093,2.438-0.622,2.946-1.774l6.493,1.615
							C153.068,201.913,148.289,204.792,143.448,203.852z"/>
					</g>
				</g>
			</g>
		</g>
		<g>
			<g>
				<path fill="#FFFFFF" d="M174.38,216.483l0.639,0.158c0.206,0.056,0.418-0.105,0.464-0.35c0.048-0.263,0.107-0.521,0.144-0.785
					c0.027-0.253-0.131-0.473-0.341-0.491c0,0-0.295-0.026-0.651-0.061c-0.355-0.035-0.614-0.385-0.605-0.789
					c0.011-0.4,0.281-0.742,0.644-0.765l0.654-0.032c0.216-0.014,0.369-0.228,0.345-0.478c-0.035-0.264-0.049-0.535-0.101-0.794
					c-0.048-0.249-0.26-0.412-0.471-0.364c0,0-0.283,0.06-0.636,0.132c-0.351,0.072-0.702-0.187-0.813-0.576
					c-0.109-0.381,0.049-0.789,0.388-0.914l0.613-0.231c0.201-0.071,0.288-0.319,0.187-0.553c-0.107-0.244-0.195-0.5-0.328-0.729
					c-0.117-0.223-0.367-0.315-0.557-0.21c0,0-0.254,0.14-0.568,0.311c-0.313,0.175-0.725,0.03-0.946-0.307
					c-0.22-0.334-0.188-0.77,0.097-0.989l0.521-0.397c0.173-0.132,0.182-0.393,0.024-0.59c-0.169-0.207-0.339-0.413-0.535-0.598
					c-0.176-0.179-0.439-0.201-0.587-0.045c0,0-0.204,0.213-0.453,0.472c-0.251,0.26-0.691,0.24-0.999-0.014
					c-0.306-0.256-0.406-0.685-0.195-0.981l0.376-0.528c0.123-0.171,0.058-0.43-0.15-0.568c-0.219-0.158-0.45-0.289-0.688-0.414
					c-0.226-0.12-0.48-0.063-0.574,0.13c0,0-0.134,0.265-0.296,0.585c-0.161,0.321-0.584,0.435-0.954,0.28
					c-0.371-0.154-0.59-0.531-0.477-0.87l0.201-0.625c0.067-0.2-0.072-0.423-0.314-0.498c-0.251-0.082-0.51-0.148-0.773-0.19
					c-0.249-0.051-0.474,0.084-0.51,0.296c0,0-0.051,0.286-0.108,0.64c-0.063,0.357-0.434,0.586-0.83,0.551
					c-0.405-0.04-0.721-0.334-0.719-0.695l0.016-0.652c0.004-0.215-0.195-0.389-0.445-0.384c-0.27-0.005-0.536,0.006-0.801,0.041
					c-0.251,0.027-0.432,0.225-0.402,0.433c0,0,0.041,0.289,0.085,0.647c0.049,0.356-0.236,0.685-0.632,0.771
					c-0.391,0.084-0.786-0.104-0.884-0.451l-0.183-0.632c-0.058-0.204-0.301-0.308-0.542-0.234
					c-0.259,0.071-0.502,0.175-0.751,0.277c-0.232,0.1-0.345,0.339-0.255,0.531c0,0,0.122,0.265,0.273,0.597
					c0.149,0.325-0.025,0.724-0.375,0.921c-0.353,0.191-0.783,0.133-0.98-0.171l-0.357-0.548c-0.115-0.177-0.38-0.209-0.59-0.069
					c-0.227,0.141-0.425,0.327-0.63,0.487c-0.198,0.162-0.238,0.422-0.093,0.58c0,0,0.192,0.218,0.437,0.489
					c0.238,0.27,0.191,0.704-0.091,0.993c-0.278,0.291-0.71,0.357-0.987,0.129l-0.498-0.418c-0.165-0.139-0.431-0.095-0.588,0.104
					c-0.167,0.209-0.31,0.437-0.459,0.656c-0.139,0.213-0.105,0.47,0.083,0.58c0,0,0.25,0.152,0.562,0.341
					c0.312,0.185,0.387,0.611,0.207,0.971c-0.181,0.363-0.571,0.549-0.9,0.418l-0.602-0.252c-0.197-0.082-0.438,0.04-0.535,0.273
					c-0.092,0.25-0.157,0.505-0.237,0.763c-0.074,0.24,0.037,0.477,0.246,0.528c0,0,0.286,0.069,0.637,0.157
					c0.352,0.083,0.558,0.475,0.487,0.87c-0.066,0.395-0.384,0.694-0.742,0.658l-0.649-0.062c-0.21-0.021-0.402,0.167-0.424,0.42
					c-0.028,0.261-0.007,0.533-0.011,0.797c0.004,0.254,0.18,0.447,0.393,0.434c0,0,0.291-0.014,0.655-0.035
					c0.361-0.021,0.67,0.29,0.72,0.686c0.054,0.401-0.16,0.779-0.514,0.852l-0.637,0.131c-0.21,0.044-0.336,0.281-0.284,0.523
					c0.062,0.264,0.154,0.517,0.229,0.773c0.075,0.236,0.301,0.371,0.506,0.294c0,0,0.275-0.104,0.615-0.229
					c0.339-0.124,0.723,0.079,0.892,0.443c0.169,0.361,0.073,0.789-0.241,0.962l-0.568,0.314c-0.188,0.106-0.245,0.37-0.121,0.587
					l0.444,0.668c0.133,0.212,0.406,0.258,0.574,0.13c0,0,0.234-0.177,0.521-0.4c0.286-0.22,0.716-0.133,0.979,0.162
					c0.272,0.304,0.303,0.737,0.054,0.996l-0.453,0.471c-0.148,0.149-0.136,0.43,0.06,0.592l0.616,0.51
					c0.193,0.166,0.475,0.123,0.592-0.047c0,0,0.169-0.239,0.379-0.535c0.21-0.292,0.641-0.339,0.988-0.134
					c0.343,0.209,0.506,0.614,0.343,0.935l-0.294,0.584c-0.098,0.186,0,0.45,0.232,0.54l0.741,0.312
					c0.233,0.098,0.486-0.025,0.549-0.224c0,0,0.092-0.277,0.205-0.618c0.112-0.344,0.355-0.569,0.553-0.513
					c0.11,0.033,0.233,0.069,0.349,0.096c0.118,0.03,0.234,0.053,0.353,0.081c0.199,0.038,0.313,0.354,0.253,0.707l-0.112,0.643
					c-0.037,0.206,0.128,0.431,0.382,0.454l0.798,0.075c0.253,0.033,0.458-0.159,0.46-0.372c0,0,0.007-0.292,0.016-0.654
					c0.005-0.358,0.34-0.638,0.74-0.662c0.401-0.021,0.762,0.224,0.807,0.576l0.087,0.646c0.027,0.208,0.253,0.377,0.501,0.321
					l0.786-0.16c0.245-0.052,0.385-0.295,0.329-0.496c0,0-0.084-0.281-0.183-0.623c-0.1-0.348,0.134-0.719,0.507-0.859
					c0.38-0.139,0.795-0.011,0.947,0.315l0.273,0.597c0.089,0.191,0.351,0.275,0.57,0.152l0.699-0.382
					c0.215-0.134,0.289-0.395,0.17-0.569c0,0-0.16-0.245-0.355-0.548c-0.197-0.3-0.083-0.722,0.238-0.968
					c0.316-0.242,0.753-0.242,0.996,0.022l0.434,0.493c0.146,0.165,0.408,0.156,0.586-0.024c0.188-0.188,0.388-0.367,0.565-0.571
					c0.156-0.191,0.153-0.46-0.01-0.597c0,0-0.224-0.184-0.501-0.417c-0.278-0.227-0.29-0.663-0.057-0.99
					c0.229-0.326,0.647-0.458,0.96-0.27l0.559,0.339c0.186,0.109,0.432,0.021,0.554-0.2c0.121-0.235,0.264-0.464,0.364-0.713
					c0.097-0.234,0.019-0.485-0.182-0.567c0,0-0.272-0.109-0.602-0.25c-0.333-0.134-0.478-0.549-0.349-0.929
					C173.666,216.646,174.028,216.396,174.38,216.483z"/>
			</g>
			<circle fill="#6DA468" cx="164.306" cy="213.955" r="4.514"/>
		</g>
		<g>
			<circle fill="#AD6964" cx="94.417" cy="242.117" r="5.491"/>
			<path fill="#FFFFFF" d="M118.899,242.117c0,3.032-2.457,5.491-5.492,5.491c-3.029,0-5.49-2.459-5.49-5.491
				s2.461-5.491,5.49-5.491C116.442,236.626,118.899,239.085,118.899,242.117z"/>
			<path fill="#F2E8E1" d="M137.894,242.117c0,3.032-2.458,5.491-5.494,5.491c-3.029,0-5.488-2.459-5.488-5.491
				s2.459-5.491,5.488-5.491C135.436,236.626,137.894,239.085,137.894,242.117z"/>
			<circle fill="#AD6964" cx="151.395" cy="242.117" r="5.491"/>
			<circle fill="#A5C568" cx="170.386" cy="242.117" r="5.492"/>
		</g>
		<g>
			<g>
				<g>
					<path fill="#6DA468" d="M154.362,18.872h0.728c-0.002-1.391,0.43-2.633,1.083-3.498c0.662-0.865,1.5-1.339,2.396-1.339
						c0.89,0,1.729,0.474,2.393,1.339c0.653,0.865,1.084,2.107,1.082,3.498c0.006,0.62-0.245,1.994-0.635,3.594
						c-0.585,2.418-1.469,5.424-2.208,7.816c-0.364,1.199-0.698,2.244-0.938,2.99c-0.237,0.748-0.385,1.194-0.385,1.194l0.691,0.229
						l0.688-0.229c0,0-0.261-0.792-0.652-2.034c-0.593-1.86-1.475-4.723-2.21-7.4c-0.367-1.337-0.696-2.625-0.932-3.718
						c-0.238-1.081-0.374-1.982-0.372-2.442H154.362h-0.724c0.005,0.91,0.281,2.281,0.677,3.935
						c1.194,4.935,3.561,12.104,3.562,12.114l0.691,2.092l0.688-2.092c0-0.004,1.053-3.2,2.108-6.782
						c0.525-1.796,1.057-3.687,1.454-5.332c0.397-1.653,0.674-3.024,0.678-3.935c-0.001-1.686-0.514-3.222-1.377-4.369
						c-0.861-1.146-2.123-1.916-3.551-1.916c-1.431,0-2.691,0.77-3.551,1.916c-0.866,1.147-1.377,2.684-1.379,4.369H154.362z"/>
				</g>
				<g>
					<path fill="#6DA468" d="M158.371,32.798c-0.522,2.295-1.321,4.287-2.382,5.65c-1.07,1.37-2.32,2.107-3.966,2.117
						c-1.597-0.005-2.869-0.844-3.925-2.25c-1.05-1.398-1.792-3.338-2.189-5.264l-1.42,0.294c0.431,2.083,1.221,4.192,2.44,5.838
						c1.213,1.636,2.936,2.836,5.094,2.835c2.134,0.008,3.871-1.059,5.114-2.68c1.251-1.623,2.092-3.792,2.648-6.215L158.371,32.798
						z"/>
				</g>
				<g>
					<path fill="#6DA468" d="M145.532,32.798c-0.524,2.295-1.322,4.287-2.383,5.65c-1.069,1.37-2.317,2.107-3.968,2.117v1.453
						c2.134,0.008,3.875-1.059,5.114-2.68c1.254-1.623,2.093-3.792,2.652-6.215L145.532,32.798z"/>
				</g>
				<g>
					<path fill="#6DA468" d="M164.946,40.565c-1.599-0.005-2.871-0.844-3.931-2.25c-1.044-1.398-1.79-3.338-2.186-5.264
						l-1.421,0.294c0.431,2.083,1.221,4.192,2.446,5.838c1.208,1.636,2.931,2.836,5.091,2.835V40.565z"/>
				</g>
				<g>
					<path fill="#6DA468" d="M141.495,18.872h0.724c0-1.391,0.431-2.633,1.085-3.498c0.661-0.865,1.502-1.339,2.394-1.339
						c0.893,0,1.734,0.474,2.394,1.339c0.657,0.865,1.087,2.107,1.086,3.498c0.006,0.62-0.247,1.994-0.638,3.594
						c-0.583,2.418-1.468,5.424-2.205,7.816c-0.367,1.199-0.698,2.244-0.94,2.99c-0.237,0.748-0.386,1.194-0.386,1.194l0.689,0.229
						l0.691-0.229c0,0-0.261-0.792-0.654-2.034c-0.59-1.86-1.476-4.723-2.211-7.4c-0.366-1.337-0.697-2.625-0.933-3.718
						c-0.234-1.081-0.373-1.982-0.372-2.442H141.495h-0.726c0.006,0.91,0.281,2.281,0.678,3.935
						c1.194,4.935,3.561,12.104,3.561,12.114l0.689,2.092l0.691-2.092c0-0.004,1.054-3.2,2.109-6.782
						c0.527-1.796,1.053-3.687,1.453-5.332c0.396-1.653,0.671-3.024,0.676-3.935c0-1.686-0.512-3.222-1.377-4.369
						c-0.862-1.146-2.122-1.916-3.553-1.916c-1.43,0-2.691,0.77-3.552,1.916c-0.865,1.147-1.375,2.684-1.376,4.369H141.495z"/>
				</g>
				<g>
					<path fill="#6DA468" d="M128.603,18.872h0.728c-0.005-1.391,0.429-2.633,1.08-3.498c0.663-0.865,1.505-1.339,2.393-1.339
						c0.893,0,1.733,0.474,2.397,1.339c0.654,0.865,1.084,2.107,1.084,3.498c0.004,0.62-0.247,1.994-0.637,3.594
						c-0.584,2.418-1.471,5.424-2.209,7.816c-0.367,1.199-0.697,2.244-0.938,2.99c-0.237,0.748-0.385,1.194-0.385,1.194l0.688,0.229
						l0.689-0.229c0,0-0.259-0.792-0.652-2.034c-0.59-1.86-1.472-4.723-2.208-7.4c-0.367-1.337-0.696-2.625-0.933-3.718
						c-0.235-1.081-0.374-1.982-0.369-2.442H128.603h-0.726c0.004,0.91,0.276,2.281,0.676,3.935
						c1.195,4.935,3.561,12.104,3.563,12.114l0.688,2.092l0.689-2.092c0.002-0.004,1.059-3.2,2.112-6.782
						c0.525-1.796,1.053-3.687,1.452-5.332c0.396-1.653,0.672-3.024,0.676-3.935c0-1.686-0.509-3.222-1.376-4.369
						c-0.862-1.146-2.122-1.916-3.554-1.916c-1.427,0-2.687,0.77-3.548,1.916c-0.863,1.147-1.378,2.684-1.378,4.369H128.603z"/>
				</g>
				<g>
					<path fill="#6DA468" d="M132.609,32.798c-0.523,2.295-1.321,4.287-2.382,5.65c-1.071,1.37-2.319,2.107-3.966,2.117
						c-1.595-0.005-2.871-0.844-3.928-2.25c-1.047-1.398-1.789-3.338-2.186-5.264l-1.42,0.294c0.43,2.083,1.22,4.192,2.442,5.838
						c1.209,1.636,2.933,2.836,5.091,2.835c2.133,0.008,3.871-1.059,5.114-2.68c1.251-1.623,2.09-3.792,2.649-6.215L132.609,32.798z
						"/>
				</g>
				<g>
					<path fill="#6DA468" d="M119.772,32.798c-0.526,2.295-1.325,4.287-2.384,5.65c-1.071,1.37-2.317,2.107-3.968,2.117v1.453
						c2.133,0.008,3.873-1.059,5.113-2.68c1.254-1.623,2.093-3.792,2.652-6.215L119.772,32.798z"/>
				</g>
				<g>
					<path fill="#6DA468" d="M139.182,40.565c-1.595-0.005-2.866-0.844-3.924-2.25c-1.051-1.398-1.792-3.338-2.189-5.264
						l-1.42,0.294c0.43,2.083,1.22,4.192,2.444,5.838c1.208,1.636,2.934,2.836,5.089,2.835V40.565z"/>
				</g>
				<g>
					<path fill="#6DA468" d="M115.733,18.872h0.726c0-1.391,0.431-2.633,1.083-3.498c0.661-0.865,1.502-1.339,2.393-1.339
						c0.895,0,1.734,0.474,2.398,1.339c0.653,0.865,1.083,2.107,1.083,3.498c0.005,0.62-0.245,1.994-0.636,3.594
						c-0.586,2.418-1.47,5.424-2.208,7.816c-0.368,1.199-0.698,2.244-0.939,2.99c-0.237,0.748-0.384,1.194-0.384,1.194l0.686,0.229
						l0.689-0.229c0,0-0.259-0.792-0.653-2.034c-0.589-1.86-1.472-4.723-2.209-7.4c-0.366-1.337-0.698-2.625-0.933-3.718
						c-0.234-1.081-0.373-1.982-0.37-2.442H115.733h-0.726c0.006,0.91,0.278,2.281,0.678,3.935
						c1.194,4.935,3.561,12.104,3.563,12.114l0.686,2.092l0.689-2.092c0.003-0.004,1.056-3.2,2.111-6.782
						c0.527-1.796,1.055-3.687,1.454-5.332c0.396-1.653,0.671-3.024,0.677-3.935c0-1.686-0.51-3.222-1.377-4.369
						c-0.862-1.146-2.123-1.916-3.555-1.916c-1.428,0-2.69,0.77-3.551,1.916c-0.864,1.147-1.374,2.684-1.376,4.369H115.733z"/>
				</g>
				<g>
					<path fill="#6DA468" d="M102.841,18.872h0.726c0-1.391,0.429-2.633,1.084-3.498c0.66-0.865,1.502-1.339,2.394-1.339
						c0.894,0,1.732,0.474,2.395,1.339c0.654,0.865,1.085,2.107,1.085,3.498c0.004,0.62-0.246,1.994-0.638,3.594
						c-0.585,2.418-1.468,5.424-2.205,7.816c-0.369,1.199-0.7,2.244-0.942,2.99c-0.236,0.748-0.386,1.194-0.386,1.194l0.691,0.229
						l0.687-0.229c0,0-0.259-0.792-0.651-2.034c-0.591-1.86-1.473-4.723-2.208-7.4c-0.367-1.337-0.696-2.625-0.934-3.718
						c-0.236-1.081-0.373-1.982-0.371-2.442H102.841h-0.726c0.005,0.91,0.279,2.281,0.677,3.935
						c1.193,4.935,3.561,12.104,3.561,12.114l0.691,2.092l0.687-2.092c0.005-0.004,1.056-3.2,2.112-6.782
						c0.527-1.796,1.054-3.687,1.453-5.332c0.396-1.653,0.671-3.024,0.678-3.935c-0.001-1.686-0.512-3.222-1.381-4.369
						c-0.86-1.146-2.12-1.916-3.549-1.916c-1.43,0-2.689,0.77-3.55,1.916c-0.87,1.147-1.379,2.684-1.379,4.369H102.841z"/>
				</g>
				<g>
					<path fill="#6DA468" d="M106.849,32.798c-0.524,2.295-1.322,4.287-2.383,5.65c-1.068,1.37-2.317,2.107-3.967,2.117
						c-1.593-0.005-2.87-0.844-3.927-2.25c-1.046-1.398-1.791-3.338-2.183-5.264l-1.423,0.294c0.43,2.083,1.222,4.192,2.441,5.838
						c1.212,1.636,2.935,2.836,5.091,2.835c2.135,0.008,3.873-1.059,5.115-2.68c1.252-1.623,2.09-3.792,2.649-6.215L106.849,32.798z
						"/>
				</g>
				<g>
					<path fill="#6DA468" d="M94.012,32.798c-0.526,2.295-1.326,4.287-2.385,5.65c-1.07,1.37-2.317,2.107-3.969,2.117v1.453
						c2.134,0.008,3.875-1.059,5.115-2.68c1.254-1.623,2.091-3.792,2.651-6.215L94.012,32.798z"/>
				</g>
				<g>
					<path fill="#6DA468" d="M113.421,40.565c-1.594-0.005-2.871-0.844-3.927-2.25c-1.048-1.398-1.79-3.338-2.188-5.264
						l-1.421,0.294c0.431,2.083,1.222,4.192,2.445,5.838c1.208,1.636,2.934,2.836,5.09,2.835V40.565z"/>
				</g>
				<g>
					<path fill="#6DA468" d="M89.973,18.872h0.724c0-1.391,0.431-2.633,1.085-3.498c0.663-0.865,1.504-1.339,2.393-1.339
						c0.894,0,1.736,0.474,2.397,1.339c0.652,0.865,1.083,2.107,1.083,3.498c0.005,0.62-0.245,1.994-0.636,3.594
						c-0.584,2.418-1.471,5.424-2.209,7.816c-0.367,1.199-0.697,2.244-0.938,2.99c-0.237,0.748-0.385,1.194-0.385,1.194l0.688,0.229
						l0.688-0.229c0,0-0.258-0.792-0.653-2.034c-0.588-1.86-1.472-4.723-2.209-7.4c-0.366-1.337-0.698-2.625-0.93-3.718
						c-0.237-1.081-0.376-1.982-0.374-2.442H89.973h-0.725c0.005,0.91,0.277,2.281,0.676,3.935
						c1.195,4.935,3.562,12.104,3.563,12.114l0.688,2.092l0.688-2.092c0.002-0.004,1.055-3.2,2.112-6.782
						c0.526-1.796,1.054-3.687,1.453-5.332c0.396-1.653,0.672-3.024,0.676-3.935c0-1.686-0.509-3.222-1.379-4.369
						c-0.859-1.146-2.119-1.916-3.551-1.916c-1.426,0-2.688,0.77-3.55,1.916c-0.866,1.147-1.376,2.684-1.376,4.369H89.973z"/>
				</g>
			</g>
		</g>
		<circle fill="#6DA468" cx="167.843" cy="41.254" r="4.641"/>
		<circle fill="#6DA468" cx="87.036" cy="41.254" r="4.64"/>
		<path fill="#A5C568" d="M231.149,257.548c0,6.117-4.951,11.072-11.064,11.072s-11.066-4.955-11.066-11.072
			c0-6.109,4.953-11.064,11.066-11.064S231.149,251.438,231.149,257.548z"/>
		<g>
			<polygon fill="#4B403E" points="35.784,174.818 41.399,184.78 46.071,182.394 41.599,171.865 			"/>
			<path fill="#CDC184" d="M30.403,178.319l6.772,9.211c1.43-0.948,2.69-2.125,4.336-2.807l-5.589-9.976
				C33.934,175.62,32.22,177.081,30.403,178.319z"/>
			<path fill="#4B403E" d="M25.319,182.586l7.953,8.22c1.135-1.257,2.431-2.354,3.903-3.275l-6.772-9.211
				C28.547,179.519,26.857,180.946,25.319,182.586z"/>
			<path fill="#CDC184" d="M20.939,187.438l9.029,7.012c0.883-1.439,2.198-2.538,3.391-3.728l-7.926-8.244
				C23.849,184.048,22.174,185.538,20.939,187.438z"/>
			<path fill="#4B403E" d="M17.209,193.027l9.975,5.591c0.63-1.574,1.865-2.774,2.785-4.169l-9.029-7.012
				C19.665,189.282,18.117,190.957,17.209,193.027z"/>
			<path fill="#CDC184" d="M14.41,198.965l10.679,4.089c0.445-1.641,1.471-3.012,2.147-4.54l-9.957-5.623
				C16.323,194.915,15.048,196.819,14.41,198.965z"/>
			<path fill="#4B403E" d="M12.462,205.366l11.155,2.523c0.273-1.684,1.015-3.216,1.472-4.836l-10.679-4.089
				C13.758,201.096,12.851,203.183,12.462,205.366z"/>
			<path fill="#CDC184" d="M11.437,211.775l11.387,1.038c0.147-1.704,0.57-3.358,0.813-5.043l-11.146-2.56
				C12.133,207.395,11.627,209.579,11.437,211.775z"/>
			<path fill="#4B403E" d="M11.237,218.366l11.429-0.389c-0.006-1.726,0.126-3.44,0.157-5.164l-11.387-1.038
				C11.359,213.973,11.216,216.178,11.237,218.366z"/>
			<polygon fill="#CDC184" points="11.811,224.732 23.123,223.052 22.652,217.853 11.225,218.211 			"/>
			<polygon fill="#4B403E" points="13.138,231.094 24.202,228.206 23.123,223.052 11.811,224.732 			"/>
			<path fill="#CDC184" d="M15.06,237.099l10.724-3.967c-0.517-1.689-1.21-3.335-1.605-5.046l-11.074,2.854
				C13.604,233.046,14.41,235.047,15.06,237.099z"/>
			<path fill="#4B403E" d="M17.609,243.014l10.282-5.004c-0.678-1.637-1.635-3.17-2.108-4.878l-10.724,3.967
				C15.672,239.18,16.767,241.042,17.609,243.014z"/>
			<path fill="#CDC184" d="M20.627,248.51l9.769-5.944c-0.914-1.523-1.892-3.017-2.557-4.671l-10.294,4.982
				C18.372,244.866,19.525,246.675,20.627,248.51z"/>
			<path fill="#4B403E" d="M24.217,253.829l9.165-6.841c-1.133-1.38-2.127-2.851-2.986-4.423l-9.769,5.944
				C21.673,250.387,22.868,252.157,24.217,253.829z"/>
			<path fill="#CDC184" d="M28.183,258.678l8.494-7.654c-1.296-1.229-2.278-2.733-3.371-4.137l-9.178,6.822
				C25.436,255.4,26.643,257.181,28.183,258.678z"/>
			<path fill="#4B403E" d="M32.687,263.257l7.726-8.432c-1.374-1.126-2.476-2.548-3.735-3.802l-8.494,7.654
				C29.688,260.201,31.04,261.882,32.687,263.257z"/>
			<polygon fill="#CDC184" points="37.488,267.32 44.376,258.191 40.315,254.743 32.572,263.159 			"/>
		</g>
		<path fill="#A5C568" d="M38.778,191.037c0,3.565,2.892,6.459,6.459,6.459l0,0c3.565,0,6.459-2.894,6.459-6.459v-26.354
			c0-3.568-2.894-6.458-6.459-6.458l0,0c-3.567,0-6.459,2.89-6.459,6.458V191.037z"/>
		<path fill="#A5C568" d="M28.233,262.329c0,6.119,4.955,11.072,11.066,11.072s11.066-4.953,11.066-11.072
			c0-6.11-4.955-11.064-11.066-11.064S28.233,256.219,28.233,262.329z"/>
		<g>
			<path fill="#A5C568" d="M105.705,87.948c-9.455-2.327-35.754-7.872-42.027,3.166c-4.353,7.657,2.838,29.129,11.038,32.324
				c12.472,4.854,28.967,2.919,37.356-8.104C121.21,103.327,121.792,91.912,105.705,87.948z"/>
			<path fill="#A5C568" d="M146.795,88.531c-15.546,3.829-14.985,14.856-6.157,26.464c8.11,10.651,24.048,12.523,36.104,7.832
				c7.93-3.09,14.874-23.838,10.668-31.237C181.345,80.919,155.93,86.282,146.795,88.531z"/>
			<g>
				<path fill="#F2E8E1" d="M107.533,103.897c0,6.637-5.385,12.025-12.025,12.025c-6.642,0-12.024-5.389-12.024-12.025
					c0-6.645,5.383-12.025,12.024-12.025C102.148,91.872,107.533,97.253,107.533,103.897z"/>
				<path fill="#DC6663" d="M104.166,103.897c0,4.779-3.879,8.654-8.658,8.654c-4.78,0-8.656-3.875-8.656-8.654
					c0-4.785,3.876-8.662,8.656-8.662C100.287,95.235,104.166,99.112,104.166,103.897z"/>
				<path fill="#4B403E" d="M98.994,103.897c0,1.922-1.561,3.486-3.486,3.486c-1.927,0-3.485-1.564-3.485-3.486
					c0-1.93,1.559-3.488,3.485-3.488C97.434,100.409,98.994,101.968,98.994,103.897z"/>
			</g>
			<g>
				<path fill="#F2E8E1" d="M169.963,103.897c0,6.637-5.386,12.025-12.026,12.025c-6.638,0-12.025-5.389-12.025-12.025
					c0-6.645,5.388-12.025,12.025-12.025C164.577,91.872,169.963,97.253,169.963,103.897z"/>
				<path fill="#DC6663" d="M166.596,103.897c0,4.779-3.878,8.654-8.659,8.654s-8.657-3.875-8.657-8.654
					c0-4.785,3.876-8.662,8.657-8.662S166.596,99.112,166.596,103.897z"/>
				<path fill="#4B403E" d="M161.426,103.897c0,1.922-1.564,3.486-3.489,3.486c-1.926,0-3.486-1.564-3.486-3.486
					c0-1.93,1.561-3.488,3.486-3.488C159.861,100.409,161.426,101.968,161.426,103.897z"/>
			</g>
			<path fill="#FFFFFF" d="M160.671,102.22c0,1.156,0.939,2.095,2.098,2.095c1.154,0,2.092-0.938,2.092-2.095
				c0-1.158-0.938-2.089-2.092-2.089C161.61,100.131,160.671,101.062,160.671,102.22z"/>
			<path fill="#FFFFFF" d="M95.006,102.22c0,1.156,0.938,2.095,2.092,2.095c1.159,0,2.094-0.938,2.094-2.095
				c0-1.158-0.935-2.089-2.094-2.089C95.944,100.131,95.006,101.062,95.006,102.22z"/>
			<g>
				<path fill="#4B403E" d="M138.988,86.513c-4.653,1.604-10.413,1.87-12.709,1.905c-2.296-0.035-8.091-0.302-12.739-1.905
					c-8.865-3.056-23.118-4.982-33.994-4.713c-10.876,0.271-22.283,2.219-25.729,3.487l2.082,9.247c0,0,3.041-0.242,3.794,1.861
					c0.93,2.585,5.974,17.977,8.703,23.662c2.239,4.653,8.3,8.641,22.39,8.697c20.051,0.084,26.998-13.626,30.186-22.479
					c0.339-0.934,0.838-2.703,1.295-4.422c0.657-2.459,2.095-4.885,2.744-5.229c0.385-0.205,0.829-0.367,1.269-0.367
					c0.437,0,0.884,0.162,1.268,0.367c0.651,0.344,2.059,2.77,2.717,5.229c0.458,1.719,0.96,3.488,1.295,4.422
					c3.187,8.853,10.13,22.563,30.185,22.479c14.092-0.057,20.151-4.044,22.388-8.697c2.73-5.686,7.775-21.077,8.705-23.662
					c0.755-2.104,3.794-1.861,3.794-1.861l2.085-9.247c-3.442-1.269-14.856-3.216-25.734-3.487
					C162.104,81.53,147.857,83.457,138.988,86.513z M110.977,114.728c-7.685,10.098-22.795,11.871-34.214,7.424
					c-7.514-2.928-14.1-22.592-10.113-29.607c5.747-10.107,29.835-5.03,38.495-2.896
					C119.878,93.277,119.348,103.733,110.977,114.728z M185.878,92.544c3.986,7.016-2.595,26.68-10.111,29.607
					c-11.422,4.447-26.531,2.674-34.215-7.424c-8.371-10.994-8.902-21.45,5.833-25.08C156.045,87.514,180.13,82.437,185.878,92.544z
					"/>
			</g>
		</g>
	</g>
</g>
<g id="Layer_2" display="none">
</g>
</svg>
