<?xml version="1.0" encoding="utf-8"?>
<!-- Generator: Adobe Illustrator 16.0.0, SVG Export Plug-In . SVG Version: 6.00 Build 0)  -->
<!DOCTYPE svg PUBLIC "-//W3C//DTD SVG 1.1//EN" "http://www.w3.org/Graphics/SVG/1.1/DTD/svg11.dtd">
<svg version="1.1" id="Layer_1" xmlns="http://www.w3.org/2000/svg" xmlns:xlink="http://www.w3.org/1999/xlink" x="0px" y="0px"
	 width="500px" height="500px" viewBox="0 0 500 500" enable-background="new 0 0 500 500" xml:space="preserve">
<circle fill="#4296D2" cx="249.774" cy="249.249" r="240"/>
<g id="iPhone_1_">
	<path fill="#F3F2EF" d="M349.36,412.018c0,16.174-12.691,29.037-28.865,29.037H180.226c-16.174,0-28.866-12.863-28.866-29.037
		V87.091c0-16.181,12.692-29.036,28.866-29.036h140.269c16.174,0,28.865,12.855,28.865,29.036V412.018z"/>
	<rect x="165.36" y="100.055" fill="#2B2C2B" width="170" height="284"/>
	<g>
		<path fill="#6D6D6D" d="M285.872,72.055h-56.818c-3.926,0-7.102,3.074-7.102,7s3.176,7,7.102,7h56.818
			c3.926,0,7.102-3.074,7.102-7S289.797,72.055,285.872,72.055z"/>
		<path fill="#6D6D6D" d="M200.644,71.998c-3.926,0-7.102,3.178-7.102,7.104s3.176,7.102,7.102,7.102s7.104-3.176,7.104-7.102
			S204.569,71.998,200.644,71.998z"/>
	</g>
	<path fill="#6D6D6D" d="M264.565,412.907c0,7.852-6.354,14.203-14.205,14.203c-7.852,0-14.205-6.352-14.205-14.203
		s6.354-14.205,14.205-14.205C258.211,398.702,264.565,405.055,264.565,412.907z"/>
	<polygon opacity="0.1" fill="#F3F2EF" points="335.36,384.055 335.36,185.634 165.36,356.088 165.36,384.055 	"/>
</g>
</svg>
