<?xml version="1.0" encoding="utf-8"?>
<!-- Generator: Adobe Illustrator 16.0.0, SVG Export Plug-In . SVG Version: 6.00 Build 0)  -->
<!DOCTYPE svg PUBLIC "-//W3C//DTD SVG 1.1//EN" "http://www.w3.org/Graphics/SVG/1.1/DTD/svg11.dtd">
<svg version="1.1" id="Layer_1" xmlns="http://www.w3.org/2000/svg" xmlns:xlink="http://www.w3.org/1999/xlink" x="0px" y="0px"
	 width="500px" height="500px" viewBox="0 0 500 500" enable-background="new 0 0 500 500" xml:space="preserve">
<circle fill="#2D3E50" cx="249.774" cy="249.249" r="240"/>
<g>
	<path fill="#A3A3A2" d="M394.889,87.222c0-10.034-8.134-18.167-18.167-18.167H123.056c-10.033,0-18.167,8.134-18.167,18.167
		v199.665c0,10.034,8.134,18.168,18.167,18.168h253.666c10.033,0,18.167-8.134,18.167-18.168V87.222z"/>
	<rect x="195.889" y="305.055" fill="#A3A3A2" width="109" height="27"/>
	<rect x="195.889" y="305.055" opacity="0.2" fill="#010101" width="109" height="9"/>
	<rect x="123.889" y="87.055" fill="#EDEFEF" width="254" height="172"/>
	<polygon opacity="0.1" fill="#272626" points="359.862,87.055 187.272,259.055 377.889,259.055 377.889,87.055 	"/>
	<path fill="#A3A3A2" d="M323.528,331.055H178.189c-10.034,0-18.168,8-18.168,18h181.674
		C341.695,339.055,333.561,331.055,323.528,331.055z"/>
	<path fill="#A3A3A2" d="M395.564,414.174c0,9.86-7.993,17.854-17.854,17.854H123.379c-9.859,0-17.854-7.993-17.854-17.854v-44.765
		c0-9.859,7.994-17.854,17.854-17.854h254.332c9.86,0,17.854,7.994,17.854,17.854V414.174z"/>
	<path fill="#F3F2EF" d="M120.556,372.267c0,2.879,2.333,5.212,5.212,5.212h119.909c2.879,0,5.212-2.333,5.212-5.212l0,0
		c0-2.879-2.333-5.212-5.212-5.212H125.768C122.889,367.055,120.556,369.388,120.556,372.267L120.556,372.267z"/>
	<g>
		<circle fill="#CDCCCC" cx="146.396" cy="281.869" r="4.542"/>
		<circle fill="#CDCCCC" cx="128.229" cy="281.869" r="4.542"/>
	</g>
	<circle fill="#4296D2" cx="260.396" cy="371.869" r="4.542"/>
	<path fill="#E64D3C" d="M368.395,405.707c-5.063,0-9.162,4.1-9.162,9.162c0,5.065,4.1,9.161,9.162,9.161
		c5.065,0,9.165-4.096,9.165-9.161C377.56,409.807,373.46,405.707,368.395,405.707z"/>
</g>
</svg>
