<?xml version="1.0" encoding="utf-8"?>
<!-- Generator: Adobe Illustrator 16.0.0, SVG Export Plug-In . SVG Version: 6.00 Build 0)  -->
<!DOCTYPE svg PUBLIC "-//W3C//DTD SVG 1.1//EN" "http://www.w3.org/Graphics/SVG/1.1/DTD/svg11.dtd">
<svg version="1.1" id="Layer_1" xmlns="http://www.w3.org/2000/svg" xmlns:xlink="http://www.w3.org/1999/xlink" x="0px" y="0px"
	 width="500.001px" height="500px" viewBox="0 0 500.001 500" enable-background="new 0 0 500.001 500" xml:space="preserve">
<circle fill="#4296D2" cx="249.774" cy="249.249" r="240"/>
<g id="iPhone_2_">
	<path fill="#EDEFEF" d="M412.591,151.055c16.174,0,28.537,11.959,28.537,28.133v140.27c0,16.174-12.363,29.598-28.537,29.598
		H87.664c-16.181,0-29.536-13.424-29.536-29.598v-140.27c0-16.174,13.355-28.133,29.536-28.133H412.591z"/>
	<rect x="100.128" y="165.055" fill="#7162A9" width="284" height="170"/>
	<g>
		<path fill="#6D6D6D" d="M72.128,213.812v56.818c0,3.926,3.074,7.102,7,7.102s7-3.176,7-7.102v-56.818c0-3.926-3.074-7.102-7-7.102
			S72.128,209.886,72.128,213.812z"/>
		<path fill="#6D6D6D" d="M72.571,299.04c0,3.926,3.178,7.102,7.104,7.102s7.102-3.176,7.102-7.102s-3.176-7.104-7.102-7.104
			S72.571,295.114,72.571,299.04z"/>
	</g>
	<g>
		<path fill="#EDEFEF" d="M308.519,186.392h-137.22v0.124c-33.602,1.979-60.243,29.846-60.243,63.944
			c0,35.384,28.685,64.068,64.068,64.068c20.392,0,38.545-9.539,50.277-24.385h32.839c11.733,14.846,29.887,24.385,50.278,24.385
			c35.384,0,64.067-28.684,64.067-64.068C372.586,215.077,343.902,186.392,308.519,186.392z"/>
		<circle fill="#F3F0EF" cx="310.728" cy="250.46" r="43.927"/>
		<g>
			<g>
				<path fill="#E34C3B" d="M299.286,250.483c0,6.216-5.039,11.259-11.261,11.259c-6.217,0-11.259-5.043-11.259-11.259
					c0-6.217,5.042-11.258,11.259-11.258C294.247,239.226,299.286,244.267,299.286,250.483z"/>
				<path fill="#6BC072" d="M344.325,250.483c0,6.216-5.043,11.259-11.259,11.259c-6.221,0-11.262-5.043-11.262-11.259
					c0-6.217,5.041-11.258,11.262-11.258C339.282,239.226,344.325,244.267,344.325,250.483z"/>
			</g>
			<g>
				<path fill="#E27F26" d="M321.805,224.499c0,6.219-5.04,11.262-11.259,11.262c-6.217,0-11.26-5.043-11.26-11.262
					c0-6.217,5.043-11.26,11.26-11.26C316.765,213.239,321.805,218.282,321.805,224.499z"/>
				<circle fill="#3181BA" cx="310.545" cy="276.42" r="11.259"/>
			</g>
		</g>
		<g>
			<path fill="#6D6D6D" d="M201.799,245.31h-21.228v-21.229c0-1.891-1.663-3.373-3.785-3.373h-3.924
				c-2.122,0-3.784,1.482-3.784,3.373v21.229h-21.227c-1.894,0-3.372,1.662-3.372,3.785v3.919c0,2.123,1.479,3.785,3.372,3.785
				h21.227v21.229c0,1.891,1.662,3.371,3.784,3.371h3.924c2.122,0,3.785-1.48,3.785-3.371v-21.229h21.228
				c1.891,0,3.373-1.662,3.373-3.785v-3.919C205.172,246.972,203.689,245.31,201.799,245.31z"/>
		</g>
	</g>
	<path fill="#6D6D6D" d="M413.479,235.118c7.852,0,14.203,6.354,14.203,14.205c0,7.851-6.352,14.205-14.203,14.205
		s-14.205-6.354-14.205-14.205C399.274,241.472,405.628,235.118,413.479,235.118z"/>
	<polygon opacity="0.1" fill="#272626" points="116.795,335.055 384.128,335.055 384.128,178.555 	"/>
</g>
</svg>
