<?xml version="1.0" encoding="utf-8"?>
<!-- Generator: Adobe Illustrator 16.0.0, SVG Export Plug-In . SVG Version: 6.00 Build 0)  -->
<!DOCTYPE svg PUBLIC "-//W3C//DTD SVG 1.1//EN" "http://www.w3.org/Graphics/SVG/1.1/DTD/svg11.dtd">
<svg version="1.1" xmlns="http://www.w3.org/2000/svg" xmlns:xlink="http://www.w3.org/1999/xlink" x="0px" y="0px" width="200px"
	 height="130px" viewBox="0 0 200 130" enable-background="new 0 0 200 130" xml:space="preserve">
<g id="Layer_1">
	<rect x="9.813" y="8.606" fill="#2882A5" width="180.806" height="112.787"/>
	<g>
		<g>
			<path fill="#FFFFFF" d="M28.29,17.167v6.929c0,1.221-0.369,2.181-1.106,2.879s-1.75,1.047-3.04,1.047s-2.287-0.352-2.992-1.055
				c-0.706-0.703-1.059-1.67-1.059-2.9v-6.899h1.245v6.987c0,0.894,0.244,1.58,0.732,2.059s1.206,0.717,2.153,0.717
				c0.903,0,1.599-0.24,2.087-0.721c0.488-0.481,0.732-1.171,0.732-2.069v-6.973H28.29z"/>
			<path fill="#FFFFFF" d="M31.124,27.875V17.167h1.245v10.708H31.124z"/>
			<path fill="#FFFFFF" d="M39.188,17.167l-3.992,10.708H33.98l3.992-10.708H39.188z"/>
			<path fill="#FFFFFF" d="M48.9,17.167v6.929c0,1.221-0.369,2.181-1.106,2.879s-1.75,1.047-3.04,1.047s-2.287-0.352-2.992-1.055
				c-0.706-0.703-1.059-1.67-1.059-2.9v-6.899h1.245v6.987c0,0.894,0.244,1.58,0.732,2.059s1.206,0.717,2.153,0.717
				c0.903,0,1.599-0.24,2.087-0.721c0.488-0.481,0.732-1.171,0.732-2.069v-6.973H48.9z"/>
			<path fill="#FFFFFF" d="M58.861,27.875h-1.414l-2.878-4.709l-2.93,4.709h-1.318l3.56-5.596l-3.318-5.112h1.377l2.659,4.241
				l2.681-4.241h1.326l-3.318,5.068L58.861,27.875z"/>
		</g>
	</g>
	<g>
		<circle fill="none" stroke="#FFFFFF" stroke-miterlimit="10" cx="148.163" cy="80.27" r="30.509"/>
		<g>
			<defs>
				<path id="XMLID_4_" d="M166.463,96.455c0,1.169-0.946,2.116-2.114,2.116h-32.372c-1.168,0-2.114-0.947-2.114-2.116V64.084
					c0-1.169,0.946-2.116,2.114-2.116h32.372c1.168,0,2.114,0.947,2.114,2.116V96.455z"/>
			</defs>
			<clipPath id="XMLID_13_">
				<use xlink:href="#XMLID_4_"  overflow="visible"/>
			</clipPath>
			<g opacity="0.7" clip-path="url(#XMLID_13_)">
				
					<rect x="129.862" y="61.971" fill="none" stroke="#FFFFFF" stroke-width="0.295" stroke-miterlimit="10" width="36.601" height="36.601"/>
				
					<line fill="none" stroke="#FFFFFF" stroke-width="0.295" stroke-miterlimit="10" x1="129.862" y1="92.468" x2="166.463" y2="92.468"/>
				
					<line fill="none" stroke="#FFFFFF" stroke-width="0.295" stroke-miterlimit="10" x1="129.862" y1="86.372" x2="166.463" y2="86.372"/>
				
					<line fill="none" stroke="#FFFFFF" stroke-width="0.295" stroke-miterlimit="10" x1="129.862" y1="80.27" x2="166.463" y2="80.27"/>
				
					<line fill="none" stroke="#FFFFFF" stroke-width="0.295" stroke-miterlimit="10" x1="129.862" y1="74.167" x2="166.463" y2="74.167"/>
				
					<line fill="none" stroke="#FFFFFF" stroke-width="0.295" stroke-miterlimit="10" x1="129.862" y1="68.073" x2="166.463" y2="68.073"/>
				
					<line fill="none" stroke="#FFFFFF" stroke-width="0.295" stroke-miterlimit="10" x1="160.36" y1="61.971" x2="160.36" y2="98.571"/>
				
					<line fill="none" stroke="#FFFFFF" stroke-width="0.295" stroke-miterlimit="10" x1="154.266" y1="61.971" x2="154.266" y2="98.571"/>
				
					<line fill="none" stroke="#FFFFFF" stroke-width="0.295" stroke-miterlimit="10" x1="148.162" y1="61.971" x2="148.162" y2="98.571"/>
				
					<line fill="none" stroke="#FFFFFF" stroke-width="0.295" stroke-miterlimit="10" x1="142.059" y1="61.971" x2="142.059" y2="98.571"/>
				
					<line fill="none" stroke="#FFFFFF" stroke-width="0.295" stroke-miterlimit="10" x1="135.965" y1="61.971" x2="135.965" y2="98.571"/>
			</g>
			<use xlink:href="#XMLID_4_"  overflow="visible" fill="none" stroke="#FFFFFF" stroke-miterlimit="10"/>
		</g>
		<g>
			<g>
				<line fill="none" stroke="#FFFFFF" stroke-miterlimit="10" x1="134.124" y1="94.309" x2="162.202" y2="66.23"/>
				<g>
					<polygon fill="#FFFFFF" points="135.946,95.306 132.094,96.338 133.126,92.485 					"/>
				</g>
				<g>
					<polygon fill="#FFFFFF" points="163.199,68.054 164.231,64.201 160.379,65.233 					"/>
				</g>
			</g>
		</g>
		<g>
			<g>
				<line fill="none" stroke="#FFFFFF" stroke-miterlimit="10" x1="134.124" y1="66.23" x2="162.202" y2="94.309"/>
				<g>
					<polygon fill="#FFFFFF" points="133.126,68.054 132.094,64.201 135.946,65.233 					"/>
				</g>
				<g>
					<polygon fill="#FFFFFF" points="160.379,95.306 164.231,96.338 163.199,92.485 					"/>
				</g>
			</g>
		</g>
	</g>
	<g>
		<g>
			<path fill="#FFFFFF" d="M28.134,53.654l-2.277-6.559h-0.043c0.061,0.975,0.091,1.887,0.091,2.739v3.819H24.74v-7.854h1.81
				l2.181,6.247h0.032l2.245-6.247h1.815v7.854h-1.235v-3.884c0-0.39,0.01-0.899,0.029-1.525c0.02-0.626,0.037-1.007,0.051-1.139
				h-0.043l-2.358,6.548H28.134z"/>
			<path fill="#FFFFFF" d="M40.14,50.673c0,0.97-0.249,1.728-0.747,2.272c-0.498,0.544-1.19,0.816-2.079,0.816
				c-0.555,0-1.045-0.126-1.472-0.377c-0.426-0.25-0.754-0.609-0.983-1.079s-0.344-1.013-0.344-1.633
				c0-0.964,0.247-1.716,0.741-2.256s1.19-0.812,2.089-0.812c0.859,0,1.54,0.277,2.041,0.83S40.14,49.734,40.14,50.673z
				 M35.816,50.673c0,1.372,0.507,2.058,1.52,2.058c1.002,0,1.504-0.686,1.504-2.058c0-1.356-0.505-2.036-1.515-2.036
				c-0.53,0-0.914,0.176-1.152,0.527C35.936,49.515,35.816,50.018,35.816,50.673z"/>
			<path fill="#FFFFFF" d="M44.739,47.605c0.741,0,1.319,0.27,1.732,0.807c0.414,0.537,0.621,1.291,0.621,2.261
				c0,0.974-0.209,1.731-0.628,2.274s-1.001,0.814-1.746,0.814c-0.752,0-1.335-0.271-1.751-0.812h-0.086l-0.231,0.704h-0.945v-8.357
				h1.262v1.986c0,0.147-0.007,0.365-0.021,0.656c-0.014,0.289-0.025,0.475-0.032,0.553h0.054
				C43.368,47.901,43.958,47.605,44.739,47.605z M44.412,48.637c-0.508,0-0.875,0.15-1.099,0.449
				c-0.224,0.299-0.339,0.799-0.346,1.501v0.086c0,0.724,0.115,1.247,0.344,1.571s0.604,0.486,1.123,0.486
				c0.448,0,0.787-0.178,1.018-0.532c0.231-0.354,0.347-0.866,0.347-1.536C45.797,49.313,45.335,48.637,44.412,48.637z"/>
			<path fill="#FFFFFF" d="M48.597,46.14c0-0.226,0.062-0.399,0.186-0.521c0.123-0.122,0.3-0.184,0.529-0.184
				c0.222,0,0.395,0.062,0.518,0.184c0.124,0.121,0.186,0.295,0.186,0.521c0,0.215-0.062,0.384-0.186,0.507
				c-0.123,0.125-0.296,0.186-0.518,0.186c-0.229,0-0.406-0.061-0.529-0.186C48.659,46.523,48.597,46.354,48.597,46.14z
				 M49.935,53.654h-1.262v-5.941h1.262V53.654z"/>
			<path fill="#FFFFFF" d="M53.116,53.654h-1.262v-8.357h1.262V53.654z"/>
			<path fill="#FFFFFF" d="M57.629,53.762c-0.924,0-1.646-0.27-2.167-0.809c-0.521-0.539-0.781-1.281-0.781-2.227
				c0-0.971,0.242-1.732,0.725-2.288s1.147-0.833,1.993-0.833c0.784,0,1.404,0.238,1.858,0.715s0.682,1.131,0.682,1.966v0.683H55.98
				c0.018,0.576,0.174,1.02,0.467,1.328c0.293,0.311,0.707,0.465,1.241,0.465c0.351,0,0.678-0.033,0.98-0.1
				c0.302-0.065,0.627-0.176,0.975-0.33v1.026c-0.308,0.147-0.62,0.251-0.935,0.312S58.034,53.762,57.629,53.762z M57.398,48.563
				c-0.401,0-0.723,0.127-0.964,0.381c-0.242,0.254-0.386,0.625-0.433,1.111h2.696c-0.007-0.49-0.125-0.861-0.354-1.113
				C58.114,48.688,57.799,48.563,57.398,48.563z"/>
			<path fill="#FFFFFF" d="M69.236,53.654l-0.784-2.182h-3.002l-0.768,2.182h-1.354l2.938-7.885h1.396l2.938,7.885H69.236z
				 M68.113,50.367l-0.736-2.139c-0.054-0.143-0.128-0.368-0.223-0.676c-0.095-0.309-0.161-0.534-0.196-0.678
				c-0.097,0.441-0.238,0.922-0.424,1.445l-0.709,2.047H68.113z"/>
			<path fill="#FFFFFF" d="M74.63,53.762c-0.752,0-1.335-0.271-1.751-0.812h-0.075c0.05,0.501,0.075,0.806,0.075,0.913v2.434h-1.262
				v-8.584h1.021c0.029,0.111,0.088,0.377,0.177,0.795h0.064c0.394-0.602,0.985-0.902,1.772-0.902c0.741,0,1.319,0.27,1.732,0.807
				c0.414,0.537,0.621,1.291,0.621,2.261s-0.21,1.728-0.631,2.272C75.952,53.489,75.371,53.762,74.63,53.762z M74.324,48.637
				c-0.501,0-0.867,0.147-1.099,0.441c-0.23,0.293-0.346,0.762-0.346,1.406v0.188c0,0.724,0.115,1.247,0.344,1.571
				s0.604,0.486,1.123,0.486c0.437,0,0.773-0.18,1.01-0.537c0.236-0.358,0.354-0.869,0.354-1.531c0-0.666-0.117-1.17-0.352-1.512
				C75.123,48.809,74.778,48.637,74.324,48.637z"/>
			<path fill="#FFFFFF" d="M81.598,53.762c-0.752,0-1.335-0.271-1.751-0.812h-0.075c0.05,0.501,0.075,0.806,0.075,0.913v2.434
				h-1.262v-8.584h1.021c0.029,0.111,0.088,0.377,0.177,0.795h0.064c0.394-0.602,0.985-0.902,1.772-0.902
				c0.741,0,1.319,0.27,1.732,0.807c0.414,0.537,0.621,1.291,0.621,2.261s-0.21,1.728-0.631,2.272
				C82.92,53.489,82.339,53.762,81.598,53.762z M81.292,48.637c-0.501,0-0.867,0.147-1.099,0.441
				c-0.23,0.293-0.346,0.762-0.346,1.406v0.188c0,0.724,0.115,1.247,0.344,1.571s0.604,0.486,1.123,0.486
				c0.437,0,0.773-0.18,1.01-0.537c0.236-0.358,0.354-0.869,0.354-1.531c0-0.666-0.117-1.17-0.352-1.512
				C82.091,48.809,81.747,48.637,81.292,48.637z"/>
			<path fill="#FFFFFF" d="M31.126,64.652c0,1.297-0.36,2.287-1.08,2.973s-1.756,1.029-3.11,1.029H24.74v-7.854h2.428
				c1.25,0,2.222,0.337,2.917,1.01C30.779,62.484,31.126,63.432,31.126,64.652z M29.772,64.695c0-1.88-0.879-2.82-2.637-2.82h-1.112
				v5.699h0.913C28.827,67.574,29.772,66.615,29.772,64.695z"/>
			<path fill="#FFFFFF" d="M35.387,68.762c-0.924,0-1.646-0.27-2.167-0.809c-0.521-0.539-0.781-1.281-0.781-2.227
				c0-0.971,0.242-1.732,0.725-2.288s1.147-0.833,1.993-0.833c0.784,0,1.404,0.238,1.858,0.715s0.682,1.131,0.682,1.966v0.683
				h-3.958c0.018,0.576,0.174,1.02,0.467,1.328c0.293,0.311,0.707,0.465,1.241,0.465c0.351,0,0.678-0.033,0.98-0.1
				c0.302-0.065,0.627-0.176,0.975-0.33v1.026c-0.308,0.147-0.62,0.251-0.935,0.312S35.792,68.762,35.387,68.762z M35.156,63.563
				c-0.401,0-0.723,0.127-0.964,0.381c-0.242,0.254-0.386,0.625-0.433,1.111h2.696c-0.007-0.49-0.125-0.861-0.354-1.113
				C35.872,63.688,35.557,63.563,35.156,63.563z"/>
			<path fill="#FFFFFF" d="M43.235,66.962c0,0.58-0.211,1.024-0.634,1.335c-0.422,0.31-1.028,0.465-1.815,0.465
				c-0.792,0-1.427-0.121-1.907-0.36v-1.091c0.698,0.322,1.348,0.484,1.95,0.484c0.777,0,1.166-0.234,1.166-0.704
				c0-0.15-0.043-0.276-0.129-0.376s-0.228-0.204-0.424-0.312s-0.471-0.229-0.822-0.365c-0.684-0.265-1.146-0.53-1.389-0.795
				c-0.241-0.265-0.362-0.608-0.362-1.031c0-0.509,0.205-0.903,0.615-1.185c0.41-0.281,0.967-0.422,1.673-0.422
				c0.698,0,1.359,0.143,1.982,0.425l-0.408,0.95c-0.641-0.265-1.18-0.396-1.617-0.396c-0.666,0-0.999,0.189-0.999,0.568
				c0,0.187,0.087,0.344,0.261,0.473c0.173,0.129,0.552,0.307,1.136,0.532c0.491,0.19,0.847,0.363,1.069,0.521
				c0.222,0.158,0.387,0.34,0.494,0.545C43.182,66.43,43.235,66.676,43.235,66.962z"/>
			<path fill="#FFFFFF" d="M44.639,61.14c0-0.226,0.062-0.399,0.186-0.521c0.123-0.122,0.3-0.184,0.529-0.184
				c0.222,0,0.395,0.062,0.518,0.184c0.124,0.121,0.186,0.295,0.186,0.521c0,0.215-0.062,0.384-0.186,0.507
				c-0.123,0.125-0.296,0.186-0.518,0.186c-0.229,0-0.406-0.061-0.529-0.186C44.7,61.523,44.639,61.354,44.639,61.14z
				 M45.976,68.654h-1.262v-5.941h1.262V68.654z"/>
			<path fill="#FFFFFF" d="M52.912,62.713v0.693l-1.015,0.188c0.093,0.126,0.17,0.279,0.231,0.463
				c0.061,0.182,0.091,0.375,0.091,0.58c0,0.611-0.211,1.094-0.634,1.444s-1.004,0.526-1.746,0.526c-0.19,0-0.362-0.014-0.516-0.043
				c-0.272,0.168-0.408,0.365-0.408,0.591c0,0.136,0.063,0.238,0.19,0.306c0.127,0.068,0.361,0.103,0.701,0.103h1.037
				c0.655,0,1.153,0.14,1.493,0.419s0.51,0.682,0.51,1.209c0,0.673-0.277,1.191-0.833,1.557s-1.357,0.549-2.406,0.549
				c-0.809,0-1.427-0.144-1.853-0.43c-0.426-0.287-0.639-0.695-0.639-1.225c0-0.365,0.116-0.673,0.346-0.922
				c0.231-0.248,0.554-0.422,0.97-0.518c-0.168-0.072-0.307-0.188-0.416-0.348c-0.109-0.158-0.164-0.326-0.164-0.502
				c0-0.222,0.063-0.41,0.188-0.563s0.312-0.306,0.559-0.456c-0.308-0.133-0.558-0.349-0.75-0.648
				c-0.191-0.299-0.287-0.648-0.287-1.049c0-0.645,0.203-1.145,0.609-1.499c0.407-0.354,0.986-0.532,1.738-0.532
				c0.168,0,0.345,0.012,0.529,0.035c0.185,0.023,0.323,0.048,0.417,0.072H52.912z M48.244,69.578c0,0.271,0.123,0.48,0.368,0.628
				c0.246,0.147,0.59,0.22,1.034,0.22c0.688,0,1.2-0.098,1.536-0.295s0.505-0.459,0.505-0.784c0-0.258-0.092-0.441-0.276-0.55
				c-0.185-0.109-0.527-0.164-1.029-0.164h-0.956c-0.362,0-0.649,0.084-0.862,0.254C48.351,69.058,48.244,69.287,48.244,69.578z
				 M48.787,64.637c0,0.372,0.096,0.658,0.287,0.859c0.192,0.2,0.467,0.301,0.825,0.301c0.73,0,1.096-0.391,1.096-1.172
				c0-0.387-0.09-0.684-0.271-0.895c-0.181-0.209-0.456-0.313-0.825-0.313c-0.365,0-0.642,0.104-0.83,0.312
				C48.88,63.936,48.787,64.238,48.787,64.637z"/>
			<path fill="#FFFFFF" d="M59.353,68.654h-1.268v-3.652c0-0.459-0.092-0.801-0.277-1.026c-0.184-0.226-0.477-0.339-0.878-0.339
				c-0.534,0-0.924,0.158-1.171,0.473c-0.247,0.315-0.371,0.844-0.371,1.585v2.96h-1.262v-5.941h0.988l0.177,0.779h0.064
				c0.179-0.283,0.433-0.502,0.763-0.655s0.695-0.231,1.096-0.231c1.425,0,2.138,0.726,2.138,2.176V68.654z"/>
			<path fill="#FFFFFF" d="M31.985,83.654h-1.396l-1.332-4.684c-0.057-0.205-0.129-0.499-0.215-0.885
				c-0.086-0.385-0.138-0.652-0.156-0.803c-0.036,0.229-0.094,0.527-0.174,0.893c-0.081,0.365-0.148,0.637-0.202,0.816l-1.3,4.662
				h-1.396l-1.015-3.932l-1.031-3.922h1.311l1.123,4.576c0.175,0.734,0.301,1.383,0.376,1.945c0.04-0.305,0.099-0.645,0.177-1.021
				c0.079-0.375,0.15-0.68,0.215-0.912l1.278-4.588h1.273l1.311,4.609c0.125,0.426,0.258,1.063,0.397,1.912
				c0.054-0.513,0.183-1.164,0.387-1.955l1.117-4.566h1.3L31.985,83.654z"/>
			<path fill="#FFFFFF" d="M37.604,83.762c-0.924,0-1.646-0.27-2.167-0.809c-0.521-0.539-0.781-1.281-0.781-2.227
				c0-0.971,0.242-1.732,0.725-2.288s1.147-0.833,1.993-0.833c0.784,0,1.404,0.238,1.858,0.715s0.682,1.131,0.682,1.966v0.683
				h-3.958c0.018,0.576,0.174,1.02,0.467,1.328c0.293,0.311,0.707,0.465,1.241,0.465c0.351,0,0.678-0.033,0.98-0.1
				c0.302-0.065,0.627-0.176,0.975-0.33v1.026c-0.308,0.147-0.62,0.251-0.935,0.312S38.008,83.762,37.604,83.762z M37.373,78.563
				c-0.401,0-0.723,0.127-0.964,0.381c-0.242,0.254-0.386,0.625-0.433,1.111h2.696c-0.007-0.49-0.125-0.861-0.354-1.113
				C38.089,78.688,37.773,78.563,37.373,78.563z"/>
			<path fill="#FFFFFF" d="M44.382,77.605c0.741,0,1.319,0.27,1.732,0.807c0.414,0.537,0.621,1.291,0.621,2.261
				c0,0.974-0.209,1.731-0.628,2.274s-1.001,0.814-1.746,0.814c-0.752,0-1.335-0.271-1.751-0.812h-0.086l-0.231,0.704h-0.945v-8.357
				h1.262v1.986c0,0.147-0.007,0.365-0.021,0.656c-0.014,0.289-0.025,0.475-0.032,0.553h0.054
				C43.01,77.901,43.601,77.605,44.382,77.605z M44.054,78.637c-0.508,0-0.875,0.15-1.099,0.449
				c-0.224,0.299-0.339,0.799-0.346,1.501v0.086c0,0.724,0.115,1.247,0.344,1.571s0.604,0.486,1.123,0.486
				c0.448,0,0.787-0.178,1.018-0.532c0.231-0.354,0.347-0.866,0.347-1.536C45.44,79.313,44.978,78.637,44.054,78.637z"/>
			<path fill="#FFFFFF" d="M57.579,79.652c0,1.297-0.36,2.287-1.08,2.973s-1.756,1.029-3.11,1.029h-2.197v-7.854h2.428
				c1.25,0,2.222,0.337,2.917,1.01C57.231,77.484,57.579,78.432,57.579,79.652z M56.225,79.695c0-1.88-0.879-2.82-2.637-2.82h-1.112
				v5.699h0.913C55.28,82.574,56.225,81.615,56.225,79.695z"/>
			<path fill="#FFFFFF" d="M61.725,83.762c-0.924,0-1.646-0.27-2.167-0.809c-0.521-0.539-0.781-1.281-0.781-2.227
				c0-0.971,0.242-1.732,0.725-2.288s1.147-0.833,1.993-0.833c0.784,0,1.404,0.238,1.858,0.715s0.682,1.131,0.682,1.966v0.683
				h-3.958c0.018,0.576,0.174,1.02,0.467,1.328c0.293,0.311,0.707,0.465,1.241,0.465c0.351,0,0.678-0.033,0.98-0.1
				c0.302-0.065,0.627-0.176,0.975-0.33v1.026c-0.308,0.147-0.62,0.251-0.935,0.312S62.13,83.762,61.725,83.762z M61.494,78.563
				c-0.401,0-0.723,0.127-0.964,0.381c-0.242,0.254-0.386,0.625-0.433,1.111h2.696c-0.007-0.49-0.125-0.861-0.354-1.113
				C62.21,78.688,61.895,78.563,61.494,78.563z"/>
			<path fill="#FFFFFF" d="M69.459,81.962c0,0.58-0.211,1.024-0.634,1.335c-0.422,0.31-1.028,0.465-1.815,0.465
				c-0.792,0-1.427-0.121-1.907-0.36v-1.091c0.698,0.322,1.348,0.484,1.95,0.484c0.777,0,1.166-0.234,1.166-0.704
				c0-0.15-0.043-0.276-0.129-0.376s-0.228-0.204-0.424-0.312s-0.471-0.229-0.822-0.365c-0.684-0.265-1.146-0.53-1.389-0.795
				c-0.241-0.265-0.362-0.608-0.362-1.031c0-0.509,0.205-0.903,0.615-1.185c0.41-0.281,0.967-0.422,1.673-0.422
				c0.698,0,1.359,0.143,1.982,0.425l-0.408,0.95c-0.641-0.265-1.18-0.396-1.617-0.396c-0.666,0-0.999,0.189-0.999,0.568
				c0,0.187,0.087,0.344,0.261,0.473c0.173,0.129,0.552,0.307,1.136,0.532c0.491,0.19,0.847,0.363,1.069,0.521
				c0.222,0.158,0.387,0.34,0.494,0.545C69.406,81.43,69.459,81.676,69.459,81.962z"/>
			<path fill="#FFFFFF" d="M70.749,76.14c0-0.226,0.062-0.399,0.186-0.521c0.123-0.122,0.3-0.184,0.529-0.184
				c0.222,0,0.395,0.062,0.518,0.184c0.124,0.121,0.186,0.295,0.186,0.521c0,0.215-0.062,0.384-0.186,0.507
				c-0.123,0.125-0.296,0.186-0.518,0.186c-0.229,0-0.406-0.061-0.529-0.186C70.81,76.523,70.749,76.354,70.749,76.14z
				 M72.086,83.654h-1.262v-5.941h1.262V83.654z"/>
			<path fill="#FFFFFF" d="M78.907,77.713v0.693l-1.015,0.188c0.093,0.126,0.17,0.279,0.231,0.463
				c0.061,0.182,0.091,0.375,0.091,0.58c0,0.611-0.211,1.094-0.634,1.444s-1.004,0.526-1.746,0.526c-0.19,0-0.362-0.014-0.516-0.043
				c-0.272,0.168-0.408,0.365-0.408,0.591c0,0.136,0.063,0.238,0.19,0.306c0.127,0.068,0.361,0.103,0.701,0.103h1.037
				c0.655,0,1.153,0.14,1.493,0.419s0.51,0.682,0.51,1.209c0,0.673-0.277,1.191-0.833,1.557s-1.357,0.549-2.406,0.549
				c-0.809,0-1.427-0.144-1.853-0.43c-0.426-0.287-0.639-0.695-0.639-1.225c0-0.365,0.116-0.673,0.346-0.922
				c0.231-0.248,0.554-0.422,0.97-0.518c-0.168-0.072-0.307-0.188-0.416-0.348c-0.109-0.158-0.164-0.326-0.164-0.502
				c0-0.222,0.063-0.41,0.188-0.563s0.312-0.306,0.559-0.456c-0.308-0.133-0.558-0.349-0.75-0.648
				c-0.191-0.299-0.287-0.648-0.287-1.049c0-0.645,0.203-1.145,0.609-1.499c0.407-0.354,0.986-0.532,1.738-0.532
				c0.168,0,0.345,0.012,0.529,0.035c0.185,0.023,0.323,0.048,0.417,0.072H78.907z M74.24,84.578c0,0.271,0.123,0.48,0.368,0.628
				c0.246,0.147,0.59,0.22,1.034,0.22c0.688,0,1.2-0.098,1.536-0.295s0.505-0.459,0.505-0.784c0-0.258-0.092-0.441-0.276-0.55
				c-0.185-0.109-0.527-0.164-1.029-0.164h-0.956c-0.362,0-0.649,0.084-0.862,0.254C74.346,84.058,74.24,84.287,74.24,84.578z
				 M74.782,79.637c0,0.372,0.096,0.658,0.287,0.859c0.192,0.2,0.467,0.301,0.825,0.301c0.73,0,1.096-0.391,1.096-1.172
				c0-0.387-0.09-0.684-0.271-0.895c-0.181-0.209-0.456-0.313-0.825-0.313c-0.365,0-0.642,0.104-0.83,0.312
				C74.876,78.936,74.782,79.238,74.782,79.637z"/>
			<path fill="#FFFFFF" d="M85.234,83.654h-1.268v-3.652c0-0.459-0.092-0.801-0.277-1.026c-0.184-0.226-0.477-0.339-0.878-0.339
				c-0.534,0-0.924,0.158-1.171,0.473c-0.247,0.315-0.371,0.844-0.371,1.585v2.96h-1.262v-5.941h0.988l0.177,0.779h0.064
				c0.179-0.283,0.433-0.502,0.763-0.655s0.695-0.231,1.096-0.231c1.425,0,2.138,0.726,2.138,2.176V83.654z"/>
		</g>
	</g>
	
		<rect x="7.348" y="6.421" fill="none" stroke="#2882A5" stroke-width="1.5" stroke-miterlimit="10" width="185.736" height="117.717"/>
</g>
<g id="Layer_2">
</g>
</svg>
