<?xml version="1.0" encoding="utf-8"?>
<!-- Generator: Adobe Illustrator 16.0.0, SVG Export Plug-In . SVG Version: 6.00 Build 0)  -->
<!DOCTYPE svg PUBLIC "-//W3C//DTD SVG 1.1//EN" "http://www.w3.org/Graphics/SVG/1.1/DTD/svg11.dtd">
<svg version="1.1" xmlns="http://www.w3.org/2000/svg" xmlns:xlink="http://www.w3.org/1999/xlink" x="0px" y="0px" width="200px"
	 height="130px" viewBox="0 0 200 130" enable-background="new 0 0 200 130" xml:space="preserve">
<g id="Layer_1">
	<rect x="9.813" y="8.606" fill="#2882A5" width="180.806" height="112.787"/>
	<g>
		<rect x="18.732" y="16.474" fill="none" width="133.13" height="14.796"/>
		<text transform="matrix(1 0 0 1 18.7314 26.4287)" fill="#FFFFFF" font-family="'OpenSans-Semibold'" font-size="13.097">UI/UX</text>
	</g>
	<g>
		<circle fill="none" stroke="#FFFFFF" stroke-miterlimit="10" cx="148.163" cy="80.27" r="30.509"/>
		<g>
			<defs>
				<path id="XMLID_4_" d="M166.463,96.455c0,1.169-0.946,2.116-2.114,2.116h-32.372c-1.168,0-2.114-0.947-2.114-2.116V64.084
					c0-1.169,0.946-2.116,2.114-2.116h32.372c1.168,0,2.114,0.947,2.114,2.116V96.455z"/>
			</defs>
			<clipPath id="XMLID_10_">
				<use xlink:href="#XMLID_4_"  overflow="visible"/>
			</clipPath>
			<g opacity="0.7" clip-path="url(#XMLID_10_)">
				
					<rect x="129.862" y="61.971" fill="none" stroke="#FFFFFF" stroke-width="0.295" stroke-miterlimit="10" width="36.601" height="36.601"/>
				
					<line fill="none" stroke="#FFFFFF" stroke-width="0.295" stroke-miterlimit="10" x1="129.862" y1="92.468" x2="166.463" y2="92.468"/>
				
					<line fill="none" stroke="#FFFFFF" stroke-width="0.295" stroke-miterlimit="10" x1="129.862" y1="86.372" x2="166.463" y2="86.372"/>
				
					<line fill="none" stroke="#FFFFFF" stroke-width="0.295" stroke-miterlimit="10" x1="129.862" y1="80.27" x2="166.463" y2="80.27"/>
				
					<line fill="none" stroke="#FFFFFF" stroke-width="0.295" stroke-miterlimit="10" x1="129.862" y1="74.167" x2="166.463" y2="74.167"/>
				
					<line fill="none" stroke="#FFFFFF" stroke-width="0.295" stroke-miterlimit="10" x1="129.862" y1="68.073" x2="166.463" y2="68.073"/>
				
					<line fill="none" stroke="#FFFFFF" stroke-width="0.295" stroke-miterlimit="10" x1="160.36" y1="61.971" x2="160.36" y2="98.571"/>
				
					<line fill="none" stroke="#FFFFFF" stroke-width="0.295" stroke-miterlimit="10" x1="154.266" y1="61.971" x2="154.266" y2="98.571"/>
				
					<line fill="none" stroke="#FFFFFF" stroke-width="0.295" stroke-miterlimit="10" x1="148.162" y1="61.971" x2="148.162" y2="98.571"/>
				
					<line fill="none" stroke="#FFFFFF" stroke-width="0.295" stroke-miterlimit="10" x1="142.059" y1="61.971" x2="142.059" y2="98.571"/>
				
					<line fill="none" stroke="#FFFFFF" stroke-width="0.295" stroke-miterlimit="10" x1="135.965" y1="61.971" x2="135.965" y2="98.571"/>
			</g>
			<use xlink:href="#XMLID_4_"  overflow="visible" fill="none" stroke="#FFFFFF" stroke-miterlimit="10"/>
		</g>
		<g>
			<g>
				<line fill="none" stroke="#FFFFFF" stroke-miterlimit="10" x1="134.124" y1="94.309" x2="162.202" y2="66.23"/>
				<g>
					<polygon fill="#FFFFFF" points="135.946,95.306 132.094,96.338 133.126,92.485 					"/>
				</g>
				<g>
					<polygon fill="#FFFFFF" points="163.199,68.054 164.231,64.201 160.379,65.233 					"/>
				</g>
			</g>
		</g>
		<g>
			<g>
				<line fill="none" stroke="#FFFFFF" stroke-miterlimit="10" x1="134.124" y1="66.23" x2="162.202" y2="94.309"/>
				<g>
					<polygon fill="#FFFFFF" points="133.126,68.054 132.094,64.201 135.946,65.233 					"/>
				</g>
				<g>
					<polygon fill="#FFFFFF" points="160.379,95.306 164.231,96.338 163.199,92.485 					"/>
				</g>
			</g>
		</g>
	</g>
	<g>
		<rect x="17.703" y="45.294" fill="none" width="83.832" height="53.277"/>
		<text transform="matrix(1 0 0 1 17.7031 53.6543)"><tspan x="0" y="0" fill="#FFFFFF" font-family="'OpenSans-Semibold'" font-size="11">Mobile App </tspan><tspan x="0" y="15" fill="#FFFFFF" font-family="'OpenSans-Semibold'" font-size="11">Design</tspan><tspan x="0" y="30" fill="#FFFFFF" font-family="'OpenSans-Semibold'" font-size="11">Web Design</tspan></text>
	</g>
</g>
<g id="Layer_2">
</g>
</svg>
