<?xml version="1.0" encoding="utf-8"?>
<!-- Generator: Adobe Illustrator 16.0.0, SVG Export Plug-In . SVG Version: 6.00 Build 0)  -->
<!DOCTYPE svg PUBLIC "-//W3C//DTD SVG 1.1//EN" "http://www.w3.org/Graphics/SVG/1.1/DTD/svg11.dtd">
<svg version="1.1" xmlns="http://www.w3.org/2000/svg" xmlns:xlink="http://www.w3.org/1999/xlink" x="0px" y="0px" width="200px"
	 height="130px" viewBox="0 0 200 130" enable-background="new 0 0 200 130" xml:space="preserve">
<g id="Layer_1">
	<rect x="9.813" y="8.606" fill="#2882A5" width="180.806" height="112.787"/>
	<g>
		<rect x="18.92" y="16.499" fill="none" width="171.363" height="14.794"/>
		<text transform="matrix(1 0 0 1 18.9209 26.4531)" fill="#FFFFFF" font-family="'OpenSans-Semibold'" font-size="13.097">Game Artwork &amp; Assets</text>
	</g>
	<circle fill="none" stroke="#FFFFFF" stroke-miterlimit="10" cx="148.352" cy="80.295" r="30.509"/>
	<g>
		<g>
			<g>
				<rect x="127.891" y="77.068" fill="#FFFFFF" width="22.054" height="2.72"/>
				<path fill="#FFFFFF" d="M145.167,69.325c0,0,6.433-3.994,6.37-6.654c1.786,0.517,0.996,7.504-3.893,9.53L145.167,69.325z"/>
				<path fill="#FFFFFF" d="M132.66,69.325c0,0-6.436-3.994-6.373-6.654c-1.786,0.517-0.993,7.504,3.897,9.53L132.66,69.325z"/>
			</g>
		</g>
		<g>
			<path fill="none" stroke="#FFFFFF" stroke-width="1.18" stroke-miterlimit="10" d="M128.644,77.631h8.973V66.999
				C132.56,67.67,128.644,72.169,128.644,77.631z"/>
			<path fill="none" stroke="#FFFFFF" stroke-width="1.18" stroke-miterlimit="10" d="M140.218,66.999v10.632h8.97
				C149.188,72.169,145.275,67.67,140.218,66.999z"/>
			<path fill="#FFFFFF" d="M140.218,66.999v-1.502h-2.602v1.502c0.426-0.058,0.857-0.097,1.3-0.097S139.792,66.941,140.218,66.999z"
				/>
			<rect x="137.617" y="77.631" fill="#FFFFFF" width="2.602" height="0.618"/>
		</g>
		<rect x="138.266" y="67.532" fill="#FFFFFF" width="1.303" height="4.876"/>
		<rect x="138.266" y="72.844" fill="#FFFFFF" width="1.303" height="4.026"/>
	</g>
	<g>
		<g>
			<polygon fill="#FFFFFF" points="166.942,81.8 149.011,100.523 150.38,101.952 168.31,83.231 			"/>
			<g>
				<path fill="#FFFFFF" d="M161.041,78.215c0.202,1.299,0.724,3.122,2.042,4.845c-0.993,1.038-2,2.09-2.673,2.793
					c-1.678-1.396-3.385-1.931-4.608-2.125c0.409-0.869,1.104-2.051,2.23-3.229C159.126,79.357,160.222,78.644,161.041,78.215
					 M162.102,76.504c0,0-2.46,0.61-4.921,3.178c-2.459,2.572-3.045,5.14-3.045,5.14s0.146-0.018,0.403-0.018
					c0.978,0,3.571,0.255,5.919,2.705c0,0,2.305-2.406,4.215-4.404C161.867,80.173,162.102,76.504,162.102,76.504L162.102,76.504z"
					/>
			</g>
			<path fill="#FFFFFF" d="M162.102,76.504c0,0-2.46,0.61-4.921,3.178c-2.459,2.572-3.045,5.14-3.045,5.14l1.432,0.063
				c2.259-4.388,6.628-6.921,6.628-6.921C162.065,77.082,162.102,76.504,162.102,76.504z"/>
			<g>
				<path fill="#FFFFFF" d="M167.086,87.229c1.678,1.396,3.385,1.93,4.608,2.124c-0.409,0.87-1.104,2.053-2.23,3.229
					c-1.094,1.142-2.19,1.856-3.008,2.284c-0.203-1.298-0.726-3.12-2.043-4.845C165.406,88.984,166.413,87.933,167.086,87.229
					 M167.039,85.573c0,0-2.305,2.405-4.216,4.404c2.805,2.934,2.572,6.601,2.572,6.601s2.461-0.611,4.921-3.179
					c2.459-2.569,3.044-5.14,3.044-5.14s-0.146,0.018-0.405,0.018C171.976,88.277,169.384,88.021,167.039,85.573L167.039,85.573z
					 M173.36,88.26h0.005H173.36z"/>
			</g>
		</g>
	</g>
	<g>
		<rect x="15.466" y="37.882" fill="none" width="108.035" height="76.717"/>
		<text transform="matrix(1 0 0 1 15.4658 46.2422)"><tspan x="0" y="0" fill="#FFFFFF" font-family="'OpenSans-Semibold'" font-size="11">Spritesheets</tspan><tspan x="0" y="15" fill="#FFFFFF" font-family="'OpenSans-Semibold'" font-size="11">3D Models</tspan><tspan x="0" y="30" fill="#FFFFFF" font-family="'OpenSans-Semibold'" font-size="11">Concept Art</tspan><tspan x="0" y="45" fill="#FFFFFF" font-family="'OpenSans-Semibold'" font-size="11">Animations</tspan><tspan x="0" y="60" fill="#FFFFFF" font-family="'OpenSans-Semibold'" font-size="11">Game Props</tspan></text>
	</g>
</g>
<g id="Layer_2">
</g>
</svg>
