<?xml version="1.0" encoding="utf-8"?>
<!-- Generator: Adobe Illustrator 16.0.0, SVG Export Plug-In . SVG Version: 6.00 Build 0)  -->
<!DOCTYPE svg PUBLIC "-//W3C//DTD SVG 1.1//EN" "http://www.w3.org/Graphics/SVG/1.1/DTD/svg11.dtd">
<svg version="1.1" xmlns="http://www.w3.org/2000/svg" xmlns:xlink="http://www.w3.org/1999/xlink" x="0px" y="0px" width="200px"
	 height="130px" viewBox="0 0 200 130" enable-background="new 0 0 200 130" xml:space="preserve">
<g id="Layer_1">
	<rect x="9.813" y="8.77" fill="#2882A5" width="180.806" height="112.787"/>
	<g>
		<rect x="17.909" y="18.309" fill="none" width="133.672" height="14.854"/>
		<text transform="matrix(1 0 0 1 17.9092 28.2622)" fill="#FFFFFF" font-family="'OpenSans-Semibold'" font-size="13.097">Web Applications</text>
	</g>
	<circle fill="none" stroke="#FFFFFF" stroke-miterlimit="10" cx="147.867" cy="82.363" r="30.633"/>
	<g>
		<path fill="none" stroke="#FFFFFF" stroke-miterlimit="10" d="M169.863,95.07c0,0.975-0.791,1.766-1.767,1.766h-40.459
			c-0.976,0-1.766-0.791-1.766-1.766V68.646c0-0.975,0.79-1.766,1.766-1.766h40.459c0.976,0,1.767,0.791,1.767,1.766V95.07z"/>
		<g>
			<rect x="128.24" y="69.055" fill="none" stroke="#FFFFFF" stroke-miterlimit="10" width="39.48" height="25.609"/>
			<path fill="none" stroke="#FFFFFF" stroke-miterlimit="10" d="M154.083,101.209c-0.041,0-0.101,0-0.149,0v-4.305h-11.145v4.316
				c-2.058,0.064-1.753,2.551-1.753,2.551h14.978C156.014,103.771,155.732,101.209,154.083,101.209z"/>
		</g>
		<g>
			<g>
				<path fill="#FFFFFF" d="M133.872,81.867l8.432,3.463v1.385l-10.131-4.264v-1.158l10.131-4.266v1.387L133.872,81.867z"/>
				<path fill="#FFFFFF" d="M151.071,75.383l-4.698,12.869h-1.396l4.697-12.869H151.071z"/>
				<path fill="#FFFFFF" d="M153.43,78.414v-1.387l10.131,4.266v1.158l-10.131,4.264V85.33l8.432-3.463L153.43,78.414z"/>
			</g>
		</g>
	</g>
	<g>
		<rect x="15.234" y="48.167" fill="none" width="97.35" height="63.583"/>
		<text transform="matrix(1 0 0 1 15.2339 56.5269)"><tspan x="0" y="0" fill="#FFFFFF" font-family="'OpenSans-Semibold'" font-size="11">Ruby on Rails</tspan><tspan x="0" y="15" fill="#FFFFFF" font-family="'OpenSans-Semibold'" font-size="11">Javascript</tspan><tspan x="0" y="30" fill="#FFFFFF" font-family="'OpenSans-Semibold'" font-size="11">HTML 5</tspan><tspan x="0" y="45" fill="#FFFFFF" font-family="'OpenSans-Semibold'" font-size="11">CSS 3</tspan></text>
	</g>
</g>
<g id="Layer_2">
</g>
</svg>
