<?xml version="1.0" encoding="utf-8"?>
<!-- Generator: Adobe Illustrator 16.0.0, SVG Export Plug-In . SVG Version: 6.00 Build 0)  -->
<!DOCTYPE svg PUBLIC "-//W3C//DTD SVG 1.1//EN" "http://www.w3.org/Graphics/SVG/1.1/DTD/svg11.dtd">
<svg version="1.1" xmlns="http://www.w3.org/2000/svg" xmlns:xlink="http://www.w3.org/1999/xlink" x="0px" y="0px" width="200px"
	 height="130px" viewBox="0 0 200 130" enable-background="new 0 0 200 130" xml:space="preserve">
<g id="Layer_1">
	<g>
		<g>
			<path fill="#2882A5" d="M186.145,16.751c1.329,0,2.41,1.082,2.41,2.411v99.526c0,1.33-1.081,2.412-2.41,2.412H13.274
				c-1.33,0-2.411-1.082-2.411-2.412V19.162c0-1.329,1.082-2.411,2.411-2.411H186.145 M186.145,15.561H13.274
				c-1.98,0-3.602,1.62-3.602,3.602v99.526c0,1.979,1.622,3.603,3.602,3.603h172.87c1.98,0,3.601-1.623,3.601-3.603V19.162
				C189.745,17.181,188.125,15.561,186.145,15.561L186.145,15.561z"/>
		</g>
	</g>
	<path fill="#2882A5" d="M186.145,10.158H13.274c-1.98,0-3.602,1.62-3.602,3.603v14.404v1.803v3.602h3.602h172.87h3.601v-3.602
		v-1.803V13.761C189.745,11.778,188.125,10.158,186.145,10.158z"/>
	<g>
		<rect x="18.732" y="16.474" fill="none" width="133.13" height="14.796"/>
		<text transform="matrix(1 0 0 1 18.7314 26.4287)" fill="#FFFFFF" font-family="'OpenSans-Semibold'" font-size="13.097">UI/UX</text>
	</g>
	<path fill="#606161" d="M21.167,47.76c0,0.805-0.264,1.423-0.791,1.852s-1.277,0.642-2.251,0.642h-0.802v2.886h-1.261v-7.71h2.221
		c0.963,0,1.685,0.197,2.164,0.591C20.928,46.413,21.167,46.993,21.167,47.76z M17.323,49.194h0.67c0.646,0,1.121-0.113,1.424-0.338
		c0.302-0.225,0.453-0.576,0.453-1.055c0-0.443-0.136-0.773-0.406-0.991s-0.692-0.327-1.266-0.327h-0.875V49.194z"/>
	<path fill="#606161" d="M27.706,53.139h-1.244v-3.586c0-0.45-0.091-0.785-0.271-1.008c-0.182-0.221-0.469-0.332-0.862-0.332
		c-0.521,0-0.903,0.156-1.147,0.467c-0.244,0.312-0.366,0.833-0.366,1.564v2.895h-1.239v-8.206h1.239v2.084
		c0,0.334-0.021,0.69-0.063,1.07h0.079c0.169-0.281,0.403-0.5,0.705-0.654c0.3-0.154,0.65-0.232,1.052-0.232
		c1.413,0,2.119,0.712,2.119,2.137V53.139z"/>
	<path fill="#606161" d="M34.604,50.211c0,0.954-0.245,1.697-0.733,2.231s-1.169,0.802-2.041,0.802
		c-0.545,0-1.026-0.123-1.444-0.369c-0.419-0.246-0.74-0.599-0.966-1.061c-0.225-0.46-0.337-0.994-0.337-1.604
		c0-0.944,0.242-1.683,0.728-2.215c0.485-0.529,1.169-0.796,2.052-0.796c0.844,0,1.512,0.272,2.004,0.814
		C34.358,48.559,34.604,49.291,34.604,50.211z M30.359,50.211c0,1.348,0.497,2.021,1.492,2.021c0.984,0,1.477-0.673,1.477-2.021
		c0-1.331-0.496-1.998-1.487-1.998c-0.521,0-0.897,0.173-1.132,0.517C30.476,49.074,30.359,49.569,30.359,50.211z"/>
	<path fill="#606161" d="M38.2,52.242c0.303,0,0.605-0.048,0.907-0.142v0.933c-0.137,0.06-0.313,0.11-0.529,0.149
		c-0.217,0.041-0.44,0.062-0.673,0.062c-1.174,0-1.762-0.619-1.762-1.856v-3.143h-0.796v-0.549l0.854-0.453l0.422-1.234h0.765v1.297
		h1.661v0.939h-1.661v3.121c0,0.299,0.074,0.52,0.224,0.662S37.958,52.242,38.2,52.242z"/>
	<path fill="#606161" d="M45.446,50.211c0,0.954-0.244,1.697-0.733,2.231c-0.488,0.534-1.169,0.802-2.04,0.802
		c-0.545,0-1.027-0.123-1.445-0.369s-0.74-0.599-0.965-1.061c-0.226-0.46-0.338-0.994-0.338-1.604c0-0.944,0.243-1.683,0.728-2.215
		c0.485-0.529,1.169-0.796,2.052-0.796c0.844,0,1.512,0.272,2.004,0.814C45.2,48.559,45.446,49.291,45.446,50.211z M41.201,50.211
		c0,1.348,0.497,2.021,1.492,2.021c0.984,0,1.477-0.673,1.477-2.021c0-1.331-0.495-1.998-1.487-1.998
		c-0.52,0-0.897,0.173-1.131,0.517C41.317,49.074,41.201,49.569,41.201,50.211z"/>
	<path fill="#606161" d="M50.788,51.477c0,0.569-0.207,1.007-0.622,1.312c-0.415,0.304-1.009,0.456-1.782,0.456
		c-0.777,0-1.401-0.117-1.872-0.354V51.82c0.686,0.316,1.323,0.475,1.914,0.475c0.763,0,1.145-0.229,1.145-0.691
		c0-0.147-0.042-0.27-0.127-0.368c-0.084-0.099-0.223-0.201-0.416-0.307s-0.463-0.225-0.808-0.359
		c-0.671-0.259-1.126-0.519-1.362-0.78c-0.238-0.259-0.356-0.597-0.356-1.013c0-0.498,0.201-0.886,0.604-1.162
		c0.402-0.275,0.95-0.414,1.643-0.414c0.686,0,1.335,0.14,1.946,0.416l-0.4,0.935c-0.63-0.261-1.159-0.391-1.588-0.391
		c-0.653,0-0.98,0.187-0.98,0.56c0,0.183,0.085,0.337,0.255,0.464c0.171,0.126,0.543,0.301,1.116,0.521
		c0.481,0.188,0.831,0.357,1.049,0.512c0.219,0.155,0.38,0.333,0.485,0.536C50.735,50.954,50.788,51.196,50.788,51.477z"/>
	<path fill="#606161" d="M57.259,53.139h-1.244v-3.586c0-0.45-0.091-0.785-0.271-1.008c-0.182-0.221-0.469-0.332-0.862-0.332
		c-0.521,0-0.903,0.156-1.147,0.467c-0.244,0.312-0.366,0.833-0.366,1.564v2.895h-1.239v-8.206h1.239v2.084
		c0,0.334-0.021,0.69-0.063,1.07h0.079c0.169-0.281,0.403-0.5,0.704-0.654c0.3-0.154,0.651-0.232,1.052-0.232
		c1.413,0,2.12,0.712,2.12,2.137V53.139z"/>
	<path fill="#606161" d="M64.156,50.211c0,0.954-0.244,1.697-0.732,2.231c-0.489,0.534-1.169,0.802-2.041,0.802
		c-0.545,0-1.026-0.123-1.445-0.369c-0.418-0.246-0.74-0.599-0.965-1.061c-0.225-0.46-0.338-0.994-0.338-1.604
		c0-0.944,0.243-1.683,0.729-2.215c0.484-0.529,1.169-0.796,2.051-0.796c0.844,0,1.512,0.272,2.004,0.814
		C63.91,48.559,64.156,49.291,64.156,50.211z M59.911,50.211c0,1.348,0.498,2.021,1.492,2.021c0.984,0,1.477-0.673,1.477-2.021
		c0-1.331-0.495-1.998-1.486-1.998c-0.521,0-0.898,0.173-1.132,0.517C60.028,49.074,59.911,49.569,59.911,50.211z"/>
	<path fill="#606161" d="M68.539,53.244c-0.738,0-1.312-0.265-1.72-0.797h-0.073c0.049,0.493,0.073,0.792,0.073,0.897v2.389H65.58
		v-8.428h1.002c0.028,0.109,0.086,0.369,0.174,0.781h0.063c0.387-0.591,0.967-0.887,1.74-0.887c0.728,0,1.295,0.264,1.701,0.791
		c0.405,0.527,0.608,1.269,0.608,2.22c0,0.954-0.206,1.697-0.619,2.231S69.267,53.244,68.539,53.244z M68.238,48.213
		c-0.492,0-0.853,0.145-1.078,0.433c-0.228,0.288-0.341,0.749-0.341,1.382v0.184c0,0.712,0.112,1.225,0.338,1.544
		c0.225,0.317,0.592,0.477,1.102,0.477c0.43,0,0.76-0.176,0.992-0.527c0.231-0.352,0.348-0.852,0.348-1.502
		c0-0.654-0.115-1.15-0.346-1.485C69.022,48.381,68.685,48.213,68.238,48.213z"/>
	<path fill="#606161" d="M16.063,68.099v-7.71h1.261v7.71H16.063z"/>
	<path fill="#606161" d="M20.466,68.099h-1.239v-8.206h1.239V68.099z"/>
	<path fill="#606161" d="M23.478,68.099h-1.239v-8.206h1.239V68.099z"/>
	<path fill="#606161" d="M29.362,68.099l-0.174-0.765h-0.063c-0.172,0.271-0.418,0.483-0.735,0.638
		c-0.318,0.154-0.682,0.232-1.089,0.232c-0.707,0-1.234-0.176-1.582-0.527c-0.349-0.352-0.522-0.884-0.522-1.599v-3.813h1.25v3.597
		c0,0.446,0.091,0.781,0.274,1.004c0.183,0.225,0.469,0.336,0.859,0.336c0.521,0,0.902-0.156,1.147-0.467
		c0.243-0.312,0.366-0.832,0.366-1.564v-2.905h1.244v5.833H29.362z"/>
	<path fill="#606161" d="M36.022,66.437c0,0.569-0.207,1.007-0.622,1.312c-0.415,0.304-1.009,0.456-1.782,0.456
		c-0.777,0-1.401-0.117-1.872-0.354V66.78c0.686,0.316,1.323,0.475,1.914,0.475c0.763,0,1.145-0.23,1.145-0.691
		c0-0.148-0.042-0.27-0.127-0.368c-0.084-0.099-0.223-0.202-0.416-0.308s-0.463-0.224-0.808-0.358
		c-0.671-0.259-1.126-0.519-1.362-0.78c-0.238-0.259-0.356-0.597-0.356-1.013c0-0.498,0.201-0.886,0.604-1.162
		c0.402-0.275,0.95-0.414,1.643-0.414c0.686,0,1.335,0.14,1.946,0.416l-0.4,0.935c-0.63-0.261-1.159-0.391-1.588-0.391
		c-0.653,0-0.98,0.187-0.98,0.559c0,0.184,0.085,0.338,0.255,0.465c0.171,0.126,0.543,0.301,1.116,0.521
		c0.481,0.188,0.831,0.357,1.049,0.512c0.219,0.154,0.38,0.333,0.485,0.535S36.022,66.156,36.022,66.437z"/>
	<path fill="#606161" d="M39.535,67.202c0.302,0,0.604-0.049,0.906-0.143v0.934c-0.137,0.06-0.313,0.109-0.529,0.149
		c-0.217,0.041-0.44,0.062-0.673,0.062c-1.174,0-1.761-0.619-1.761-1.856v-3.144h-0.797v-0.548l0.854-0.454l0.422-1.233h0.765v1.297
		h1.661v0.938h-1.661v3.122c0,0.299,0.074,0.52,0.224,0.662C39.096,67.13,39.292,67.202,39.535,67.202z"/>
	<path fill="#606161" d="M44.565,62.16c0.25,0,0.455,0.018,0.617,0.053l-0.121,1.155c-0.176-0.042-0.358-0.063-0.549-0.063
		c-0.495,0-0.897,0.161-1.205,0.484c-0.308,0.324-0.461,0.743-0.461,1.26v3.049h-1.239v-5.833h0.97l0.164,1.028h0.063
		c0.193-0.348,0.445-0.624,0.756-0.828C43.872,62.263,44.207,62.16,44.565,62.16z"/>
	<path fill="#606161" d="M49.913,68.099l-0.248-0.813h-0.042c-0.281,0.355-0.564,0.597-0.85,0.726
		c-0.284,0.128-0.65,0.192-1.097,0.192c-0.573,0-1.021-0.155-1.342-0.465c-0.322-0.309-0.482-0.746-0.482-1.313
		c0-0.602,0.223-1.055,0.67-1.361c0.446-0.305,1.126-0.473,2.04-0.5l1.008-0.032v-0.312c0-0.371-0.088-0.65-0.261-0.836
		c-0.175-0.184-0.444-0.276-0.81-0.276c-0.299,0-0.586,0.045-0.86,0.133c-0.273,0.088-0.537,0.19-0.791,0.311l-0.4-0.886
		c0.316-0.166,0.663-0.291,1.039-0.378c0.376-0.085,0.731-0.129,1.065-0.129c0.741,0,1.301,0.162,1.679,0.485
		s0.567,0.832,0.567,1.524v3.929H49.913z M48.067,67.255c0.45,0,0.811-0.126,1.084-0.378c0.271-0.251,0.408-0.604,0.408-1.057
		v-0.507l-0.749,0.032c-0.583,0.021-1.008,0.118-1.273,0.293c-0.266,0.173-0.398,0.439-0.398,0.798c0,0.262,0.078,0.462,0.232,0.604
		C47.525,67.183,47.758,67.255,48.067,67.255z"/>
	<path fill="#606161" d="M54.701,67.202c0.303,0,0.604-0.049,0.907-0.143v0.934c-0.138,0.06-0.314,0.109-0.53,0.149
		c-0.217,0.041-0.44,0.062-0.672,0.062c-1.175,0-1.762-0.619-1.762-1.856v-3.144h-0.796v-0.548l0.854-0.454l0.422-1.233h0.765v1.297
		h1.661v0.938h-1.661v3.122c0,0.299,0.075,0.52,0.225,0.662C54.263,67.13,54.459,67.202,54.701,67.202z"/>
	<path fill="#606161" d="M61.947,65.171c0,0.954-0.245,1.697-0.733,2.231s-1.169,0.802-2.041,0.802
		c-0.545,0-1.026-0.123-1.444-0.369c-0.419-0.246-0.74-0.6-0.966-1.061c-0.225-0.46-0.337-0.994-0.337-1.604
		c0-0.944,0.242-1.683,0.728-2.215c0.485-0.529,1.169-0.796,2.052-0.796c0.844,0,1.512,0.272,2.004,0.814
		C61.701,63.519,61.947,64.251,61.947,65.171z M57.702,65.171c0,1.348,0.497,2.021,1.492,2.021c0.984,0,1.477-0.673,1.477-2.021
		c0-1.331-0.496-1.998-1.487-1.998c-0.521,0-0.897,0.172-1.132,0.517C57.818,64.034,57.702,64.528,57.702,65.171z"/>
	<path fill="#606161" d="M66.329,62.16c0.25,0,0.455,0.018,0.617,0.053l-0.121,1.155c-0.176-0.042-0.359-0.063-0.549-0.063
		c-0.496,0-0.897,0.161-1.205,0.484c-0.308,0.324-0.461,0.743-0.461,1.26v3.049h-1.239v-5.833h0.97l0.164,1.028h0.063
		c0.193-0.348,0.446-0.624,0.757-0.828C65.636,62.263,65.971,62.16,66.329,62.16z"/>
	<path fill="#606161" d="M21.863,83.06l-0.77-2.142h-2.948l-0.754,2.142h-1.329l2.885-7.742h1.371l2.885,7.742H21.863z
		 M20.761,79.832l-0.722-2.099c-0.053-0.141-0.126-0.362-0.22-0.665c-0.093-0.302-0.157-0.523-0.192-0.664
		c-0.095,0.433-0.233,0.905-0.416,1.419l-0.696,2.009H20.761z"/>
	<path fill="#606161" d="M27.016,78.165h-1.424v4.895h-1.245v-4.895h-0.959v-0.58l0.959-0.379v-0.38c0-0.689,0.162-1.2,0.485-1.532
		s0.817-0.499,1.482-0.499c0.436,0,0.864,0.073,1.286,0.217l-0.327,0.938c-0.306-0.098-0.598-0.147-0.875-0.147
		c-0.281,0-0.486,0.087-0.614,0.262c-0.129,0.173-0.192,0.435-0.192,0.782v0.38h1.424V78.165z"/>
	<path fill="#606161" d="M30.18,82.163c0.302,0,0.604-0.049,0.907-0.143v0.934c-0.138,0.06-0.314,0.109-0.53,0.149
		c-0.217,0.041-0.44,0.062-0.673,0.062c-1.174,0-1.761-0.619-1.761-1.856v-3.144h-0.797v-0.548l0.854-0.454l0.422-1.233h0.765v1.297
		h1.661v0.938h-1.661v3.122c0,0.299,0.074,0.52,0.224,0.662C29.74,82.091,29.937,82.163,30.18,82.163z"/>
	<path fill="#606161" d="M34.799,83.165c-0.907,0-1.616-0.266-2.127-0.794c-0.513-0.529-0.768-1.257-0.768-2.186
		c0-0.952,0.237-1.701,0.712-2.247c0.475-0.544,1.126-0.817,1.956-0.817c0.77,0,1.378,0.234,1.824,0.702
		c0.447,0.468,0.67,1.111,0.67,1.929v0.671H33.18c0.018,0.565,0.171,1,0.459,1.305c0.288,0.304,0.694,0.456,1.219,0.456
		c0.344,0,0.665-0.032,0.962-0.097c0.297-0.066,0.616-0.174,0.957-0.325v1.007c-0.302,0.146-0.608,0.247-0.917,0.307
		C35.55,83.134,35.196,83.165,34.799,83.165z M34.572,78.06c-0.394,0-0.709,0.126-0.947,0.375c-0.236,0.25-0.378,0.613-0.424,1.092
		h2.647c-0.007-0.482-0.123-0.847-0.349-1.095C35.275,78.185,34.966,78.06,34.572,78.06z"/>
	<path fill="#606161" d="M41.433,77.121c0.25,0,0.456,0.018,0.617,0.053l-0.121,1.155c-0.176-0.042-0.358-0.063-0.549-0.063
		c-0.495,0-0.897,0.161-1.205,0.484c-0.308,0.324-0.461,0.743-0.461,1.26v3.049h-1.239v-5.833h0.971l0.163,1.028h0.063
		c0.193-0.348,0.445-0.624,0.756-0.828C40.74,77.224,41.074,77.121,41.433,77.121z"/>
	<path fill="#606161" d="M50.43,83.06h-4.361v-7.71h4.361v1.065h-3.101v2.099h2.905v1.055h-2.905v2.42h3.101V83.06z"/>
	<path fill="#606161" d="M54.891,78.165h-1.424v4.895h-1.244v-4.895h-0.96v-0.58l0.96-0.379v-0.38c0-0.689,0.161-1.2,0.485-1.532
		c0.323-0.332,0.817-0.499,1.481-0.499c0.436,0,0.865,0.073,1.287,0.217l-0.327,0.938c-0.306-0.098-0.598-0.147-0.876-0.147
		c-0.281,0-0.486,0.087-0.613,0.262c-0.129,0.173-0.193,0.435-0.193,0.782v0.38h1.424V78.165z M58.809,78.165h-1.424v4.895h-1.244
		v-4.895h-0.96v-0.58l0.96-0.379v-0.38c0-0.689,0.162-1.2,0.485-1.532s0.817-0.499,1.481-0.499c0.437,0,0.865,0.073,1.287,0.217
		l-0.327,0.938c-0.306-0.098-0.598-0.147-0.875-0.147c-0.281,0-0.486,0.087-0.615,0.262c-0.128,0.173-0.192,0.435-0.192,0.782v0.38
		h1.424V78.165z"/>
	<path fill="#606161" d="M62.353,83.165c-0.907,0-1.616-0.266-2.127-0.794c-0.513-0.529-0.768-1.257-0.768-2.186
		c0-0.952,0.237-1.701,0.712-2.247c0.475-0.544,1.126-0.817,1.956-0.817c0.77,0,1.378,0.234,1.824,0.702
		c0.447,0.468,0.67,1.111,0.67,1.929v0.671h-3.887c0.018,0.565,0.171,1,0.459,1.305c0.288,0.304,0.694,0.456,1.219,0.456
		c0.344,0,0.665-0.032,0.962-0.097c0.297-0.066,0.616-0.174,0.957-0.325v1.007c-0.302,0.146-0.608,0.247-0.917,0.307
		C63.104,83.134,62.75,83.165,62.353,83.165z M62.126,78.06c-0.394,0-0.709,0.126-0.947,0.375c-0.236,0.25-0.378,0.613-0.424,1.092
		h2.647c-0.007-0.482-0.123-0.847-0.349-1.095C62.829,78.185,62.52,78.06,62.126,78.06z"/>
	<path fill="#606161" d="M68.38,83.165c-0.882,0-1.553-0.258-2.012-0.772c-0.458-0.516-0.688-1.254-0.688-2.219
		c0-0.979,0.24-1.734,0.719-2.262c0.48-0.527,1.174-0.791,2.081-0.791c0.615,0,1.169,0.115,1.661,0.344l-0.374,0.996
		c-0.524-0.204-0.957-0.306-1.298-0.306c-1.009,0-1.514,0.669-1.514,2.01c0,0.653,0.126,1.145,0.378,1.473
		c0.251,0.329,0.619,0.493,1.104,0.493c0.552,0,1.074-0.137,1.566-0.411v1.082c-0.222,0.13-0.459,0.223-0.709,0.278
		C69.044,83.137,68.739,83.165,68.38,83.165z"/>
	<path fill="#606161" d="M73.548,82.163c0.303,0,0.605-0.049,0.907-0.143v0.934c-0.137,0.06-0.313,0.109-0.529,0.149
		c-0.217,0.041-0.44,0.062-0.673,0.062c-1.174,0-1.762-0.619-1.762-1.856v-3.144h-0.796v-0.548l0.854-0.454l0.422-1.233h0.765v1.297
		h1.661v0.938h-1.661v3.122c0,0.299,0.074,0.52,0.224,0.662C73.109,82.091,73.306,82.163,73.548,82.163z"/>
	<path fill="#606161" d="M79.539,81.397c0,0.569-0.208,1.007-0.622,1.312c-0.415,0.304-1.01,0.456-1.783,0.456
		c-0.776,0-1.4-0.117-1.872-0.354v-1.069c0.686,0.316,1.324,0.475,1.915,0.475c0.763,0,1.144-0.23,1.144-0.691
		c0-0.148-0.042-0.27-0.126-0.368c-0.085-0.099-0.224-0.202-0.417-0.308s-0.462-0.224-0.807-0.358
		c-0.672-0.259-1.126-0.519-1.363-0.78c-0.237-0.259-0.355-0.597-0.355-1.013c0-0.498,0.2-0.886,0.604-1.162
		c0.402-0.275,0.95-0.414,1.643-0.414c0.686,0,1.334,0.14,1.946,0.416l-0.401,0.935c-0.629-0.261-1.158-0.391-1.587-0.391
		c-0.654,0-0.981,0.187-0.981,0.559c0,0.184,0.085,0.338,0.256,0.465c0.171,0.126,0.543,0.301,1.115,0.521
		c0.482,0.188,0.832,0.357,1.05,0.512s0.38,0.333,0.485,0.535S79.539,81.117,79.539,81.397z"/>
	<g>
		<circle fill="#2882A5" cx="148.163" cy="80.27" r="30.509"/>
		<g>
			<defs>
				<path id="XMLID_4_" d="M166.463,96.455c0,1.169-0.946,2.116-2.114,2.116h-32.372c-1.168,0-2.114-0.947-2.114-2.116V64.084
					c0-1.169,0.946-2.116,2.114-2.116h32.372c1.168,0,2.114,0.947,2.114,2.116V96.455z"/>
			</defs>
			<clipPath id="XMLID_6_">
				<use xlink:href="#XMLID_4_"  overflow="visible"/>
			</clipPath>
			<g opacity="0.7" clip-path="url(#XMLID_6_)">
				
					<rect x="129.862" y="61.971" fill="none" stroke="#FFFFFF" stroke-width="0.295" stroke-miterlimit="10" width="36.601" height="36.601"/>
				
					<line fill="none" stroke="#FFFFFF" stroke-width="0.295" stroke-miterlimit="10" x1="129.862" y1="92.468" x2="166.463" y2="92.468"/>
				
					<line fill="none" stroke="#FFFFFF" stroke-width="0.295" stroke-miterlimit="10" x1="129.862" y1="86.372" x2="166.463" y2="86.372"/>
				
					<line fill="none" stroke="#FFFFFF" stroke-width="0.295" stroke-miterlimit="10" x1="129.862" y1="80.27" x2="166.463" y2="80.27"/>
				
					<line fill="none" stroke="#FFFFFF" stroke-width="0.295" stroke-miterlimit="10" x1="129.862" y1="74.167" x2="166.463" y2="74.167"/>
				
					<line fill="none" stroke="#FFFFFF" stroke-width="0.295" stroke-miterlimit="10" x1="129.862" y1="68.073" x2="166.463" y2="68.073"/>
				
					<line fill="none" stroke="#FFFFFF" stroke-width="0.295" stroke-miterlimit="10" x1="160.36" y1="61.971" x2="160.36" y2="98.571"/>
				
					<line fill="none" stroke="#FFFFFF" stroke-width="0.295" stroke-miterlimit="10" x1="154.266" y1="61.971" x2="154.266" y2="98.571"/>
				
					<line fill="none" stroke="#FFFFFF" stroke-width="0.295" stroke-miterlimit="10" x1="148.162" y1="61.971" x2="148.162" y2="98.571"/>
				
					<line fill="none" stroke="#FFFFFF" stroke-width="0.295" stroke-miterlimit="10" x1="142.059" y1="61.971" x2="142.059" y2="98.571"/>
				
					<line fill="none" stroke="#FFFFFF" stroke-width="0.295" stroke-miterlimit="10" x1="135.965" y1="61.971" x2="135.965" y2="98.571"/>
			</g>
			<use xlink:href="#XMLID_4_"  overflow="visible" fill="none" stroke="#FFFFFF" stroke-width="1.057" stroke-miterlimit="10"/>
		</g>
		<g>
			<g>
				
					<line fill="none" stroke="#FFFFFF" stroke-width="1.18" stroke-miterlimit="10" x1="134.489" y1="93.942" x2="161.836" y2="66.597"/>
				<g>
					<polygon fill="#FFFFFF" points="136.64,95.12 132.094,96.338 133.312,91.792 					"/>
				</g>
				<g>
					<polygon fill="#FFFFFF" points="163.014,68.747 164.231,64.201 159.685,65.419 					"/>
				</g>
			</g>
		</g>
		<g>
			<g>
				
					<line fill="none" stroke="#FFFFFF" stroke-width="1.18" stroke-miterlimit="10" x1="134.489" y1="66.597" x2="161.836" y2="93.942"/>
				<g>
					<polygon fill="#FFFFFF" points="133.312,68.747 132.094,64.201 136.64,65.419 					"/>
				</g>
				<g>
					<polygon fill="#FFFFFF" points="159.685,95.12 164.231,96.338 163.014,91.792 					"/>
				</g>
			</g>
		</g>
	</g>
</g>
<g id="Layer_2">
</g>
</svg>
