<?xml version="1.0" encoding="utf-8"?>
<!-- Generator: Adobe Illustrator 16.0.0, SVG Export Plug-In . SVG Version: 6.00 Build 0)  -->
<!DOCTYPE svg PUBLIC "-//W3C//DTD SVG 1.1//EN" "http://www.w3.org/Graphics/SVG/1.1/DTD/svg11.dtd">
<svg version="1.1" xmlns="http://www.w3.org/2000/svg" xmlns:xlink="http://www.w3.org/1999/xlink" x="0px" y="0px" width="200px"
	 height="130px" viewBox="0 0 200 130" enable-background="new 0 0 200 130" xml:space="preserve">
<g id="Layer_1">
	<rect x="9.813" y="8.306" fill="#2882A5" width="180.806" height="112.787"/>
	<g>
		<rect x="18.239" y="18.5" fill="none" width="133.13" height="14.794"/>
		<text transform="matrix(1 0 0 1 18.2393 28.4541)" fill="#FFFFFF" font-family="'OpenSans-Semibold'" font-size="13.097">Mobile Games</text>
	</g>
	<path fill="#FFFFFF" d="M22.318,46.058v4.988c0,0.57-0.123,1.068-0.366,1.496c-0.245,0.426-0.599,0.756-1.061,0.985
		c-0.463,0.23-1.015,0.346-1.658,0.346c-0.956,0-1.7-0.253-2.23-0.76c-0.531-0.506-0.797-1.202-0.797-2.088v-4.968h1.266v4.879
		c0,0.636,0.147,1.104,0.443,1.407c0.295,0.302,0.749,0.453,1.36,0.453c1.188,0,1.782-0.623,1.782-1.872v-4.867H22.318z"/>
	<path fill="#FFFFFF" d="M29.29,53.768h-1.245v-3.586c0-0.45-0.091-0.785-0.271-1.008c-0.182-0.221-0.469-0.332-0.862-0.332
		c-0.523,0-0.907,0.155-1.149,0.464c-0.242,0.31-0.364,0.829-0.364,1.556v2.906h-1.239v-5.833h0.971l0.174,0.766h0.063
		c0.176-0.277,0.426-0.492,0.749-0.645c0.323-0.15,0.682-0.227,1.075-0.227c1.399,0,2.1,0.712,2.1,2.137V53.768z"/>
	<path fill="#FFFFFF" d="M30.94,46.39c0-0.221,0.061-0.392,0.182-0.512c0.122-0.119,0.295-0.179,0.52-0.179
		c0.218,0,0.388,0.06,0.509,0.179c0.121,0.12,0.182,0.291,0.182,0.512c0,0.211-0.061,0.377-0.182,0.499
		c-0.121,0.12-0.291,0.182-0.509,0.182c-0.225,0-0.397-0.062-0.52-0.182C31.001,46.767,30.94,46.601,30.94,46.39z M32.253,53.768
		h-1.239v-5.833h1.239V53.768z"/>
	<path fill="#FFFFFF" d="M36.198,52.871c0.302,0,0.604-0.048,0.906-0.142v0.933c-0.137,0.06-0.313,0.11-0.529,0.149
		c-0.217,0.041-0.44,0.062-0.673,0.062c-1.174,0-1.761-0.619-1.761-1.856v-3.143h-0.797v-0.549l0.854-0.453l0.422-1.234h0.765v1.297
		h1.661v0.939h-1.661v3.121c0,0.299,0.074,0.52,0.224,0.662S35.955,52.871,36.198,52.871z"/>
	<path fill="#FFFFFF" d="M37.385,47.935h1.35l1.187,3.307c0.18,0.472,0.299,0.915,0.358,1.328h0.042
		c0.032-0.191,0.09-0.428,0.175-0.703c0.084-0.276,0.53-1.586,1.339-3.932h1.34l-2.494,6.608c-0.454,1.212-1.21,1.819-2.268,1.819
		c-0.274,0-0.542-0.031-0.802-0.09v-0.981c0.187,0.042,0.398,0.063,0.638,0.063c0.598,0,1.018-0.346,1.261-1.039l0.216-0.548
		L37.385,47.935z"/>
	<path fill="#FFFFFF" d="M34.695,62.789c0,0.489-0.143,0.896-0.428,1.222c-0.284,0.324-0.686,0.543-1.202,0.656v0.042
		c0.619,0.077,1.083,0.27,1.393,0.577c0.309,0.308,0.464,0.717,0.464,1.227c0,0.741-0.262,1.313-0.786,1.717
		c-0.523,0.401-1.269,0.604-2.235,0.604c-0.854,0-1.575-0.139-2.162-0.418v-1.102c0.326,0.162,0.673,0.287,1.038,0.375
		c0.366,0.088,0.718,0.132,1.055,0.132c0.598,0,1.045-0.11,1.34-0.333c0.295-0.221,0.443-0.563,0.443-1.027
		c0-0.412-0.164-0.714-0.491-0.907c-0.326-0.193-0.84-0.29-1.539-0.29h-0.67v-1.008h0.68c1.23,0,1.846-0.425,1.846-1.275
		c0-0.331-0.106-0.585-0.321-0.766c-0.215-0.178-0.531-0.269-0.949-0.269c-0.292,0-0.573,0.041-0.844,0.124
		c-0.271,0.082-0.591,0.244-0.96,0.482l-0.606-0.865c0.707-0.52,1.527-0.78,2.463-0.78c0.777,0,1.384,0.167,1.819,0.501
		S34.695,62.202,34.695,62.789z"/>
	<path fill="#FFFFFF" d="M42.737,64.799c0,1.272-0.354,2.245-1.061,2.918c-0.706,0.674-1.725,1.011-3.053,1.011h-2.157v-7.71h2.384
		c1.227,0,2.182,0.33,2.863,0.991S42.737,63.601,42.737,64.799z M41.408,64.841c0-1.847-0.863-2.769-2.59-2.769h-1.091v5.596h0.896
		C40.479,67.668,41.408,66.726,41.408,64.841z"/>
	<path fill="#FFFFFF" d="M34.979,83.688h-5.226v-0.939l1.988-1.998c0.587-0.602,0.976-1.027,1.168-1.279
		c0.191-0.251,0.331-0.487,0.419-0.709s0.132-0.458,0.132-0.711c0-0.35-0.104-0.624-0.313-0.823
		c-0.21-0.201-0.498-0.301-0.867-0.301c-0.296,0-0.582,0.055-0.857,0.163c-0.276,0.109-0.595,0.307-0.957,0.59l-0.67-0.816
		c0.429-0.362,0.846-0.619,1.25-0.77c0.404-0.151,0.835-0.228,1.292-0.228c0.717,0,1.292,0.188,1.725,0.563
		c0.433,0.374,0.648,0.878,0.648,1.511c0,0.348-0.063,0.678-0.188,0.991c-0.125,0.313-0.316,0.635-0.574,0.968
		c-0.259,0.332-0.688,0.781-1.29,1.347l-1.339,1.298v0.052h3.659V83.688z"/>
	<path fill="#FFFFFF" d="M42.731,79.76c0,1.272-0.353,2.245-1.06,2.918c-0.707,0.674-1.725,1.011-3.054,1.011h-2.156v-7.71h2.384
		c1.227,0,2.181,0.33,2.863,0.991C42.39,77.631,42.731,78.562,42.731,79.76z M41.403,79.802c0-1.847-0.863-2.769-2.59-2.769h-1.092
		v5.596h0.896C40.474,82.629,41.403,81.687,41.403,79.802z"/>
	<g>
		<g>
			<g>
				<g>
					<path fill="none" stroke="#FFFFFF" stroke-miterlimit="10" d="M157.54,67.304c-6.548,3.237-10.898,2.979-17.673-0.051
						c-11.864,0-18.66,31.911-9.787,31.911c7.487,0,8.492-9.33,18.748-9.33c8.29,0,13.157,9.214,18.688,9.214
						C176.387,99.048,167.378,67.304,157.54,67.304z"/>
				</g>
			</g>
			<path fill="#FFFFFF" d="M139.946,83.091c-3.284,0-5.946-2.663-5.946-5.942c0-3.278,2.662-5.94,5.946-5.94
				c3.281,0,5.941,2.662,5.941,5.94C145.887,80.428,143.227,83.091,139.946,83.091z M139.89,74.179
				c-1.694,0-3.065,1.373-3.065,3.059c0,1.695,1.371,3.065,3.065,3.065c1.689,0,3.059-1.37,3.059-3.065
				C142.949,75.552,141.58,74.179,139.89,74.179z"/>
			<path fill="#FFFFFF" d="M153.937,77.604c-0.97-0.303-1.512-1.334-1.205-2.307c0.305-0.968,1.337-1.508,2.307-1.203
				c0.971,0.3,1.513,1.332,1.208,2.303C155.942,77.371,154.908,77.905,153.937,77.604z"/>
			<path fill="#FFFFFF" d="M163.269,79.152c-0.309,0.973-1.339,1.511-2.31,1.208c-0.966-0.302-1.51-1.334-1.207-2.31
				c0.309-0.971,1.343-1.507,2.307-1.208C163.032,77.149,163.573,78.18,163.269,79.152z"/>
			<path fill="#FFFFFF" d="M160.9,74.845c-0.312,0.973-1.339,1.51-2.31,1.208c-0.968-0.302-1.51-1.335-1.21-2.31
				c0.309-0.972,1.344-1.507,2.31-1.209C160.663,72.842,161.202,73.87,160.9,74.845z"/>
			<path fill="#FFFFFF" d="M158.427,80.556c-0.312,0.973-1.342,1.51-2.313,1.208c-0.968-0.302-1.509-1.334-1.207-2.31
				c0.309-0.97,1.341-1.507,2.307-1.209C158.185,78.554,158.726,79.581,158.427,80.556z"/>
		</g>
	</g>
	<circle fill="none" stroke="#FFFFFF" stroke-miterlimit="10" cx="148.885" cy="83.687" r="30.785"/>
</g>
<g id="Layer_2">
</g>
</svg>
