<?xml version="1.0" encoding="utf-8"?>
<!-- Generator: Adobe Illustrator 16.0.0, SVG Export Plug-In . SVG Version: 6.00 Build 0)  -->
<!DOCTYPE svg PUBLIC "-//W3C//DTD SVG 1.1//EN" "http://www.w3.org/Graphics/SVG/1.1/DTD/svg11.dtd">
<svg version="1.1" xmlns="http://www.w3.org/2000/svg" xmlns:xlink="http://www.w3.org/1999/xlink" x="0px" y="0px" width="200px"
	 height="130px" viewBox="0 0 200 130" enable-background="new 0 0 200 130" xml:space="preserve">
<g id="Layer_1">
	<rect x="9.813" y="8.306" fill="#2882A5" width="180.806" height="112.787"/>
	<g>
		<g>
			<path fill="#FFFFFF" d="M24.45,29.9l-3.633-9.492h-0.059c0.068,0.752,0.103,1.646,0.103,2.681V29.9h-1.15V19.192h1.875
				l3.391,8.833h0.059l3.42-8.833h1.86V29.9h-1.245v-6.899c0-0.791,0.034-1.65,0.103-2.578h-0.059L25.454,29.9H24.45z"/>
			<path fill="#FFFFFF" d="M42.548,24.531c0,1.715-0.434,3.063-1.3,4.043c-0.867,0.982-2.072,1.473-3.615,1.473
				c-1.577,0-2.794-0.482-3.651-1.446c-0.857-0.965-1.286-2.325-1.286-4.083c0-1.744,0.43-3.095,1.289-4.055
				c0.859-0.959,2.08-1.439,3.662-1.439c1.538,0,2.739,0.489,3.604,1.465C42.116,21.466,42.548,22.813,42.548,24.531z
				 M34.016,24.531c0,1.451,0.309,2.551,0.926,3.3c0.618,0.75,1.515,1.124,2.692,1.124c1.187,0,2.083-0.373,2.688-1.12
				s0.908-1.848,0.908-3.304c0-1.439-0.302-2.532-0.904-3.277c-0.604-0.744-1.496-1.117-2.677-1.117
				c-1.187,0-2.089,0.375-2.707,1.125C34.324,22.011,34.016,23.102,34.016,24.531z"/>
			<path fill="#FFFFFF" d="M44.936,19.192h3.025c1.421,0,2.449,0.212,3.083,0.638c0.635,0.424,0.952,1.096,0.952,2.014
				c0,0.635-0.177,1.158-0.531,1.571c-0.354,0.412-0.871,0.68-1.549,0.802v0.073c1.626,0.278,2.439,1.133,2.439,2.563
				c0,0.957-0.324,1.704-0.971,2.241S49.833,29.9,48.671,29.9h-3.735V19.192z M46.181,23.777h2.051c0.879,0,1.511-0.138,1.897-0.414
				c0.386-0.275,0.579-0.74,0.579-1.395c0-0.602-0.215-1.034-0.645-1.301c-0.43-0.266-1.113-0.398-2.051-0.398h-1.831V23.777z
				 M46.181,24.832v4.006h2.234c0.864,0,1.515-0.167,1.952-0.501c0.437-0.335,0.655-0.858,0.655-1.571
				c0-0.664-0.224-1.152-0.67-1.465c-0.447-0.313-1.127-0.469-2.04-0.469H46.181z"/>
			<path fill="#FFFFFF" d="M54.655,29.9V19.192H55.9V29.9H54.655z"/>
			<path fill="#FFFFFF" d="M58.837,29.9V19.192h1.245v9.58h4.724V29.9H58.837z"/>
			<path fill="#FFFFFF" d="M72.592,29.9h-5.969V19.192h5.969v1.106h-4.724v3.449h4.438v1.099h-4.438v3.94h4.724V29.9z"/>
			<path fill="#FFFFFF" d="M83.571,24.29h3.64v5.208c-0.566,0.181-1.143,0.317-1.729,0.41c-0.586,0.092-1.265,0.139-2.036,0.139
				c-1.621,0-2.883-0.482-3.787-1.446c-0.903-0.965-1.355-2.315-1.355-4.054c0-1.113,0.223-2.089,0.67-2.927
				c0.446-0.837,1.09-1.477,1.93-1.919c0.84-0.441,1.824-0.662,2.952-0.662c1.143,0,2.207,0.21,3.193,0.629l-0.483,1.1
				c-0.967-0.41-1.897-0.615-2.791-0.615c-1.304,0-2.322,0.388-3.054,1.164s-1.099,1.854-1.099,3.23
				c0,1.445,0.353,2.541,1.058,3.288s1.742,1.12,3.109,1.12c0.742,0,1.467-0.085,2.175-0.256v-3.296h-2.395V24.29z"/>
			<path fill="#FFFFFF" d="M96.513,29.9l-1.333-3.406h-4.292L89.57,29.9h-1.26l4.233-10.752h1.047L97.802,29.9H96.513z
				 M94.792,25.374l-1.245-3.317c-0.161-0.42-0.327-0.936-0.498-1.546c-0.107,0.469-0.261,0.984-0.461,1.546l-1.26,3.317H94.792z"/>
			<path fill="#FFFFFF" d="M104.013,29.9l-3.633-9.492h-0.059c0.068,0.752,0.103,1.646,0.103,2.681V29.9h-1.15V19.192h1.875
				l3.391,8.833h0.059l3.42-8.833h1.86V29.9h-1.245v-6.899c0-0.791,0.034-1.65,0.103-2.578h-0.059l-3.662,9.478H104.013z"/>
			<path fill="#FFFFFF" d="M118.786,29.9h-5.969V19.192h5.969v1.106h-4.724v3.449h4.438v1.099h-4.438v3.94h4.724V29.9z"/>
			<path fill="#FFFFFF" d="M127.202,27.051c0,0.943-0.342,1.678-1.025,2.205s-1.611,0.791-2.783,0.791
				c-1.27,0-2.246-0.163-2.93-0.49v-1.201c0.439,0.186,0.918,0.332,1.436,0.439s1.03,0.16,1.538,0.16
				c0.83,0,1.455-0.157,1.875-0.472c0.42-0.315,0.63-0.753,0.63-1.315c0-0.37-0.075-0.675-0.224-0.911
				c-0.149-0.237-0.398-0.455-0.747-0.655s-0.88-0.428-1.593-0.682c-0.996-0.356-1.708-0.778-2.135-1.268
				c-0.428-0.487-0.641-1.125-0.641-1.911c0-0.825,0.31-1.481,0.93-1.97s1.44-0.732,2.461-0.732c1.064,0,2.043,0.195,2.937,0.586
				l-0.388,1.084c-0.884-0.371-1.743-0.557-2.578-0.557c-0.659,0-1.174,0.142-1.545,0.424c-0.371,0.284-0.557,0.677-0.557,1.18
				c0,0.371,0.068,0.675,0.205,0.912c0.137,0.236,0.367,0.454,0.692,0.651c0.325,0.198,0.822,0.417,1.491,0.655
				c1.123,0.401,1.896,0.831,2.318,1.289C126.99,25.724,127.202,26.318,127.202,27.051z"/>
		</g>
	</g>
	<path fill="#FFFFFF" d="M30.318,46.058v4.988c0,0.57-0.123,1.068-0.366,1.496c-0.245,0.426-0.599,0.756-1.061,0.985
		c-0.463,0.23-1.015,0.346-1.658,0.346c-0.956,0-1.7-0.253-2.23-0.76c-0.531-0.506-0.797-1.202-0.797-2.088v-4.968h1.266v4.879
		c0,0.636,0.147,1.104,0.443,1.407c0.295,0.302,0.749,0.453,1.36,0.453c1.188,0,1.782-0.623,1.782-1.872v-4.867H30.318z"/>
	<path fill="#FFFFFF" d="M37.29,53.768h-1.245v-3.586c0-0.45-0.091-0.785-0.271-1.008c-0.182-0.221-0.469-0.332-0.862-0.332
		c-0.523,0-0.907,0.155-1.149,0.464c-0.242,0.31-0.364,0.829-0.364,1.556v2.906h-1.239v-5.833h0.971l0.174,0.766h0.063
		c0.176-0.277,0.426-0.492,0.749-0.645c0.323-0.15,0.682-0.227,1.075-0.227c1.399,0,2.1,0.712,2.1,2.137V53.768z"/>
	<path fill="#FFFFFF" d="M38.94,46.39c0-0.221,0.061-0.392,0.182-0.512c0.122-0.119,0.295-0.179,0.52-0.179
		c0.218,0,0.388,0.06,0.509,0.179c0.121,0.12,0.182,0.291,0.182,0.512c0,0.211-0.061,0.377-0.182,0.499
		c-0.121,0.12-0.291,0.182-0.509,0.182c-0.225,0-0.397-0.062-0.52-0.182C39.001,46.767,38.94,46.601,38.94,46.39z M40.253,53.768
		h-1.239v-5.833h1.239V53.768z"/>
	<path fill="#FFFFFF" d="M44.198,52.871c0.302,0,0.604-0.048,0.906-0.142v0.933c-0.137,0.06-0.313,0.11-0.529,0.149
		c-0.217,0.041-0.44,0.062-0.673,0.062c-1.174,0-1.761-0.619-1.761-1.856v-3.143h-0.797v-0.549l0.854-0.453l0.422-1.234h0.765v1.297
		h1.661v0.939h-1.661v3.121c0,0.299,0.074,0.52,0.224,0.662S43.955,52.871,44.198,52.871z"/>
	<path fill="#FFFFFF" d="M45.385,47.935h1.35l1.187,3.307c0.18,0.472,0.299,0.915,0.358,1.328h0.042
		c0.032-0.191,0.09-0.428,0.175-0.703c0.084-0.276,0.53-1.586,1.339-3.932h1.34l-2.494,6.608c-0.454,1.212-1.21,1.819-2.268,1.819
		c-0.274,0-0.542-0.031-0.802-0.09v-0.981c0.187,0.042,0.398,0.063,0.638,0.063c0.598,0,1.018-0.346,1.261-1.039l0.216-0.548
		L45.385,47.935z"/>
	<path fill="#FFFFFF" d="M42.695,62.789c0,0.489-0.143,0.896-0.428,1.222c-0.284,0.324-0.686,0.543-1.202,0.656v0.042
		c0.619,0.077,1.083,0.27,1.393,0.577c0.309,0.308,0.464,0.717,0.464,1.227c0,0.741-0.262,1.313-0.786,1.717
		c-0.523,0.401-1.269,0.604-2.235,0.604c-0.854,0-1.575-0.139-2.162-0.418v-1.102c0.326,0.162,0.673,0.287,1.038,0.375
		c0.366,0.088,0.718,0.132,1.055,0.132c0.598,0,1.045-0.11,1.34-0.333c0.295-0.221,0.443-0.563,0.443-1.027
		c0-0.412-0.164-0.714-0.491-0.907c-0.326-0.193-0.84-0.29-1.539-0.29h-0.67v-1.008h0.68c1.23,0,1.846-0.425,1.846-1.275
		c0-0.331-0.106-0.585-0.321-0.766c-0.215-0.178-0.531-0.269-0.949-0.269c-0.292,0-0.573,0.041-0.844,0.124
		c-0.271,0.082-0.591,0.244-0.96,0.482l-0.606-0.865c0.707-0.52,1.527-0.78,2.463-0.78c0.777,0,1.384,0.167,1.819,0.501
		S42.695,62.202,42.695,62.789z"/>
	<path fill="#FFFFFF" d="M50.737,64.799c0,1.272-0.354,2.245-1.061,2.918c-0.706,0.674-1.725,1.011-3.053,1.011h-2.157v-7.71h2.384
		c1.227,0,2.182,0.33,2.863,0.991S50.737,63.601,50.737,64.799z M49.408,64.841c0-1.847-0.863-2.769-2.59-2.769h-1.091v5.596h0.896
		C48.479,67.668,49.408,66.726,49.408,64.841z"/>
	<path fill="#FFFFFF" d="M42.979,83.688h-5.226v-0.939l1.988-1.998c0.587-0.602,0.976-1.027,1.168-1.279
		c0.191-0.251,0.331-0.487,0.419-0.709s0.132-0.458,0.132-0.711c0-0.35-0.104-0.624-0.313-0.823
		c-0.21-0.201-0.498-0.301-0.867-0.301c-0.296,0-0.582,0.055-0.857,0.163c-0.276,0.109-0.595,0.307-0.957,0.59l-0.67-0.816
		c0.429-0.362,0.846-0.619,1.25-0.77c0.404-0.151,0.835-0.228,1.292-0.228c0.717,0,1.292,0.188,1.725,0.563
		c0.433,0.374,0.648,0.878,0.648,1.511c0,0.348-0.063,0.678-0.188,0.991c-0.125,0.313-0.316,0.635-0.574,0.968
		c-0.259,0.332-0.688,0.781-1.29,1.347l-1.339,1.298v0.052h3.659V83.688z"/>
	<path fill="#FFFFFF" d="M50.731,79.76c0,1.272-0.353,2.245-1.06,2.918c-0.707,0.674-1.725,1.011-3.054,1.011h-2.156v-7.71h2.384
		c1.227,0,2.181,0.33,2.863,0.991C50.39,77.631,50.731,78.562,50.731,79.76z M49.403,79.802c0-1.847-0.863-2.769-2.59-2.769h-1.092
		v5.596h0.896C48.474,82.629,49.403,81.687,49.403,79.802z"/>
	<g>
		<g>
			<g>
				<g>
					<path fill="none" stroke="#FFFFFF" stroke-miterlimit="10" d="M157.54,67.304c-6.548,3.237-10.898,2.979-17.673-0.051
						c-11.864,0-18.66,31.911-9.787,31.911c7.487,0,8.492-9.33,18.748-9.33c8.29,0,13.157,9.214,18.688,9.214
						C176.387,99.048,167.378,67.304,157.54,67.304z"/>
				</g>
			</g>
			<path fill="#FFFFFF" d="M139.946,83.091c-3.284,0-5.946-2.663-5.946-5.942c0-3.278,2.662-5.94,5.946-5.94
				c3.281,0,5.941,2.662,5.941,5.94C145.887,80.428,143.227,83.091,139.946,83.091z M139.89,74.179
				c-1.694,0-3.065,1.373-3.065,3.059c0,1.695,1.371,3.065,3.065,3.065c1.689,0,3.059-1.37,3.059-3.065
				C142.949,75.552,141.58,74.179,139.89,74.179z"/>
			<path fill="#FFFFFF" d="M153.937,77.604c-0.97-0.303-1.512-1.334-1.205-2.307c0.305-0.968,1.337-1.508,2.307-1.203
				c0.971,0.3,1.513,1.332,1.208,2.303C155.942,77.371,154.908,77.905,153.937,77.604z"/>
			<path fill="#FFFFFF" d="M163.269,79.152c-0.309,0.973-1.339,1.511-2.31,1.208c-0.966-0.302-1.51-1.334-1.207-2.31
				c0.309-0.971,1.343-1.507,2.307-1.208C163.032,77.149,163.573,78.18,163.269,79.152z"/>
			<path fill="#FFFFFF" d="M160.9,74.845c-0.312,0.973-1.339,1.51-2.31,1.208c-0.968-0.302-1.51-1.335-1.21-2.31
				c0.309-0.972,1.344-1.507,2.31-1.209C160.663,72.842,161.202,73.87,160.9,74.845z"/>
			<path fill="#FFFFFF" d="M158.427,80.556c-0.312,0.973-1.342,1.51-2.313,1.208c-0.968-0.302-1.509-1.334-1.207-2.31
				c0.309-0.97,1.341-1.507,2.307-1.209C158.185,78.554,158.726,79.581,158.427,80.556z"/>
		</g>
	</g>
	<circle fill="none" stroke="#FFFFFF" stroke-miterlimit="10" cx="148.885" cy="83.687" r="30.785"/>
</g>
<g id="Layer_2">
</g>
</svg>
