<?xml version="1.0" encoding="utf-8"?>
<!-- Generator: Adobe Illustrator 16.0.0, SVG Export Plug-In . SVG Version: 6.00 Build 0)  -->
<!DOCTYPE svg PUBLIC "-//W3C//DTD SVG 1.1//EN" "http://www.w3.org/Graphics/SVG/1.1/DTD/svg11.dtd">
<svg version="1.1" xmlns="http://www.w3.org/2000/svg" xmlns:xlink="http://www.w3.org/1999/xlink" x="0px" y="0px" width="200px"
	 height="130px" viewBox="0 0 200 130" enable-background="new 0 0 200 130" xml:space="preserve">
<g id="Layer_1">
	<rect x="9.813" y="8.606" fill="#2882A5" width="180.806" height="112.787"/>
	<g>
		<g>
			<path fill="#FFFFFF" d="M21.647,22.289h3.64v5.208c-0.566,0.181-1.143,0.317-1.729,0.41c-0.586,0.092-1.265,0.139-2.036,0.139
				c-1.621,0-2.883-0.482-3.787-1.446c-0.903-0.965-1.355-2.315-1.355-4.054c0-1.113,0.223-2.089,0.67-2.927
				c0.446-0.837,1.09-1.477,1.93-1.919c0.84-0.441,1.824-0.662,2.952-0.662c1.143,0,2.207,0.21,3.193,0.629l-0.483,1.1
				c-0.967-0.41-1.897-0.615-2.791-0.615c-1.304,0-2.322,0.388-3.054,1.164s-1.099,1.854-1.099,3.23
				c0,1.445,0.353,2.541,1.058,3.288s1.742,1.12,3.109,1.12c0.742,0,1.467-0.085,2.175-0.256v-3.296h-2.395V22.289z"/>
			<path fill="#FFFFFF" d="M34.589,27.899l-1.333-3.406h-4.292l-1.318,3.406h-1.26l4.233-10.752h1.047l4.211,10.752H34.589z
				 M32.868,23.373l-1.245-3.317c-0.161-0.42-0.327-0.936-0.498-1.546c-0.107,0.469-0.261,0.984-0.461,1.546l-1.26,3.317H32.868z"/>
			<path fill="#FFFFFF" d="M42.089,27.899l-3.633-9.492h-0.059c0.068,0.752,0.103,1.646,0.103,2.681v6.812h-1.15V17.191h1.875
				l3.391,8.833h0.059l3.42-8.833h1.86v10.708h-1.245V21c0-0.791,0.034-1.65,0.103-2.578h-0.059l-3.662,9.478H42.089z"/>
			<path fill="#FFFFFF" d="M56.862,27.899h-5.969V17.191h5.969v1.106h-4.724v3.449h4.438v1.099h-4.438v3.94h4.724V27.899z"/>
			<path fill="#FFFFFF" d="M69.863,27.899l-1.333-3.406h-4.292l-1.318,3.406h-1.26l4.233-10.752h1.047l4.211,10.752H69.863z
				 M68.142,23.373l-1.245-3.317c-0.161-0.42-0.327-0.936-0.498-1.546c-0.107,0.469-0.261,0.984-0.461,1.546l-1.26,3.317H68.142z"/>
			<path fill="#FFFFFF" d="M78.667,25.05c0,0.943-0.342,1.678-1.025,2.205s-1.611,0.791-2.783,0.791c-1.27,0-2.246-0.163-2.93-0.49
				v-1.201c0.439,0.186,0.918,0.332,1.436,0.439s1.03,0.16,1.538,0.16c0.83,0,1.455-0.157,1.875-0.472
				c0.42-0.315,0.63-0.753,0.63-1.315c0-0.37-0.075-0.675-0.224-0.911c-0.149-0.237-0.398-0.455-0.747-0.655
				s-0.88-0.428-1.593-0.682c-0.996-0.356-1.708-0.778-2.135-1.268c-0.428-0.487-0.641-1.125-0.641-1.911
				c0-0.825,0.31-1.481,0.93-1.97s1.44-0.732,2.461-0.732c1.064,0,2.043,0.195,2.937,0.586l-0.388,1.084
				c-0.884-0.371-1.743-0.557-2.578-0.557c-0.659,0-1.174,0.142-1.545,0.424c-0.371,0.284-0.557,0.677-0.557,1.18
				c0,0.371,0.068,0.675,0.205,0.912c0.137,0.236,0.367,0.454,0.692,0.651c0.325,0.198,0.822,0.417,1.491,0.655
				c1.123,0.401,1.896,0.831,2.318,1.289C78.455,23.723,78.667,24.317,78.667,25.05z"/>
			<path fill="#FFFFFF" d="M86.899,25.05c0,0.943-0.342,1.678-1.025,2.205s-1.611,0.791-2.783,0.791c-1.27,0-2.246-0.163-2.93-0.49
				v-1.201c0.439,0.186,0.918,0.332,1.436,0.439s1.03,0.16,1.538,0.16c0.83,0,1.455-0.157,1.875-0.472
				c0.42-0.315,0.63-0.753,0.63-1.315c0-0.37-0.075-0.675-0.224-0.911c-0.149-0.237-0.398-0.455-0.747-0.655
				s-0.88-0.428-1.593-0.682c-0.996-0.356-1.708-0.778-2.135-1.268c-0.428-0.487-0.641-1.125-0.641-1.911
				c0-0.825,0.31-1.481,0.93-1.97s1.44-0.732,2.461-0.732c1.064,0,2.043,0.195,2.937,0.586l-0.388,1.084
				c-0.884-0.371-1.743-0.557-2.578-0.557c-0.659,0-1.174,0.142-1.545,0.424c-0.371,0.284-0.557,0.677-0.557,1.18
				c0,0.371,0.068,0.675,0.205,0.912c0.137,0.236,0.367,0.454,0.692,0.651c0.325,0.198,0.822,0.417,1.491,0.655
				c1.123,0.401,1.896,0.831,2.318,1.289C86.688,23.723,86.899,24.317,86.899,25.05z"/>
			<path fill="#FFFFFF" d="M95.058,27.899h-5.969V17.191h5.969v1.106h-4.724v3.449h4.438v1.099h-4.438v3.94h4.724V27.899z"/>
			<path fill="#FFFFFF" d="M100.727,27.899h-1.245v-9.602h-3.391v-1.106h8.027v1.106h-3.391V27.899z"/>
			<path fill="#FFFFFF" d="M111.772,25.05c0,0.943-0.342,1.678-1.025,2.205s-1.611,0.791-2.783,0.791c-1.27,0-2.246-0.163-2.93-0.49
				v-1.201c0.439,0.186,0.918,0.332,1.436,0.439s1.03,0.16,1.538,0.16c0.83,0,1.455-0.157,1.875-0.472
				c0.42-0.315,0.63-0.753,0.63-1.315c0-0.37-0.075-0.675-0.224-0.911c-0.149-0.237-0.398-0.455-0.747-0.655
				s-0.88-0.428-1.593-0.682c-0.996-0.356-1.708-0.778-2.135-1.268c-0.428-0.487-0.641-1.125-0.641-1.911
				c0-0.825,0.31-1.481,0.93-1.97s1.44-0.732,2.461-0.732c1.064,0,2.043,0.195,2.937,0.586l-0.388,1.084
				c-0.884-0.371-1.743-0.557-2.578-0.557c-0.659,0-1.174,0.142-1.545,0.424c-0.371,0.284-0.557,0.677-0.557,1.18
				c0,0.371,0.068,0.675,0.205,0.912c0.137,0.236,0.367,0.454,0.692,0.651c0.325,0.198,0.822,0.417,1.491,0.655
				c1.123,0.401,1.896,0.831,2.318,1.289C111.561,23.723,111.772,24.317,111.772,25.05z"/>
		</g>
	</g>
	<circle fill="none" stroke="#FFFFFF" stroke-miterlimit="10" cx="148.352" cy="80.295" r="30.509"/>
	<g>
		<g>
			<g>
				<rect x="127.891" y="77.068" fill="#FFFFFF" width="22.054" height="2.72"/>
				<path fill="#FFFFFF" d="M145.167,69.325c0,0,6.433-3.994,6.37-6.654c1.786,0.517,0.996,7.504-3.893,9.53L145.167,69.325z"/>
				<path fill="#FFFFFF" d="M132.66,69.325c0,0-6.436-3.994-6.373-6.654c-1.786,0.517-0.993,7.504,3.897,9.53L132.66,69.325z"/>
			</g>
		</g>
		<g>
			<path fill="none" stroke="#FFFFFF" stroke-width="1.18" stroke-miterlimit="10" d="M128.644,77.631h8.973V66.999
				C132.56,67.67,128.644,72.169,128.644,77.631z"/>
			<path fill="none" stroke="#FFFFFF" stroke-width="1.18" stroke-miterlimit="10" d="M140.218,66.999v10.632h8.97
				C149.188,72.169,145.275,67.67,140.218,66.999z"/>
			<path fill="#FFFFFF" d="M140.218,66.999v-1.502h-2.602v1.502c0.426-0.058,0.857-0.097,1.3-0.097S139.792,66.941,140.218,66.999z"
				/>
			<rect x="137.617" y="77.631" fill="#FFFFFF" width="2.602" height="0.618"/>
		</g>
		<rect x="138.266" y="67.532" fill="#FFFFFF" width="1.303" height="4.876"/>
		<rect x="138.266" y="72.844" fill="#FFFFFF" width="1.303" height="4.026"/>
	</g>
	<g>
		<g>
			<polygon fill="#FFFFFF" points="166.942,81.8 149.011,100.523 150.38,101.952 168.31,83.231 			"/>
			<g>
				<path fill="#FFFFFF" d="M161.041,78.215c0.202,1.299,0.724,3.122,2.042,4.845c-0.993,1.038-2,2.09-2.673,2.793
					c-1.678-1.396-3.385-1.931-4.608-2.125c0.409-0.869,1.104-2.051,2.23-3.229C159.126,79.357,160.222,78.644,161.041,78.215
					 M162.102,76.504c0,0-2.46,0.61-4.921,3.178c-2.459,2.572-3.045,5.14-3.045,5.14s0.146-0.018,0.403-0.018
					c0.978,0,3.571,0.255,5.919,2.705c0,0,2.305-2.406,4.215-4.404C161.867,80.173,162.102,76.504,162.102,76.504L162.102,76.504z"
					/>
			</g>
			<path fill="#FFFFFF" d="M162.102,76.504c0,0-2.46,0.61-4.921,3.178c-2.459,2.572-3.045,5.14-3.045,5.14l1.432,0.063
				c2.259-4.388,6.628-6.921,6.628-6.921C162.065,77.082,162.102,76.504,162.102,76.504z"/>
			<g>
				<path fill="#FFFFFF" d="M167.086,87.229c1.678,1.396,3.385,1.93,4.608,2.124c-0.409,0.87-1.104,2.053-2.23,3.229
					c-1.094,1.142-2.19,1.856-3.008,2.284c-0.203-1.298-0.726-3.12-2.043-4.845C165.406,88.984,166.413,87.933,167.086,87.229
					 M167.039,85.573c0,0-2.305,2.405-4.216,4.404c2.805,2.934,2.572,6.601,2.572,6.601s2.461-0.611,4.921-3.179
					c2.459-2.569,3.044-5.14,3.044-5.14s-0.146,0.018-0.405,0.018C171.976,88.277,169.384,88.021,167.039,85.573L167.039,85.573z
					 M173.36,88.26h0.005H173.36z"/>
			</g>
		</g>
	</g>
	<g>
		<g>
			<path fill="#FFFFFF" d="M27.03,48.875c0,0.698-0.252,1.246-0.757,1.644s-1.201,0.597-2.089,0.597s-1.615-0.139-2.181-0.414
				v-1.214c0.358,0.169,0.738,0.301,1.142,0.397c0.402,0.097,0.778,0.145,1.125,0.145c0.508,0,0.884-0.096,1.125-0.289
				c0.242-0.193,0.363-0.453,0.363-0.779c0-0.293-0.111-0.543-0.333-0.746c-0.222-0.205-0.68-0.446-1.375-0.726
				c-0.716-0.29-1.221-0.621-1.515-0.993c-0.293-0.373-0.44-0.82-0.44-1.344c0-0.654,0.233-1.17,0.698-1.547
				c0.465-0.375,1.09-0.563,1.875-0.563c0.752,0,1.5,0.165,2.245,0.494l-0.408,1.048c-0.698-0.294-1.321-0.441-1.869-0.441
				c-0.416,0-0.73,0.091-0.945,0.271c-0.215,0.182-0.322,0.42-0.322,0.717c0,0.205,0.043,0.379,0.129,0.523
				c0.086,0.146,0.228,0.283,0.424,0.412s0.551,0.299,1.063,0.51c0.577,0.24,0.999,0.464,1.268,0.672
				c0.269,0.207,0.465,0.441,0.591,0.703S27.03,48.521,27.03,48.875z"/>
			<path fill="#FFFFFF" d="M31.429,51.115c-0.752,0-1.335-0.271-1.751-0.812h-0.075c0.05,0.501,0.075,0.806,0.075,0.913v2.434
				h-1.262v-8.584h1.021c0.029,0.111,0.088,0.377,0.177,0.795h0.064c0.394-0.602,0.985-0.902,1.772-0.902
				c0.741,0,1.319,0.27,1.732,0.807c0.414,0.537,0.621,1.291,0.621,2.261s-0.21,1.728-0.631,2.272
				C32.751,50.843,32.17,51.115,31.429,51.115z M31.123,45.99c-0.501,0-0.867,0.147-1.099,0.441
				c-0.23,0.293-0.346,0.762-0.346,1.406v0.188c0,0.724,0.115,1.247,0.344,1.571s0.604,0.486,1.123,0.486
				c0.437,0,0.773-0.18,1.01-0.537c0.236-0.358,0.354-0.869,0.354-1.531c0-0.666-0.117-1.17-0.352-1.512
				C31.922,46.162,31.578,45.99,31.123,45.99z"/>
			<path fill="#FFFFFF" d="M38.283,44.959c0.254,0,0.464,0.019,0.628,0.055l-0.124,1.176c-0.179-0.043-0.365-0.064-0.559-0.064
				c-0.505,0-0.914,0.164-1.227,0.494c-0.313,0.33-0.47,0.758-0.47,1.283v3.105H35.27v-5.941h0.988l0.167,1.048h0.064
				c0.197-0.354,0.454-0.636,0.771-0.843C37.576,45.063,37.917,44.959,38.283,44.959z"/>
			<path fill="#FFFFFF" d="M39.937,43.493c0-0.226,0.062-0.399,0.186-0.521c0.123-0.122,0.3-0.184,0.529-0.184
				c0.222,0,0.395,0.062,0.518,0.184c0.124,0.121,0.186,0.295,0.186,0.521c0,0.215-0.062,0.384-0.186,0.507
				c-0.123,0.125-0.296,0.186-0.518,0.186c-0.229,0-0.406-0.061-0.529-0.186C39.999,43.877,39.937,43.708,39.937,43.493z
				 M41.274,51.008h-1.262v-5.941h1.262V51.008z"/>
			<path fill="#FFFFFF" d="M45.292,50.094c0.308,0,0.616-0.048,0.924-0.145V50.9c-0.14,0.061-0.319,0.111-0.54,0.152
				c-0.22,0.041-0.448,0.063-0.685,0.063c-1.196,0-1.794-0.631-1.794-1.891v-3.201h-0.811v-0.559l0.87-0.463l0.43-1.256h0.779v1.32
				h1.692v0.957h-1.692v3.18c0,0.304,0.076,0.529,0.229,0.674C44.845,50.021,45.045,50.094,45.292,50.094z"/>
			<path fill="#FFFFFF" d="M49.997,51.115c-0.924,0-1.646-0.27-2.167-0.809c-0.521-0.539-0.781-1.281-0.781-2.227
				c0-0.971,0.242-1.732,0.725-2.288s1.147-0.833,1.993-0.833c0.784,0,1.404,0.238,1.858,0.715s0.682,1.131,0.682,1.966v0.683
				h-3.958c0.018,0.576,0.174,1.02,0.467,1.328c0.293,0.311,0.707,0.465,1.241,0.465c0.351,0,0.678-0.033,0.98-0.1
				c0.302-0.065,0.627-0.176,0.975-0.33v1.026c-0.308,0.147-0.62,0.251-0.935,0.312S50.402,51.115,49.997,51.115z M49.766,45.916
				c-0.401,0-0.723,0.127-0.964,0.381c-0.242,0.254-0.386,0.625-0.433,1.111h2.696c-0.007-0.49-0.125-0.861-0.354-1.113
				C50.482,46.041,50.167,45.916,49.766,45.916z"/>
			<path fill="#FFFFFF" d="M57.731,49.315c0,0.58-0.211,1.024-0.634,1.335c-0.422,0.31-1.028,0.465-1.815,0.465
				c-0.792,0-1.427-0.121-1.907-0.36v-1.091c0.698,0.322,1.348,0.484,1.95,0.484c0.777,0,1.166-0.234,1.166-0.704
				c0-0.15-0.043-0.276-0.129-0.376s-0.228-0.204-0.424-0.312s-0.471-0.229-0.822-0.365c-0.684-0.265-1.146-0.53-1.389-0.795
				c-0.241-0.265-0.362-0.608-0.362-1.031c0-0.509,0.205-0.903,0.615-1.185c0.41-0.281,0.967-0.422,1.673-0.422
				c0.698,0,1.359,0.143,1.982,0.425l-0.408,0.95c-0.641-0.265-1.18-0.396-1.617-0.396c-0.666,0-0.999,0.189-0.999,0.568
				c0,0.187,0.087,0.344,0.261,0.473c0.173,0.129,0.552,0.307,1.136,0.532c0.491,0.19,0.847,0.363,1.069,0.521
				c0.222,0.158,0.387,0.34,0.494,0.545C57.678,48.783,57.731,49.029,57.731,49.315z"/>
			<path fill="#FFFFFF" d="M64.322,51.008h-1.268v-3.652c0-0.459-0.092-0.801-0.277-1.026c-0.184-0.226-0.477-0.339-0.878-0.339
				c-0.53,0-0.919,0.158-1.168,0.477c-0.249,0.316-0.374,0.848-0.374,1.592v2.949h-1.262V42.65h1.262v2.121
				c0,0.34-0.021,0.703-0.064,1.09h0.081c0.172-0.286,0.411-0.508,0.717-0.666c0.307-0.157,0.664-0.236,1.072-0.236
				c1.439,0,2.159,0.726,2.159,2.176V51.008z"/>
			<path fill="#FFFFFF" d="M68.672,51.115c-0.924,0-1.646-0.27-2.167-0.809c-0.521-0.539-0.781-1.281-0.781-2.227
				c0-0.971,0.242-1.732,0.725-2.288s1.147-0.833,1.993-0.833c0.784,0,1.404,0.238,1.858,0.715s0.682,1.131,0.682,1.966v0.683
				h-3.958c0.018,0.576,0.174,1.02,0.467,1.328c0.293,0.311,0.707,0.465,1.241,0.465c0.351,0,0.678-0.033,0.98-0.1
				c0.302-0.065,0.627-0.176,0.975-0.33v1.026c-0.308,0.147-0.62,0.251-0.935,0.312S69.077,51.115,68.672,51.115z M68.441,45.916
				c-0.401,0-0.723,0.127-0.964,0.381c-0.242,0.254-0.386,0.625-0.433,1.111h2.696c-0.007-0.49-0.125-0.861-0.354-1.113
				C69.158,46.041,68.842,45.916,68.441,45.916z"/>
			<path fill="#FFFFFF" d="M75.01,51.115c-0.924,0-1.646-0.27-2.167-0.809c-0.521-0.539-0.781-1.281-0.781-2.227
				c0-0.971,0.242-1.732,0.725-2.288s1.147-0.833,1.993-0.833c0.784,0,1.404,0.238,1.858,0.715s0.682,1.131,0.682,1.966v0.683
				h-3.958c0.018,0.576,0.174,1.02,0.467,1.328c0.293,0.311,0.707,0.465,1.241,0.465c0.351,0,0.678-0.033,0.98-0.1
				c0.302-0.065,0.627-0.176,0.975-0.33v1.026c-0.308,0.147-0.62,0.251-0.935,0.312S75.415,51.115,75.01,51.115z M74.779,45.916
				c-0.401,0-0.723,0.127-0.964,0.381c-0.242,0.254-0.386,0.625-0.433,1.111h2.696c-0.007-0.49-0.125-0.861-0.354-1.113
				C75.496,46.041,75.18,45.916,74.779,45.916z"/>
			<path fill="#FFFFFF" d="M80.967,50.094c0.308,0,0.616-0.048,0.924-0.145V50.9c-0.14,0.061-0.319,0.111-0.54,0.152
				c-0.22,0.041-0.448,0.063-0.685,0.063c-1.196,0-1.794-0.631-1.794-1.891v-3.201h-0.811v-0.559l0.87-0.463l0.43-1.256h0.779v1.32
				h1.692v0.957H80.14v3.18c0,0.304,0.076,0.529,0.229,0.674C80.52,50.021,80.72,50.094,80.967,50.094z"/>
			<path fill="#FFFFFF" d="M87.068,49.315c0,0.58-0.211,1.024-0.634,1.335c-0.422,0.31-1.028,0.465-1.815,0.465
				c-0.792,0-1.427-0.121-1.907-0.36v-1.091c0.698,0.322,1.348,0.484,1.95,0.484c0.777,0,1.166-0.234,1.166-0.704
				c0-0.15-0.043-0.276-0.129-0.376s-0.228-0.204-0.424-0.312s-0.471-0.229-0.822-0.365c-0.684-0.265-1.146-0.53-1.389-0.795
				c-0.241-0.265-0.362-0.608-0.362-1.031c0-0.509,0.205-0.903,0.615-1.185c0.41-0.281,0.967-0.422,1.673-0.422
				c0.698,0,1.359,0.143,1.982,0.425l-0.408,0.95c-0.641-0.265-1.18-0.396-1.617-0.396c-0.666,0-0.999,0.189-0.999,0.568
				c0,0.187,0.087,0.344,0.261,0.473c0.173,0.129,0.552,0.307,1.136,0.532c0.491,0.19,0.847,0.363,1.069,0.521
				c0.222,0.158,0.387,0.34,0.494,0.545C87.015,48.783,87.068,49.029,87.068,49.315z"/>
			<path fill="#FFFFFF" d="M26.977,59.959c0,0.498-0.145,0.912-0.435,1.244c-0.29,0.331-0.698,0.554-1.225,0.668v0.043
				c0.63,0.079,1.103,0.275,1.418,0.588c0.315,0.314,0.473,0.73,0.473,1.25c0,0.755-0.267,1.338-0.8,1.748s-1.292,0.615-2.277,0.615
				c-0.87,0-1.604-0.143-2.202-0.425v-1.122c0.333,0.164,0.686,0.291,1.058,0.381s0.73,0.135,1.074,0.135
				c0.609,0,1.063-0.113,1.364-0.339s0.451-0.575,0.451-1.048c0-0.418-0.167-0.727-0.5-0.924c-0.333-0.196-0.856-0.295-1.568-0.295
				h-0.682v-1.025h0.693c1.253,0,1.88-0.434,1.88-1.301c0-0.336-0.109-0.596-0.328-0.778S24.83,59.1,24.404,59.1
				c-0.297,0-0.583,0.043-0.859,0.127s-0.602,0.248-0.978,0.491l-0.618-0.881c0.72-0.53,1.556-0.795,2.508-0.795
				c0.792,0,1.409,0.17,1.853,0.511C26.754,58.893,26.977,59.361,26.977,59.959z"/>
			<path fill="#FFFFFF" d="M35.167,62.006c0,1.297-0.36,2.287-1.08,2.973s-1.756,1.029-3.11,1.029h-2.197v-7.854h2.428
				c1.25,0,2.222,0.337,2.917,1.01C34.82,59.838,35.167,60.785,35.167,62.006z M33.814,62.049c0-1.88-0.879-2.82-2.637-2.82h-1.112
				v5.699h0.913C32.869,64.928,33.814,63.969,33.814,62.049z"/>
			<path fill="#FFFFFF" d="M43.106,66.008l-2.277-6.559h-0.043c0.061,0.975,0.091,1.887,0.091,2.739v3.819h-1.166v-7.854h1.81
				l2.181,6.247h0.032l2.245-6.247h1.815v7.854H46.56v-3.884c0-0.39,0.01-0.899,0.029-1.525c0.02-0.626,0.037-1.007,0.051-1.139
				h-0.043l-2.358,6.548H43.106z"/>
			<path fill="#FFFFFF" d="M54.998,63.026c0,0.97-0.249,1.728-0.747,2.272c-0.498,0.544-1.19,0.816-2.079,0.816
				c-0.555,0-1.045-0.126-1.472-0.377c-0.426-0.25-0.754-0.609-0.983-1.079s-0.344-1.013-0.344-1.633
				c0-0.964,0.247-1.716,0.741-2.256s1.19-0.812,2.089-0.812c0.859,0,1.54,0.277,2.041,0.83S54.998,62.088,54.998,63.026z
				 M50.674,63.026c0,1.372,0.507,2.058,1.52,2.058c1.002,0,1.504-0.686,1.504-2.058c0-1.356-0.505-2.036-1.515-2.036
				c-0.53,0-0.914,0.176-1.152,0.527C50.793,61.868,50.674,62.371,50.674,63.026z"/>
			<path fill="#FFFFFF" d="M58.451,66.115c-0.741,0-1.319-0.27-1.735-0.807s-0.623-1.291-0.623-2.261
				c0-0.974,0.21-1.731,0.631-2.274c0.421-0.543,1.004-0.814,1.749-0.814c0.781,0,1.375,0.289,1.783,0.865h0.064
				c-0.061-0.426-0.091-0.763-0.091-1.01V57.65h1.268v8.357h-0.988l-0.22-0.779h-0.059C59.824,65.819,59.232,66.115,58.451,66.115z
				 M58.79,65.094c0.519,0,0.897-0.146,1.133-0.438c0.236-0.291,0.358-0.766,0.365-1.42v-0.178c0-0.748-0.122-1.28-0.365-1.596
				c-0.244-0.314-0.625-0.473-1.144-0.473c-0.444,0-0.786,0.18-1.026,0.541c-0.24,0.359-0.36,0.872-0.36,1.538
				c0,0.659,0.116,1.161,0.349,1.507S58.324,65.094,58.79,65.094z"/>
			<path fill="#FFFFFF" d="M65.896,66.115c-0.924,0-1.646-0.27-2.167-0.809c-0.521-0.539-0.781-1.281-0.781-2.227
				c0-0.971,0.242-1.732,0.725-2.288s1.147-0.833,1.993-0.833c0.784,0,1.404,0.238,1.858,0.715s0.682,1.131,0.682,1.966v0.683
				h-3.958c0.018,0.576,0.174,1.02,0.467,1.328c0.293,0.311,0.707,0.465,1.241,0.465c0.351,0,0.678-0.033,0.98-0.1
				c0.302-0.065,0.627-0.176,0.975-0.33v1.026c-0.308,0.147-0.62,0.251-0.935,0.312S66.3,66.115,65.896,66.115z M65.665,60.916
				c-0.401,0-0.723,0.127-0.964,0.381c-0.242,0.254-0.386,0.625-0.433,1.111h2.696c-0.007-0.49-0.125-0.861-0.354-1.113
				C66.381,61.041,66.065,60.916,65.665,60.916z"/>
			<path fill="#FFFFFF" d="M70.901,66.008h-1.262V57.65h1.262V66.008z"/>
			<path fill="#FFFFFF" d="M76.697,64.315c0,0.58-0.211,1.024-0.634,1.335c-0.422,0.31-1.028,0.465-1.815,0.465
				c-0.792,0-1.427-0.121-1.907-0.36v-1.091c0.698,0.322,1.348,0.484,1.95,0.484c0.777,0,1.166-0.234,1.166-0.704
				c0-0.15-0.043-0.276-0.129-0.376s-0.228-0.204-0.424-0.312s-0.471-0.229-0.822-0.365c-0.684-0.265-1.146-0.53-1.389-0.795
				c-0.241-0.265-0.362-0.608-0.362-1.031c0-0.509,0.205-0.903,0.615-1.185c0.41-0.281,0.967-0.422,1.673-0.422
				c0.698,0,1.359,0.143,1.982,0.425l-0.408,0.95c-0.641-0.265-1.18-0.396-1.617-0.396c-0.666,0-0.999,0.189-0.999,0.568
				c0,0.187,0.087,0.344,0.261,0.473c0.173,0.129,0.552,0.307,1.136,0.532c0.491,0.19,0.847,0.363,1.069,0.521
				c0.222,0.158,0.387,0.34,0.494,0.545C76.643,63.783,76.697,64.029,76.697,64.315z"/>
			<path fill="#FFFFFF" d="M25.843,74.143c-0.738,0-1.318,0.262-1.74,0.785c-0.422,0.522-0.634,1.244-0.634,2.164
				c0,0.963,0.203,1.691,0.61,2.186c0.406,0.494,0.994,0.742,1.764,0.742c0.333,0,0.655-0.033,0.967-0.1s0.636-0.151,0.972-0.256
				v1.102c-0.616,0.232-1.314,0.35-2.095,0.35c-1.149,0-2.032-0.349-2.648-1.045c-0.616-0.697-0.924-1.693-0.924-2.989
				c0-0.816,0.149-1.53,0.449-2.144c0.299-0.611,0.731-1.081,1.297-1.406c0.566-0.326,1.23-0.489,1.993-0.489
				c0.802,0,1.543,0.169,2.224,0.505l-0.462,1.068c-0.265-0.125-0.545-0.234-0.84-0.33C26.479,74.19,26.169,74.143,25.843,74.143z"
				/>
			<path fill="#FFFFFF" d="M34.609,78.026c0,0.97-0.249,1.728-0.747,2.272c-0.498,0.544-1.19,0.816-2.079,0.816
				c-0.555,0-1.045-0.126-1.472-0.377c-0.426-0.25-0.754-0.609-0.983-1.079s-0.344-1.013-0.344-1.633
				c0-0.964,0.247-1.716,0.741-2.256s1.19-0.812,2.089-0.812c0.859,0,1.54,0.277,2.041,0.83S34.609,77.088,34.609,78.026z
				 M30.285,78.026c0,1.372,0.507,2.058,1.52,2.058c1.002,0,1.504-0.686,1.504-2.058c0-1.356-0.505-2.036-1.515-2.036
				c-0.53,0-0.914,0.176-1.152,0.527C30.404,76.868,30.285,77.371,30.285,78.026z"/>
			<path fill="#FFFFFF" d="M41.285,81.008h-1.268v-3.652c0-0.459-0.092-0.801-0.277-1.026c-0.184-0.226-0.477-0.339-0.878-0.339
				c-0.534,0-0.924,0.158-1.171,0.473c-0.247,0.315-0.371,0.844-0.371,1.585v2.96h-1.262v-5.941h0.988l0.177,0.779h0.064
				c0.179-0.283,0.433-0.502,0.763-0.655s0.695-0.231,1.096-0.231c1.425,0,2.138,0.726,2.138,2.176V81.008z"/>
			<path fill="#FFFFFF" d="M45.437,81.115c-0.899,0-1.582-0.263-2.049-0.787c-0.468-0.525-0.701-1.277-0.701-2.259
				c0-0.999,0.244-1.767,0.733-2.304c0.488-0.537,1.195-0.807,2.119-0.807c0.626,0,1.19,0.117,1.692,0.35l-0.381,1.016
				c-0.534-0.208-0.974-0.313-1.321-0.313c-1.028,0-1.542,0.683-1.542,2.047c0,0.666,0.128,1.166,0.384,1.502
				c0.256,0.334,0.631,0.502,1.125,0.502c0.562,0,1.094-0.141,1.595-0.42v1.102c-0.226,0.133-0.466,0.228-0.723,0.285
				C46.113,81.086,45.802,81.115,45.437,81.115z"/>
			<path fill="#FFFFFF" d="M51.082,81.115c-0.924,0-1.646-0.27-2.167-0.809c-0.521-0.539-0.781-1.281-0.781-2.227
				c0-0.971,0.242-1.732,0.725-2.288s1.147-0.833,1.993-0.833c0.784,0,1.404,0.238,1.858,0.715s0.682,1.131,0.682,1.966v0.683
				h-3.958c0.018,0.576,0.174,1.02,0.467,1.328c0.293,0.311,0.707,0.465,1.241,0.465c0.351,0,0.678-0.033,0.98-0.1
				c0.302-0.065,0.627-0.176,0.975-0.33v1.026c-0.308,0.147-0.62,0.251-0.935,0.312S51.487,81.115,51.082,81.115z M50.851,75.916
				c-0.401,0-0.723,0.127-0.964,0.381c-0.242,0.254-0.386,0.625-0.433,1.111h2.696c-0.007-0.49-0.125-0.861-0.354-1.113
				C51.567,76.041,51.252,75.916,50.851,75.916z"/>
			<path fill="#FFFFFF" d="M57.839,81.115c-0.752,0-1.335-0.271-1.751-0.812h-0.075c0.05,0.501,0.075,0.806,0.075,0.913v2.434
				h-1.262v-8.584h1.021c0.029,0.111,0.088,0.377,0.177,0.795h0.064c0.394-0.602,0.985-0.902,1.772-0.902
				c0.741,0,1.319,0.27,1.732,0.807c0.414,0.537,0.621,1.291,0.621,2.261s-0.21,1.728-0.631,2.272
				C59.161,80.843,58.58,81.115,57.839,81.115z M57.533,75.99c-0.501,0-0.867,0.147-1.099,0.441
				c-0.23,0.293-0.346,0.762-0.346,1.406v0.188c0,0.724,0.115,1.247,0.344,1.571s0.604,0.486,1.123,0.486
				c0.437,0,0.773-0.18,1.01-0.537c0.236-0.358,0.354-0.869,0.354-1.531c0-0.666-0.117-1.17-0.352-1.512
				C58.332,76.162,57.987,75.99,57.533,75.99z"/>
			<path fill="#FFFFFF" d="M63.892,80.094c0.308,0,0.616-0.048,0.924-0.145V80.9c-0.14,0.061-0.319,0.111-0.54,0.152
				c-0.22,0.041-0.448,0.063-0.685,0.063c-1.196,0-1.794-0.631-1.794-1.891v-3.201h-0.811v-0.559l0.87-0.463l0.43-1.256h0.779v1.32
				h1.692v0.957h-1.692v3.18c0,0.304,0.076,0.529,0.229,0.674C63.445,80.021,63.645,80.094,63.892,80.094z"/>
			<path fill="#FFFFFF" d="M73.866,81.008l-0.784-2.182H70.08l-0.768,2.182h-1.354l2.938-7.885h1.396l2.938,7.885H73.866z
				 M72.744,77.721l-0.736-2.139c-0.054-0.143-0.128-0.368-0.223-0.676c-0.095-0.309-0.161-0.534-0.196-0.678
				c-0.097,0.441-0.238,0.922-0.424,1.445l-0.709,2.047H72.744z"/>
			<path fill="#FFFFFF" d="M79.146,74.959c0.254,0,0.464,0.019,0.628,0.055l-0.124,1.176c-0.179-0.043-0.365-0.064-0.559-0.064
				c-0.505,0-0.914,0.164-1.227,0.494c-0.313,0.33-0.47,0.758-0.47,1.283v3.105h-1.262v-5.941h0.988l0.167,1.048h0.064
				c0.197-0.354,0.454-0.636,0.771-0.843C78.439,75.063,78.781,74.959,79.146,74.959z"/>
			<path fill="#FFFFFF" d="M83.088,80.094c0.308,0,0.616-0.048,0.924-0.145V80.9c-0.14,0.061-0.319,0.111-0.54,0.152
				c-0.22,0.041-0.448,0.063-0.685,0.063c-1.196,0-1.794-0.631-1.794-1.891v-3.201h-0.811v-0.559l0.87-0.463l0.43-1.256h0.779v1.32
				h1.692v0.957h-1.692v3.18c0,0.304,0.076,0.529,0.229,0.674C82.642,80.021,82.841,80.094,83.088,80.094z"/>
			<path fill="#FFFFFF" d="M27.374,96.008l-0.784-2.182h-3.002l-0.768,2.182h-1.354l2.938-7.885H25.8l2.938,7.885H27.374z
				 M26.251,92.721l-0.736-2.139c-0.054-0.143-0.128-0.368-0.223-0.676c-0.095-0.309-0.161-0.534-0.196-0.678
				C25,89.67,24.858,90.15,24.672,90.674l-0.709,2.047H26.251z"/>
			<path fill="#FFFFFF" d="M34.867,96.008h-1.268v-3.652c0-0.459-0.092-0.801-0.277-1.026c-0.184-0.226-0.477-0.339-0.878-0.339
				c-0.534,0-0.924,0.158-1.171,0.473c-0.247,0.315-0.371,0.844-0.371,1.585v2.96h-1.262v-5.941h0.988l0.177,0.779h0.064
				c0.179-0.283,0.433-0.502,0.763-0.655s0.695-0.231,1.096-0.231c1.425,0,2.138,0.726,2.138,2.176V96.008z"/>
			<path fill="#FFFFFF" d="M36.548,88.493c0-0.226,0.062-0.399,0.186-0.521c0.123-0.122,0.3-0.184,0.529-0.184
				c0.222,0,0.395,0.062,0.518,0.184c0.124,0.121,0.186,0.295,0.186,0.521c0,0.215-0.062,0.384-0.186,0.507
				c-0.123,0.125-0.296,0.186-0.518,0.186c-0.229,0-0.406-0.061-0.529-0.186C36.609,88.877,36.548,88.708,36.548,88.493z
				 M37.885,96.008h-1.262v-5.941h1.262V96.008z"/>
			<path fill="#FFFFFF" d="M44.696,96.008h-1.268v-3.664c0-0.454-0.086-0.793-0.258-1.018c-0.172-0.224-0.44-0.336-0.806-0.336
				c-0.487,0-0.844,0.158-1.071,0.477c-0.228,0.316-0.341,0.844-0.341,1.581v2.96H39.69v-5.941h0.988l0.177,0.779h0.064
				c0.165-0.283,0.404-0.502,0.717-0.655c0.313-0.153,0.658-0.231,1.034-0.231c0.913,0,1.518,0.313,1.815,0.936h0.086
				c0.175-0.294,0.422-0.523,0.741-0.688c0.319-0.165,0.684-0.248,1.096-0.248c0.709,0,1.226,0.18,1.549,0.537
				c0.324,0.358,0.486,0.904,0.486,1.639v3.873h-1.262v-3.664c0-0.454-0.087-0.793-0.26-1.018c-0.174-0.224-0.443-0.336-0.809-0.336
				c-0.491,0-0.85,0.154-1.077,0.459c-0.227,0.307-0.341,0.777-0.341,1.41V96.008z"/>
			<path fill="#FFFFFF" d="M53.923,96.008l-0.252-0.828h-0.043c-0.287,0.362-0.575,0.608-0.865,0.738
				c-0.29,0.131-0.663,0.197-1.117,0.197c-0.583,0-1.039-0.158-1.367-0.473c-0.327-0.315-0.491-0.762-0.491-1.338
				c0-0.612,0.228-1.074,0.682-1.386s1.147-0.481,2.079-0.511l1.026-0.031V92.06c0-0.38-0.088-0.663-0.266-0.851
				c-0.177-0.189-0.452-0.283-0.824-0.283c-0.304,0-0.596,0.045-0.875,0.135s-0.548,0.195-0.806,0.316l-0.408-0.902
				c0.322-0.168,0.675-0.296,1.058-0.383c0.383-0.088,0.745-0.133,1.085-0.133c0.755,0,1.326,0.165,1.711,0.494
				c0.385,0.33,0.577,0.848,0.577,1.553v4.002H53.923z M52.043,95.148c0.458,0,0.826-0.129,1.104-0.385
				c0.278-0.256,0.417-0.615,0.417-1.076v-0.516l-0.763,0.031c-0.594,0.021-1.027,0.121-1.297,0.299
				c-0.27,0.178-0.405,0.448-0.405,0.813c0,0.265,0.079,0.47,0.236,0.614C51.492,95.076,51.729,95.148,52.043,95.148z"/>
			<path fill="#FFFFFF" d="M58.8,95.094c0.308,0,0.616-0.048,0.924-0.145V95.9c-0.14,0.061-0.319,0.111-0.54,0.152
				c-0.22,0.041-0.448,0.063-0.685,0.063c-1.196,0-1.794-0.631-1.794-1.891v-3.201h-0.811v-0.559l0.87-0.463l0.43-1.256h0.779v1.32
				h1.692v0.957h-1.692v3.18c0,0.304,0.076,0.529,0.229,0.674C58.354,95.021,58.553,95.094,58.8,95.094z"/>
			<path fill="#FFFFFF" d="M60.836,88.493c0-0.226,0.062-0.399,0.186-0.521c0.123-0.122,0.3-0.184,0.529-0.184
				c0.222,0,0.395,0.062,0.518,0.184c0.124,0.121,0.186,0.295,0.186,0.521c0,0.215-0.062,0.384-0.186,0.507
				c-0.123,0.125-0.296,0.186-0.518,0.186c-0.229,0-0.406-0.061-0.529-0.186C60.897,88.877,60.836,88.708,60.836,88.493z
				 M62.173,96.008h-1.262v-5.941h1.262V96.008z"/>
			<path fill="#FFFFFF" d="M69.247,93.026c0,0.97-0.249,1.728-0.747,2.272c-0.498,0.544-1.19,0.816-2.079,0.816
				c-0.555,0-1.045-0.126-1.472-0.377c-0.426-0.25-0.754-0.609-0.983-1.079s-0.344-1.013-0.344-1.633
				c0-0.964,0.247-1.716,0.741-2.256s1.19-0.812,2.089-0.812c0.859,0,1.54,0.277,2.041,0.83S69.247,92.088,69.247,93.026z
				 M64.923,93.026c0,1.372,0.507,2.058,1.52,2.058c1.002,0,1.504-0.686,1.504-2.058c0-1.356-0.505-2.036-1.515-2.036
				c-0.53,0-0.914,0.176-1.152,0.527C65.042,91.868,64.923,92.371,64.923,93.026z"/>
			<path fill="#FFFFFF" d="M75.923,96.008h-1.268v-3.652c0-0.459-0.092-0.801-0.277-1.026c-0.184-0.226-0.477-0.339-0.878-0.339
				c-0.534,0-0.924,0.158-1.171,0.473c-0.247,0.315-0.371,0.844-0.371,1.585v2.96h-1.262v-5.941h0.988l0.177,0.779h0.064
				c0.179-0.283,0.433-0.502,0.763-0.655s0.695-0.231,1.096-0.231c1.425,0,2.138,0.726,2.138,2.176V96.008z"/>
			<path fill="#FFFFFF" d="M81.67,94.315c0,0.58-0.211,1.024-0.634,1.335c-0.422,0.31-1.028,0.465-1.815,0.465
				c-0.792,0-1.427-0.121-1.907-0.36v-1.091c0.698,0.322,1.348,0.484,1.95,0.484c0.777,0,1.166-0.234,1.166-0.704
				c0-0.15-0.043-0.276-0.129-0.376s-0.228-0.204-0.424-0.312s-0.471-0.229-0.822-0.365c-0.684-0.265-1.146-0.53-1.389-0.795
				c-0.241-0.265-0.362-0.608-0.362-1.031c0-0.509,0.205-0.903,0.615-1.185c0.41-0.281,0.967-0.422,1.673-0.422
				c0.698,0,1.359,0.143,1.982,0.425l-0.408,0.95c-0.641-0.265-1.18-0.396-1.617-0.396c-0.666,0-0.999,0.189-0.999,0.568
				c0,0.187,0.087,0.344,0.261,0.473c0.173,0.129,0.552,0.307,1.136,0.532c0.491,0.19,0.847,0.363,1.069,0.521
				c0.222,0.158,0.387,0.34,0.494,0.545C81.617,93.783,81.67,94.029,81.67,94.315z"/>
			<path fill="#FFFFFF" d="M25.714,106.748h2.89v3.942c-0.473,0.153-0.926,0.263-1.362,0.327c-0.435,0.064-0.905,0.098-1.41,0.098
				c-1.189,0-2.105-0.352-2.75-1.057c-0.645-0.703-0.967-1.695-0.967-2.978c0-1.265,0.363-2.253,1.09-2.968s1.728-1.071,3.002-1.071
				c0.82,0,1.597,0.157,2.331,0.473l-0.451,1.069c-0.637-0.294-1.275-0.441-1.912-0.441c-0.838,0-1.5,0.264-1.987,0.79
				s-0.73,1.246-0.73,2.159c0,0.959,0.219,1.689,0.658,2.189c0.439,0.498,1.07,0.748,1.894,0.748c0.416,0,0.859-0.051,1.332-0.155
				v-2.024h-1.627V106.748z"/>
			<path fill="#FFFFFF" d="M34.072,111.008l-0.252-0.828h-0.043c-0.287,0.362-0.575,0.608-0.865,0.738
				c-0.29,0.131-0.663,0.197-1.117,0.197c-0.583,0-1.039-0.158-1.367-0.473c-0.327-0.315-0.491-0.762-0.491-1.338
				c0-0.612,0.228-1.074,0.682-1.386s1.147-0.481,2.079-0.511l1.026-0.031v-0.317c0-0.38-0.088-0.663-0.266-0.851
				c-0.177-0.189-0.452-0.283-0.824-0.283c-0.304,0-0.596,0.045-0.875,0.135s-0.548,0.195-0.806,0.316l-0.408-0.902
				c0.322-0.168,0.675-0.296,1.058-0.383c0.383-0.088,0.745-0.133,1.085-0.133c0.755,0,1.326,0.165,1.711,0.494
				c0.385,0.33,0.577,0.848,0.577,1.553v4.002H34.072z M32.192,110.148c0.458,0,0.826-0.129,1.104-0.385
				c0.278-0.256,0.417-0.615,0.417-1.076v-0.516l-0.763,0.031c-0.594,0.021-1.027,0.121-1.297,0.299
				c-0.27,0.178-0.405,0.448-0.405,0.813c0,0.265,0.079,0.47,0.236,0.614C31.641,110.076,31.877,110.148,32.192,110.148z"/>
			<path fill="#FFFFFF" d="M41.742,111.008h-1.268v-3.664c0-0.454-0.086-0.793-0.258-1.018c-0.172-0.224-0.44-0.336-0.806-0.336
				c-0.487,0-0.844,0.158-1.071,0.477c-0.228,0.316-0.341,0.844-0.341,1.581v2.96h-1.262v-5.941h0.988l0.177,0.779h0.064
				c0.165-0.283,0.404-0.502,0.717-0.655c0.313-0.153,0.658-0.231,1.034-0.231c0.913,0,1.518,0.313,1.815,0.936h0.086
				c0.175-0.294,0.422-0.523,0.741-0.688c0.319-0.165,0.684-0.248,1.096-0.248c0.709,0,1.226,0.18,1.549,0.537
				c0.324,0.358,0.486,0.904,0.486,1.639v3.873h-1.262v-3.664c0-0.454-0.087-0.793-0.26-1.018c-0.174-0.224-0.443-0.336-0.809-0.336
				c-0.491,0-0.85,0.154-1.077,0.459c-0.227,0.307-0.341,0.777-0.341,1.41V111.008z"/>
			<path fill="#FFFFFF" d="M49.847,111.115c-0.924,0-1.646-0.27-2.167-0.809c-0.521-0.539-0.781-1.281-0.781-2.227
				c0-0.971,0.242-1.732,0.725-2.288s1.147-0.833,1.993-0.833c0.784,0,1.404,0.238,1.858,0.715s0.682,1.131,0.682,1.966v0.683
				h-3.958c0.018,0.576,0.174,1.02,0.467,1.328c0.293,0.311,0.707,0.465,1.241,0.465c0.351,0,0.678-0.033,0.98-0.1
				c0.302-0.065,0.627-0.176,0.975-0.33v1.026c-0.308,0.147-0.62,0.251-0.935,0.312S50.251,111.115,49.847,111.115z M49.616,105.916
				c-0.401,0-0.723,0.127-0.964,0.381c-0.242,0.254-0.386,0.625-0.433,1.111h2.696c-0.007-0.49-0.125-0.861-0.354-1.113
				C50.332,106.041,50.017,105.916,49.616,105.916z"/>
			<path fill="#FFFFFF" d="M61.781,105.529c0,0.819-0.269,1.447-0.806,1.885s-1.302,0.655-2.293,0.655h-0.816v2.938h-1.284v-7.854
				h2.261c0.981,0,1.716,0.201,2.205,0.602C61.537,104.157,61.781,104.748,61.781,105.529z M57.866,106.99h0.682
				c0.659,0,1.142-0.115,1.45-0.344c0.308-0.229,0.462-0.588,0.462-1.074c0-0.451-0.138-0.788-0.414-1.01
				c-0.276-0.223-0.706-0.334-1.289-0.334h-0.892V106.99z"/>
			<path fill="#FFFFFF" d="M66.229,104.959c0.254,0,0.464,0.019,0.628,0.055l-0.124,1.176c-0.179-0.043-0.365-0.064-0.559-0.064
				c-0.505,0-0.914,0.164-1.227,0.494c-0.313,0.33-0.47,0.758-0.47,1.283v3.105h-1.262v-5.941h0.988l0.167,1.048h0.064
				c0.197-0.354,0.454-0.636,0.771-0.843C65.522,105.063,65.863,104.959,66.229,104.959z"/>
			<path fill="#FFFFFF" d="M73.227,108.026c0,0.97-0.249,1.728-0.747,2.272c-0.498,0.544-1.19,0.816-2.079,0.816
				c-0.555,0-1.045-0.126-1.472-0.377c-0.426-0.25-0.754-0.609-0.983-1.079s-0.344-1.013-0.344-1.633
				c0-0.964,0.247-1.716,0.741-2.256s1.19-0.812,2.089-0.812c0.859,0,1.54,0.277,2.041,0.83S73.227,107.088,73.227,108.026z
				 M68.903,108.026c0,1.372,0.507,2.058,1.52,2.058c1.002,0,1.504-0.686,1.504-2.058c0-1.356-0.505-2.036-1.515-2.036
				c-0.53,0-0.914,0.176-1.152,0.527C69.022,106.868,68.903,107.371,68.903,108.026z"/>
			<path fill="#FFFFFF" d="M77.69,111.115c-0.752,0-1.335-0.271-1.751-0.812h-0.075c0.05,0.501,0.075,0.806,0.075,0.913v2.434
				h-1.262v-8.584h1.021c0.029,0.111,0.088,0.377,0.177,0.795h0.064c0.394-0.602,0.985-0.902,1.772-0.902
				c0.741,0,1.319,0.27,1.732,0.807c0.414,0.537,0.621,1.291,0.621,2.261s-0.21,1.728-0.631,2.272
				C79.013,110.843,78.432,111.115,77.69,111.115z M77.384,105.99c-0.501,0-0.867,0.147-1.099,0.441
				c-0.23,0.293-0.346,0.762-0.346,1.406v0.188c0,0.724,0.115,1.247,0.344,1.571s0.604,0.486,1.123,0.486
				c0.437,0,0.773-0.18,1.01-0.537c0.236-0.358,0.354-0.869,0.354-1.531c0-0.666-0.117-1.17-0.352-1.512
				C78.184,106.162,77.839,105.99,77.384,105.99z"/>
			<path fill="#FFFFFF" d="M85.521,109.315c0,0.58-0.211,1.024-0.634,1.335c-0.422,0.31-1.028,0.465-1.815,0.465
				c-0.792,0-1.427-0.121-1.907-0.36v-1.091c0.698,0.322,1.348,0.484,1.95,0.484c0.777,0,1.166-0.234,1.166-0.704
				c0-0.15-0.043-0.276-0.129-0.376s-0.228-0.204-0.424-0.312s-0.471-0.229-0.822-0.365c-0.684-0.265-1.146-0.53-1.389-0.795
				c-0.241-0.265-0.362-0.608-0.362-1.031c0-0.509,0.205-0.903,0.615-1.185c0.41-0.281,0.967-0.422,1.673-0.422
				c0.698,0,1.359,0.143,1.982,0.425l-0.408,0.95c-0.641-0.265-1.18-0.396-1.617-0.396c-0.666,0-0.999,0.189-0.999,0.568
				c0,0.187,0.087,0.344,0.261,0.473c0.173,0.129,0.552,0.307,1.136,0.532c0.491,0.19,0.847,0.363,1.069,0.521
				c0.222,0.158,0.387,0.34,0.494,0.545C85.468,108.783,85.521,109.029,85.521,109.315z"/>
		</g>
	</g>
</g>
<g id="Layer_2">
</g>
</svg>
