<?xml version="1.0" encoding="utf-8"?>
<!-- Generator: Adobe Illustrator 16.0.0, SVG Export Plug-In . SVG Version: 6.00 Build 0)  -->
<!DOCTYPE svg PUBLIC "-//W3C//DTD SVG 1.1//EN" "http://www.w3.org/Graphics/SVG/1.1/DTD/svg11.dtd">
<svg version="1.1" xmlns="http://www.w3.org/2000/svg" xmlns:xlink="http://www.w3.org/1999/xlink" x="0px" y="0px" width="200px"
	 height="130px" viewBox="0 0 200 130" enable-background="new 0 0 200 130" xml:space="preserve">
<g id="Layer_1">
	<g>
		<g>
			<path fill="#2882A5" d="M187.209,16.331c1.346,0,2.442,1.097,2.442,2.444v100.422c0,1.349-1.096,2.446-2.442,2.446H12.78
				c-1.347,0-2.443-1.098-2.443-2.446V18.775c0-1.348,1.096-2.444,2.443-2.444H187.209 M187.209,15.141H12.78
				c-1.998,0-3.633,1.637-3.633,3.635v100.422c0,1.998,1.636,3.637,3.633,3.637h174.429c1.998,0,3.632-1.639,3.632-3.637V18.775
				C190.841,16.777,189.207,15.141,187.209,15.141L187.209,15.141z"/>
		</g>
	</g>
	<path fill="#2882A5" d="M187.209,9.69H12.78c-1.998,0-3.633,1.635-3.633,3.636v14.535v1.816v3.634h3.633h174.429h3.632v-3.634
		v-1.816V13.326C190.841,11.325,189.207,9.69,187.209,9.69z"/>
	<g>
		<rect x="18.287" y="16.063" fill="none" width="150.887" height="14.928"/>
		<text transform="matrix(1 0 0 1 18.2866 26.0166)" fill="#FFFFFF" font-family="'OpenSans-Semibold'" font-size="13.097">Mobile Applications</text>
	</g>
	<circle fill="#2882A5" cx="148.885" cy="80.433" r="30.785"/>
	<path fill="#606161" d="M22.922,53.911h-1.545l-3.792-6.144h-0.042l0.026,0.343c0.049,0.653,0.073,1.251,0.073,1.793v4.008h-1.144
		v-7.71h1.529l3.78,6.111h0.032c-0.007-0.08-0.021-0.375-0.042-0.883c-0.021-0.509-0.032-0.904-0.032-1.189v-4.039h1.155V53.911z"/>
	<path fill="#606161" d="M28.475,53.911l-0.248-0.813h-0.042c-0.281,0.355-0.564,0.597-0.849,0.726
		c-0.285,0.128-0.65,0.192-1.098,0.192c-0.572,0-1.021-0.155-1.342-0.465c-0.322-0.309-0.482-0.746-0.482-1.313
		c0-0.602,0.224-1.055,0.67-1.361c0.446-0.305,1.127-0.473,2.041-0.5l1.007-0.032v-0.312c0-0.371-0.087-0.65-0.261-0.836
		c-0.175-0.184-0.444-0.276-0.81-0.276c-0.299,0-0.586,0.045-0.859,0.133c-0.274,0.088-0.538,0.19-0.791,0.311l-0.401-0.886
		c0.316-0.166,0.663-0.291,1.039-0.378c0.376-0.085,0.731-0.129,1.065-0.129c0.741,0,1.301,0.162,1.679,0.485
		s0.567,0.832,0.567,1.524v3.929H28.475z M26.629,53.067c0.45,0,0.811-0.126,1.084-0.378c0.271-0.251,0.408-0.604,0.408-1.057
		v-0.507l-0.749,0.032c-0.583,0.021-1.008,0.118-1.272,0.293c-0.267,0.173-0.398,0.439-0.398,0.798c0,0.262,0.077,0.462,0.231,0.604
		C26.088,52.995,26.319,53.067,26.629,53.067z"/>
	<path fill="#606161" d="M33.263,53.015c0.303,0,0.604-0.049,0.907-0.143v0.934c-0.137,0.06-0.314,0.109-0.529,0.149
		c-0.217,0.041-0.441,0.062-0.673,0.062c-1.175,0-1.762-0.619-1.762-1.856v-3.144H30.41v-0.548l0.854-0.454l0.422-1.233h0.765v1.297
		h1.661v0.938h-1.661v3.122c0,0.299,0.074,0.52,0.224,0.662C32.824,52.942,33.021,53.015,33.263,53.015z"/>
	<path fill="#606161" d="M35.262,46.532c0-0.22,0.061-0.391,0.182-0.511c0.122-0.119,0.295-0.179,0.52-0.179
		c0.218,0,0.388,0.06,0.509,0.179c0.121,0.12,0.182,0.291,0.182,0.511c0,0.211-0.061,0.378-0.182,0.5
		c-0.121,0.12-0.291,0.182-0.509,0.182c-0.225,0-0.397-0.062-0.52-0.182C35.322,46.91,35.262,46.743,35.262,46.532z M36.574,53.911
		h-1.239v-5.833h1.239V53.911z"/>
	<path fill="#606161" d="M39.676,53.911l-2.215-5.833h1.308l1.187,3.391c0.204,0.569,0.327,1.031,0.369,1.383h0.042
		c0.031-0.253,0.154-0.714,0.369-1.383l1.187-3.391h1.318l-2.226,5.833H39.676z"/>
	<path fill="#606161" d="M46.673,54.017c-0.906,0-1.616-0.266-2.127-0.794c-0.513-0.529-0.768-1.257-0.768-2.186
		c0-0.952,0.237-1.701,0.712-2.247c0.475-0.544,1.127-0.817,1.956-0.817c0.771,0,1.378,0.234,1.825,0.702
		c0.446,0.468,0.669,1.111,0.669,1.929v0.671h-3.886c0.018,0.565,0.17,1,0.458,1.305c0.289,0.304,0.694,0.456,1.219,0.456
		c0.345,0,0.665-0.032,0.962-0.097c0.297-0.066,0.616-0.174,0.957-0.325v1.007c-0.302,0.146-0.607,0.247-0.917,0.307
		C47.424,53.985,47.07,54.017,46.673,54.017z M46.446,48.911c-0.394,0-0.709,0.126-0.946,0.375c-0.237,0.25-0.379,0.613-0.425,1.092
		h2.647c-0.007-0.482-0.123-0.847-0.348-1.095C47.149,49.036,46.84,48.911,46.446,48.911z"/>
	<path fill="#606161" d="M30.32,61.492c0-0.22,0.061-0.392,0.182-0.511c0.122-0.119,0.295-0.18,0.52-0.18
		c0.218,0,0.388,0.061,0.51,0.18c0.12,0.119,0.182,0.291,0.182,0.511c0,0.211-0.062,0.378-0.182,0.499
		c-0.122,0.121-0.292,0.182-0.51,0.182c-0.225,0-0.397-0.061-0.52-0.182C30.381,61.87,30.32,61.703,30.32,61.492z M31.634,68.87
		h-1.239v-5.832h1.239V68.87z"/>
	<path fill="#606161" d="M40.382,65.006c0,1.254-0.313,2.229-0.941,2.926c-0.627,0.696-1.516,1.044-2.665,1.044
		c-1.164,0-2.059-0.346-2.683-1.035c-0.624-0.691-0.936-1.673-0.936-2.946c0-1.271,0.313-2.249,0.941-2.933
		c0.627-0.681,1.523-1.021,2.687-1.021c1.146,0,2.032,0.346,2.658,1.038S40.382,63.747,40.382,65.006z M34.497,65.006
		c0,0.949,0.191,1.669,0.574,2.158c0.384,0.491,0.951,0.736,1.704,0.736c0.748,0,1.313-0.243,1.694-0.728
		c0.382-0.485,0.573-1.209,0.573-2.167c0-0.946-0.189-1.663-0.567-2.151c-0.378-0.489-0.941-0.734-1.69-0.734
		c-0.756,0-1.325,0.245-1.711,0.734C34.689,63.343,34.497,64.06,34.497,65.006z"/>
	<path fill="#606161" d="M46.483,66.777c0,0.685-0.248,1.224-0.743,1.612c-0.496,0.392-1.18,0.586-2.052,0.586
		s-1.586-0.135-2.141-0.405v-1.192c0.352,0.166,0.725,0.295,1.12,0.391c0.396,0.094,0.764,0.143,1.104,0.143
		c0.5,0,0.867-0.096,1.105-0.285c0.236-0.189,0.355-0.444,0.355-0.764c0-0.289-0.108-0.533-0.327-0.734
		c-0.218-0.2-0.668-0.438-1.35-0.712c-0.703-0.284-1.199-0.609-1.487-0.976c-0.288-0.365-0.433-0.805-0.433-1.318
		c0-0.643,0.229-1.149,0.686-1.519s1.071-0.554,1.841-0.554c0.738,0,1.473,0.162,2.204,0.484l-0.4,1.029
		c-0.686-0.288-1.298-0.433-1.835-0.433c-0.408,0-0.718,0.089-0.929,0.267s-0.316,0.412-0.316,0.704c0,0.2,0.042,0.371,0.127,0.515
		c0.084,0.142,0.223,0.276,0.416,0.402c0.193,0.127,0.542,0.295,1.045,0.502c0.565,0.235,0.98,0.455,1.244,0.658
		c0.264,0.204,0.457,0.436,0.58,0.691C46.422,66.127,46.483,66.429,46.483,66.777z"/>
	<path fill="#606161" d="M35.309,83.831l-0.77-2.141h-2.948l-0.754,2.141h-1.329l2.885-7.741h1.371l2.885,7.741H35.309z
		 M34.207,80.604l-0.723-2.1c-0.053-0.141-0.126-0.361-0.219-0.664c-0.094-0.303-0.157-0.523-0.192-0.664
		c-0.095,0.432-0.234,0.905-0.417,1.419l-0.696,2.009H34.207z"/>
	<path fill="#606161" d="M42.665,83.831h-1.244v-3.586c0-0.449-0.091-0.785-0.271-1.008c-0.182-0.22-0.469-0.331-0.862-0.331
		c-0.523,0-0.907,0.154-1.149,0.464c-0.243,0.31-0.364,0.828-0.364,1.555v2.906h-1.239v-5.832h0.971l0.174,0.766h0.063
		c0.176-0.278,0.425-0.492,0.749-0.645c0.323-0.15,0.682-0.227,1.075-0.227c1.399,0,2.099,0.711,2.099,2.137V83.831z"/>
	<path fill="#606161" d="M46.356,83.937c-0.728,0-1.295-0.264-1.703-0.791c-0.407-0.527-0.611-1.267-0.611-2.221
		c0-0.955,0.206-1.7,0.62-2.232c0.412-0.533,0.984-0.799,1.716-0.799c0.767,0,1.35,0.283,1.751,0.85h0.063
		c-0.061-0.418-0.09-0.75-0.09-0.991v-2.126h1.244v8.205h-0.97l-0.217-0.764h-0.058C47.705,83.646,47.123,83.937,46.356,83.937z
		 M46.689,82.935c0.51,0,0.88-0.143,1.112-0.43c0.232-0.286,0.352-0.751,0.358-1.395v-0.174c0-0.734-0.119-1.257-0.358-1.566
		s-0.613-0.464-1.123-0.464c-0.437,0-0.771,0.177-1.008,0.529c-0.235,0.354-0.353,0.856-0.353,1.511c0,0.648,0.114,1.141,0.343,1.48
		C45.89,82.765,46.232,82.935,46.689,82.935z"/>
	<path fill="#606161" d="M54.077,77.894c0.25,0,0.455,0.018,0.617,0.053l-0.121,1.155c-0.176-0.042-0.359-0.063-0.549-0.063
		c-0.496,0-0.897,0.162-1.205,0.485s-0.461,0.743-0.461,1.26v3.048h-1.239v-5.832h0.97l0.164,1.027h0.063
		c0.193-0.347,0.446-0.623,0.757-0.827C53.384,77.995,53.719,77.894,54.077,77.894z"/>
	<path fill="#606161" d="M60.948,80.904c0,0.954-0.244,1.696-0.732,2.231c-0.489,0.534-1.169,0.801-2.041,0.801
		c-0.545,0-1.026-0.123-1.445-0.369c-0.418-0.246-0.74-0.599-0.965-1.061c-0.225-0.459-0.338-0.993-0.338-1.603
		c0-0.944,0.243-1.683,0.729-2.215c0.484-0.53,1.169-0.796,2.051-0.796c0.844,0,1.512,0.271,2.004,0.814
		C60.702,79.252,60.948,79.984,60.948,80.904z M56.703,80.904c0,1.348,0.498,2.021,1.492,2.021c0.984,0,1.477-0.673,1.477-2.021
		c0-1.331-0.495-1.998-1.486-1.998c-0.521,0-0.898,0.172-1.132,0.517S56.703,80.262,56.703,80.904z"/>
	<path fill="#606161" d="M62.299,76.453c0-0.22,0.061-0.392,0.182-0.511s0.294-0.18,0.52-0.18c0.218,0,0.387,0.061,0.509,0.18
		c0.121,0.119,0.182,0.291,0.182,0.511c0,0.211-0.061,0.378-0.182,0.499c-0.122,0.121-0.291,0.182-0.509,0.182
		c-0.226,0-0.398-0.061-0.52-0.182S62.299,76.664,62.299,76.453z M63.611,83.831h-1.239v-5.832h1.239V83.831z"/>
	<path fill="#606161" d="M67.351,83.937c-0.728,0-1.296-0.264-1.703-0.791c-0.408-0.527-0.612-1.267-0.612-2.221
		c0-0.955,0.206-1.7,0.62-2.232c0.412-0.533,0.985-0.799,1.716-0.799c0.767,0,1.351,0.283,1.751,0.85h0.063
		c-0.06-0.418-0.09-0.75-0.09-0.991v-2.126h1.245v8.205H69.37l-0.216-0.764h-0.059C68.698,83.646,68.117,83.937,67.351,83.937z
		 M67.683,82.935c0.51,0,0.881-0.143,1.112-0.43c0.232-0.286,0.352-0.751,0.359-1.395v-0.174c0-0.734-0.12-1.257-0.359-1.566
		c-0.238-0.31-0.613-0.464-1.123-0.464c-0.436,0-0.771,0.177-1.007,0.529c-0.235,0.354-0.354,0.856-0.354,1.511
		c0,0.648,0.114,1.141,0.343,1.48C66.883,82.765,67.226,82.935,67.683,82.935z"/>
	<path fill="#606161" d="M19.778,92.052c-0.724,0-1.293,0.257-1.708,0.77c-0.415,0.514-0.622,1.223-0.622,2.126
		c0,0.946,0.199,1.661,0.598,2.146c0.399,0.485,0.977,0.729,1.732,0.729c0.327,0,0.644-0.033,0.949-0.098
		c0.307-0.065,0.624-0.148,0.955-0.251v1.082c-0.604,0.229-1.29,0.342-2.057,0.342c-1.129,0-1.995-0.342-2.6-1.025
		c-0.605-0.685-0.907-1.661-0.907-2.936c0-0.802,0.146-1.502,0.439-2.104c0.294-0.601,0.719-1.062,1.274-1.382
		c0.556-0.319,1.207-0.48,1.956-0.48c0.788,0,1.516,0.167,2.184,0.497l-0.454,1.049c-0.26-0.123-0.534-0.23-0.825-0.324
		C20.404,92.099,20.099,92.052,19.778,92.052z"/>
	<path fill="#606161" d="M28.385,95.864c0,0.953-0.244,1.696-0.732,2.23c-0.489,0.535-1.169,0.802-2.041,0.802
		c-0.545,0-1.026-0.123-1.445-0.369c-0.418-0.246-0.74-0.599-0.965-1.061c-0.225-0.459-0.338-0.993-0.338-1.603
		c0-0.945,0.243-1.684,0.729-2.215c0.484-0.53,1.169-0.796,2.051-0.796c0.844,0,1.512,0.271,2.004,0.814
		C28.139,94.212,28.385,94.944,28.385,95.864z M24.14,95.864c0,1.348,0.498,2.02,1.492,2.02c0.984,0,1.477-0.672,1.477-2.02
		c0-1.332-0.495-1.998-1.486-1.998c-0.521,0-0.898,0.172-1.132,0.517S24.14,95.222,24.14,95.864z"/>
	<path fill="#606161" d="M32.768,92.854c0.249,0,0.455,0.018,0.616,0.053l-0.121,1.155c-0.176-0.042-0.358-0.063-0.548-0.063
		c-0.496,0-0.898,0.162-1.206,0.485s-0.461,0.743-0.461,1.26v3.048h-1.239v-5.832h0.971l0.163,1.027h0.063
		c0.193-0.347,0.446-0.623,0.757-0.827C32.074,92.955,32.408,92.854,32.768,92.854z"/>
	<path fill="#606161" d="M36.433,98.896c-0.729,0-1.296-0.264-1.704-0.791c-0.407-0.527-0.611-1.267-0.611-2.221
		c0-0.955,0.206-1.7,0.62-2.232c0.412-0.533,0.984-0.799,1.716-0.799c0.767,0,1.351,0.283,1.751,0.85h0.063
		c-0.06-0.419-0.09-0.75-0.09-0.991v-2.126h1.244v8.205h-0.97l-0.217-0.764h-0.058C37.78,98.606,37.198,98.896,36.433,98.896z
		 M36.765,97.895c0.51,0,0.881-0.143,1.112-0.43c0.232-0.286,0.352-0.751,0.358-1.395v-0.174c0-0.734-0.119-1.257-0.358-1.566
		s-0.613-0.464-1.123-0.464c-0.436,0-0.771,0.177-1.007,0.529c-0.236,0.354-0.354,0.856-0.354,1.511c0,0.647,0.114,1.14,0.343,1.479
		C35.965,97.725,36.308,97.895,36.765,97.895z"/>
	<path fill="#606161" d="M46.367,95.864c0,0.953-0.244,1.696-0.732,2.23c-0.489,0.535-1.169,0.802-2.041,0.802
		c-0.545,0-1.026-0.123-1.445-0.369c-0.418-0.246-0.74-0.599-0.965-1.061c-0.225-0.459-0.338-0.993-0.338-1.603
		c0-0.945,0.243-1.684,0.729-2.215c0.484-0.53,1.169-0.796,2.051-0.796c0.844,0,1.512,0.271,2.004,0.814
		C46.121,94.212,46.367,94.944,46.367,95.864z M42.122,95.864c0,1.348,0.498,2.02,1.492,2.02c0.984,0,1.477-0.672,1.477-2.02
		c0-1.332-0.495-1.998-1.486-1.998c-0.521,0-0.898,0.172-1.132,0.517S42.122,95.222,42.122,95.864z"/>
	<path fill="#606161" d="M49.12,98.791l-2.215-5.832h1.308l1.187,3.39c0.204,0.57,0.327,1.031,0.369,1.383h0.042
		c0.032-0.253,0.155-0.713,0.369-1.383l1.187-3.39h1.318l-2.225,5.832H49.12z"/>
	<path fill="#606161" d="M57.22,98.791l-0.247-0.812H56.93c-0.281,0.354-0.563,0.596-0.849,0.725
		c-0.285,0.128-0.65,0.192-1.097,0.192c-0.573,0-1.021-0.154-1.342-0.464c-0.322-0.31-0.483-0.746-0.483-1.313
		c0-0.603,0.224-1.055,0.67-1.361c0.446-0.305,1.127-0.473,2.041-0.501l1.007-0.031v-0.312c0-0.372-0.087-0.65-0.261-0.836
		c-0.174-0.184-0.443-0.276-0.81-0.276c-0.299,0-0.585,0.044-0.859,0.132s-0.538,0.191-0.791,0.311l-0.4-0.886
		c0.316-0.165,0.662-0.29,1.038-0.377c0.377-0.086,0.731-0.129,1.065-0.129c0.742,0,1.302,0.161,1.68,0.485
		c0.378,0.323,0.567,0.832,0.567,1.524v3.928H57.22z M55.374,97.947c0.45,0,0.812-0.125,1.084-0.377
		c0.272-0.251,0.409-0.604,0.409-1.058v-0.506l-0.749,0.031c-0.584,0.021-1.009,0.119-1.273,0.293
		c-0.266,0.174-0.398,0.439-0.398,0.799c0,0.261,0.077,0.461,0.232,0.604C54.833,97.876,55.065,97.947,55.374,97.947z"/>
	<g>
		<g>
			<g>
				<path fill="none" stroke="#FFFFFF" stroke-width="1.1906" stroke-miterlimit="10" d="M158.434,59.074h-19.097
					c-1.827,0-3.303,1.48-3.303,3.305v38.776c0,1.824,1.477,3.303,3.303,3.303h19.097c1.824,0,3.304-1.479,3.304-3.303V62.379
					C161.737,60.555,160.258,59.074,158.434,59.074z"/>
			</g>
			
				<rect x="138.51" y="64.788" fill="none" stroke="#FFFFFF" stroke-width="1.1906" stroke-miterlimit="10" width="20.751" height="29.319"/>
			<rect x="144.424" y="61.515" fill="#FFFFFF" width="8.857" height="0.967"/>
			<circle fill="#FFFFFF" cx="156.633" cy="62.039" r="0.845"/>
			<circle fill="#FFFFFF" cx="148.886" cy="99.706" r="2.108"/>
		</g>
		<path fill-rule="evenodd" clip-rule="evenodd" fill="#FFFFFF" d="M154.167,87.447h-1.247c-0.016-0.068-0.042-0.135-0.077-0.198
			c-0.034-0.062-0.128-0.243-0.248-0.473c-0.174-0.332-0.42-0.802-0.685-1.302h2.256c0.127,0,0.231,0.105,0.231,0.232v1.507
			C154.397,87.343,154.293,87.447,154.167,87.447 M151.947,86.537c0.015,0.03,0.031,0.061,0.048,0.091
			c0.002,0.006,0.004,0.009,0.007,0.016c0.205,0.389,0.359,0.689,0.422,0.804c0.005,0.008,0.01,0.018,0.013,0.024
			c0.164,0.301-0.156,0.547-0.335,0.622c-0.179,0.074-0.282,0.148-0.549,0.017c-0.268-0.136-1.6-3.223-1.942-4.027
			c-0.34-0.806-1.371-2.949-1.039-3.115c0.238-0.121,1.091,1.567,1.729,2.581c0.364,0.578,0.956,1.677,1.425,2.569
			c0.007,0.012,0.013,0.024,0.02,0.035c0.02,0.041,0.042,0.081,0.063,0.12c0.006,0.012,0.011,0.021,0.018,0.034
			c0.018,0.034,0.036,0.069,0.054,0.104c0.01,0.018,0.022,0.039,0.031,0.059C151.922,86.493,151.935,86.515,151.947,86.537
			 M148.806,84.325l-0.938,1.644l-0.847,1.479l-1.309,2.289c-0.069,0.122-0.228,0.165-0.35,0.094l-0.668-0.385
			c-0.123-0.07-0.166-0.229-0.095-0.351l0.942-1.647l1.128-1.973l1.024-1.789c0.071-0.124,0.228-0.166,0.35-0.095l0.668,0.384
			C148.834,84.046,148.876,84.203,148.806,84.325 M143.539,87.447c-0.129,0-0.232-0.104-0.232-0.233v-1.507
			c0-0.127,0.104-0.232,0.232-0.232h2.595l-1.128,1.973H143.539z M144.476,89.741l0.667,0.384c0.122,0.071,0.128,0.196,0.011,0.274
			l-0.863,0.59c-0.116,0.08-0.199,0.029-0.184-0.111l0.117-1.01C144.24,89.729,144.353,89.669,144.476,89.741 M149.706,85.475
			c0.396,0.902,0.69,1.533,0.912,1.973h-3.062l1.128-1.973H149.706z M152.12,88.523l0.384-0.2c0.136-0.068,0.304-0.012,0.376,0.127
			l0.319,0.612c0.072,0.141,0.021,0.317-0.109,0.396l-0.273,0.164c-0.13,0.079-0.306,0.036-0.389-0.096l-0.402-0.639
			C151.942,88.757,151.985,88.593,152.12,88.523 M154.064,91.357c-0.085-0.27-0.727-0.287-1.014-0.694
			c-0.288-0.407-0.05-0.617,0.05-0.713C154.267,89.291,154.064,91.357,154.064,91.357"/>
		<path fill-rule="evenodd" clip-rule="evenodd" fill="#FFFFFF" d="M152.818,74.771c-0.347,0-0.626-0.288-0.626-0.645v-2.758
			c0-0.355,0.28-0.645,0.626-0.645c0.345,0,0.625,0.289,0.625,0.645v2.758C153.443,74.482,153.163,74.771,152.818,74.771
			 M151.113,76.131h-0.478c0.018,0.057,0.026,0.115,0.026,0.18v0.034v0.217v1.109c0,0.355-0.281,0.644-0.626,0.644
			s-0.626-0.288-0.626-0.644v-1.109v-0.217v-0.034c0-0.064,0.009-0.123,0.025-0.18h-1.164c0.016,0.057,0.026,0.115,0.026,0.18v0.034
			v0.217v1.109c0,0.355-0.28,0.644-0.626,0.644c-0.346,0-0.626-0.288-0.626-0.644v-1.109v-0.217v-0.034
			c0-0.064,0.008-0.123,0.024-0.18h-0.477c-0.365,0-0.661-0.305-0.661-0.682v-3.751v-0.438v-0.537h0.044h5.754h0.044v0.537v0.438
			v3.751C151.773,75.826,151.478,76.131,151.113,76.131 M147.416,68.146l-0.117-0.182l-0.117-0.179l-0.261-0.402
			c-0.031-0.05-0.018-0.116,0.029-0.149c0.049-0.032,0.113-0.018,0.146,0.03l0.279,0.432l0.117,0.18l0.119,0.185
			c0.376-0.15,0.797-0.235,1.241-0.235c0.444,0,0.865,0.085,1.242,0.235l0.12-0.185l0.117-0.18l0.278-0.432
			c0.033-0.048,0.096-0.063,0.145-0.03c0.048,0.033,0.062,0.1,0.029,0.149l-0.26,0.402l-0.116,0.179l-0.118,0.182
			c0.886,0.426,1.485,1.229,1.485,2.149h-5.843C145.931,69.374,146.529,68.571,147.416,68.146 M150.104,69.437
			c0.173,0,0.312-0.145,0.312-0.324c0-0.177-0.139-0.32-0.312-0.32s-0.313,0.144-0.313,0.32
			C149.791,69.292,149.932,69.437,150.104,69.437 M147.599,69.437c0.173,0,0.314-0.145,0.314-0.324c0-0.177-0.141-0.32-0.314-0.32
			c-0.172,0-0.312,0.144-0.312,0.32C147.288,69.292,147.427,69.437,147.599,69.437 M144.887,74.771
			c-0.345,0-0.626-0.288-0.626-0.645v-2.758c0-0.355,0.281-0.645,0.626-0.645c0.346,0,0.626,0.289,0.626,0.645v2.758
			C145.513,74.482,145.233,74.771,144.887,74.771"/>
	</g>
</g>
<g id="Layer_2">
</g>
</svg>
