<?xml version="1.0" encoding="utf-8"?>
<!-- Generator: Adobe Illustrator 16.0.0, SVG Export Plug-In . SVG Version: 6.00 Build 0)  -->
<!DOCTYPE svg PUBLIC "-//W3C//DTD SVG 1.1//EN" "http://www.w3.org/Graphics/SVG/1.1/DTD/svg11.dtd">
<svg version="1.1" xmlns="http://www.w3.org/2000/svg" xmlns:xlink="http://www.w3.org/1999/xlink" x="0px" y="0px" width="200px"
	 height="130px" viewBox="0 0 200 130" enable-background="new 0 0 200 130" xml:space="preserve">
<g id="Layer_1">
	<rect x="9.813" y="8.77" fill="#2882A5" width="180.806" height="112.787"/>
	<g>
		<g>
			<path fill="#FFFFFF" d="M28.727,29.708h-1.23l-2.161-7.17c-0.103-0.317-0.217-0.718-0.344-1.201s-0.193-0.774-0.198-0.872
				c-0.107,0.645-0.278,1.35-0.513,2.117l-2.095,7.126h-1.23L18.107,19h1.318l1.692,6.614c0.234,0.928,0.405,1.768,0.513,2.52
				c0.132-0.894,0.327-1.768,0.586-2.622L24.135,19h1.318l2.014,6.57c0.234,0.757,0.432,1.611,0.593,2.563
				c0.093-0.693,0.269-1.538,0.527-2.534L30.272,19h1.318L28.727,29.708z"/>
			<path fill="#FFFFFF" d="M39.237,29.708h-5.969V19h5.969v1.106h-4.724v3.45h4.438v1.099h-4.438v3.94h4.724V29.708z"/>
			<path fill="#FFFFFF" d="M41.61,19h3.025c1.421,0,2.449,0.212,3.083,0.637s0.952,1.096,0.952,2.014
				c0,0.635-0.177,1.159-0.531,1.571c-0.354,0.413-0.871,0.68-1.549,0.802v0.073c1.626,0.278,2.439,1.133,2.439,2.563
				c0,0.957-0.324,1.704-0.971,2.241s-1.551,0.806-2.713,0.806H41.61V19z M42.855,23.585h2.051c0.879,0,1.511-0.138,1.897-0.414
				c0.386-0.275,0.579-0.741,0.579-1.395c0-0.601-0.215-1.034-0.645-1.3c-0.43-0.266-1.113-0.399-2.051-0.399h-1.831V23.585z
				 M42.855,24.64v4.006h2.234c0.864,0,1.515-0.167,1.952-0.501c0.437-0.334,0.655-0.858,0.655-1.571
				c0-0.664-0.224-1.152-0.67-1.465c-0.447-0.313-1.127-0.469-2.04-0.469H42.855z"/>
			<path fill="#FFFFFF" d="M61.957,29.708l-1.333-3.406h-4.292l-1.318,3.406h-1.26l4.233-10.752h1.047l4.211,10.752H61.957z
				 M60.236,25.182l-1.245-3.318c-0.161-0.42-0.327-0.935-0.498-1.545c-0.107,0.469-0.261,0.984-0.461,1.545l-1.26,3.318H60.236z"/>
			<path fill="#FFFFFF" d="M71.508,22.121c0,1.084-0.37,1.918-1.109,2.501c-0.74,0.584-1.798,0.875-3.175,0.875h-1.26v4.211h-1.245
				V19h2.776C70.17,19,71.508,20.041,71.508,22.121z M65.963,24.428h1.121c1.104,0,1.902-0.178,2.395-0.535s0.74-0.928,0.74-1.714
				c0-0.708-0.232-1.235-0.696-1.582s-1.187-0.52-2.168-0.52h-1.392V24.428z"/>
			<path fill="#FFFFFF" d="M80.539,22.121c0,1.084-0.37,1.918-1.109,2.501c-0.74,0.584-1.798,0.875-3.175,0.875h-1.26v4.211h-1.245
				V19h2.776C79.201,19,80.539,20.041,80.539,22.121z M74.994,24.428h1.121c1.104,0,1.902-0.178,2.395-0.535s0.74-0.928,0.74-1.714
				c0-0.708-0.232-1.235-0.696-1.582s-1.187-0.52-2.168-0.52h-1.392V24.428z"/>
			<path fill="#FFFFFF" d="M82.78,29.708V19h1.245v9.58h4.724v1.128H82.78z"/>
			<path fill="#FFFFFF" d="M90.565,29.708V19h1.245v10.708H90.565z"/>
			<path fill="#FFFFFF" d="M99.333,19.96c-1.177,0-2.106,0.392-2.787,1.175c-0.682,0.784-1.022,1.857-1.022,3.219
				c0,1.401,0.328,2.484,0.985,3.249s1.593,1.146,2.809,1.146c0.747,0,1.599-0.134,2.556-0.403v1.091
				c-0.742,0.278-1.658,0.417-2.747,0.417c-1.577,0-2.794-0.479-3.651-1.436c-0.857-0.957-1.286-2.317-1.286-4.08
				c0-1.104,0.206-2.07,0.619-2.9s1.008-1.47,1.787-1.919s1.696-0.674,2.75-0.674c1.123,0,2.104,0.205,2.944,0.615l-0.527,1.069
				C100.954,20.15,100.143,19.96,99.333,19.96z"/>
			<path fill="#FFFFFF" d="M110.941,29.708l-1.333-3.406h-4.292l-1.318,3.406h-1.26l4.233-10.752h1.047l4.211,10.752H110.941z
				 M109.22,25.182l-1.245-3.318c-0.161-0.42-0.327-0.935-0.498-1.545c-0.107,0.469-0.261,0.984-0.461,1.545l-1.26,3.318H109.22z"/>
			<path fill="#FFFFFF" d="M116.999,29.708h-1.245v-9.602h-3.391V19h8.027v1.106h-3.391V29.708z"/>
			<path fill="#FFFFFF" d="M122.001,29.708V19h1.245v10.708H122.001z"/>
			<path fill="#FFFFFF" d="M135.478,24.34c0,1.714-0.434,3.062-1.3,4.043c-0.867,0.981-2.072,1.472-3.615,1.472
				c-1.577,0-2.794-0.482-3.651-1.446c-0.857-0.964-1.286-2.326-1.286-4.083c0-1.743,0.43-3.094,1.289-4.054
				c0.859-0.959,2.08-1.439,3.662-1.439c1.538,0,2.739,0.488,3.604,1.465S135.478,22.621,135.478,24.34z M126.945,24.34
				c0,1.45,0.309,2.55,0.926,3.299c0.618,0.75,1.515,1.125,2.692,1.125c1.187,0,2.083-0.374,2.688-1.121s0.908-1.848,0.908-3.303
				c0-1.44-0.302-2.533-0.904-3.278c-0.604-0.744-1.496-1.117-2.677-1.117c-1.187,0-2.089,0.375-2.707,1.125
				S126.945,22.909,126.945,24.34z"/>
			<path fill="#FFFFFF" d="M146.229,29.708h-1.421l-5.852-8.987h-0.059c0.078,1.055,0.117,2.021,0.117,2.9v6.086h-1.15V19h1.406
				l5.837,8.95h0.059c-0.01-0.132-0.032-0.555-0.066-1.271s-0.046-1.227-0.037-1.535V19h1.165V29.708z"/>
			<path fill="#FFFFFF" d="M155.216,26.859c0,0.942-0.342,1.677-1.025,2.205s-1.611,0.791-2.783,0.791
				c-1.27,0-2.246-0.164-2.93-0.491v-1.201c0.439,0.186,0.918,0.332,1.436,0.439s1.03,0.161,1.538,0.161
				c0.83,0,1.455-0.158,1.875-0.472c0.42-0.315,0.63-0.753,0.63-1.315c0-0.371-0.075-0.675-0.224-0.912s-0.398-0.456-0.747-0.656
				s-0.88-0.427-1.593-0.681c-0.996-0.356-1.708-0.779-2.135-1.267c-0.428-0.488-0.641-1.125-0.641-1.912
				c0-0.825,0.31-1.482,0.93-1.97s1.44-0.732,2.461-0.732c1.064,0,2.043,0.195,2.937,0.586l-0.388,1.084
				c-0.884-0.371-1.743-0.557-2.578-0.557c-0.659,0-1.174,0.142-1.545,0.425s-0.557,0.676-0.557,1.179
				c0,0.371,0.068,0.675,0.205,0.912s0.367,0.454,0.692,0.651c0.325,0.198,0.822,0.417,1.491,0.656
				c1.123,0.4,1.896,0.83,2.318,1.289S155.216,26.127,155.216,26.859z"/>
		</g>
	</g>
	<circle fill="none" stroke="#FFFFFF" stroke-miterlimit="10" cx="147.867" cy="82.363" r="30.633"/>
	<g>
		<path fill="none" stroke="#FFFFFF" stroke-miterlimit="10" d="M169.863,95.07c0,0.975-0.791,1.766-1.767,1.766h-40.459
			c-0.976,0-1.766-0.791-1.766-1.766V68.646c0-0.975,0.79-1.766,1.766-1.766h40.459c0.976,0,1.767,0.791,1.767,1.766V95.07z"/>
		<g>
			<rect x="128.24" y="69.055" fill="none" stroke="#FFFFFF" stroke-miterlimit="10" width="39.48" height="25.609"/>
			<path fill="none" stroke="#FFFFFF" stroke-miterlimit="10" d="M154.083,101.209c-0.041,0-0.101,0-0.149,0v-4.305h-11.145v4.316
				c-2.058,0.064-1.753,2.551-1.753,2.551h14.978C156.014,103.771,155.732,101.209,154.083,101.209z"/>
		</g>
		<g>
			<g>
				<path fill="#FFFFFF" d="M133.872,81.867l8.432,3.463v1.385l-10.131-4.264v-1.158l10.131-4.266v1.387L133.872,81.867z"/>
				<path fill="#FFFFFF" d="M151.071,75.383l-4.698,12.869h-1.396l4.697-12.869H151.071z"/>
				<path fill="#FFFFFF" d="M153.43,78.414v-1.387l10.131,4.266v1.158l-10.131,4.264V85.33l8.432-3.463L153.43,78.414z"/>
			</g>
		</g>
	</g>
	<g>
		<g>
			<path fill="#FFFFFF" d="M23.555,53.39v3.137h-1.284v-7.853h2.218c1.013,0,1.764,0.19,2.25,0.569s0.73,0.953,0.73,1.719
				c0,0.978-0.508,1.674-1.525,2.089l2.218,3.475h-1.461l-1.88-3.137H23.555z M23.555,52.327h0.892c0.598,0,1.031-0.111,1.3-0.333
				s0.403-0.551,0.403-0.988c0-0.444-0.145-0.763-0.435-0.956s-0.727-0.29-1.311-0.29h-0.849V52.327z"/>
			<path fill="#FFFFFF" d="M33.357,56.527l-0.177-0.779h-0.064c-0.175,0.276-0.425,0.492-0.75,0.65
				c-0.324,0.158-0.693,0.236-1.109,0.236c-0.72,0-1.257-0.179-1.611-0.537s-0.532-0.9-0.532-1.627v-3.883h1.273v3.663
				c0,0.455,0.093,0.796,0.279,1.023c0.186,0.227,0.478,0.341,0.875,0.341c0.53,0,0.919-0.158,1.168-0.476
				c0.249-0.316,0.374-0.848,0.374-1.592v-2.959h1.268v5.94H33.357z"/>
			<path fill="#FFFFFF" d="M39.185,50.479c0.741,0,1.319,0.269,1.732,0.806c0.414,0.537,0.621,1.291,0.621,2.261
				c0,0.974-0.209,1.732-0.628,2.275c-0.419,0.542-1.001,0.813-1.746,0.813c-0.752,0-1.335-0.271-1.751-0.811h-0.086l-0.231,0.704
				H36.15v-8.357h1.262v1.987c0,0.147-0.007,0.365-0.021,0.655s-0.025,0.475-0.032,0.553h0.054
				C37.813,50.774,38.404,50.479,39.185,50.479z M38.857,51.51c-0.508,0-0.875,0.149-1.099,0.448
				c-0.224,0.299-0.339,0.8-0.346,1.501v0.086c0,0.723,0.115,1.247,0.344,1.571c0.229,0.324,0.604,0.486,1.123,0.486
				c0.448,0,0.787-0.177,1.018-0.532c0.231-0.354,0.347-0.867,0.347-1.536C40.243,52.185,39.781,51.51,38.857,51.51z"/>
			<path fill="#FFFFFF" d="M42.101,50.586h1.375l1.208,3.368c0.183,0.48,0.304,0.931,0.365,1.354h0.043
				c0.032-0.197,0.091-0.436,0.177-0.717c0.086-0.281,0.541-1.616,1.364-4.004h1.364l-2.541,6.73
				c-0.462,1.235-1.232,1.853-2.31,1.853c-0.279,0-0.551-0.03-0.816-0.091v-0.999c0.19,0.043,0.406,0.064,0.65,0.064
				c0.609,0,1.037-0.353,1.284-1.058l0.22-0.559L42.101,50.586z"/>
			<path fill="#FFFFFF" d="M57.027,53.546c0,0.97-0.249,1.728-0.747,2.272s-1.19,0.816-2.079,0.816
				c-0.555,0-1.045-0.125-1.472-0.376s-0.754-0.61-0.983-1.08s-0.344-1.013-0.344-1.633c0-0.963,0.247-1.715,0.741-2.256
				s1.19-0.811,2.089-0.811c0.859,0,1.54,0.276,2.041,0.83C56.777,51.862,57.027,52.608,57.027,53.546z M52.704,53.546
				c0,1.372,0.507,2.057,1.52,2.057c1.002,0,1.504-0.686,1.504-2.057c0-1.357-0.505-2.036-1.515-2.036
				c-0.53,0-0.914,0.175-1.152,0.526C52.823,52.388,52.704,52.891,52.704,53.546z"/>
			<path fill="#FFFFFF" d="M63.704,56.527h-1.268v-3.652c0-0.458-0.092-0.8-0.277-1.026c-0.184-0.226-0.477-0.338-0.878-0.338
				c-0.534,0-0.924,0.158-1.171,0.473s-0.371,0.843-0.371,1.584v2.959h-1.262v-5.94h0.988l0.177,0.779h0.064
				c0.179-0.283,0.433-0.501,0.763-0.655s0.695-0.231,1.096-0.231c1.425,0,2.138,0.725,2.138,2.175V56.527z"/>
			<path fill="#FFFFFF" d="M69.735,53.39v3.137h-1.284v-7.853h2.218c1.013,0,1.764,0.19,2.25,0.569s0.73,0.953,0.73,1.719
				c0,0.978-0.508,1.674-1.525,2.089l2.218,3.475h-1.461l-1.88-3.137H69.735z M69.735,52.327h0.892c0.598,0,1.031-0.111,1.3-0.333
				s0.403-0.551,0.403-0.988c0-0.444-0.145-0.763-0.435-0.956s-0.727-0.29-1.311-0.29h-0.849V52.327z"/>
			<path fill="#FFFFFF" d="M79.065,56.527L78.813,55.7H78.77c-0.287,0.362-0.575,0.608-0.865,0.738
				c-0.29,0.131-0.663,0.196-1.117,0.196c-0.583,0-1.039-0.158-1.367-0.473c-0.327-0.315-0.491-0.761-0.491-1.337
				c0-0.612,0.228-1.074,0.682-1.386s1.147-0.481,2.079-0.51l1.026-0.032v-0.317c0-0.379-0.088-0.664-0.266-0.851
				c-0.177-0.188-0.452-0.282-0.824-0.282c-0.304,0-0.596,0.045-0.875,0.134s-0.548,0.195-0.806,0.317l-0.408-0.902
				c0.322-0.168,0.675-0.296,1.058-0.384c0.383-0.088,0.745-0.132,1.085-0.132c0.755,0,1.326,0.165,1.711,0.494
				c0.385,0.33,0.577,0.847,0.577,1.552v4.001H79.065z M77.185,55.667c0.458,0,0.826-0.128,1.104-0.384
				c0.278-0.256,0.417-0.615,0.417-1.077v-0.516l-0.763,0.032c-0.594,0.021-1.027,0.121-1.297,0.298
				c-0.27,0.178-0.405,0.449-0.405,0.814c0,0.265,0.079,0.47,0.236,0.615C76.634,55.595,76.87,55.667,77.185,55.667z"/>
			<path fill="#FFFFFF" d="M81.654,49.013c0-0.226,0.062-0.399,0.186-0.521c0.123-0.122,0.3-0.183,0.529-0.183
				c0.222,0,0.395,0.061,0.518,0.183c0.124,0.122,0.186,0.295,0.186,0.521c0,0.215-0.062,0.384-0.186,0.507
				c-0.123,0.124-0.296,0.186-0.518,0.186c-0.229,0-0.406-0.062-0.529-0.186C81.715,49.397,81.654,49.228,81.654,49.013z
				 M82.991,56.527h-1.262v-5.94h1.262V56.527z"/>
			<path fill="#FFFFFF" d="M86.058,56.527h-1.262v-8.357h1.262V56.527z"/>
			<path fill="#FFFFFF" d="M91.854,54.835c0,0.58-0.211,1.025-0.634,1.334c-0.422,0.31-1.028,0.465-1.815,0.465
				c-0.792,0-1.427-0.12-1.907-0.36v-1.09c0.698,0.322,1.348,0.483,1.95,0.483c0.777,0,1.166-0.234,1.166-0.704
				c0-0.15-0.043-0.276-0.129-0.376s-0.228-0.204-0.424-0.312s-0.471-0.229-0.822-0.365c-0.684-0.265-1.146-0.53-1.389-0.795
				c-0.241-0.265-0.362-0.609-0.362-1.031c0-0.508,0.205-0.903,0.615-1.184c0.41-0.281,0.967-0.422,1.673-0.422
				c0.698,0,1.359,0.142,1.982,0.424l-0.408,0.951c-0.641-0.265-1.18-0.397-1.617-0.397c-0.666,0-0.999,0.19-0.999,0.569
				c0,0.186,0.087,0.344,0.261,0.473c0.173,0.129,0.552,0.306,1.136,0.532c0.491,0.19,0.847,0.363,1.069,0.521
				s0.387,0.339,0.494,0.545C91.8,54.302,91.854,54.548,91.854,54.835z"/>
			<path fill="#FFFFFF" d="M21.277,73.718c-0.351,0-0.645-0.045-0.881-0.134v-1.08c0.301,0.075,0.562,0.113,0.784,0.113
				c0.702,0,1.053-0.444,1.053-1.332v-7.611h1.289v7.568c0,0.802-0.19,1.416-0.572,1.839C22.569,73.506,22.011,73.718,21.277,73.718
				z"/>
			<path fill="#FFFFFF" d="M29.141,71.527L28.888,70.7h-0.043c-0.287,0.362-0.575,0.608-0.865,0.738
				c-0.29,0.131-0.663,0.196-1.117,0.196c-0.583,0-1.039-0.158-1.367-0.473c-0.327-0.315-0.491-0.761-0.491-1.337
				c0-0.612,0.228-1.074,0.682-1.386s1.147-0.481,2.079-0.51l1.026-0.032v-0.317c0-0.379-0.088-0.664-0.266-0.851
				c-0.177-0.188-0.452-0.282-0.824-0.282c-0.304,0-0.596,0.045-0.875,0.134s-0.548,0.195-0.806,0.317l-0.408-0.902
				c0.322-0.168,0.675-0.296,1.058-0.384c0.383-0.088,0.745-0.132,1.085-0.132c0.755,0,1.326,0.165,1.711,0.494
				c0.385,0.33,0.577,0.847,0.577,1.552v4.001H29.141z M27.261,70.667c0.458,0,0.826-0.128,1.104-0.384
				c0.278-0.256,0.417-0.615,0.417-1.077v-0.516l-0.763,0.032c-0.594,0.021-1.027,0.121-1.297,0.298
				c-0.27,0.178-0.405,0.449-0.405,0.814c0,0.265,0.079,0.47,0.236,0.615C26.709,70.595,26.946,70.667,27.261,70.667z"/>
			<path fill="#FFFFFF" d="M33.158,71.527l-2.256-5.94h1.332l1.208,3.454c0.208,0.58,0.333,1.049,0.376,1.407h0.043
				c0.032-0.258,0.158-0.727,0.376-1.407l1.208-3.454h1.343l-2.267,5.94H33.158z"/>
			<path fill="#FFFFFF" d="M41.408,71.527L41.156,70.7h-0.043c-0.287,0.362-0.575,0.608-0.865,0.738
				c-0.29,0.131-0.663,0.196-1.117,0.196c-0.583,0-1.039-0.158-1.367-0.473c-0.327-0.315-0.491-0.761-0.491-1.337
				c0-0.612,0.228-1.074,0.682-1.386s1.147-0.481,2.079-0.51l1.026-0.032v-0.317c0-0.379-0.088-0.664-0.266-0.851
				c-0.177-0.188-0.452-0.282-0.824-0.282c-0.304,0-0.596,0.045-0.875,0.134s-0.548,0.195-0.806,0.317l-0.408-0.902
				c0.322-0.168,0.675-0.296,1.058-0.384c0.383-0.088,0.745-0.132,1.085-0.132c0.755,0,1.326,0.165,1.711,0.494
				c0.385,0.33,0.577,0.847,0.577,1.552v4.001H41.408z M39.528,70.667c0.458,0,0.826-0.128,1.104-0.384
				c0.278-0.256,0.417-0.615,0.417-1.077v-0.516l-0.763,0.032c-0.594,0.021-1.027,0.121-1.297,0.298
				c-0.27,0.178-0.405,0.449-0.405,0.814c0,0.265,0.079,0.47,0.236,0.615C38.977,70.595,39.213,70.667,39.528,70.667z"/>
			<path fill="#FFFFFF" d="M48.063,69.835c0,0.58-0.211,1.025-0.634,1.334c-0.422,0.31-1.028,0.465-1.815,0.465
				c-0.792,0-1.427-0.12-1.907-0.36v-1.09c0.698,0.322,1.348,0.483,1.95,0.483c0.777,0,1.166-0.234,1.166-0.704
				c0-0.15-0.043-0.276-0.129-0.376s-0.228-0.204-0.424-0.312s-0.471-0.229-0.822-0.365c-0.684-0.265-1.146-0.53-1.389-0.795
				c-0.241-0.265-0.362-0.609-0.362-1.031c0-0.508,0.205-0.903,0.615-1.184c0.41-0.281,0.967-0.422,1.673-0.422
				c0.698,0,1.359,0.142,1.982,0.424l-0.408,0.951c-0.641-0.265-1.18-0.397-1.617-0.397c-0.666,0-0.999,0.19-0.999,0.569
				c0,0.186,0.087,0.344,0.261,0.473c0.173,0.129,0.552,0.306,1.136,0.532c0.491,0.19,0.847,0.363,1.069,0.521
				s0.387,0.339,0.494,0.545C48.009,69.302,48.063,69.548,48.063,69.835z"/>
			<path fill="#FFFFFF" d="M51.823,71.634c-0.899,0-1.582-0.262-2.049-0.787c-0.468-0.524-0.701-1.277-0.701-2.258
				c0-0.999,0.244-1.767,0.733-2.304c0.488-0.537,1.195-0.806,2.119-0.806c0.626,0,1.19,0.116,1.692,0.349l-0.381,1.015
				c-0.534-0.208-0.974-0.312-1.321-0.312c-1.028,0-1.542,0.682-1.542,2.046c0,0.666,0.128,1.167,0.384,1.501
				c0.256,0.334,0.631,0.502,1.125,0.502c0.562,0,1.094-0.14,1.595-0.419v1.101c-0.226,0.132-0.466,0.228-0.723,0.285
				C52.499,71.605,52.188,71.634,51.823,71.634z"/>
			<path fill="#FFFFFF" d="M57.887,65.479c0.254,0,0.464,0.018,0.628,0.054l-0.124,1.176c-0.179-0.043-0.365-0.064-0.559-0.064
				c-0.505,0-0.914,0.165-1.227,0.494c-0.313,0.33-0.47,0.757-0.47,1.284v3.104h-1.262v-5.94h0.988l0.167,1.047h0.064
				c0.197-0.354,0.454-0.636,0.771-0.843C57.18,65.583,57.521,65.479,57.887,65.479z"/>
			<path fill="#FFFFFF" d="M59.541,64.013c0-0.226,0.062-0.399,0.186-0.521c0.123-0.122,0.3-0.183,0.529-0.183
				c0.222,0,0.395,0.061,0.518,0.183c0.124,0.122,0.186,0.295,0.186,0.521c0,0.215-0.062,0.384-0.186,0.507
				c-0.123,0.124-0.296,0.186-0.518,0.186c-0.229,0-0.406-0.062-0.529-0.186C59.603,64.397,59.541,64.228,59.541,64.013z
				 M60.878,71.527h-1.262v-5.94h1.262V71.527z"/>
			<path fill="#FFFFFF" d="M65.696,71.634c-0.752,0-1.335-0.271-1.751-0.811H63.87c0.05,0.501,0.075,0.806,0.075,0.913v2.433h-1.262
				v-8.583h1.021c0.029,0.111,0.088,0.376,0.177,0.795h0.064c0.394-0.602,0.985-0.902,1.772-0.902c0.741,0,1.319,0.269,1.732,0.806
				c0.414,0.537,0.621,1.291,0.621,2.261s-0.21,1.728-0.631,2.272C67.019,71.362,66.438,71.634,65.696,71.634z M65.39,66.51
				c-0.501,0-0.867,0.147-1.099,0.44c-0.23,0.293-0.346,0.763-0.346,1.407v0.188c0,0.723,0.115,1.247,0.344,1.571
				c0.229,0.324,0.604,0.486,1.123,0.486c0.437,0,0.773-0.179,1.01-0.537s0.354-0.868,0.354-1.531c0-0.666-0.117-1.17-0.352-1.512
				C66.189,66.681,65.845,66.51,65.39,66.51z"/>
			<path fill="#FFFFFF" d="M71.75,70.614c0.308,0,0.616-0.048,0.924-0.145v0.951c-0.14,0.061-0.319,0.112-0.54,0.153
				c-0.22,0.041-0.448,0.062-0.685,0.062c-1.196,0-1.794-0.63-1.794-1.891v-3.201h-0.811v-0.559l0.87-0.462l0.43-1.257h0.779v1.321
				h1.692v0.956h-1.692v3.18c0,0.304,0.076,0.529,0.229,0.674C71.303,70.542,71.502,70.614,71.75,70.614z"/>
			<path fill="#FFFFFF" d="M28.464,86.527h-1.289v-3.54h-3.62v3.54h-1.284v-7.853h1.284v3.212h3.62v-3.212h1.289V86.527z"/>
			<path fill="#FFFFFF" d="M33.244,86.527H31.96v-6.751h-2.31v-1.101h5.903v1.101h-2.31V86.527z"/>
			<path fill="#FFFFFF" d="M40.151,86.527l-2.277-6.558h-0.043c0.061,0.974,0.091,1.887,0.091,2.739v3.819h-1.166v-7.853h1.81
				l2.181,6.247h0.032l2.245-6.247h1.815v7.853h-1.235v-3.883c0-0.39,0.01-0.899,0.029-1.525c0.02-0.626,0.037-1.006,0.051-1.139
				h-0.043l-2.358,6.547H40.151z"/>
			<path fill="#FFFFFF" d="M46.908,86.527v-7.853h1.284v6.751h3.325v1.101H46.908z"/>
			<path fill="#FFFFFF" d="M57.838,81.623c0.792,0,1.418,0.209,1.88,0.628s0.693,0.99,0.693,1.713c0,0.838-0.262,1.492-0.787,1.963
				c-0.525,0.471-1.271,0.706-2.237,0.706c-0.877,0-1.566-0.142-2.068-0.424v-1.144c0.29,0.165,0.623,0.292,0.999,0.381
				s0.725,0.134,1.047,0.134c0.569,0,1.002-0.127,1.3-0.381s0.446-0.626,0.446-1.117c0-0.938-0.598-1.407-1.794-1.407
				c-0.168,0-0.376,0.017-0.623,0.051c-0.247,0.034-0.464,0.072-0.65,0.115l-0.564-0.333l0.301-3.835h4.082v1.123h-2.97
				l-0.177,1.944c0.125-0.021,0.278-0.046,0.459-0.075C57.356,81.637,57.577,81.623,57.838,81.623z"/>
			<path fill="#FFFFFF" d="M25.612,94.663c-0.738,0-1.318,0.261-1.74,0.784s-0.634,1.244-0.634,2.165
				c0,0.963,0.203,1.692,0.61,2.186c0.406,0.494,0.994,0.741,1.764,0.741c0.333,0,0.655-0.033,0.967-0.1
				c0.312-0.066,0.636-0.151,0.972-0.255v1.101c-0.616,0.233-1.314,0.349-2.095,0.349c-1.149,0-2.032-0.348-2.648-1.045
				c-0.616-0.696-0.924-1.692-0.924-2.989c0-0.816,0.149-1.531,0.449-2.143c0.299-0.612,0.731-1.082,1.297-1.407
				s1.23-0.489,1.993-0.489c0.802,0,1.543,0.168,2.224,0.505l-0.462,1.069c-0.265-0.125-0.545-0.235-0.84-0.33
				C26.248,94.71,25.938,94.663,25.612,94.663z"/>
			<path fill="#FFFFFF" d="M33.771,99.395c0,0.698-0.252,1.246-0.757,1.644s-1.201,0.596-2.089,0.596s-1.615-0.138-2.181-0.414
				v-1.214c0.358,0.168,0.738,0.301,1.142,0.397c0.402,0.097,0.778,0.145,1.125,0.145c0.508,0,0.884-0.097,1.125-0.29
				c0.242-0.193,0.363-0.453,0.363-0.779c0-0.293-0.111-0.542-0.333-0.747s-0.68-0.446-1.375-0.725
				c-0.716-0.29-1.221-0.621-1.515-0.994s-0.44-0.82-0.44-1.343c0-0.655,0.233-1.171,0.698-1.547s1.09-0.564,1.875-0.564
				c0.752,0,1.5,0.165,2.245,0.494l-0.408,1.047c-0.698-0.293-1.321-0.44-1.869-0.44c-0.416,0-0.73,0.09-0.945,0.271
				c-0.215,0.181-0.322,0.419-0.322,0.717c0,0.204,0.043,0.379,0.129,0.523c0.086,0.146,0.228,0.282,0.424,0.411
				s0.551,0.299,1.063,0.51c0.577,0.24,0.999,0.464,1.268,0.671s0.465,0.442,0.591,0.704S33.771,99.04,33.771,99.395z"/>
			<path fill="#FFFFFF" d="M39.818,99.395c0,0.698-0.252,1.246-0.757,1.644s-1.201,0.596-2.089,0.596s-1.615-0.138-2.181-0.414
				v-1.214c0.358,0.168,0.738,0.301,1.142,0.397c0.402,0.097,0.778,0.145,1.125,0.145c0.508,0,0.884-0.097,1.125-0.29
				c0.242-0.193,0.363-0.453,0.363-0.779c0-0.293-0.111-0.542-0.333-0.747s-0.68-0.446-1.375-0.725
				c-0.716-0.29-1.221-0.621-1.515-0.994s-0.44-0.82-0.44-1.343c0-0.655,0.233-1.171,0.698-1.547s1.09-0.564,1.875-0.564
				c0.752,0,1.5,0.165,2.245,0.494l-0.408,1.047c-0.698-0.293-1.321-0.44-1.869-0.44c-0.416,0-0.73,0.09-0.945,0.271
				c-0.215,0.181-0.322,0.419-0.322,0.717c0,0.204,0.043,0.379,0.129,0.523c0.086,0.146,0.228,0.282,0.424,0.411
				s0.551,0.299,1.063,0.51c0.577,0.24,0.999,0.464,1.268,0.671s0.465,0.442,0.591,0.704S39.818,99.04,39.818,99.395z"/>
			<path fill="#FFFFFF" d="M48.67,95.479c0,0.498-0.145,0.912-0.435,1.243c-0.29,0.332-0.698,0.554-1.225,0.669v0.043
				c0.63,0.079,1.103,0.275,1.418,0.588c0.315,0.313,0.473,0.73,0.473,1.249c0,0.755-0.267,1.338-0.8,1.748
				c-0.534,0.41-1.292,0.615-2.277,0.615c-0.87,0-1.604-0.142-2.202-0.424v-1.123c0.333,0.165,0.686,0.292,1.058,0.381
				s0.73,0.134,1.074,0.134c0.609,0,1.063-0.113,1.364-0.338s0.451-0.575,0.451-1.047c0-0.419-0.167-0.727-0.5-0.924
				s-0.856-0.295-1.568-0.295h-0.682v-1.026h0.693c1.253,0,1.88-0.433,1.88-1.3c0-0.336-0.109-0.596-0.328-0.779
				s-0.541-0.274-0.967-0.274c-0.297,0-0.583,0.042-0.859,0.126c-0.276,0.084-0.602,0.248-0.978,0.492l-0.618-0.881
				c0.72-0.53,1.556-0.795,2.508-0.795c0.792,0,1.409,0.17,1.853,0.51S48.67,94.881,48.67,95.479z"/>
		</g>
	</g>
</g>
<g id="Layer_2">
</g>
</svg>
