<?xml version="1.0" encoding="utf-8"?>
<!-- Generator: Adobe Illustrator 16.0.0, SVG Export Plug-In . SVG Version: 6.00 Build 0)  -->
<!DOCTYPE svg PUBLIC "-//W3C//DTD SVG 1.1//EN" "http://www.w3.org/Graphics/SVG/1.1/DTD/svg11.dtd">
<svg version="1.1" xmlns="http://www.w3.org/2000/svg" xmlns:xlink="http://www.w3.org/1999/xlink" x="0px" y="0px" width="200px"
	 height="130px" viewBox="0 0 200 130" enable-background="new 0 0 200 130" xml:space="preserve">
<g id="Layer_1">
	<rect x="9.813" y="8.594" fill="#2882A5" width="180.806" height="112.787"/>
	<g>
		<g>
			<path fill="#FFFFFF" d="M24.498,27.464l-3.633-9.492h-0.059c0.068,0.752,0.103,1.646,0.103,2.681v6.812h-1.15V16.756h1.875
				l3.391,8.833h0.059l3.42-8.833h1.86v10.708h-1.245v-6.899c0-0.791,0.034-1.65,0.103-2.578h-0.059l-3.662,9.478H24.498z"/>
			<path fill="#FFFFFF" d="M42.596,22.095c0,1.715-0.434,3.063-1.3,4.043c-0.867,0.982-2.072,1.473-3.615,1.473
				c-1.577,0-2.794-0.482-3.651-1.446c-0.857-0.965-1.286-2.325-1.286-4.083c0-1.744,0.43-3.095,1.289-4.055
				c0.859-0.959,2.08-1.439,3.662-1.439c1.538,0,2.739,0.489,3.604,1.465C42.164,19.029,42.596,20.377,42.596,22.095z
				 M34.063,22.095c0,1.451,0.309,2.551,0.926,3.3c0.618,0.75,1.515,1.124,2.692,1.124c1.187,0,2.083-0.373,2.688-1.12
				s0.908-1.848,0.908-3.304c0-1.439-0.302-2.532-0.904-3.277c-0.604-0.744-1.496-1.117-2.677-1.117
				c-1.187,0-2.089,0.375-2.707,1.125C34.372,19.574,34.063,20.665,34.063,22.095z"/>
			<path fill="#FFFFFF" d="M44.983,16.756h3.025c1.421,0,2.449,0.212,3.083,0.638c0.635,0.424,0.952,1.096,0.952,2.014
				c0,0.635-0.177,1.158-0.531,1.571c-0.354,0.412-0.871,0.68-1.549,0.802v0.073c1.626,0.278,2.439,1.133,2.439,2.563
				c0,0.957-0.324,1.704-0.971,2.241s-1.551,0.806-2.713,0.806h-3.735V16.756z M46.229,21.341h2.051
				c0.879,0,1.511-0.138,1.897-0.414c0.386-0.275,0.579-0.74,0.579-1.395c0-0.602-0.215-1.034-0.645-1.301
				c-0.43-0.266-1.113-0.398-2.051-0.398h-1.831V21.341z M46.229,22.396v4.006h2.234c0.864,0,1.515-0.167,1.952-0.501
				c0.437-0.335,0.655-0.858,0.655-1.571c0-0.664-0.224-1.152-0.67-1.465c-0.447-0.313-1.127-0.469-2.04-0.469H46.229z"/>
			<path fill="#FFFFFF" d="M54.703,27.464V16.756h1.245v10.708H54.703z"/>
			<path fill="#FFFFFF" d="M58.885,27.464V16.756h1.245v9.58h4.724v1.128H58.885z"/>
			<path fill="#FFFFFF" d="M72.64,27.464H66.67V16.756h5.969v1.106h-4.724v3.449h4.438v1.099h-4.438v3.94h4.724V27.464z"/>
			<path fill="#FFFFFF" d="M85.64,27.464l-1.333-3.406h-4.292l-1.318,3.406h-1.26l4.233-10.752h1.047l4.211,10.752H85.64z
				 M83.919,22.938l-1.245-3.317c-0.161-0.42-0.327-0.936-0.498-1.546c-0.107,0.469-0.261,0.984-0.461,1.546l-1.26,3.317H83.919z"/>
			<path fill="#FFFFFF" d="M95.191,19.876c0,1.084-0.37,1.918-1.109,2.501c-0.74,0.584-1.798,0.876-3.175,0.876h-1.26v4.211h-1.245
				V16.756h2.776C93.853,16.756,95.191,17.796,95.191,19.876z M89.646,22.183h1.121c1.104,0,1.902-0.178,2.395-0.534
				s0.74-0.928,0.74-1.714c0-0.708-0.232-1.235-0.696-1.582s-1.187-0.52-2.168-0.52h-1.392V22.183z"/>
			<path fill="#FFFFFF" d="M104.222,19.876c0,1.084-0.37,1.918-1.109,2.501c-0.74,0.584-1.798,0.876-3.175,0.876h-1.26v4.211h-1.245
				V16.756h2.776C102.884,16.756,104.222,17.796,104.222,19.876z M98.677,22.183h1.121c1.104,0,1.902-0.178,2.395-0.534
				s0.74-0.928,0.74-1.714c0-0.708-0.232-1.235-0.696-1.582s-1.187-0.52-2.168-0.52h-1.392V22.183z"/>
			<path fill="#FFFFFF" d="M106.463,27.464V16.756h1.245v9.58h4.724v1.128H106.463z"/>
			<path fill="#FFFFFF" d="M114.249,27.464V16.756h1.245v10.708H114.249z"/>
			<path fill="#FFFFFF" d="M123.016,17.716c-1.177,0-2.106,0.392-2.787,1.175c-0.682,0.784-1.022,1.856-1.022,3.22
				c0,1.401,0.328,2.483,0.985,3.248c0.657,0.764,1.593,1.146,2.809,1.146c0.747,0,1.599-0.135,2.556-0.403v1.091
				c-0.742,0.279-1.658,0.418-2.747,0.418c-1.577,0-2.794-0.479-3.651-1.436c-0.857-0.957-1.286-2.316-1.286-4.08
				c0-1.103,0.206-2.069,0.619-2.9c0.413-0.829,1.008-1.469,1.787-1.918s1.696-0.674,2.75-0.674c1.123,0,2.104,0.205,2.944,0.615
				l-0.527,1.068C124.637,17.905,123.826,17.716,123.016,17.716z"/>
			<path fill="#FFFFFF" d="M134.625,27.464l-1.333-3.406H129l-1.318,3.406h-1.26l4.233-10.752h1.047l4.211,10.752H134.625z
				 M132.903,22.938l-1.245-3.317c-0.161-0.42-0.327-0.936-0.498-1.546c-0.107,0.469-0.261,0.984-0.461,1.546l-1.26,3.317H132.903z"
				/>
			<path fill="#FFFFFF" d="M140.682,27.464h-1.245v-9.602h-3.391v-1.106h8.027v1.106h-3.391V27.464z"/>
			<path fill="#FFFFFF" d="M145.684,27.464V16.756h1.245v10.708H145.684z"/>
			<path fill="#FFFFFF" d="M159.161,22.095c0,1.715-0.434,3.063-1.3,4.043c-0.867,0.982-2.072,1.473-3.615,1.473
				c-1.577,0-2.794-0.482-3.651-1.446c-0.857-0.965-1.286-2.325-1.286-4.083c0-1.744,0.43-3.095,1.289-4.055
				c0.859-0.959,2.08-1.439,3.662-1.439c1.538,0,2.739,0.489,3.604,1.465C158.729,19.029,159.161,20.377,159.161,22.095z
				 M150.628,22.095c0,1.451,0.309,2.551,0.926,3.3c0.618,0.75,1.515,1.124,2.692,1.124c1.187,0,2.083-0.373,2.688-1.12
				s0.908-1.848,0.908-3.304c0-1.439-0.302-2.532-0.904-3.277c-0.604-0.744-1.496-1.117-2.677-1.117
				c-1.187,0-2.089,0.375-2.707,1.125C150.937,19.574,150.628,20.665,150.628,22.095z"/>
			<path fill="#FFFFFF" d="M169.913,27.464h-1.421l-5.852-8.986h-0.059c0.078,1.055,0.117,2.021,0.117,2.9v6.086h-1.15V16.756h1.406
				l5.837,8.95h0.059c-0.01-0.132-0.032-0.556-0.066-1.271c-0.034-0.716-0.046-1.228-0.037-1.534v-6.146h1.165V27.464z"/>
			<path fill="#FFFFFF" d="M178.899,24.614c0,0.943-0.342,1.678-1.025,2.205s-1.611,0.791-2.783,0.791
				c-1.27,0-2.246-0.163-2.93-0.49v-1.201c0.439,0.186,0.918,0.332,1.436,0.439s1.03,0.16,1.538,0.16
				c0.83,0,1.455-0.157,1.875-0.472c0.42-0.315,0.63-0.753,0.63-1.315c0-0.37-0.075-0.675-0.224-0.911
				c-0.149-0.237-0.398-0.455-0.747-0.655s-0.88-0.428-1.593-0.682c-0.996-0.356-1.708-0.778-2.135-1.268
				c-0.428-0.487-0.641-1.125-0.641-1.911c0-0.825,0.31-1.481,0.93-1.97s1.44-0.732,2.461-0.732c1.064,0,2.043,0.195,2.937,0.586
				l-0.388,1.084c-0.884-0.371-1.743-0.557-2.578-0.557c-0.659,0-1.174,0.142-1.545,0.424c-0.371,0.284-0.557,0.677-0.557,1.18
				c0,0.371,0.068,0.675,0.205,0.912c0.137,0.236,0.367,0.454,0.692,0.651c0.325,0.198,0.822,0.417,1.491,0.655
				c1.123,0.401,1.896,0.831,2.318,1.289C178.688,23.287,178.899,23.882,178.899,24.614z"/>
		</g>
	</g>
	<circle fill="none" stroke="#FFFFFF" stroke-miterlimit="10" cx="148.885" cy="80.433" r="30.785"/>
	<g>
		<g>
			<g>
				<path fill="none" stroke="#FFFFFF" stroke-miterlimit="10" d="M158.434,59.074h-19.097c-1.827,0-3.303,1.48-3.303,3.305v38.776
					c0,1.824,1.477,3.303,3.303,3.303h19.097c1.824,0,3.304-1.479,3.304-3.303V62.379C161.737,60.555,160.258,59.074,158.434,59.074
					z"/>
			</g>
			<rect x="138.51" y="64.788" fill="none" stroke="#FFFFFF" stroke-miterlimit="10" width="20.751" height="29.319"/>
			<rect x="144.424" y="61.515" fill="#FFFFFF" width="8.857" height="0.967"/>
			<circle fill="#FFFFFF" cx="156.633" cy="62.039" r="0.845"/>
			<circle fill="#FFFFFF" cx="148.886" cy="99.706" r="2.108"/>
		</g>
		<path fill-rule="evenodd" clip-rule="evenodd" fill="#FFFFFF" d="M154.167,87.447h-1.247c-0.016-0.068-0.042-0.135-0.077-0.198
			c-0.034-0.062-0.128-0.243-0.248-0.473c-0.174-0.332-0.42-0.802-0.685-1.302h2.256c0.127,0,0.231,0.105,0.231,0.232v1.507
			C154.397,87.343,154.293,87.447,154.167,87.447 M151.947,86.537c0.015,0.03,0.031,0.061,0.048,0.091
			c0.002,0.006,0.004,0.009,0.007,0.016c0.205,0.389,0.359,0.689,0.422,0.804c0.005,0.008,0.01,0.018,0.013,0.024
			c0.164,0.301-0.156,0.547-0.335,0.622c-0.179,0.074-0.282,0.148-0.549,0.017c-0.268-0.136-1.6-3.223-1.942-4.027
			c-0.34-0.806-1.371-2.949-1.039-3.115c0.238-0.121,1.091,1.567,1.729,2.581c0.364,0.578,0.956,1.677,1.425,2.569
			c0.007,0.012,0.013,0.024,0.02,0.035c0.02,0.041,0.042,0.081,0.063,0.12c0.006,0.012,0.011,0.021,0.018,0.034
			c0.018,0.034,0.036,0.069,0.054,0.104c0.01,0.018,0.022,0.039,0.031,0.059C151.922,86.493,151.935,86.515,151.947,86.537
			 M148.806,84.325l-0.938,1.644l-0.847,1.479l-1.309,2.289c-0.069,0.122-0.228,0.165-0.35,0.094l-0.668-0.385
			c-0.123-0.07-0.166-0.229-0.095-0.351l0.942-1.647l1.128-1.973l1.024-1.789c0.071-0.124,0.228-0.166,0.35-0.095l0.668,0.384
			C148.834,84.046,148.876,84.203,148.806,84.325 M143.539,87.447c-0.129,0-0.232-0.104-0.232-0.233v-1.507
			c0-0.127,0.104-0.232,0.232-0.232h2.595l-1.128,1.973H143.539z M144.476,89.741l0.667,0.384c0.122,0.071,0.128,0.196,0.011,0.274
			l-0.863,0.59c-0.116,0.08-0.199,0.029-0.184-0.111l0.117-1.01C144.24,89.729,144.353,89.669,144.476,89.741 M149.706,85.475
			c0.396,0.902,0.69,1.533,0.912,1.973h-3.062l1.128-1.973H149.706z M152.12,88.523l0.384-0.2c0.136-0.068,0.304-0.012,0.376,0.127
			l0.319,0.612c0.072,0.141,0.021,0.317-0.109,0.396l-0.273,0.164c-0.13,0.079-0.306,0.036-0.389-0.096l-0.402-0.639
			C151.942,88.757,151.985,88.593,152.12,88.523 M154.064,91.357c-0.085-0.27-0.727-0.287-1.014-0.694
			c-0.288-0.407-0.05-0.617,0.05-0.713C154.267,89.291,154.064,91.357,154.064,91.357"/>
		<path fill-rule="evenodd" clip-rule="evenodd" fill="#FFFFFF" d="M152.818,74.771c-0.347,0-0.626-0.288-0.626-0.645v-2.758
			c0-0.355,0.28-0.645,0.626-0.645c0.345,0,0.625,0.289,0.625,0.645v2.758C153.443,74.482,153.163,74.771,152.818,74.771
			 M151.113,76.131h-0.478c0.018,0.057,0.026,0.115,0.026,0.18v0.034v0.217v1.109c0,0.355-0.281,0.644-0.626,0.644
			s-0.626-0.288-0.626-0.644v-1.109v-0.217v-0.034c0-0.064,0.009-0.123,0.025-0.18h-1.164c0.016,0.057,0.026,0.115,0.026,0.18v0.034
			v0.217v1.109c0,0.355-0.28,0.644-0.626,0.644c-0.346,0-0.626-0.288-0.626-0.644v-1.109v-0.217v-0.034
			c0-0.064,0.008-0.123,0.024-0.18h-0.477c-0.365,0-0.661-0.305-0.661-0.682v-3.751v-0.438v-0.537h0.044h5.754h0.044v0.537v0.438
			v3.751C151.773,75.826,151.478,76.131,151.113,76.131 M147.416,68.146l-0.117-0.182l-0.117-0.179l-0.261-0.402
			c-0.031-0.05-0.018-0.116,0.029-0.149c0.049-0.032,0.113-0.018,0.146,0.03l0.279,0.432l0.117,0.18l0.119,0.185
			c0.376-0.15,0.797-0.235,1.241-0.235c0.444,0,0.865,0.085,1.242,0.235l0.12-0.185l0.117-0.18l0.278-0.432
			c0.033-0.048,0.096-0.063,0.145-0.03c0.048,0.033,0.062,0.1,0.029,0.149l-0.26,0.402l-0.116,0.179l-0.118,0.182
			c0.886,0.426,1.485,1.229,1.485,2.149h-5.843C145.931,69.374,146.529,68.571,147.416,68.146 M150.104,69.437
			c0.173,0,0.312-0.145,0.312-0.324c0-0.177-0.139-0.32-0.312-0.32s-0.313,0.144-0.313,0.32
			C149.791,69.292,149.932,69.437,150.104,69.437 M147.599,69.437c0.173,0,0.314-0.145,0.314-0.324c0-0.177-0.141-0.32-0.314-0.32
			c-0.172,0-0.312,0.144-0.312,0.32C147.288,69.292,147.427,69.437,147.599,69.437 M144.887,74.771
			c-0.345,0-0.626-0.288-0.626-0.645v-2.758c0-0.355,0.281-0.645,0.626-0.645c0.346,0,0.626,0.289,0.626,0.645v2.758
			C145.513,74.482,145.233,74.771,144.887,74.771"/>
	</g>
	<g>
		<g>
			<path fill="#FFFFFF" d="M28.688,52.496h-1.574l-3.862-6.257h-0.043l0.027,0.349c0.05,0.666,0.075,1.275,0.075,1.826v4.082h-1.166
				v-7.852h1.558l3.851,6.225h0.032c-0.007-0.082-0.021-0.383-0.043-0.9c-0.021-0.517-0.032-0.92-0.032-1.211v-4.113h1.176V52.496z"
				/>
			<path fill="#FFFFFF" d="M34.344,52.496l-0.252-0.826h-0.043c-0.287,0.361-0.575,0.607-0.865,0.738s-0.663,0.195-1.117,0.195
				c-0.583,0-1.039-0.157-1.367-0.473c-0.327-0.314-0.491-0.76-0.491-1.337c0-0.612,0.228-1.074,0.682-1.386s1.147-0.481,2.079-0.51
				l1.026-0.033v-0.316c0-0.379-0.088-0.664-0.266-0.852c-0.177-0.188-0.452-0.281-0.824-0.281c-0.304,0-0.596,0.045-0.875,0.134
				s-0.548,0.195-0.806,0.317l-0.408-0.902c0.322-0.169,0.675-0.297,1.058-0.385s0.745-0.131,1.085-0.131
				c0.755,0,1.326,0.164,1.711,0.494c0.385,0.329,0.577,0.846,0.577,1.552v4.001H34.344z M32.464,51.637
				c0.458,0,0.826-0.127,1.104-0.383c0.278-0.257,0.417-0.615,0.417-1.078V49.66l-0.763,0.033c-0.594,0.021-1.027,0.121-1.297,0.297
				c-0.27,0.178-0.405,0.449-0.405,0.814c0,0.266,0.079,0.471,0.236,0.615S32.149,51.637,32.464,51.637z"/>
			<path fill="#FFFFFF" d="M39.221,51.584c0.308,0,0.616-0.049,0.924-0.146v0.95c-0.14,0.062-0.319,0.112-0.54,0.154
				c-0.22,0.041-0.448,0.061-0.685,0.061c-1.196,0-1.794-0.63-1.794-1.891v-3.201h-0.811v-0.559l0.87-0.461l0.43-1.258h0.779v1.322
				h1.692v0.955h-1.692v3.18c0,0.305,0.076,0.529,0.229,0.674C38.774,51.512,38.974,51.584,39.221,51.584z"/>
			<path fill="#FFFFFF" d="M41.256,44.982c0-0.226,0.062-0.399,0.186-0.521c0.123-0.121,0.3-0.182,0.529-0.182
				c0.222,0,0.395,0.061,0.518,0.182c0.124,0.122,0.186,0.296,0.186,0.521c0,0.215-0.062,0.385-0.186,0.508
				c-0.123,0.123-0.296,0.186-0.518,0.186c-0.229,0-0.406-0.063-0.529-0.186C41.318,45.367,41.256,45.197,41.256,44.982z
				 M42.594,52.496h-1.262v-5.939h1.262V52.496z"/>
			<path fill="#FFFFFF" d="M45.752,52.496l-2.256-5.939h1.332l1.208,3.453c0.208,0.58,0.333,1.049,0.376,1.407h0.043
				c0.032-0.258,0.158-0.728,0.376-1.407l1.208-3.453h1.343l-2.267,5.939H45.752z"/>
			<path fill="#FFFFFF" d="M52.879,52.604c-0.924,0-1.646-0.27-2.167-0.809c-0.521-0.538-0.781-1.28-0.781-2.226
				c0-0.97,0.242-1.733,0.725-2.288s1.147-0.832,1.993-0.832c0.784,0,1.404,0.238,1.858,0.714s0.682,1.132,0.682,1.966v0.682H51.23
				c0.018,0.577,0.174,1.02,0.467,1.33c0.293,0.31,0.707,0.465,1.241,0.465c0.351,0,0.678-0.033,0.98-0.1
				c0.302-0.066,0.627-0.177,0.975-0.33v1.025c-0.308,0.146-0.62,0.25-0.935,0.312S53.284,52.604,52.879,52.604z M52.648,47.404
				c-0.401,0-0.723,0.127-0.964,0.382c-0.242,0.255-0.386,0.625-0.433,1.112h2.696c-0.007-0.491-0.125-0.863-0.354-1.115
				S53.049,47.404,52.648,47.404z"/>
			<path fill="#FFFFFF" d="M33.366,59.982c0-0.226,0.062-0.399,0.186-0.521c0.123-0.121,0.3-0.182,0.529-0.182
				c0.222,0,0.395,0.061,0.518,0.182c0.124,0.122,0.186,0.296,0.186,0.521c0,0.215-0.062,0.385-0.186,0.508
				c-0.123,0.123-0.296,0.186-0.518,0.186c-0.229,0-0.406-0.063-0.529-0.186C33.428,60.367,33.366,60.197,33.366,59.982z
				 M34.704,67.496h-1.262v-5.939h1.262V67.496z"/>
			<path fill="#FFFFFF" d="M43.614,63.56c0,1.278-0.32,2.272-0.958,2.981c-0.64,0.709-1.544,1.063-2.715,1.063
				c-1.185,0-2.096-0.352-2.731-1.055c-0.636-0.703-0.954-1.703-0.954-3s0.32-2.291,0.958-2.986c0.64-0.695,1.552-1.042,2.737-1.042
				c1.167,0,2.07,0.353,2.707,1.058C43.295,61.284,43.614,62.277,43.614,63.56z M37.62,63.56c0,0.967,0.195,1.7,0.585,2.2
				c0.39,0.498,0.969,0.748,1.735,0.748c0.763,0,1.338-0.246,1.727-0.74c0.388-0.494,0.583-1.23,0.583-2.208
				c0-0.964-0.192-1.694-0.578-2.191c-0.385-0.497-0.958-0.747-1.721-0.747c-0.77,0-1.351,0.25-1.743,0.747
				C37.816,61.865,37.62,62.596,37.62,63.56z"/>
			<path fill="#FFFFFF" d="M49.829,65.364c0,0.698-0.252,1.246-0.757,1.644s-1.201,0.596-2.089,0.596s-1.615-0.137-2.181-0.413
				v-1.214c0.358,0.168,0.738,0.301,1.142,0.397c0.402,0.097,0.778,0.146,1.125,0.146c0.508,0,0.884-0.098,1.125-0.291
				c0.242-0.193,0.363-0.453,0.363-0.778c0-0.294-0.111-0.542-0.333-0.747c-0.222-0.203-0.68-0.445-1.375-0.725
				c-0.716-0.29-1.221-0.621-1.515-0.994c-0.293-0.372-0.44-0.819-0.44-1.342c0-0.656,0.233-1.172,0.698-1.547
				c0.465-0.377,1.09-0.564,1.875-0.564c0.752,0,1.5,0.164,2.245,0.494l-0.408,1.047c-0.698-0.293-1.321-0.439-1.869-0.439
				c-0.416,0-0.73,0.09-0.945,0.271c-0.215,0.18-0.322,0.419-0.322,0.717c0,0.203,0.043,0.379,0.129,0.523s0.228,0.281,0.424,0.41
				s0.551,0.299,1.063,0.511c0.577,0.239,0.999,0.464,1.268,0.671c0.269,0.208,0.465,0.443,0.591,0.704S49.829,65.01,49.829,65.364z
				"/>
			<path fill="#FFFFFF" d="M38.447,82.496l-0.784-2.18h-3.002l-0.768,2.18h-1.354l2.938-7.885h1.396l2.938,7.885H38.447z
				 M37.325,79.209l-0.736-2.137c-0.054-0.144-0.128-0.369-0.223-0.678c-0.095-0.308-0.161-0.533-0.196-0.676
				c-0.097,0.439-0.238,0.922-0.424,1.444l-0.709,2.046H37.325z"/>
			<path fill="#FFFFFF" d="M45.94,82.496h-1.268v-3.652c0-0.458-0.092-0.8-0.277-1.025c-0.184-0.226-0.477-0.338-0.878-0.338
				c-0.534,0-0.924,0.157-1.171,0.473c-0.247,0.314-0.371,0.843-0.371,1.584v2.959h-1.262v-5.939h0.988l0.177,0.778h0.064
				c0.179-0.282,0.433-0.501,0.763-0.655s0.695-0.23,1.096-0.23c1.425,0,2.138,0.725,2.138,2.175V82.496z"/>
			<path fill="#FFFFFF" d="M49.7,82.604c-0.741,0-1.319-0.268-1.735-0.805s-0.623-1.291-0.623-2.262c0-0.975,0.21-1.732,0.631-2.275
				c0.421-0.541,1.004-0.813,1.749-0.813c0.781,0,1.375,0.287,1.783,0.864h0.064c-0.061-0.427-0.091-0.763-0.091-1.01v-2.165h1.268
				v8.357h-0.988l-0.22-0.778h-0.059C51.073,82.309,50.48,82.604,49.7,82.604z M50.038,81.584c0.519,0,0.897-0.146,1.133-0.438
				c0.236-0.293,0.358-0.766,0.365-1.422v-0.177c0-0.749-0.122-1.28-0.365-1.595c-0.244-0.315-0.625-0.473-1.144-0.473
				c-0.444,0-0.786,0.18-1.026,0.539s-0.36,0.873-0.36,1.539c0,0.658,0.116,1.161,0.349,1.506
				C49.224,81.41,49.573,81.584,50.038,81.584z"/>
			<path fill="#FFFFFF" d="M57.563,76.449c0.254,0,0.464,0.018,0.628,0.053l-0.124,1.177c-0.179-0.043-0.365-0.064-0.559-0.064
				c-0.505,0-0.914,0.165-1.227,0.494c-0.313,0.329-0.47,0.757-0.47,1.284v3.104H54.55v-5.939h0.988l0.167,1.047h0.064
				c0.197-0.354,0.454-0.636,0.771-0.844C56.856,76.553,57.198,76.449,57.563,76.449z"/>
			<path fill="#FFFFFF" d="M64.562,79.516c0,0.971-0.249,1.728-0.747,2.271c-0.498,0.545-1.19,0.816-2.079,0.816
				c-0.555,0-1.045-0.125-1.472-0.375c-0.426-0.251-0.754-0.611-0.983-1.08s-0.344-1.014-0.344-1.633
				c0-0.963,0.247-1.715,0.741-2.256s1.19-0.811,2.089-0.811c0.859,0,1.54,0.275,2.041,0.83
				C64.311,77.832,64.562,78.578,64.562,79.516z M60.238,79.516c0,1.371,0.507,2.057,1.52,2.057c1.002,0,1.504-0.686,1.504-2.057
				c0-1.357-0.505-2.035-1.515-2.035c-0.53,0-0.914,0.175-1.152,0.525C60.357,78.357,60.238,78.86,60.238,79.516z"/>
			<path fill="#FFFFFF" d="M65.937,74.982c0-0.226,0.062-0.399,0.186-0.521c0.123-0.121,0.3-0.182,0.529-0.182
				c0.222,0,0.395,0.061,0.518,0.182c0.124,0.122,0.186,0.296,0.186,0.521c0,0.215-0.062,0.385-0.186,0.508
				c-0.123,0.123-0.296,0.186-0.518,0.186c-0.229,0-0.406-0.063-0.529-0.186C65.998,75.367,65.937,75.197,65.937,74.982z
				 M67.274,82.496h-1.262v-5.939h1.262V82.496z"/>
			<path fill="#FFFFFF" d="M71.082,82.604c-0.741,0-1.319-0.268-1.735-0.805s-0.623-1.291-0.623-2.262
				c0-0.975,0.21-1.732,0.631-2.275c0.421-0.541,1.004-0.813,1.749-0.813c0.781,0,1.375,0.287,1.783,0.864h0.064
				c-0.061-0.427-0.091-0.763-0.091-1.01v-2.165h1.268v8.357h-0.988l-0.22-0.778H72.86C72.455,82.309,71.863,82.604,71.082,82.604z
				 M71.42,81.584c0.519,0,0.897-0.146,1.133-0.438c0.236-0.293,0.358-0.766,0.365-1.422v-0.177c0-0.749-0.122-1.28-0.365-1.595
				c-0.244-0.315-0.625-0.473-1.144-0.473c-0.444,0-0.786,0.18-1.026,0.539s-0.36,0.873-0.36,1.539c0,0.658,0.116,1.161,0.349,1.506
				C70.606,81.41,70.955,81.584,71.42,81.584z"/>
			<path fill="#FFFFFF" d="M25.487,90.633c-0.738,0-1.318,0.261-1.74,0.783c-0.422,0.523-0.634,1.244-0.634,2.165
				c0,0.964,0.203,1.692,0.61,2.187c0.406,0.494,0.994,0.74,1.764,0.74c0.333,0,0.655-0.033,0.967-0.1
				c0.312-0.065,0.636-0.15,0.972-0.254v1.101c-0.616,0.233-1.314,0.349-2.095,0.349c-1.149,0-2.032-0.348-2.648-1.045
				c-0.616-0.695-0.924-1.691-0.924-2.988c0-0.816,0.149-1.531,0.449-2.143c0.299-0.613,0.731-1.082,1.297-1.408
				c0.566-0.325,1.23-0.488,1.993-0.488c0.802,0,1.543,0.168,2.224,0.505l-0.462,1.069c-0.265-0.126-0.545-0.236-0.84-0.33
				C26.123,90.68,25.813,90.633,25.487,90.633z"/>
			<path fill="#FFFFFF" d="M34.252,94.516c0,0.971-0.249,1.728-0.747,2.271c-0.498,0.545-1.19,0.816-2.079,0.816
				c-0.555,0-1.045-0.125-1.472-0.375c-0.426-0.251-0.754-0.611-0.983-1.08s-0.344-1.014-0.344-1.633
				c0-0.963,0.247-1.715,0.741-2.256s1.19-0.811,2.089-0.811c0.859,0,1.54,0.275,2.041,0.83
				C34.002,92.832,34.252,93.578,34.252,94.516z M29.929,94.516c0,1.371,0.507,2.057,1.52,2.057c1.002,0,1.504-0.686,1.504-2.057
				c0-1.357-0.505-2.035-1.515-2.035c-0.53,0-0.914,0.175-1.152,0.525C30.048,93.357,29.929,93.86,29.929,94.516z"/>
			<path fill="#FFFFFF" d="M38.716,91.449c0.254,0,0.464,0.018,0.628,0.053l-0.124,1.177c-0.179-0.043-0.365-0.064-0.559-0.064
				c-0.505,0-0.914,0.165-1.227,0.494c-0.313,0.329-0.47,0.757-0.47,1.284v3.104h-1.262v-5.939h0.988l0.167,1.047h0.064
				c0.197-0.354,0.454-0.636,0.771-0.844C38.009,91.553,38.351,91.449,38.716,91.449z"/>
			<path fill="#FFFFFF" d="M42.449,97.604c-0.741,0-1.319-0.268-1.735-0.805s-0.623-1.291-0.623-2.262
				c0-0.975,0.21-1.732,0.631-2.275c0.421-0.541,1.004-0.813,1.749-0.813c0.781,0,1.375,0.287,1.783,0.864h0.064
				c-0.061-0.427-0.091-0.763-0.091-1.01v-2.165h1.268v8.357h-0.988l-0.22-0.778h-0.059C43.822,97.309,43.229,97.604,42.449,97.604z
				 M42.787,96.584c0.519,0,0.897-0.146,1.133-0.438c0.236-0.293,0.358-0.766,0.365-1.422v-0.177c0-0.749-0.122-1.28-0.365-1.595
				c-0.244-0.315-0.625-0.473-1.144-0.473c-0.444,0-0.786,0.18-1.026,0.539s-0.36,0.873-0.36,1.539c0,0.658,0.116,1.161,0.349,1.506
				C41.973,96.41,42.322,96.584,42.787,96.584z"/>
			<path fill="#FFFFFF" d="M52.568,94.516c0,0.971-0.249,1.728-0.747,2.271c-0.498,0.545-1.19,0.816-2.079,0.816
				c-0.555,0-1.045-0.125-1.472-0.375c-0.426-0.251-0.754-0.611-0.983-1.08s-0.344-1.014-0.344-1.633
				c0-0.963,0.247-1.715,0.741-2.256s1.19-0.811,2.089-0.811c0.859,0,1.54,0.275,2.041,0.83
				C52.317,92.832,52.568,93.578,52.568,94.516z M48.244,94.516c0,1.371,0.507,2.057,1.52,2.057c1.002,0,1.504-0.686,1.504-2.057
				c0-1.357-0.505-2.035-1.515-2.035c-0.53,0-0.914,0.175-1.152,0.525C48.363,93.357,48.244,93.86,48.244,94.516z"/>
			<path fill="#FFFFFF" d="M55.372,97.496l-2.256-5.939h1.332l1.208,3.453c0.208,0.58,0.333,1.049,0.376,1.407h0.043
				c0.032-0.258,0.158-0.728,0.376-1.407l1.208-3.453h1.343l-2.267,5.939H55.372z"/>
			<path fill="#FFFFFF" d="M63.622,97.496l-0.252-0.826h-0.043c-0.287,0.361-0.575,0.607-0.865,0.738s-0.663,0.195-1.117,0.195
				c-0.583,0-1.039-0.157-1.367-0.473c-0.327-0.314-0.491-0.76-0.491-1.337c0-0.612,0.228-1.074,0.682-1.386s1.147-0.481,2.079-0.51
				l1.026-0.033v-0.316c0-0.379-0.088-0.664-0.266-0.852c-0.177-0.188-0.452-0.281-0.824-0.281c-0.304,0-0.596,0.045-0.875,0.134
				s-0.548,0.195-0.806,0.317l-0.408-0.902c0.322-0.169,0.675-0.297,1.058-0.385s0.745-0.131,1.085-0.131
				c0.755,0,1.326,0.164,1.711,0.494c0.385,0.329,0.577,0.846,0.577,1.552v4.001H63.622z M61.742,96.637
				c0.458,0,0.826-0.127,1.104-0.383c0.278-0.257,0.417-0.615,0.417-1.078V94.66l-0.763,0.033c-0.594,0.021-1.027,0.121-1.297,0.297
				c-0.27,0.178-0.405,0.449-0.405,0.814c0,0.266,0.079,0.471,0.236,0.615S61.427,96.637,61.742,96.637z"/>
		</g>
	</g>
	
		<rect x="7.348" y="6.421" fill="none" stroke="#2882A5" stroke-width="1.5" stroke-miterlimit="10" width="185.736" height="117.717"/>
</g>
<g id="Layer_2">
</g>
</svg>
