<?xml version="1.0" encoding="utf-8"?>
<!-- Generator: Adobe Illustrator 16.0.0, SVG Export Plug-In . SVG Version: 6.00 Build 0)  -->
<!DOCTYPE svg PUBLIC "-//W3C//DTD SVG 1.1//EN" "http://www.w3.org/Graphics/SVG/1.1/DTD/svg11.dtd">
<svg version="1.1" xmlns="http://www.w3.org/2000/svg" xmlns:xlink="http://www.w3.org/1999/xlink" x="0px" y="0px" width="200px"
	 height="130px" viewBox="0 0 200 130" enable-background="new 0 0 200 130" xml:space="preserve">
<g id="Layer_1">
	<path fill="#606161" d="M20.975,54.401H15.75v-0.939l1.988-1.998c0.587-0.602,0.976-1.027,1.168-1.279
		c0.191-0.251,0.331-0.487,0.419-0.709s0.132-0.458,0.132-0.711c0-0.35-0.104-0.624-0.313-0.823
		c-0.21-0.201-0.498-0.301-0.867-0.301c-0.296,0-0.582,0.055-0.857,0.163c-0.276,0.109-0.595,0.307-0.957,0.59l-0.67-0.816
		c0.429-0.362,0.846-0.619,1.25-0.77c0.404-0.151,0.835-0.228,1.292-0.228c0.717,0,1.292,0.188,1.725,0.563
		c0.433,0.374,0.648,0.878,0.648,1.511c0,0.348-0.063,0.678-0.188,0.991c-0.125,0.313-0.316,0.635-0.574,0.968
		c-0.259,0.332-0.688,0.781-1.29,1.347l-1.339,1.298v0.052h3.659V54.401z"/>
	<path fill="#606161" d="M28.727,50.473c0,1.272-0.353,2.245-1.06,2.918c-0.707,0.674-1.725,1.011-3.054,1.011h-2.156v-7.71h2.384
		c1.227,0,2.181,0.33,2.863,0.991C28.386,48.344,28.727,49.274,28.727,50.473z M27.399,50.515c0-1.847-0.863-2.769-2.59-2.769
		h-1.092v5.596h0.896C26.47,53.342,27.399,52.399,27.399,50.515z"/>
	<g>
		<g>
			<path fill="#2882A5" d="M186.333,16.775c1.328,0,2.409,1.082,2.409,2.411v99.527c0,1.33-1.081,2.412-2.409,2.412H13.463
				c-1.33,0-2.411-1.082-2.411-2.412V19.187c0-1.329,1.082-2.411,2.411-2.411H186.333 M186.333,15.585H13.463
				c-1.979,0-3.602,1.622-3.602,3.602v99.527c0,1.98,1.623,3.603,3.602,3.603h172.871c1.979,0,3.6-1.622,3.6-3.603V19.187
				C189.933,17.207,188.313,15.585,186.333,15.585L186.333,15.585z"/>
		</g>
	</g>
	<path fill="#2882A5" d="M186.333,10.185H13.463c-1.979,0-3.602,1.62-3.602,3.601V28.19v1.803v3.603h3.602h172.871h3.6v-3.603V28.19
		V13.785C189.933,11.805,188.313,10.185,186.333,10.185z"/>
	<g>
		<rect x="18.92" y="16.499" fill="none" width="171.363" height="14.794"/>
		<text transform="matrix(1 0 0 1 18.9209 26.4531)" fill="#FFFFFF" font-family="'OpenSans-Semibold'" font-size="13.097">Game Artwork &amp; Assets</text>
	</g>
	<circle fill="#2882A5" cx="148.352" cy="80.295" r="30.509"/>
	<path fill="#606161" d="M37.383,52.433c0,0.685-0.248,1.224-0.743,1.612c-0.496,0.392-1.18,0.586-2.052,0.586
		s-1.585-0.135-2.141-0.405v-1.193c0.352,0.167,0.726,0.296,1.12,0.392c0.396,0.094,0.764,0.142,1.105,0.142
		c0.499,0,0.867-0.095,1.104-0.284c0.237-0.19,0.355-0.444,0.355-0.765c0-0.288-0.108-0.533-0.326-0.733
		c-0.219-0.2-0.668-0.438-1.351-0.713c-0.703-0.283-1.198-0.609-1.487-0.975c-0.288-0.365-0.432-0.805-0.432-1.318
		c0-0.644,0.229-1.149,0.686-1.519s1.07-0.555,1.84-0.555c0.738,0,1.474,0.163,2.204,0.485l-0.4,1.029
		c-0.686-0.289-1.297-0.433-1.835-0.433c-0.408,0-0.718,0.089-0.929,0.266c-0.211,0.179-0.316,0.413-0.316,0.704
		c0,0.201,0.043,0.372,0.127,0.515c0.084,0.142,0.224,0.276,0.417,0.403s0.541,0.294,1.044,0.502
		c0.565,0.235,0.98,0.454,1.244,0.658s0.457,0.435,0.58,0.691S37.383,52.083,37.383,52.433z"/>
	<path fill="#606161" d="M41.703,54.631c-0.738,0-1.312-0.265-1.72-0.797H39.91c0.049,0.493,0.073,0.792,0.073,0.897v2.389h-1.239
		v-8.427h1.002c0.028,0.108,0.087,0.369,0.175,0.78h0.063c0.387-0.591,0.967-0.886,1.74-0.886c0.729,0,1.295,0.264,1.701,0.791
		c0.405,0.527,0.609,1.268,0.609,2.219c0,0.954-0.207,1.697-0.62,2.231S42.43,54.631,41.703,54.631z M41.402,49.6
		c-0.492,0-0.852,0.145-1.078,0.433c-0.228,0.288-0.341,0.749-0.341,1.382v0.184c0,0.712,0.113,1.225,0.338,1.544
		c0.225,0.317,0.593,0.477,1.103,0.477c0.429,0,0.759-0.176,0.991-0.527c0.231-0.352,0.348-0.852,0.348-1.502
		c0-0.654-0.115-1.149-0.346-1.485S41.848,49.6,41.402,49.6z"/>
	<path fill="#606161" d="M48.431,48.588c0.25,0,0.455,0.018,0.617,0.053l-0.121,1.155c-0.176-0.042-0.358-0.063-0.549-0.063
		c-0.495,0-0.897,0.162-1.205,0.485s-0.461,0.743-0.461,1.26v3.048h-1.239v-5.832h0.97l0.164,1.027h0.063
		c0.193-0.347,0.445-0.623,0.756-0.827C47.738,48.689,48.073,48.588,48.431,48.588z"/>
	<path fill="#606161" d="M50.055,47.147c0-0.221,0.062-0.392,0.182-0.511c0.122-0.12,0.295-0.18,0.521-0.18
		c0.218,0,0.387,0.06,0.509,0.18c0.121,0.119,0.182,0.29,0.182,0.511c0,0.211-0.061,0.377-0.182,0.499
		c-0.122,0.121-0.291,0.182-0.509,0.182c-0.226,0-0.398-0.061-0.521-0.182C50.117,47.524,50.055,47.358,50.055,47.147z
		 M51.369,54.525h-1.239v-5.832h1.239V54.525z"/>
	<path fill="#606161" d="M55.313,53.629c0.303,0,0.604-0.048,0.907-0.142v0.933c-0.137,0.06-0.314,0.11-0.529,0.15
		c-0.217,0.041-0.441,0.061-0.673,0.061c-1.175,0-1.762-0.619-1.762-1.856v-3.143H52.46v-0.549l0.854-0.453l0.422-1.234h0.765v1.298
		h1.661v0.938h-1.661v3.122c0,0.299,0.074,0.519,0.224,0.662C54.875,53.558,55.071,53.629,55.313,53.629z"/>
	<path fill="#606161" d="M59.933,54.631c-0.907,0-1.617-0.265-2.128-0.793c-0.512-0.53-0.768-1.258-0.768-2.186
		c0-0.953,0.237-1.702,0.712-2.248c0.475-0.544,1.127-0.816,1.956-0.816c0.771,0,1.379,0.234,1.825,0.701
		c0.446,0.468,0.67,1.111,0.67,1.93v0.67h-3.887c0.018,0.566,0.17,1.001,0.459,1.306c0.288,0.304,0.694,0.456,1.218,0.456
		c0.345,0,0.665-0.033,0.962-0.098c0.297-0.065,0.616-0.174,0.958-0.324v1.006c-0.303,0.146-0.608,0.248-0.918,0.308
		C60.683,54.601,60.33,54.631,59.933,54.631z M59.706,49.526c-0.394,0-0.709,0.125-0.946,0.375
		c-0.237,0.249-0.379,0.612-0.425,1.091h2.647c-0.007-0.481-0.123-0.846-0.348-1.095C60.409,49.65,60.1,49.526,59.706,49.526z"/>
	<path fill="#606161" d="M67.527,52.863c0,0.57-0.208,1.007-0.623,1.312c-0.414,0.304-1.009,0.456-1.782,0.456
		c-0.776,0-1.4-0.117-1.872-0.354v-1.07c0.686,0.316,1.324,0.475,1.914,0.475c0.764,0,1.145-0.229,1.145-0.691
		c0-0.147-0.042-0.27-0.126-0.368c-0.085-0.099-0.224-0.201-0.417-0.307s-0.462-0.224-0.807-0.358
		c-0.672-0.26-1.126-0.52-1.363-0.781c-0.237-0.259-0.356-0.596-0.356-1.012c0-0.498,0.201-0.887,0.604-1.163
		c0.403-0.275,0.951-0.413,1.644-0.413c0.686,0,1.334,0.139,1.945,0.416l-0.4,0.934c-0.629-0.26-1.158-0.391-1.587-0.391
		c-0.654,0-0.981,0.187-0.981,0.56c0,0.183,0.085,0.337,0.256,0.464c0.17,0.127,0.542,0.301,1.115,0.521
		c0.481,0.188,0.832,0.357,1.05,0.512c0.218,0.155,0.38,0.333,0.485,0.536C67.474,52.341,67.527,52.584,67.527,52.863z"/>
	<path fill="#606161" d="M73.997,54.525h-1.244v-3.586c0-0.45-0.091-0.785-0.271-1.008c-0.182-0.221-0.469-0.332-0.862-0.332
		c-0.521,0-0.903,0.156-1.147,0.467c-0.244,0.312-0.366,0.833-0.366,1.564v2.895h-1.239V46.32h1.239v2.083
		c0,0.334-0.021,0.69-0.063,1.07h0.079c0.169-0.281,0.403-0.499,0.705-0.654c0.3-0.154,0.65-0.231,1.052-0.231
		c1.413,0,2.119,0.711,2.119,2.136V54.525z"/>
	<path fill="#606161" d="M78.268,54.631c-0.906,0-1.616-0.265-2.127-0.793c-0.513-0.53-0.768-1.258-0.768-2.186
		c0-0.953,0.237-1.702,0.712-2.248c0.475-0.544,1.127-0.816,1.956-0.816c0.771,0,1.378,0.234,1.825,0.701
		c0.446,0.468,0.669,1.111,0.669,1.93v0.67H76.65c0.018,0.566,0.17,1.001,0.458,1.306c0.289,0.304,0.694,0.456,1.219,0.456
		c0.345,0,0.665-0.033,0.962-0.098c0.297-0.065,0.616-0.174,0.957-0.324v1.006c-0.302,0.146-0.607,0.248-0.917,0.308
		C79.019,54.601,78.666,54.631,78.268,54.631z M78.042,49.526c-0.394,0-0.709,0.125-0.946,0.375
		c-0.237,0.249-0.379,0.612-0.425,1.091h2.647c-0.007-0.481-0.123-0.846-0.348-1.095C78.745,49.65,78.435,49.526,78.042,49.526z"/>
	<path fill="#606161" d="M84.491,54.631c-0.906,0-1.616-0.265-2.127-0.793c-0.513-0.53-0.768-1.258-0.768-2.186
		c0-0.953,0.237-1.702,0.712-2.248c0.475-0.544,1.127-0.816,1.956-0.816c0.771,0,1.378,0.234,1.825,0.701
		c0.446,0.468,0.669,1.111,0.669,1.93v0.67h-3.886c0.018,0.566,0.17,1.001,0.458,1.306c0.289,0.304,0.694,0.456,1.219,0.456
		c0.345,0,0.665-0.033,0.962-0.098c0.297-0.065,0.616-0.174,0.957-0.324v1.006c-0.302,0.146-0.607,0.248-0.917,0.308
		C85.242,54.601,84.888,54.631,84.491,54.631z M84.264,49.526c-0.394,0-0.709,0.125-0.946,0.375
		c-0.237,0.249-0.379,0.612-0.425,1.091h2.647c-0.007-0.481-0.123-0.846-0.348-1.095C84.967,49.65,84.658,49.526,84.264,49.526z"/>
	<path fill="#606161" d="M90.339,53.629c0.303,0,0.604-0.048,0.907-0.142v0.933c-0.138,0.06-0.314,0.11-0.53,0.15
		c-0.217,0.041-0.44,0.061-0.672,0.061c-1.175,0-1.762-0.619-1.762-1.856v-3.143h-0.796v-0.549l0.854-0.453l0.422-1.234h0.765v1.298
		h1.661v0.938h-1.661v3.122c0,0.299,0.075,0.519,0.225,0.662C89.901,53.558,90.097,53.629,90.339,53.629z"/>
	<path fill="#606161" d="M96.33,52.863c0,0.57-0.207,1.007-0.622,1.312c-0.415,0.304-1.009,0.456-1.782,0.456
		c-0.777,0-1.401-0.117-1.872-0.354v-1.07c0.686,0.316,1.323,0.475,1.914,0.475c0.763,0,1.145-0.229,1.145-0.691
		c0-0.147-0.042-0.27-0.127-0.368c-0.084-0.099-0.223-0.201-0.416-0.307s-0.463-0.224-0.807-0.358
		c-0.672-0.26-1.127-0.52-1.363-0.781c-0.238-0.259-0.356-0.596-0.356-1.012c0-0.498,0.201-0.887,0.604-1.163
		c0.402-0.275,0.95-0.413,1.644-0.413c0.686,0,1.334,0.139,1.945,0.416l-0.4,0.934c-0.63-0.26-1.158-0.391-1.588-0.391
		c-0.653,0-0.98,0.187-0.98,0.56c0,0.183,0.085,0.337,0.256,0.464c0.17,0.127,0.542,0.301,1.115,0.521
		c0.481,0.188,0.831,0.357,1.05,0.512c0.218,0.155,0.379,0.333,0.484,0.536C96.277,52.341,96.33,52.584,96.33,52.863z"/>
	<path fill="#606161" d="M20.798,63.549c0,0.488-0.143,0.895-0.427,1.221c-0.285,0.324-0.686,0.544-1.202,0.656v0.042
		c0.618,0.077,1.082,0.27,1.392,0.578c0.31,0.307,0.464,0.716,0.464,1.226c0,0.742-0.262,1.313-0.785,1.717
		c-0.524,0.402-1.27,0.604-2.236,0.604c-0.854,0-1.575-0.139-2.162-0.417v-1.102c0.327,0.161,0.674,0.287,1.039,0.375
		s0.717,0.131,1.055,0.131c0.598,0,1.044-0.11,1.34-0.333c0.295-0.22,0.442-0.563,0.442-1.027c0-0.411-0.163-0.714-0.49-0.907
		s-0.84-0.289-1.54-0.289h-0.67v-1.008h0.681c1.23,0,1.846-0.426,1.846-1.276c0-0.33-0.107-0.585-0.321-0.766
		c-0.215-0.178-0.531-0.268-0.949-0.268c-0.292,0-0.573,0.041-0.844,0.124c-0.271,0.082-0.591,0.243-0.96,0.481l-0.606-0.865
		c0.706-0.519,1.527-0.78,2.463-0.78c0.776,0,1.383,0.168,1.819,0.502C20.581,62.501,20.798,62.961,20.798,63.549z"/>
	<path fill="#606161" d="M28.84,65.559c0,1.272-0.354,2.245-1.06,2.918c-0.707,0.674-1.725,1.01-3.054,1.01h-2.156v-7.71h2.383
		c1.228,0,2.182,0.331,2.864,0.991C28.5,63.429,28.84,64.359,28.84,65.559z M27.511,65.601c0-1.847-0.862-2.77-2.589-2.77h-1.092
		v5.596h0.896C26.583,68.427,27.511,67.484,27.511,65.601z"/>
	<path fill="#606161" d="M37.748,67.394c0,0.685-0.248,1.224-0.744,1.612c-0.495,0.392-1.179,0.586-2.051,0.586
		s-1.586-0.135-2.142-0.405v-1.193c0.352,0.167,0.726,0.296,1.121,0.392c0.396,0.094,0.764,0.142,1.104,0.142
		c0.499,0,0.867-0.095,1.105-0.284c0.236-0.19,0.355-0.444,0.355-0.765c0-0.288-0.109-0.533-0.327-0.733s-0.668-0.438-1.35-0.713
		c-0.703-0.283-1.199-0.609-1.487-0.975s-0.433-0.805-0.433-1.318c0-0.644,0.229-1.149,0.686-1.519s1.07-0.555,1.841-0.555
		c0.738,0,1.473,0.163,2.204,0.485l-0.4,1.029c-0.686-0.289-1.298-0.433-1.836-0.433c-0.407,0-0.717,0.089-0.928,0.266
		c-0.211,0.179-0.316,0.413-0.316,0.704c0,0.201,0.042,0.372,0.127,0.515c0.084,0.142,0.223,0.276,0.416,0.403
		s0.542,0.294,1.044,0.502c0.566,0.235,0.981,0.454,1.245,0.658s0.457,0.435,0.58,0.691S37.748,67.044,37.748,67.394z"/>
	<path fill="#606161" d="M41.281,68.59c0.302,0,0.604-0.048,0.907-0.142v0.933c-0.138,0.06-0.314,0.11-0.53,0.15
		c-0.217,0.041-0.44,0.061-0.673,0.061c-1.174,0-1.761-0.619-1.761-1.856v-3.143h-0.797v-0.549l0.854-0.453l0.422-1.234h0.765v1.298
		h1.661v0.938h-1.661v3.122c0,0.299,0.074,0.519,0.224,0.662C40.841,68.519,41.038,68.59,41.281,68.59z"/>
	<path fill="#606161" d="M47.466,69.486l-0.174-0.764h-0.063c-0.172,0.271-0.418,0.482-0.735,0.637
		c-0.318,0.155-0.682,0.232-1.089,0.232c-0.707,0-1.234-0.176-1.582-0.527c-0.349-0.352-0.522-0.884-0.522-1.599v-3.812h1.25v3.596
		c0,0.447,0.091,0.782,0.274,1.005c0.183,0.224,0.469,0.335,0.859,0.335c0.521,0,0.902-0.156,1.147-0.467
		c0.243-0.312,0.366-0.832,0.366-1.564v-2.904h1.244v5.832H47.466z"/>
	<path fill="#606161" d="M52.175,69.592c-0.728,0-1.295-0.264-1.703-0.791s-0.611-1.267-0.611-2.221c0-0.955,0.206-1.7,0.619-2.232
		c0.413-0.533,0.985-0.799,1.717-0.799c0.767,0,1.35,0.283,1.751,0.85h0.063c-0.06-0.419-0.089-0.75-0.089-0.992v-2.125h1.244v8.205
		h-0.971l-0.216-0.764h-0.058C53.524,69.301,52.942,69.592,52.175,69.592z M52.507,68.59c0.51,0,0.881-0.143,1.113-0.43
		c0.231-0.286,0.352-0.752,0.358-1.395v-0.174c0-0.734-0.119-1.258-0.358-1.566c-0.239-0.31-0.613-0.465-1.123-0.465
		c-0.437,0-0.772,0.178-1.008,0.53c-0.235,0.354-0.354,0.856-0.354,1.511c0,0.647,0.114,1.14,0.343,1.479
		C51.708,68.42,52.05,68.59,52.507,68.59z"/>
	<path fill="#606161" d="M56.864,62.108c0-0.221,0.061-0.392,0.182-0.511c0.122-0.12,0.295-0.18,0.52-0.18
		c0.218,0,0.388,0.06,0.509,0.18c0.121,0.119,0.182,0.29,0.182,0.511c0,0.211-0.061,0.377-0.182,0.499
		c-0.121,0.121-0.291,0.182-0.509,0.182c-0.225,0-0.397-0.061-0.52-0.182C56.924,62.485,56.864,62.319,56.864,62.108z
		 M58.176,69.486h-1.239v-5.832h1.239V69.486z"/>
	<path fill="#606161" d="M65.122,66.559c0,0.954-0.244,1.697-0.732,2.231c-0.489,0.534-1.169,0.802-2.041,0.802
		c-0.545,0-1.026-0.123-1.445-0.369c-0.418-0.246-0.74-0.599-0.965-1.061c-0.225-0.459-0.338-0.994-0.338-1.604
		c0-0.944,0.243-1.683,0.729-2.215c0.484-0.529,1.169-0.795,2.051-0.795c0.844,0,1.512,0.271,2.004,0.814
		S65.122,65.639,65.122,66.559z M60.876,66.559c0,1.348,0.498,2.021,1.492,2.021c0.984,0,1.477-0.673,1.477-2.021
		c0-1.331-0.495-1.998-1.486-1.998c-0.521,0-0.898,0.173-1.132,0.518C60.994,65.422,60.876,65.917,60.876,66.559z"/>
	<path fill="#606161" d="M72.816,69.486l-2.236-6.438h-0.042c0.06,0.956,0.09,1.853,0.09,2.688v3.75h-1.145v-7.71h1.777l2.141,6.133
		h0.032l2.204-6.133h1.782v7.71h-1.213v-3.813c0-0.382,0.01-0.881,0.029-1.497c0.019-0.614,0.036-0.987,0.05-1.118h-0.042
		l-2.315,6.429H72.816z"/>
	<path fill="#606161" d="M82.967,69.486l-0.248-0.813h-0.042c-0.281,0.355-0.564,0.597-0.85,0.726
		c-0.284,0.128-0.65,0.192-1.097,0.192c-0.573,0-1.021-0.154-1.342-0.464c-0.322-0.31-0.482-0.747-0.482-1.313
		c0-0.603,0.223-1.055,0.67-1.362c0.446-0.305,1.126-0.472,2.04-0.5l1.008-0.031v-0.313c0-0.371-0.088-0.65-0.261-0.835
		c-0.175-0.185-0.444-0.276-0.81-0.276c-0.299,0-0.586,0.044-0.86,0.132c-0.273,0.088-0.537,0.191-0.791,0.311l-0.4-0.886
		c0.316-0.165,0.663-0.291,1.039-0.377s0.731-0.129,1.065-0.129c0.741,0,1.301,0.161,1.679,0.484
		c0.378,0.324,0.567,0.832,0.567,1.525v3.928H82.967z M81.122,68.643c0.45,0,0.811-0.125,1.084-0.377
		c0.271-0.251,0.408-0.604,0.408-1.058v-0.506l-0.749,0.031c-0.583,0.021-1.008,0.118-1.273,0.293
		c-0.266,0.174-0.398,0.439-0.398,0.798c0,0.262,0.078,0.462,0.232,0.605C80.58,68.571,80.812,68.643,81.122,68.643z"/>
	<path fill="#606161" d="M86.88,66.508l-1.957-2.854h1.413l1.329,2.04l1.34-2.04h1.402l-1.962,2.854l2.063,2.979h-1.403
		l-1.439-2.184l-1.435,2.184h-1.402L86.88,66.508z"/>
	<path fill="#606161" d="M33.766,84.446l-2.236-6.438h-0.042c0.06,0.956,0.09,1.853,0.09,2.688v3.75h-1.145v-7.71h1.777l2.141,6.133
		h0.032l2.204-6.133h1.782v7.71h-1.213v-3.813c0-0.382,0.01-0.881,0.029-1.498c0.019-0.613,0.036-0.986,0.05-1.117h-0.042
		l-2.315,6.429H33.766z"/>
	<path fill="#606161" d="M45.441,81.519c0,0.954-0.244,1.697-0.732,2.231c-0.489,0.534-1.169,0.802-2.041,0.802
		c-0.545,0-1.026-0.123-1.445-0.369c-0.418-0.246-0.739-0.599-0.965-1.061c-0.225-0.46-0.337-0.994-0.337-1.604
		c0-0.944,0.242-1.683,0.728-2.215c0.485-0.529,1.169-0.796,2.051-0.796c0.844,0,1.512,0.272,2.004,0.814
		C45.195,79.866,45.441,80.599,45.441,81.519z M41.196,81.519c0,1.348,0.498,2.021,1.493,2.021c0.984,0,1.477-0.673,1.477-2.021
		c0-1.331-0.496-1.998-1.487-1.998c-0.521,0-0.897,0.173-1.132,0.517C41.313,80.382,41.196,80.877,41.196,81.519z"/>
	<path fill="#606161" d="M48.833,84.552c-0.729,0-1.296-0.264-1.704-0.791c-0.407-0.527-0.611-1.267-0.611-2.221
		c0-0.955,0.206-1.7,0.62-2.232c0.412-0.533,0.984-0.8,1.716-0.8c0.767,0,1.351,0.284,1.751,0.85h0.063
		c-0.06-0.418-0.09-0.75-0.09-0.991V76.24h1.244v8.206h-0.97l-0.217-0.765h-0.058C50.18,84.261,49.598,84.552,48.833,84.552z
		 M49.165,83.55c0.51,0,0.881-0.144,1.112-0.431c0.232-0.285,0.352-0.751,0.358-1.395v-0.173c0-0.735-0.119-1.258-0.358-1.567
		c-0.239-0.309-0.613-0.464-1.123-0.464c-0.436,0-0.771,0.177-1.007,0.53c-0.236,0.354-0.354,0.856-0.354,1.51
		c0,0.648,0.114,1.141,0.343,1.48C48.365,83.38,48.708,83.55,49.165,83.55z"/>
	<path fill="#606161" d="M56.141,84.552c-0.907,0-1.616-0.265-2.128-0.794s-0.768-1.257-0.768-2.186
		c0-0.952,0.237-1.701,0.712-2.247c0.475-0.544,1.127-0.817,1.957-0.817c0.77,0,1.378,0.234,1.824,0.702s0.67,1.111,0.67,1.929
		v0.671h-3.887c0.018,0.565,0.171,1.001,0.459,1.306c0.288,0.303,0.694,0.455,1.218,0.455c0.345,0,0.665-0.032,0.963-0.097
		c0.297-0.065,0.616-0.174,0.957-0.325v1.007c-0.303,0.146-0.608,0.247-0.918,0.308C56.892,84.521,56.539,84.552,56.141,84.552z
		 M55.915,79.447c-0.394,0-0.709,0.125-0.947,0.375c-0.236,0.249-0.378,0.612-0.424,1.091h2.647
		c-0.008-0.481-0.123-0.847-0.349-1.095C56.618,79.571,56.308,79.447,55.915,79.447z"/>
	<path fill="#606161" d="M61.056,84.446h-1.239V76.24h1.239V84.446z"/>
	<path fill="#606161" d="M66.746,82.784c0,0.569-0.207,1.007-0.622,1.312c-0.415,0.304-1.009,0.456-1.782,0.456
		c-0.777,0-1.401-0.117-1.872-0.354v-1.069c0.686,0.316,1.323,0.475,1.914,0.475c0.763,0,1.145-0.229,1.145-0.691
		c0-0.147-0.042-0.27-0.127-0.368c-0.084-0.099-0.223-0.201-0.416-0.307s-0.463-0.225-0.807-0.359
		c-0.672-0.259-1.127-0.519-1.363-0.78c-0.238-0.259-0.356-0.597-0.356-1.013c0-0.498,0.201-0.886,0.604-1.162
		c0.402-0.275,0.95-0.414,1.644-0.414c0.686,0,1.334,0.14,1.945,0.416l-0.4,0.935c-0.63-0.261-1.158-0.391-1.588-0.391
		c-0.653,0-0.98,0.187-0.98,0.56c0,0.183,0.085,0.337,0.256,0.464c0.17,0.126,0.542,0.301,1.115,0.521
		c0.481,0.188,0.831,0.357,1.05,0.512c0.218,0.155,0.379,0.333,0.484,0.536C66.693,82.262,66.746,82.504,66.746,82.784z"/>
	<path fill="#606161" d="M35.216,99.406l-0.771-2.142h-2.947l-0.754,2.142h-1.329l2.885-7.742h1.371l2.884,7.742H35.216z
		 M34.114,96.179l-0.723-2.099c-0.053-0.141-0.126-0.362-0.219-0.665c-0.093-0.302-0.157-0.523-0.192-0.664
		c-0.095,0.433-0.233,0.905-0.416,1.419l-0.696,2.009H34.114z"/>
	<path fill="#606161" d="M42.573,99.406h-1.245V95.82c0-0.45-0.091-0.785-0.271-1.008c-0.182-0.221-0.469-0.332-0.863-0.332
		c-0.523,0-0.906,0.154-1.149,0.464c-0.242,0.31-0.363,0.829-0.363,1.556v2.906h-1.239v-5.833h0.97l0.174,0.766h0.063
		c0.176-0.278,0.426-0.492,0.749-0.645c0.323-0.15,0.682-0.227,1.076-0.227c1.398,0,2.099,0.712,2.099,2.137V99.406z"/>
	<path fill="#606161" d="M44.223,92.027c0-0.22,0.061-0.391,0.182-0.511c0.122-0.119,0.295-0.179,0.52-0.179
		c0.218,0,0.388,0.06,0.51,0.179c0.12,0.12,0.182,0.291,0.182,0.511c0,0.211-0.062,0.378-0.182,0.5
		c-0.122,0.12-0.292,0.182-0.51,0.182c-0.225,0-0.397-0.062-0.52-0.182C44.284,92.405,44.223,92.238,44.223,92.027z M45.537,99.406
		h-1.239v-5.833h1.239V99.406z"/>
	<path fill="#606161" d="M52.223,99.406h-1.245V95.81c0-0.446-0.084-0.779-0.253-1c-0.169-0.219-0.433-0.329-0.791-0.329
		c-0.478,0-0.829,0.156-1.052,0.467c-0.224,0.312-0.335,0.829-0.335,1.553v2.906h-1.239v-5.833h0.971l0.174,0.766h0.063
		c0.161-0.278,0.396-0.492,0.703-0.645c0.308-0.15,0.646-0.227,1.016-0.227c0.896,0,1.49,0.306,1.782,0.918h0.085
		c0.172-0.288,0.414-0.514,0.728-0.675c0.313-0.162,0.671-0.243,1.075-0.243c0.696,0,1.203,0.176,1.522,0.527
		c0.317,0.352,0.477,0.889,0.477,1.609v3.802h-1.239V95.81c0-0.446-0.086-0.779-0.256-1c-0.171-0.219-0.435-0.329-0.794-0.329
		c-0.481,0-0.834,0.15-1.057,0.451c-0.224,0.3-0.335,0.762-0.335,1.384V99.406z"/>
	<path fill="#606161" d="M61.283,99.406l-0.248-0.813h-0.042c-0.281,0.355-0.564,0.597-0.849,0.726
		c-0.285,0.128-0.65,0.192-1.098,0.192c-0.572,0-1.021-0.155-1.342-0.465c-0.322-0.309-0.482-0.746-0.482-1.313
		c0-0.602,0.224-1.055,0.67-1.361c0.446-0.305,1.127-0.473,2.041-0.5l1.007-0.032v-0.312c0-0.371-0.087-0.65-0.261-0.836
		c-0.175-0.184-0.444-0.276-0.81-0.276c-0.299,0-0.586,0.045-0.859,0.133c-0.274,0.088-0.538,0.19-0.791,0.311l-0.401-0.886
		c0.316-0.166,0.663-0.291,1.039-0.378c0.376-0.085,0.731-0.129,1.065-0.129c0.741,0,1.301,0.162,1.679,0.485
		s0.567,0.832,0.567,1.524v3.929H61.283z M59.437,98.563c0.45,0,0.811-0.126,1.084-0.378c0.271-0.251,0.408-0.604,0.408-1.057
		v-0.507l-0.749,0.032c-0.583,0.021-1.008,0.118-1.272,0.293c-0.267,0.173-0.398,0.439-0.398,0.798c0,0.262,0.077,0.462,0.231,0.604
		C58.896,98.49,59.127,98.563,59.437,98.563z"/>
	<path fill="#606161" d="M66.071,98.51c0.303,0,0.604-0.049,0.907-0.143v0.934c-0.137,0.06-0.314,0.109-0.529,0.149
		c-0.217,0.041-0.441,0.062-0.673,0.062c-1.175,0-1.762-0.619-1.762-1.856v-3.144h-0.796v-0.548l0.854-0.454l0.422-1.233h0.765
		v1.297h1.661v0.938h-1.661v3.122c0,0.299,0.074,0.52,0.224,0.662C65.632,98.438,65.829,98.51,66.071,98.51z"/>
	<path fill="#606161" d="M68.07,92.027c0-0.22,0.061-0.391,0.182-0.511c0.122-0.119,0.295-0.179,0.52-0.179
		c0.218,0,0.388,0.06,0.509,0.179c0.121,0.12,0.182,0.291,0.182,0.511c0,0.211-0.061,0.378-0.182,0.5
		c-0.121,0.12-0.291,0.182-0.509,0.182c-0.225,0-0.397-0.062-0.52-0.182C68.13,92.405,68.07,92.238,68.07,92.027z M69.382,99.406
		h-1.239v-5.833h1.239V99.406z"/>
	<path fill="#606161" d="M76.328,96.479c0,0.954-0.244,1.697-0.732,2.231c-0.489,0.534-1.169,0.802-2.041,0.802
		c-0.545,0-1.026-0.123-1.445-0.369c-0.418-0.246-0.74-0.6-0.965-1.061c-0.225-0.46-0.338-0.994-0.338-1.604
		c0-0.944,0.243-1.683,0.729-2.215c0.484-0.529,1.169-0.796,2.051-0.796c0.844,0,1.512,0.272,2.004,0.814
		C76.082,94.826,76.328,95.559,76.328,96.479z M72.083,96.479c0,1.348,0.498,2.021,1.492,2.021c0.984,0,1.477-0.673,1.477-2.021
		c0-1.331-0.495-1.998-1.486-1.998c-0.521,0-0.898,0.172-1.132,0.517S72.083,95.836,72.083,96.479z"/>
	<path fill="#606161" d="M82.882,99.406h-1.244V95.82c0-0.45-0.091-0.785-0.271-1.008c-0.182-0.221-0.469-0.332-0.862-0.332
		c-0.523,0-0.907,0.154-1.149,0.464c-0.243,0.31-0.364,0.829-0.364,1.556v2.906h-1.239v-5.833h0.971l0.174,0.766h0.063
		c0.176-0.278,0.425-0.492,0.749-0.645c0.323-0.15,0.682-0.227,1.075-0.227c1.399,0,2.099,0.712,2.099,2.137V99.406z"/>
	<path fill="#606161" d="M88.525,97.744c0,0.569-0.207,1.007-0.622,1.312c-0.415,0.304-1.009,0.456-1.782,0.456
		c-0.777,0-1.401-0.117-1.872-0.354v-1.069c0.686,0.316,1.323,0.475,1.914,0.475c0.763,0,1.145-0.23,1.145-0.691
		c0-0.148-0.042-0.27-0.127-0.368c-0.084-0.099-0.223-0.202-0.416-0.308s-0.463-0.224-0.807-0.358
		c-0.672-0.259-1.127-0.519-1.363-0.78c-0.238-0.259-0.356-0.597-0.356-1.013c0-0.498,0.201-0.886,0.604-1.162
		c0.402-0.275,0.95-0.414,1.644-0.414c0.686,0,1.334,0.14,1.945,0.416l-0.4,0.935c-0.63-0.261-1.158-0.391-1.588-0.391
		c-0.653,0-0.98,0.187-0.98,0.559c0,0.184,0.085,0.338,0.256,0.465c0.17,0.126,0.542,0.301,1.115,0.521
		c0.481,0.188,0.831,0.357,1.05,0.512c0.218,0.154,0.379,0.333,0.484,0.535S88.525,97.464,88.525,97.744z"/>
	<g>
		<g>
			<g>
				<rect x="127.891" y="77.068" fill="#FFFFFF" width="22.054" height="2.72"/>
				<path fill="#FFFFFF" d="M145.167,69.325c0,0,6.433-3.994,6.37-6.654c1.786,0.517,0.996,7.504-3.893,9.53L145.167,69.325z"/>
				<path fill="#FFFFFF" d="M132.66,69.325c0,0-6.436-3.994-6.373-6.654c-1.786,0.517-0.993,7.504,3.897,9.53L132.66,69.325z"/>
			</g>
		</g>
		<g>
			<path fill="none" stroke="#FFFFFF" stroke-width="1.18" stroke-miterlimit="10" d="M128.644,77.631h8.973V66.999
				C132.56,67.67,128.644,72.169,128.644,77.631z"/>
			<path fill="none" stroke="#FFFFFF" stroke-width="1.18" stroke-miterlimit="10" d="M140.218,66.999v10.632h8.97
				C149.188,72.169,145.275,67.67,140.218,66.999z"/>
			<path fill="#FFFFFF" d="M140.218,66.999v-1.502h-2.602v1.502c0.426-0.058,0.857-0.097,1.3-0.097S139.792,66.941,140.218,66.999z"
				/>
			<rect x="137.617" y="77.631" fill="#FFFFFF" width="2.602" height="0.618"/>
		</g>
		<rect x="138.266" y="67.532" fill="#FFFFFF" width="1.303" height="4.876"/>
		<rect x="138.266" y="72.844" fill="#FFFFFF" width="1.303" height="4.026"/>
	</g>
	<g>
		<g>
			<polygon fill="#FFFFFF" points="166.942,81.8 149.011,100.523 150.38,101.952 168.31,83.231 			"/>
			<g>
				<path fill="#FFFFFF" d="M161.041,78.215c0.202,1.299,0.724,3.122,2.042,4.845c-0.993,1.038-2,2.09-2.673,2.793
					c-1.678-1.396-3.385-1.931-4.608-2.125c0.409-0.869,1.104-2.051,2.23-3.229C159.126,79.357,160.222,78.644,161.041,78.215
					 M162.102,76.504c0,0-2.46,0.61-4.921,3.178c-2.459,2.572-3.045,5.14-3.045,5.14s0.146-0.018,0.403-0.018
					c0.978,0,3.571,0.255,5.919,2.705c0,0,2.305-2.406,4.215-4.404C161.867,80.173,162.102,76.504,162.102,76.504L162.102,76.504z"
					/>
			</g>
			<path fill="#FFFFFF" d="M162.102,76.504c0,0-2.46,0.61-4.921,3.178c-2.459,2.572-3.045,5.14-3.045,5.14l1.432,0.063
				c2.259-4.388,6.628-6.921,6.628-6.921C162.065,77.082,162.102,76.504,162.102,76.504z"/>
			<g>
				<path fill="#FFFFFF" d="M167.086,87.229c1.678,1.396,3.385,1.93,4.608,2.124c-0.409,0.87-1.104,2.053-2.23,3.229
					c-1.094,1.142-2.19,1.856-3.008,2.284c-0.203-1.298-0.726-3.12-2.043-4.845C165.406,88.984,166.413,87.933,167.086,87.229
					 M167.039,85.573c0,0-2.305,2.405-4.216,4.404c2.805,2.934,2.572,6.601,2.572,6.601s2.461-0.611,4.921-3.179
					c2.459-2.569,3.044-5.14,3.044-5.14s-0.146,0.018-0.405,0.018C171.976,88.277,169.384,88.021,167.039,85.573L167.039,85.573z
					 M173.36,88.26h0.005H173.36z"/>
			</g>
		</g>
	</g>
</g>
<g id="Layer_2">
</g>
</svg>
