<?xml version="1.0" encoding="utf-8"?>
<!-- Generator: Adobe Illustrator 16.0.0, SVG Export Plug-In . SVG Version: 6.00 Build 0)  -->
<!DOCTYPE svg PUBLIC "-//W3C//DTD SVG 1.1//EN" "http://www.w3.org/Graphics/SVG/1.1/DTD/svg11.dtd">
<svg version="1.1" xmlns="http://www.w3.org/2000/svg" xmlns:xlink="http://www.w3.org/1999/xlink" x="0px" y="0px" width="200px"
	 height="130px" viewBox="0 0 200 130" enable-background="new 0 0 200 130" xml:space="preserve">
<g id="Layer_1">
	<g>
		<g>
			<path fill="#2882A5" d="M186.003,18.583c1.337,0,2.425,1.088,2.425,2.425v99.932c0,1.338-1.087,2.427-2.425,2.427H12.429
				c-1.337,0-2.426-1.089-2.426-2.427V21.008c0-1.337,1.088-2.425,2.426-2.425H186.003 M186.003,17.393H12.429
				c-1.988,0-3.616,1.627-3.616,3.615v99.932c0,1.986,1.628,3.617,3.616,3.617h173.574c1.988,0,3.616-1.631,3.616-3.617V21.008
				C189.619,19.02,187.991,17.393,186.003,17.393L186.003,17.393z"/>
		</g>
	</g>
	<path fill="#2882A5" d="M186.003,11.969H12.429c-1.988,0-3.616,1.627-3.616,3.615v14.465v1.809v3.615h3.616h173.574h3.616v-3.615
		v-1.809V15.584C189.619,13.596,187.991,11.969,186.003,11.969z"/>
	<g>
		<rect x="17.909" y="18.309" fill="none" width="133.672" height="14.854"/>
		<text transform="matrix(1 0 0 1 17.9092 28.2622)" fill="#FFFFFF" font-family="'OpenSans-Semibold'" font-size="13.097">Web Applications</text>
	</g>
	<circle fill="#2882A5" cx="147.867" cy="82.363" r="30.633"/>
	<path fill="#606161" d="M17.443,52.926v3.08h-1.26v-7.71h2.178c0.995,0,1.731,0.187,2.21,0.559
		c0.478,0.373,0.717,0.936,0.717,1.688c0,0.96-0.499,1.644-1.498,2.052l2.179,3.412h-1.435l-1.846-3.08H17.443z M17.443,51.882
		h0.876c0.587,0,1.013-0.109,1.276-0.327s0.396-0.541,0.396-0.971c0-0.436-0.143-0.748-0.428-0.938
		c-0.284-0.189-0.714-0.284-1.286-0.284h-0.834V51.882z"/>
	<path fill="#606161" d="M27.067,56.006l-0.174-0.765H26.83c-0.172,0.271-0.417,0.483-0.735,0.638s-0.681,0.232-1.089,0.232
		c-0.707,0-1.234-0.176-1.582-0.527s-0.522-0.885-0.522-1.599v-3.813h1.25v3.597c0,0.446,0.092,0.781,0.274,1.004
		c0.183,0.225,0.47,0.336,0.859,0.336c0.521,0,0.902-0.156,1.147-0.467c0.244-0.312,0.366-0.833,0.366-1.563v-2.906h1.244v5.833
		H27.067z"/>
	<path fill="#606161" d="M32.789,50.067c0.729,0,1.295,0.264,1.701,0.791c0.405,0.527,0.609,1.268,0.609,2.221
		c0,0.956-0.206,1.7-0.617,2.232c-0.411,0.533-0.982,0.8-1.714,0.8c-0.738,0-1.312-0.266-1.72-0.797h-0.084l-0.227,0.691H29.81V47.8
		h1.239v1.951c0,0.145-0.007,0.358-0.021,0.644c-0.015,0.285-0.024,0.466-0.032,0.543h0.053
		C31.443,50.357,32.023,50.067,32.789,50.067z M32.468,51.08c-0.499,0-0.859,0.147-1.078,0.44c-0.221,0.294-0.333,0.785-0.341,1.474
		v0.085c0,0.71,0.113,1.225,0.338,1.542c0.225,0.318,0.593,0.478,1.103,0.478c0.439,0,0.771-0.174,0.999-0.522
		c0.227-0.348,0.34-0.851,0.34-1.508C33.828,51.743,33.375,51.08,32.468,51.08z"/>
	<path fill="#606161" d="M35.653,50.173h1.35l1.187,3.307c0.18,0.471,0.299,0.914,0.358,1.329h0.042
		c0.032-0.193,0.09-0.428,0.175-0.704c0.084-0.275,0.53-1.587,1.339-3.932h1.34l-2.494,6.607c-0.454,1.213-1.21,1.819-2.268,1.819
		c-0.274,0-0.542-0.029-0.802-0.089v-0.981c0.187,0.042,0.398,0.063,0.638,0.063c0.598,0,1.018-0.347,1.261-1.039l0.216-0.548
		L35.653,50.173z"/>
	<path fill="#606161" d="M50.308,53.079c0,0.952-0.244,1.696-0.732,2.23c-0.489,0.534-1.169,0.802-2.041,0.802
		c-0.545,0-1.026-0.123-1.445-0.369c-0.418-0.246-0.74-0.6-0.965-1.061c-0.225-0.46-0.338-0.995-0.338-1.603
		c0-0.946,0.243-1.685,0.729-2.215c0.484-0.531,1.169-0.797,2.051-0.797c0.844,0,1.512,0.272,2.004,0.814
		C50.062,51.426,50.308,52.157,50.308,53.079z M46.063,53.079c0,1.346,0.498,2.02,1.492,2.02c0.984,0,1.477-0.674,1.477-2.02
		c0-1.333-0.495-1.999-1.486-1.999c-0.521,0-0.898,0.172-1.132,0.517S46.063,52.436,46.063,53.079z"/>
	<path fill="#606161" d="M56.862,56.006h-1.244V52.42c0-0.45-0.091-0.786-0.271-1.008c-0.182-0.222-0.469-0.332-0.862-0.332
		c-0.523,0-0.907,0.154-1.149,0.464c-0.243,0.31-0.364,0.828-0.364,1.556v2.906h-1.239v-5.833h0.971l0.174,0.765h0.063
		c0.176-0.277,0.425-0.492,0.749-0.644c0.323-0.15,0.682-0.227,1.075-0.227c1.399,0,2.099,0.712,2.099,2.136V56.006z"/>
	<path fill="#606161" d="M62.785,52.926v3.08h-1.261v-7.71h2.178c0.995,0,1.731,0.187,2.21,0.559
		c0.478,0.373,0.717,0.936,0.717,1.688c0,0.96-0.499,1.644-1.497,2.052l2.178,3.412h-1.435l-1.846-3.08H62.785z M62.785,51.882
		h0.875c0.587,0,1.013-0.109,1.276-0.327s0.396-0.541,0.396-0.971c0-0.436-0.143-0.748-0.428-0.938
		c-0.284-0.189-0.713-0.284-1.286-0.284h-0.833V51.882z"/>
	<path fill="#606161" d="M71.944,56.006l-0.247-0.813h-0.043c-0.281,0.355-0.563,0.597-0.849,0.726
		c-0.285,0.128-0.65,0.192-1.097,0.192c-0.573,0-1.021-0.155-1.342-0.465c-0.322-0.309-0.483-0.747-0.483-1.313
		c0-0.602,0.224-1.055,0.67-1.36c0.446-0.307,1.127-0.474,2.041-0.501l1.007-0.032V52.13c0-0.373-0.087-0.651-0.261-0.837
		c-0.174-0.184-0.443-0.276-0.81-0.276c-0.299,0-0.585,0.044-0.859,0.132s-0.538,0.191-0.791,0.312l-0.4-0.886
		c0.316-0.166,0.662-0.291,1.038-0.378c0.377-0.085,0.731-0.129,1.065-0.129c0.742,0,1.302,0.162,1.68,0.485
		s0.567,0.831,0.567,1.524v3.929H71.944z M70.099,55.162c0.45,0,0.812-0.126,1.084-0.378c0.272-0.251,0.409-0.604,0.409-1.057
		v-0.507l-0.749,0.032c-0.584,0.021-1.009,0.118-1.273,0.293c-0.266,0.173-0.398,0.439-0.398,0.799c0,0.26,0.077,0.461,0.232,0.604
		C69.558,55.09,69.79,55.162,70.099,55.162z"/>
	<path fill="#606161" d="M74.486,48.628c0-0.222,0.062-0.392,0.182-0.512c0.122-0.119,0.295-0.179,0.52-0.179
		c0.219,0,0.388,0.06,0.51,0.179c0.12,0.12,0.182,0.29,0.182,0.512c0,0.211-0.062,0.377-0.182,0.499
		c-0.122,0.12-0.291,0.182-0.51,0.182c-0.225,0-0.397-0.062-0.52-0.182C74.548,49.005,74.486,48.839,74.486,48.628z M75.8,56.006
		h-1.239v-5.833H75.8V56.006z"/>
	<path fill="#606161" d="M78.811,56.006h-1.239V47.8h1.239V56.006z"/>
	<path fill="#606161" d="M84.501,54.345c0,0.569-0.208,1.006-0.622,1.311c-0.415,0.304-1.01,0.456-1.783,0.456
		c-0.776,0-1.4-0.118-1.872-0.354v-1.07c0.686,0.316,1.324,0.475,1.915,0.475c0.763,0,1.144-0.23,1.144-0.691
		c0-0.147-0.042-0.271-0.126-0.369c-0.085-0.099-0.224-0.2-0.417-0.306s-0.462-0.225-0.807-0.358
		c-0.672-0.261-1.126-0.521-1.363-0.78c-0.237-0.261-0.355-0.598-0.355-1.013c0-0.499,0.2-0.887,0.604-1.163
		c0.402-0.275,0.95-0.414,1.643-0.414c0.686,0,1.334,0.139,1.946,0.417l-0.401,0.934c-0.629-0.261-1.158-0.391-1.587-0.391
		c-0.654,0-0.981,0.187-0.981,0.559c0,0.184,0.085,0.338,0.256,0.465c0.171,0.126,0.543,0.3,1.115,0.521
		c0.482,0.187,0.832,0.357,1.05,0.512s0.38,0.333,0.485,0.535S84.501,54.063,84.501,54.345z"/>
	<path fill="#606161" d="M17.208,73.117c-0.345,0-0.633-0.044-0.865-0.132v-1.06c0.296,0.073,0.552,0.11,0.771,0.11
		c0.688,0,1.033-0.436,1.033-1.308v-7.473h1.266v7.431c0,0.787-0.188,1.389-0.562,1.807C18.476,72.909,17.929,73.117,17.208,73.117z
		"/>
	<path fill="#606161" d="M24.928,70.966l-0.247-0.813h-0.043c-0.281,0.355-0.563,0.598-0.849,0.726s-0.65,0.192-1.097,0.192
		c-0.573,0-1.021-0.154-1.342-0.464c-0.322-0.31-0.483-0.747-0.483-1.313c0-0.601,0.224-1.055,0.67-1.36s1.127-0.473,2.041-0.501
		l1.007-0.031V67.09c0-0.373-0.087-0.651-0.261-0.836s-0.443-0.276-0.81-0.276c-0.299,0-0.585,0.044-0.859,0.132
		s-0.538,0.191-0.791,0.311l-0.4-0.886c0.316-0.165,0.662-0.291,1.038-0.377c0.377-0.086,0.731-0.129,1.065-0.129
		c0.742,0,1.302,0.161,1.68,0.484c0.378,0.324,0.567,0.832,0.567,1.524v3.929H24.928z M23.082,70.122
		c0.45,0,0.812-0.125,1.084-0.377c0.272-0.251,0.409-0.604,0.409-1.058v-0.506l-0.749,0.031c-0.584,0.021-1.009,0.118-1.273,0.293
		c-0.266,0.174-0.398,0.44-0.398,0.799c0,0.26,0.077,0.461,0.232,0.604C22.541,70.051,22.773,70.122,23.082,70.122z"/>
	<path fill="#606161" d="M28.873,70.966l-2.215-5.832h1.308l1.187,3.391c0.204,0.569,0.327,1.03,0.369,1.382h0.042
		c0.031-0.254,0.154-0.714,0.369-1.382l1.187-3.391h1.318l-2.226,5.832H28.873z"/>
	<path fill="#606161" d="M36.973,70.966l-0.248-0.813h-0.042c-0.281,0.355-0.564,0.598-0.849,0.726
		c-0.285,0.128-0.65,0.192-1.098,0.192c-0.572,0-1.021-0.154-1.342-0.464c-0.322-0.31-0.482-0.747-0.482-1.313
		c0-0.601,0.224-1.055,0.67-1.36s1.127-0.473,2.041-0.501l1.007-0.031V67.09c0-0.373-0.087-0.651-0.261-0.836
		c-0.175-0.185-0.444-0.276-0.81-0.276c-0.299,0-0.586,0.044-0.859,0.132c-0.274,0.088-0.538,0.191-0.791,0.311l-0.401-0.886
		c0.316-0.165,0.663-0.291,1.039-0.377s0.731-0.129,1.065-0.129c0.741,0,1.301,0.161,1.679,0.484
		c0.378,0.324,0.567,0.832,0.567,1.524v3.929H36.973z M35.127,70.122c0.45,0,0.811-0.125,1.084-0.377
		c0.271-0.251,0.408-0.604,0.408-1.058v-0.506l-0.749,0.031c-0.583,0.021-1.008,0.118-1.272,0.293
		c-0.267,0.174-0.398,0.44-0.398,0.799c0,0.26,0.077,0.461,0.231,0.604C34.586,70.051,34.817,70.122,35.127,70.122z"/>
	<path fill="#606161" d="M43.507,69.305c0,0.569-0.208,1.007-0.623,1.311c-0.414,0.305-1.009,0.456-1.782,0.456
		c-0.776,0-1.4-0.118-1.872-0.354v-1.07c0.686,0.316,1.324,0.475,1.914,0.475c0.764,0,1.145-0.23,1.145-0.69
		c0-0.148-0.042-0.271-0.126-0.369c-0.085-0.099-0.224-0.201-0.417-0.307s-0.462-0.225-0.807-0.358
		c-0.672-0.26-1.126-0.521-1.363-0.78s-0.356-0.598-0.356-1.013c0-0.499,0.201-0.887,0.604-1.163
		c0.403-0.275,0.951-0.413,1.644-0.413c0.686,0,1.334,0.139,1.945,0.416l-0.4,0.934c-0.629-0.26-1.158-0.391-1.587-0.391
		c-0.654,0-0.981,0.187-0.981,0.56c0,0.183,0.085,0.337,0.256,0.464c0.17,0.127,0.542,0.301,1.115,0.522
		c0.481,0.186,0.832,0.356,1.05,0.511c0.218,0.155,0.38,0.334,0.485,0.536S43.507,69.023,43.507,69.305z"/>
	<path fill="#606161" d="M47.198,71.071c-0.883,0-1.553-0.257-2.013-0.772c-0.458-0.515-0.688-1.254-0.688-2.218
		c0-0.98,0.24-1.734,0.72-2.262c0.48-0.527,1.173-0.791,2.08-0.791c0.615,0,1.169,0.114,1.661,0.343l-0.374,0.996
		c-0.524-0.204-0.956-0.306-1.298-0.306c-1.009,0-1.513,0.67-1.513,2.009c0,0.654,0.125,1.146,0.377,1.474
		c0.251,0.33,0.619,0.494,1.104,0.494c0.552,0,1.074-0.138,1.566-0.412v1.081c-0.222,0.131-0.458,0.224-0.709,0.28
		C47.861,71.043,47.557,71.071,47.198,71.071z"/>
	<path fill="#606161" d="M53.151,65.028c0.25,0,0.455,0.018,0.617,0.053l-0.121,1.154c-0.176-0.042-0.358-0.063-0.549-0.063
		c-0.495,0-0.897,0.162-1.205,0.485s-0.461,0.744-0.461,1.261v3.048h-1.239v-5.832h0.97l0.164,1.028h0.063
		c0.193-0.349,0.445-0.624,0.756-0.828C52.458,65.13,52.793,65.028,53.151,65.028z"/>
	<path fill="#606161" d="M54.775,63.588c0-0.221,0.062-0.392,0.182-0.511c0.122-0.12,0.295-0.18,0.521-0.18
		c0.218,0,0.387,0.06,0.509,0.18c0.121,0.119,0.182,0.29,0.182,0.511c0,0.211-0.061,0.377-0.182,0.499
		c-0.122,0.121-0.291,0.182-0.509,0.182c-0.226,0-0.398-0.061-0.521-0.182C54.837,63.965,54.775,63.799,54.775,63.588z
		 M56.089,70.966H54.85v-5.832h1.239V70.966z"/>
	<path fill="#606161" d="M60.819,71.071c-0.738,0-1.312-0.266-1.72-0.796h-0.073c0.049,0.492,0.073,0.791,0.073,0.896v2.389H57.86
		v-8.427h1.002c0.028,0.108,0.087,0.369,0.175,0.78H59.1c0.387-0.591,0.967-0.886,1.74-0.886c0.729,0,1.295,0.264,1.701,0.791
		c0.405,0.527,0.609,1.267,0.609,2.22s-0.207,1.696-0.62,2.23S61.547,71.071,60.819,71.071z M60.519,66.04
		c-0.492,0-0.852,0.145-1.078,0.433c-0.228,0.288-0.341,0.749-0.341,1.382v0.185c0,0.71,0.113,1.225,0.338,1.543
		s0.593,0.477,1.103,0.477c0.429,0,0.759-0.176,0.991-0.527c0.231-0.352,0.348-0.853,0.348-1.503c0-0.653-0.115-1.148-0.346-1.484
		C61.303,66.209,60.965,66.04,60.519,66.04z"/>
	<path fill="#606161" d="M66.763,70.069c0.302,0,0.604-0.048,0.906-0.143v0.934c-0.137,0.06-0.313,0.109-0.529,0.15
		c-0.217,0.04-0.44,0.061-0.673,0.061c-1.174,0-1.761-0.619-1.761-1.856v-3.143h-0.797v-0.549l0.854-0.453l0.422-1.234h0.765v1.298
		h1.661v0.938H65.95v3.122c0,0.299,0.074,0.519,0.224,0.662C66.323,69.998,66.52,70.069,66.763,70.069z"/>
	<path fill="#606161" d="M22.264,85.926h-1.266V82.45h-3.555v3.476h-1.26v-7.71h1.26v3.153h3.555v-3.153h1.266V85.926z"/>
	<path fill="#606161" d="M26.957,85.926h-1.261v-6.629h-2.268v-1.081h5.796v1.081h-2.268V85.926z"/>
	<path fill="#606161" d="M33.738,85.926l-2.235-6.439h-0.042c0.06,0.957,0.089,1.854,0.089,2.689v3.75h-1.144v-7.71h1.776
		l2.142,6.133h0.031l2.204-6.133h1.783v7.71H37.13v-3.813c0-0.384,0.009-0.883,0.029-1.498c0.019-0.615,0.035-0.988,0.05-1.118
		h-0.043l-2.314,6.429H33.738z"/>
	<path fill="#606161" d="M40.373,85.926v-7.71h1.26v6.629h3.265v1.081H40.373z"/>
	<path fill="#606161" d="M51.104,81.111c0.776,0,1.392,0.205,1.846,0.616c0.453,0.412,0.68,0.973,0.68,1.683
		c0,0.822-0.258,1.466-0.772,1.927c-0.516,0.463-1.247,0.694-2.196,0.694c-0.861,0-1.538-0.139-2.03-0.417v-1.123
		c0.285,0.162,0.611,0.286,0.98,0.374s0.712,0.132,1.028,0.132c0.56,0,0.984-0.124,1.276-0.374s0.438-0.615,0.438-1.097
		c0-0.921-0.587-1.382-1.761-1.382c-0.165,0-0.369,0.017-0.612,0.05c-0.242,0.034-0.455,0.071-0.638,0.113l-0.554-0.326l0.295-3.766
		h4.008v1.103h-2.916l-0.174,1.908c0.123-0.021,0.273-0.045,0.45-0.073C50.63,81.125,50.848,81.111,51.104,81.111z"/>
	<path fill="#606161" d="M19.622,94.146c-0.725,0-1.294,0.257-1.709,0.771c-0.415,0.513-0.622,1.222-0.622,2.125
		c0,0.945,0.199,1.661,0.598,2.146c0.399,0.485,0.978,0.728,1.733,0.728c0.326,0,0.643-0.032,0.949-0.098
		c0.306-0.064,0.624-0.148,0.954-0.25v1.081c-0.604,0.229-1.29,0.343-2.057,0.343c-1.129,0-1.995-0.342-2.6-1.025
		c-0.604-0.685-0.907-1.663-0.907-2.936c0-0.802,0.146-1.503,0.44-2.104c0.293-0.602,0.718-1.063,1.273-1.382
		c0.556-0.32,1.208-0.48,1.956-0.48c0.788,0,1.516,0.166,2.184,0.496l-0.453,1.05c-0.261-0.123-0.535-0.231-0.826-0.325
		C20.247,94.192,19.941,94.146,19.622,94.146z"/>
	<path fill="#606161" d="M27.632,98.792c0,0.686-0.248,1.224-0.743,1.613c-0.496,0.391-1.18,0.586-2.052,0.586
		s-1.585-0.136-2.141-0.406v-1.192c0.352,0.166,0.726,0.296,1.12,0.391c0.396,0.095,0.764,0.143,1.105,0.143
		c0.499,0,0.867-0.095,1.104-0.285c0.237-0.189,0.355-0.444,0.355-0.765c0-0.288-0.108-0.532-0.326-0.732
		c-0.219-0.201-0.668-0.438-1.351-0.712c-0.703-0.285-1.198-0.61-1.487-0.976c-0.288-0.366-0.432-0.806-0.432-1.318
		c0-0.644,0.229-1.15,0.686-1.52s1.07-0.554,1.84-0.554c0.738,0,1.474,0.162,2.204,0.485l-0.4,1.028
		c-0.686-0.288-1.297-0.433-1.835-0.433c-0.408,0-0.718,0.09-0.929,0.267c-0.211,0.178-0.316,0.412-0.316,0.704
		c0,0.2,0.043,0.371,0.127,0.515c0.084,0.142,0.224,0.276,0.417,0.403c0.193,0.126,0.541,0.293,1.044,0.501
		c0.565,0.235,0.98,0.455,1.244,0.659c0.264,0.203,0.457,0.434,0.58,0.69S27.632,98.443,27.632,98.792z"/>
	<path fill="#606161" d="M33.57,98.792c0,0.686-0.248,1.224-0.744,1.613c-0.495,0.391-1.18,0.586-2.051,0.586
		c-0.872,0-1.586-0.136-2.142-0.406v-1.192c0.352,0.166,0.726,0.296,1.12,0.391c0.396,0.095,0.765,0.143,1.105,0.143
		c0.499,0,0.867-0.095,1.105-0.285c0.236-0.189,0.355-0.444,0.355-0.765c0-0.288-0.109-0.532-0.327-0.732
		c-0.218-0.201-0.668-0.438-1.35-0.712c-0.703-0.285-1.199-0.61-1.487-0.976c-0.288-0.366-0.433-0.806-0.433-1.318
		c0-0.644,0.229-1.15,0.686-1.52s1.07-0.554,1.841-0.554c0.738,0,1.473,0.162,2.204,0.485l-0.401,1.028
		c-0.686-0.288-1.297-0.433-1.835-0.433c-0.407,0-0.717,0.09-0.928,0.267c-0.211,0.178-0.316,0.412-0.316,0.704
		c0,0.2,0.042,0.371,0.126,0.515c0.085,0.142,0.224,0.276,0.417,0.403c0.193,0.126,0.541,0.293,1.044,0.501
		c0.566,0.235,0.981,0.455,1.245,0.659c0.264,0.203,0.457,0.434,0.58,0.69S33.57,98.443,33.57,98.792z"/>
	<path fill="#606161" d="M42.261,94.947c0,0.489-0.143,0.896-0.428,1.222c-0.284,0.325-0.686,0.543-1.202,0.656v0.042
		c0.619,0.077,1.083,0.27,1.393,0.577s0.464,0.717,0.464,1.227c0,0.741-0.262,1.313-0.786,1.717
		c-0.523,0.402-1.269,0.604-2.235,0.604c-0.854,0-1.575-0.14-2.162-0.417v-1.103c0.327,0.162,0.673,0.287,1.039,0.375
		c0.365,0.088,0.717,0.132,1.055,0.132c0.598,0,1.044-0.111,1.339-0.332c0.296-0.222,0.443-0.564,0.443-1.028
		c0-0.412-0.164-0.714-0.49-0.907c-0.327-0.193-0.841-0.29-1.54-0.29h-0.67v-1.008h0.681c1.23,0,1.846-0.425,1.846-1.275
		c0-0.331-0.107-0.586-0.322-0.765c-0.214-0.18-0.53-0.27-0.949-0.27c-0.292,0-0.573,0.042-0.844,0.124
		c-0.271,0.083-0.591,0.243-0.96,0.482l-0.606-0.864c0.707-0.521,1.528-0.781,2.463-0.781c0.777,0,1.384,0.167,1.819,0.501
		C42.043,93.899,42.261,94.36,42.261,94.947z"/>
	<g>
		<path fill="none" stroke="#FFFFFF" stroke-width="1.1848" stroke-miterlimit="10" d="M169.863,95.07
			c0,0.975-0.791,1.766-1.767,1.766h-40.459c-0.976,0-1.766-0.791-1.766-1.766V68.646c0-0.975,0.79-1.766,1.766-1.766h40.459
			c0.976,0,1.767,0.791,1.767,1.766V95.07z"/>
		<g>
			
				<rect x="128.24" y="69.055" fill="none" stroke="#FFFFFF" stroke-width="1.1848" stroke-miterlimit="10" width="39.48" height="25.609"/>
			<path fill="none" stroke="#FFFFFF" stroke-width="1.1848" stroke-miterlimit="10" d="M154.083,101.209c-0.041,0-0.101,0-0.149,0
				v-4.305h-11.145v4.316c-2.058,0.064-1.753,2.551-1.753,2.551h14.978C156.014,103.771,155.732,101.209,154.083,101.209z"/>
		</g>
		<g>
			<g>
				<path fill="#FFFFFF" d="M133.872,81.867l8.432,3.463v1.385l-10.131-4.264v-1.158l10.131-4.266v1.387L133.872,81.867z"/>
				<path fill="#FFFFFF" d="M151.071,75.383l-4.698,12.869h-1.396l4.697-12.869H151.071z"/>
				<path fill="#FFFFFF" d="M153.43,78.414v-1.387l10.131,4.266v1.158l-10.131,4.264V85.33l8.432-3.463L153.43,78.414z"/>
			</g>
		</g>
	</g>
</g>
<g id="Layer_2">
</g>
</svg>
