<?xml version="1.0" encoding="utf-8"?>
<!-- Generator: Adobe Illustrator 16.0.0, SVG Export Plug-In . SVG Version: 6.00 Build 0)  -->
<!DOCTYPE svg PUBLIC "-//W3C//DTD SVG 1.1//EN" "http://www.w3.org/Graphics/SVG/1.1/DTD/svg11.dtd">
<svg version="1.1" xmlns="http://www.w3.org/2000/svg" xmlns:xlink="http://www.w3.org/1999/xlink" x="0px" y="0px" width="500px"
	 height="500px" viewBox="0 0 500 500" enable-background="new 0 0 500 500" xml:space="preserve">
<g id="Layer_1">
	<g>
		<g>
			<defs>
				<path id="XMLID_2_" d="M398.74,381.505c0,9.502-7.712,17.212-17.223,17.212H118.019c-9.512,0-17.211-7.71-17.211-17.212V117.996
					c0-9.502,7.699-17.212,17.211-17.212h263.499c9.511,0,17.223,7.71,17.223,17.212V381.505z"/>
			</defs>
			<clipPath id="XMLID_4_">
				<use xlink:href="#XMLID_2_"  overflow="visible"/>
			</clipPath>
			<g opacity="0.7" clip-path="url(#XMLID_4_)">
				
					<rect x="100.808" y="100.793" fill="none" stroke="#FFFFFF" stroke-width="2.4013" stroke-miterlimit="10" width="297.924" height="297.924"/>
				
					<line fill="none" stroke="#FFFFFF" stroke-width="2.4013" stroke-miterlimit="10" x1="100.808" y1="349.041" x2="398.731" y2="349.041"/>
				
					<line fill="none" stroke="#FFFFFF" stroke-width="2.4013" stroke-miterlimit="10" x1="100.808" y1="299.431" x2="398.731" y2="299.431"/>
				
					<line fill="none" stroke="#FFFFFF" stroke-width="2.4013" stroke-miterlimit="10" x1="100.808" y1="249.755" x2="398.731" y2="249.755"/>
				
					<line fill="none" stroke="#FFFFFF" stroke-width="2.4013" stroke-miterlimit="10" x1="100.808" y1="200.069" x2="398.731" y2="200.069"/>
				
					<line fill="none" stroke="#FFFFFF" stroke-width="2.4013" stroke-miterlimit="10" x1="100.808" y1="150.468" x2="398.731" y2="150.468"/>
				
					<line fill="none" stroke="#FFFFFF" stroke-width="2.4013" stroke-miterlimit="10" x1="349.056" y1="100.793" x2="349.056" y2="398.717"/>
				
					<line fill="none" stroke="#FFFFFF" stroke-width="2.4013" stroke-miterlimit="10" x1="299.446" y1="100.793" x2="299.446" y2="398.717"/>
				
					<line fill="none" stroke="#FFFFFF" stroke-width="2.4013" stroke-miterlimit="10" x1="249.769" y1="100.793" x2="249.769" y2="398.717"/>
				
					<line fill="none" stroke="#FFFFFF" stroke-width="2.4013" stroke-miterlimit="10" x1="200.093" y1="100.793" x2="200.093" y2="398.717"/>
				
					<line fill="none" stroke="#FFFFFF" stroke-width="2.4013" stroke-miterlimit="10" x1="150.482" y1="100.793" x2="150.482" y2="398.717"/>
			</g>
			<use xlink:href="#XMLID_2_"  overflow="visible" fill="none" stroke="#FFFFFF" stroke-width="8.6042" stroke-miterlimit="10"/>
		</g>
		<g>
			<g>
				
					<line fill="none" stroke="#FFFFFF" stroke-width="9.605" stroke-miterlimit="10" x1="138.472" y1="361.053" x2="361.067" y2="138.448"/>
				<g>
					<polygon fill="#FFFFFF" points="155.981,370.635 118.976,380.549 128.888,343.543 					"/>
				</g>
				<g>
					<polygon fill="#FFFFFF" points="370.651,155.958 380.563,118.952 343.558,128.866 					"/>
				</g>
			</g>
		</g>
		<g>
			<g>
				
					<line fill="none" stroke="#FFFFFF" stroke-width="9.605" stroke-miterlimit="10" x1="138.472" y1="138.448" x2="361.075" y2="361.053"/>
				<g>
					<polygon fill="#FFFFFF" points="128.889,155.958 118.976,118.952 155.981,128.865 					"/>
				</g>
				<g>
					<polygon fill="#FFFFFF" points="343.565,370.636 380.571,380.549 370.658,343.543 					"/>
				</g>
			</g>
		</g>
	</g>
</g>
<g id="Layer_2">
</g>
</svg>
