<?xml version="1.0" encoding="utf-8"?>
<!-- Generator: Adobe Illustrator 16.0.0, SVG Export Plug-In . SVG Version: 6.00 Build 0)  -->
<!DOCTYPE svg PUBLIC "-//W3C//DTD SVG 1.1//EN" "http://www.w3.org/Graphics/SVG/1.1/DTD/svg11.dtd">
<svg version="1.1" id="Layer_1" xmlns="http://www.w3.org/2000/svg" xmlns:xlink="http://www.w3.org/1999/xlink" x="0px" y="0px"
	 width="200px" height="200px" viewBox="0 0 200 200" enable-background="new 0 0 200 200" xml:space="preserve">
<g>
	<circle fill="#FBB817" cx="100" cy="99.999" r="97.693"/>
	<g>
		<path fill="#303030" d="M98.785,68.711L87.229,79.929c-0.13,0.119-0.223,0.268-0.285,0.43l-4.08,10.405
			c-0.179,0.454-0.07,0.968,0.273,1.312l9.085,9.083c0.152,0.154,0.344,0.264,0.552,0.318c0.128,0.032,12.849,3.517,27.805,18.472
			c14.955,14.955,21.351,35.83,21.413,36.038c0.112,0.369,0.39,0.666,0.75,0.798c0.365,0.132,0.767,0.088,1.088-0.121
			c0.508-0.328,12.493-8.102,17.993-13.601c1.337-1.336,2.189-2.44,2.605-3.365c0.208-0.465,0.108-1.01-0.252-1.368l-50.219-50.219
			l-5.337-8.766c-0.05-0.084-0.111-0.16-0.181-0.23l-8.3-8.3l0.361-0.363c0.475-0.474,0.479-1.242,0.006-1.724
			C100.035,68.25,99.267,68.243,98.785,68.711z"/>
		<path fill="#303030" d="M79.196,53.352l-6.021-6.023c-0.479-0.477-1.254-0.477-1.731,0L59.264,59.511
			c-0.478,0.477-0.479,1.253-0.002,1.732l4.427,4.426c0.43,0.43,1.109,0.478,1.597,0.115l13.992-10.385
			c0.051-0.035,0.095-0.074,0.138-0.118c0.205-0.206,0.332-0.482,0.356-0.775c0.025-0.355-0.107-0.704-0.356-0.957l-0.079-0.077
			C79.292,53.43,79.246,53.386,79.196,53.352z"/>
		
			<path fill="#ECF0F1" stroke="#F2EFEF" stroke-width="2.1672" stroke-linecap="round" stroke-linejoin="round" stroke-miterlimit="10" d="
			M43.612,80.449l-12.865,9.706l1.142,1.898c16.072,26.696,36.827,29.203,37.705,29.296l1.887,0.205l5.261-12.828
			C63.196,102.922,51.065,93.417,43.612,80.449z"/>
		<path fill="#D53D42" d="M87.787,46.021L61.538,65.54L47.569,76.043c-0.151,0.039-0.295,0.108-0.425,0.205l-4.269,3.224
			c-0.492,0.37,0,0-0.85,0.678c7.158,12.455,19.339,23.32,34.235,29.703c0.301,0.128,0.126,0.062,1.159,0.467
			c0.109-0.308,0.394-0.979,0.455-1.129l7.036-17.156c0.093-0.103,0.17-0.221,0.225-0.354l4.02-9.667l11.348-11.561l5.733-5.732
			c0.479-0.479,0.479-1.253,0-1.73L89.381,46.14C88.953,45.708,88.271,45.658,87.787,46.021z"/>
	</g>
</g>
</svg>
