<?xml version="1.0" encoding="utf-8"?>
<!-- Generator: Adobe Illustrator 16.0.0, SVG Export Plug-In . SVG Version: 6.00 Build 0)  -->
<!DOCTYPE svg PUBLIC "-//W3C//DTD SVG 1.1//EN" "http://www.w3.org/Graphics/SVG/1.1/DTD/svg11.dtd">
<svg version="1.1" id="Layer_1" xmlns="http://www.w3.org/2000/svg" xmlns:xlink="http://www.w3.org/1999/xlink" x="0px" y="0px"
	 width="250px" height="250px" viewBox="0 0 250 250" enable-background="new 0 0 250 250" xml:space="preserve">
<g>
	<g>
		<circle fill="#2A2B2A" cx="124.97" cy="127.497" r="116.844"/>
		<g>
			<g>
				<path fill="#EFEFEF" d="M77.597,61.09l44.46,25.687c1.216,0.715,2.818,0.267,3.5-0.95l1.276-2.225
					c0.711-1.212,0.296-2.785-0.92-3.5l-44.46-25.656c-1.216-0.716-2.789-0.297-3.5,0.919l-1.276,2.225
					C75.961,58.803,76.38,60.408,77.597,61.09L77.597,61.09z M77.597,61.09"/>
			</g>
			<path fill="#EFEFEF" d="M39.131,127.795l44.423,25.656c1.246,0.711,2.818,0.267,3.5-0.92l1.309-2.225
				c0.712-1.246,0.263-2.816-0.949-3.529l-44.457-25.659c-1.216-0.705-2.795-0.293-3.5,0.948l-1.275,2.225
				C37.466,125.508,37.885,127.079,39.131,127.795L39.131,127.795z M39.131,127.795"/>
			<path fill="#EFEFEF" d="M195.851,159.147l-88.947-46.122l11.949-20.706c0.712-1.212,0.297-2.785-0.919-3.5L77.923,65.713
				c-1.247-0.704-2.817-0.267-3.534,0.949l-28.206,48.883c-0.705,1.216-0.297,2.819,0.926,3.501l40.008,23.105
				c1.216,0.711,2.817,0.296,3.5-0.92L102.6,120.5l84.413,54.011c1.187,0.742,2.728,0.386,3.44-0.861l6.407-11.122
				C197.571,161.311,197.125,159.799,195.851,159.147L195.851,159.147z M195.851,159.147"/>
			<path fill="#EFEFEF" d="M209.91,165.641l-4.45-2.58c-1.215-0.682-2.817-0.268-3.528,0.949l-7.683,13.346
				c-0.712,1.218-0.296,2.789,0.92,3.502l4.449,2.55c1.245,0.712,2.818,0.297,3.529-0.948l7.681-13.318
				C211.541,167.926,211.125,166.323,209.91,165.641L209.91,165.641z M209.91,165.641"/>
			<path fill="#EFEFEF" d="M107.823,201.027"/>
		</g>
	</g>
	<radialGradient id="SVGID_1_" cx="124.9702" cy="127.4966" r="118.0122" gradientUnits="userSpaceOnUse">
		<stop  offset="0" style="stop-color:#303030;stop-opacity:0"/>
		<stop  offset="0.9104" style="stop-color:#303030;stop-opacity:0.9104"/>
		<stop  offset="1" style="stop-color:#303030"/>
	</radialGradient>
	<circle fill="url(#SVGID_1_)" cx="124.97" cy="127.497" r="118.013"/>
	<g opacity="0.2">
		<path fill="#FFFFFF" d="M54.337,55.928c41.881-41.881,109.126-42.929,152.282-3.154c-1.025-1.114-2.072-2.217-3.152-3.298
			C160.504,6.513,90.848,6.514,47.886,49.477c-42.963,42.961-42.964,112.618,0,155.581c1.081,1.081,2.183,2.127,3.297,3.153
			C11.409,165.053,12.457,97.809,54.337,55.928z"/>
	</g>
</g>
</svg>
