<?xml version="1.0" encoding="utf-8"?>
<!-- Generator: Adobe Illustrator 16.0.0, SVG Export Plug-In . SVG Version: 6.00 Build 0)  -->
<!DOCTYPE svg PUBLIC "-//W3C//DTD SVG 1.1//EN" "http://www.w3.org/Graphics/SVG/1.1/DTD/svg11.dtd">
<svg version="1.1" xmlns="http://www.w3.org/2000/svg" xmlns:xlink="http://www.w3.org/1999/xlink" x="0px" y="0px" width="200px"
	 height="70px" viewBox="0 0 200 70" enable-background="new 0 0 200 70" xml:space="preserve">
<g id="Layer_1">
	
		<rect x="4.76" y="3.936" fill="none" stroke="#ECF0F1" stroke-width="3.1546" stroke-miterlimit="10" width="190.473" height="62.064"/>
	<g>
		<path fill="#ECF0F1" d="M60.054,54.525H19.866V46.2h36.791v-7.279H27.442c-5.052-0.266-7.576-1.965-7.576-5.095V19.338
			c0-2.93,2.522-4.512,7.569-4.746h39.093v8.525H29.587v7.378h30.41c4.056,0,6.232,1.396,6.531,4.188v14.956
			C66.229,52.896,64.071,54.525,60.054,54.525z"/>
		<path fill="#ECF0F1" d="M87.218,38.821v15.705h-10.37V14.592h42.431c2.621,0,4.033,1.798,4.232,5.395v14.587
			c0,2.631-1.43,4.047-4.287,4.246H87.218z M87.218,29.299h24.927c0.997,0,1.495-0.788,1.495-2.362V25.28
			c0-1.574-0.498-2.362-1.495-2.362H87.218V29.299z"/>
		<path fill="#ECF0F1" d="M172.423,54.525h-40.188V46.2h36.792v-7.279h-29.215c-5.052-0.266-7.577-1.965-7.577-5.095V19.338
			c0-2.93,2.524-4.512,7.569-4.746h39.094v8.525h-36.941v7.378h30.41c4.057,0,6.232,1.396,6.531,4.188v14.956
			C178.599,52.896,176.44,54.525,172.423,54.525z"/>
	</g>
</g>
<g id="Layer_2">
</g>
</svg>
