<?xml version="1.0" encoding="utf-8"?>
<!-- Generator: Adobe Illustrator 16.0.0, SVG Export Plug-In . SVG Version: 6.00 Build 0)  -->
<!DOCTYPE svg PUBLIC "-//W3C//DTD SVG 1.1//EN" "http://www.w3.org/Graphics/SVG/1.1/DTD/svg11.dtd">
<svg version="1.1" xmlns="http://www.w3.org/2000/svg" xmlns:xlink="http://www.w3.org/1999/xlink" x="0px" y="0px" width="200px"
	 height="70px" viewBox="0 0 200 70" enable-background="new 0 0 200 70" xml:space="preserve">
<g id="Layer_1">
	<path fill="#ECEFF0" d="M195.232,66H4.76V3.936h190.473V66z M66.528,49.639V34.684c-0.299-2.792-2.476-4.188-6.531-4.188h-30.41
		v-7.378h36.941v-8.525H27.436c-5.047,0.233-7.569,1.815-7.569,4.746v14.488c0,3.13,2.524,4.829,7.576,5.095h29.215V46.2H19.866
		v8.326h40.188C64.071,54.525,66.229,52.896,66.528,49.639z M119.224,38.821c2.857-0.199,4.287-1.615,4.287-4.246V19.987
		c-0.199-3.597-1.611-5.395-4.232-5.395H76.848v39.933h10.37V38.821H119.224z M87.218,22.918h24.927
		c0.997,0,1.495,0.788,1.495,2.362v1.658c0,1.574-0.498,2.362-1.495,2.362H87.218V22.918z M178.897,49.639V34.684
		c-0.299-2.792-2.475-4.188-6.531-4.188h-30.41v-7.378h36.941v-8.525h-39.094c-5.045,0.233-7.569,1.815-7.569,4.746v14.488
		c0,3.13,2.525,4.829,7.577,5.095h29.215V46.2h-36.792v8.326h40.188C176.44,54.525,178.599,52.896,178.897,49.639z"/>
</g>
<g id="Layer_2">
</g>
</svg>
