<?xml version="1.0" encoding="utf-8"?>
<!-- Generator: Adobe Illustrator 16.0.0, SVG Export Plug-In . SVG Version: 6.00 Build 0)  -->
<!DOCTYPE svg PUBLIC "-//W3C//DTD SVG 1.1//EN" "http://www.w3.org/Graphics/SVG/1.1/DTD/svg11.dtd">
<svg version="1.1" xmlns="http://www.w3.org/2000/svg" xmlns:xlink="http://www.w3.org/1999/xlink" x="0px" y="0px" width="200px"
	 height="200px" viewBox="0 0 200 200" enable-background="new 0 0 200 200" xml:space="preserve">
<g id="Layer_1">
</g>
<g id="Layer_2">
	<g>
		<defs>
			<circle id="XMLID_5_" cx="-132" cy="100.5" r="95.576"/>
		</defs>
		<use xlink:href="#XMLID_5_"  overflow="visible" fill="#303030"/>
		<clipPath id="XMLID_13_">
			<use xlink:href="#XMLID_5_"  overflow="visible"/>
		</clipPath>
		<path clip-path="url(#XMLID_13_)" fill="#2AA876" d="M-200.448,186.388c0.036,0.151,0.072,0.3,0.107,0.45
			C-200.361,186.699-200.399,186.552-200.448,186.388z M7.024,187.929c0.446,0.444,0.981,1.012,1.699,1.844
			c0.563,0.553,1.076,1.112,1.489,1.598l0.595-0.057C10.201,190.936,9.177,190.087,7.024,187.929z M-125.82,146.341l-3.17-3.305
			l1.228,1.347L-125.82,146.341z M-165.85,151.611l0.913,0.406C-165.649,151.621-165.895,151.519-165.85,151.611z M-109.36,160.754
			c-0.994-0.874-1.971-1.783-2.952-2.691c1.059,1.024,2.12,2.038,3.194,3.021L-109.36,160.754z M-163.134,135.2
			c-0.984-1.572-1.944-3.187-2.852-4.844l-0.411-0.599C-166.508,130.038-163.472,135.561-163.134,135.2z M-23.3,161.542
			L-23.3,161.542C-22.368,160.095-22.597,160.449-23.3,161.542z M-155.129,120.733l0.548,0.09c-0.346-0.238-0.604-0.382-0.924-0.575
			C-155.659,120.289-155.593,120.43-155.129,120.733z M-153.94,120.624c-0.957-0.44-1.958-0.798-2.934-1.185
			c0.39,0.222,0.891,0.523,1.369,0.809C-155.327,120.195-154.771,120.308-153.94,120.624z M-14.521,193.733l0.132-0.014
			c-0.26-0.706-0.674-1.711-0.981-2.533C-15.096,191.973-14.807,192.832-14.521,193.733z M-169.274,119.282
			c0.879-1.407,2.547-1.532,3.542-1.426c1.098,0.107,2.148,0.351,3.164,0.69c-1.271-0.432-2.522-0.911-4.251-0.82
			c-0.786,0.005-2.09,0.435-2.676,1.538c-0.521,0.988-0.456,1.82-0.386,2.543c-0.033-0.196-0.067-0.358-0.103-0.489
			c0.03,0.218,0.07,0.422,0.114,0.613l0.068,0.469c-0.017-0.152-0.033-0.288-0.054-0.415c0.265,1.073,0.689,1.955,1.135,2.808
			C-169.148,123.357-170.293,121.947-169.274,119.282z M-115.941,159.061c3.218,3.385,1.72,2.029,5.256,5.398
			C-111.996,162.761-114.972,160.02-115.941,159.061z M-120.731,150.749c-0.112-0.189-0.331-0.486-0.729-0.967
			C-121.236,150.101-120.985,150.426-120.731,150.749z M-6.597,192.976l0.584-0.056c-0.345-0.937-0.719-1.847-1.148-2.811
			C-6.339,192.587-7.536,189.852-6.597,192.976z M-186.472,210.157l0.073-0.008c-0.047-0.105-0.103-0.222-0.164-0.348
			C-186.686,209.685-186.676,209.772-186.472,210.157z M-125.353,204.319l0.191-0.019
			C-125.646,203.885-125.867,203.729-125.353,204.319z M-198.891,189.884c-0.099-0.218-0.205-0.454-0.32-0.712
			C-199.094,189.445-198.988,189.684-198.891,189.884z M-73.777,199.393l0.11-0.011c-0.021-0.383-0.04-0.854-0.055-1.431
			C-73.751,198.495-73.769,198.97-73.777,199.393z M-73.811,191.452c0.25-0.834,0.845-1.892,1.099-1.898
			c0.633-1.281,1.603-1.813,3.265-1.641C-71.354,187.368-73.313,188.625-73.811,191.452z M-15.37,191.187
			c-0.131-0.375-0.286-0.8-0.402-1.144C-15.705,190.305-15.546,190.731-15.37,191.187z M-23.485,161.513l-0.012-0.002
			c0.989-1.544-8.649,13.437-4.567,7.098l0.003,0.003l0.036,0.046l0.396,0.477c1.06,1.281,2.113,2.624,3.178,3.955
			c-0.736-1.156-1.508-2.341-2.3-3.473l-0.592-0.837l-0.295-0.411l-0.02-0.026l-0.009-0.012l-0.002-0.003
			c-0.583,0.901,2.91-4.523,4.368-6.785l-0.083-0.014L-23.485,161.513z M-112.227,203.065l1.066-0.103
			c-2.2-1.787-6.13-4.998-8.474-6.83C-116.095,198.901-114.427,200.785-112.227,203.065z M-149.476,198.639l0.008-1.247
			c-0.098-0.716-0.189-1.435-0.249-2.135C-149.683,196.361-149.597,197.488-149.476,198.639z M-188.877,138.061
			c0.004-0.013-0.007-0.026,0.013-0.035C-188.895,138.031-188.918,138.039-188.877,138.061z M-17.194,165.718
			c0.823-0.322,11.99,7.074,2.741,0.621c0.829-0.449,6.231,3.876,8.269,5.874c-1.429-1.565,1.046,0.435,0.739-0.171
			c-1.102-0.953-2.492-2.012-4.396-3.592c-0.727-0.948,2.41,1.251,4.367,3.338c-2.315-2.694,3.58,2.758,0.149-0.907
			c-3.983-3.625-8.153-6.48-12.555-8.015c-1.076-0.421-2.194-0.678-3.267-0.957l-1.634-0.283l-0.402-0.066l-0.117-0.018
			c-0.085,0.135-0.18,0.28-0.287,0.446l0.01,0.003l0.079,0.016l0.064,0.014c-0.312,0.48-1.333,2.067-3.914,6.079l0.002,0.003
			l0.004,0.004l0.007,0.01l0.014,0.019l0.014,0.021c0.401-0.623,1.414-2.195,3.612-5.613l0.006,0.003l0.025,0.007l0.052,0.012
			l0.809,0.205c2.167,0.506,4.243,1.336,6.172,2.336c5.023,3.41,1.605,1.19-2.809-0.504
			C-18.36,165.035-17.401,165.482-17.194,165.718z M-21.632,162.815l-1.8-0.393l-0.228-0.048c-0.745,1.157-0.061,0.093,0.227-0.354
			l0.093,0.02l0.314,0.066c0.837,0.185,1.683,0.336,2.479,0.609c3.244,0.958,6.063,2.517,8.142,4.072
			c-0.703-0.258-1.41-0.498-2.141-0.695C-16.966,164.404-19.275,163.446-21.632,162.815z M-132.113,186.507
			c0.417,0.385,0.877,0.815,1.515,1.382C-130.635,187.765-131.172,187.228-132.113,186.507z M-126.213,159.499
			c-0.561-0.678-1.22-1.438-2.01-2.308C-127.489,158.052-126.834,158.794-126.213,159.499z M-137.104,148.854
			c-1.835-2.004-3.677-3.968-5.548-5.852c1.709,2.139-1.698-1.181-2.18-1.343c2.296,2.239,4.541,4.608,6.769,7.059
			C-137.943,148.543-137.109,149.13-137.104,148.854z M-136.42,151.124c0.332,0.161,1.134,0.871,2.016,1.685
			c-1.219-1.38-2.44-2.745-3.66-4.09C-138.154,148.848-137.847,149.396-136.42,151.124z M-71.566,167.692l1.67,1.438
			C-70.647,168.461-71.153,168.032-71.566,167.692z M-184.365,151.118c-0.061-0.133-0.167-0.312-0.328-0.562L-184.365,151.118z
			 M-163.653,191.933l0.001,0.002C-162.893,191.362-163.157,191.561-163.653,191.933z M-184.391,206.873
			c-0.962-1.349-1.945-2.684-2.847-4.073l0.354,0.788C-186.092,204.71-185.219,205.776-184.391,206.873z M-171.888,160.946
			c0.928,0.617,1.827,1.224,2.972,1.922C-170.537,161.816-171.245,161.325-171.888,160.946z M-181.261,204.233
			c0.001-0.004,0.001-0.006,0.002-0.01c-0.007-0.007-0.015-0.015-0.023-0.022C-181.274,204.212-181.266,204.222-181.261,204.233z
			 M-115.849,149.48c0.091,0.214,0.216,0.47,0.299,0.645C-115.612,149.958-115.715,149.738-115.849,149.48z M-113.463,125.811
			l1.53,0.454C-112.832,125.931-113.23,125.826-113.463,125.811z M-116.902,159.343c0.099,0.073,0.179,0.112,0.233,0.109
			L-116.902,159.343z M-81.426,114.524c0.329,0.089,0.662,0.18,0.999,0.268C-80.815,114.673-81.143,114.588-81.426,114.524z
			 M-58.681,148.524l-0.432-0.139C-58.706,148.665-57.369,149.963-58.681,148.524z M-49.4,118.6c-0.532-0.75-1.042-1.46-1.564-2.063
			C-49.537,118.656-49.33,118.893-49.4,118.6z M-59.222,148.352l0.109,0.034C-59.188,148.335-59.215,148.331-59.222,148.352z
			 M-85.723,120.364c0.117,0.011,0.249,0.027,0.384,0.046C-85.478,120.39-85.608,120.375-85.723,120.364z M-153.94,120.624
			c1.31,0.553,2.588,1.166,3.863,1.801C-151.567,121.596-152.931,120.977-153.94,120.624z M-86.53,118.137
			c-0.026-0.093-0.053-0.18-0.08-0.265c0.016,0.054,0.034,0.103,0.048,0.161C-86.551,118.067-86.542,118.103-86.53,118.137z
			 M-68.568,133.993l0.123,0.032C-68.639,133.875-68.715,133.835-68.568,133.993z M-172.197,162.687
			c0.229,0.213,0.443,0.418,0.686,0.636c0.591,0.373,1.405,0.877,2.094,1.263l1.806,0.998l-0.668-0.567
			C-169.368,164.446-171.086,163.41-172.197,162.687z M-56.21,147.286l1.248-0.368c-3.773-3.799-4.01-3.177-2.244-0.849
			c-3.513-3.415-1.276-2.36-4.028-4.383C-61.455,142.028-57.208,146.325-56.21,147.286z M-49.986,137.662l1.655,1.539
			C-48.881,138.618-49.172,138.318-49.986,137.662z M-51.515,151.001c0.743,0.875,1.724,2.185,2.667,3.234
			C-48.584,154.141-50.515,152.004-51.515,151.001z M-144.794,128.921c-0.142-0.117-0.289-0.238-0.429-0.354
			C-145.094,128.676-144.941,128.801-144.794,128.921z M-144.794,128.921c0.141,0.118,0.276,0.232,0.396,0.334
			C-144.503,129.161-144.646,129.043-144.794,128.921z M-152.796,123.157c-0.877-0.401-1.522-0.712-2.408-1.087
			c0.534,0.264,1.185,0.61,1.818,0.938C-152.778,123.313-152.476,123.44-152.796,123.157z M-60.498,141.54
			c-2.363-2.458-4.732-4.93-7.074-7.334l-0.874-0.181c0.712,0.56,3.343,2.922,4.166,4.083l-1.26-0.827L-60.498,141.54z
			 M-166.934,184.333c-0.208-0.519-0.418-0.972-0.681-1.498C-167.296,183.537-167.099,183.974-166.934,184.333z M-170.746,179.999
			c-0.119-0.157-0.233-0.317-0.327-0.425C-170.852,179.984-170.711,180.169-170.746,179.999z M-188.189,188.249
			c0.75,0.445,1.373,0.754,1.941,1.099C-186.893,188.941-187.542,188.619-188.189,188.249z M-167.992,188.521
			c-0.219-0.539-0.431-1.044-0.612-1.438L-167.992,188.521z M-174.113,199.193L-174.113,199.193
			C-174.449,199.445-174.604,199.562-174.113,199.193z M-159.156,189.951l0.203-0.505c0.426-1.716,1.015-3.576,2.317-5.568
			c-0.152,0.18-0.317,0.367-0.445,0.545C-158.24,186.412-158.77,188.243-159.156,189.951z M-166.418,192.823L-166.418,192.823
			C-165.757,192.325-166.024,192.528-166.418,192.823z M-166.615,192.277l-0.273-0.753c-0.369-1.004-0.722-2.011-1.104-3.003
			c0.311,0.844,0.613,1.825,0.907,2.788c0.145,0.483,0.285,0.964,0.411,1.425l0.048,0.172l0.011,0.042l0.002,0.012l0.002,0.005
			l0,0.003c-1.141,0.861-0.353,0.269,0.192-0.145l-0.06-0.169L-166.615,192.277z M-167.732,117.496
			c1.795-0.549,3.024-0.24,4.245-0.059c2.446,0.458,4.485,1.247,6.613,2.002c-2.177-1.169-3.073-1.436-4.185-1.73
			c-1.289-0.14-1.842-0.967-6.239-0.981c2.917-0.137,3.184,0.171,3.612,0.064c-0.974-0.261-2.002-0.548-3.56-0.392
			c-0.73,0.061-1.803,0.403-2.678,1.193c-0.854,0.833-1.274,1.963-1.342,2.718c-0.198,3.065,0.733,4.554,1.393,6.319
			c1.501,3.321,3.315,6.219,5.172,9.091c-0.195-0.634-3.037-5.836-0.857-2.534c-0.769-1.57-3.531-6.22-4.072-6.945
			c0.319,0.432,0.633,0.859,0.963,1.263c-2.502-3.566-1.812-8.002-1.317-6.187c-0.063-0.486-0.063-1.039,0.12-1.681
			C-169.662,118.707-168.611,117.702-167.732,117.496z M-89.495,144.042l2.075,1.709C-87.916,145.302-88.555,144.77-89.495,144.042z
			 M-174.456,209.009l0.009-0.001c-0.063-0.082-0.125-0.162-0.187-0.241C-174.575,208.849-174.517,208.928-174.456,209.009z
			 M-82.628,149.581c-1.599-1.276-3.225-2.521-4.792-3.83c1.071,0.964,1.343,1.417,1.675,1.927
			C-85.324,147.851-82.115,150.32-82.628,149.581z M-187.296,145.063l0.001,0.006C-187.276,145.063-187.305,145.064-187.296,145.063
			z M-117.013,121.582l0.017,0.003l0.131,0.016c0.687,0.089,1.386,0.139,2.021,0.276c1.3,0.223,2.487,0.527,3.55,0.841
			c4.721,1.294,2.441-0.648,2.835-1.563c-0.307-0.234-3.503-1.933-7.563-2.448l-0.373-0.052l-0.185-0.023l-0.093-0.013l-0.022-0.003
			c-16.768,11.885-4.649,3.3-8.392,5.954l-0.001,0.011l-0.005,0.018l-0.012,0.075l-0.168,1.188
			c-0.082,0.771-0.161,1.646-0.086,2.192c0.078,1.261,0.259,2.377,0.493,3.11c0.424,1.692,0.909,2.417,1.088,2.549
			c-1.672-6.457,3.357,8.542-0.163-3.425c0.094-0.686,0.49,0.746,1.252,2.558c0.743,1.87,1.86,4.062,2.916,6.148
			c-0.522-0.083-2.354-4.118-1.349-1.231c1.865,2.643,2.234,3.672,2.166,2.508c2.917,4.181,3.583,4.3,5.691,6.818
			c-1.699-2.334-4.256-6.051-6.549-10.681c-1.094-2.366-2.288-4.861-2.553-8.449c-0.057-0.405-0.009-0.943,0.037-1.447l0.083-0.755
			l0.049-0.374l0.014-0.093l0.006-0.045c-4.604,3.262,6.275-4.46,5.159-3.663H-117.013z M-68.739,188.118
			c-0.198-0.078-0.392-0.145-0.578-0.188C-69.121,187.986-68.928,188.05-68.739,188.118z M-113.265,147.089
			c0.645,0.865,1.181,1.524,1.583,1.92C-112.305,148.216-112.802,147.63-113.265,147.089z M-85.571,147.933l-0.174-0.255
			C-85.828,147.644-85.831,147.682-85.571,147.933z M-69.141,195.821c0,0.19,0.004,0.386,0.012,0.586
			C-69.131,196.231-69.137,196.033-69.141,195.821z M-154.154,198.098c0.113-1.787,0.508-3.52,0.599-4.729
			C-154.134,195.507-154.112,196.343-154.154,198.098z M-69.805,193.531c-0.003-0.077-0.007-0.157-0.012-0.242
			C-69.813,193.388-69.809,193.465-69.805,193.531z M-152.311,193.79c0.074-0.508,0.159-1.056,0.279-1.735
			C-152.09,192.379-152.236,193.126-152.311,193.79z M-154.154,198.098c-0.03,0.553-0.037,1.135-0.011,1.695
			C-154.152,199.127-154.155,198.565-154.154,198.098z M-179.798,202.56c3.013,4.652,3.098,3.558,5.164,6.207
			c-3.725-5.084-4.356-6.211-8.45-12.413C-180.16,201.338-179.302,202.61-179.798,202.56z M-128.287,196.277
			c3.552,3.103,3.252,2.777,1.844,1.107c-3.658-2.843-10.44-8.289-10.54-7.339c-5.41-3.55-1.477-1.326-5.374-3.788
			c-0.454-0.458,1.109,0.038,2.597,0.753c-2.698-1.534-5.898-3.113-9.145-2.203c-3.273,1.117-4.434,4.677-5.05,7.64
			c0.208,0.486,0.87-2.558,2.197-4.371c1.406-1.763,2.549-2.304,0.924-0.175c-0.478,1.396-0.152,1.127-1.473,6.947
			c-0.089,0.063-0.07-0.461-0.006-1.059c-0.319,2.76-0.542,3.199-0.801,6.322c-0.596,0.931-0.286-3.879-0.267-5.951
			c-0.209,1.998-0.125,4.265-0.248,6.488l-0.188-0.522c-0.035,2.244,0.005,4.492,0.082,6.746c0.01,0.058,0.018,0.104,0.027,0.153
			l0.18-0.017c0.046-1.364-0.101-5.368,0.186-5.615c0.071,1.435,0.185,2.87,0.313,4.31c0.014,0.369,0.033,0.792,0.052,1.254
			l2.729-0.262c0.016-0.186,0.032-0.35,0.05-0.482c-0.244-2.799-0.505-5.31-0.554-8.054c-0.025-2.601,0.13-5.867,1.452-8.337
			c1.097-0.612,1.591-0.227,2.332-0.109c0.416-0.134,1.165-0.126,2,0.05c3.448,1.431,9.352,5.646,11.441,7.808l-0.549-0.399
			c4.102,3.802,4.781,3.392,1.522,0.457c1.426,1.072,2.85,2.166,4.267,3.293l0.023,0.245c1.285,1.012,2.546,2.023,3.839,3.063
			l4.209-0.401c-0.558-0.455-1.09-0.886-1.517-1.205C-123.352,201.055-128.183,196.98-128.287,196.277z M-120.583,142.388
			c1.245,2.138,1.683,2.707,2.549,3.89C-117.975,145.77-119.532,144.11-120.583,142.388z M-171.028,194.061
			c0.025,0.003,0.05,0.009,0.077,0.009c0.057-0.161,0.032-0.26-0.032-0.324c-0.042,0.031-0.084,0.063-0.131,0.098
			C-171.084,193.916-171.054,193.991-171.028,194.061z M-194.419,185.524c0.01,0.135,0.018,0.273,0.021,0.419
			c0.005-0.142,0.001-0.277-0.003-0.408L-194.419,185.524z M-116.348,199.693l0.786,0.523l-2.907-2.24
			c-0.013-0.723-7.469-6.991-2.835-3.632c-3.901-3.309-1.589-0.842-5.259-3.766c2.326,2.047,4.565,4.127,6.755,6.199l-0.472,0.29
			c-2.698-1.944-3.011-2.782-5.851-5.177l-0.146,0.658c-1.544-1.554-3.149-3.082-4.817-4.577c0.436,0.798-3.581-2.425-4.89-3.118
			c-1.459-1.131-1.704-1.581-2.213-2.106c-0.605-0.473-1.264-1.307-5.256-2.323l0.551,0.232c-2.236-0.58-4.563-0.854-7.328-0.016
			c-2.812,0.832-5.412,3.357-6.771,6.38c0.013-0.326,0.733-1.89,1.411-2.841c-3.375,4.519-3.536,9.648-3.817,13.867
			c-0.158,4.261-0.063,7.889-0.477,9.497c-0.486-0.558-0.239-3.516-0.759-3.678c0.383-5.53,0.38-7.597,0.446-10.052
			c0.058-1.231,0.116-2.547,0.623-4.626c0.277-1.05,0.649-2.297,1.484-3.896c0.834-1.524,2.215-3.757,5.294-5.433
			c0.409,0.137,1.886-0.603,3.982-0.87c0.884-0.13,1.818-0.155,2.752-0.104c-0.333,0.253-0.58,0.44-0.744,0.566
			c-1.004,0.054-1.518,0.209-1.086,0.201c0.286-0.016,0.567-0.021,0.845-0.018c-0.043,0.033-0.042,0.031,0-0.001
			c3.731,0.022,6.756,1.507,9.136,2.86c2.562,1.536,4.444,2.948,5.797,4.012c-2.147-2.044-1.025-2.039,0.976-1.086
			c-1.676-1.127-3.46-2.4-5.95-3.956c-2.007-1.057-4.214-2.554-7.729-3.108c1.606-1.221,4.62-3.514,9.948-7.566l0-0.002
			l-0.001-0.004l-0.007-0.02l-0.024-0.072l-0.087-0.257c0.001-0.002,0.003-0.003,0.004-0.004c0.146,0.286,0.16,0.184,0.116-0.088
			c1.334-1.017,1.717-1.308,0-0.001c-0.123-0.754-0.686-2.795-0.072-1.388c-0.206-0.741-1.435-4.058-1.242-3.107l0.641,1.914
			c-2.356-4.672-1.413-1.755-5.198-9.271c1.741,4.902,2.816,6.936,3.983,9.511c0.333,0.887,0.553,1.652,0.804,2.42l0.199,0.473
			l0.024,0.06l0.013,0.029l0.002,0.004c-0.018,0.012-0.031,0.023-0.047,0.036l-0.002-0.01l-0.006-0.018l-0.182-0.574
			c-1.934-4.762-4.357-9.197-7.069-13.297c-0.665-1.253-1.352-2.521-2.08-3.749c-0.612-1.841-4.088-7.146-2.309-5.306
			c-0.141-0.668,1.083,1.082,2.372,3.577c0.153,0.407-0.219-0.189-0.054,0.239c0.634,0.556,1.162,0.645-0.267-2.483
			c1.691,3.063,1.841,3.507,3.171,5.589c-0.519-1.074-1.057-2.131-1.612-3.174c2.758,4.441,6.539,11.896,6.828,11.693
			c-1.142-1.365-1.916-4.82-3.124-7.484c1.112,1.927,3.298,6.245,1.893,2.828c-0.665-1.199-5.5-9.734-2.524-3.432
			c-1.458-2.585-3.627-5.851-5.173-8.7c2.234,3.132,1.114,0.863,2.012,1.58c-2.066-2.768-2.38-2.419-2.839-2.774
			c-2.425-4.448-4.108-7.64-5.935-10.832c1.972,1.104,4.276,2.594,8.065,6.358c-4-4.021-4.524-4.403-7.931-7.097
			c3.875,2.594,0.747,0.196,1.443,0.144c1.975,1.986,8.94,8.047,3.964,4.183c2.815,2.487,8.116,8.175,9.542,9.375
			c-0.718-0.9-1.437-1.799-2.163-2.68c3.86,4.112,7.902,8.182,9.849,9.646c-4.822-5.354-5.251-4.708-11.309-11.239
			c-6.414-7.121,1.976,1.26-2.01-3.665c-1.757-1.452-3.512-2.891-5.324-4.195c0.787,0.699,1.564,1.411,2.327,2.15
			c-1.122-0.334-7.878-6.658-7.759-5.387c-0.071-0.06-0.139-0.119-0.208-0.179c-0.79-1.32-1.645-2.696-2.616-4.209
			c1.582,0.893,3.181,1.954,4.808,3.278c-0.138,0.341,5.216,4.843,3.377,3.638c3.931,3.525,6.374,5.272,9.081,7.627
			c0.283,0.801,5.591,6.2,3.412,4.451c1.286,1.1,2.569,2.211,3.851,3.339c2.13,2.771,7.212,8.086,7.719,9.305
			c2.726,2.823,1.208,0.376,4.75,4.521c-0.247-0.118,0.001,0.24-0.757-0.608c1.491,1.96,5.742,6.29,7.939,7.818
			c-2.752-2.77-0.599-0.687-3.822-3.986c0.27-0.118,4.11,3.307,7.985,6.92c-5.966-4.152,3.973,4.156,1.163,2.249
			c1.138,0.903,2.24,1.732,3.334,2.478c0.536,0.383,1.074,0.739,1.614,1.072l0.797,0.501l0.393,0.243l0.195,0.121l0.098,0.061
			l0.048,0.03l0.024,0.015l0.007,0.004c-1.003,0.348,5.399-1.863,7.525-2.599l-0.04,0.155l-0.083,0.33l-0.007,0.021l-0.003,0.011
			l-0.001,0.005c-3.471,1.199,7.769-2.677-7.782,2.689l-0.029-0.019l-0.06-0.034l-0.12-0.07c-1.275-0.747-2.552-1.501-3.779-2.313
			c-2.465-1.611-4.862-3.326-7.129-5.149c-3.361-2.489,0.357,0.866,0.727,1.455c-1.49-0.706-6.809-6.079-6.783-6.607
			c0.781,0.621,3.81,3.336,2.12,1.416c-1.611-1.169-3.182-2.373-4.736-3.592c-4.923-6.017,4.769,3.588,7.999,5.891
			c-5.757-5.539-7.711-6.925-13.256-13.068c1.56,1.867,2.443,3.152,3.188,4.232c-0.267,0.629-5.277-5.332-8.826-9.361
			c2.077,2.766,0.594,1.399-1.23-0.323c-0.311-0.327-0.531-0.526-0.699-0.657l-0.623-0.581l0.426,0.483
			c-0.079,0.013-0.045,0.17,0.173,0.591c3.106,3.271,5.045,6.256,7.042,8.487c-1.309-2.854,7.003,7.475,10.223,9.926
			c1.11,1.017,2.242,2.025,3.41,3.006l1.289,1.123c0.195,0.31-0.263,0.097-2.358-1.492c1.669,1.375,7.431,5.994,7.109,5.291
			c1.147,0.822,2.275,1.663,3.475,2.435l0.888,0.589l0.222,0.148l0.111,0.072l0.014,0.01l0.003,0.002
			c4.956-1.709-11.087,3.828,11.11-3.831l0.002-0.011l0.014-0.041l0.025-0.084l0.202-0.671c0.26-0.897,0.542-1.793,0.674-2.714
			c0.694-3.676,0.458-7.347-0.244-10.586c-0.077-0.634-0.187-1.225-0.241-1.678c-0.237-0.634-0.315-0.725-0.338-0.633
			c-1.957-6.656-5.201-11.813-7.909-16.561c1.091,0.967,2.188,1.927,3.3,2.86c-0.905-1.253-1.741-2.008-1.253-2.07
			c7.297,6.51,2.017,2.388,7.177,7.378c2.8,2.327,5.603,4.645,8.433,6.9l-0.752-0.47c0.712,0.569,1.056,0.788,1.338,0.943
			c4.768,3.808,9.035,7.444,13.584,11.493c2.298,2.019,4.494,4.032,6.891,6.056l3.536,3.028c0.895,0.739,1.859,1.674,2.998,2.758
			c5.349,4.65-2.384-3.165,1.76,0.013c-1.537-1.448-2.848-2.835-4.286-4.06c-1.645-1.459-3.292-2.924-4.787-4.225
			c-2.538-2.276-4.609-4.054-5.422-4.431c0.146,0.001,0.13-0.161-0.596-0.887l-3.668-2.45l2.984,2.908
			c-3.592-2.597-14.224-11.539-16.201-13.58c6.463,5.036,3.931,1.909,12.1,9.345c-0.253-0.487-1.59-2.035,0.379-0.489
			c-9.889-8.125-19.412-15.924-29.946-24.852c-1.52-2.301-2.955-4.344-4.253-6.335c1.689,1.548,2.168,2.194,1.953,2.333
			c5.036,4.923,11.458,10.376,16.396,13.803c-6.123-4.82,2.375,1.284-3.467-3.725c1.884,1.387,5.81,4.496,9.46,7.516
			c-3.638-2.762,4.157,4.565-3.515-2.053c0.683,1.398,3.921,3.111,7.364,6.026c-1.933-1.29-6.139-4.23-5.823-3.896
			c5.968,3.633,16.139,14.115,18.459,15.55c3.893,2.947,10.251,7.479,14.652,11.132c1.031,1.134,2.194,2.288,3.599,3.377
			c0.698,0.544,1.479,1.066,2.357,1.537c0.442,0.234,0.906,0.456,1.417,0.642c0.242,0.104,0.507,0.189,0.786,0.264l0.409,0.112
			l0.206,0.055l0.038,0.011c1.588-1.413-3.545,3.165,3.562-3.167l0-0.005l-0.005-0.041l-0.01-0.081
			c-0.358-3.447-1.186-6.942-2.313-10.343l0.64,1.13c-1.073-3.96-4.067-9.582-7.315-14.408l-0.365-1.328
			c-2.387-3.282-7.182-8.869-11.162-13.282c-0.215,0.096,3.439,4.209,1.489,2.463c1.931,2.256,3.622,4.131,3.149,3.142
			c1.937,2.257,1.661,2.653,3.022,4.705c-2.445-2.996-5.066-5.77-7.642-8.593c-0.596-0.694-0.79-0.962-0.797-1.028l-0.93-0.289
			c-1.994-2.18-2.485-2.899-1.998-2.667c-4.518-4.542-6.52-5.669-11.071-10.61c2.277,1.766,3.771,2.896,7.052,6.331
			c-1.766-1.865-3.533-3.692-5.301-5.537c2.767,2.161,11.835,11.931,10.797,9.789c-2.99-3.028-6.733-6.631-10.374-10.108
			c-3.739-3.663-7.679-6.613-10.312-8.993c-1.089-1.56-2.703-3.244-4.047-5.287c-0.131-0.201-0.26-0.41-0.387-0.62
			c0.023,0.002,0.045,0.002,0.07,0.005c-0.025-0.003-0.047-0.004-0.07-0.006c-0.167-0.277-0.325-0.561-0.472-0.849
			c-0.071-0.532-0.134-0.954-0.265-1.373c0.072,0.262,0.138,0.554,0.187,0.866c0.015,0.126,0.045,0.31,0.077,0.505
			c-0.3-0.587-0.548-1.189-0.688-1.776c-0.117-0.371-0.112-0.678-0.097-0.834c0.043,0.063,0.093,0.145,0.147,0.246
			c0.096,0.179,0.199,0.429,0.294,0.729c-0.131-0.465-0.308-0.788-0.442-0.98c0.002-0.017,0.003-0.035,0.006-0.05
			c0.024-0.005,0.059-0.015,0.103-0.023c0.151,0.061,0.376,0.126,0.695,0.171c0.056,0.004,0.125,0.008,0.2,0.013
			c-0.387-0.039-0.682-0.105-0.89-0.184c0.062-0.014,0.136-0.029,0.228-0.041c0.275,0.006,0.945,0.129,1.252,0.259
			c-0.225-0.009-0.429-0.023-0.59-0.034c0.18,0.019,0.376,0.033,0.597,0.037c0.207,0.089,0.242,0.182-0.149,0.24
			c-0.452-0.038-0.845-0.01-1.066,0.036c0.714-0.131,2.165,0.104,3.647,0.486c0.047,0.102,0.095,0.204,0.139,0.305
			c0.335,0.643,0.794,1.371,1.381,2.148c2.407,3.265,6.406,6.462,11.911,11.844c-4.085-4.137-8.037-7.258-10.938-10.676
			c-1.101-1.264-1.989-2.593-2.476-3.616c0.486,0.125,0.977,0.268,1.444,0.417c1.994,0.611,4.041,1.395,6.05,2.205
			c3.984,1.638,8.019,3.444,11.451,4.88c1.05,0.758,2.125,1.476,3.147,2.26c10.988,6.486-1.546-2.162,9.751,4.49
			c1.15,1.129,4.43,3.432,7.156,5.863l1.009,0.894l0.487,0.433l0.238,0.212l0.118,0.105l0.029,0.025l0.008,0.007
			c-0.704,0.371,6.157-3.217,3.252-1.701l0-0.005l-0.003-0.021l-0.012-0.083c-0.127-0.879-0.209-1.7-0.33-2.399
			c-0.214-1.403-0.374-2.358-0.295-2.523c-0.68-2.522-1.072-3.636-1.52-3.828c0.771,2.201,1.94,7.234,0.896,4.475
			c-1.293-4.504-1.842-6.688-3.391-10.061c0.22,0.174,1.56,2.5,0.924,1.213c-1.893-4.177-5.217-9.769-9.041-14.806
			c-2.354-3.131-4.6-6.44-6.753-9.183l-0.146,0.014c0.4,0.562,0.855,1.254,1.423,2.175c-0.223,0.072-1.156-1.31-1.835-2.136
			l-0.2,0.02c0.541,1.057,2.923,3.571,4.755,6.937c-1.53-1.922-3.021-3.9-4.577-5.813c0.656,1.229,1.29,2.464,1.921,3.704
			c-1.215-1.542-2.448-3.145-3.731-4.672l-0.8,0.077c1.376,1.733,2.605,3.439,3.852,4.963c2.819,3.849,5.877,7.134,8.465,12.104
			c-1.047-1.424-0.263,0.118-0.142,0.553c2.045,2.905,3.88,6.711,4.943,8.62c0.69,1.751,1.27,3.54,1.767,5.351
			c-0.336,0.023-1.274-1.956-3.522-7.142c1.011,2.266,1.852,4.518,2.516,6.764c0.209,0.715,0.405,1.426,0.582,2.137
			c-2.759-2.101-5.628-3.93-8.539-5.642c-7.964-4.563-16.14-8.332-25.582-12.668c-0.767-0.449,2.631,0.896,1.214,0.23
			c-2.169-0.838-5.681-1.759-6.719-1.884c0.254-0.011,0.656,0.012,1.314,0.158c-2.234-0.602-4.295-1.13-6.575-0.55
			c-1.466,0.368-2.29,2.158-2.113,3.283c0.052,1.179,0.339,2.153,0.696,3.056c1.465,3.605,3.64,6.109,6.178,8.482
			c-0.017,0.561-3.791-3.818-3.254-3.114c3.399,4.285,6.642,6.716,9.627,9.321c2.934,2.583,5.904,5.401,9.538,9.203
			c-2.754-2.202,1.287,1.998,2.999,4.292c6.02,6,19.177,19.665,22.014,32.647c-0.477-0.762-0.511-0.262-0.31,0.912
			c0.091,0.59,0.195,1.36,0.349,2.229c0.011,0.082,0.021,0.171,0.031,0.255c-3.082-1.543-5.786-4.661-5.841-5.206
			c-2.079-2.12-5.787-4.958-6.205-4.869c1.317,0.896,4.16,3.764,3.626,3.589c-3.307-2.809-8.208-7.013-8.946-7.097l-3.611-3.886
			c-0.49,0.058-2.049-0.731-4.227-2.677c-4.309-4.949,0.131,0.94-6.624-5.433c1.858,1.063,3.486,2.061,4.27,2.322
			c-3.39-2.967-3.052-2.42-5.569-4.345c-0.628-0.891,2.926,1.354,5.685,3.448c-1.423-1.307-2.846-2.667-4.275-3.934
			c-4.68-3.037-12.661-8.555-19.234-14.627c1.314,0.702,3.506,2.605,2.052,0.712c-3.006-2.425-7.109-5.426-10.773-9.08
			c0.559,0.435,0.268,0.1,0.821,0.525c-3.598-2.763-5.033-3.694-6.319-4.672c-1.333-0.895-2.452-2.031-6.495-3.457
			c0.148-0.008,0.195-0.064,0.451-0.047c-0.853-0.219-1.721-0.382-2.595-0.504l-1.323-0.111l-0.021-0.002l-0.01-0.001h-0.005h-0.002
			h-0.001c-0.543,0.385,1.214-0.863-1.219,0.863l-0.003,0.046l-0.006,0.094l-0.013,0.185l-0.021,0.371l-0.032,0.733
			c0.187,1.04,0.405,1.961,0.64,2.789c-0.927,0.66-1.286,0.914,0,0.001c0.162,0.569,0.331,1.092,0.504,1.578
			c-1.704,1.657-2.751,2.678-0.653,0.637l0.003,0.001l0.047,0.006c0.266,0.026,0.524,0.053,0.777,0.084
			c0.022-0.028,0.044-0.053,0.066-0.08c0.013,0.031,0.024,0.062,0.037,0.093c-0.035-0.004-0.069-0.01-0.104-0.013
			c-0.304,0.355-0.625,0.731-0.964,1.13l0.017,0.003c0.369,0.063,0.741,0.104,1.145,0.213c0.178,0.045,0.359,0.096,0.543,0.148
			c0.667,1.436,1.292,2.519,1.657,3.635c0.959,2.226,1.62,4.05,3.228,6.745l-0.839-1.108c0.816,1.818,3.306,5.173,5.256,8.468
			c1.958,3.262,3.774,6.43,4.491,8.143c-1.375-3.479-0.188-1.18-1.126-4.164c-2.014-3.202-2.009-2.074-5.13-7.445
			c1.012,0.258,5.227,7.182,6.382,8.468c1.73,3.175,1.77,5.769,1.571,6.189c0.602,1.497,1.048,2.899,1.347,4.243
			c-0.905-0.72-1.804-1.485-2.682-2.28c-0.368-1.144-0.81-2.302-1.341-3.433c-2.078-4.625-4.543-8.593-5.083-8.23
			c1.296,2.14,3.263,5.535,4.912,8.468l-0.882,0.379c0.147,0.365,0.276,0.667,0.394,0.926c-1.243-1.224-2.415-2.461-3.454-3.635
			c0.483,0.674,1.477,1.736,0.747,1.23c-0.087-0.079-0.176-0.159-0.262-0.238c-0.996-1.81-2.146-3.62-3.245-5.39
			c-1.046-1.72-1.655-2.661-2.49-3.976c-0.786-1.25-1.506-2.495-1.972-3.609c-3.377-4.793-3.453-4.333-5.595-7.262
			c-0.962-0.09,3.577,6.679,4.922,9.283c-0.109-0.26-0.168-0.459-0.046-0.377c0.868,1.374,1.774,2.769,2.467,3.954
			c-1.001-1.777-0.847-1.838-0.138-1.075c0.693,0.741,1.512,1.845,2.252,3.085c0.19,0.314,0.41,0.684,0.635,1.072
			c-3.412-2.655-10.586-12.673-15.359-16.806c-7.279-6.243-15.174-12.449-24.039-16.909c0.971,0.533,1.969,1.162,2.979,1.852
			c1.739,2.131,2.897,2.896-1.147,0.604c3.784,2.49,2.851,0.934,7.989,5.396c-2.231-1.514-3.114-1.454,1.539,2.978
			c11.906,10.705,19.466,18.3,30.077,27.555c-0.008,0.184,0.397,0.701,1.076,1.422c0.491,0.878,0.924,1.751,1.231,2.614
			c-2.952-2.582-5.684-5.252-7.424-6.465c-1.742-2.065-4.811-4.866-6.975-7.631c0.77,1.285-3.99-3.114,1.89,3.035
			c-0.485-0.486-0.247-0.124-0.725-0.605c3.353,4.333,5.305,5.497,8.55,8.783c1.75,2.173-3.487-2.922-1.733-0.979
			c1.813,1.892,4.66,4.566,7.285,6.828c0.259,0.701,0.459,1.409,0.598,2.128c-0.072-0.06-0.144-0.116-0.218-0.176
			c-3.171-2.196-6.35-3.28-12.079-10.541l0.262,0.121c-0.792-0.58-2.87-3.374-4.158-4.45c1.675,2.792-2.911-2.678-0.749,0.606
			c-3.615-4.02-3.582-5.25-3.573-5.979c-3.157-2.303-6.664-8.405-12.932-13.962c1.36,0.747,7.633,7.338,5.356,4.332
			c-2.673-2.395-5.415-4.726-8.261-6.915c1.168,1.077,2.323,2.173,3.444,3.296c-6.248-5.202-7.578-7.129-11.228-10.221
			c-0.612-0.743,1.984,1.003,3.778,2.517c-1.924-1.645-5.244-3.986-8.163-5.559c-1.14-0.535-3.595-1.869-6.294-2.95
			c-2.655-1.08-5.683-2.236-7.83-1.454c-0.568,0.094-1.157,0.566-1.457,1.125c0.008-0.182,0.19-0.484,0.463-0.777
			c-0.808,0.75-0.803,1.608-0.801,2.177c-0.024,1.673,0.52,3.054,1.026,4.444l-0.442-0.78c0.243,0.538,0.493,1.053,0.753,1.531
			c0.591,1.383,1.27,2.719,1.983,4.032l1.35,1.871l-0.565-0.973c0.723,0.07,3.969,4.25,7.469,9.466
			c-0.195-0.374-2.016-3.114-4.531-7.107l1.042,1.201c3.801,5.89,7.483,11.403,10.531,16.788c-1.268-1.886-2.581-3.81-4.039-6.155
			c3.143,5.764,8.857,14.273,9.177,17.589c-4.83-8.829-7.173-12.997-13.264-21.723c-2.498-4.876,4.155,5.458,4.594,5.57
			c-1.031-1.724-2.098-3.427-3.165-5.131c0.13,0.891-6.773-9.608-5.746-6.554c6.119,9.462,12.347,18.736,16.315,27.824
			c-3.854-1.849-4.994-3.166-7.184-4.639c-0.417-0.688-0.958-1.536-1.542-2.423c0.424,0.348,0.932,0.697-0.591-1.822
			c-2.79-5.278-5.468-7.546-7.862-11.285l0.833,1.092c-2.151-3.521-5.373-8.124-7.433-11.045c-1.289-3.331,7.016,10.798,3.869,4.627
			c2.474,4.166,6.624,9.217,8.537,12.194c-3.033-5.042-5.397-9.752-4.057-8.599c-7.688-10.732-1.439,1.185-7.988-8.797
			c-1.333-2.585-2.703-4.882-3.61-8.854c-0.286-0.697-0.564-1.531-0.668-2.709c-0.073-1.153-0.024-2.947,1.366-4.973
			c0.929-1.222,2.076-1.859,2.91-2.272c0.751-0.313,1.401-0.487,1.886-0.588c0.744-0.098,1.092-0.087,1.183-0.065
			c0.178,0.051-0.614,0.188-1.194,0.382c-0.756,0.291-1.138,0.468,0.176,0.19c1.141-0.189,3.472-0.146,5.78,0.615
			c2.893,0.433,7.03,3.064,8.547,3.611c-0.291,0.079-0.44,0.152,2.97,2.266c0.276,0.065,0.164-0.433,2.787,1.334
			c1.386,1.813-6.91-4.223-4.209-1.611c7.621,4.993,5.043,2.476,6.547,3.138c-0.263-0.148-0.629-0.475-1.436-1.059
			c0.25-0.195,3.162,2.288,3.031,1.793c-1.186-0.961-2.466-1.793-3.608-2.483c2.41,1.33-3.359-3.05-5.887-4.337
			c-1.472-0.698-3.214-1.532-5.421-2.478c-1.126-0.479-2.441-0.978-4.104-1.41c-0.901-0.205-1.936-0.401-3.324-0.424
			c-1.483,0.068-3.972,0.229-6.397,2.627c-2.315,2.52-2.376,5.145-2.351,6.414c0.049,1.501,0.297,2.488,0.539,3.389
			c0.505,1.763,1.098,3.092,1.688,4.352c1.191,2.474,2.424,4.527,3.561,6.321c-0.425-0.603-1.251-1.834-0.878-0.971
			c6.135,9.746,8.906,13.181,14.628,22.81c-0.496-0.272-1.048-0.555-1.678-0.851c0.579,1.213-0.361,0.6,2.919,3.18
			c-3.613-1.955-7.793-5.174-7.125-5.496l-1.018,0.034c-0.599-0.485-3.103-2.318-3.223-2.59l-1.282-0.586
			c2.251,2.231,3.7,3.469,8.371,6.101c-1.997-0.802,1.93,2.357-3.873-1.139c-2.473-1.559-0.128-0.466-0.201-0.705
			c-5.995-3.773-9.131-6.624-11.853-8.699c-2.87-2.123-5.037-4.264-11.439-6.896c3.552,1.002,9.9,5.381,14.85,8.477
			c-2.594-2.461-6.413-4.252-9.514-6.09c2.878,1.396,3.464,1.51,0.315-0.624l-1.56-0.466c-1.928-1.164-6.313-2.755-6.841-2.923
			c-0.162,0.096,1.148,0.459,3.223,1.422c-1.563-0.439-3.288-1.178-6.401-1.203c-0.78,0.014-1.7,0.112-2.718,0.435
			c-1.066,0.343-2.538,1.116-3.471,2.529c-1.779,2.911-1.124,5.072-0.872,6.497c1.652,5.654,4.496,9.472,7.057,13.692
			c-0.496-0.072-2.524-2.88-3.908-5.094c-1.371-2.232-2.204-3.685-0.632-0.236c2.105,3.465,4.999,5.982,7.994,11.278
			c-1.806-2.146,1.18,2.769,0.914,2.839c1.792,2.43,3.54,4.875,5.189,7.366c0.817,1.585,1.627,3.283,2.405,4.98
			c-1.794-0.988-3.599-1.884-5.474-2.686l0.371-0.412c-0.58,0.228-2.96-1.073-6.973-1.875c-1.043-0.153-2.252-0.35-4.01,0.058
			c-1.845,0.271-4.076,2.465-4.351,4.133c-0.57,2.613-0.14,3.809,0.087,4.604c-0.243-1.046-0.443-2.14-0.221-3.676
			c0.023-1.674,2.005-4.326,3.868-4.732c3.426-0.889,4.679-0.04,6.025,0.223c2.518,0.809,3.864,1.678,5.378,2.445
			c1.792,1.017,3.54,2.085,6.079,3.643c0.122,0.273,0.244,0.546,0.364,0.817c-2.622-1.342-5.253-2.642-8.787-3.859
			c-2.083-1.036-3.05-1.428-3.186-1.649c-1.083-0.193-1.85-0.193-2.943-0.109c-0.544,0.056-1.195,0.104-2.122,0.459
			c-0.922,0.268-2.204,1.476-2.386,2.873c-0.207,0.502-0.343,1.012-0.415,1.474c0.203,3.162,1.157,4.722,1.799,6.118
			c0.702,1.343,1.361,2.271,2.018,3.175c1.354,1.78,2.658,3.458,5.031,7.541c0.457,1.862-5.239-6.201-7.951-11.795
			c0.663,2.278-0.5,0.157-1.331-2.374c-0.973-2.325-0.296-6.941-1.106-2.231c0.266,1.407,0.718,2.464,1.189,3.457
			c0.977,2.642,0.814,2.855,0.253,1.698c1.389,3.092,1.041,2.314,1.944,3.487c7.712,13.222-1.754-0.819,5.798,12.052
			c-1.057-1.321-3.25-4.818-3.138-3.941c-1.306-2.396-2.65-4.594-3.914-7.15l-0.548,0.098c4.481,8.253,8.153,12.611,11.245,15.827
			l0.213-0.021c-4.134-5.479,0.582-0.277-1.735-4.104c1.213,1.314,2.025,2.759,2.464,3.671c0.063,0.063,0.164,0.181,0.292,0.336
			l2.788-0.267c-5.689-8.396-6.469-11.749-7.206-14.702c1.337,2.2,2.687,4.277,3.965,6.111l-0.144,0.689
			c1.776,2.848,3.55,5.356,5.347,7.714l3.698-0.353c-1.167-1.682-2.319-3.376-3.439-5.098c-0.089,0.255-0.334,0.276-0.767-0.002
			c-1.401-2.435-4.237-6.689-3.73-6.826c-1.326-1.442-3.544-4.778-4.909-6.643c0.367,0.185,0.736,0.375,1.104,0.57
			c0.746,1.199,1.544,2.408,2.347,3.619c2.236,2.222,0.73-0.187,4.676,4.972c0.943,2.105,1.47,3.743,1.282,4.3
			c0.902,0.898,2.371,2.712,4.167,5.037l0.715-0.068c-0.082-0.101-0.164-0.201-0.244-0.297c0.089,0.1,0.18,0.197,0.269,0.295
			l0.817-0.078c-1.293-1.501-2.862-3.535-4.97-6.756l0.223,0.147c-2.041-2.071-4.11-5.827-5.806-9.163
			c1.767,1.086,3.582,2.26,5.628,3.578c1.105,0.711,2.322,1.478,3.592,2.256c0.655,0.395,1.325,0.793,2.013,1.2l0.13,0.076
			l0.064,0.038c-2.403,1.819,20.968-15.809,11.073-8.353l-0.002-0.009l-0.019-0.056l-0.044-0.138
			c-1.03,0.775-3.939,2.97-10.714,8.078l-0.003-0.002l-0.018-0.011l-0.096-0.061l-0.379-0.235c-2.025-1.242-3.802-2.364-6.236-3.576
			c-2.756-2.105,4.739,2.588,1.61,0.434c1.392,0.84,2.846,1.579,4.209,2.153l0.974,0.403l0.191,0.074
			c0.671-0.507,2.062-1.557,0.447-0.34l-0.004-0.003l-0.016-0.011l-0.066-0.039l-0.495-0.309c-0.63-0.388-1.143-0.686-1.575-0.919
			c-0.854-0.47-1.368-0.688-1.874-0.874c-1.001-0.362-1.915-0.632-4.865-2.403c-0.997-0.78-1.977-1.549-2.953-2.278
			c-0.083-0.596-2.134-3.857-1.661-3.019c0.377,0.79,1.174,2.114,1.537,2.927c-0.306-0.227-0.611-0.451-0.917-0.669
			c-0.371-0.203-0.619-0.33-0.776-0.402c-0.584-1.183-1.095-2.208-1.503-2.948c0.135,0.072,0.272,0.145,0.408,0.218
			c0.076,0.12,0.149,0.235,0.219,0.345c-0.036-0.096-0.072-0.191-0.109-0.286c0.042,0.022,0.085,0.045,0.127,0.067
			c1.577,0.851,1.986,0.688,1.87,0.043c1.652,1.127,3.19,2.227,4.818,3.3c-1.379-0.593-2.349-0.888-4.747-2.244
			c4.166,2.46,8.274,5.444,12.779,8.288l-1.169-0.445l1.375,0.756l0.087,0.047l0.021,0.012l0.006,0.003
			c13.514-10.19,3.747-2.825,6.763-5.101l-0.001-0.002l-0.001-0.002l-0.003-0.012l-0.018-0.048l-0.007-0.02
			c-0.725,0.547-2.574,1.94-6.612,4.985l-0.018-0.012l-0.072-0.048l-0.282-0.187l-0.528-0.363c-1.356-0.938-2.109-1.63-1.414-1.495
			c0.765,0.429,1.501,0.84,2.188,1.241l0.257,0.15l0.127,0.075l0.063,0.037l0.031,0.019c10.812-8.151,2.998-2.262,5.41-4.082
			l-0.001-0.004l-0.003-0.01l-0.005-0.017l-0.183-0.561l-0.344-1.085c-0.444-1.422-0.816-2.746-1.294-3.992
			c-0.875-2.524-1.868-4.863-3.416-7.463c0.892-0.357,0.146-2.296,1.507-0.688c0.167,0.379,0.231,0.56,0.26,0.672
			c1.407,1.872,3.845,6.246,5.054,9.967c-1.949-6.596-3.114-8.854-4.032-10.965c-0.992-2.073-1.849-4.007-4.569-9.168
			c0.086-1.262,5.521,9.338,4.587,6.758c1.553,3.391,2.89,6.946,4.063,10.56c-0.694-1.803-0.893-1.986-1.291-2.817
			c0.744,1.811,1.409,3.316,1.82,4.735c0.223,0.7,0.425,1.358,0.618,1.987l0.273,0.906c-0.215,0.162-0.459,0.346-0.74,0.557
			l-0.001-0.004l-0.005-0.006l-0.027-0.055l-0.222-0.424c-0.292-0.547-0.556-1.012-0.78-1.375c0.147,0.535,0.285,1.021,0.412,1.463
			l0.095,0.325l0.045,0.156l0.013,0.038l0.001,0.01c-5.607,4.229-7.92,5.974-8.682,6.546l0.04,0.015l0.113,0.046l0.028,0.01
			l0.014,0.006l0.002,0.001c-1.289,0.972,6.563-4.95,9.693-7.309l0.002,0.017l0.069,0.226l0.017,0.056l0.008,0.028
			c-1.94,1.463-0.388,0.294,0.472-0.355l-0.05-0.158l-0.055-0.163c0.929-0.7,1.145-0.864,0-0.001l-0.143-0.438l-0.405-1.225
			l0.529,0.699c-2.811-10.688-5.523-14.418-7.702-17.77c-2.383-3.404-4.335-5.98-9.352-13.765c0.155-0.563-1.546-2.789-2.657-4.408
			c0.23,0.194,0.522,0.423,0.914,0.712c0.367,0.469,0.501,0.53,0.5,0.363c0.873,0.624,2.126,1.479,3.984,2.712l-1.627-0.804
			c2.09,1.422,4.171,2.908,6.367,4.462l-1.89-1.842c1.298,0.853,2.587,1.712,4.016,2.629c1.548,1.015,3.081,1.826,4.353,2.552
			c5.102,2.715-1.732-1.65-0.935-1.51c-0.652-0.196-1.241-0.339-2.087-0.682c-3.458-2.557-7.7-5.15-8.164-5.914
			c4.946,3.452,4.036,2.293,6.171,3.563c-1.67-1.117-3.269-2.204-4.871-3.262l-1.281-1.418c-1.991-1.418-3.795-2.653-5.431-3.66
			c-0.307-0.498-0.605-0.994-0.896-1.488c0.429,0.878-0.907-0.361,0.072,0.755c0.114,0.148,0.234,0.298,0.35,0.447
			c-0.295-0.178-0.585-0.349-0.868-0.508c-0.564-0.724-1.131-1.544-1.692-2.569c1.065,0.581,2.048,1.197,2.813,1.727l-0.252-0.033
			c2.651,1.61,8.607,5.253,8.77,6c1.695,1.082,6.4,4.332,1.884,0.693c2.458,1.717,5.546,3.791,8.244,5.287
			c-1.805-0.096,5.699,4.828-2.686,0.41c0.293,0.152,3.265,1.924,8.095,4.733c-0.089-0.022-0.155-0.028-0.266-0.066
			c-0.298-0.139-0.545-0.235-0.711-0.257c-0.948-0.621-1.55-0.948-1.62-1.187c-3.163-1.236,0.917,1.503,5.329,4.296l1.314,0.22
			c1.858,1.294,3.3,2.393,4.95,3.524c0.829,0.561,1.707,1.131,2.71,1.744c0.501,0.307,1.034,0.622,1.607,0.953l0.89,0.505
			l0.233,0.132l0.119,0.064l0.059,0.033l0.03,0.016l0.003,0.003c-0.021,0.017-0.036,0.027-0.053,0.04l-0.084-0.036l-0.218-0.093
			l-0.87-0.373l-1.742-0.745l-3.488-1.495l-1.705-0.513c1.321,0.715,2.67,1.406,4.01,2.103l2.011,1.043l0.37,0.191
			c-0.524-0.025-1.065-0.034-1.642-0.016c-2.874,0.121-6.221,1.857-8.041,3.978c-1.901,2.103-2.811,4.192-3.484,6.035
			c-1.283,3.718-1.61,6.893-1.834,9.786l0.803-1.244c0.078,9.667-0.717-1.137-0.954,6.316c0.166,1.088,0.342,2.16,0.534,3.215
			l-0.056,0.461c0.049,0.355,0.101,0.703,0.152,1.057l0.168-0.017c-0.003-0.448,0.013-1.042,0.063-1.886
			c0.206-3.662,0.525,0.164,0.952,1.182c-0.011,0.176-0.021,0.383-0.028,0.609l4.813-0.459c-0.337-2.648-0.722-5.859-0.859-9.908
			l0.081,0.274c0.236-3.312,0.567-6.715,2.215-10.056c-0.15,0.44-0.256,0.878-0.356,1.311c0.642-1.935,1.869-4.145,4.246-5.294
			c0.029,0.464,2.229-0.365,1.891,0.14c4.47-0.08,12.675,4.549,18.45,9.854l-1.081-0.577c2.824,1.708,7.75,6.56,12.115,10.751
			l4.984-0.477c-2.41-1.98-4.325-3.316-3.592-2.416c-3.8-3.749-1.41-1.705-1.717-2.513c1.553,1.203,4.256,3.163,6.235,4.841
			l0.319-0.03C-113.978,201.767-114.743,201.449-116.348,199.693z M-142.354,179.509c4.002,1.133,6.966,3.152,7.653,4.284
			c-2.04-1.524-5.213-3.282-8.211-3.961c-1.216-0.317-2.398-0.404-3.322-0.397c0.139-0.105,0.358-0.271,0.682-0.518
			C-144.441,179.013-143.344,179.222-142.354,179.509z M-145.554,178.918c-0.262,0.199-0.514,0.392-0.681,0.518
			c-0.203,0.001-0.395,0.007-0.57,0.017c0.175-0.133,0.43-0.326,0.744-0.566C-145.893,178.896-145.724,178.902-145.554,178.918z
			 M-135.001,170.397c0.007,0.013,0.012,0.021,0.018,0.033c-0.002,0-0.004,0.002-0.006,0.004L-135.001,170.397z M-115.176,127.614
			c1.341-0.949,2.356-1.669,0.804-0.568l0,0l0,0.004l0.001,0.011l0,0.022l0.002,0.046l-0.003,0.089l-0.017,0.18
			c-0.013,0.084-0.017,0.177-0.018,0.274c-0.202,0.142-0.432,0.306-0.683,0.483C-115.126,127.966-115.156,127.786-115.176,127.614z
			 M-117.242,129.64l-0.647-0.091l-0.011-0.003c-0.216,0.153,0.217-0.154,0.881-0.625c0.006,0.003,0.013,0.006,0.017,0.009
			c0.167,0.09,0.199,0.17,0.271,0.268c0.019,0.027,0.039,0.052,0.065,0.077c-0.178,0.127-0.354,0.251-0.524,0.372
			C-117.208,129.645-117.224,129.641-117.242,129.64z M-110.15,157.638c-0.124-0.191-0.247-0.383-0.371-0.573
			c0.049,0.101,0.103,0.202,0.155,0.304c-0.968-1.217-1.206-1.871-0.307-1.221c0.498,0.858,1.026,1.799,1.337,2.421
			C-109.639,158.238-109.912,157.926-110.15,157.638z M-103.23,171.231c0.13-0.451,0.211-0.25,0.274,0.209
			C-103.047,171.372-103.139,171.301-103.23,171.231z M-102.31,171.928c-0.025-0.635-0.092-1.181-0.187-1.673
			c0.355,0.275,0.691,0.524,1.007,0.751c0.027,0.504,0.029,1.015,0,1.529C-101.76,172.337-102.032,172.135-102.31,171.928z
			 M-102.5,168.672c-0.063-0.24-0.132-0.481-0.204-0.723c0.23,0.191,0.467,0.386,0.709,0.583c0.015,0.055,0.027,0.103,0.042,0.156
			c-0.009-0.047-0.016-0.094-0.025-0.142c0.057,0.046,0.113,0.093,0.171,0.138c0.084,0.392,0.154,0.797,0.209,1.212
			c-0.432-0.339-0.854-0.675-1.258-1.004c-0.166-0.506-0.351-0.992-0.538-1.523c0.182,0.153,0.37,0.313,0.563,0.475
			c0.121,0.394,0.234,0.786,0.338,1.179L-102.5,168.672z M-101.792,167.547c0.78,0.655,1.567,1.297,2.333,1.895
			c0.025,0.236,0.045,0.47,0.06,0.702c-0.683-0.428-1.407-0.919-2.153-1.458C-101.623,168.313-101.704,167.933-101.792,167.547z
			 M-101.508,168.924c0.689,0.553,1.411,1.112,2.134,1.654c0.014,0.337,0.017,0.673,0.011,1.007
			c-0.155-0.114-0.31-0.228-0.465-0.337c-0.509-0.377-1-0.754-1.483-1.129C-101.365,169.733-101.433,169.333-101.508,168.924z
			 M-101.075,172.836c-0.012-0.492-0.046-1.034-0.104-1.609c0.828,0.572,1.459,0.92,1.796,0.944
			c-0.009,0.183-0.022,0.365-0.038,0.546c-0.417,0.145-0.83,0.287-1.232,0.426C-100.792,173.042-100.934,172.939-101.075,172.836z
			 M-99.59,173.906c0.008-0.003,0.017-0.006,0.024-0.008c-0.002,0.007-0.003,0.014-0.004,0.022L-99.59,173.906z M-92.561,177.402
			c-0.075-0.265-0.312,0.243-0.16-1.529c-0.032,0.228-0.063,0.455-0.094,0.684l-0.311,1.317l-0.125,0.503
			c-0.216,0.073-0.483,0.166-0.817,0.281l0.004-0.017c0.879-2.787,1.041-5.52,0.795-7.994c-0.002-0.017-0.004-0.034-0.006-0.051
			c0.49-0.17,0.865-0.3,1.081-0.374C-91.881,172.747-91.873,174.445-92.561,177.402z M-100.418,144.519
			c-0.339-0.528-0.674-1.041-1.004-1.543C-98.597,145.855-99.034,145.625-100.418,144.519z M-114.478,130.055
			c-0.004-0.009-0.006-0.016-0.011-0.024c0.027,0.008,0.05,0.016,0.076,0.023C-114.433,130.054-114.457,130.053-114.478,130.055z
			 M-112.539,133.727c-0.456-0.808-0.863-1.581-1.216-2.314c0.201,0.086,0.403,0.177,0.603,0.269
			c0.186,0.362,0.385,0.71,0.591,1.029c-0.121-0.349-0.219-0.642-0.3-0.891c0.214,0.104,0.429,0.207,0.639,0.313
			c0.065,0.117,0.132,0.236,0.199,0.356c0.477,0.822,1.033,1.71,1.359,2.141C-111.334,134.244-111.952,133.956-112.539,133.727z
			 M-110.731,133.89c-0.4-0.306-0.898-0.911-1.381-1.7c0.727,0.371,1.434,0.763,2.105,1.152c0.131,0.303,0.24,0.569,0.322,0.8
			c0.28,0.626,0.514,1.14,1.017,1.83c-0.613-0.469-1.184-0.856-1.72-1.179C-110.414,134.655-110.52,134.37-110.731,133.89z
			 M-111.403,135.657c-0.124-0.203-0.246-0.405-0.367-0.607c1.358,0.641,3.025,1.881,4.265,2.99l-0.031,0.01
			c0.563,0.702,1.238,1.58,1.977,2.57c-0.036,0.043,0.029,0.184,0.221,0.453c0.098,0.081,0.201,0.168,0.302,0.252
			c0.298,0.405,0.605,0.825,0.917,1.26c-1.98-1.939-3.427-3.516-5.462-5.139C-106.799,138.912-109.87,136.848-111.403,135.657z
			 M-98.036,157.446c-1.266-2.555-2.732-5.122-4.195-7.648c-1.418-2.584-3.296-5.275-4.856-7.555c-1.124-1.637-2.208-3.25-3.2-4.799
			c2.021,1.46,4.077,3.249,6.247,5.25c0.367,0.51,0.74,1.033,1.118,1.572c1.901,2.705,3.328,5.351,4.469,7.23l-0.224-0.183
			c3.349,5.366,4.111,7.286,4.877,9.276c0.369,1.026,0.763,2.096,1.25,3.972c0.43,1.875,1.193,4.563,0.925,9.119
			c0.062-2.806-0.419-5.471-1.176-7.862c0.244,1.808,0.46,3.199,0.608,4.403c-0.2,0.068-0.551,0.188-1.082,0.372
			C-93.804,165.625-95.693,161.634-98.036,157.446z M-102.209,167.195c0.13,0.398,0.249,0.822,0.351,1.266
			c-0.052-0.038-0.104-0.076-0.155-0.114c-0.067-0.393-0.137-0.785-0.232-1.184C-102.233,167.173-102.222,167.185-102.209,167.195z
			 M-102.416,167.019c0.108,0.367,0.228,0.796,0.364,1.299c-0.232-0.173-0.465-0.347-0.7-0.528c-0.151-0.5-0.318-1.001-0.512-1.505
			C-102.984,166.528-102.702,166.773-102.416,167.019z M-103.42,166.146c0.205,0.519,0.385,1.034,0.543,1.546
			c-0.185-0.143-0.369-0.287-0.553-0.434c-0.063-0.18-0.125-0.362-0.188-0.554c0.052,0.18,0.097,0.351,0.143,0.518
			c-0.278-0.223-0.557-0.449-0.836-0.68c-0.401-1.086-0.647-1.11-1.288-2.128c-0.048-0.129-0.099-0.258-0.15-0.387
			C-105.044,164.694-104.254,165.414-103.42,166.146z M-105.601,165.479c-0.08-0.068-0.158-0.137-0.237-0.205
			c-0.385-2.058,0.205-0.854,0.891,0.72c-0.219-0.196-0.431-0.384-0.581-0.521C-105.577,165.452-105.571,165.477-105.601,165.479
			l0.669,0.551c0.167,0.385,0.338,0.789,0.502,1.171C-105.149,166.41-106.107,165.396-105.601,165.479z M-104.298,166.577
			c0.261,0.234,0.545,0.481,0.848,0.741c0.138,0.522,0.246,0.972,0.328,1.354c-0.239-0.194-0.477-0.39-0.705-0.578
			c0-0.002-0.001-0.004,0-0.005c0.161,0.052,0.095-0.076-0.085-0.302C-104.062,167.272-104.186,166.884-104.298,166.577z
			 M-105.031,168.183c0.739,0.63,1.454,1.219,2.116,1.743c0.117,1.253-0.318,1.002-0.455,0.855c-0.21-0.139-0.307-0.215-0.392,0.038
			c-0.308-0.241-0.623-0.49-0.94-0.748C-104.788,169.466-104.897,168.828-105.031,168.183z M-166.907,120.729
			c-0.019-0.01-0.033-0.018-0.045-0.022C-166.964,120.672-166.954,120.677-166.907,120.729z M-166.908,120.758
			c-0.012-0.008-0.022-0.015-0.031-0.021l-0.001-0.005c-0.003-0.001-0.008-0.004-0.011-0.004c-0.02-0.015-0.025-0.017-0.018-0.007
			c-0.004-0.003-0.007-0.003-0.011-0.003c0-0.002-0.002-0.004-0.002-0.004s0,0.003,0.002,0.002
			c-0.002,0.001-0.002,0.001-0.002,0.001c-0.009-0.011-0.01-0.015-0.004-0.013c-0.004-0.007-0.001-0.009,0.008-0.003
			c-0.001,0.001-0.006,0-0.006,0.004c0.008,0.005,0.021,0.012,0.042,0.025c0-0.004-0.001-0.005-0.003-0.009
			c0.014,0.008,0.029,0.019,0.046,0.028c-0.013-0.007-0.021-0.009-0.033-0.015c0.018,0.012,0.038,0.022,0.064,0.036
			c0,0.001,0,0.001,0.001,0.002c0.014,0.01,0.031,0.018,0.047,0.027C-166.855,120.784-166.886,120.771-166.908,120.758z
			 M-162.732,121.092c-0.033,0.002-0.066,0.005-0.1,0.009c0.021-0.003,0.039-0.005,0.058-0.007
			C-162.759,121.094-162.747,121.092-162.732,121.092z M-162.992,121.107c-0.009,0.001-0.018,0.002-0.026,0.002
			c-0.023,0.002-0.047,0.003-0.071,0.005C-163.057,121.112-163.024,121.109-162.992,121.107z M-162,121.003c0.001,0,0.001,0,0.001,0
			c0.004-0.001,0.01-0.002,0.016-0.002C-161.986,121.001-161.992,121.003-162,121.003z M-163.55,121.152
			c-0.027,0.001-0.051,0.002-0.076,0.004c-0.017,0-0.036,0.002-0.061,0.003c0.061-0.006,0.124-0.011,0.19-0.016
			C-163.515,121.146-163.533,121.148-163.55,121.152z M-161.972,120.998c-0.009,0.001-0.017,0.004-0.026,0.004
			c0-0.002,0-0.006,0-0.008C-161.977,120.993-161.945,120.992-161.972,120.998z M-166.101,121.053
			c0.04,0.01,0.082,0.018,0.125,0.026c0.038,0.009,0.076,0.014,0.116,0.022c-0.013-0.002-0.025-0.006-0.037-0.009
			c0.078,0.014,0.163,0.027,0.251,0.037c0.011,0,0.021,0.002,0.033,0.001c-0.124-0.014-0.239-0.031-0.347-0.053
			c0.148,0.026,0.316,0.047,0.503,0.063c0.047,0.003,0.094,0.007,0.146,0.012c-0.003,0-0.008-0.002-0.011-0.001
			c0.042,0.004,0.083,0.007,0.125,0.01c0.025,0.002,0.049,0.003,0.073,0.004c-0.003,0-0.005,0-0.009,0
			c0.273,0.017,0.59,0.024,0.956,0.026c-0.037,0.002-0.076,0.006-0.11,0.008c-0.186,0-0.371-0.005-0.548-0.013
			c0.15,0.009,0.307,0.014,0.462,0.015c-0.233,0.007-0.485,0.005-0.715-0.027c-0.101-0.008-0.197-0.015-0.289-0.021
			c-0.063-0.003-0.125-0.008-0.188-0.015c-0.028-0.003-0.057-0.006-0.084-0.01c-0.017,0-0.037-0.002-0.052-0.002
			c0.013,0.002,0.028,0.004,0.042,0.006c-0.019-0.001-0.037-0.006-0.056-0.007c0.004,0,0.009,0,0.014,0.001
			c-0.047-0.007-0.093-0.015-0.139-0.022c0.037,0.006,0.074,0.013,0.112,0.02c-0.075-0.008-0.152-0.016-0.222-0.028
			c-0.073-0.019-0.142-0.035-0.208-0.056C-166.136,121.045-166.119,121.05-166.101,121.053z M-166.787,121.094
			c0.011,0.02,0.022,0.042,0.034,0.063c0.035,0.09,0.068,0.195,0.104,0.317c0.003,0.019,0.007,0.037,0.012,0.056
			C-166.688,121.362-166.739,121.216-166.787,121.094z M-166.467,123.214c0.003-0.041,0.002-0.08,0.006-0.122
			c0,0.019,0,0.035,0,0.053c0.001,0.052,0,0.104,0,0.16C-166.463,123.273-166.465,123.242-166.467,123.214z M-166.467,124.323
			c0,0.023,0,0.045,0,0.07c0.001,0.083-0.004,0.175-0.01,0.272c0,0-0.004,0.001-0.005,0.002c0-0.003,0-0.006-0.001-0.009
			c0,0.004-0.001,0.007,0,0.01c-0.004,0.005-0.008,0.009-0.01,0.012C-166.484,124.57-166.475,124.45-166.467,124.323z
			 M-166.495,124.701c0.002,0.002,0.007,0.002,0.01-0.002c0,0.014,0,0.026,0,0.036c-0.001,0.014-0.003,0.026-0.005,0.039
			c-0.006,0.034-0.013,0.056-0.018,0.062C-166.504,124.793-166.5,124.749-166.495,124.701z M-166.509,124.843
			c0.002,0.001,0.006,0.002,0.011,0.005c-0.013,0.118-0.028,0.239-0.046,0.363C-166.567,125.341-166.54,125.163-166.509,124.843z
			 M-156.958,127.808c0.691,1.13,1.284,2.17,0.942,1.928c-0.668-0.838-1.22-1.611-1.685-2.331
			C-157.454,127.535-157.206,127.671-156.958,127.808z M-160.182,127.835c-0.424-0.249-0.912-0.527-1.434-0.818
			c-0.335-0.593-0.671-1.218-0.985-1.825c0.125,0.051,0.249,0.101,0.374,0.153c0.469,0.188,0.939,0.381,1.411,0.583
			c0.512,0.78,1.11,1.646,1.62,2.496C-159.523,128.224-159.852,128.027-160.182,127.835z M-158.448,128.891
			c-0.688-1.008-1.311-1.936-1.859-2.742c0.369,0.163,0.738,0.331,1.106,0.507c0.106,0.191,0.215,0.384,0.325,0.578
			c-0.078-0.178-0.152-0.354-0.228-0.532c0.251,0.12,0.5,0.242,0.75,0.368c0.003,0.003,0.005,0.008,0.007,0.01
			c-0.002-0.002-0.003-0.006-0.005-0.009c0.191,0.097,0.384,0.195,0.578,0.296c0.728,1.196,1.5,2.423,2.284,3.649
			C-156.566,130.153-157.525,129.482-158.448,128.891z M-158.243,131.646c0.82,0.473,1.537,0.875,2.198,1.238
			c1.777,2.366,4.937,6.823,4.836,7.506C-154.846,135.455-156.532,133.646-158.243,131.646z M-155.401,133.233
			c0.64,0.347,1.243,0.663,1.866,0.982c0.055,0.03,0.109,0.061,0.164,0.09c2.43,3.769,4.663,7.285,5.638,9.649
			C-149.97,140.897-152.79,136.889-155.401,133.233z M-146.063,160.721c-0.699-1.443-1.037-2.25-1.22-2.669
			c0.51,1.062,0.985,2.078,1.432,3.107C-145.937,160.978-145.969,160.916-146.063,160.721z M-158.453,151.137
			c0.681,1.137,1.355,2.273,1.999,3.413C-157.278,153.262-158.073,152.01-158.453,151.137z M-178.986,184.754
			c0.098,0.16,0.186,0.32,0.279,0.481c-0.037-0.019-0.073-0.038-0.11-0.057C-178.872,185.038-178.929,184.899-178.986,184.754z
			 M-194.967,183.443c0,0.001,0.002,0.002,0.002,0.002c0.001,0.001,0.001,0.002,0.001,0.002l0,0l0,0
			c0.008,0.013,0.021,0.032,0.041,0.063c0.009,0.02,0.017,0.042,0.029,0.065C-194.966,183.477-195.009,183.433-194.967,183.443z
			 M-194.962,183.449c0.003,0.002,0.007,0.005,0.014,0.009c-0.001,0.001,0,0.004,0.002,0.006c-0.002-0.001-0.003-0.004-0.006-0.006
			C-194.957,183.453-194.959,183.451-194.962,183.449z M-194.129,183.81c-0.042-0.013-0.085-0.024-0.124-0.037
			c-0.161-0.045-0.292-0.096-0.392-0.143c-0.003-0.001-0.007-0.002-0.011-0.004c-0.03-0.015-0.054-0.027-0.08-0.042
			c-0.006-0.005-0.011-0.01-0.016-0.015c0.044,0.022,0.096,0.047,0.155,0.07c-0.074-0.036-0.138-0.07-0.188-0.099
			c-0.015-0.013-0.032-0.028-0.046-0.039c0.125,0.058,0.334,0.154,0.668,0.294c0.018,0.005,0.037,0.01,0.056,0.015
			c-0.017-0.004-0.031-0.008-0.047-0.011C-194.145,183.804-194.137,183.806-194.129,183.81z M-194.016,183.836
			c0.059,0.016,0.122,0.03,0.188,0.045c-0.044-0.01-0.096-0.018-0.138-0.026C-193.983,183.847-194.001,183.842-194.016,183.836z
			 M-193.537,183.941c-0.017-0.002-0.033-0.004-0.048-0.007c0.02,0.003,0.038,0.005,0.057,0.008
			C-193.531,183.941-193.533,183.942-193.537,183.941z M-193.341,183.967c-0.019-0.003-0.034-0.006-0.053-0.009
			c0.09,0.013,0.184,0.024,0.283,0.034c0.047,0.007,0.104,0.013,0.157,0.019c-0.06-0.006-0.118-0.01-0.174-0.018
			C-193.171,183.985-193.247,183.978-193.341,183.967z M-193.096,184.002c0,0,0-0.001-0.001-0.002
			c0.105,0.01,0.218,0.022,0.335,0.032C-192.875,184.024-192.988,184.015-193.096,184.002z M-194.394,186.345
			c0.001-0.139,0-0.272-0.004-0.401c0,0.022,0,0.042,0,0.065c-0.009,0.179,0.008-0.055-0.025-0.486l0.005,0.002
			c-0.011-0.147-0.024-0.287-0.042-0.42c0.003,0.038,0.006,0.077,0.008,0.115c-0.026-0.232-0.066-0.496-0.128-0.773
			c0-0.008-0.001-0.013-0.002-0.02c0.019,0.076,0.037,0.16,0.055,0.245c-0.018-0.098-0.038-0.188-0.058-0.273
			c0-0.009-0.001-0.018-0.002-0.026c0.018,0.063,0.033,0.129,0.05,0.195c0.014,0.069,0.024,0.146,0.037,0.22
			c-0.01-0.042-0.017-0.076-0.026-0.115c0.024,0.134,0.048,0.279,0.067,0.433c-0.009-0.102-0.02-0.201-0.041-0.31
			c0.006,0.042,0.014,0.077,0.02,0.12c0.013,0.043,0.025,0.094,0.036,0.146c0.021,0.148,0.036,0.308,0.044,0.474l0.01,0.006
			c0-0.002,0.002,0,0.002,0c0.031,0.524-0.002,1.205-0.053,1.849C-194.425,186.99-194.411,186.636-194.394,186.345z
			 M-191.815,184.066c0.399,0,0.796-0.015,1.109-0.039c-0.001,0.002-0.002,0.005-0.003,0.007
			C-191.088,184.063-191.463,184.069-191.815,184.066z M-190.785,184.965c0.002,0.072,0.005,0.146,0.01,0.222
			C-190.783,185.099-190.787,185.027-190.785,184.965z M-192.215,188.943c-0.035-0.073-0.073-0.146-0.108-0.217
			c-0.212-0.819-0.463-1.737-0.642-2.697c-0.006-0.026-0.009-0.051-0.013-0.077c0.408,0.149,0.857,0.337,1.343,0.557
			c0.189,0.504,0.403,1.044,0.624,1.594c-0.439-0.576-0.857-1.149-1.235-1.715c0.414,0.963,0.92,1.943,1.482,2.934
			c-0.442-0.242-0.91-0.485-1.451-0.74c0.583,0.393,2.099,1.294,1.608,1.281C-191.144,189.538-191.697,189.215-192.215,188.943z
			 M-190.842,186.883c0.102,0.05,0.204,0.099,0.309,0.15c0.099,0.297,0.205,0.597,0.318,0.901
			C-190.43,187.632-190.642,187.267-190.842,186.883z M-184.669,196.832c-1.935-2.482-3.156-5.632-2.28-3.046
			c-0.406-0.598-0.738-1.114-1.018-1.567c0.381,0.221,0.765,0.448,1.149,0.681C-185.895,194.509-185.023,196.048-184.669,196.832z
			 M-185.811,192.218c-0.428-0.237-0.813-0.455-1.171-0.661c-0.078-0.154-0.153-0.308-0.228-0.458
			C-186.712,191.486-185.841,192.104-185.811,192.218z M-188.094,190.67c0.065,0.117,0.134,0.234,0.201,0.354
			c-0.394-0.236-0.754-0.453-1.091-0.658c-0.293-0.639-0.407-1.062-0.517-1.457c-0.104-0.467-0.26-0.938-0.567-1.644
			c0.211,0.106,0.425,0.218,0.643,0.33C-189.363,188.089-188.854,189.263-188.094,190.67z M-170.809,193.612
			c0.049,0.134,0.098,0.274,0.149,0.428c-0.108,0.026-0.203,0.032-0.291,0.029c-0.011,0.029-0.022,0.06-0.038,0.092
			c-0.012-0.031-0.027-0.068-0.04-0.101c-0.1-0.012-0.192-0.035-0.274-0.075c0.066-0.051,0.128-0.098,0.188-0.143
			c-0.026-0.07-0.053-0.137-0.082-0.21c0.083,0.026,0.159,0.06,0.212,0.112C-170.922,193.698-170.863,193.654-170.809,193.612z
			 M-171.333,193.591c-0.094,0.071-0.184,0.14-0.269,0.204c-0.176-0.134-0.351-0.281-0.579-0.377
			c0.042,0.126,0.086,0.249,0.127,0.377l0.089,0.272c-2.432,1.833,0.344-0.263-0.762,0.57l-0.005-0.018l-0.045-0.137l-0.088-0.275
			l-0.158-0.488c0.188-0.143,0.386-0.291,0.6-0.452c-0.305-0.194-0.619-0.4-0.94-0.614c-0.158-0.492-0.313-0.977-0.468-1.449
			c0.564,0.422,0.538,0.599,0.574,0.813c0.033,0.171,0.104,0.376,0.603,0.74c0.091,0.066,0.203,0.144,0.325,0.223
			c0.02,0.058,0.04,0.116,0.058,0.174c0.033-0.024,0.065-0.049,0.098-0.072c0.178,0.111,0.385,0.235,0.627,0.372
			C-171.515,193.524-171.43,193.56-171.333,193.591z M-171.24,193.519c-0.068-0.173-0.142-0.354-0.22-0.547
			c0.014-0.593,0.164-0.516,0.396-0.001c0.042,0.091,0.086,0.2,0.131,0.315C-171.039,193.368-171.143,193.446-171.24,193.519z
			 M-170.338,192.03l0.494,0.295l0.061,0.037l0.031,0.019l0.007,0.005l0.004,0.003c-0.284,0.215-0.537,0.405-0.777,0.586
			l-0.131-0.079l-0.714-0.427c0.245-0.186,0.503-0.38,0.776-0.585C-170.505,191.932-170.422,191.981-170.338,192.03z
			 M-172.263,190.894c0.086,0.461,0.143,0.846,0.165,1.139c-0.242-0.144-0.484-0.285-0.729-0.428
			c-0.185-0.469-0.348-0.922-0.579-1.365c0.25,0.58,0.407,0.995,0.576,1.362c-0.353-0.205-0.709-0.407-1.069-0.606
			c-0.008-0.024-0.016-0.05-0.023-0.074c-0.156-0.418-0.312-0.821-0.465-1.207C-173.83,189.988-173.096,190.406-172.263,190.894z
			 M-175.489,189.403c0.027-0.024,0.072-0.032,0.126-0.034C-175.313,189.444-175.349,189.461-175.489,189.403z M-176.382,190.534
			c-0.74-0.538-1.423-1.048-1.986-1.473c1.794,1.018,0.474-0.132,1.004-0.031c-5.13-2.994-3.05-1.036,0.383,1.424
			c-1.99-1.146-3.985-2.277-6.003-3.342l0.573,0.361c-2.04-1.153-4.057-2.266-6.123-3.163c-0.539-0.903-0.554-1.341,1.13-0.382
			c-1.066-0.647-2.117-1.334-3.256-1.896c1.812,0.65,3.542,1.447,5.243,2.314c-1.88-1.495-5.565-3.154-8.781-3.407
			c-1.966-0.019,0.455-0.646,3.232,0.269c2.788,0.813,6.076,2.398,7.856,3c1.458,0.626,3.484,1.916,5.101,3.059
			c0.335,0.773,0.66,1.524,0.966,2.235c-0.254-0.627-0.559-1.357-0.904-2.191c0.167,0.117,0.328,0.233,0.482,0.346
			C-177.048,188.6-176.695,189.557-176.382,190.534z M-175.641,186.793c-0.048-0.116-0.094-0.229-0.139-0.339
			c0.667,0.405,1.377,0.838,2.143,1.302C-174.333,187.434-174.996,187.111-175.641,186.793z M-173.232,187.135
			c-0.504-0.314-1.026-0.634-1.574-0.956c0.512,0.279,1.024,0.558,1.536,0.834C-173.257,187.055-173.244,187.094-173.232,187.135z
			 M-186.261,165.559c-0.478-1.186-1.046-2.267-1.649-3.473c1.096,1.426,3.254,4.073,2.74,4.281
			c0.261-0.076,2.082,2.069-0.813-2.228c0.786,1.005,1.587,2.078,2.382,3.115c-0.057-0.217-0.169-0.503-0.316-0.818
			c0.633,0.975,1.254,1.99,1.874,2.998c0.613,1.356,1.933,3.692,2.66,5.894c-0.052,0.223-1.298-1.892-2.041-3.075
			c1.531,3.189,3.055,5.933,4.029,7.712c-2.361-5.003-0.827-2.469-0.963-3.765c1.845,2.908,3.931,8.09,4.81,9.959
			c0.063,0.183,0.122,0.363,0.18,0.545c-1.053-0.705-2.085-1.37-3.109-2.009c-2.021-5.289-0.805-4.241-4.379-10.571
			c0.365,0.941,0.713,1.888,1.028,2.844c-3.658-6.344-5.243-9.188-9.678-15.935C-189.651,159.906-187.358,164.249-186.261,165.559z
			 M-188.125,160.319c-0.611-0.479-0.271,0.613-2.775-3.461c0.31,0.224,0.217-0.087-0.068-0.655
			C-190.058,157.589-189.102,158.962-188.125,160.319z M-184.298,152.419c-0.01-0.004-0.024-0.01-0.035-0.012
			c-0.012-0.016-0.025-0.031-0.039-0.047C-184.347,152.381-184.323,152.398-184.298,152.419z M-192.15,149.874
			c-0.007,0.07-0.014,0.142-0.022,0.21l-0.077-0.429C-192.217,149.729-192.184,149.802-192.15,149.874z M-187.106,145.703
			c-0.073-0.213-0.125-0.386-0.155-0.511l-0.034-0.124c-0.004,0.001-0.012,0.003-0.028,0.006c-0.306,0.054-0.611,0.095-0.919,0.128
			c-0.804-0.332-1.613-0.615-2.427-0.83c-0.881-0.213-1.761-0.279-2.394-0.11c-0.545,0.178-0.62,0.283-0.712,1.08
			c0.005,1.577,0.843,3.573,1.709,5.35l-0.06-0.339c0.009-0.007,0.019-0.012,0.027-0.006c0.045-0.008,0.101-0.012,0.161-0.015
			c0.975,1.994,2.196,3.417,2.611,4.686c0.004,0.084-2.23-2.367-4.222-5.625c-0.877-1.629-2.09-3.521-1.466-5.537
			c1.114-2.022,3.467-1.713,4.427-1.703c5.376,1.157,9.895,4.469,12.504,6.257l-1.392-0.797c-5.111-3.307-8.866-4.844-11.18-5.142
			c-2.358-0.238-2.87,0.367-2.162,0.358c1.463-0.191,6.997,2.307,12.582,6.883C-182.432,148.297-184.739,146.814-187.106,145.703z
			 M-192.135,149.609c0-0.007,0.002-0.015,0.003-0.024C-192.133,149.593-192.132,149.602-192.135,149.609
			C-192.135,149.608-192.135,149.609-192.135,149.609z M-192.136,148.21c-0.025-0.434-0.069-0.815-0.12-1.131
			c0.011,0.055,0.019,0.11,0.028,0.167c0.008,0.052,0.011,0.079,0.014,0.08c0.039,0.264,0.072,0.554,0.077,0.839
			C-192.137,148.18-192.136,148.196-192.136,148.21z M-191.946,145.265c0.133,0.021,0.277,0.042,0.431,0.059
			c-0.053-0.002-0.107-0.006-0.159-0.009c0.052,0.006,0.116,0.013,0.184,0.019c-0.02,0.001-0.034,0.001-0.039,0.002
			c-0.015-0.002-0.03-0.003-0.043-0.004c-0.083-0.008-0.158-0.017-0.233-0.027c-0.022-0.002-0.044-0.004-0.066-0.007
			c-0.019-0.003-0.036-0.007-0.047-0.01c-0.308-0.05-0.545-0.119-0.725-0.185c0.177,0.056,0.401,0.11,0.676,0.157
			C-191.972,145.257-191.966,145.258-191.946,145.265z M-192.704,145.514l0.046,0.146l0.003,0.01
			c-0.06-0.163-0.107-0.281-0.147-0.369C-192.76,145.375-192.72,145.454-192.704,145.514z M-188.702,145.249
			c-0.115,0.021-0.227,0.036-0.338,0.051c-0.001,0.001-0.003,0.001-0.004,0.005c-0.025,0.003-0.05,0.005-0.076,0.007
			c0.027-0.002,0.055-0.008,0.081-0.012c0.001-0.002,0.002-0.006,0.004-0.004c-0.041,0.009-0.087,0.015-0.138,0.021
			c-0.001,0-0.003,0-0.004,0.001l-0.008,0.001c-0.026,0.002-0.053,0.004-0.079,0.006c-0.154,0.014-0.304,0.024-0.452,0.032
			C-189.399,145.336-189.06,145.302-188.702,145.249z M-188.667,145.244c0.053-0.007,0.169-0.016,0.319-0.03
			c-0.062,0.011-0.123,0.018-0.183,0.025C-188.563,145.24-188.605,145.241-188.667,145.244z M-188.239,145.203
			c0.034-0.004,0.068-0.008,0.106-0.011l-0.042,0.029c-0.002,0.001-0.002,0.004-0.005,0.006
			C-188.2,145.219-188.219,145.211-188.239,145.203z M-192.95,145.053c-0.029-0.037-0.059-0.072-0.093-0.113
			c0.003,0.001,0.005,0.003,0.007,0.003c0.021,0.023,0.046,0.055,0.082,0.1C-192.956,145.043-192.952,145.048-192.95,145.053z
			 M-146.796,163.069c0.095,0.219,0.19,0.437,0.283,0.656c-0.336-0.191-0.718-0.418-1.163-0.694
			C-151.169,160.748-148.075,162.48-146.796,163.069z M-153.087,160.909c0.142,0.274,0.278,0.532,0.406,0.774l-3.483-2.54
			C-154.608,160.04-153.693,160.563-153.087,160.909z M-158.309,160.558c-4.36-3.035-4.863-1.493-8.373-4.897
			c-0.855-0.149,0.081,0.771,1.613,1.851c-0.581-0.269-0.937-0.412-1.048-0.375c-1.578-1.11-3.045-2.229-4.424-3.247
			c-1.216-0.952-2.3-1.809-1.871-1.697c0.693-0.316,6.043,3.645,7.839,4.122C-163.118,157.018-156.63,161.085-158.309,160.558z
			 M-155.965,160.74c0.492,0.086-0.418-1,3.434,1.22c0.359,0.657,0.669,1.191,0.941,1.619
			C-152.686,162.937-154.082,162.04-155.965,160.74z M-146.855,165.776c-1.057-1.08-2.139-2.115-3.242-3.113
			c0.584,0.351,1.372,0.821,2.485,1.486c0.616,0.232,1.091,0.391,1.482,0.503c0.243,0.599,0.476,1.197,0.698,1.796
			C-145.981,166.16-146.438,165.952-146.855,165.776z M-145.278,178.289c0.085-0.063,0.169-0.129,0.26-0.198l-0.021-0.009
			c0.776-0.589,6.286-4.782,9.325-7.094l0.003,0.009l0.002,0.008l0.003,0.004l0.001,0.002c1.275-0.971-6.053,4.604-9.571,7.278
			C-145.276,178.289-145.276,178.289-145.278,178.289z M-144.818,178.355C-144.312,177.972-144.456,178.082-144.818,178.355
			L-144.818,178.355z M-172.423,193.268c0.073,0.047,0.146,0.095,0.217,0.139c0.009,0.003,0.017,0.009,0.024,0.012
			c-0.03-0.088-0.061-0.176-0.09-0.265C-172.321,193.192-172.375,193.231-172.423,193.268z M-177.487,188.56
			c-1.863-1.258-3.396-2.227-5.246-3.176C-182.016,185.886-177.358,189.023-177.487,188.56z M-61.256,102.476
			c1.773,2.479,5.446,8.321,6.856,9.586c-1.165-1.162-3.786-5.762-5.021-7.053l0.21,0.137
			C-59.888,104.242-60.564,103.345-61.256,102.476z M-194.596,183.64c0.017,0.01,0.028,0.016,0.045,0.024
			c0.087,0.038,0.188,0.073,0.299,0.108c0.03,0.01,0.066,0.018,0.1,0.027c-0.003-0.002-0.005-0.004-0.009-0.004
			C-194.335,183.744-194.48,183.689-194.596,183.64z M-188.641,138.015c0.326,0.038,0.848,0.099,1.576,0.275
			C-187.873,138.096-188.374,138.043-188.641,138.015z M-191.918,145.287c0.035,0.005,0.076,0.011,0.113,0.017
			c0.043,0.003,0.086,0.007,0.13,0.011c-0.152-0.021-0.235-0.042-0.272-0.05c-0.007-0.002-0.014-0.003-0.021-0.005
			c0.004,0.003,0.01,0.006,0.019,0.013C-191.945,145.277-191.934,145.282-191.918,145.287z M-199.105,149.362
			c-0.39-1.411-0.976-2.835-0.592-5.531c0.151-1.278,1.125-3.247,2.6-4.282c1.506-1.098,2.822-1.341,3.833-1.464
			c-1.606-0.001-3.103,0.262-4.904,2.146c-0.859,0.955-1.511,2.374-1.705,3.826c-0.175,1.4-0.021,2.748,0.273,4.1
			c-0.309-0.981-0.648-2.069-0.562-3.791c-0.035-1.591,1.136-4.486,3.346-5.776c-2.804,1.581-3.699,4.953-3.587,6.346
			c0.004,1.594,0.308,2.558,0.545,3.232C-199.351,149.509-198.977,149.916-199.105,149.362z M-54.011,112.376
			c-0.083-0.026-0.218-0.146-0.389-0.314C-54.236,112.234-54.104,112.345-54.011,112.376z M-195.512,197.433
			c-1.394-1.926-3.632-5.547-5.011-9.515c-0.528-1.978-1.54-4.421,0.201-7.854c0.967-1.639,2.405-2.383,3.08-2.711
			c0.687-0.306,0.979-0.434,0.696-0.448c-1.244,0.243-3.104,1.277-4.074,2.848c-0.986,1.537-1.148,2.92-1.196,3.915
			c-0.037,2.04,0.37,3.31,0.723,4.468c0.76,2.237,1.639,3.755,2.207,4.639l-0.648-1.615
			C-198.291,193.451-196.911,195.533-195.512,197.433z M-188.788,138.015c0.04-0.002,0.082-0.004,0.146,0
			C-188.726,138.006-188.755,138.011-188.788,138.015z M-197.928,189.214c-0.022-0.1-0.043-0.19-0.083-0.341L-197.928,189.214z
			 M-74.888,191.679c-0.112,0.716-0.174,1.43-0.192,2.139c0.012,0.157,0.033,0.301,0.054,0.416
			C-74.961,193.802-74.956,192.404-74.888,191.679z M-166.942,120.731c0,0.001,0,0.001,0.001,0.001
			c0.003,0.001,0.005,0.003,0.008,0.004C-166.936,120.735-166.94,120.733-166.942,120.731z M-10.002,183.7
			c-0.327-0.433-0.682-0.992-1.035-1.551C-10.411,183.206-9.868,184.142-10.002,183.7z M-25.194,166.64L-25.194,166.64
			C-25.231,166.695-25.222,166.682-25.194,166.64z M-20.255,173.265l0.005,0.011C-20.202,173.347-20.213,173.329-20.255,173.265z
			 M-22.024,172.167c0.035,0.06,0.078,0.128,0.1,0.165l0.123,0.014L-22.024,172.167z M-23.65,163.508h0.001
			C-23.465,163.221-23.494,163.266-23.65,163.508z M-23.895,167.029c0.222-0.345,0.445-0.692,0.653-1.015
			c-0.011-0.015-0.019-0.028-0.028-0.043c-0.259,0.403-0.481,0.747-0.672,1.045L-23.895,167.029z M-166.987,120.705
			c0.001,0.003,0.001,0.005,0.004,0.01c-0.001-0.002-0.003-0.007-0.002-0.009L-166.987,120.705z M-92.721,175.873
			c0.092-0.664,0.185-1.325,0.218-1.984C-92.61,174.756-92.68,175.396-92.721,175.873z M-23.965,164.003l0.006,0.002l0.012,0.003
			l0.023,0.006l0.047,0.013l0.093,0.023l0.023,0.008c-0.034,0.053-0.118,0.183-0.232,0.358h0.001
			c0.129-0.199,0.203-0.313,0.231-0.359l0.162,0.042l0.374,0.096c0.495,0.132,0.997,0.234,1.489,0.374
			c0.977,0.298,1.97,0.54,2.954,0.823c-1.414-0.744-2.935-1.313-4.495-1.776c0.146,0.011,0.523,0.084,0.82,0.134l-0.792-0.161
			l-0.382-0.076l-0.019-0.004c-0.073,0.112-0.175,0.271-0.318,0.495H-23.965z M-27.306,168.156L-27.306,168.156
			C-27.677,168.733-27.525,168.496-27.306,168.156z M-8.883,188.269c0.601,1.28,1.111,2.131,1.765,4.537
			c-1.757-4.356-3.708-8.77-5.583-13.151c0.149,0.123,0.423,0.514,0.721,0.972c-1.526-2.539-3.302-5.717-5.111-8.668
			c4.074,2.318,6.118,3.682,9.753,7.181c-0.854-1.234-3.355-4.06-5.979-6.155c-1.959-1.58-3.976-2.655-4.981-2.957
			c-0.123-0.193-0.248-0.387-0.369-0.575c1.336,0.64,2.505,1.267,3.552,1.707c-1.199-0.858-2.568-1.688-4.006-2.394
			c-0.352-0.525-0.7-1.037-1.041-1.514c-0.427-0.61-0.86-1.173-1.262-1.683c0.077,0.02,0.161,0.042,0.254,0.067
			c-0.086-0.025-0.173-0.05-0.26-0.075c-0.017-0.021-0.034-0.044-0.05-0.064c-0.218-0.263-0.428-0.513-0.628-0.743l-0.024-0.026
			c0.02-0.028-0.002-0.069-0.074-0.126c0,0.01-0.008,0.017-0.016,0.022l-0.036-0.04l-0.018-0.021l-0.009-0.011l-0.004-0.005
			l-0.003-0.002c0.075-0.117,0.037-0.058-0.075,0.115l0.001-0.001l-0.001,0.001l0,0l-0.022-0.04l-0.002-0.002l-0.001-0.003h0
			c-0.011,0.016-0.019,0.029-0.03,0.045c-0.201-0.003-0.527-0.049-0.928-0.121l-0.534-0.102l-0.104-0.021
			c-0.025,0.039-0.049,0.077-0.078,0.122l0.001,0.001h0.004l0.014,0.002l0.055,0.01l0.11,0.02c0.572,0.1,1.071,0.176,1.391,0.196
			c-0.099,0.154-0.198,0.305-0.289,0.448c-0.093-0.019-0.185-0.042-0.277-0.058l-0.636-0.135l-0.318-0.065l-0.08-0.017l-0.04-0.008
			l-0.011-0.003c-2.151,3.342-0.596,0.928-1.076,1.673l0.001,0.002l0,0.001l0.003,0.004l0.012,0.016l0.01,0.015
			c0.074-0.114,0.336-0.523,1.029-1.6h0.002l0.003,0.001l0.011,0.004l0.098,0.027l0.771,0.222c-0.075,0.117-0.148,0.229-0.216,0.336
			l0.125,0.188c0.034,0.052,0.068,0.103,0.102,0.153c0.091-0.14,0.188-0.289,0.285-0.443l-0.123-0.183l0.203,0.058
			c-0.027,0.043-0.052,0.083-0.08,0.125l0.028,0.042c0.034-0.052,0.066-0.104,0.099-0.152l0.348,0.1
			c0.176-0.017,0.205-0.1,0.522-0.063l0.344,0.452l-0.099-0.176c-0.072-0.088-0.154-0.189-0.226-0.274
			c0.023,0.002,0.046,0.006,0.072,0.009l0.154,0.266c0.55,0.629,1.276,1.68,1.898,2.691c-0.554-0.252-1.114-0.483-1.677-0.688
			c-0.478-0.729-0.951-1.446-1.42-2.146l-0.014-0.02c-0.09,0.14-0.187,0.288-0.285,0.444c0.172,0.259,0.342,0.513,0.497,0.762
			c0.155,0.238,0.302,0.467,0.445,0.693c-0.5-0.162-1-0.303-1.495-0.416l-0.101-0.024c-0.092,0.142-0.183,0.284-0.273,0.422
			l0.179,0.046l1.012,0.254c0.372,0.112,0.731,0.235,1.085,0.358c0.088,0.14,0.174,0.275,0.258,0.409
			c0.54,0.852,1.001,1.563,1.366,2.078c-0.722-0.271-1.448-0.506-2.185-0.678l0.319,0.166c0.656,0.172,1.306,0.391,1.953,0.634
			c0.06,0.083,0.118,0.161,0.171,0.231c-0.04-0.071-0.084-0.143-0.126-0.214c0.224,0.085,0.448,0.171,0.672,0.263
			c0.969,1.338,1.913,2.695,2.833,4.069c-0.065,0.442,3.981,7.256,3.385,7.369c-1.468-2.864-2.82-5.474-4.074-7.653
			c0.13,0.613,3.911,7.654,5.161,10.813c-0.523-1.322-1.061-2.64-1.625-3.945c1.892,3.373,3.724,7.39,5.272,11.507l1.825-0.175
			C-7.485,191.171-8.791,188.058-8.883,188.269z M-22.024,165.394c-0.017-0.019-0.034-0.039-0.047-0.053l0.037,0.05
			c-0.231-0.062-0.465-0.116-0.698-0.166c0.115-0.179,0.215-0.334,0.293-0.454c0.052,0.002,0.098,0.001,0.139,0.001l0.087,0.152
			l0.291,0.496C-21.957,165.411-21.991,165.403-22.024,165.394z M-22.069,167.542c-0.019-0.029-0.037-0.061-0.056-0.091
			c0.025,0.033,0.05,0.065,0.074,0.098C-22.057,167.546-22.063,167.544-22.069,167.542z M-20.205,170.619
			c-0.476-0.816-0.967-1.627-1.468-2.434c0.05,0.018,0.098,0.033,0.147,0.05c0.668,0.872,1.325,1.751,1.97,2.639
			C-19.771,170.786-19.989,170.701-20.205,170.619z M-20.255,169.656c-0.283-0.426-0.561-0.851-0.837-1.271l0.008,0.004
			c0.572,0.224,1.115,0.46,1.635,0.696c0.341,0.59,0.619,1.126,0.769,1.501c-1.505-2.327-0.79-0.744-0.566,0.024
			c-0.069,0.003-0.134,0.011-0.197,0.022c0.08,0.047,0.158,0.09,0.238,0.135C-19.127,171.131-19.288,171.089-20.255,169.656z
			 M-18.126,170.292c1.833,0.702,3.287,1.466,5.906,3.648c0.399,1.272-2.948-1.7-5.425-2.878
			C-17.806,170.805-17.966,170.546-18.126,170.292z M-24.409,167.741l-0.213-0.358c0.117-0.181,0.261-0.403,0.025-0.038l0.009,0.002
			l0.016,0.004l0.065,0.017l0.292,0.073c0.083-0.129,0.174-0.27,0.272-0.424l-0.383-0.098c-0.139,0.217-0.234,0.365-0.297,0.463
			l-0.172-0.29l-0.196-0.324l-0.098-0.163l-0.024-0.04l-0.013-0.021l-0.003-0.005c0.199-0.311,0.007-0.011-0.065,0.101l0.079,0.109
			l0.473,0.664c-0.137,0.214-0.082,0.13,0.001,0L-24.409,167.741c-0.077,0.123-0.149,0.232-0.209,0.327l-0.516-0.694l-0.264-0.348
			l-0.129-0.168l-0.016-0.021l-0.004-0.005c-0.207,0.321,1.014-1.575,1.555-2.416l-0.038-0.007l-0.013-0.003
			c-0.72,1.116,1.607-2.5-1.614,2.504l0.002,0.001l0.009,0.013l0.019,0.027l0.04,0.056l0.16,0.222l0.649,0.926
			c0.018,0.027,0.036,0.052,0.054,0.078c-0.506,0.786-0.213,0.329,0,0.001l0,0c-0.019,0.028-0.037,0.058-0.06,0.092l0.006,0.002
			l0.012,0.004l0.024,0.008l0.004,0.002c0.014-0.021,0.028-0.044,0.042-0.066c0.023,0.035,0.048,0.068,0.071,0.104l-0.068-0.022
			l-0.044-0.015c-0.093,0.145-0.18,0.28-0.257,0.399c-0.211-0.341-0.42-0.681-0.631-1.018l-0.366-0.576
			c-0.317,0.489,1.79-2.782,2.342-3.639l-0.167-0.033l-0.046-0.009h-0.002h-0.001c-5.141,7.982-1.425,2.213-2.572,3.995l0.003,0.004
			l0.006,0.008l0.011,0.017l0.048,0.064c0.252,0.342,0.493,0.652,0.705,0.937c0.165,0.225,0.316,0.423,0.45,0.593
			c-0.178,0.274-0.207,0.322,0,0c0.207,0.264,0.372,0.455,0.478,0.556c3.679,5.328,4.485,8.749,4.734,9.775
			c1.235,2.766-1.095-0.655-1.225-0.173c2.319,4.25,2.74,3.734,4.87,8.104c0.449,1.19,0.18,0.849-0.1,0.357
			c0.517,0.945,1.029,1.895,1.519,2.854c-0.004,0.1,0.563,1.762,0.986,3.123l3.367-0.321c-0.746-2.058-1.598-4.087-2.66-6.058
			c0.194,0.187,0.504,0.794,0.076-0.233c-2.95-6.792-5.195-8.933-7.718-14.296l0.634,0.494c-0.267-0.436-2.281-3.3-2.214-2.524
			c2.622,4.191,3.181,4.967,5.155,8.936c-1.064-1.499-3.131-4.861-4.61-7.344l-0.624-0.005c-0.928-1.129-1.693-2.363-2.447-3.587
			c0.056-0.086,0.12-0.186,0.19-0.294l0.046,0.004l0.093,0.008l0.099,0.006c0.735,1.08,1.257,1.865,0.885,0.855
			c-0.179-0.228-0.398-0.521-0.633-0.84h0.005l-0.006-0.002c-0.089-0.12-0.181-0.244-0.272-0.369
			c0.133-0.207,0.274-0.427,0.421-0.657l-0.046-0.011C-24.285,167.549-24.35,167.649-24.409,167.741z M-103.618,166.705
			c-0.091-0.329-0.212-0.627-0.364-1.023C-103.85,166.058-103.707,166.398-103.618,166.705z M-23.576,165.51l-0.021-0.032
			l-0.004-0.008l-0.002-0.004c-1.81,2.811-0.5,0.779-0.902,1.406l0.016,0.005l0.139,0.034l0.026,0.008
			c0.188-0.292,0.456-0.709,0.829-1.289l-0.038-0.06L-23.576,165.51z M-27.239,168.249l0.22,0.308l0.444,0.63
			c0.597,0.87,1.217,1.812,1.853,2.893c-0.465-0.815-0.941-1.621-1.425-2.406c-0.243-0.393-0.483-0.789-0.73-1.162l-0.276-0.427
			l-0.044-0.07l-0.006-0.01l-0.001-0.001c0.62-0.967,0.198-0.311-0.101,0.153l0.011,0.017L-27.239,168.249z M-40.076,167.801
			c-0.747-1.531-1.634-3.194-2.829-5.092C-41.894,164.339-40.957,166.051-40.076,167.801z M-38.263,172.061l0.02-0.161
			c-0.566-1.395-1.175-2.764-1.833-4.099C-39.366,169.288-38.789,170.662-38.263,172.061z M-35.033,184.925l0.056,0.516l0.028,0.259
			l0.001,0.017l0.001,0.007v0.003c-4.183,3.727-6.255,5.574-7.177,6.396l0.015,0.006h0.001c14.363-12.797,3.981-3.548,7.187-6.405h0
			l0-0.003l0-0.005l0-0.009l0-0.021l0-0.037l0.001-0.311v-0.622l-0.002-1.247c-0.155-0.549-0.353-1.089-0.528-1.628
			c0.107,0.687,0.239,1.366,0.302,2.055L-35.033,184.925z M-38.12,170.582l-0.123,1.317c0.741,1.924,1.427,3.881,1.933,5.902
			C-36.156,177.089-35.674,176.044-38.12,170.582z M-63.247,184.565c-1.29-0.805-2.606-1.912-5.682-2.474
			c-1.415-0.114-2.641-0.169-4.399,0.424c-1.668,0.538-3.216,1.817-4.163,3.159c-1.713,2.665-1.852,4.747-2.067,6.512
			c-0.152,1.778-0.135,3.361-0.111,4.836c0.021,1.059,0.054,2.06,0.057,2.928l4.754-0.454c-0.093-1.704-0.28-3.67-0.222-5.679
			c-0.168-1.338-0.245-5.296,2.325-6.688c-0.236,0.242-0.392,0.523-0.499,0.825c0.323-0.332,1.902-1.397,4.048-0.832
			c2.091,0.605,4.101,2.409,6.104,4.308c-0.567-0.414-1.189-0.854-1.88-1.285c-1.081-0.642-2.308-1.506-3.756-2.027
			c0.831,0.33,1.76,0.973,2.777,1.947c-1.308-0.832-2.834-1.619-3.964-1.58c-1.408,0.095-1.829,0.678-2.141,1.765
			c1.13-1.948,3.012-2.566,7.223,1.341c-0.359,0.105-0.526,0.27-1.209-0.042c-0.551-0.156-2.201-1.476-3.893-1.746
			c-2.173,0.033-0.016-0.476-1.201-0.524c-0.687,1.375-2.086,3.306-1.192,7.446c0.037,1.104,0.046,1.917,0.036,2.527l1.107-0.106
			c0.116-2.722,0.15-5.249,0.653-7.128c-0.039,0.491-0.068,1.028-0.05,1.63c0.016-0.348,0.074-0.684,0.148-0.994
			c0.128,0.117,0.334,0.297,0.521,0.547c0.091,0.036,0.19,0.081,0.294,0.132c-0.067,0.422-0.142,0.628-0.176,0.199
			c0.128,2.394,0.208,1.264,0.322-0.005c0.005-0.04,0.009-0.077,0.013-0.115c0.104,0.055,0.212,0.116,0.326,0.183
			c-0.038,0.718-0.014,1.545,0.002,2.228c-0.002-0.809,0.049-1.542,0.113-2.159c1.083,0.657,2.581,1.84,4.244,3.405
			c0.381,0.365,0.883,0.836,1.419,1.331l13.56-1.296c-3.74-3.258-4.938-4.982-8.298-8.444
			C-59.323,187.708-60.835,186.277-63.247,184.565z M-70.363,192.492c-0.015-0.002-0.027-0.003-0.04-0.005
			c0.293-1.099,0.792-1.791,0.528-1.199c-0.038,0.165,0.218,0.159,0.419,0.019c0.159-0.043,0.042,0.218-0.055,0.942
			C-70.016,192.521-70.448,192.526-70.363,192.492z M-125.806,190.605c-1.085-0.989-2.166-1.987-3.305-2.954
			c0.863,0.795,1.65,1.627,2.473,2.438L-125.806,190.605z M-35.45,181.84c-0.207-1.36-0.521-2.707-0.859-4.038
			c-0.103,0.324-0.179,0.637-0.156,1.316C-36.113,180.014-35.74,180.914-35.45,181.84z M-164.833,121.188
			c-0.1-0.007-0.195-0.013-0.289-0.021c0.012,0.004,0.024,0.006,0.036,0.009C-165.004,121.179-164.92,121.183-164.833,121.188z
			 M-11.98,180.626c0.32,0.542,0.645,1.057,0.943,1.523C-11.348,181.633-11.688,181.083-11.98,180.626z M-22.456,163.749
			c1.007,0.186,2.022,0.535,3.016,0.852C-20.538,164.217-21.617,163.865-22.456,163.749z M-42.124,192.121h-0.001
			C-42.685,192.62-43.228,193.104-42.124,192.121z M-21.171,165.636c0.211,0.063,0.421,0.128,0.631,0.189
			C-20.785,165.749-20.992,165.687-21.171,165.636z M-42.103,192.102l-0.007-0.001l-0.05-0.014l-0.1-0.026l-0.198-0.055l0.232,0.08
			l0.101,0.035C-41.55,191.61-40.961,191.084-42.103,192.102z M-165.375,121.154c0.018,0,0.036-0.001,0.054-0.002
			c-0.046-0.004-0.091-0.006-0.136-0.011c-0.056-0.004-0.108-0.008-0.157-0.011c0.053,0.007,0.105,0.014,0.162,0.017
			C-165.426,121.15-165.4,121.152-165.375,121.154z M-5.604,173.173c-0.206,0.101-4.406-3.443-1.827-0.766
			c0.557,0.465,1.638,1.395,2.414,2.229c-0.81-0.31-7.57-6.48-6.294-4.553c4.657,3.657,5.05,4.508,7.863,6.736
			c3.523,3.933,5.887,6.754,7.407,8.646c1.108,1.05,1.523,0.958,2.917,2.313c-0.303-0.305-0.583-0.582-0.93-0.935l0.477-0.749
			c-1.264-1.038-2.229-2.217-3.462-3.506c2.107,1.787,4.269,3.55,6.439,5.316c-1.345-2.515-7.15-7.984-9.121-10.739
			c2.215,3.52-2.427-2.144,2.441,4.111c-1.133-0.86-2.268-1.741-3.419-2.634C-2.265,176.82-3.868,174.973-5.604,173.173z"/>
	</g>
	<circle fill="#303030" cx="102" cy="100.5" r="95.576"/>
	<g>
		<g>
			<polyline fill="none" stroke="#DFAA5A" stroke-width="7" stroke-linecap="round" stroke-linejoin="round" points="
				34.599,139.696 55.27,102.558 80.76,112.395 99.574,88.338 122.397,97.064 154.143,58.888 			"/>
			<g>
				<polygon fill="#DFAA5A" points="160.235,67.939 163.779,47.301 144.133,54.549 				"/>
			</g>
		</g>
	</g>
	<g>
		<g opacity="0.2">
			<path fill="#2882A5" d="M136.798,63.293c11.999,20.561,5.059,46.951-15.498,58.95c-20.559,11.999-46.952,5.062-58.951-15.496
				c-11.998-20.56-5.059-46.954,15.499-58.952C98.405,35.796,124.799,42.735,136.798,63.293z"/>
		</g>
		<g>
			
				<rect x="121.227" y="118.702" transform="matrix(0.8637 -0.5041 0.5041 0.8637 -49.0898 81.8743)" fill="#D7D8DC" width="11.167" height="25.969"/>
		</g>
		<g>
			
				<rect x="131.531" y="131.652" transform="matrix(0.8637 -0.504 0.504 0.8637 -57.5601 90.4587)" fill="#FFFFFF" width="13.857" height="39.989"/>
		</g>
		<g>
			<g>
				<path fill="#FFFFFF" d="M124.821,128.276c-5.837,3.406-12.171,5.569-18.825,6.427c-6.424,0.827-12.869,0.41-19.157-1.243
					c-6.289-1.654-12.106-4.46-17.292-8.339c-5.373-4.02-9.823-9.018-13.23-14.854c-3.406-5.837-5.57-12.171-6.427-18.825
					c-0.828-6.424-0.409-12.869,1.244-19.158c1.653-6.288,4.458-12.105,8.338-17.292c4.019-5.371,9.017-9.824,14.854-13.23
					s12.17-5.568,18.825-6.425c6.424-0.829,12.87-0.41,19.158,1.243s12.106,4.458,17.292,8.34
					c5.372,4.019,9.824,9.017,13.231,14.854c3.407,5.837,5.568,12.171,6.426,18.826c0.828,6.423,0.409,12.867-1.244,19.156
					c-1.653,6.288-4.459,12.104-8.339,17.292C135.655,120.419,130.658,124.869,124.821,128.276z M78.672,49.206
					c-9.567,5.584-16.386,14.558-19.203,25.27c-2.817,10.713-1.293,21.879,4.291,31.446c5.583,9.565,14.557,16.385,25.27,19.201
					c10.711,2.816,21.878,1.293,31.446-4.291c9.565-5.583,16.384-14.557,19.201-25.27c2.816-10.712,1.292-21.88-4.291-31.444
					c-5.583-9.567-14.557-16.387-25.27-19.202C99.405,42.1,88.237,43.623,78.672,49.206z"/>
			</g>
		</g>
	</g>
	<radialGradient id="SVGID_1_" cx="102" cy="100.501" r="95.5757" gradientUnits="userSpaceOnUse">
		<stop  offset="0" style="stop-color:#000000;stop-opacity:0"/>
		<stop  offset="0.8587" style="stop-color:#000000;stop-opacity:0.5581"/>
		<stop  offset="1" style="stop-color:#000000;stop-opacity:0.65"/>
	</radialGradient>
	<circle fill="url(#SVGID_1_)" cx="102" cy="100.5" r="95.576"/>
</g>
</svg>
