<?xml version="1.0" encoding="utf-8"?>
<!-- Generator: Adobe Illustrator 16.0.0, SVG Export Plug-In . SVG Version: 6.00 Build 0)  -->
<!DOCTYPE svg PUBLIC "-//W3C//DTD SVG 1.1//EN" "http://www.w3.org/Graphics/SVG/1.1/DTD/svg11.dtd">
<svg version="1.1" xmlns="http://www.w3.org/2000/svg" xmlns:xlink="http://www.w3.org/1999/xlink" x="0px" y="0px" width="200px"
	 height="130px" viewBox="0 0 200 130" enable-background="new 0 0 200 130" xml:space="preserve">
<g id="Layer_1">
	<g>
		<g>
			<path fill="#B52145" d="M187.209,16.331c1.346,0,2.442,1.097,2.442,2.444v100.422c0,1.349-1.096,2.446-2.442,2.446H12.78
				c-1.347,0-2.443-1.098-2.443-2.446V18.775c0-1.348,1.096-2.444,2.443-2.444H187.209 M187.209,15.141H12.78
				c-1.998,0-3.633,1.637-3.633,3.635v100.422c0,1.998,1.636,3.637,3.633,3.637h174.429c1.998,0,3.632-1.639,3.632-3.637V18.775
				C190.841,16.777,189.207,15.141,187.209,15.141L187.209,15.141z"/>
		</g>
		<path fill="#B52145" d="M187.209,9.69H12.78c-1.998,0-3.633,1.635-3.633,3.636v14.535v1.816v3.634h3.633h174.429h3.632v-3.634
			v-1.816V13.326C190.841,11.325,189.207,9.69,187.209,9.69z"/>
		<g>
			<rect x="18.287" y="16.063" fill="none" width="150.887" height="14.928"/>
			<text transform="matrix(1 0 0 1 18.2866 26.0166)" fill="#FFFFFF" font-family="'OpenSans-Semibold'" font-size="13.097">Mobile Applications</text>
		</g>
		<circle fill="#B52145" cx="148.885" cy="80.433" r="30.785"/>
		<g>
			<g>
				<path fill="#606161" d="M24.487,56.487H23.2l-3.16-5.119h-0.035l0.022,0.285c0.041,0.545,0.062,1.043,0.062,1.494v3.34h-0.954
					v-6.425h1.274l3.151,5.093h0.026c-0.006-0.066-0.018-0.313-0.035-0.735c-0.018-0.424-0.026-0.754-0.026-0.991v-3.366h0.962
					V56.487z"/>
				<path fill="#606161" d="M29.115,56.487l-0.207-0.677h-0.035c-0.234,0.296-0.47,0.497-0.708,0.604
					c-0.237,0.106-0.542,0.16-0.914,0.16c-0.478,0-0.851-0.129-1.118-0.387c-0.269-0.258-0.402-0.622-0.402-1.094
					c0-0.502,0.186-0.879,0.558-1.135c0.372-0.254,0.939-0.394,1.701-0.417l0.839-0.026v-0.26c0-0.31-0.073-0.542-0.217-0.696
					c-0.146-0.153-0.37-0.23-0.675-0.23c-0.249,0-0.488,0.037-0.716,0.11s-0.448,0.159-0.659,0.259l-0.334-0.738
					c0.264-0.138,0.552-0.242,0.866-0.314c0.313-0.071,0.609-0.107,0.888-0.107c0.618,0,1.084,0.135,1.399,0.404
					s0.473,0.693,0.473,1.271v3.273H29.115z M27.577,55.784c0.375,0,0.676-0.104,0.903-0.314c0.227-0.209,0.34-0.503,0.34-0.881
					v-0.422l-0.624,0.026c-0.486,0.018-0.84,0.099-1.061,0.244c-0.222,0.145-0.332,0.366-0.332,0.665
					c0,0.218,0.064,0.385,0.193,0.504C27.125,55.725,27.319,55.784,27.577,55.784z"/>
				<path fill="#606161" d="M33.105,55.74c0.252,0,0.504-0.04,0.756-0.118v0.777c-0.114,0.05-0.262,0.092-0.441,0.125
					c-0.181,0.034-0.367,0.051-0.561,0.051c-0.979,0-1.468-0.516-1.468-1.547v-2.619h-0.664v-0.457l0.712-0.378l0.352-1.028h0.637
					v1.081h1.384v0.782h-1.384v2.602c0,0.249,0.062,0.433,0.187,0.552C32.739,55.681,32.903,55.74,33.105,55.74z"/>
				<path fill="#606161" d="M34.771,50.339c0-0.184,0.051-0.326,0.151-0.426c0.102-0.1,0.246-0.149,0.433-0.149
					c0.182,0,0.323,0.05,0.424,0.149c0.101,0.1,0.151,0.242,0.151,0.426c0,0.176-0.051,0.314-0.151,0.416
					c-0.102,0.101-0.243,0.151-0.424,0.151c-0.188,0-0.332-0.051-0.433-0.151C34.821,50.653,34.771,50.515,34.771,50.339z
					 M35.865,56.487h-1.033v-4.86h1.033V56.487z"/>
				<path fill="#606161" d="M38.449,56.487l-1.846-4.86h1.09l0.989,2.825c0.17,0.475,0.272,0.859,0.308,1.152h0.035
					c0.026-0.211,0.129-0.595,0.308-1.152l0.989-2.825h1.099l-1.854,4.86H38.449z"/>
				<path fill="#606161" d="M44.28,56.575c-0.756,0-1.347-0.221-1.773-0.661c-0.427-0.441-0.64-1.048-0.64-1.821
					c0-0.794,0.198-1.418,0.593-1.873c0.396-0.453,0.939-0.681,1.63-0.681c0.642,0,1.148,0.195,1.521,0.585s0.558,0.926,0.558,1.607
					v0.559h-3.239c0.015,0.472,0.142,0.834,0.382,1.088c0.24,0.253,0.579,0.38,1.015,0.38c0.287,0,0.554-0.027,0.802-0.081
					c0.248-0.055,0.514-0.145,0.798-0.271v0.839c-0.252,0.121-0.507,0.206-0.765,0.256C44.906,56.55,44.611,56.575,44.28,56.575z
					 M44.091,52.321c-0.328,0-0.591,0.104-0.789,0.313c-0.197,0.208-0.315,0.511-0.354,0.909h2.206
					c-0.006-0.401-0.103-0.705-0.29-0.912C44.677,52.425,44.419,52.321,44.091,52.321z"/>
				<path fill="#606161" d="M30.653,61.139c0-0.184,0.051-0.326,0.151-0.426c0.102-0.1,0.246-0.149,0.433-0.149
					c0.182,0,0.323,0.05,0.424,0.149c0.101,0.1,0.151,0.242,0.151,0.426c0,0.176-0.051,0.314-0.151,0.416
					c-0.102,0.101-0.243,0.151-0.424,0.151c-0.188,0-0.332-0.051-0.433-0.151C30.704,61.453,30.653,61.314,30.653,61.139z
					 M31.747,67.287h-1.033v-4.86h1.033V67.287z"/>
				<path fill="#606161" d="M39.038,64.066c0,1.045-0.261,1.858-0.785,2.438c-0.522,0.58-1.263,0.87-2.221,0.87
					c-0.97,0-1.715-0.288-2.235-0.863c-0.52-0.576-0.78-1.394-0.78-2.455c0-1.06,0.261-1.874,0.785-2.443
					c0.522-0.567,1.269-0.852,2.239-0.852c0.955,0,1.693,0.288,2.215,0.865S39.038,63.018,39.038,64.066z M34.133,64.066
					c0,0.791,0.16,1.391,0.479,1.799c0.319,0.409,0.792,0.613,1.419,0.613c0.624,0,1.095-0.202,1.413-0.606s0.477-1.007,0.477-1.806
					c0-0.788-0.158-1.386-0.472-1.793c-0.315-0.407-0.785-0.611-1.409-0.611c-0.63,0-1.105,0.204-1.426,0.611
					C34.294,62.681,34.133,63.278,34.133,64.066z"/>
				<path fill="#606161" d="M44.122,65.543c0,0.57-0.207,1.02-0.62,1.344c-0.413,0.326-0.983,0.488-1.709,0.488
					s-1.321-0.112-1.784-0.338v-0.994c0.293,0.139,0.604,0.246,0.934,0.326c0.33,0.078,0.637,0.118,0.921,0.118
					c0.416,0,0.723-0.079,0.921-0.237c0.197-0.158,0.296-0.37,0.296-0.637c0-0.24-0.091-0.444-0.272-0.611s-0.557-0.365-1.125-0.594
					c-0.586-0.236-0.999-0.508-1.239-0.813s-0.36-0.671-0.36-1.099c0-0.536,0.19-0.958,0.571-1.266s0.892-0.462,1.534-0.462
					c0.615,0,1.228,0.136,1.837,0.404l-0.334,0.857c-0.571-0.24-1.081-0.36-1.529-0.36c-0.34,0-0.598,0.074-0.773,0.222
					c-0.176,0.148-0.264,0.344-0.264,0.587c0,0.167,0.035,0.31,0.105,0.429c0.07,0.118,0.186,0.23,0.347,0.336
					s0.451,0.245,0.87,0.418c0.472,0.196,0.817,0.379,1.037,0.549s0.381,0.362,0.483,0.576S44.122,65.252,44.122,65.543z"/>
				<path fill="#606161" d="M34.81,78.088l-0.642-1.784h-2.457l-0.628,1.784h-1.107l2.404-6.451h1.143l2.404,6.451H34.81z
					 M33.892,75.398l-0.602-1.749c-0.044-0.117-0.105-0.302-0.183-0.554s-0.131-0.437-0.16-0.554
					c-0.079,0.36-0.195,0.755-0.347,1.183l-0.58,1.674H33.892z"/>
				<path fill="#606161" d="M40.94,78.088h-1.037V75.1c0-0.375-0.076-0.654-0.226-0.84c-0.151-0.184-0.391-0.276-0.719-0.276
					c-0.437,0-0.756,0.129-0.958,0.387s-0.303,0.69-0.303,1.296v2.422h-1.033v-4.86h0.809l0.145,0.638h0.053
					c0.146-0.231,0.354-0.41,0.624-0.537c0.27-0.125,0.568-0.188,0.896-0.188c1.166,0,1.749,0.593,1.749,1.78V78.088z"/>
				<path fill="#606161" d="M44.017,78.176c-0.606,0-1.08-0.22-1.419-0.659s-0.51-1.056-0.51-1.851c0-0.796,0.172-1.417,0.517-1.86
					c0.344-0.444,0.821-0.666,1.43-0.666c0.639,0,1.125,0.236,1.459,0.708h0.053c-0.05-0.349-0.075-0.625-0.075-0.826V71.25h1.037
					v6.838H45.7l-0.18-0.637h-0.048C45.14,77.934,44.655,78.176,44.017,78.176z M44.293,77.341c0.425,0,0.734-0.119,0.927-0.358
					c0.193-0.238,0.293-0.626,0.299-1.162v-0.145c0-0.612-0.1-1.048-0.299-1.306s-0.511-0.387-0.936-0.387
					c-0.363,0-0.643,0.147-0.839,0.441c-0.196,0.295-0.294,0.714-0.294,1.259c0,0.54,0.095,0.95,0.286,1.233
					C43.627,77.199,43.913,77.341,44.293,77.341z"/>
				<path fill="#606161" d="M50.45,73.14c0.208,0,0.379,0.015,0.514,0.044l-0.101,0.963c-0.146-0.035-0.299-0.053-0.457-0.053
					c-0.413,0-0.748,0.135-1.004,0.404s-0.384,0.619-0.384,1.05v2.54h-1.033v-4.86h0.809l0.136,0.856h0.053
					c0.161-0.289,0.372-0.52,0.63-0.689C49.873,73.225,50.151,73.14,50.45,73.14z"/>
				<path fill="#606161" d="M56.176,75.648c0,0.795-0.204,1.414-0.611,1.859s-0.974,0.668-1.701,0.668
					c-0.454,0-0.855-0.103-1.204-0.308s-0.617-0.499-0.804-0.884c-0.188-0.383-0.281-0.828-0.281-1.336
					c0-0.787,0.202-1.402,0.606-1.846c0.404-0.441,0.974-0.663,1.709-0.663c0.703,0,1.26,0.227,1.67,0.679
					C55.971,74.271,56.176,74.882,56.176,75.648z M52.639,75.648c0,1.123,0.415,1.684,1.244,1.684c0.82,0,1.23-0.561,1.23-1.684
					c0-1.109-0.413-1.665-1.239-1.665c-0.434,0-0.748,0.144-0.943,0.431S52.639,75.113,52.639,75.648z"/>
				<path fill="#606161" d="M57.301,71.939c0-0.184,0.051-0.326,0.151-0.426c0.102-0.1,0.246-0.149,0.433-0.149
					c0.182,0,0.323,0.05,0.424,0.149c0.101,0.1,0.151,0.242,0.151,0.426c0,0.176-0.051,0.314-0.151,0.416
					c-0.102,0.101-0.243,0.151-0.424,0.151c-0.188,0-0.332-0.051-0.433-0.151C57.352,72.254,57.301,72.115,57.301,71.939z
					 M58.396,78.088h-1.033v-4.86h1.033V78.088z"/>
				<path fill="#606161" d="M61.511,78.176c-0.606,0-1.08-0.22-1.419-0.659s-0.51-1.056-0.51-1.851c0-0.796,0.172-1.417,0.517-1.86
					c0.344-0.444,0.821-0.666,1.43-0.666c0.639,0,1.125,0.236,1.459,0.708h0.053c-0.05-0.349-0.075-0.625-0.075-0.826V71.25h1.037
					v6.838h-0.809l-0.18-0.637h-0.048C62.635,77.934,62.15,78.176,61.511,78.176z M61.788,77.341c0.425,0,0.734-0.119,0.927-0.358
					c0.193-0.238,0.293-0.626,0.299-1.162v-0.145c0-0.612-0.1-1.048-0.299-1.306s-0.511-0.387-0.936-0.387
					c-0.363,0-0.643,0.147-0.839,0.441c-0.196,0.295-0.294,0.714-0.294,1.259c0,0.54,0.095,0.95,0.286,1.233
					C61.122,77.199,61.407,77.341,61.788,77.341z"/>
				<path fill="#606161" d="M21.868,83.271c-0.604,0-1.078,0.214-1.424,0.642s-0.519,1.019-0.519,1.771
					c0,0.788,0.166,1.384,0.499,1.788s0.814,0.606,1.444,0.606c0.272,0,0.536-0.027,0.791-0.081c0.255-0.055,0.52-0.124,0.795-0.209
					v0.901c-0.504,0.19-1.075,0.285-1.714,0.285c-0.94,0-1.663-0.285-2.167-0.854c-0.504-0.57-0.756-1.385-0.756-2.446
					c0-0.668,0.122-1.252,0.367-1.753s0.599-0.885,1.062-1.151s1.006-0.4,1.63-0.4c0.656,0,1.263,0.139,1.819,0.414l-0.378,0.874
					c-0.217-0.103-0.446-0.192-0.688-0.271C22.389,83.311,22.135,83.271,21.868,83.271z"/>
				<path fill="#606161" d="M29.04,86.448c0,0.795-0.204,1.414-0.611,1.859s-0.974,0.668-1.701,0.668
					c-0.454,0-0.855-0.103-1.204-0.308s-0.617-0.499-0.804-0.884c-0.188-0.383-0.281-0.828-0.281-1.336
					c0-0.787,0.202-1.402,0.606-1.846c0.404-0.441,0.974-0.663,1.709-0.663c0.703,0,1.26,0.227,1.67,0.679
					C28.835,85.071,29.04,85.682,29.04,86.448z M25.502,86.448c0,1.123,0.415,1.684,1.244,1.684c0.82,0,1.23-0.561,1.23-1.684
					c0-1.109-0.413-1.665-1.239-1.665c-0.434,0-0.748,0.144-0.943,0.431S25.502,85.913,25.502,86.448z"/>
				<path fill="#606161" d="M32.692,83.939c0.208,0,0.379,0.015,0.514,0.044l-0.101,0.963c-0.146-0.035-0.299-0.053-0.457-0.053
					c-0.413,0-0.748,0.135-1.004,0.404s-0.384,0.619-0.384,1.05v2.54h-1.033v-4.86h0.809l0.136,0.856h0.053
					c0.161-0.289,0.372-0.52,0.63-0.689C32.114,84.024,32.393,83.939,32.692,83.939z"/>
				<path fill="#606161" d="M35.746,88.976c-0.606,0-1.08-0.22-1.419-0.659s-0.51-1.056-0.51-1.851c0-0.796,0.172-1.417,0.517-1.86
					c0.344-0.444,0.821-0.666,1.43-0.666c0.639,0,1.125,0.236,1.459,0.708h0.053c-0.05-0.349-0.075-0.625-0.075-0.826V82.05h1.037
					v6.838h-0.809l-0.18-0.637h-0.048C36.87,88.733,36.385,88.976,35.746,88.976z M36.023,88.141c0.425,0,0.734-0.119,0.927-0.358
					c0.193-0.238,0.293-0.626,0.299-1.162v-0.145c0-0.612-0.1-1.048-0.299-1.306s-0.511-0.387-0.936-0.387
					c-0.363,0-0.643,0.147-0.839,0.441c-0.196,0.295-0.294,0.714-0.294,1.259c0,0.54,0.095,0.95,0.286,1.233
					C35.356,87.999,35.642,88.141,36.023,88.141z"/>
				<path fill="#606161" d="M44.025,86.448c0,0.795-0.204,1.414-0.611,1.859s-0.974,0.668-1.701,0.668
					c-0.454,0-0.855-0.103-1.204-0.308s-0.617-0.499-0.804-0.884c-0.188-0.383-0.281-0.828-0.281-1.336
					c0-0.787,0.202-1.402,0.606-1.846c0.404-0.441,0.974-0.663,1.709-0.663c0.703,0,1.26,0.227,1.67,0.679
					C43.82,85.071,44.025,85.682,44.025,86.448z M40.488,86.448c0,1.123,0.415,1.684,1.244,1.684c0.82,0,1.23-0.561,1.23-1.684
					c0-1.109-0.413-1.665-1.239-1.665c-0.434,0-0.748,0.144-0.943,0.431S40.488,85.913,40.488,86.448z"/>
				<path fill="#606161" d="M46.319,88.888l-1.846-4.86h1.09l0.989,2.825c0.17,0.475,0.272,0.859,0.308,1.152h0.035
					c0.026-0.211,0.129-0.595,0.308-1.152l0.989-2.825h1.099l-1.854,4.86H46.319z"/>
				<path fill="#606161" d="M53.069,88.888l-0.207-0.677h-0.035c-0.234,0.296-0.47,0.497-0.708,0.604
					c-0.237,0.106-0.542,0.16-0.914,0.16c-0.478,0-0.851-0.129-1.118-0.387c-0.269-0.258-0.402-0.622-0.402-1.094
					c0-0.502,0.186-0.879,0.558-1.135c0.372-0.254,0.939-0.394,1.701-0.417l0.839-0.026v-0.26c0-0.31-0.073-0.542-0.217-0.696
					c-0.146-0.153-0.37-0.23-0.675-0.23c-0.249,0-0.488,0.037-0.716,0.11S50.727,85,50.516,85.1l-0.334-0.738
					c0.264-0.138,0.552-0.242,0.866-0.314c0.313-0.071,0.609-0.107,0.888-0.107c0.618,0,1.084,0.135,1.399,0.404
					s0.473,0.693,0.473,1.271v3.273H53.069z M51.531,88.185c0.375,0,0.676-0.104,0.903-0.314c0.227-0.209,0.34-0.503,0.34-0.881
					v-0.422l-0.624,0.026c-0.486,0.018-0.84,0.099-1.061,0.244c-0.222,0.145-0.332,0.366-0.332,0.665
					c0,0.218,0.064,0.385,0.193,0.504C51.08,88.125,51.273,88.185,51.531,88.185z"/>
			</g>
		</g>
		<g>
			<g>
				<g>
					<path fill="none" stroke="#FFFFFF" stroke-width="1.1906" stroke-miterlimit="10" d="M158.434,59.074h-19.097
						c-1.827,0-3.303,1.48-3.303,3.305v38.776c0,1.824,1.477,3.303,3.303,3.303h19.097c1.824,0,3.304-1.479,3.304-3.303V62.379
						C161.737,60.555,160.258,59.074,158.434,59.074z"/>
				</g>
				
					<rect x="138.51" y="64.788" fill="none" stroke="#FFFFFF" stroke-width="1.1906" stroke-miterlimit="10" width="20.751" height="29.319"/>
				<rect x="144.424" y="61.515" fill="#FFFFFF" width="8.857" height="0.967"/>
				<circle fill="#FFFFFF" cx="156.633" cy="62.039" r="0.845"/>
				<circle fill="#FFFFFF" cx="148.886" cy="99.706" r="2.108"/>
			</g>
			<path fill-rule="evenodd" clip-rule="evenodd" fill="#FFFFFF" d="M154.167,87.447h-1.247c-0.016-0.068-0.042-0.135-0.077-0.198
				c-0.034-0.062-0.128-0.243-0.248-0.473c-0.174-0.332-0.42-0.802-0.685-1.302h2.256c0.127,0,0.231,0.105,0.231,0.232v1.507
				C154.397,87.343,154.293,87.447,154.167,87.447 M151.947,86.537c0.015,0.03,0.031,0.061,0.048,0.091
				c0.002,0.006,0.004,0.009,0.007,0.016c0.205,0.389,0.359,0.689,0.422,0.804c0.005,0.008,0.01,0.018,0.013,0.024
				c0.164,0.301-0.156,0.547-0.335,0.622c-0.179,0.074-0.282,0.148-0.549,0.017c-0.268-0.136-1.6-3.223-1.942-4.027
				c-0.34-0.806-1.371-2.949-1.039-3.115c0.238-0.121,1.091,1.567,1.729,2.581c0.364,0.578,0.956,1.677,1.425,2.569
				c0.007,0.012,0.013,0.024,0.02,0.035c0.02,0.041,0.042,0.081,0.063,0.12c0.006,0.012,0.011,0.021,0.018,0.034
				c0.018,0.034,0.036,0.069,0.054,0.104c0.01,0.018,0.022,0.039,0.031,0.059C151.922,86.493,151.935,86.515,151.947,86.537
				 M148.806,84.325l-0.938,1.644l-0.847,1.479l-1.309,2.289c-0.069,0.122-0.228,0.165-0.35,0.094l-0.668-0.385
				c-0.123-0.07-0.166-0.229-0.095-0.351l0.942-1.647l1.128-1.973l1.024-1.789c0.071-0.124,0.228-0.166,0.35-0.095l0.668,0.384
				C148.834,84.046,148.876,84.203,148.806,84.325 M143.539,87.447c-0.129,0-0.232-0.104-0.232-0.233v-1.507
				c0-0.127,0.104-0.232,0.232-0.232h2.595l-1.128,1.973H143.539z M144.476,89.741l0.667,0.384c0.122,0.071,0.128,0.196,0.011,0.274
				l-0.863,0.59c-0.116,0.08-0.199,0.029-0.184-0.111l0.117-1.01C144.24,89.729,144.353,89.669,144.476,89.741 M149.706,85.475
				c0.396,0.902,0.69,1.533,0.912,1.973h-3.062l1.128-1.973H149.706z M152.12,88.523l0.384-0.2c0.136-0.068,0.304-0.012,0.376,0.127
				l0.319,0.612c0.072,0.141,0.021,0.317-0.109,0.396l-0.273,0.164c-0.13,0.079-0.306,0.036-0.389-0.096l-0.402-0.639
				C151.942,88.757,151.985,88.593,152.12,88.523 M154.064,91.357c-0.085-0.27-0.727-0.287-1.014-0.694
				c-0.288-0.407-0.05-0.617,0.05-0.713C154.267,89.291,154.064,91.357,154.064,91.357"/>
			<path fill-rule="evenodd" clip-rule="evenodd" fill="#FFFFFF" d="M152.818,74.771c-0.347,0-0.626-0.288-0.626-0.645v-2.758
				c0-0.355,0.28-0.645,0.626-0.645c0.345,0,0.625,0.289,0.625,0.645v2.758C153.443,74.482,153.163,74.771,152.818,74.771
				 M151.113,76.131h-0.478c0.018,0.057,0.026,0.115,0.026,0.18v0.034v0.217v1.109c0,0.355-0.281,0.644-0.626,0.644
				s-0.626-0.288-0.626-0.644v-1.109v-0.217v-0.034c0-0.064,0.009-0.123,0.025-0.18h-1.164c0.016,0.057,0.026,0.115,0.026,0.18
				v0.034v0.217v1.109c0,0.355-0.28,0.644-0.626,0.644c-0.346,0-0.626-0.288-0.626-0.644v-1.109v-0.217v-0.034
				c0-0.064,0.008-0.123,0.024-0.18h-0.477c-0.365,0-0.661-0.305-0.661-0.682v-3.751v-0.438v-0.537h0.044h5.754h0.044v0.537v0.438
				v3.751C151.773,75.826,151.478,76.131,151.113,76.131 M147.416,68.146l-0.117-0.182l-0.117-0.179l-0.261-0.402
				c-0.031-0.05-0.018-0.116,0.029-0.149c0.049-0.032,0.113-0.018,0.146,0.03l0.279,0.432l0.117,0.18l0.119,0.185
				c0.376-0.15,0.797-0.235,1.241-0.235c0.444,0,0.865,0.085,1.242,0.235l0.12-0.185l0.117-0.18l0.278-0.432
				c0.033-0.048,0.096-0.063,0.145-0.03c0.048,0.033,0.062,0.1,0.029,0.149l-0.26,0.402l-0.116,0.179l-0.118,0.182
				c0.886,0.426,1.485,1.229,1.485,2.149h-5.843C145.931,69.374,146.529,68.571,147.416,68.146 M150.104,69.437
				c0.173,0,0.312-0.145,0.312-0.324c0-0.177-0.139-0.32-0.312-0.32s-0.313,0.144-0.313,0.32
				C149.791,69.292,149.932,69.437,150.104,69.437 M147.599,69.437c0.173,0,0.314-0.145,0.314-0.324c0-0.177-0.141-0.32-0.314-0.32
				c-0.172,0-0.312,0.144-0.312,0.32C147.288,69.292,147.427,69.437,147.599,69.437 M144.887,74.771
				c-0.345,0-0.626-0.288-0.626-0.645v-2.758c0-0.355,0.281-0.645,0.626-0.645c0.346,0,0.626,0.289,0.626,0.645v2.758
				C145.513,74.482,145.233,74.771,144.887,74.771"/>
		</g>
	</g>
</g>
<g id="Layer_2">
</g>
</svg>
