<?xml version="1.0" encoding="utf-8"?>
<!-- Generator: Adobe Illustrator 16.0.0, SVG Export Plug-In . SVG Version: 6.00 Build 0)  -->
<!DOCTYPE svg PUBLIC "-//W3C//DTD SVG 1.1//EN" "http://www.w3.org/Graphics/SVG/1.1/DTD/svg11.dtd">
<svg version="1.1" xmlns="http://www.w3.org/2000/svg" xmlns:xlink="http://www.w3.org/1999/xlink" x="0px" y="0px" width="200px"
	 height="130px" viewBox="0 0 200 130" enable-background="new 0 0 200 130" xml:space="preserve">
<g id="Layer_1">
	<g>
		<g>
			<path fill="#B52145" d="M185.651,18.766c1.335,0,2.421,1.087,2.421,2.423v99.525c0,1.336-1.086,2.423-2.421,2.423H12.781
				c-1.336,0-2.422-1.087-2.422-2.423V21.188c0-1.336,1.086-2.423,2.422-2.423H185.651 M185.651,17.586H12.781
				c-1.98,0-3.603,1.62-3.603,3.603v99.525c0,1.979,1.623,3.603,3.603,3.603h172.87c1.979,0,3.602-1.623,3.602-3.603V21.188
				C189.253,19.206,187.631,17.586,185.651,17.586L185.651,17.586z"/>
		</g>
		<path fill="#B52145" d="M185.651,12.184H12.781c-1.98,0-3.603,1.62-3.603,3.603v14.405v1.801v3.603h3.603h172.87h3.602v-3.603
			v-1.801V15.786C189.253,13.804,187.631,12.184,185.651,12.184z"/>
		<g>
			<rect x="18.239" y="18.5" fill="none" width="133.13" height="14.794"/>
			<text transform="matrix(1 0 0 1 18.2393 28.4541)" fill="#FFFFFF" font-family="'OpenSans-Semibold'" font-size="13.097">Mobile Games</text>
		</g>
		<g>
			<g>
				<path fill="#606161" d="M24.124,52.2v4.157c0,0.475-0.102,0.89-0.305,1.246c-0.204,0.355-0.499,0.63-0.884,0.821
					c-0.385,0.192-0.846,0.288-1.382,0.288c-0.797,0-1.417-0.211-1.859-0.633s-0.664-1.002-0.664-1.74V52.2h1.055v4.065
					c0,0.53,0.123,0.921,0.369,1.173s0.624,0.378,1.134,0.378c0.99,0,1.485-0.52,1.485-1.561V52.2H24.124z"/>
				<path fill="#606161" d="M29.933,58.625h-1.037v-2.988c0-0.375-0.076-0.654-0.226-0.84c-0.151-0.184-0.391-0.276-0.719-0.276
					c-0.437,0-0.756,0.129-0.958,0.387s-0.303,0.69-0.303,1.296v2.422h-1.033v-4.86h0.809l0.145,0.638h0.053
					c0.146-0.231,0.354-0.41,0.624-0.537c0.27-0.125,0.568-0.188,0.896-0.188c1.166,0,1.749,0.593,1.749,1.78V58.625z"/>
				<path fill="#606161" d="M31.309,52.477c0-0.184,0.051-0.326,0.151-0.426c0.102-0.1,0.246-0.149,0.433-0.149
					c0.182,0,0.323,0.05,0.424,0.149c0.101,0.1,0.151,0.242,0.151,0.426c0,0.176-0.051,0.314-0.151,0.416
					c-0.102,0.101-0.243,0.151-0.424,0.151c-0.188,0-0.332-0.051-0.433-0.151C31.359,52.791,31.309,52.652,31.309,52.477z
					 M32.403,58.625H31.37v-4.86h1.033V58.625z"/>
				<path fill="#606161" d="M35.69,57.878c0.252,0,0.504-0.04,0.756-0.118v0.777c-0.114,0.05-0.262,0.092-0.441,0.125
					c-0.181,0.034-0.367,0.051-0.561,0.051c-0.979,0-1.468-0.516-1.468-1.547v-2.619h-0.664V54.09l0.712-0.378l0.352-1.028h0.637
					v1.081h1.384v0.782h-1.384v2.602c0,0.249,0.062,0.433,0.187,0.552C35.324,57.818,35.488,57.878,35.69,57.878z"/>
				<path fill="#606161" d="M36.679,53.765h1.125l0.989,2.755c0.149,0.394,0.249,0.763,0.299,1.107h0.035
					c0.026-0.16,0.075-0.356,0.145-0.586c0.07-0.23,0.442-1.322,1.116-3.276h1.116l-2.079,5.507c-0.378,1.01-1.008,1.516-1.89,1.516
					c-0.229,0-0.451-0.025-0.668-0.074v-0.818c0.155,0.035,0.333,0.053,0.532,0.053c0.498,0,0.848-0.288,1.05-0.865l0.18-0.457
					L36.679,53.765z"/>
				<path fill="#606161" d="M34.438,64.477c0,0.407-0.119,0.746-0.356,1.018c-0.237,0.271-0.571,0.453-1.002,0.547v0.035
					c0.516,0.064,0.902,0.225,1.16,0.481c0.258,0.256,0.387,0.597,0.387,1.021c0,0.618-0.218,1.095-0.655,1.431
					c-0.437,0.335-1.058,0.503-1.863,0.503c-0.712,0-1.313-0.115-1.802-0.348v-0.918c0.272,0.135,0.561,0.239,0.866,0.313
					s0.598,0.109,0.879,0.109c0.498,0,0.87-0.092,1.116-0.277c0.246-0.184,0.369-0.47,0.369-0.856c0-0.343-0.136-0.595-0.409-0.756
					s-0.7-0.241-1.283-0.241h-0.558v-0.84h0.567c1.025,0,1.538-0.354,1.538-1.063c0-0.275-0.089-0.487-0.268-0.638
					c-0.179-0.148-0.442-0.224-0.791-0.224c-0.243,0-0.478,0.034-0.703,0.104c-0.226,0.068-0.492,0.203-0.8,0.401l-0.505-0.721
					c0.589-0.433,1.273-0.65,2.052-0.65c0.647,0,1.153,0.14,1.516,0.418S34.438,63.987,34.438,64.477z"/>
				<path fill="#606161" d="M41.139,66.151c0,1.061-0.294,1.871-0.883,2.432c-0.589,0.562-1.437,0.842-2.544,0.842h-1.797V63H37.9
					c1.022,0,1.818,0.275,2.386,0.826S41.139,65.152,41.139,66.151z M40.032,66.187c0-1.539-0.719-2.308-2.158-2.308h-0.91v4.663
					h0.747C39.258,68.542,40.032,67.757,40.032,66.187z"/>
				<path fill="#606161" d="M37.017,80.226h-4.355v-0.782l1.657-1.665c0.489-0.502,0.813-0.856,0.973-1.066
					c0.16-0.209,0.276-0.406,0.35-0.591s0.11-0.382,0.11-0.593c0-0.291-0.087-0.52-0.261-0.686
					c-0.175-0.168-0.416-0.251-0.723-0.251c-0.246,0-0.484,0.046-0.714,0.136c-0.23,0.092-0.496,0.256-0.797,0.492l-0.558-0.681
					c0.357-0.302,0.705-0.516,1.042-0.642s0.696-0.189,1.077-0.189c0.598,0,1.077,0.156,1.437,0.469
					c0.36,0.312,0.541,0.731,0.541,1.259c0,0.29-0.052,0.565-0.156,0.826s-0.264,0.529-0.479,0.807
					c-0.216,0.276-0.574,0.651-1.075,1.122l-1.116,1.082v0.043h3.05V80.226z"/>
				<path fill="#606161" d="M43.477,76.952c0,1.061-0.294,1.871-0.883,2.432c-0.589,0.562-1.437,0.842-2.544,0.842h-1.797v-6.425
					h1.986c1.022,0,1.818,0.275,2.386,0.826S43.477,75.953,43.477,76.952z M42.37,76.987c0-1.539-0.719-2.308-2.158-2.308h-0.91
					v4.663h0.747C41.596,79.343,42.37,78.558,42.37,76.987z"/>
			</g>
		</g>
		<g>
			<circle fill="#B52145" cx="147.67" cy="82.295" r="30.51"/>
			<g>
				<g>
					<g>
						<path fill="none" stroke="#FFFFFF" stroke-width="1.18" stroke-miterlimit="10" d="M156.626,66.39
							c-6.548,3.237-10.898,2.979-17.673-0.051c-11.864,0-18.66,31.911-9.787,31.911c7.487,0,8.492-9.33,18.748-9.33
							c8.29,0,13.157,9.214,18.688,9.214C175.474,98.134,166.465,66.39,156.626,66.39z"/>
					</g>
				</g>
				<path fill="#FFFFFF" d="M139.032,82.177c-3.284,0-5.946-2.663-5.946-5.942c0-3.278,2.662-5.94,5.946-5.94
					c3.281,0,5.941,2.662,5.941,5.94C144.974,79.514,142.313,82.177,139.032,82.177z M138.977,73.265
					c-1.694,0-3.065,1.373-3.065,3.059c0,1.695,1.371,3.065,3.065,3.065c1.689,0,3.059-1.37,3.059-3.065
					C142.035,74.638,140.666,73.265,138.977,73.265z"/>
				<path fill="#FFFFFF" d="M153.023,76.689c-0.97-0.303-1.512-1.334-1.205-2.307c0.305-0.968,1.337-1.508,2.307-1.203
					c0.971,0.3,1.513,1.332,1.208,2.303C155.028,76.457,153.994,76.991,153.023,76.689z"/>
				<path fill="#FFFFFF" d="M162.355,78.238c-0.309,0.973-1.339,1.511-2.31,1.208c-0.966-0.302-1.51-1.334-1.207-2.31
					c0.309-0.971,1.343-1.507,2.307-1.208C162.118,76.235,162.659,77.266,162.355,78.238z"/>
				<path fill="#FFFFFF" d="M159.986,73.931c-0.312,0.973-1.339,1.51-2.31,1.208c-0.968-0.302-1.51-1.335-1.21-2.31
					c0.309-0.972,1.344-1.507,2.31-1.209C159.749,71.928,160.288,72.956,159.986,73.931z"/>
				<path fill="#FFFFFF" d="M157.514,79.642c-0.312,0.973-1.342,1.51-2.313,1.208c-0.968-0.302-1.509-1.334-1.207-2.31
					c0.309-0.97,1.341-1.507,2.307-1.209C157.271,77.64,157.813,78.667,157.514,79.642z"/>
			</g>
		</g>
	</g>
</g>
<g id="Layer_2">
</g>
</svg>
