<?xml version="1.0" encoding="utf-8"?>
<!-- Generator: Adobe Illustrator 16.0.0, SVG Export Plug-In . SVG Version: 6.00 Build 0)  -->
<!DOCTYPE svg PUBLIC "-//W3C//DTD SVG 1.1//EN" "http://www.w3.org/Graphics/SVG/1.1/DTD/svg11.dtd">
<svg version="1.1" xmlns="http://www.w3.org/2000/svg" xmlns:xlink="http://www.w3.org/1999/xlink" x="0px" y="0px" width="200px"
	 height="200px" viewBox="0 0 200 200" enable-background="new 0 0 200 200" xml:space="preserve">
<g id="Layer_1">
</g>
<g id="Layer_2">
	<g>
		<defs>
			<circle id="XMLID_10_" cx="100.001" cy="100.501" r="95.576"/>
		</defs>
		<use xlink:href="#XMLID_10_"  overflow="visible" fill="#303030"/>
		<clipPath id="XMLID_13_">
			<use xlink:href="#XMLID_10_"  overflow="visible"/>
		</clipPath>
		<g clip-path="url(#XMLID_13_)">
			<g>
				<g>
					<circle fill="none" stroke="#ECF0F1" cx="19.333" cy="166.044" r="6.525"/>
					<circle fill="none" stroke="#ECF0F1" cx="19.333" cy="166.044" r="4.441"/>
					<circle fill="none" stroke="#ECF0F1" cx="19.205" cy="166.172" r="2.266"/>
				</g>
				<g>
					<circle fill="none" stroke="#ECF0F1" cx="31.007" cy="177.719" r="6.526"/>
					<circle fill="none" stroke="#ECF0F1" cx="31.007" cy="177.719" r="4.441"/>
					<circle fill="none" stroke="#ECF0F1" cx="30.88" cy="177.847" r="2.267"/>
				</g>
				<g>
					<circle fill="none" stroke="#ECF0F1" cx="42.68" cy="189.392" r="6.526"/>
					<circle fill="none" stroke="#ECF0F1" cx="42.681" cy="189.392" r="4.442"/>
					<circle fill="none" stroke="#ECF0F1" cx="42.553" cy="189.52" r="2.266"/>
				</g>
			</g>
			<path fill="#ECF0F1" d="M62.878,153.709c0.384-0.052,0.78-0.227,1.09-0.539c0.302-0.299,0.488-0.675,0.557-1.055
				c0.101-0.552-0.012-1.096-0.213-1.636c0.14,0.052,0.281,0.104,0.423,0.142c0.374,0.098,0.756,0.146,1.143,0.089
				c0.385-0.053,0.781-0.229,1.091-0.54c0.303-0.301,0.49-0.679,0.557-1.057c0.102-0.571-0.023-1.134-0.237-1.689
				c-0.217-0.559-1.731-3.144-2.09-3.697l-0.9,0.618c0.453,0.693,2.007,3.406,2.142,3.959c0.068,0.275,0.081,0.511,0.046,0.69
				c-0.035,0.184-0.102,0.313-0.238,0.454c-0.126,0.122-0.254,0.185-0.449,0.215c-0.286,0.047-0.711-0.03-1.162-0.214
				c-0.4-0.158-0.815-0.396-1.202-0.648c-0.011-0.017-0.02-0.033-0.03-0.05l-0.023,0.017c-0.034-0.023-0.071-0.042-0.104-0.065
				l-0.002,0.003l-0.014-0.026c-0.002-0.003-0.558-1.048-1.211-2.193c-0.327-0.573-0.679-1.171-1.001-1.68
				c-0.326-0.512-0.604-0.922-0.856-1.178c-0.448-0.448-0.982-0.735-1.53-0.832c-0.274-0.048-0.554-0.048-0.827,0.021
				c-0.274,0.066-0.543,0.207-0.758,0.423c-0.216,0.215-0.356,0.483-0.424,0.758c-0.1,0.411-0.054,0.833,0.089,1.234
				s0.388,0.787,0.724,1.123c0.256,0.252,0.666,0.529,1.178,0.857c1.523,0.962,3.868,2.208,3.873,2.211l0.031,0.017
				c0.431,0.669,0.77,1.329,0.896,1.86c0.067,0.277,0.079,0.513,0.043,0.695c-0.035,0.182-0.104,0.313-0.239,0.453
				c-0.127,0.123-0.253,0.184-0.443,0.212c-0.283,0.045-0.705-0.035-1.154-0.221c-0.401-0.164-0.821-0.409-1.216-0.666
				c-0.009-0.014-0.015-0.027-0.023-0.04l-0.019,0.013c-0.032-0.021-0.067-0.039-0.099-0.062l-0.007,0.011l-0.015-0.028
				c-0.002-0.002-0.557-1.048-1.211-2.193c-0.327-0.573-0.678-1.171-1.001-1.68c-0.326-0.512-0.604-0.922-0.856-1.178
				c-0.449-0.447-0.983-0.734-1.53-0.831c-0.274-0.05-0.554-0.049-0.828,0.02c-0.273,0.066-0.542,0.207-0.757,0.423
				c-0.217,0.215-0.356,0.484-0.423,0.758c-0.101,0.411-0.054,0.832,0.088,1.235c0.144,0.4,0.388,0.787,0.724,1.122
				c0.256,0.252,0.665,0.53,1.177,0.857c1.523,0.963,3.868,2.209,3.874,2.212l0.028,0.015c0.43,0.669,0.771,1.327,0.9,1.859
				c0.068,0.275,0.081,0.512,0.047,0.691c-0.036,0.183-0.102,0.313-0.238,0.453c-0.127,0.122-0.254,0.185-0.449,0.216
				c-0.286,0.046-0.712-0.03-1.163-0.214c-0.399-0.16-0.813-0.397-1.202-0.648c-0.01-0.018-0.018-0.033-0.029-0.051l-0.024,0.018
				c-0.034-0.023-0.069-0.042-0.103-0.064l-0.002,0.003l-0.015-0.028c-0.002-0.004-0.557-1.048-1.211-2.192
				c-0.327-0.574-0.679-1.172-1-1.681c-0.327-0.512-0.605-0.922-0.857-1.178c-0.449-0.447-0.983-0.734-1.53-0.831
				c-0.274-0.05-0.555-0.048-0.828,0.02c-0.273,0.066-0.542,0.207-0.757,0.424c-0.216,0.214-0.356,0.483-0.424,0.757
				c-0.1,0.411-0.054,0.833,0.089,1.234c0.144,0.4,0.389,0.787,0.724,1.123c0.257,0.252,0.667,0.529,1.179,0.855
				c1.521,0.965,3.866,2.21,3.871,2.214l0.031,0.016c0.431,0.67,0.771,1.329,0.896,1.861c0.067,0.276,0.079,0.512,0.043,0.693
				c-0.035,0.182-0.102,0.313-0.238,0.454c-0.128,0.123-0.252,0.183-0.444,0.213c-0.283,0.045-0.705-0.035-1.153-0.222
				c-0.403-0.164-0.823-0.408-1.217-0.667c-0.009-0.012-0.014-0.026-0.023-0.038l-0.019,0.013c-0.031-0.021-0.065-0.04-0.097-0.062
				l-0.008,0.011l-0.016-0.028c-0.001-0.004-0.557-1.049-1.21-2.194c-0.327-0.572-0.679-1.17-1.001-1.68
				c-0.326-0.512-0.604-0.922-0.856-1.178c-0.448-0.447-0.983-0.734-1.53-0.831c-0.274-0.049-0.554-0.048-0.827,0.02
				c-0.273,0.066-0.543,0.207-0.759,0.424c-0.215,0.214-0.355,0.482-0.423,0.758c-0.101,0.41-0.054,0.832,0.088,1.234
				c0.144,0.4,0.389,0.787,0.724,1.123c0.257,0.251,0.667,0.528,1.179,0.855c1.522,0.964,3.866,2.21,3.872,2.213l0.029,0.016
				c0.43,0.668,0.771,1.326,0.902,1.858c0.067,0.275,0.079,0.512,0.044,0.691c-0.034,0.183-0.102,0.313-0.238,0.454
				c-0.126,0.122-0.254,0.185-0.448,0.215c-0.287,0.047-0.712-0.029-1.162-0.215c-0.4-0.158-0.815-0.396-1.202-0.648
				c-0.012-0.017-0.02-0.033-0.031-0.05l-0.023,0.017c-0.033-0.022-0.07-0.042-0.104-0.064l-0.002,0.003l-0.014-0.026
				c-0.002-0.003-0.557-1.048-1.211-2.193c-0.326-0.573-0.679-1.17-1-1.681c-0.327-0.511-0.605-0.921-0.856-1.178
				c-0.45-0.446-0.984-0.733-1.53-0.831c-0.274-0.049-0.554-0.049-0.827,0.02c-0.276,0.068-0.544,0.208-0.758,0.423
				c-0.216,0.215-0.357,0.484-0.424,0.759c-0.101,0.41-0.055,0.833,0.089,1.233c0.142,0.402,0.387,0.789,0.723,1.125
				c0.257,0.251,0.667,0.528,1.179,0.855c1.523,0.962,3.867,2.209,3.873,2.211l0.029,0.017c0.033,0.051,0.063,0.102,0.095,0.152l0,0
				l0.001,0.001c0.383,0.616,0.685,1.217,0.802,1.709c0.068,0.275,0.08,0.511,0.045,0.692c-0.037,0.183-0.105,0.314-0.24,0.454
				c-0.128,0.124-0.253,0.184-0.444,0.214c-0.283,0.044-0.704-0.036-1.153-0.223c-0.401-0.164-0.822-0.408-1.216-0.665
				c-0.009-0.013-0.016-0.027-0.025-0.04l-0.019,0.013c-0.032-0.021-0.067-0.039-0.099-0.061l-0.006,0.008l-0.014-0.027
				c-0.002-0.002-0.557-1.048-1.212-2.191c-0.327-0.574-0.677-1.173-1.001-1.681c-0.326-0.513-0.603-0.923-0.856-1.178
				c-0.448-0.448-0.982-0.735-1.53-0.832c-0.273-0.049-0.553-0.049-0.827,0.02c-0.273,0.067-0.543,0.208-0.757,0.424
				c-0.217,0.215-0.357,0.483-0.424,0.757c-0.101,0.412-0.054,0.833,0.089,1.235c0.144,0.4,0.387,0.787,0.723,1.123
				c0.256,0.253,0.666,0.53,1.179,0.855c1.522,0.964,3.867,2.209,3.872,2.213l0.03,0.015c0.428,0.67,0.771,1.327,0.898,1.86
				c0.068,0.275,0.082,0.511,0.047,0.69c-0.036,0.184-0.103,0.313-0.237,0.453c-0.128,0.123-0.255,0.186-0.45,0.217
				c-0.287,0.047-0.711-0.031-1.163-0.214c-0.453-0.181-0.931-0.456-1.358-0.746l-0.002,0.001l-0.014-0.027
				c-0.002-0.003-0.558-1.047-1.212-2.191c-0.326-0.575-0.679-1.172-1-1.682c-0.327-0.512-0.605-0.92-0.857-1.177
				c-0.449-0.447-0.983-0.735-1.529-0.832c-0.274-0.05-0.555-0.048-0.828,0.021c-0.273,0.066-0.543,0.207-0.757,0.422
				c-0.217,0.216-0.356,0.484-0.423,0.758c-0.102,0.412-0.056,0.834,0.088,1.234c0.142,0.402,0.388,0.788,0.724,1.123
				c0.255,0.253,0.665,0.531,1.179,0.855c1.521,0.965,3.866,2.21,3.871,2.214l0.178,0.093l-0.054,0.075
				c0.627,0.424,1.353,0.832,2.097,1.03c0.373,0.098,0.755,0.146,1.141,0.09c0.387-0.055,0.782-0.229,1.093-0.542
				c0.302-0.299,0.488-0.677,0.557-1.057c0.096-0.548-0.018-1.087-0.216-1.625c0.138,0.052,0.274,0.104,0.413,0.142
				c0.37,0.1,0.75,0.15,1.138,0.098c0.385-0.053,0.78-0.227,1.091-0.54c0.301-0.299,0.488-0.675,0.556-1.054
				c0.101-0.552-0.011-1.097-0.212-1.637c0.14,0.052,0.28,0.104,0.422,0.143c0.374,0.098,0.756,0.145,1.144,0.088
				c0.384-0.052,0.78-0.228,1.09-0.539c0.304-0.301,0.49-0.679,0.556-1.058c0.1-0.551-0.015-1.091-0.215-1.627
				c0.137,0.053,0.275,0.104,0.415,0.143c0.369,0.101,0.749,0.151,1.136,0.099c0.385-0.052,0.781-0.228,1.092-0.54
				c0.302-0.299,0.489-0.676,0.558-1.054c0.099-0.552-0.013-1.096-0.212-1.636c0.139,0.052,0.279,0.104,0.421,0.142
				c0.373,0.097,0.755,0.145,1.142,0.088c0.386-0.053,0.782-0.228,1.092-0.54c0.303-0.3,0.49-0.678,0.557-1.058
				c0.097-0.549-0.018-1.09-0.216-1.626c0.137,0.053,0.274,0.104,0.414,0.143C62.109,153.712,62.489,153.763,62.878,153.709z
				 M58.906,146.082c-0.321-0.212-0.575-0.405-0.669-0.501c-0.32-0.32-0.51-0.699-0.563-1.01c-0.027-0.156-0.021-0.29,0.005-0.39
				c0.026-0.101,0.063-0.166,0.116-0.222c0.057-0.054,0.122-0.092,0.223-0.117c0.15-0.04,0.38-0.031,0.633,0.061
				c0.253,0.089,0.525,0.259,0.766,0.499c0.133,0.127,0.421,0.529,0.726,1.013c0.407,0.646,0.875,1.454,1.272,2.164
				c-0.439-0.247-0.915-0.519-1.37-0.789C59.625,146.541,59.229,146.297,58.906,146.082z M40.96,164.028
				c-0.322-0.211-0.576-0.405-0.67-0.5c-0.321-0.32-0.51-0.699-0.563-1.009c-0.028-0.155-0.021-0.291,0.004-0.39
				c0.026-0.102,0.063-0.166,0.118-0.223c0.055-0.053,0.12-0.091,0.222-0.117c0.148-0.039,0.379-0.029,0.632,0.061
				s0.526,0.259,0.767,0.499c0.131,0.129,0.42,0.53,0.724,1.014c0.409,0.646,0.876,1.454,1.275,2.162
				c-0.44-0.246-0.916-0.518-1.371-0.787C41.678,164.488,41.282,164.243,40.96,164.028z M43.953,161.035
				c-0.322-0.211-0.575-0.405-0.669-0.501c-0.321-0.319-0.512-0.698-0.564-1.009c-0.027-0.155-0.021-0.29,0.005-0.39
				c0.026-0.101,0.064-0.167,0.117-0.223c0.055-0.052,0.121-0.091,0.223-0.118c0.148-0.037,0.379-0.028,0.632,0.062
				s0.526,0.259,0.767,0.499c0.132,0.128,0.421,0.529,0.726,1.012c0.408,0.646,0.875,1.455,1.272,2.165
				c-0.439-0.246-0.916-0.518-1.37-0.788C44.672,161.494,44.274,161.251,43.953,161.035z M46.942,158.046
				c-0.322-0.211-0.577-0.404-0.67-0.5c-0.322-0.319-0.511-0.699-0.564-1.009c-0.028-0.155-0.02-0.291,0.005-0.39
				c0.026-0.102,0.063-0.166,0.117-0.223c0.056-0.053,0.122-0.092,0.223-0.117c0.149-0.039,0.379-0.03,0.633,0.061
				c0.253,0.09,0.526,0.258,0.767,0.498c0.13,0.13,0.42,0.53,0.724,1.014c0.408,0.646,0.874,1.455,1.271,2.163
				c-0.438-0.247-0.913-0.519-1.368-0.788C47.66,158.506,47.264,158.262,46.942,158.046z M49.935,155.053
				c-0.319-0.213-0.575-0.405-0.668-0.501c-0.32-0.32-0.511-0.699-0.563-1.01c-0.027-0.156-0.021-0.29,0.004-0.389
				c0.026-0.102,0.065-0.168,0.117-0.223c0.057-0.054,0.121-0.091,0.222-0.117c0.15-0.039,0.38-0.03,0.633,0.061
				c0.254,0.089,0.525,0.26,0.766,0.5c0.133,0.127,0.422,0.528,0.727,1.011c0.407,0.646,0.874,1.455,1.272,2.164
				c-0.44-0.246-0.915-0.518-1.37-0.787C50.654,155.513,50.258,155.268,49.935,155.053z M52.924,152.064
				c-0.32-0.213-0.575-0.405-0.669-0.501c-0.32-0.32-0.51-0.7-0.563-1.011c-0.028-0.155-0.021-0.289,0.004-0.389
				c0.025-0.101,0.063-0.166,0.116-0.222c0.056-0.053,0.122-0.091,0.224-0.118c0.148-0.038,0.379-0.029,0.632,0.061
				s0.526,0.259,0.767,0.499c0.131,0.129,0.421,0.529,0.724,1.014c0.408,0.646,0.875,1.453,1.272,2.163
				c-0.438-0.247-0.914-0.518-1.367-0.789C53.644,152.523,53.245,152.28,52.924,152.064z M55.918,149.07
				c-0.321-0.212-0.575-0.405-0.669-0.501c-0.32-0.32-0.511-0.699-0.563-1.009c-0.027-0.155-0.021-0.29,0.004-0.39
				c0.026-0.101,0.065-0.168,0.118-0.224c0.055-0.052,0.121-0.09,0.222-0.116c0.149-0.039,0.379-0.029,0.633,0.06
				c0.252,0.091,0.525,0.26,0.766,0.5c0.132,0.128,0.422,0.528,0.725,1.013c0.409,0.645,0.876,1.454,1.274,2.163
				c-0.44-0.245-0.917-0.517-1.372-0.787C56.637,149.529,56.24,149.285,55.918,149.07z"/>
			<g>
				<path fill="none" stroke="#ECF0F1" d="M119.061,158.954l-3.669-3.67l3.605-3.605c0.809-0.752,0.997-1.563,0.931-2.475
					l5.151-0.616c0.345,2.457-0.691,5.196-2.412,6.76L119.061,158.954z"/>
				
					<rect x="111.025" y="155.626" transform="matrix(0.707 0.7072 -0.7072 0.707 146.9542 -33.2618)" fill="none" stroke="#ECF0F1" width="5.189" height="10.199"/>
				
					<rect x="103.983" y="162.667" transform="matrix(0.7071 0.7071 -0.7071 0.7071 149.8456 -26.2241)" fill="none" stroke="#ECF0F1" width="5.19" height="10.201"/>
				
					<rect x="96.771" y="169.881" transform="matrix(0.707 0.7072 -0.7072 0.707 152.8586 -19.0048)" fill="none" stroke="#ECF0F1" width="5.189" height="10.198"/>
			</g>
			<path fill="none" stroke="#ECF0F1" d="M65.792,78.394l3.669,3.67l-3.605,3.605c-0.809,0.752-0.997,1.563-0.931,2.475
				l-5.151,0.616c-0.344-2.456,0.691-5.196,2.412-6.76L65.792,78.394z"/>
			
				<rect x="68.638" y="71.523" transform="matrix(-0.707 -0.7072 0.7072 -0.707 67.4071 181.1713)" fill="none" stroke="#ECF0F1" width="5.189" height="10.199"/>
			
				<rect x="75.68" y="64.48" transform="matrix(-0.707 -0.7072 0.7072 -0.707 84.4092 174.1302)" fill="none" stroke="#ECF0F1" width="5.189" height="10.201"/>
			
				<rect x="82.892" y="57.269" transform="matrix(-0.7071 -0.7071 0.7071 -0.7071 101.8342 166.9174)" fill="none" stroke="#ECF0F1" width="5.19" height="10.198"/>
			<path fill="#303030" stroke="#ECF0F1" d="M144.695,76.808c-1.107-1.107-2.43-1.865-3.832-2.276
				c-2.388-0.698-3.918-2.229-4.617-4.617c-0.411-1.402-1.168-2.725-2.275-3.831c-3.525-3.525-9.245-3.527-12.771,0
				c-3.389,3.388-3.511,8.796-0.387,12.342c-0.009,0.009,1.949,1.979,4.255,4.289l-6.533,6.533c-5.523-4.716-12.62-6.78-19.82-6.234
				l-3.315-3.316c-2.368-2.368-6.36-2.217-8.915,0.338c-2.037,2.037-2.542,4.985-1.466,7.298c-1.728,1.005-3.398,2.178-4.986,3.524
				l-3.511-3.51l-1.231-1.232l-1.233,1.232l-32.029,32.03l-1.232,1.232l1.231,1.231l46.814,46.814l1.231,1.232l1.232-1.233
				l32.03-32.029l1.232-1.232l-1.231-1.232l-3.512-3.511c1.388-1.635,2.588-3.36,3.613-5.144c2.239,0.829,4.955,0.265,6.869-1.649
				c2.555-2.555,2.706-6.547,0.338-8.915l-2.977-2.977c0.543-7.151-1.492-14.204-6.144-19.711l6.539-6.539
				c2.313,2.314,4.283,4.285,4.283,4.285c3.567,3.09,8.965,2.962,12.349-0.422C148.221,86.052,148.22,80.332,144.695,76.808z
				 M130.718,75.602c-1.729,1.729-4.535,1.729-6.266-0.001c-1.729-1.729-1.729-4.533,0.001-6.264c1.73-1.73,4.535-1.73,6.265-0.001
				C132.448,71.066,132.448,73.871,130.718,75.602z M141.44,86.324c-1.729,1.729-4.534,1.73-6.264,0.001
				c-1.73-1.73-1.73-4.535-0.001-6.266c1.73-1.73,4.536-1.729,6.267,0.001C143.172,81.79,143.171,84.594,141.44,86.324z"/>
			<g>
				<g>
					<circle fill="#ECF0F1" stroke="#303030" cx="98.979" cy="93.214" r="3.376"/>
				</g>
				<g>
					<circle fill="#ECF0F1" stroke="#303030" cx="117.249" cy="111.483" r="3.376"/>
				</g>
			</g>
			<path fill="#303030" stroke="#ECF0F1" d="M122.063,143.11l1.813-1.814c1.122-1.122,1.122-2.941,0-4.063
				c-1.122-1.123-2.941-1.123-4.063-0.001l-8.29,8.291c-1.122,1.121-1.122,2.94,0.001,4.063c1.121,1.122,2.941,1.122,4.063,0.001
				l2.815-2.815c0.995,1.018,1.683,1.906,1.537,2.558l5.174-0.389C125.184,146.649,123.135,144.008,122.063,143.11z"/>
			<path fill="#303030" stroke="#ECF0F1" d="M61.539,100.678c-1.122-1.121-1.122-2.94,0-4.063l1.822-1.823l-0.431-0.431
				c-1.023-0.775-3.266-3.565-3.192-5.955l5.176-0.387c-0.173,0.768,0.811,1.865,2.101,3.119l2.814-2.814
				c1.122-1.121,2.941-1.12,4.063,0.001c1.122,1.122,1.123,2.941,0.001,4.063l-8.29,8.291
				C64.48,101.801,62.661,101.8,61.539,100.678z"/>
			<path fill="none" stroke="#ECF0F1" d="M93.831,57.693l-3.073,3.074l-3.67-3.67l3.023-3.023c-0.936-2.321-0.462-5.076,1.419-6.957
				c2.515-2.515,6.59-2.516,9.104-0.001c2.515,2.514,2.515,6.59,0,9.104C98.795,58.06,96.119,58.547,93.831,57.693z"/>
			<path fill="none" stroke="#ECF0F1" d="M94.7,183.314l3.064-3.064l-3.669-3.669l-3.032,3.031c-2.315-0.92-5.058-0.444-6.931,1.429
				c-2.515,2.515-2.516,6.59-0.001,9.104c2.514,2.514,6.59,2.514,9.105-0.001C95.083,188.299,95.567,185.609,94.7,183.314z"/>
			<path fill="#303030" stroke="#ECF0F1" d="M17.466,155.587c-3.152-0.118-3.875,2.222-1.646,4.451l32.866,32.866
				c2.23,2.23,4.569,1.507,4.452-1.645c-0.301-8.131-4.221-17.055-11.42-24.254S25.596,155.887,17.466,155.587z"/>
			<g>
				<g>
					<path fill="#CE4D45" d="M96.854,151.691c0,0,0.105-1.927,0.055-3.102c-0.053-1.207-0.38-3.233-0.38-3.233
						c-0.051-0.99-0.896-1.783-1.886-1.773l-4.697,0.046c0,0,6.332-6.125,7.958-11.532c0.228-0.76-0.271-1.67-0.991-2.002
						l-1.473-0.682c-0.718-0.332-1.508,0.008-1.867,0.715c-1.25,2.464-3.844,5.97-5.448,7.639c-1.228,1.278-5.603,5.7-5.497,10.093
						c0.085,3.511,2.71,6.523,7.164,6.484c2.322-0.02,4.169-0.254,5.403-0.475C96.171,153.698,96.903,152.681,96.854,151.691z"/>
					<path fill="#ECF0F1" d="M96.058,120.534c-0.418,0.096-0.843-0.207-0.948-0.676l0,0c-0.105-0.467,0.147-0.921,0.566-1.016
						l2.214-0.5c0.419-0.094,0.844,0.208,0.949,0.674l0,0c0.106,0.469-0.148,0.924-0.567,1.019L96.058,120.534z"/>
					
						<ellipse transform="matrix(0.044 0.999 -0.999 0.044 239.9068 46.7022)" fill="#ECF0F1" cx="95.552" cy="148.699" rx="3.654" ry="0.538"/>
					<g>
						<path fill="#CE4D45" d="M96.597,123.55c-0.069-1.579-0.353-2.859-0.482-3.378l0,0c-0.045-0.172-0.066-0.247-0.066-0.247l0,0
							l1.947-0.585c0.016,0.052,0.528,1.762,0.633,4.121l0,0c0.102,2.407-0.208,5.537-2.065,8.222l0,0l-1.67-1.161
							C96.381,128.393,96.694,125.712,96.597,123.55L96.597,123.55z"/>
					</g>
				</g>
				<g>
					<path fill="#DFAA5A" d="M91.538,103.599c-5.881-0.162-12.461-1.737-12.811-9.02c-2.8,7.44,2.607,17.281,9.297,20.748
						C98.157,120.577,104.337,103.95,91.538,103.599z"/>
					<path fill="#DFAA5A" d="M107.27,119.33c0.161,5.88,1.736,12.46,9.019,12.81c-7.439,2.801-17.281-2.607-20.748-9.298
						C90.289,112.709,106.917,106.529,107.27,119.33z"/>
				</g>
			</g>
		</g>
	</g>
	<g>
		<defs>
			<circle id="XMLID_11_" cx="100.333" cy="100.5" r="95.576"/>
		</defs>
		<radialGradient id="XMLID_14_" cx="100.333" cy="100.501" r="95.5757" gradientUnits="userSpaceOnUse">
			<stop  offset="0" style="stop-color:#000000;stop-opacity:0"/>
			<stop  offset="0.8587" style="stop-color:#000000;stop-opacity:0.5581"/>
			<stop  offset="1" style="stop-color:#000000;stop-opacity:0.65"/>
		</radialGradient>
		<use xlink:href="#XMLID_11_"  overflow="visible" fill="url(#XMLID_14_)"/>
		<clipPath id="XMLID_15_">
			<use xlink:href="#XMLID_11_"  overflow="visible"/>
		</clipPath>
	</g>
</g>
</svg>
