<?xml version="1.0" encoding="utf-8"?>
<!-- Generator: Adobe Illustrator 16.0.0, SVG Export Plug-In . SVG Version: 6.00 Build 0)  -->
<!DOCTYPE svg PUBLIC "-//W3C//DTD SVG 1.1//EN" "http://www.w3.org/Graphics/SVG/1.1/DTD/svg11.dtd">
<svg version="1.1" xmlns="http://www.w3.org/2000/svg" xmlns:xlink="http://www.w3.org/1999/xlink" x="0px" y="0px" width="200px"
	 height="130px" viewBox="0 0 200 130" enable-background="new 0 0 200 130" xml:space="preserve">
<g id="Layer_1">
	<g>
		<g>
			<path fill="#B52145" d="M186.145,16.74c1.335,0,2.42,1.087,2.42,2.422v99.526c0,1.336-1.085,2.423-2.42,2.423H13.274
				c-1.335,0-2.422-1.087-2.422-2.423V19.162c0-1.335,1.086-2.422,2.422-2.422H186.145 M186.145,15.561H13.274
				c-1.98,0-3.602,1.62-3.602,3.602v99.526c0,1.979,1.622,3.603,3.602,3.603h172.87c1.98,0,3.601-1.623,3.601-3.603V19.162
				C189.745,17.181,188.125,15.561,186.145,15.561L186.145,15.561z"/>
		</g>
		<path fill="#B52145" d="M186.145,10.158H13.274c-1.98,0-3.602,1.62-3.602,3.603v14.404v1.803v3.602h3.602h172.87h3.601v-3.602
			v-1.803V13.761C189.745,11.778,188.125,10.158,186.145,10.158z"/>
		<g>
			<rect x="18.732" y="16.474" fill="none" width="133.13" height="14.796"/>
			<text transform="matrix(1 0 0 1 18.7314 26.4287)" fill="#FFFFFF" font-family="'OpenSans-Semibold'" font-size="13.097">UI/UX</text>
		</g>
		<g>
			<g>
				<path fill="#606161" d="M23.833,52.117c0,0.671-0.22,1.186-0.659,1.543s-1.065,0.535-1.876,0.535H20.63V56.6h-1.05v-6.425h1.85
					c0.803,0,1.404,0.164,1.804,0.492C23.634,50.995,23.833,51.479,23.833,52.117z M20.63,53.313h0.558
					c0.539,0,0.935-0.094,1.187-0.281s0.378-0.48,0.378-0.879c0-0.369-0.113-0.645-0.338-0.826s-0.577-0.272-1.055-0.272H20.63
					V53.313z"/>
				<path fill="#606161" d="M29.283,56.6h-1.037v-2.988c0-0.375-0.076-0.654-0.226-0.84c-0.151-0.184-0.391-0.276-0.719-0.276
					c-0.434,0-0.752,0.13-0.956,0.389c-0.204,0.26-0.305,0.694-0.305,1.304V56.6h-1.033v-6.838h1.033v1.736
					c0,0.278-0.018,0.575-0.053,0.892h0.066c0.141-0.234,0.336-0.416,0.587-0.545c0.25-0.129,0.542-0.193,0.876-0.193
					c1.178,0,1.767,0.593,1.767,1.78V56.6z"/>
				<path fill="#606161" d="M35.031,54.16c0,0.795-0.204,1.414-0.611,1.859s-0.974,0.668-1.701,0.668
					c-0.454,0-0.855-0.103-1.204-0.308s-0.617-0.499-0.804-0.884c-0.188-0.383-0.281-0.828-0.281-1.336
					c0-0.787,0.202-1.402,0.606-1.846c0.404-0.441,0.974-0.663,1.709-0.663c0.703,0,1.26,0.227,1.67,0.679
					C34.826,52.783,35.031,53.394,35.031,54.16z M31.493,54.16c0,1.123,0.415,1.684,1.244,1.684c0.82,0,1.23-0.561,1.23-1.684
					c0-1.109-0.413-1.665-1.239-1.665c-0.434,0-0.748,0.144-0.943,0.431S31.493,53.625,31.493,54.16z"/>
				<path fill="#606161" d="M38.028,55.853c0.252,0,0.504-0.04,0.756-0.118v0.777c-0.114,0.05-0.262,0.092-0.441,0.125
					c-0.181,0.034-0.367,0.051-0.561,0.051c-0.979,0-1.468-0.516-1.468-1.547v-2.619H35.65v-0.457l0.712-0.378l0.352-1.028h0.637
					v1.081h1.384v0.782h-1.384v2.602c0,0.249,0.062,0.433,0.187,0.552C37.662,55.793,37.826,55.853,38.028,55.853z"/>
				<path fill="#606161" d="M44.066,54.16c0,0.795-0.204,1.414-0.611,1.859s-0.974,0.668-1.701,0.668
					c-0.454,0-0.855-0.103-1.204-0.308s-0.617-0.499-0.804-0.884c-0.188-0.383-0.281-0.828-0.281-1.336
					c0-0.787,0.202-1.402,0.606-1.846c0.404-0.441,0.974-0.663,1.709-0.663c0.703,0,1.26,0.227,1.67,0.679
					C43.861,52.783,44.066,53.394,44.066,54.16z M40.528,54.16c0,1.123,0.415,1.684,1.244,1.684c0.82,0,1.23-0.561,1.23-1.684
					c0-1.109-0.413-1.665-1.239-1.665c-0.434,0-0.748,0.144-0.943,0.431S40.528,53.625,40.528,54.16z"/>
				<path fill="#606161" d="M48.518,55.215c0,0.475-0.173,0.839-0.519,1.093c-0.346,0.253-0.841,0.38-1.485,0.38
					c-0.647,0-1.167-0.098-1.56-0.295v-0.892c0.571,0.264,1.103,0.396,1.595,0.396c0.636,0,0.954-0.191,0.954-0.576
					c0-0.123-0.035-0.225-0.105-0.307s-0.186-0.168-0.347-0.256s-0.385-0.187-0.672-0.299c-0.56-0.216-0.938-0.433-1.136-0.65
					c-0.198-0.216-0.297-0.497-0.297-0.844c0-0.415,0.167-0.738,0.503-0.969c0.335-0.229,0.792-0.345,1.369-0.345
					c0.571,0,1.112,0.116,1.622,0.347l-0.334,0.778c-0.524-0.217-0.965-0.325-1.323-0.325c-0.545,0-0.817,0.155-0.817,0.466
					c0,0.152,0.071,0.281,0.213,0.387s0.452,0.251,0.93,0.435c0.401,0.156,0.693,0.298,0.875,0.427s0.316,0.277,0.404,0.446
					C48.474,54.779,48.518,54.981,48.518,55.215z"/>
				<path fill="#606161" d="M53.91,56.6h-1.037v-2.988c0-0.375-0.076-0.654-0.226-0.84c-0.151-0.184-0.391-0.276-0.719-0.276
					c-0.434,0-0.752,0.13-0.956,0.389c-0.204,0.26-0.305,0.694-0.305,1.304V56.6h-1.033v-6.838h1.033v1.736
					c0,0.278-0.018,0.575-0.053,0.892h0.066c0.141-0.234,0.336-0.416,0.587-0.545c0.25-0.129,0.542-0.193,0.876-0.193
					c1.178,0,1.767,0.593,1.767,1.78V56.6z"/>
				<path fill="#606161" d="M59.658,54.16c0,0.795-0.204,1.414-0.611,1.859s-0.974,0.668-1.701,0.668
					c-0.454,0-0.855-0.103-1.204-0.308s-0.617-0.499-0.804-0.884c-0.188-0.383-0.281-0.828-0.281-1.336
					c0-0.787,0.202-1.402,0.606-1.846c0.404-0.441,0.974-0.663,1.709-0.663c0.703,0,1.26,0.227,1.67,0.679
					C59.453,52.783,59.658,53.394,59.658,54.16z M56.12,54.16c0,1.123,0.415,1.684,1.244,1.684c0.82,0,1.23-0.561,1.23-1.684
					c0-1.109-0.413-1.665-1.239-1.665c-0.434,0-0.748,0.144-0.943,0.431S56.12,53.625,56.12,54.16z"/>
				<path fill="#606161" d="M63.31,56.688c-0.615,0-1.093-0.221-1.433-0.664h-0.062c0.041,0.411,0.062,0.66,0.062,0.748v1.99h-1.033
					v-7.022h0.835c0.023,0.091,0.072,0.308,0.145,0.65h0.053c0.322-0.492,0.806-0.738,1.45-0.738c0.606,0,1.079,0.22,1.417,0.659
					c0.338,0.439,0.507,1.057,0.507,1.85c0,0.795-0.172,1.414-0.516,1.859C64.391,56.465,63.916,56.688,63.31,56.688z
					 M63.059,52.495c-0.41,0-0.71,0.12-0.898,0.36c-0.189,0.24-0.284,0.624-0.284,1.151v0.153c0,0.593,0.094,1.021,0.281,1.286
					c0.188,0.265,0.494,0.397,0.918,0.397c0.357,0,0.633-0.146,0.826-0.439s0.29-0.71,0.29-1.252c0-0.545-0.096-0.958-0.288-1.237
					C63.713,52.635,63.431,52.495,63.059,52.495z"/>
				<path fill="#606161" d="M19.58,67.399v-6.425h1.05v6.425H19.58z"/>
				<path fill="#606161" d="M23.249,67.399h-1.033v-6.838h1.033V67.399z"/>
				<path fill="#606161" d="M25.758,67.399h-1.033v-6.838h1.033V67.399z"/>
				<path fill="#606161" d="M30.663,67.399l-0.145-0.637h-0.053c-0.144,0.226-0.348,0.402-0.613,0.531
					c-0.266,0.129-0.568,0.193-0.908,0.193c-0.589,0-1.028-0.146-1.318-0.439s-0.435-0.736-0.435-1.332v-3.177h1.042v2.997
					c0,0.372,0.076,0.651,0.229,0.837c0.152,0.187,0.391,0.279,0.716,0.279c0.434,0,0.752-0.13,0.956-0.389
					c0.203-0.26,0.305-0.693,0.305-1.304v-2.421h1.037v4.86H30.663z"/>
				<path fill="#606161" d="M36.213,66.015c0,0.475-0.173,0.839-0.519,1.093c-0.346,0.253-0.841,0.38-1.485,0.38
					c-0.647,0-1.167-0.098-1.56-0.295v-0.892c0.571,0.264,1.103,0.396,1.595,0.396c0.636,0,0.954-0.191,0.954-0.576
					c0-0.123-0.035-0.225-0.105-0.307s-0.186-0.168-0.347-0.256s-0.385-0.187-0.672-0.299c-0.56-0.216-0.938-0.433-1.136-0.65
					c-0.198-0.216-0.297-0.497-0.297-0.844c0-0.415,0.167-0.738,0.503-0.969c0.335-0.229,0.792-0.345,1.369-0.345
					c0.571,0,1.112,0.116,1.622,0.347L35.8,63.576c-0.524-0.217-0.965-0.325-1.323-0.325c-0.545,0-0.817,0.155-0.817,0.466
					c0,0.152,0.071,0.281,0.213,0.387s0.452,0.251,0.93,0.435c0.401,0.156,0.693,0.298,0.875,0.427s0.316,0.277,0.404,0.446
					C36.169,65.579,36.213,65.781,36.213,66.015z"/>
				<path fill="#606161" d="M39.14,66.652c0.252,0,0.504-0.04,0.756-0.118v0.777c-0.114,0.05-0.262,0.092-0.441,0.125
					c-0.181,0.034-0.367,0.051-0.561,0.051c-0.979,0-1.468-0.516-1.468-1.547v-2.619h-0.664v-0.457l0.712-0.378l0.352-1.028h0.637
					v1.081h1.384v0.782h-1.384v2.602c0,0.249,0.062,0.433,0.187,0.552C38.774,66.593,38.938,66.652,39.14,66.652z"/>
				<path fill="#606161" d="M43.332,62.451c0.208,0,0.379,0.015,0.514,0.044l-0.101,0.963c-0.146-0.035-0.299-0.053-0.457-0.053
					c-0.413,0-0.748,0.135-1.004,0.404s-0.384,0.619-0.384,1.05v2.54h-1.033v-4.86h0.809l0.136,0.856h0.053
					c0.161-0.289,0.372-0.52,0.63-0.689C42.754,62.536,43.033,62.451,43.332,62.451z"/>
				<path fill="#606161" d="M47.788,67.399l-0.207-0.677h-0.035c-0.234,0.296-0.47,0.497-0.708,0.604
					c-0.237,0.106-0.542,0.16-0.914,0.16c-0.478,0-0.851-0.129-1.118-0.387c-0.269-0.258-0.402-0.622-0.402-1.094
					c0-0.502,0.186-0.879,0.558-1.135c0.372-0.254,0.939-0.394,1.701-0.417l0.839-0.026v-0.26c0-0.31-0.073-0.542-0.217-0.696
					c-0.146-0.153-0.37-0.23-0.675-0.23c-0.249,0-0.488,0.037-0.716,0.11s-0.448,0.159-0.659,0.259l-0.334-0.738
					c0.264-0.138,0.552-0.242,0.866-0.314c0.313-0.071,0.609-0.107,0.888-0.107c0.618,0,1.084,0.135,1.399,0.404
					s0.473,0.693,0.473,1.271v3.273H47.788z M46.25,66.696c0.375,0,0.676-0.104,0.903-0.314c0.227-0.209,0.34-0.503,0.34-0.881
					v-0.422l-0.624,0.026c-0.486,0.018-0.84,0.099-1.061,0.244c-0.222,0.145-0.332,0.366-0.332,0.665
					c0,0.218,0.064,0.385,0.193,0.504C45.799,66.637,45.992,66.696,46.25,66.696z"/>
				<path fill="#606161" d="M51.778,66.652c0.252,0,0.504-0.04,0.756-0.118v0.777c-0.114,0.05-0.262,0.092-0.441,0.125
					c-0.181,0.034-0.367,0.051-0.561,0.051c-0.979,0-1.468-0.516-1.468-1.547v-2.619h-0.664v-0.457l0.712-0.378l0.352-1.028h0.637
					v1.081h1.384v0.782h-1.384v2.602c0,0.249,0.062,0.433,0.187,0.552C51.413,66.593,51.576,66.652,51.778,66.652z"/>
				<path fill="#606161" d="M57.816,64.96c0,0.795-0.204,1.414-0.611,1.859s-0.974,0.668-1.701,0.668
					c-0.454,0-0.855-0.103-1.204-0.308s-0.617-0.499-0.804-0.884c-0.188-0.383-0.281-0.828-0.281-1.336
					c0-0.787,0.202-1.402,0.606-1.846c0.404-0.441,0.974-0.663,1.709-0.663c0.703,0,1.26,0.227,1.67,0.679
					C57.611,63.583,57.816,64.193,57.816,64.96z M54.279,64.96c0,1.123,0.415,1.684,1.244,1.684c0.82,0,1.23-0.561,1.23-1.684
					c0-1.109-0.413-1.665-1.239-1.665c-0.434,0-0.748,0.144-0.943,0.431S54.279,64.425,54.279,64.96z"/>
				<path fill="#606161" d="M61.468,62.451c0.208,0,0.379,0.015,0.514,0.044l-0.101,0.963c-0.146-0.035-0.299-0.053-0.457-0.053
					c-0.413,0-0.748,0.135-1.004,0.404s-0.384,0.619-0.384,1.05v2.54h-1.033v-4.86h0.809l0.136,0.856H60
					c0.161-0.289,0.372-0.52,0.63-0.689C60.891,62.536,61.169,62.451,61.468,62.451z"/>
				<path fill="#606161" d="M23.565,78.2l-0.642-1.784h-2.457L19.839,78.2h-1.107l2.404-6.451h1.143l2.404,6.451H23.565z
					 M22.647,75.511l-0.602-1.749c-0.044-0.117-0.105-0.302-0.183-0.554s-0.131-0.437-0.16-0.554
					c-0.079,0.36-0.195,0.755-0.347,1.183l-0.58,1.674H22.647z"/>
				<path fill="#606161" d="M27.859,74.122h-1.187V78.2h-1.037v-4.078h-0.8v-0.483l0.8-0.316v-0.316c0-0.574,0.135-1,0.404-1.276
					c0.27-0.277,0.681-0.416,1.235-0.416c0.363,0,0.721,0.061,1.072,0.181l-0.272,0.782c-0.255-0.082-0.498-0.123-0.729-0.123
					c-0.234,0-0.405,0.072-0.512,0.218c-0.107,0.145-0.161,0.362-0.161,0.652v0.316h1.187V74.122z"/>
				<path fill="#606161" d="M30.496,77.453c0.252,0,0.504-0.04,0.756-0.118v0.777c-0.114,0.05-0.262,0.092-0.441,0.125
					c-0.181,0.034-0.367,0.051-0.561,0.051c-0.979,0-1.468-0.516-1.468-1.547v-2.619h-0.664v-0.457l0.712-0.378l0.352-1.028h0.637
					v1.081h1.384v0.782h-1.384v2.602c0,0.249,0.062,0.433,0.187,0.552C30.13,77.394,30.293,77.453,30.496,77.453z"/>
				<path fill="#606161" d="M34.345,78.288c-0.756,0-1.347-0.221-1.773-0.661c-0.427-0.441-0.64-1.048-0.64-1.821
					c0-0.794,0.198-1.418,0.593-1.873c0.396-0.453,0.939-0.681,1.63-0.681c0.642,0,1.148,0.195,1.521,0.585s0.558,0.926,0.558,1.607
					v0.559h-3.239c0.015,0.472,0.142,0.834,0.382,1.088c0.24,0.253,0.579,0.38,1.015,0.38c0.287,0,0.554-0.027,0.802-0.081
					c0.248-0.055,0.514-0.145,0.798-0.271v0.839c-0.252,0.121-0.507,0.206-0.765,0.256C34.971,78.263,34.676,78.288,34.345,78.288z
					 M34.156,74.034c-0.328,0-0.591,0.104-0.789,0.313c-0.197,0.208-0.315,0.511-0.354,0.909h2.206
					c-0.006-0.401-0.103-0.705-0.29-0.912C34.742,74.138,34.484,74.034,34.156,74.034z"/>
				<path fill="#606161" d="M39.874,73.252c0.208,0,0.379,0.015,0.514,0.044l-0.101,0.963c-0.146-0.035-0.299-0.053-0.457-0.053
					c-0.413,0-0.748,0.135-1.004,0.404s-0.384,0.619-0.384,1.05v2.54h-1.033v-4.86h0.809l0.136,0.856h0.053
					c0.161-0.289,0.372-0.52,0.63-0.689C39.296,73.337,39.575,73.252,39.874,73.252z"/>
				<path fill="#606161" d="M47.371,78.2h-3.634v-6.425h3.634v0.888h-2.584v1.749h2.421v0.879h-2.421v2.017h2.584V78.2z"/>
				<path fill="#606161" d="M51.088,74.122h-1.187V78.2h-1.037v-4.078h-0.8v-0.483l0.8-0.316v-0.316c0-0.574,0.135-1,0.404-1.276
					c0.27-0.277,0.681-0.416,1.235-0.416c0.363,0,0.721,0.061,1.072,0.181l-0.272,0.782c-0.255-0.082-0.498-0.123-0.729-0.123
					c-0.234,0-0.405,0.072-0.512,0.218c-0.107,0.145-0.161,0.362-0.161,0.652v0.316h1.187V74.122z M54.354,74.122h-1.187V78.2H52.13
					v-4.078h-0.8v-0.483l0.8-0.316v-0.316c0-0.574,0.135-1,0.404-1.276c0.27-0.277,0.681-0.416,1.235-0.416
					c0.363,0,0.721,0.061,1.072,0.181l-0.272,0.782c-0.255-0.082-0.498-0.123-0.729-0.123c-0.234,0-0.405,0.072-0.512,0.218
					c-0.107,0.145-0.16,0.362-0.16,0.652v0.316h1.187V74.122z"/>
				<path fill="#606161" d="M57.307,78.288c-0.756,0-1.347-0.221-1.773-0.661c-0.427-0.441-0.64-1.048-0.64-1.821
					c0-0.794,0.198-1.418,0.593-1.873c0.396-0.453,0.939-0.681,1.63-0.681c0.642,0,1.148,0.195,1.521,0.585s0.558,0.926,0.558,1.607
					v0.559h-3.239c0.015,0.472,0.142,0.834,0.382,1.088c0.24,0.253,0.579,0.38,1.015,0.38c0.287,0,0.554-0.027,0.802-0.081
					c0.248-0.055,0.514-0.145,0.798-0.271v0.839c-0.252,0.121-0.507,0.206-0.765,0.256C57.932,78.263,57.638,78.288,57.307,78.288z
					 M57.118,74.034c-0.328,0-0.591,0.104-0.789,0.313c-0.197,0.208-0.315,0.511-0.354,0.909h2.206
					c-0.006-0.401-0.103-0.705-0.29-0.912C57.704,74.138,57.446,74.034,57.118,74.034z"/>
				<path fill="#606161" d="M62.33,78.288c-0.735,0-1.294-0.215-1.677-0.644c-0.382-0.43-0.573-1.045-0.573-1.849
					c0-0.816,0.2-1.445,0.6-1.885c0.4-0.439,0.978-0.659,1.734-0.659c0.513,0,0.974,0.096,1.384,0.286l-0.312,0.83
					c-0.437-0.17-0.797-0.255-1.081-0.255c-0.841,0-1.261,0.558-1.261,1.675c0,0.545,0.104,0.954,0.314,1.228
					c0.209,0.274,0.516,0.411,0.92,0.411c0.46,0,0.895-0.114,1.305-0.343v0.901c-0.185,0.108-0.382,0.186-0.591,0.232
					C62.882,78.265,62.628,78.288,62.33,78.288z"/>
				<path fill="#606161" d="M66.636,77.453c0.252,0,0.504-0.04,0.756-0.118v0.777c-0.114,0.05-0.262,0.092-0.441,0.125
					c-0.181,0.034-0.367,0.051-0.561,0.051c-0.979,0-1.468-0.516-1.468-1.547v-2.619h-0.664v-0.457l0.712-0.378l0.352-1.028h0.637
					v1.081h1.384v0.782h-1.384v2.602c0,0.249,0.062,0.433,0.187,0.552C66.271,77.394,66.434,77.453,66.636,77.453z"/>
				<path fill="#606161" d="M71.628,76.815c0,0.475-0.173,0.839-0.519,1.093c-0.346,0.253-0.841,0.38-1.485,0.38
					c-0.647,0-1.167-0.098-1.56-0.295v-0.892c0.571,0.264,1.103,0.396,1.595,0.396c0.636,0,0.954-0.191,0.954-0.576
					c0-0.123-0.035-0.225-0.105-0.307s-0.186-0.168-0.347-0.256s-0.385-0.187-0.672-0.299c-0.56-0.216-0.938-0.433-1.136-0.65
					c-0.198-0.216-0.297-0.497-0.297-0.844c0-0.415,0.167-0.738,0.503-0.969c0.335-0.229,0.792-0.345,1.369-0.345
					c0.571,0,1.112,0.116,1.622,0.347l-0.334,0.778c-0.524-0.217-0.965-0.325-1.323-0.325c-0.545,0-0.817,0.155-0.817,0.466
					c0,0.152,0.071,0.281,0.213,0.387s0.452,0.251,0.93,0.435c0.401,0.156,0.693,0.298,0.875,0.427s0.316,0.277,0.404,0.446
					C71.584,76.38,71.628,76.582,71.628,76.815z"/>
			</g>
		</g>
		<g>
			<circle fill="#B52145" cx="148.163" cy="80.27" r="30.509"/>
			<g>
				<defs>
					<path id="XMLID_4_" d="M166.463,96.455c0,1.169-0.946,2.116-2.114,2.116h-32.372c-1.168,0-2.114-0.947-2.114-2.116V64.084
						c0-1.169,0.946-2.116,2.114-2.116h32.372c1.168,0,2.114,0.947,2.114,2.116V96.455z"/>
				</defs>
				<clipPath id="XMLID_6_">
					<use xlink:href="#XMLID_4_"  overflow="visible"/>
				</clipPath>
				<g opacity="0.7" clip-path="url(#XMLID_6_)">
					
						<rect x="129.862" y="61.971" fill="none" stroke="#FFFFFF" stroke-width="0.295" stroke-miterlimit="10" width="36.601" height="36.601"/>
					
						<line fill="none" stroke="#FFFFFF" stroke-width="0.295" stroke-miterlimit="10" x1="129.862" y1="92.468" x2="166.463" y2="92.468"/>
					
						<line fill="none" stroke="#FFFFFF" stroke-width="0.295" stroke-miterlimit="10" x1="129.862" y1="86.372" x2="166.463" y2="86.372"/>
					
						<line fill="none" stroke="#FFFFFF" stroke-width="0.295" stroke-miterlimit="10" x1="129.862" y1="80.27" x2="166.463" y2="80.27"/>
					
						<line fill="none" stroke="#FFFFFF" stroke-width="0.295" stroke-miterlimit="10" x1="129.862" y1="74.167" x2="166.463" y2="74.167"/>
					
						<line fill="none" stroke="#FFFFFF" stroke-width="0.295" stroke-miterlimit="10" x1="129.862" y1="68.073" x2="166.463" y2="68.073"/>
					
						<line fill="none" stroke="#FFFFFF" stroke-width="0.295" stroke-miterlimit="10" x1="160.36" y1="61.971" x2="160.36" y2="98.571"/>
					
						<line fill="none" stroke="#FFFFFF" stroke-width="0.295" stroke-miterlimit="10" x1="154.266" y1="61.971" x2="154.266" y2="98.571"/>
					
						<line fill="none" stroke="#FFFFFF" stroke-width="0.295" stroke-miterlimit="10" x1="148.162" y1="61.971" x2="148.162" y2="98.571"/>
					
						<line fill="none" stroke="#FFFFFF" stroke-width="0.295" stroke-miterlimit="10" x1="142.059" y1="61.971" x2="142.059" y2="98.571"/>
					
						<line fill="none" stroke="#FFFFFF" stroke-width="0.295" stroke-miterlimit="10" x1="135.965" y1="61.971" x2="135.965" y2="98.571"/>
				</g>
				<use xlink:href="#XMLID_4_"  overflow="visible" fill="none" stroke="#FFFFFF" stroke-width="1.057" stroke-miterlimit="10"/>
			</g>
			<g>
				<g>
					
						<line fill="none" stroke="#FFFFFF" stroke-width="1.18" stroke-miterlimit="10" x1="134.489" y1="93.942" x2="161.836" y2="66.597"/>
					<g>
						<polygon fill="#FFFFFF" points="136.64,95.12 132.094,96.338 133.312,91.792 						"/>
					</g>
					<g>
						<polygon fill="#FFFFFF" points="163.014,68.747 164.231,64.201 159.685,65.419 						"/>
					</g>
				</g>
			</g>
			<g>
				<g>
					
						<line fill="none" stroke="#FFFFFF" stroke-width="1.18" stroke-miterlimit="10" x1="134.489" y1="66.597" x2="161.836" y2="93.942"/>
					<g>
						<polygon fill="#FFFFFF" points="133.312,68.747 132.094,64.201 136.64,65.419 						"/>
					</g>
					<g>
						<polygon fill="#FFFFFF" points="159.685,95.12 164.231,96.338 163.014,91.792 						"/>
					</g>
				</g>
			</g>
		</g>
	</g>
</g>
<g id="Layer_2">
</g>
</svg>
