<?xml version="1.0" encoding="utf-8"?>
<!-- Generator: Adobe Illustrator 16.0.0, SVG Export Plug-In . SVG Version: 6.00 Build 0)  -->
<!DOCTYPE svg PUBLIC "-//W3C//DTD SVG 1.1//EN" "http://www.w3.org/Graphics/SVG/1.1/DTD/svg11.dtd">
<svg version="1.1" xmlns="http://www.w3.org/2000/svg" xmlns:xlink="http://www.w3.org/1999/xlink" x="0px" y="0px" width="200px"
	 height="130px" viewBox="0 0 200 130" enable-background="new 0 0 200 130" xml:space="preserve">
<g id="Layer_1">
	<g>
		<g>
			<path fill="#B52145" d="M186.003,18.576c1.34,0,2.431,1.092,2.431,2.432v99.932c0,1.34-1.09,2.432-2.431,2.432H12.429
				c-1.341,0-2.432-1.092-2.432-2.432V21.008c0-1.34,1.091-2.432,2.432-2.432H186.003 M186.003,17.393H12.429
				c-1.988,0-3.616,1.627-3.616,3.615v99.932c0,1.986,1.628,3.617,3.616,3.617h173.574c1.988,0,3.616-1.631,3.616-3.617V21.008
				C189.619,19.02,187.991,17.393,186.003,17.393L186.003,17.393z"/>
		</g>
		<path fill="#B52145" d="M186.003,11.969H12.429c-1.988,0-3.616,1.627-3.616,3.615v14.465v1.809v3.615h3.616h173.574h3.616v-3.615
			v-1.809V15.584C189.619,13.596,187.991,11.969,186.003,11.969z"/>
		<g>
			<rect x="17.909" y="18.309" fill="none" width="133.672" height="14.854"/>
			<text transform="matrix(1 0 0 1 17.9092 28.2622)" fill="#FFFFFF" font-family="'OpenSans-Semibold'" font-size="13.097">Web Applications</text>
		</g>
		<circle fill="#B52145" cx="147.867" cy="82.363" r="30.633"/>
		<g>
			<g>
				<path fill="#606161" d="M19.808,56.004v2.566h-1.05v-6.425h1.815c0.829,0,1.443,0.155,1.841,0.466s0.598,0.779,0.598,1.406
					c0,0.8-0.416,1.37-1.248,1.709l1.815,2.843h-1.195l-1.538-2.566H19.808z M19.808,55.134h0.729c0.489,0,0.844-0.091,1.063-0.272
					s0.33-0.451,0.33-0.809c0-0.363-0.119-0.624-0.356-0.782s-0.595-0.237-1.072-0.237h-0.694V55.134z"/>
				<path fill="#606161" d="M27.828,58.57l-0.145-0.637H27.63c-0.144,0.226-0.348,0.403-0.613,0.532
					c-0.266,0.129-0.568,0.193-0.908,0.193c-0.589,0-1.028-0.146-1.318-0.439s-0.435-0.737-0.435-1.332V53.71h1.042v2.997
					c0,0.372,0.076,0.651,0.229,0.837c0.152,0.187,0.391,0.279,0.716,0.279c0.434,0,0.752-0.13,0.956-0.389
					c0.203-0.26,0.305-0.694,0.305-1.303V53.71h1.037v4.86H27.828z"/>
				<path fill="#606161" d="M32.596,53.622c0.606,0,1.079,0.22,1.417,0.659c0.338,0.439,0.507,1.056,0.507,1.85
					c0,0.797-0.171,1.417-0.514,1.861c-0.343,0.444-0.819,0.666-1.428,0.666c-0.615,0-1.093-0.221-1.433-0.664h-0.07l-0.189,0.576
					h-0.773v-6.838h1.033v1.626c0,0.12-0.006,0.299-0.018,0.536s-0.021,0.388-0.026,0.453h0.044
					C31.474,53.864,31.957,53.622,32.596,53.622z M32.328,54.466c-0.416,0-0.716,0.123-0.898,0.367
					c-0.184,0.245-0.278,0.654-0.284,1.228v0.07c0,0.592,0.094,1.021,0.281,1.286s0.494,0.397,0.918,0.397
					c0.366,0,0.644-0.145,0.833-0.435c0.188-0.29,0.283-0.709,0.283-1.257C33.461,55.018,33.083,54.466,32.328,54.466z"/>
				<path fill="#606161" d="M34.982,53.71h1.125l0.989,2.755c0.149,0.393,0.249,0.762,0.299,1.107h0.035
					c0.026-0.161,0.075-0.356,0.145-0.586s0.442-1.322,1.116-3.276h1.116l-2.079,5.506c-0.378,1.011-1.008,1.516-1.89,1.516
					c-0.229,0-0.451-0.025-0.668-0.075V59.84c0.155,0.035,0.333,0.053,0.532,0.053c0.498,0,0.848-0.289,1.05-0.866l0.18-0.457
					L34.982,53.71z"/>
				<path fill="#606161" d="M47.194,56.131c0,0.794-0.204,1.414-0.611,1.859s-0.974,0.668-1.701,0.668
					c-0.454,0-0.855-0.103-1.204-0.308s-0.617-0.5-0.804-0.883s-0.281-0.829-0.281-1.336c0-0.788,0.202-1.403,0.606-1.846
					s0.974-0.664,1.709-0.664c0.703,0,1.26,0.227,1.67,0.679C46.989,54.754,47.194,55.364,47.194,56.131z M43.657,56.131
					c0,1.122,0.415,1.683,1.244,1.683c0.82,0,1.23-0.561,1.23-1.683c0-1.11-0.413-1.666-1.239-1.666
					c-0.434,0-0.748,0.144-0.943,0.431S43.657,55.595,43.657,56.131z"/>
				<path fill="#606161" d="M52.657,58.57H51.62v-2.988c0-0.375-0.076-0.655-0.226-0.839c-0.151-0.185-0.391-0.277-0.719-0.277
					c-0.437,0-0.756,0.129-0.958,0.387s-0.303,0.69-0.303,1.296v2.421h-1.033v-4.86h0.809l0.145,0.637h0.053
					c0.146-0.231,0.354-0.41,0.624-0.536s0.568-0.189,0.896-0.189c1.166,0,1.749,0.593,1.749,1.78V58.57z"/>
				<path fill="#606161" d="M57.592,56.004v2.566h-1.05v-6.425h1.815c0.829,0,1.443,0.155,1.841,0.466s0.598,0.779,0.598,1.406
					c0,0.8-0.416,1.37-1.248,1.709l1.815,2.843h-1.195l-1.538-2.566H57.592z M57.592,55.134h0.729c0.489,0,0.844-0.091,1.063-0.272
					s0.33-0.451,0.33-0.809c0-0.363-0.119-0.624-0.356-0.782s-0.595-0.237-1.072-0.237h-0.694V55.134z"/>
				<path fill="#606161" d="M65.225,58.57l-0.207-0.677h-0.035c-0.234,0.296-0.47,0.498-0.708,0.604
					c-0.237,0.106-0.542,0.16-0.914,0.16c-0.478,0-0.851-0.129-1.118-0.387c-0.269-0.258-0.402-0.623-0.402-1.094
					c0-0.501,0.186-0.879,0.558-1.134s0.939-0.394,1.701-0.417l0.839-0.026V55.34c0-0.311-0.073-0.542-0.217-0.697
					c-0.146-0.153-0.37-0.23-0.675-0.23c-0.249,0-0.488,0.037-0.716,0.11s-0.448,0.16-0.659,0.259l-0.334-0.738
					c0.264-0.138,0.552-0.242,0.866-0.314c0.313-0.071,0.609-0.107,0.888-0.107c0.618,0,1.084,0.135,1.399,0.404
					s0.473,0.693,0.473,1.27v3.274H65.225z M63.687,57.867c0.375,0,0.676-0.104,0.903-0.314c0.227-0.209,0.34-0.503,0.34-0.881
					V56.25l-0.624,0.026c-0.486,0.018-0.84,0.099-1.061,0.244c-0.222,0.145-0.332,0.367-0.332,0.666
					c0,0.217,0.064,0.384,0.193,0.503C63.236,57.808,63.429,57.867,63.687,57.867z"/>
				<path fill="#606161" d="M67.343,52.422c0-0.185,0.051-0.327,0.151-0.426c0.102-0.1,0.246-0.149,0.433-0.149
					c0.182,0,0.323,0.05,0.424,0.149c0.101,0.1,0.151,0.242,0.151,0.426c0,0.176-0.051,0.314-0.151,0.416
					c-0.102,0.101-0.243,0.151-0.424,0.151c-0.188,0-0.332-0.051-0.433-0.151C67.394,52.736,67.343,52.598,67.343,52.422z
					 M68.438,58.57h-1.033v-4.86h1.033V58.57z"/>
				<path fill="#606161" d="M70.947,58.57h-1.033v-6.838h1.033V58.57z"/>
				<path fill="#606161" d="M75.688,57.186c0,0.475-0.173,0.839-0.519,1.092s-0.841,0.38-1.485,0.38
					c-0.647,0-1.167-0.098-1.56-0.294v-0.892c0.571,0.264,1.103,0.396,1.595,0.396c0.636,0,0.954-0.192,0.954-0.576
					c0-0.123-0.035-0.226-0.105-0.308s-0.186-0.167-0.347-0.255s-0.385-0.188-0.672-0.299c-0.56-0.217-0.938-0.434-1.136-0.65
					c-0.198-0.217-0.297-0.498-0.297-0.844c0-0.416,0.167-0.739,0.503-0.969c0.335-0.229,0.792-0.345,1.369-0.345
					c0.571,0,1.112,0.116,1.622,0.347l-0.334,0.778c-0.524-0.217-0.965-0.325-1.323-0.325c-0.545,0-0.817,0.155-0.817,0.466
					c0,0.152,0.071,0.281,0.213,0.387s0.452,0.25,0.93,0.435c0.401,0.155,0.693,0.297,0.875,0.426s0.316,0.278,0.404,0.446
					S75.688,56.952,75.688,57.186z"/>
				<path fill="#606161" d="M17.944,71.164c-0.287,0-0.527-0.037-0.721-0.11V70.17c0.246,0.062,0.46,0.092,0.642,0.092
					c0.574,0,0.861-0.363,0.861-1.09v-6.227h1.055v6.192c0,0.656-0.156,1.158-0.468,1.505C19.001,70.99,18.545,71.164,17.944,71.164
					z"/>
				<path fill="#606161" d="M24.378,69.371l-0.207-0.677h-0.035c-0.234,0.296-0.47,0.498-0.708,0.604
					c-0.237,0.106-0.542,0.16-0.914,0.16c-0.478,0-0.851-0.129-1.118-0.387c-0.269-0.258-0.402-0.623-0.402-1.094
					c0-0.501,0.186-0.879,0.558-1.134s0.939-0.394,1.701-0.417l0.839-0.026v-0.259c0-0.311-0.073-0.542-0.217-0.697
					c-0.146-0.153-0.37-0.23-0.675-0.23c-0.249,0-0.488,0.037-0.716,0.11s-0.448,0.16-0.659,0.259l-0.334-0.738
					c0.264-0.138,0.552-0.242,0.866-0.314c0.313-0.071,0.609-0.107,0.888-0.107c0.618,0,1.084,0.135,1.399,0.404
					s0.473,0.693,0.473,1.27v3.274H24.378z M22.84,68.667c0.375,0,0.676-0.104,0.903-0.314c0.227-0.209,0.34-0.503,0.34-0.881V67.05
					l-0.624,0.026c-0.486,0.018-0.84,0.099-1.061,0.244c-0.222,0.145-0.332,0.367-0.332,0.666c0,0.217,0.064,0.384,0.193,0.503
					C22.389,68.608,22.582,68.667,22.84,68.667z"/>
				<path fill="#606161" d="M27.665,69.371l-1.846-4.86h1.09l0.989,2.826c0.17,0.475,0.272,0.858,0.308,1.151h0.035
					c0.026-0.211,0.129-0.595,0.308-1.151l0.989-2.826h1.099l-1.854,4.86H27.665z"/>
				<path fill="#606161" d="M34.415,69.371l-0.207-0.677h-0.035c-0.234,0.296-0.47,0.498-0.708,0.604
					c-0.237,0.106-0.542,0.16-0.914,0.16c-0.478,0-0.851-0.129-1.118-0.387c-0.269-0.258-0.402-0.623-0.402-1.094
					c0-0.501,0.186-0.879,0.558-1.134s0.939-0.394,1.701-0.417l0.839-0.026v-0.259c0-0.311-0.073-0.542-0.217-0.697
					c-0.146-0.153-0.37-0.23-0.675-0.23c-0.249,0-0.488,0.037-0.716,0.11s-0.448,0.16-0.659,0.259l-0.334-0.738
					c0.264-0.138,0.552-0.242,0.866-0.314c0.313-0.071,0.609-0.107,0.888-0.107c0.618,0,1.084,0.135,1.399,0.404
					s0.473,0.693,0.473,1.27v3.274H34.415z M32.877,68.667c0.375,0,0.676-0.104,0.903-0.314c0.227-0.209,0.34-0.503,0.34-0.881
					V67.05l-0.624,0.026c-0.486,0.018-0.84,0.099-1.061,0.244c-0.222,0.145-0.332,0.367-0.332,0.666
					c0,0.217,0.064,0.384,0.193,0.503C32.426,68.608,32.619,68.667,32.877,68.667z"/>
				<path fill="#606161" d="M39.86,67.986c0,0.475-0.173,0.839-0.519,1.092s-0.841,0.38-1.485,0.38c-0.647,0-1.167-0.098-1.56-0.294
					v-0.892c0.571,0.264,1.103,0.396,1.595,0.396c0.636,0,0.954-0.192,0.954-0.576c0-0.123-0.035-0.226-0.105-0.308
					s-0.186-0.167-0.347-0.255s-0.385-0.188-0.672-0.299c-0.56-0.217-0.938-0.434-1.136-0.65c-0.198-0.217-0.297-0.498-0.297-0.844
					c0-0.416,0.167-0.739,0.503-0.969c0.335-0.229,0.792-0.345,1.369-0.345c0.571,0,1.112,0.116,1.622,0.347l-0.334,0.778
					c-0.524-0.217-0.965-0.325-1.323-0.325c-0.545,0-0.817,0.155-0.817,0.466c0,0.152,0.071,0.281,0.213,0.387
					s0.452,0.25,0.93,0.435c0.401,0.155,0.693,0.297,0.875,0.426s0.316,0.278,0.404,0.446S39.86,67.752,39.86,67.986z"/>
				<path fill="#606161" d="M42.936,69.458c-0.735,0-1.294-0.214-1.677-0.644c-0.382-0.429-0.573-1.045-0.573-1.848
					c0-0.817,0.2-1.446,0.6-1.885c0.4-0.439,0.978-0.659,1.734-0.659c0.513,0,0.974,0.095,1.384,0.286l-0.312,0.831
					c-0.437-0.17-0.797-0.255-1.081-0.255c-0.841,0-1.261,0.558-1.261,1.674c0,0.545,0.104,0.955,0.314,1.228
					c0.209,0.274,0.516,0.411,0.92,0.411c0.46,0,0.895-0.114,1.305-0.343v0.901c-0.185,0.108-0.382,0.186-0.591,0.233
					C43.489,69.435,43.235,69.458,42.936,69.458z"/>
				<path fill="#606161" d="M47.897,64.422c0.208,0,0.379,0.015,0.514,0.044l-0.101,0.962c-0.146-0.035-0.299-0.053-0.457-0.053
					c-0.413,0-0.748,0.135-1.004,0.404s-0.384,0.62-0.384,1.05v2.54h-1.033v-4.86h0.809l0.136,0.857h0.053
					c0.161-0.29,0.372-0.52,0.63-0.69C47.32,64.507,47.599,64.422,47.897,64.422z"/>
				<path fill="#606161" d="M49.251,63.223c0-0.185,0.051-0.327,0.151-0.426c0.102-0.1,0.246-0.149,0.433-0.149
					c0.182,0,0.323,0.05,0.424,0.149c0.101,0.1,0.151,0.242,0.151,0.426c0,0.176-0.051,0.314-0.151,0.416
					c-0.102,0.101-0.243,0.151-0.424,0.151c-0.188,0-0.332-0.051-0.433-0.151C49.302,63.537,49.251,63.398,49.251,63.223z
					 M50.345,69.371h-1.033v-4.86h1.033V69.371z"/>
				<path fill="#606161" d="M54.287,69.458c-0.615,0-1.093-0.221-1.433-0.664h-0.062c0.041,0.41,0.062,0.659,0.062,0.747v1.991
					h-1.033V64.51h0.835c0.023,0.091,0.072,0.308,0.145,0.65h0.053c0.322-0.492,0.806-0.738,1.45-0.738
					c0.606,0,1.079,0.22,1.417,0.659c0.338,0.439,0.507,1.056,0.507,1.85s-0.172,1.414-0.516,1.859
					C55.369,69.236,54.894,69.458,54.287,69.458z M54.037,65.266c-0.41,0-0.71,0.12-0.898,0.36c-0.189,0.24-0.284,0.624-0.284,1.151
					v0.154c0,0.592,0.094,1.021,0.281,1.286s0.494,0.397,0.918,0.397c0.357,0,0.633-0.146,0.826-0.439s0.29-0.71,0.29-1.252
					c0-0.545-0.096-0.957-0.288-1.237S54.409,65.266,54.037,65.266z"/>
				<path fill="#606161" d="M59.24,68.624c0.252,0,0.504-0.04,0.756-0.119v0.778c-0.114,0.05-0.262,0.091-0.441,0.125
					c-0.181,0.034-0.367,0.051-0.561,0.051c-0.979,0-1.468-0.516-1.468-1.547v-2.619h-0.664v-0.457l0.712-0.378l0.352-1.028h0.637
					v1.081h1.384v0.782h-1.384v2.602c0,0.249,0.062,0.433,0.187,0.552C58.874,68.564,59.038,68.624,59.24,68.624z"/>
				<path fill="#606161" d="M23.824,80.17H22.77v-2.896h-2.962v2.896h-1.05v-6.425h1.05v2.628h2.962v-2.628h1.055V80.17z"/>
				<path fill="#606161" d="M27.735,80.17h-1.05v-5.524h-1.89v-0.901h4.83v0.901h-1.89V80.17z"/>
				<path fill="#606161" d="M33.387,80.17l-1.863-5.366h-0.035c0.05,0.797,0.075,1.544,0.075,2.241v3.125h-0.954v-6.425h1.481
					l1.784,5.111h0.026l1.837-5.111h1.485v6.425h-1.011v-3.177c0-0.319,0.008-0.735,0.024-1.248c0.016-0.513,0.03-0.823,0.042-0.932
					h-0.035l-1.929,5.357H33.387z"/>
				<path fill="#606161" d="M38.915,80.17v-6.425h1.05v5.524h2.72v0.901H38.915z"/>
				<path fill="#606161" d="M47.858,76.158c0.647,0,1.16,0.171,1.538,0.514s0.567,0.81,0.567,1.402c0,0.686-0.215,1.221-0.644,1.606
					c-0.429,0.386-1.039,0.578-1.83,0.578c-0.718,0-1.282-0.116-1.692-0.347v-0.936c0.237,0.135,0.51,0.239,0.817,0.312
					s0.593,0.11,0.857,0.11c0.466,0,0.82-0.104,1.063-0.312s0.365-0.513,0.365-0.914c0-0.768-0.489-1.151-1.468-1.151
					c-0.138,0-0.308,0.014-0.51,0.042c-0.202,0.028-0.379,0.06-0.532,0.095l-0.461-0.272l0.246-3.138h3.34v0.918h-2.43l-0.145,1.591
					c0.103-0.018,0.228-0.038,0.375-0.062S47.644,76.158,47.858,76.158z"/>
				<path fill="#606161" d="M21.491,85.354c-0.604,0-1.078,0.214-1.424,0.642s-0.519,1.018-0.519,1.771
					c0,0.788,0.166,1.384,0.499,1.789s0.814,0.606,1.444,0.606c0.272,0,0.536-0.027,0.791-0.081s0.52-0.124,0.795-0.209v0.901
					c-0.504,0.19-1.075,0.286-1.714,0.286c-0.94,0-1.663-0.285-2.167-0.854s-0.756-1.385-0.756-2.446
					c0-0.668,0.122-1.252,0.367-1.753s0.599-0.885,1.062-1.151s1.006-0.4,1.63-0.4c0.656,0,1.263,0.138,1.819,0.413l-0.378,0.875
					c-0.217-0.103-0.446-0.192-0.688-0.271C22.012,85.393,21.757,85.354,21.491,85.354z"/>
				<path fill="#606161" d="M28.166,89.226c0,0.571-0.207,1.02-0.62,1.345s-0.983,0.488-1.709,0.488s-1.321-0.113-1.784-0.338
					v-0.993c0.293,0.138,0.604,0.246,0.934,0.325c0.33,0.079,0.637,0.119,0.921,0.119c0.416,0,0.723-0.079,0.921-0.237
					c0.197-0.158,0.296-0.371,0.296-0.637c0-0.24-0.091-0.444-0.272-0.611s-0.557-0.365-1.125-0.593
					c-0.586-0.237-0.999-0.508-1.239-0.813s-0.36-0.671-0.36-1.099c0-0.536,0.19-0.958,0.571-1.266s0.892-0.461,1.534-0.461
					c0.615,0,1.228,0.135,1.837,0.404l-0.334,0.857c-0.571-0.24-1.081-0.36-1.529-0.36c-0.34,0-0.598,0.074-0.773,0.222
					c-0.176,0.148-0.264,0.344-0.264,0.587c0,0.167,0.035,0.31,0.105,0.429c0.07,0.118,0.186,0.23,0.347,0.336
					s0.451,0.245,0.87,0.417c0.472,0.196,0.817,0.379,1.037,0.549s0.381,0.362,0.483,0.576S28.166,88.936,28.166,89.226z"/>
				<path fill="#606161" d="M33.114,89.226c0,0.571-0.207,1.02-0.62,1.345s-0.983,0.488-1.709,0.488s-1.321-0.113-1.784-0.338
					v-0.993c0.293,0.138,0.604,0.246,0.934,0.325c0.33,0.079,0.637,0.119,0.921,0.119c0.416,0,0.723-0.079,0.921-0.237
					c0.197-0.158,0.296-0.371,0.296-0.637c0-0.24-0.091-0.444-0.272-0.611s-0.557-0.365-1.125-0.593
					c-0.586-0.237-0.999-0.508-1.239-0.813s-0.36-0.671-0.36-1.099c0-0.536,0.19-0.958,0.571-1.266s0.892-0.461,1.534-0.461
					c0.615,0,1.228,0.135,1.837,0.404l-0.334,0.857c-0.571-0.24-1.081-0.36-1.529-0.36c-0.34,0-0.598,0.074-0.773,0.222
					c-0.176,0.148-0.264,0.344-0.264,0.587c0,0.167,0.035,0.31,0.105,0.429c0.07,0.118,0.186,0.23,0.347,0.336
					s0.451,0.245,0.87,0.417c0.472,0.196,0.817,0.379,1.037,0.549s0.381,0.362,0.483,0.576S33.114,88.936,33.114,89.226z"/>
				<path fill="#606161" d="M40.356,86.022c0,0.407-0.119,0.747-0.356,1.018s-0.571,0.453-1.002,0.547v0.035
					c0.516,0.064,0.902,0.225,1.16,0.481s0.387,0.597,0.387,1.021c0,0.618-0.218,1.095-0.655,1.431s-1.058,0.503-1.863,0.503
					c-0.712,0-1.313-0.116-1.802-0.347v-0.918c0.272,0.135,0.561,0.239,0.866,0.312s0.598,0.11,0.879,0.11
					c0.498,0,0.87-0.092,1.116-0.277s0.369-0.47,0.369-0.857c0-0.343-0.136-0.595-0.409-0.756s-0.7-0.242-1.283-0.242h-0.558v-0.839
					h0.567c1.025,0,1.538-0.354,1.538-1.063c0-0.275-0.089-0.488-0.268-0.637s-0.442-0.224-0.791-0.224
					c-0.243,0-0.478,0.035-0.703,0.104s-0.492,0.203-0.8,0.402l-0.505-0.721c0.589-0.434,1.273-0.65,2.052-0.65
					c0.647,0,1.153,0.139,1.516,0.417S40.356,85.533,40.356,86.022z"/>
			</g>
		</g>
		<g>
			<path fill="none" stroke="#FFFFFF" stroke-width="1.1848" stroke-miterlimit="10" d="M169.863,95.07
				c0,0.975-0.791,1.766-1.767,1.766h-40.459c-0.976,0-1.766-0.791-1.766-1.766V68.646c0-0.975,0.79-1.766,1.766-1.766h40.459
				c0.976,0,1.767,0.791,1.767,1.766V95.07z"/>
			<g>
				
					<rect x="128.24" y="69.055" fill="none" stroke="#FFFFFF" stroke-width="1.1848" stroke-miterlimit="10" width="39.48" height="25.609"/>
				<path fill="none" stroke="#FFFFFF" stroke-width="1.1848" stroke-miterlimit="10" d="M154.083,101.209c-0.041,0-0.101,0-0.149,0
					v-4.305h-11.145v4.316c-2.058,0.064-1.753,2.551-1.753,2.551h14.978C156.014,103.771,155.732,101.209,154.083,101.209z"/>
			</g>
			<g>
				<g>
					<path fill="#FFFFFF" d="M133.872,81.867l8.432,3.463v1.385l-10.131-4.264v-1.158l10.131-4.266v1.387L133.872,81.867z"/>
					<path fill="#FFFFFF" d="M151.071,75.383l-4.698,12.869h-1.396l4.697-12.869H151.071z"/>
					<path fill="#FFFFFF" d="M153.43,78.414v-1.387l10.131,4.266v1.158l-10.131,4.264V85.33l8.432-3.463L153.43,78.414z"/>
				</g>
			</g>
		</g>
	</g>
</g>
<g id="Layer_2">
</g>
</svg>
