<?xml version="1.0" encoding="utf-8"?>
<!-- Generator: Adobe Illustrator 16.0.0, SVG Export Plug-In . SVG Version: 6.00 Build 0)  -->
<!DOCTYPE svg PUBLIC "-//W3C//DTD SVG 1.1//EN" "http://www.w3.org/Graphics/SVG/1.1/DTD/svg11.dtd">
<svg version="1.1" id="Layer_1" xmlns="http://www.w3.org/2000/svg" xmlns:xlink="http://www.w3.org/1999/xlink" x="0px" y="0px"
	 width="500px" height="500px" viewBox="0 0 500 500" enable-background="new 0 0 500 500" xml:space="preserve">
<circle fill="#4296D2" cx="251.273" cy="249.249" r="240"/>
<g>
	<g id="Browser_2_">
		<path fill="#2B2C2B" d="M402.422,381.965c0,10.543-8.547,19.09-19.09,19.09h-266.82c-10.543,0-19.09-8.547-19.09-19.09v-266.82
			c0-10.543,8.547-19.09,19.09-19.09h266.82c10.543,0,19.09,8.547,19.09,19.09V381.965z"/>
		<path fill="#F3F2EF" d="M402.422,115.144c0-10.542-8.547-19.089-19.09-19.089h-266.82c-10.543,0-19.09,8.546-19.09,19.089v266.822
			c0,10.542,8.547,19.089,19.09,19.089h266.82c10.543,0,19.09-8.547,19.09-19.089V115.144z M393.422,382.678
			c0,5.275-3.875,9.377-9.15,9.377H117.023c-5.275,0-9.602-4.102-9.602-9.377V154.055h286V382.678z"/>
		<path fill="#E64D3C" d="M136.113,124.976c0,5.275-4.27,9.544-9.545,9.544s-9.545-4.269-9.545-9.544s4.27-9.545,9.545-9.545
			S136.113,119.701,136.113,124.976z"/>
		<path fill="#DEE3E8" d="M164.746,124.976c0,5.275-4.269,9.544-9.544,9.544c-5.276,0-9.545-4.269-9.545-9.544
			s4.269-9.545,9.545-9.545C160.478,115.431,164.746,119.701,164.746,124.976z"/>
		<path fill="#2DB999" d="M193.381,124.976c0,5.275-4.27,9.544-9.545,9.544s-9.545-4.269-9.545-9.544s4.27-9.545,9.545-9.545
			S193.381,119.701,193.381,124.976z"/>
		<path fill="#6D6D6D" d="M384.01,124.555c0,5.271-4.268,9.5-9.543,9.5H212.209c-5.276,0-9.545-4.229-9.545-9.5l0,0
			c0-5.271,4.269-9.5,9.545-9.5h162.258C379.742,115.055,384.01,119.285,384.01,124.555L384.01,124.555z"/>
	</g>
	<polygon fill="#E64D3C" points="326.422,181.05 375.337,229.966 326.422,278.881 	"/>
	<polygon opacity="0.2" fill="#E64D3C" points="126.422,181.05 175.338,229.966 126.422,278.881 	"/>
	<polygon opacity="0.5" fill="#E64D3C" points="221.422,181.05 270.338,229.966 221.422,278.881 	"/>
	<path fill="none" stroke="#E64D3C" stroke-width="4.7723" stroke-linecap="round" stroke-miterlimit="10" d="M126.568,363.497
		c0,0,57.473,41.627,110.359-28.037c42.95-56.578,93.059-44.74,137.799-11.279"/>
	<rect x="117.023" y="354.549" fill="#2DB999" width="18.959" height="18.957"/>
	<rect x="365.248" y="314.702" fill="#2DB999" width="18.959" height="18.959"/>
	<path opacity="0.1" fill="#272626" d="M393.422,382.678c0,5.275-3.875,9.377-9.15,9.377H170.641l199.781-238h23V382.678z"/>
</g>
</svg>
