<?xml version="1.0" encoding="utf-8"?>
<!-- Generator: Adobe Illustrator 16.0.0, SVG Export Plug-In . SVG Version: 6.00 Build 0)  -->
<!DOCTYPE svg PUBLIC "-//W3C//DTD SVG 1.1//EN" "http://www.w3.org/Graphics/SVG/1.1/DTD/svg11.dtd">
<svg version="1.1" id="Layer_1" xmlns="http://www.w3.org/2000/svg" xmlns:xlink="http://www.w3.org/1999/xlink" x="0px" y="0px"
	 width="500px" height="500px" viewBox="0 0 500 500" enable-background="new 0 0 500 500" xml:space="preserve">
<circle fill="#2D3E50" cx="251.273" cy="249.25" r="240"/>
<g id="iPhone">
	<path fill="#F3F2EF" d="M371.45,403.314c0,12.56-10.183,22.741-22.743,22.741H153.193c-12.561,0-22.743-10.182-22.743-22.741
		V95.796c0-12.56,10.183-22.741,22.743-22.741h195.514c12.561,0,22.743,10.182,22.743,22.741V403.314z"/>
	<rect x="140.45" y="106.055" fill="#2B2C2B" width="220" height="276"/>
	<g>
		<path fill="#6D6D6D" d="M278.046,85.055H233.94c-3.046,0-5.513,2.452-5.513,5.5c0,3.047,2.467,5.5,5.513,5.5h44.105
			c3.046,0,5.513-2.453,5.513-5.5C283.559,87.507,281.092,85.055,278.046,85.055z"/>
		<path fill="#6D6D6D" d="M211.89,84.665c-3.049,0-5.514,2.466-5.514,5.514c0,3.047,2.465,5.513,5.514,5.513
			c3.047,0,5.512-2.466,5.512-5.513C217.401,87.13,214.937,84.665,211.89,84.665z"/>
	</g>
	<path fill="#6D6D6D" d="M261.505,404.42c0,6.095-4.932,11.025-11.024,11.025c-6.095,0-11.026-4.931-11.026-11.025
		s4.932-11.026,11.026-11.026C256.573,393.394,261.505,398.326,261.505,404.42z"/>
	<polygon opacity="0.1" fill="#F3F2EF" points="360.45,382.055 360.45,161.847 140.45,360.316 140.45,382.055 	"/>
</g>
</svg>
