<?xml version="1.0" encoding="utf-8"?>
<!-- Generator: Adobe Illustrator 16.0.0, SVG Export Plug-In . SVG Version: 6.00 Build 0)  -->
<!DOCTYPE svg PUBLIC "-//W3C//DTD SVG 1.1//EN" "http://www.w3.org/Graphics/SVG/1.1/DTD/svg11.dtd">
<svg version="1.1" id="Layer_1" xmlns="http://www.w3.org/2000/svg" xmlns:xlink="http://www.w3.org/1999/xlink" x="0px" y="0px"
	 width="500.001px" height="500px" viewBox="0 0 500.001 500" enable-background="new 0 0 500.001 500" xml:space="preserve">
<path fill="#4296D2" d="M249.774,9.248c132.549,0,240,107.451,240,240.001h-240V9.248z"/>
<path fill="#50AE5F" d="M489.774,248.729c0,132.549-107.451,240-240,240v-240H489.774z"/>
<path fill="#2D3F50" d="M249.701,9.248c-132.549,0-240,107.451-240,240.001h240V9.248z"/>
<path fill="#F3F2EF" d="M9.701,248.729c0,132.549,107.451,240,240,240v-240H9.701z"/>
<g>
	<g>
		<g id="appstore_16_">
			<g id="appstore_17_">
				<g>
					<path fill="#F3F2EF" d="M341.648,149.169l-10.413,18.208h28.261c-2.056-4.064-4.771-9.877-8.422-18.203h-9.426V149.169z
						 M342.776,138.563c0.646-1.132,0.255-2.587-0.872-3.247l-6.167-3.547c-1.132-0.655-2.586-0.257-3.234,0.872l-9.451,16.528
						l-10.417,18.208l-8.693,15.203c-0.651,1.132-0.258,2.589,0.875,3.237l6.163,3.559c1.127,0.653,2.586,0.257,3.238-0.871
						l12.081-21.128l7.81-13.652L342.776,138.563z M308.966,192.1l-6.166-3.552c-1.132-0.654-2.175-0.119-2.322,1.174l-1.069,9.32
						c-0.149,1.298,0.612,1.763,1.689,1.03l7.961-5.452C310.141,193.893,310.094,192.753,308.966,192.1z M318.111,149.169h-23.959
						c-1.183,0-2.14,0.96-2.14,2.147v13.913c0,1.185,0.957,2.148,2.14,2.148h13.546L318.111,149.169z M392.246,149.169h-20.813
						c2.45,4.607,4.72,8.943,6.319,12.007c1.106,2.124,1.983,3.798,2.29,4.362c0.327,0.593,0.557,1.209,0.715,1.838h11.489
						c1.187,0,2.149-0.963,2.149-2.148v-13.913C394.391,150.132,393.429,149.169,392.246,149.169z M376.288,167.611
						c-0.039-0.063-0.082-0.151-0.129-0.234c-0.569-1.063-2.002-3.833-3.889-7.424c-0.024-0.048-0.047-0.093-0.072-0.14
						c-0.141-0.276-0.29-0.557-0.438-0.838c-0.11-0.205-0.217-0.413-0.327-0.624c-0.089-0.176-0.188-0.357-0.28-0.539
						c-0.167-0.319-0.338-0.636-0.507-0.966c-0.051-0.099-0.102-0.204-0.161-0.304c-0.188-0.364-0.384-0.734-0.579-1.108
						c-0.055-0.106-0.11-0.21-0.171-0.323c-4.341-8.241-9.796-18.391-13.166-23.725c-5.895-9.351-13.759-24.937-15.958-23.829
						c-3.073,1.541,6.446,21.324,9.6,28.759c3.15,7.432,15.453,35.92,17.922,37.165c2.467,1.235,3.42,0.548,5.067-0.136
						C374.84,172.656,377.794,170.371,376.288,167.611z M382.412,190.479c-0.924,0.889-3.124,2.822-0.465,6.574
						c2.655,3.76,8.585,3.925,9.362,6.419C391.31,203.472,393.175,184.388,382.412,190.479z M383.318,182.29l-2.937-5.659
						c-0.664-1.278-2.226-1.801-3.474-1.162l-3.539,1.832c-1.247,0.648-1.639,2.164-0.873,3.387l3.71,5.892
						c0.768,1.213,2.389,1.611,3.594,0.883l2.521-1.522C383.535,185.214,383.981,183.57,383.318,182.29z"/>
				</g>
			</g>
		</g>
	</g>
</g>
<g>
	<g>
		<g id="android_16_">
			<g id="android_17_">
				<g>
					<path fill="#50AE5F" d="M131.15,178.542c0,3.264,2.58,5.922,5.755,5.922h4.149c-0.137,0.491-0.219,1.013-0.219,1.555v11.836
						c0,3.095,2.438,5.607,5.447,5.607c3.014,0,5.451-2.512,5.451-5.607v-11.836c0-0.542-0.08-1.064-0.217-1.555h10.119
						c-0.14,0.491-0.222,1.013-0.222,1.555v11.836c0,3.095,2.443,5.607,5.453,5.607c3.008,0,5.451-2.512,5.451-5.607v-11.836
						c0-0.542-0.085-1.064-0.223-1.555h4.149c3.175,0,5.749-2.658,5.749-5.922v-41.118H131.15V178.542L131.15,178.542z
						 M122.069,137.424c-3.008,0-5.446,2.51-5.446,5.608v23.982c0,3.098,2.438,5.607,5.446,5.607c3.009,0,5.452-2.509,5.452-5.607
						v-23.982C127.521,139.934,125.078,137.424,122.069,137.424z M191.077,137.424c-3.013,0-5.446,2.51-5.446,5.608v23.982
						c0,3.098,2.434,5.607,5.446,5.607c3.008,0,5.447-2.509,5.447-5.607v-23.982C196.524,139.934,194.085,137.424,191.077,137.424z
						 M169.076,114.982l1.021-1.579l1.01-1.557l2.264-3.494c0.281-0.432,0.165-1.01-0.248-1.298c-0.422-0.287-0.982-0.17-1.263,0.26
						l-2.425,3.748l-1.022,1.576l-1.034,1.598c-3.286-1.308-6.94-2.042-10.804-2.042c-3.86,0-7.521,0.734-10.802,2.041l-1.033-1.596
						l-1.017-1.576l-2.431-3.748c-0.281-0.43-0.843-0.547-1.264-0.26c-0.414,0.288-0.528,0.864-0.251,1.294l2.264,3.498l1.008,1.555
						l1.021,1.581c-7.7,3.692-12.92,10.692-12.92,18.701h50.845C181.995,125.674,176.782,118.678,169.076,114.982z M145.679,126.21
						c-1.502,0-2.724-1.255-2.724-2.804c0-1.547,1.222-2.801,2.724-2.801s2.727,1.254,2.727,2.801
						C148.405,124.955,147.181,126.21,145.679,126.21z M167.472,126.21c-1.507,0-2.724-1.255-2.724-2.804
						c0-1.547,1.217-2.801,2.724-2.801c1.506,0,2.725,1.254,2.725,2.801C170.196,124.955,168.978,126.21,167.472,126.21z"/>
				</g>
			</g>
		</g>
	</g>
</g>
<g>
	<g>
		<g>
			<path fill-rule="evenodd" clip-rule="evenodd" fill="#2D3F50" d="M323.795,312.255c0-3.746-2.288-8.482-11.914-8.482h-14.827
				l-4.213,19.51h15.45C320.361,323.283,323.795,317.568,323.795,312.255z"/>
			<path fill-rule="evenodd" clip-rule="evenodd" fill="#2D3F50" d="M363.729,312.255c0-3.746-2.286-8.482-11.916-8.482h-14.822
				l-4.209,19.51h15.445C360.3,323.283,363.729,317.568,363.729,312.255z"/>
			<path fill-rule="evenodd" clip-rule="evenodd" fill="#2D3F50" d="M318.446,341.617c0-3.743-2.289-8.493-11.92-8.493h-14.817
				l-4.218,19.523h15.448C315.012,352.647,318.446,346.915,318.446,341.617z"/>
			<path fill-rule="evenodd" clip-rule="evenodd" fill="#2D3F50" d="M358.38,341.617c0-3.743-2.299-8.493-11.91-8.493h-14.826
				l-4.223,19.523h15.456C354.946,352.647,358.38,346.915,358.38,341.617z"/>
			<path fill-rule="evenodd" clip-rule="evenodd" fill="#2D3F50" d="M400.151,329.708c0-3.744-2.293-8.493-11.911-8.493h-14.822
				l-4.217,19.52h15.442C396.717,340.734,400.151,335.023,400.151,329.708z"/>
			<path fill-rule="evenodd" clip-rule="evenodd" fill="#2D3F50" d="M394.395,360.282c0-3.745-2.285-8.483-11.912-8.483h-14.821
				l-4.217,19.512h15.451C390.964,371.31,394.395,365.583,394.395,360.282z"/>
			<path fill-rule="evenodd" clip-rule="evenodd" fill="#2D3F50" d="M352.639,372.188c0-3.757-2.286-8.504-11.901-8.504h-14.831
				l-4.214,19.522h15.448C349.209,383.207,352.639,377.489,352.639,372.188z"/>
		</g>
	</g>
</g>
<g>
	<g>
		<g id="windows_16_">
			<g id="windows_17_">
				<g>
					<path fill="#4296D2" d="M107.838,340.801h39.326v-37.627l-39.326,5.7V340.801z M152.538,302.395v38.406h52.768v-46.045
						L152.538,302.395z M107.838,378.106l39.326,5.698v-37.623h-39.326V378.106z M152.538,384.583l52.768,7.639v-46.04h-52.768
						V384.583z"/>
				</g>
			</g>
		</g>
	</g>
</g>
</svg>
