<?xml version="1.0" encoding="utf-8"?>
<!-- Generator: Adobe Illustrator 16.0.0, SVG Export Plug-In . SVG Version: 6.00 Build 0)  -->
<!DOCTYPE svg PUBLIC "-//W3C//DTD SVG 1.1//EN" "http://www.w3.org/Graphics/SVG/1.1/DTD/svg11.dtd">
<svg version="1.1" xmlns="http://www.w3.org/2000/svg" xmlns:xlink="http://www.w3.org/1999/xlink" x="0px" y="0px" width="200px"
	 height="130px" viewBox="0 0 200 130" enable-background="new 0 0 200 130" xml:space="preserve">
<g id="Layer_1">
	<g>
		<g>
			<path fill="#B52145" d="M186.333,16.765c1.334,0,2.419,1.087,2.419,2.422v99.527c0,1.336-1.085,2.423-2.419,2.423H13.463
				c-1.335,0-2.422-1.087-2.422-2.423V19.187c0-1.335,1.086-2.422,2.422-2.422H186.333 M186.333,15.585H13.463
				c-1.979,0-3.602,1.622-3.602,3.602v99.527c0,1.98,1.623,3.603,3.602,3.603h172.871c1.979,0,3.6-1.622,3.6-3.603V19.187
				C189.933,17.207,188.313,15.585,186.333,15.585L186.333,15.585z"/>
		</g>
		<path fill="#B52145" d="M186.333,10.185H13.463c-1.979,0-3.602,1.62-3.602,3.601V28.19v1.803v3.603h3.602h172.871h3.6v-3.603
			V28.19V13.785C189.933,11.805,188.313,10.185,186.333,10.185z"/>
		<g>
			<rect x="18.92" y="16.499" fill="none" width="171.363" height="14.794"/>
			<text transform="matrix(1 0 0 1 18.9209 26.4531)" fill="#FFFFFF" font-family="'OpenSans-Semibold'" font-size="13.097">Game Artwork &amp; Assets</text>
		</g>
		<circle fill="#B52145" cx="148.352" cy="80.295" r="30.509"/>
		<g>
			<g>
				<path fill="#606161" d="M19.769,56.623v-6.425h1.05v6.425H19.769z"/>
				<path fill="#606161" d="M23.438,56.623h-1.033v-6.838h1.033V56.623z"/>
				<path fill="#606161" d="M25.948,56.623h-1.033v-6.838h1.033V56.623z"/>
				<path fill="#606161" d="M30.852,56.623l-0.145-0.637h-0.053c-0.144,0.226-0.348,0.402-0.613,0.531
					c-0.266,0.129-0.568,0.193-0.908,0.193c-0.589,0-1.028-0.146-1.318-0.439s-0.435-0.736-0.435-1.332v-3.177h1.042v2.997
					c0,0.372,0.076,0.651,0.229,0.837c0.152,0.187,0.391,0.279,0.716,0.279c0.434,0,0.752-0.13,0.956-0.389
					c0.203-0.26,0.305-0.693,0.305-1.304v-2.421h1.037v4.86H30.852z"/>
				<path fill="#606161" d="M36.402,55.238c0,0.475-0.173,0.839-0.519,1.093c-0.346,0.253-0.841,0.38-1.485,0.38
					c-0.647,0-1.167-0.098-1.56-0.295v-0.892c0.571,0.264,1.103,0.396,1.595,0.396c0.636,0,0.954-0.191,0.954-0.576
					c0-0.123-0.035-0.225-0.105-0.307s-0.186-0.168-0.347-0.256s-0.385-0.187-0.672-0.299c-0.56-0.216-0.938-0.433-1.136-0.65
					c-0.198-0.216-0.297-0.497-0.297-0.844c0-0.415,0.167-0.738,0.503-0.969c0.335-0.229,0.792-0.345,1.369-0.345
					c0.571,0,1.112,0.116,1.622,0.347L35.989,52.8c-0.524-0.217-0.965-0.325-1.323-0.325c-0.545,0-0.817,0.155-0.817,0.466
					c0,0.152,0.071,0.281,0.213,0.387s0.452,0.251,0.93,0.435c0.401,0.156,0.693,0.298,0.875,0.427s0.316,0.277,0.404,0.446
					C36.358,54.803,36.402,55.005,36.402,55.238z"/>
				<path fill="#606161" d="M39.329,55.876c0.252,0,0.504-0.04,0.756-0.118v0.777c-0.114,0.05-0.262,0.092-0.441,0.125
					c-0.181,0.034-0.367,0.051-0.561,0.051c-0.979,0-1.468-0.516-1.468-1.547v-2.619h-0.664v-0.457l0.712-0.378l0.352-1.028h0.637
					v1.081h1.384v0.782h-1.384v2.602c0,0.249,0.062,0.433,0.187,0.552C38.963,55.816,39.127,55.876,39.329,55.876z"/>
				<path fill="#606161" d="M43.521,51.675c0.208,0,0.379,0.015,0.514,0.044l-0.101,0.963c-0.146-0.035-0.299-0.053-0.457-0.053
					c-0.413,0-0.748,0.135-1.004,0.404s-0.384,0.619-0.384,1.05v2.54h-1.033v-4.86h0.809l0.136,0.856h0.053
					c0.161-0.289,0.372-0.52,0.63-0.689C42.944,51.76,43.223,51.675,43.521,51.675z"/>
				<path fill="#606161" d="M47.978,56.623l-0.207-0.677h-0.035c-0.234,0.296-0.47,0.497-0.708,0.604
					c-0.237,0.106-0.542,0.16-0.914,0.16c-0.478,0-0.851-0.129-1.118-0.387c-0.269-0.258-0.402-0.622-0.402-1.094
					c0-0.502,0.186-0.879,0.558-1.135c0.372-0.254,0.939-0.394,1.701-0.417l0.839-0.026v-0.26c0-0.31-0.073-0.542-0.217-0.696
					c-0.146-0.153-0.37-0.23-0.675-0.23c-0.249,0-0.488,0.037-0.716,0.11s-0.448,0.159-0.659,0.259l-0.334-0.738
					c0.264-0.138,0.552-0.242,0.866-0.314c0.313-0.071,0.609-0.107,0.888-0.107c0.618,0,1.084,0.135,1.399,0.404
					s0.473,0.693,0.473,1.271v3.273H47.978z M46.439,55.92c0.375,0,0.676-0.104,0.903-0.314c0.227-0.209,0.34-0.503,0.34-0.881
					v-0.422l-0.624,0.026c-0.486,0.018-0.84,0.099-1.061,0.244c-0.222,0.145-0.332,0.366-0.332,0.665
					c0,0.218,0.064,0.385,0.193,0.504C45.988,55.86,46.182,55.92,46.439,55.92z"/>
				<path fill="#606161" d="M51.968,55.876c0.252,0,0.504-0.04,0.756-0.118v0.777c-0.114,0.05-0.262,0.092-0.441,0.125
					c-0.181,0.034-0.367,0.051-0.561,0.051c-0.979,0-1.468-0.516-1.468-1.547v-2.619H49.59v-0.457l0.712-0.378l0.352-1.028h0.637
					v1.081h1.384v0.782h-1.384v2.602c0,0.249,0.062,0.433,0.187,0.552C51.602,55.816,51.766,55.876,51.968,55.876z"/>
				<path fill="#606161" d="M58.006,54.184c0,0.795-0.204,1.414-0.611,1.859s-0.974,0.668-1.701,0.668
					c-0.454,0-0.855-0.103-1.204-0.308s-0.617-0.499-0.804-0.884c-0.188-0.383-0.281-0.828-0.281-1.336
					c0-0.787,0.202-1.402,0.606-1.846c0.404-0.441,0.974-0.663,1.709-0.663c0.703,0,1.26,0.227,1.67,0.679
					C57.801,52.807,58.006,53.417,58.006,54.184z M54.468,54.184c0,1.123,0.415,1.684,1.244,1.684c0.82,0,1.23-0.561,1.23-1.684
					c0-1.109-0.413-1.665-1.239-1.665c-0.434,0-0.748,0.144-0.943,0.431S54.468,53.648,54.468,54.184z"/>
				<path fill="#606161" d="M61.658,51.675c0.208,0,0.379,0.015,0.514,0.044l-0.101,0.963c-0.146-0.035-0.299-0.053-0.457-0.053
					c-0.413,0-0.748,0.135-1.004,0.404s-0.384,0.619-0.384,1.05v2.54h-1.033v-4.86h0.809l0.136,0.856h0.053
					c0.161-0.289,0.372-0.52,0.63-0.689C61.08,51.76,61.359,51.675,61.658,51.675z"/>
				<path fill="#606161" d="M65.094,54.922c0-0.383,0.094-0.718,0.281-1.004c0.188-0.285,0.526-0.568,1.015-0.85
					c-0.278-0.326-0.468-0.601-0.569-0.824c-0.102-0.225-0.152-0.456-0.152-0.697c0-0.444,0.159-0.796,0.477-1.055
					c0.317-0.257,0.745-0.387,1.281-0.387c0.519,0,0.926,0.126,1.222,0.376c0.296,0.251,0.444,0.589,0.444,1.013
					c0,0.334-0.099,0.638-0.297,0.91c-0.197,0.272-0.528,0.545-0.991,0.817l1.521,1.468c0.237-0.313,0.435-0.773,0.593-1.38h1.063
					c-0.205,0.832-0.533,1.511-0.984,2.034l1.323,1.279H69.99l-0.655-0.637c-0.299,0.24-0.618,0.421-0.956,0.542
					c-0.339,0.122-0.713,0.183-1.123,0.183c-0.674,0-1.203-0.159-1.586-0.479S65.094,55.477,65.094,54.922z M67.309,55.823
					c0.536,0,0.995-0.156,1.375-0.47l-1.683-1.657c-0.311,0.199-0.524,0.386-0.642,0.561c-0.117,0.174-0.176,0.373-0.176,0.595
					c0,0.288,0.102,0.521,0.306,0.701C66.693,55.733,66.966,55.823,67.309,55.823z M66.654,51.582c0,0.186,0.049,0.359,0.147,0.523
					s0.235,0.338,0.411,0.523c0.331-0.188,0.563-0.363,0.696-0.525c0.133-0.163,0.2-0.346,0.2-0.547c0-0.19-0.063-0.344-0.191-0.457
					c-0.127-0.115-0.296-0.172-0.507-0.172c-0.231,0-0.416,0.06-0.551,0.178C66.722,51.225,66.654,51.384,66.654,51.582z"/>
				<path fill="#606161" d="M78.774,52.141c0,0.671-0.22,1.186-0.659,1.543s-1.065,0.535-1.876,0.535h-0.668v2.404h-1.05v-6.425
					h1.85c0.803,0,1.404,0.164,1.804,0.492C78.575,51.019,78.774,51.502,78.774,52.141z M75.571,53.336h0.558
					c0.539,0,0.935-0.094,1.187-0.281s0.378-0.48,0.378-0.879c0-0.369-0.113-0.645-0.338-0.826s-0.577-0.272-1.055-0.272h-0.729
					V53.336z"/>
				<path fill="#606161" d="M84.224,56.623h-1.037v-2.988c0-0.375-0.076-0.654-0.226-0.84c-0.151-0.184-0.391-0.276-0.719-0.276
					c-0.434,0-0.752,0.13-0.956,0.389c-0.204,0.26-0.305,0.694-0.305,1.304v2.412h-1.033v-6.838h1.033v1.736
					c0,0.278-0.018,0.575-0.053,0.892h0.066c0.141-0.234,0.336-0.416,0.587-0.545c0.25-0.129,0.542-0.193,0.876-0.193
					c1.178,0,1.767,0.593,1.767,1.78V56.623z"/>
				<path fill="#606161" d="M89.972,54.184c0,0.795-0.204,1.414-0.611,1.859s-0.974,0.668-1.701,0.668
					c-0.454,0-0.855-0.103-1.204-0.308s-0.617-0.499-0.804-0.884c-0.188-0.383-0.281-0.828-0.281-1.336
					c0-0.787,0.202-1.402,0.606-1.846c0.404-0.441,0.974-0.663,1.709-0.663c0.703,0,1.26,0.227,1.67,0.679
					C89.767,52.807,89.972,53.417,89.972,54.184z M86.434,54.184c0,1.123,0.415,1.684,1.244,1.684c0.82,0,1.23-0.561,1.23-1.684
					c0-1.109-0.413-1.665-1.239-1.665c-0.434,0-0.748,0.144-0.943,0.431S86.434,53.648,86.434,54.184z"/>
				<path fill="#606161" d="M92.969,55.876c0.252,0,0.504-0.04,0.756-0.118v0.777c-0.114,0.05-0.262,0.092-0.441,0.125
					c-0.181,0.034-0.367,0.051-0.561,0.051c-0.979,0-1.468-0.516-1.468-1.547v-2.619h-0.664v-0.457l0.712-0.378l0.352-1.028h0.637
					v1.081h1.384v0.782h-1.384v2.602c0,0.249,0.062,0.433,0.187,0.552C92.603,55.816,92.767,55.876,92.969,55.876z"/>
				<path fill="#606161" d="M99.007,54.184c0,0.795-0.204,1.414-0.611,1.859s-0.974,0.668-1.701,0.668
					c-0.454,0-0.855-0.103-1.204-0.308s-0.617-0.499-0.804-0.884c-0.188-0.383-0.281-0.828-0.281-1.336
					c0-0.787,0.202-1.402,0.606-1.846c0.404-0.441,0.974-0.663,1.709-0.663c0.703,0,1.26,0.227,1.67,0.679
					C98.802,52.807,99.007,53.417,99.007,54.184z M95.469,54.184c0,1.123,0.415,1.684,1.244,1.684c0.82,0,1.23-0.561,1.23-1.684
					c0-1.109-0.413-1.665-1.239-1.665c-0.434,0-0.748,0.144-0.943,0.431S95.469,53.648,95.469,54.184z"/>
				<path fill="#606161" d="M103.458,55.238c0,0.475-0.173,0.839-0.519,1.093c-0.346,0.253-0.841,0.38-1.485,0.38
					c-0.647,0-1.167-0.098-1.56-0.295v-0.892c0.571,0.264,1.103,0.396,1.595,0.396c0.636,0,0.954-0.191,0.954-0.576
					c0-0.123-0.035-0.225-0.105-0.307s-0.186-0.168-0.347-0.256s-0.385-0.187-0.672-0.299c-0.56-0.216-0.938-0.433-1.136-0.65
					c-0.198-0.216-0.297-0.497-0.297-0.844c0-0.415,0.167-0.738,0.503-0.969c0.335-0.229,0.792-0.345,1.369-0.345
					c0.571,0,1.112,0.116,1.622,0.347l-0.334,0.778c-0.524-0.217-0.965-0.325-1.323-0.325c-0.545,0-0.817,0.155-0.817,0.466
					c0,0.152,0.071,0.281,0.213,0.387s0.452,0.251,0.93,0.435c0.401,0.156,0.693,0.298,0.875,0.427s0.316,0.277,0.404,0.446
					C103.415,54.803,103.458,55.005,103.458,55.238z"/>
				<path fill="#606161" d="M108.851,56.623h-1.037v-2.988c0-0.375-0.076-0.654-0.226-0.84c-0.151-0.184-0.391-0.276-0.719-0.276
					c-0.434,0-0.752,0.13-0.956,0.389c-0.204,0.26-0.305,0.694-0.305,1.304v2.412h-1.033v-6.838h1.033v1.736
					c0,0.278-0.018,0.575-0.053,0.892h0.066c0.141-0.234,0.336-0.416,0.587-0.545c0.25-0.129,0.542-0.193,0.876-0.193
					c1.178,0,1.767,0.593,1.767,1.78V56.623z"/>
				<path fill="#606161" d="M114.599,54.184c0,0.795-0.204,1.414-0.611,1.859s-0.974,0.668-1.701,0.668
					c-0.454,0-0.855-0.103-1.204-0.308s-0.617-0.499-0.804-0.884c-0.188-0.383-0.281-0.828-0.281-1.336
					c0-0.787,0.202-1.402,0.606-1.846c0.404-0.441,0.974-0.663,1.709-0.663c0.703,0,1.26,0.227,1.67,0.679
					C114.394,52.807,114.599,53.417,114.599,54.184z M111.061,54.184c0,1.123,0.415,1.684,1.244,1.684c0.82,0,1.23-0.561,1.23-1.684
					c0-1.109-0.413-1.665-1.239-1.665c-0.434,0-0.748,0.144-0.943,0.431S111.061,53.648,111.061,54.184z"/>
				<path fill="#606161" d="M118.25,56.711c-0.615,0-1.093-0.221-1.433-0.664h-0.062c0.041,0.411,0.062,0.66,0.062,0.748v1.99
					h-1.033v-7.022h0.835c0.023,0.091,0.072,0.308,0.145,0.65h0.053c0.322-0.492,0.806-0.738,1.45-0.738
					c0.606,0,1.079,0.22,1.417,0.659c0.338,0.439,0.507,1.057,0.507,1.85c0,0.795-0.172,1.414-0.516,1.859
					C119.332,56.488,118.857,56.711,118.25,56.711z M118,52.519c-0.41,0-0.71,0.12-0.898,0.36c-0.189,0.24-0.284,0.624-0.284,1.151
					v0.153c0,0.593,0.094,1.021,0.281,1.286c0.188,0.265,0.494,0.397,0.918,0.397c0.357,0,0.633-0.146,0.826-0.439
					s0.29-0.71,0.29-1.252c0-0.545-0.096-0.958-0.288-1.237C118.654,52.658,118.372,52.519,118,52.519z"/>
				<path fill="#606161" d="M35.163,65.679c0,0.57-0.207,1.02-0.62,1.344c-0.413,0.326-0.983,0.488-1.709,0.488
					s-1.321-0.112-1.784-0.338v-0.994c0.293,0.139,0.604,0.246,0.934,0.326c0.33,0.078,0.637,0.118,0.921,0.118
					c0.416,0,0.723-0.079,0.921-0.237c0.197-0.158,0.296-0.37,0.296-0.637c0-0.24-0.091-0.444-0.272-0.611s-0.557-0.365-1.125-0.594
					c-0.586-0.236-0.999-0.508-1.239-0.813s-0.36-0.671-0.36-1.099c0-0.536,0.19-0.958,0.571-1.266s0.892-0.462,1.534-0.462
					c0.615,0,1.228,0.136,1.837,0.404l-0.334,0.857c-0.571-0.24-1.081-0.36-1.529-0.36c-0.34,0-0.598,0.074-0.773,0.222
					c-0.176,0.148-0.264,0.344-0.264,0.587c0,0.167,0.035,0.31,0.105,0.429c0.07,0.118,0.186,0.23,0.347,0.336
					s0.451,0.245,0.87,0.418c0.472,0.196,0.817,0.379,1.037,0.549s0.381,0.362,0.483,0.576S35.163,65.388,35.163,65.679z"/>
				<path fill="#606161" d="M38.762,67.511c-0.615,0-1.093-0.221-1.433-0.664h-0.062c0.041,0.411,0.062,0.66,0.062,0.748v1.99
					h-1.033v-7.022h0.835c0.023,0.091,0.072,0.308,0.145,0.65h0.053c0.322-0.492,0.806-0.738,1.45-0.738
					c0.606,0,1.079,0.22,1.417,0.659c0.338,0.439,0.507,1.057,0.507,1.85c0,0.795-0.172,1.414-0.516,1.859
					C39.844,67.288,39.369,67.511,38.762,67.511z M38.512,63.318c-0.41,0-0.71,0.12-0.898,0.36c-0.189,0.24-0.284,0.624-0.284,1.151
					v0.153c0,0.593,0.094,1.021,0.281,1.286c0.188,0.265,0.494,0.397,0.918,0.397c0.357,0,0.633-0.146,0.826-0.439
					s0.29-0.71,0.29-1.252c0-0.545-0.096-0.958-0.288-1.237C39.166,63.458,38.884,63.318,38.512,63.318z"/>
				<path fill="#606161" d="M44.37,62.475c0.208,0,0.379,0.015,0.514,0.044l-0.101,0.963c-0.146-0.035-0.299-0.053-0.457-0.053
					c-0.413,0-0.748,0.135-1.004,0.404s-0.384,0.619-0.384,1.05v2.54h-1.033v-4.86h0.809l0.136,0.856h0.053
					c0.161-0.289,0.372-0.52,0.63-0.689C43.792,62.56,44.071,62.475,44.37,62.475z"/>
				<path fill="#606161" d="M45.723,61.274c0-0.184,0.051-0.326,0.151-0.426c0.102-0.1,0.246-0.149,0.433-0.149
					c0.182,0,0.323,0.05,0.424,0.149c0.101,0.1,0.151,0.242,0.151,0.426c0,0.176-0.051,0.314-0.151,0.416
					c-0.102,0.101-0.243,0.151-0.424,0.151c-0.188,0-0.332-0.051-0.433-0.151C45.774,61.589,45.723,61.45,45.723,61.274z
					 M46.817,67.423h-1.033v-4.86h1.033V67.423z"/>
				<path fill="#606161" d="M50.104,66.676c0.252,0,0.504-0.04,0.756-0.118v0.777c-0.114,0.05-0.262,0.092-0.441,0.125
					c-0.181,0.034-0.367,0.051-0.561,0.051c-0.979,0-1.468-0.516-1.468-1.547v-2.619h-0.664v-0.457l0.712-0.378l0.352-1.028h0.637
					v1.081h1.384v0.782h-1.384v2.602c0,0.249,0.062,0.433,0.187,0.552C49.739,66.616,49.902,66.676,50.104,66.676z"/>
				<path fill="#606161" d="M53.954,67.511c-0.756,0-1.347-0.221-1.773-0.661c-0.427-0.441-0.64-1.048-0.64-1.821
					c0-0.794,0.198-1.418,0.593-1.873c0.396-0.453,0.939-0.681,1.63-0.681c0.642,0,1.148,0.195,1.521,0.585s0.558,0.926,0.558,1.607
					v0.559h-3.239c0.015,0.472,0.142,0.834,0.382,1.088c0.24,0.253,0.579,0.38,1.015,0.38c0.287,0,0.554-0.027,0.802-0.081
					c0.248-0.055,0.514-0.145,0.798-0.271v0.839c-0.252,0.121-0.507,0.206-0.765,0.256C54.58,67.485,54.285,67.511,53.954,67.511z
					 M53.765,63.257c-0.328,0-0.591,0.104-0.789,0.313c-0.197,0.208-0.315,0.511-0.354,0.909h2.206
					c-0.006-0.401-0.103-0.705-0.29-0.912C54.351,63.36,54.093,63.257,53.765,63.257z"/>
				<path fill="#606161" d="M60.282,66.038c0,0.475-0.173,0.839-0.519,1.093c-0.346,0.253-0.841,0.38-1.485,0.38
					c-0.647,0-1.167-0.098-1.56-0.295v-0.892c0.571,0.264,1.103,0.396,1.595,0.396c0.636,0,0.954-0.191,0.954-0.576
					c0-0.123-0.035-0.225-0.105-0.307s-0.186-0.168-0.347-0.256s-0.385-0.187-0.672-0.299c-0.56-0.216-0.938-0.433-1.136-0.65
					c-0.198-0.216-0.297-0.497-0.297-0.844c0-0.415,0.167-0.738,0.503-0.969c0.335-0.229,0.792-0.345,1.369-0.345
					c0.571,0,1.112,0.116,1.622,0.347L59.869,63.6c-0.524-0.217-0.965-0.325-1.323-0.325c-0.545,0-0.817,0.155-0.817,0.466
					c0,0.152,0.071,0.281,0.213,0.387s0.452,0.251,0.93,0.435c0.401,0.156,0.693,0.298,0.875,0.427s0.316,0.277,0.404,0.446
					C60.238,65.603,60.282,65.805,60.282,66.038z"/>
				<path fill="#606161" d="M65.674,67.423h-1.037v-2.988c0-0.375-0.076-0.654-0.226-0.84c-0.151-0.184-0.391-0.276-0.719-0.276
					c-0.434,0-0.752,0.13-0.956,0.389c-0.204,0.26-0.305,0.694-0.305,1.304v2.412h-1.033v-6.838h1.033v1.736
					c0,0.278-0.018,0.575-0.053,0.892h0.066c0.141-0.234,0.336-0.416,0.587-0.545c0.25-0.129,0.542-0.193,0.876-0.193
					c1.178,0,1.767,0.593,1.767,1.78V67.423z"/>
				<path fill="#606161" d="M69.234,67.511c-0.756,0-1.347-0.221-1.773-0.661c-0.427-0.441-0.64-1.048-0.64-1.821
					c0-0.794,0.198-1.418,0.593-1.873c0.396-0.453,0.939-0.681,1.63-0.681c0.642,0,1.148,0.195,1.521,0.585s0.558,0.926,0.558,1.607
					v0.559h-3.239c0.015,0.472,0.142,0.834,0.382,1.088c0.24,0.253,0.579,0.38,1.015,0.38c0.287,0,0.554-0.027,0.802-0.081
					c0.248-0.055,0.514-0.145,0.798-0.271v0.839c-0.252,0.121-0.507,0.206-0.765,0.256C69.859,67.485,69.565,67.511,69.234,67.511z
					 M69.045,63.257c-0.328,0-0.591,0.104-0.789,0.313c-0.197,0.208-0.315,0.511-0.354,0.909h2.206
					c-0.006-0.401-0.103-0.705-0.29-0.912C69.631,63.36,69.373,63.257,69.045,63.257z"/>
				<path fill="#606161" d="M74.419,67.511c-0.756,0-1.347-0.221-1.773-0.661c-0.427-0.441-0.64-1.048-0.64-1.821
					c0-0.794,0.198-1.418,0.593-1.873c0.396-0.453,0.939-0.681,1.63-0.681c0.642,0,1.148,0.195,1.521,0.585s0.558,0.926,0.558,1.607
					v0.559H73.07c0.015,0.472,0.142,0.834,0.382,1.088c0.24,0.253,0.579,0.38,1.015,0.38c0.287,0,0.554-0.027,0.802-0.081
					c0.248-0.055,0.514-0.145,0.798-0.271v0.839c-0.252,0.121-0.507,0.206-0.765,0.256C75.045,67.485,74.75,67.511,74.419,67.511z
					 M74.23,63.257c-0.328,0-0.591,0.104-0.789,0.313c-0.197,0.208-0.315,0.511-0.354,0.909h2.206
					c-0.006-0.401-0.103-0.705-0.29-0.912C74.816,63.36,74.559,63.257,74.23,63.257z"/>
				<path fill="#606161" d="M79.293,66.676c0.252,0,0.504-0.04,0.756-0.118v0.777c-0.114,0.05-0.262,0.092-0.441,0.125
					c-0.181,0.034-0.367,0.051-0.561,0.051c-0.979,0-1.468-0.516-1.468-1.547v-2.619h-0.664v-0.457l0.712-0.378l0.352-1.028h0.637
					v1.081H80v0.782h-1.384v2.602c0,0.249,0.062,0.433,0.187,0.552C78.927,66.616,79.091,66.676,79.293,66.676z"/>
				<path fill="#606161" d="M84.285,66.038c0,0.475-0.173,0.839-0.519,1.093c-0.346,0.253-0.841,0.38-1.485,0.38
					c-0.647,0-1.167-0.098-1.56-0.295v-0.892c0.571,0.264,1.103,0.396,1.595,0.396c0.636,0,0.954-0.191,0.954-0.576
					c0-0.123-0.035-0.225-0.105-0.307s-0.186-0.168-0.347-0.256s-0.385-0.187-0.672-0.299c-0.56-0.216-0.938-0.433-1.136-0.65
					c-0.198-0.216-0.297-0.497-0.297-0.844c0-0.415,0.167-0.738,0.503-0.969c0.335-0.229,0.792-0.345,1.369-0.345
					c0.571,0,1.112,0.116,1.622,0.347L83.872,63.6c-0.524-0.217-0.965-0.325-1.323-0.325c-0.545,0-0.817,0.155-0.817,0.466
					c0,0.152,0.071,0.281,0.213,0.387s0.452,0.251,0.93,0.435c0.401,0.156,0.693,0.298,0.875,0.427s0.316,0.277,0.404,0.446
					C84.241,65.603,84.285,65.805,84.285,66.038z"/>
				<path fill="#606161" d="M23.43,73.275c0,0.407-0.119,0.746-0.356,1.018c-0.237,0.271-0.571,0.453-1.002,0.547v0.035
					c0.516,0.064,0.902,0.225,1.16,0.481c0.258,0.256,0.387,0.597,0.387,1.021c0,0.618-0.218,1.095-0.655,1.431
					c-0.437,0.335-1.058,0.503-1.863,0.503c-0.712,0-1.313-0.115-1.802-0.348v-0.918c0.272,0.135,0.561,0.239,0.866,0.313
					s0.598,0.109,0.879,0.109c0.498,0,0.87-0.092,1.116-0.277c0.246-0.184,0.369-0.47,0.369-0.856c0-0.343-0.136-0.595-0.409-0.756
					s-0.7-0.241-1.283-0.241h-0.558v-0.84h0.567c1.025,0,1.538-0.354,1.538-1.063c0-0.275-0.089-0.487-0.268-0.638
					c-0.179-0.148-0.442-0.224-0.791-0.224c-0.243,0-0.478,0.034-0.703,0.104c-0.226,0.068-0.492,0.203-0.8,0.401l-0.505-0.721
					c0.589-0.433,1.273-0.65,2.052-0.65c0.647,0,1.153,0.14,1.516,0.418S23.43,72.786,23.43,73.275z"/>
				<path fill="#606161" d="M30.131,74.95c0,1.061-0.294,1.871-0.883,2.432c-0.589,0.562-1.437,0.842-2.544,0.842h-1.797v-6.425
					h1.986c1.022,0,1.818,0.275,2.386,0.826S30.131,73.951,30.131,74.95z M29.024,74.985c0-1.539-0.719-2.308-2.158-2.308h-0.91
					v4.663h0.747C28.25,77.341,29.024,76.556,29.024,74.985z"/>
				<path fill="#606161" d="M37.554,76.479c0,0.57-0.207,1.02-0.62,1.344c-0.413,0.326-0.983,0.488-1.709,0.488
					s-1.321-0.112-1.784-0.338v-0.994c0.293,0.139,0.604,0.246,0.934,0.326c0.33,0.078,0.637,0.118,0.921,0.118
					c0.416,0,0.723-0.079,0.921-0.237c0.197-0.158,0.296-0.37,0.296-0.637c0-0.24-0.091-0.444-0.272-0.611s-0.557-0.365-1.125-0.594
					c-0.586-0.236-0.999-0.508-1.239-0.813s-0.36-0.671-0.36-1.099c0-0.536,0.19-0.958,0.571-1.266s0.892-0.462,1.534-0.462
					c0.615,0,1.228,0.136,1.837,0.404l-0.334,0.857c-0.571-0.24-1.081-0.36-1.529-0.36c-0.34,0-0.598,0.074-0.773,0.222
					c-0.176,0.148-0.264,0.344-0.264,0.587c0,0.167,0.035,0.31,0.105,0.429c0.07,0.118,0.186,0.23,0.347,0.336
					s0.451,0.245,0.87,0.418c0.472,0.196,0.817,0.379,1.037,0.549s0.381,0.362,0.483,0.576S37.554,76.188,37.554,76.479z"/>
				<path fill="#606161" d="M40.498,77.477c0.252,0,0.504-0.04,0.756-0.118v0.777c-0.114,0.05-0.262,0.092-0.441,0.125
					c-0.181,0.034-0.367,0.051-0.561,0.051c-0.979,0-1.468-0.516-1.468-1.547v-2.619h-0.664v-0.457l0.712-0.378l0.352-1.028h0.637
					v1.081h1.384v0.782h-1.384v2.602c0,0.249,0.062,0.433,0.187,0.552C40.132,77.417,40.296,77.477,40.498,77.477z"/>
				<path fill="#606161" d="M45.653,78.224l-0.145-0.637h-0.053c-0.144,0.226-0.348,0.402-0.613,0.531
					c-0.266,0.129-0.568,0.193-0.908,0.193c-0.589,0-1.028-0.146-1.318-0.439s-0.435-0.736-0.435-1.332v-3.177h1.042v2.997
					c0,0.372,0.076,0.651,0.229,0.837c0.152,0.187,0.391,0.279,0.716,0.279c0.434,0,0.752-0.13,0.956-0.389
					c0.203-0.26,0.305-0.693,0.305-1.304v-2.421h1.037v4.86H45.653z"/>
				<path fill="#606161" d="M49.577,78.312c-0.606,0-1.08-0.22-1.419-0.659s-0.51-1.056-0.51-1.851c0-0.796,0.172-1.417,0.517-1.86
					c0.344-0.444,0.821-0.666,1.43-0.666c0.639,0,1.125,0.236,1.459,0.708h0.053c-0.05-0.349-0.075-0.625-0.075-0.826v-1.771h1.037
					v6.838H51.26l-0.18-0.637h-0.048C50.701,78.069,50.216,78.312,49.577,78.312z M49.854,77.477c0.425,0,0.734-0.119,0.927-0.358
					c0.193-0.238,0.293-0.626,0.299-1.162v-0.145c0-0.612-0.1-1.048-0.299-1.306s-0.511-0.387-0.936-0.387
					c-0.363,0-0.643,0.147-0.839,0.441c-0.196,0.295-0.294,0.714-0.294,1.259c0,0.54,0.095,0.95,0.286,1.233
					C49.188,77.335,49.473,77.477,49.854,77.477z"/>
				<path fill="#606161" d="M53.484,72.075c0-0.184,0.051-0.326,0.151-0.426c0.102-0.1,0.246-0.149,0.433-0.149
					c0.182,0,0.323,0.05,0.424,0.149c0.101,0.1,0.151,0.242,0.151,0.426c0,0.176-0.051,0.314-0.151,0.416
					c-0.102,0.101-0.243,0.151-0.424,0.151c-0.188,0-0.332-0.051-0.433-0.151C53.535,72.39,53.484,72.251,53.484,72.075z
					 M54.578,78.224h-1.033v-4.86h1.033V78.224z"/>
				<path fill="#606161" d="M60.366,75.784c0,0.795-0.204,1.414-0.611,1.859s-0.974,0.668-1.701,0.668
					c-0.454,0-0.855-0.103-1.204-0.308s-0.617-0.499-0.804-0.884c-0.188-0.383-0.281-0.828-0.281-1.336
					c0-0.787,0.202-1.402,0.606-1.846c0.404-0.441,0.974-0.663,1.709-0.663c0.703,0,1.26,0.227,1.67,0.679
					C60.161,74.407,60.366,75.018,60.366,75.784z M56.828,75.784c0,1.123,0.415,1.684,1.244,1.684c0.82,0,1.23-0.561,1.23-1.684
					c0-1.109-0.413-1.665-1.239-1.665c-0.434,0-0.748,0.144-0.943,0.431S56.828,75.249,56.828,75.784z"/>
				<path fill="#606161" d="M66.777,78.224l-1.863-5.365h-0.035c0.05,0.797,0.075,1.544,0.075,2.24v3.125H64v-6.425h1.481
					l1.784,5.11h0.026l1.837-5.11h1.485v6.425h-1.011v-3.178c0-0.318,0.008-0.734,0.024-1.248c0.016-0.512,0.03-0.822,0.042-0.932
					h-0.035l-1.929,5.357H66.777z"/>
				<path fill="#606161" d="M75.237,78.224l-0.207-0.677h-0.035c-0.234,0.296-0.47,0.497-0.708,0.604
					c-0.237,0.106-0.542,0.16-0.914,0.16c-0.478,0-0.851-0.129-1.118-0.387c-0.269-0.258-0.402-0.622-0.402-1.094
					c0-0.502,0.186-0.879,0.558-1.135c0.372-0.254,0.939-0.394,1.701-0.417l0.839-0.026v-0.26c0-0.31-0.073-0.542-0.217-0.696
					c-0.146-0.153-0.37-0.23-0.675-0.23c-0.249,0-0.488,0.037-0.716,0.11s-0.448,0.159-0.659,0.259l-0.334-0.738
					c0.264-0.138,0.552-0.242,0.866-0.314c0.313-0.071,0.609-0.107,0.888-0.107c0.618,0,1.084,0.135,1.399,0.404
					s0.473,0.693,0.473,1.271v3.273H75.237z M73.699,77.521c0.375,0,0.676-0.104,0.903-0.314c0.227-0.209,0.34-0.503,0.34-0.881
					v-0.422l-0.624,0.026c-0.486,0.018-0.84,0.099-1.061,0.244c-0.222,0.145-0.332,0.366-0.332,0.665
					c0,0.218,0.064,0.385,0.193,0.504C73.248,77.461,73.441,77.521,73.699,77.521z"/>
				<path fill="#606161" d="M78.498,75.741l-1.63-2.378h1.178l1.107,1.7l1.116-1.7h1.169l-1.635,2.378l1.718,2.482h-1.169
					l-1.2-1.819l-1.195,1.819h-1.169L78.498,75.741z"/>
				<path fill="#606161" d="M34.236,89.023l-1.863-5.365h-0.035c0.05,0.797,0.075,1.544,0.075,2.24v3.125h-0.954v-6.425h1.481
					l1.784,5.11h0.026l1.837-5.11h1.485v6.425h-1.011v-3.178c0-0.318,0.008-0.734,0.024-1.248c0.016-0.512,0.03-0.822,0.042-0.932
					h-0.035l-1.929,5.357H34.236z"/>
				<path fill="#606161" d="M43.965,86.584c0,0.795-0.204,1.414-0.611,1.859s-0.974,0.668-1.701,0.668
					c-0.454,0-0.855-0.103-1.204-0.308s-0.617-0.499-0.804-0.884c-0.188-0.383-0.281-0.828-0.281-1.336
					c0-0.787,0.202-1.402,0.606-1.846c0.404-0.441,0.974-0.663,1.709-0.663c0.703,0,1.26,0.227,1.67,0.679
					C43.76,85.207,43.965,85.817,43.965,86.584z M40.428,86.584c0,1.123,0.415,1.684,1.244,1.684c0.82,0,1.23-0.561,1.23-1.684
					c0-1.109-0.413-1.665-1.239-1.665c-0.434,0-0.748,0.144-0.943,0.431S40.428,86.049,40.428,86.584z"/>
				<path fill="#606161" d="M46.791,89.111c-0.606,0-1.08-0.22-1.419-0.659s-0.51-1.056-0.51-1.851c0-0.796,0.172-1.417,0.517-1.86
					c0.344-0.444,0.821-0.666,1.43-0.666c0.639,0,1.125,0.236,1.459,0.708h0.053c-0.05-0.349-0.075-0.625-0.075-0.826v-1.771h1.037
					v6.838h-0.809l-0.18-0.637h-0.048C47.915,88.869,47.43,89.111,46.791,89.111z M47.068,88.276c0.425,0,0.734-0.119,0.927-0.358
					c0.193-0.238,0.293-0.626,0.299-1.162v-0.145c0-0.612-0.1-1.048-0.299-1.306s-0.511-0.387-0.936-0.387
					c-0.363,0-0.643,0.147-0.839,0.441c-0.196,0.295-0.294,0.714-0.294,1.259c0,0.54,0.095,0.95,0.286,1.233
					C46.401,88.135,46.687,88.276,47.068,88.276z"/>
				<path fill="#606161" d="M52.882,89.111c-0.756,0-1.347-0.221-1.773-0.661c-0.427-0.441-0.64-1.048-0.64-1.821
					c0-0.794,0.198-1.418,0.593-1.873c0.396-0.453,0.939-0.681,1.63-0.681c0.642,0,1.148,0.195,1.521,0.585s0.558,0.926,0.558,1.607
					v0.559h-3.239c0.015,0.472,0.142,0.834,0.382,1.088c0.24,0.253,0.579,0.38,1.015,0.38c0.287,0,0.554-0.027,0.802-0.081
					c0.248-0.055,0.514-0.145,0.798-0.271v0.839c-0.252,0.121-0.507,0.206-0.765,0.256C53.507,89.086,53.213,89.111,52.882,89.111z
					 M52.693,84.857c-0.328,0-0.591,0.104-0.789,0.313c-0.197,0.208-0.315,0.511-0.354,0.909h2.206
					c-0.006-0.401-0.103-0.705-0.29-0.912C53.279,84.961,53.021,84.857,52.693,84.857z"/>
				<path fill="#606161" d="M56.978,89.023h-1.033v-6.838h1.033V89.023z"/>
				<path fill="#606161" d="M61.719,87.639c0,0.475-0.173,0.839-0.519,1.093c-0.346,0.253-0.841,0.38-1.485,0.38
					c-0.647,0-1.167-0.098-1.56-0.295v-0.892c0.571,0.264,1.103,0.396,1.595,0.396c0.636,0,0.954-0.191,0.954-0.576
					c0-0.123-0.035-0.225-0.105-0.307s-0.186-0.168-0.347-0.256s-0.385-0.187-0.672-0.299c-0.56-0.216-0.938-0.433-1.136-0.65
					c-0.198-0.216-0.297-0.497-0.297-0.844c0-0.415,0.167-0.738,0.503-0.969c0.335-0.229,0.792-0.345,1.369-0.345
					c0.571,0,1.112,0.116,1.622,0.347L61.306,85.2c-0.524-0.217-0.965-0.325-1.323-0.325c-0.545,0-0.817,0.155-0.817,0.466
					c0,0.152,0.071,0.281,0.213,0.387s0.452,0.251,0.93,0.435c0.401,0.156,0.693,0.298,0.875,0.427s0.316,0.277,0.404,0.446
					C61.675,87.203,61.719,87.405,61.719,87.639z"/>
				<path fill="#606161" d="M35.444,99.823l-0.642-1.784h-2.457l-0.628,1.784H30.61l2.404-6.451h1.143l2.404,6.451H35.444z
					 M34.526,97.134l-0.602-1.749c-0.044-0.117-0.105-0.302-0.183-0.554s-0.131-0.437-0.16-0.554
					c-0.079,0.36-0.195,0.755-0.347,1.183l-0.58,1.674H34.526z"/>
				<path fill="#606161" d="M41.575,99.823h-1.037v-2.988c0-0.375-0.076-0.654-0.226-0.84c-0.151-0.184-0.391-0.276-0.719-0.276
					c-0.437,0-0.756,0.129-0.958,0.387s-0.303,0.69-0.303,1.296v2.422h-1.033v-4.86h0.809l0.145,0.638h0.053
					c0.146-0.231,0.354-0.41,0.624-0.537c0.27-0.125,0.568-0.188,0.896-0.188c1.166,0,1.749,0.593,1.749,1.78V99.823z"/>
				<path fill="#606161" d="M42.95,93.675c0-0.184,0.051-0.326,0.151-0.426c0.102-0.1,0.246-0.149,0.433-0.149
					c0.182,0,0.323,0.05,0.424,0.149c0.101,0.1,0.151,0.242,0.151,0.426c0,0.176-0.051,0.314-0.151,0.416
					c-0.102,0.101-0.243,0.151-0.424,0.151c-0.188,0-0.332-0.051-0.433-0.151C43.001,93.989,42.95,93.851,42.95,93.675z
					 M44.044,99.823h-1.033v-4.86h1.033V99.823z"/>
				<path fill="#606161" d="M49.617,99.823H48.58v-2.997c0-0.372-0.07-0.649-0.211-0.833c-0.141-0.183-0.36-0.274-0.659-0.274
					c-0.398,0-0.691,0.13-0.877,0.389c-0.186,0.26-0.279,0.691-0.279,1.294v2.422h-1.033v-4.86h0.809l0.145,0.638h0.053
					c0.135-0.231,0.33-0.41,0.586-0.537c0.256-0.125,0.539-0.188,0.846-0.188c0.747,0,1.242,0.255,1.485,0.765h0.07
					c0.144-0.24,0.346-0.428,0.606-0.563s0.56-0.202,0.896-0.202c0.58,0,1.002,0.146,1.268,0.439
					c0.265,0.293,0.397,0.74,0.397,1.341v3.168h-1.033v-2.997c0-0.372-0.071-0.649-0.213-0.833
					c-0.142-0.183-0.362-0.274-0.661-0.274c-0.401,0-0.695,0.125-0.881,0.376c-0.187,0.25-0.279,0.635-0.279,1.153V99.823z"/>
				<path fill="#606161" d="M57.167,99.823l-0.207-0.677h-0.035c-0.234,0.296-0.47,0.497-0.708,0.604
					c-0.237,0.106-0.542,0.16-0.914,0.16c-0.478,0-0.851-0.129-1.118-0.387c-0.269-0.258-0.402-0.622-0.402-1.094
					c0-0.502,0.186-0.879,0.558-1.135c0.372-0.254,0.939-0.394,1.701-0.417l0.839-0.026v-0.26c0-0.31-0.073-0.542-0.217-0.696
					c-0.146-0.153-0.37-0.23-0.675-0.23c-0.249,0-0.488,0.037-0.716,0.11s-0.448,0.159-0.659,0.259l-0.334-0.738
					c0.264-0.138,0.552-0.242,0.866-0.314c0.313-0.071,0.609-0.107,0.888-0.107c0.618,0,1.084,0.135,1.399,0.404
					s0.473,0.693,0.473,1.271v3.273H57.167z M55.628,99.12c0.375,0,0.676-0.104,0.903-0.314c0.227-0.209,0.34-0.503,0.34-0.881
					v-0.422l-0.624,0.026c-0.486,0.018-0.84,0.099-1.061,0.244c-0.222,0.145-0.332,0.366-0.332,0.665
					c0,0.218,0.064,0.385,0.193,0.504C55.177,99.061,55.371,99.12,55.628,99.12z"/>
				<path fill="#606161" d="M61.157,99.076c0.252,0,0.504-0.04,0.756-0.118v0.777c-0.114,0.05-0.262,0.092-0.441,0.125
					c-0.181,0.034-0.367,0.051-0.561,0.051c-0.979,0-1.468-0.516-1.468-1.547v-2.619h-0.664v-0.457l0.712-0.378l0.352-1.028h0.637
					v1.081h1.384v0.782H60.48v2.602c0,0.249,0.062,0.433,0.187,0.552C60.791,99.017,60.955,99.076,61.157,99.076z"/>
				<path fill="#606161" d="M62.822,93.675c0-0.184,0.051-0.326,0.151-0.426c0.102-0.1,0.246-0.149,0.433-0.149
					c0.182,0,0.323,0.05,0.424,0.149c0.101,0.1,0.151,0.242,0.151,0.426c0,0.176-0.051,0.314-0.151,0.416
					c-0.102,0.101-0.243,0.151-0.424,0.151c-0.188,0-0.332-0.051-0.433-0.151C62.873,93.989,62.822,93.851,62.822,93.675z
					 M63.917,99.823h-1.033v-4.86h1.033V99.823z"/>
				<path fill="#606161" d="M69.704,97.384c0,0.795-0.204,1.414-0.611,1.859s-0.974,0.668-1.701,0.668
					c-0.454,0-0.855-0.103-1.204-0.308s-0.617-0.499-0.804-0.884c-0.188-0.383-0.281-0.828-0.281-1.336
					c0-0.787,0.202-1.402,0.606-1.846c0.404-0.441,0.974-0.663,1.709-0.663c0.703,0,1.26,0.227,1.67,0.679
					C69.499,96.007,69.704,96.617,69.704,97.384z M66.167,97.384c0,1.123,0.415,1.684,1.244,1.684c0.82,0,1.23-0.561,1.23-1.684
					c0-1.109-0.413-1.665-1.239-1.665c-0.434,0-0.748,0.144-0.943,0.431S66.167,96.849,66.167,97.384z"/>
				<path fill="#606161" d="M75.167,99.823h-1.037v-2.988c0-0.375-0.076-0.654-0.226-0.84c-0.151-0.184-0.391-0.276-0.719-0.276
					c-0.437,0-0.756,0.129-0.958,0.387s-0.303,0.69-0.303,1.296v2.422h-1.033v-4.86h0.809l0.145,0.638h0.053
					c0.146-0.231,0.354-0.41,0.624-0.537c0.27-0.125,0.568-0.188,0.896-0.188c1.166,0,1.749,0.593,1.749,1.78V99.823z"/>
				<path fill="#606161" d="M79.869,98.438c0,0.475-0.173,0.839-0.519,1.093c-0.346,0.253-0.841,0.38-1.485,0.38
					c-0.647,0-1.167-0.098-1.56-0.295v-0.892c0.571,0.264,1.103,0.396,1.595,0.396c0.636,0,0.954-0.191,0.954-0.576
					c0-0.123-0.035-0.225-0.105-0.307s-0.186-0.168-0.347-0.256s-0.385-0.187-0.672-0.299c-0.56-0.216-0.938-0.433-1.136-0.65
					c-0.198-0.216-0.297-0.497-0.297-0.844c0-0.415,0.167-0.738,0.503-0.969c0.335-0.229,0.792-0.345,1.369-0.345
					c0.571,0,1.112,0.116,1.622,0.347L79.456,96c-0.524-0.217-0.965-0.325-1.323-0.325c-0.545,0-0.817,0.155-0.817,0.466
					c0,0.152,0.071,0.281,0.213,0.387s0.452,0.251,0.93,0.435c0.401,0.156,0.693,0.298,0.875,0.427s0.316,0.277,0.404,0.446
					C79.825,98.003,79.869,98.205,79.869,98.438z"/>
			</g>
		</g>
		<g>
			<g>
				<g>
					<rect x="127.891" y="77.068" fill="#FFFFFF" width="22.054" height="2.72"/>
					<path fill="#FFFFFF" d="M145.167,69.325c0,0,6.433-3.994,6.37-6.654c1.786,0.517,0.996,7.504-3.893,9.53L145.167,69.325z"/>
					<path fill="#FFFFFF" d="M132.66,69.325c0,0-6.436-3.994-6.373-6.654c-1.786,0.517-0.993,7.504,3.897,9.53L132.66,69.325z"/>
				</g>
			</g>
			<g>
				<path fill="none" stroke="#FFFFFF" stroke-width="1.18" stroke-miterlimit="10" d="M128.644,77.631h8.973V66.999
					C132.56,67.67,128.644,72.169,128.644,77.631z"/>
				<path fill="none" stroke="#FFFFFF" stroke-width="1.18" stroke-miterlimit="10" d="M140.218,66.999v10.632h8.97
					C149.188,72.169,145.275,67.67,140.218,66.999z"/>
				<path fill="#FFFFFF" d="M140.218,66.999v-1.502h-2.602v1.502c0.426-0.058,0.857-0.097,1.3-0.097S139.792,66.941,140.218,66.999z
					"/>
				<rect x="137.617" y="77.631" fill="#FFFFFF" width="2.602" height="0.618"/>
			</g>
			<rect x="138.266" y="67.532" fill="#FFFFFF" width="1.303" height="4.876"/>
			<rect x="138.266" y="72.844" fill="#FFFFFF" width="1.303" height="4.026"/>
		</g>
		<g>
			<g>
				<polygon fill="#FFFFFF" points="166.942,81.8 149.011,100.523 150.38,101.952 168.31,83.231 				"/>
				<g>
					<path fill="#FFFFFF" d="M161.041,78.215c0.202,1.299,0.724,3.122,2.042,4.845c-0.993,1.038-2,2.09-2.673,2.793
						c-1.678-1.396-3.385-1.931-4.608-2.125c0.409-0.869,1.104-2.051,2.23-3.229C159.126,79.357,160.222,78.644,161.041,78.215
						 M162.102,76.504c0,0-2.46,0.61-4.921,3.178c-2.459,2.572-3.045,5.14-3.045,5.14s0.146-0.018,0.403-0.018
						c0.978,0,3.571,0.255,5.919,2.705c0,0,2.305-2.406,4.215-4.404C161.867,80.173,162.102,76.504,162.102,76.504L162.102,76.504z"
						/>
				</g>
				<path fill="#FFFFFF" d="M162.102,76.504c0,0-2.46,0.61-4.921,3.178c-2.459,2.572-3.045,5.14-3.045,5.14l1.432,0.063
					c2.259-4.388,6.628-6.921,6.628-6.921C162.065,77.082,162.102,76.504,162.102,76.504z"/>
				<g>
					<path fill="#FFFFFF" d="M167.086,87.229c1.678,1.396,3.385,1.93,4.608,2.124c-0.409,0.87-1.104,2.053-2.23,3.229
						c-1.094,1.142-2.19,1.856-3.008,2.284c-0.203-1.298-0.726-3.12-2.043-4.845C165.406,88.984,166.413,87.933,167.086,87.229
						 M167.039,85.573c0,0-2.305,2.405-4.216,4.404c2.805,2.934,2.572,6.601,2.572,6.601s2.461-0.611,4.921-3.179
						c2.459-2.569,3.044-5.14,3.044-5.14s-0.146,0.018-0.405,0.018C171.976,88.277,169.384,88.021,167.039,85.573L167.039,85.573z
						 M173.36,88.26h0.005H173.36z"/>
				</g>
			</g>
		</g>
	</g>
</g>
<g id="Layer_2">
</g>
</svg>
