<?xml version="1.0" encoding="utf-8"?>
<!-- Generator: Adobe Illustrator 16.0.0, SVG Export Plug-In . SVG Version: 6.00 Build 0)  -->
<!DOCTYPE svg PUBLIC "-//W3C//DTD SVG 1.1//EN" "http://www.w3.org/Graphics/SVG/1.1/DTD/svg11.dtd">
<svg version="1.1" xmlns="http://www.w3.org/2000/svg" xmlns:xlink="http://www.w3.org/1999/xlink" x="0px" y="0px" width="200px"
	 height="130px" viewBox="0 0 200 130" enable-background="new 0 0 200 130" xml:space="preserve">
<g id="Layer_1">
	<g>
		<g>
			<path fill="#B52245" d="M186.333,16.765c1.334,0,2.419,1.087,2.419,2.422v99.527c0,1.336-1.085,2.423-2.419,2.423H13.463
				c-1.335,0-2.422-1.087-2.422-2.423V19.187c0-1.335,1.086-2.422,2.422-2.422H186.333 M186.333,15.585H13.463
				c-1.979,0-3.602,1.622-3.602,3.602v99.527c0,1.98,1.623,3.603,3.602,3.603h172.871c1.979,0,3.6-1.622,3.6-3.603V19.187
				C189.933,17.207,188.313,15.585,186.333,15.585L186.333,15.585z"/>
		</g>
		<path fill="#B52245" d="M186.333,10.185H13.463c-1.979,0-3.602,1.62-3.602,3.601V28.19v1.803v3.603h3.602h172.871h3.6v-3.603
			V28.19V13.785C189.933,11.805,188.313,10.185,186.333,10.185z"/>
		<g>
			<rect x="18.92" y="16.499" fill="none" width="171.363" height="14.794"/>
			<text transform="matrix(1 0 0 1 18.9209 24.1963)" fill="#FFFFFF" font-family="'Rokkitt-Bold'" font-size="12.98">Game Artwork &amp; Assets</text>
		</g>
		<circle fill="#B52245" cx="148.352" cy="80.295" r="30.509"/>
		<g>
			<rect x="18.92" y="49.786" fill="none" width="107.675" height="62.867"/>
			<text transform="matrix(1 0 0 1 18.9209 56.4385)"><tspan x="0" y="0" fill="#606161" font-family="'Rokkitt'" font-size="11.8">Illustrator &amp; Photoshop</tspan><tspan x="0" y="14.16" fill="#606161" font-family="'Rokkitt'" font-size="11.8">     </tspan><tspan x="12.388" y="14.16" fill="#606161" font-family="'Rokkitt'" font-size="10.62">Spritesheets</tspan><tspan x="0" y="28.32" fill="#606161" font-family="'Rokkitt'" font-size="11.8">3D Studio Max</tspan><tspan x="0" y="41.063" fill="#606161" font-family="'Rokkitt'" font-size="10.62">     Models</tspan><tspan x="0" y="53.808" fill="#606161" font-family="'Rokkitt'" font-size="10.62">     Animations</tspan></text>
		</g>
		<g>
			<g>
				<g>
					<rect x="127.891" y="77.068" fill="#FFFFFF" width="22.054" height="2.72"/>
					<path fill="#FFFFFF" d="M145.167,69.325c0,0,6.433-3.994,6.37-6.654c1.786,0.517,0.996,7.504-3.893,9.53L145.167,69.325z"/>
					<path fill="#FFFFFF" d="M132.66,69.325c0,0-6.436-3.994-6.373-6.654c-1.786,0.517-0.993,7.504,3.897,9.53L132.66,69.325z"/>
				</g>
			</g>
			<g>
				<path fill="none" stroke="#FFFFFF" stroke-width="1.18" stroke-miterlimit="10" d="M128.644,77.631h8.973V66.999
					C132.56,67.67,128.644,72.169,128.644,77.631z"/>
				<path fill="none" stroke="#FFFFFF" stroke-width="1.18" stroke-miterlimit="10" d="M140.218,66.999v10.632h8.97
					C149.188,72.169,145.275,67.67,140.218,66.999z"/>
				<path fill="#FFFFFF" d="M140.218,66.999v-1.502h-2.602v1.502c0.426-0.058,0.857-0.097,1.3-0.097S139.792,66.941,140.218,66.999z
					"/>
				<rect x="137.617" y="77.631" fill="#FFFFFF" width="2.602" height="0.618"/>
			</g>
			<rect x="138.266" y="67.532" fill="#FFFFFF" width="1.303" height="4.876"/>
			<rect x="138.266" y="72.844" fill="#FFFFFF" width="1.303" height="4.026"/>
		</g>
		<g>
			<g>
				<polygon fill="#FFFFFF" points="166.942,81.8 149.011,100.523 150.38,101.952 168.31,83.231 				"/>
				<g>
					<path fill="#FFFFFF" d="M161.041,78.215c0.202,1.299,0.724,3.122,2.042,4.845c-0.993,1.038-2,2.09-2.673,2.793
						c-1.678-1.396-3.385-1.931-4.608-2.125c0.409-0.869,1.104-2.051,2.23-3.229C159.126,79.357,160.222,78.644,161.041,78.215
						 M162.102,76.504c0,0-2.46,0.61-4.921,3.178c-2.459,2.572-3.045,5.14-3.045,5.14s0.146-0.018,0.403-0.018
						c0.978,0,3.571,0.255,5.919,2.705c0,0,2.305-2.406,4.215-4.404C161.867,80.173,162.102,76.504,162.102,76.504L162.102,76.504z"
						/>
				</g>
				<path fill="#FFFFFF" d="M162.102,76.504c0,0-2.46,0.61-4.921,3.178c-2.459,2.572-3.045,5.14-3.045,5.14l1.432,0.063
					c2.259-4.388,6.628-6.921,6.628-6.921C162.065,77.082,162.102,76.504,162.102,76.504z"/>
				<g>
					<path fill="#FFFFFF" d="M167.086,87.229c1.678,1.396,3.385,1.93,4.608,2.124c-0.409,0.87-1.104,2.053-2.23,3.229
						c-1.094,1.142-2.19,1.856-3.008,2.284c-0.203-1.298-0.726-3.12-2.043-4.845C165.406,88.984,166.413,87.933,167.086,87.229
						 M167.039,85.573c0,0-2.305,2.405-4.216,4.404c2.805,2.934,2.572,6.601,2.572,6.601s2.461-0.611,4.921-3.179
						c2.459-2.569,3.044-5.14,3.044-5.14s-0.146,0.018-0.405,0.018C171.976,88.277,169.384,88.021,167.039,85.573L167.039,85.573z
						 M173.36,88.26h0.005H173.36z"/>
				</g>
			</g>
		</g>
	</g>
</g>
<g id="Layer_2">
</g>
</svg>
