<?xml version="1.0" encoding="utf-8"?>
<!-- Generator: Adobe Illustrator 16.0.0, SVG Export Plug-In . SVG Version: 6.00 Build 0)  -->
<!DOCTYPE svg PUBLIC "-//W3C//DTD SVG 1.1//EN" "http://www.w3.org/Graphics/SVG/1.1/DTD/svg11.dtd">
<svg version="1.1" xmlns="http://www.w3.org/2000/svg" xmlns:xlink="http://www.w3.org/1999/xlink" x="0px" y="0px" width="200px"
	 height="130px" viewBox="0 0 200 130" enable-background="new 0 0 200 130" xml:space="preserve">
<g id="Layer_1">
	<g>
		<g>
			<path fill="#B52245" d="M187.209,16.331c1.346,0,2.442,1.097,2.442,2.444v100.422c0,1.349-1.096,2.446-2.442,2.446H12.78
				c-1.347,0-2.443-1.098-2.443-2.446V18.775c0-1.348,1.096-2.444,2.443-2.444H187.209 M187.209,15.141H12.78
				c-1.998,0-3.633,1.637-3.633,3.635v100.422c0,1.998,1.636,3.637,3.633,3.637h174.429c1.998,0,3.632-1.639,3.632-3.637V18.775
				C190.841,16.777,189.207,15.141,187.209,15.141L187.209,15.141z"/>
		</g>
		<path fill="#B52245" d="M187.209,9.69H12.78c-1.998,0-3.633,1.635-3.633,3.636v14.535v1.816v3.634h3.633h174.429h3.632v-3.634
			v-1.816V13.326C190.841,11.325,189.207,9.69,187.209,9.69z"/>
		<g>
			<rect x="18.287" y="16.063" fill="none" width="150.887" height="14.928"/>
			<text transform="matrix(1 0 0 1 18.2866 23.8291)" fill="#FFFFFF" font-family="'Rokkitt-Bold'" font-size="13.097">Mobile Applications</text>
		</g>
		<circle fill="#B52245" cx="148.885" cy="80.433" r="30.785"/>
		<g>
			<rect x="18.287" y="49.648" fill="none" width="85.821" height="63.434"/>
			<text transform="matrix(1 0 0 1 18.2866 56.3623)"><tspan x="0" y="0" fill="#606161" font-family="'Rokkitt'" font-size="11.9064">Native </tspan><tspan x="0" y="14.288" fill="#606161" font-family="'Rokkitt'" font-size="11.9064">     </tspan><tspan x="12.5" y="14.288" fill="#606161" font-family="'Rokkitt'" font-size="10.7157">iOS</tspan><tspan x="0" y="27.146" fill="#606161" font-family="'Rokkitt'" font-size="10.7157">     Android</tspan><tspan x="0" y="41.435" fill="#606161" font-family="'Rokkitt'" font-size="11.9064">Cordova</tspan></text>
		</g>
		<g>
			<g>
				<g>
					<path fill="none" stroke="#FFFFFF" stroke-width="1.1906" stroke-miterlimit="10" d="M158.434,59.074h-19.097
						c-1.827,0-3.303,1.48-3.303,3.305v38.776c0,1.824,1.477,3.303,3.303,3.303h19.097c1.824,0,3.304-1.479,3.304-3.303V62.379
						C161.737,60.555,160.258,59.074,158.434,59.074z"/>
				</g>
				
					<rect x="138.51" y="64.788" fill="none" stroke="#FFFFFF" stroke-width="1.1906" stroke-miterlimit="10" width="20.751" height="29.319"/>
				<rect x="144.424" y="61.515" fill="#FFFFFF" width="8.857" height="0.967"/>
				<circle fill="#FFFFFF" cx="156.633" cy="62.039" r="0.845"/>
				<circle fill="#FFFFFF" cx="148.886" cy="99.706" r="2.108"/>
			</g>
			<path fill-rule="evenodd" clip-rule="evenodd" fill="#FFFFFF" d="M154.167,87.447h-1.247c-0.016-0.068-0.042-0.135-0.077-0.198
				c-0.034-0.062-0.128-0.243-0.248-0.473c-0.174-0.332-0.42-0.802-0.685-1.302h2.256c0.127,0,0.231,0.105,0.231,0.232v1.507
				C154.397,87.343,154.293,87.447,154.167,87.447 M151.947,86.537c0.015,0.03,0.031,0.061,0.048,0.091
				c0.002,0.006,0.004,0.009,0.007,0.016c0.205,0.389,0.359,0.689,0.422,0.804c0.005,0.008,0.01,0.018,0.013,0.024
				c0.164,0.301-0.156,0.547-0.335,0.622c-0.179,0.074-0.282,0.148-0.549,0.017c-0.268-0.136-1.6-3.223-1.942-4.027
				c-0.34-0.806-1.371-2.949-1.039-3.115c0.238-0.121,1.091,1.567,1.729,2.581c0.364,0.578,0.956,1.677,1.425,2.569
				c0.007,0.012,0.013,0.024,0.02,0.035c0.02,0.041,0.042,0.081,0.063,0.12c0.006,0.012,0.011,0.021,0.018,0.034
				c0.018,0.034,0.036,0.069,0.054,0.104c0.01,0.018,0.022,0.039,0.031,0.059C151.922,86.493,151.935,86.515,151.947,86.537
				 M148.806,84.325l-0.938,1.644l-0.847,1.479l-1.309,2.289c-0.069,0.122-0.228,0.165-0.35,0.094l-0.668-0.385
				c-0.123-0.07-0.166-0.229-0.095-0.351l0.942-1.647l1.128-1.973l1.024-1.789c0.071-0.124,0.228-0.166,0.35-0.095l0.668,0.384
				C148.834,84.046,148.876,84.203,148.806,84.325 M143.539,87.447c-0.129,0-0.232-0.104-0.232-0.233v-1.507
				c0-0.127,0.104-0.232,0.232-0.232h2.595l-1.128,1.973H143.539z M144.476,89.741l0.667,0.384c0.122,0.071,0.128,0.196,0.011,0.274
				l-0.863,0.59c-0.116,0.08-0.199,0.029-0.184-0.111l0.117-1.01C144.24,89.729,144.353,89.669,144.476,89.741 M149.706,85.475
				c0.396,0.902,0.69,1.533,0.912,1.973h-3.062l1.128-1.973H149.706z M152.12,88.523l0.384-0.2c0.136-0.068,0.304-0.012,0.376,0.127
				l0.319,0.612c0.072,0.141,0.021,0.317-0.109,0.396l-0.273,0.164c-0.13,0.079-0.306,0.036-0.389-0.096l-0.402-0.639
				C151.942,88.757,151.985,88.593,152.12,88.523 M154.064,91.357c-0.085-0.27-0.727-0.287-1.014-0.694
				c-0.288-0.407-0.05-0.617,0.05-0.713C154.267,89.291,154.064,91.357,154.064,91.357"/>
			<path fill-rule="evenodd" clip-rule="evenodd" fill="#FFFFFF" d="M152.818,74.771c-0.347,0-0.626-0.288-0.626-0.645v-2.758
				c0-0.355,0.28-0.645,0.626-0.645c0.345,0,0.625,0.289,0.625,0.645v2.758C153.443,74.482,153.163,74.771,152.818,74.771
				 M151.113,76.131h-0.478c0.018,0.057,0.026,0.115,0.026,0.18v0.034v0.217v1.109c0,0.355-0.281,0.644-0.626,0.644
				s-0.626-0.288-0.626-0.644v-1.109v-0.217v-0.034c0-0.064,0.009-0.123,0.025-0.18h-1.164c0.016,0.057,0.026,0.115,0.026,0.18
				v0.034v0.217v1.109c0,0.355-0.28,0.644-0.626,0.644c-0.346,0-0.626-0.288-0.626-0.644v-1.109v-0.217v-0.034
				c0-0.064,0.008-0.123,0.024-0.18h-0.477c-0.365,0-0.661-0.305-0.661-0.682v-3.751v-0.438v-0.537h0.044h5.754h0.044v0.537v0.438
				v3.751C151.773,75.826,151.478,76.131,151.113,76.131 M147.416,68.146l-0.117-0.182l-0.117-0.179l-0.261-0.402
				c-0.031-0.05-0.018-0.116,0.029-0.149c0.049-0.032,0.113-0.018,0.146,0.03l0.279,0.432l0.117,0.18l0.119,0.185
				c0.376-0.15,0.797-0.235,1.241-0.235c0.444,0,0.865,0.085,1.242,0.235l0.12-0.185l0.117-0.18l0.278-0.432
				c0.033-0.048,0.096-0.063,0.145-0.03c0.048,0.033,0.062,0.1,0.029,0.149l-0.26,0.402l-0.116,0.179l-0.118,0.182
				c0.886,0.426,1.485,1.229,1.485,2.149h-5.843C145.931,69.374,146.529,68.571,147.416,68.146 M150.104,69.437
				c0.173,0,0.312-0.145,0.312-0.324c0-0.177-0.139-0.32-0.312-0.32s-0.313,0.144-0.313,0.32
				C149.791,69.292,149.932,69.437,150.104,69.437 M147.599,69.437c0.173,0,0.314-0.145,0.314-0.324c0-0.177-0.141-0.32-0.314-0.32
				c-0.172,0-0.312,0.144-0.312,0.32C147.288,69.292,147.427,69.437,147.599,69.437 M144.887,74.771
				c-0.345,0-0.626-0.288-0.626-0.645v-2.758c0-0.355,0.281-0.645,0.626-0.645c0.346,0,0.626,0.289,0.626,0.645v2.758
				C145.513,74.482,145.233,74.771,144.887,74.771"/>
		</g>
	</g>
</g>
<g id="Layer_2">
</g>
</svg>
