<?xml version="1.0" encoding="utf-8"?>
<!-- Generator: Adobe Illustrator 16.0.0, SVG Export Plug-In . SVG Version: 6.00 Build 0)  -->
<!DOCTYPE svg PUBLIC "-//W3C//DTD SVG 1.1//EN" "http://www.w3.org/Graphics/SVG/1.1/DTD/svg11.dtd">
<svg version="1.1" xmlns="http://www.w3.org/2000/svg" xmlns:xlink="http://www.w3.org/1999/xlink" x="0px" y="0px" width="200px"
	 height="130px" viewBox="0 0 200 130" enable-background="new 0 0 200 130" xml:space="preserve">
<g id="Layer_1">
	<g>
		<g>
			<path fill="#B52245" d="M185.651,18.766c1.335,0,2.421,1.087,2.421,2.423v99.525c0,1.336-1.086,2.423-2.421,2.423H12.781
				c-1.336,0-2.422-1.087-2.422-2.423V21.188c0-1.336,1.086-2.423,2.422-2.423H185.651 M185.651,17.586H12.781
				c-1.98,0-3.603,1.62-3.603,3.603v99.525c0,1.979,1.623,3.603,3.603,3.603h172.87c1.979,0,3.602-1.623,3.602-3.603V21.188
				C189.253,19.206,187.631,17.586,185.651,17.586L185.651,17.586z"/>
		</g>
		<path fill="#B52245" d="M185.651,12.184H12.781c-1.98,0-3.603,1.62-3.603,3.603v14.405v1.801v3.603h3.603h172.87h3.602v-3.603
			v-1.801V15.786C189.253,13.804,187.631,12.184,185.651,12.184z"/>
		<g>
			<rect x="18.239" y="18.5" fill="none" width="133.13" height="14.794"/>
			<text transform="matrix(1 0 0 1 18.2393 26.1973)" fill="#FFFFFF" font-family="'Rokkitt-Bold'" font-size="12.98">Mobile Games</text>
		</g>
		<g>
			<rect x="18.239" y="51.785" fill="none" width="85.054" height="62.867"/>
			<text transform="matrix(1 0 0 1 18.2393 58.4404)"><tspan x="0" y="0" fill="#606161" font-family="'Rokkitt'" font-size="11.8">Unity</tspan><tspan x="0" y="14.16" fill="#606161" font-family="'Rokkitt'" font-size="11.8">     </tspan><tspan x="12.388" y="14.16" fill="#606161" font-family="'Rokkitt'" font-size="10.62">3D</tspan><tspan x="0" y="26.904" fill="#606161" font-family="'Rokkitt'" font-size="10.62">      2D</tspan></text>
		</g>
		<g>
			<circle fill="#B52245" cx="147.67" cy="82.295" r="30.51"/>
			<g>
				<g>
					<g>
						<path fill="none" stroke="#FFFFFF" stroke-width="1.18" stroke-miterlimit="10" d="M156.626,66.39
							c-6.548,3.237-10.898,2.979-17.673-0.051c-11.864,0-18.66,31.911-9.787,31.911c7.487,0,8.492-9.33,18.748-9.33
							c8.29,0,13.157,9.214,18.688,9.214C175.474,98.134,166.465,66.39,156.626,66.39z"/>
					</g>
				</g>
				<path fill="#FFFFFF" d="M139.032,82.177c-3.284,0-5.946-2.663-5.946-5.942c0-3.278,2.662-5.94,5.946-5.94
					c3.281,0,5.941,2.662,5.941,5.94C144.974,79.514,142.313,82.177,139.032,82.177z M138.977,73.265
					c-1.694,0-3.065,1.373-3.065,3.059c0,1.695,1.371,3.065,3.065,3.065c1.689,0,3.059-1.37,3.059-3.065
					C142.035,74.638,140.666,73.265,138.977,73.265z"/>
				<path fill="#FFFFFF" d="M153.023,76.689c-0.97-0.303-1.512-1.334-1.205-2.307c0.305-0.968,1.337-1.508,2.307-1.203
					c0.971,0.3,1.513,1.332,1.208,2.303C155.028,76.457,153.994,76.991,153.023,76.689z"/>
				<path fill="#FFFFFF" d="M162.355,78.238c-0.309,0.973-1.339,1.511-2.31,1.208c-0.966-0.302-1.51-1.334-1.207-2.31
					c0.309-0.971,1.343-1.507,2.307-1.208C162.118,76.235,162.659,77.266,162.355,78.238z"/>
				<path fill="#FFFFFF" d="M159.986,73.931c-0.312,0.973-1.339,1.51-2.31,1.208c-0.968-0.302-1.51-1.335-1.21-2.31
					c0.309-0.972,1.344-1.507,2.31-1.209C159.749,71.928,160.288,72.956,159.986,73.931z"/>
				<path fill="#FFFFFF" d="M157.514,79.642c-0.312,0.973-1.342,1.51-2.313,1.208c-0.968-0.302-1.509-1.334-1.207-2.31
					c0.309-0.97,1.341-1.507,2.307-1.209C157.271,77.64,157.813,78.667,157.514,79.642z"/>
			</g>
		</g>
	</g>
</g>
<g id="Layer_2">
</g>
</svg>
