<?xml version="1.0" encoding="utf-8"?>
<!-- Generator: Adobe Illustrator 16.0.0, SVG Export Plug-In . SVG Version: 6.00 Build 0)  -->
<!DOCTYPE svg PUBLIC "-//W3C//DTD SVG 1.1//EN" "http://www.w3.org/Graphics/SVG/1.1/DTD/svg11.dtd">
<svg version="1.1" xmlns="http://www.w3.org/2000/svg" xmlns:xlink="http://www.w3.org/1999/xlink" x="0px" y="0px" width="200px"
	 height="100px" viewBox="0 0 200 100" enable-background="new 0 0 200 100" xml:space="preserve">
<g id="Layer_1">
	
		<line fill="none" stroke="#3DA5CE" stroke-width="1.5" stroke-linecap="square" stroke-miterlimit="10" x1="105.085" y1="13.578" x2="184.434" y2="13.578"/>
	
		<line fill="none" stroke="#3DA5CE" stroke-width="1.5" stroke-linecap="square" stroke-miterlimit="10" x1="91.507" y1="13.578" x2="96.404" y2="13.578"/>
	
		<line fill="none" stroke="#3DA5CE" stroke-width="1.5" stroke-linecap="square" stroke-miterlimit="10" x1="120.038" y1="35.197" x2="131.874" y2="35.197"/>
	
		<line fill="none" stroke="#3DA5CE" stroke-width="1.5" stroke-linecap="square" stroke-miterlimit="10" x1="51.042" y1="20.623" x2="71.54" y2="20.623"/>
	
		<line fill="none" stroke="#3DA5CE" stroke-width="1.5" stroke-linecap="square" stroke-miterlimit="10" x1="170.716" y1="32.558" x2="178.076" y2="32.558"/>
	<polyline fill="none" stroke="#3DA5CE" stroke-width="1.5" stroke-linecap="square" stroke-miterlimit="10" points="39.277,81.982 
		63.037,81.982 63.037,89.498 16.575,89.498 16.575,51.538 	"/>
	
		<line fill="none" stroke="#3DA5CE" stroke-width="1.5" stroke-linecap="square" stroke-miterlimit="10" x1="125.957" y1="27.834" x2="125.957" y2="34.979"/>
	
		<line fill="none" stroke="#3DA5CE" stroke-width="1.5" stroke-linecap="square" stroke-miterlimit="10" x1="125.957" y1="75.285" x2="125.957" y2="89.169"/>
	
		<line fill="none" stroke="#3DA5CE" stroke-width="1.5" stroke-linecap="square" stroke-miterlimit="10" x1="132.143" y1="20.864" x2="132.143" y2="27.629"/>
	
		<line fill="none" stroke="#3DA5CE" stroke-width="1.5" stroke-linecap="square" stroke-miterlimit="10" x1="119.978" y1="20.681" x2="119.978" y2="27.629"/>
	<polyline fill="none" stroke="#3DA5CE" stroke-width="1.5" stroke-linecap="square" stroke-miterlimit="10" points="25.078,81.982 
		25.078,51.538 31.943,51.538 	"/>
	
		<line fill="none" stroke="#3DA5CE" stroke-width="1.5" stroke-linecap="square" stroke-miterlimit="10" x1="31.943" y1="82.472" x2="31.943" y2="89.498"/>
	<polyline fill="none" stroke="#3DA5CE" stroke-width="1.5" stroke-linecap="square" stroke-miterlimit="10" points="43.071,13.578 
		16.575,13.578 16.575,43.53 31.987,43.53 31.943,27.629 	"/>
	<polyline fill="none" stroke="#3DA5CE" stroke-width="1.5" stroke-linecap="square" stroke-miterlimit="10" points="25.078,35.258 
		25.078,20.623 51.042,20.623 	"/>
	<polyline fill="none" stroke="#3DA5CE" stroke-width="1.5" stroke-linecap="square" stroke-miterlimit="10" points="31.943,60.197 
		55.787,60.197 55.787,67.886 25.407,67.886 	"/>
	<path fill="none" stroke="#3DA5CE" stroke-width="1.5" stroke-linecap="square" stroke-miterlimit="10" d="M63.037,70.517"/>
	<path fill="none" stroke="#3DA5CE" stroke-width="1.5" stroke-linecap="square" stroke-miterlimit="10" d="M63.037,61.027"/>
	<polyline fill="none" stroke="#3DA5CE" stroke-width="1.5" stroke-linecap="square" stroke-miterlimit="10" points="81.275,20.623 
		81.275,51.538 72.669,51.538 	"/>
	<polyline fill="none" stroke="#3DA5CE" stroke-width="1.5" stroke-linecap="square" stroke-miterlimit="10" points="43.071,13.578 
		91.507,13.578 91.507,20.623 162.718,20.623 	"/>
	<polyline fill="none" stroke="#3DA5CE" stroke-width="1.5" stroke-linecap="square" stroke-miterlimit="10" points="
		112.962,75.445 105.085,75.445 105.085,89.498 71.87,89.498 71.87,43.53 47.217,43.53 47.217,35.258 71.661,35.258 71.661,20.623 	
		"/>
	<polyline fill="none" stroke="#3DA5CE" stroke-width="1.5" stroke-linecap="square" stroke-miterlimit="10" points="
		120.038,68.216 120.038,81.982 112.962,81.982 112.962,89.498 153.959,89.498 	"/>
	<polyline fill="none" stroke="#3DA5CE" stroke-width="1.5" stroke-linecap="square" stroke-miterlimit="10" points="
		125.896,51.538 125.896,60.197 96.404,60.197 96.404,81.982 80.947,81.982 80.947,61.027 	"/>
	<polyline fill="none" stroke="#3DA5CE" stroke-width="1.5" stroke-linecap="square" stroke-miterlimit="10" points="
		170.228,13.578 170.228,43.53 148.448,43.53 148.448,35.094 162.718,35.094 	"/>
	<polyline fill="none" stroke="#3DA5CE" stroke-width="1.5" stroke-linecap="square" stroke-miterlimit="10" points="
		170.228,60.197 170.228,81.982 132.143,81.982 132.143,75.447 	"/>
	<polyline fill="none" stroke="#3DA5CE" stroke-width="1.5" stroke-linecap="square" stroke-miterlimit="10" points="
		170.228,51.538 176.917,51.538 176.939,43.53 184.128,43.53 	"/>
	<polyline fill="none" stroke="#3DA5CE" stroke-width="1.5" stroke-linecap="square" stroke-miterlimit="10" points="
		176.917,82.472 176.917,59.869 184.105,59.869 	"/>
	<polyline fill="none" stroke="#3DA5CE" stroke-width="1.5" stroke-linecap="square" stroke-miterlimit="10" points="
		177.967,20.623 184.323,20.623 184.434,89.498 162.718,89.498 	"/>
	<polyline fill="none" stroke="#3DA5CE" stroke-width="1.5" stroke-linecap="square" stroke-miterlimit="10" points="
		103.146,67.886 153.959,67.886 153.959,60.197 132.143,60.197 132.143,43.53 119.978,43.53 119.978,51.538 	"/>
	
		<rect x="96.404" y="35.258" fill="none" stroke="#3DA5CE" stroke-width="1.5" stroke-linecap="square" stroke-miterlimit="10" width="8.681" height="8.681"/>
</g>
<g id="Layer_2">
</g>
</svg>
