<?xml version="1.0" encoding="utf-8"?>
<!-- Generator: Adobe Illustrator 16.0.0, SVG Export Plug-In . SVG Version: 6.00 Build 0)  -->
<!DOCTYPE svg PUBLIC "-//W3C//DTD SVG 1.1//EN" "http://www.w3.org/Graphics/SVG/1.1/DTD/svg11.dtd">
<svg version="1.1" xmlns="http://www.w3.org/2000/svg" xmlns:xlink="http://www.w3.org/1999/xlink" x="0px" y="0px" width="200px"
	 height="130px" viewBox="0 0 200 130" enable-background="new 0 0 200 130" xml:space="preserve">
<g id="Layer_1">
	<g>
		<g>
			<path fill="#B52245" d="M186.003,16.577c1.34,0,2.431,1.09,2.431,2.431v99.931c0,1.341-1.09,2.432-2.431,2.432H12.429
				c-1.341,0-2.432-1.091-2.432-2.432V19.008c0-1.341,1.091-2.431,2.432-2.431H186.003 M186.003,15.392H12.429
				c-1.988,0-3.616,1.627-3.616,3.616v99.931c0,1.988,1.628,3.617,3.616,3.617h173.574c1.988,0,3.616-1.629,3.616-3.617V19.008
				C189.619,17.02,187.991,15.392,186.003,15.392L186.003,15.392z"/>
		</g>
		<path fill="#B52245" d="M186.003,9.968H12.429c-1.988,0-3.616,1.627-3.616,3.616v14.464v1.809v3.616h3.616h173.574h3.616v-3.616
			v-1.809V13.584C189.619,11.595,187.991,9.968,186.003,9.968z"/>
		<g>
			<rect x="17.909" y="16.31" fill="none" width="133.672" height="14.854"/>
			<text transform="matrix(1 0 0 1 17.9092 24.0371)" fill="#FFFFFF" font-family="'Rokkitt-Bold'" font-size="13.0328">Web Applications</text>
		</g>
		<circle fill="#B52245" cx="147.867" cy="80.364" r="30.633"/>
		<g>
			<rect x="17.909" y="49.73" fill="none" width="85.4" height="63.122"/>
			<text transform="matrix(1 0 0 1 17.9092 56.4126)"><tspan x="0" y="0" fill="#606161" font-family="'Rokkitt'" font-size="11.848">Ruby on Rails</tspan><tspan x="0" y="14.218" fill="#606161" font-family="'Rokkitt'" font-size="11.848">Javascript</tspan><tspan x="0" y="28.436" fill="#606161" font-family="'Rokkitt'" font-size="11.848">HTML 5</tspan><tspan x="0" y="42.653" fill="#606161" font-family="'Rokkitt'" font-size="11.848">CSS 3</tspan></text>
		</g>
		<g>
			<path fill="none" stroke="#FFFFFF" stroke-width="1.1848" stroke-miterlimit="10" d="M169.863,93.07
				c0,0.975-0.791,1.767-1.767,1.767h-40.459c-0.976,0-1.766-0.792-1.766-1.767V66.647c0-0.975,0.79-1.766,1.766-1.766h40.459
				c0.976,0,1.767,0.791,1.767,1.766V93.07z"/>
			<g>
				
					<rect x="128.24" y="67.055" fill="none" stroke="#FFFFFF" stroke-width="1.1848" stroke-miterlimit="10" width="39.48" height="25.609"/>
				<path fill="none" stroke="#FFFFFF" stroke-width="1.1848" stroke-miterlimit="10" d="M154.083,99.21c-0.041,0-0.101,0-0.149,0
					v-4.305h-11.145v4.315c-2.058,0.064-1.753,2.551-1.753,2.551h14.978C156.014,101.772,155.732,99.21,154.083,99.21z"/>
			</g>
			<g>
				<g>
					<path fill="#FFFFFF" d="M133.872,79.867l8.432,3.463v1.386l-10.131-4.264v-1.158l10.131-4.265v1.386L133.872,79.867z"/>
					<path fill="#FFFFFF" d="M151.071,73.383l-4.698,12.87h-1.396l4.697-12.87H151.071z"/>
					<path fill="#FFFFFF" d="M153.43,76.414v-1.386l10.131,4.265v1.158l-10.131,4.264V83.33l8.432-3.463L153.43,76.414z"/>
				</g>
			</g>
		</g>
	</g>
</g>
<g id="Layer_2">
</g>
</svg>
